<svg width="719" height="390" viewBox="0 0 719 390" fill="none" xmlns="http://www.w3.org/2000/svg">
<path d="M716 74.7297C714.667 73.3963 711.067 70.9963 708.267 69.5297C705.467 68.063 692.534 60.863 679.6 53.5297C666.534 46.063 654.934 40.063 653.467 40.063C652.134 40.063 644.4 43.263 636.267 47.263C613.334 58.5963 600.4 58.863 598 48.063C597.467 45.3963 595.867 43.5297 593.734 42.5963C591.867 41.9297 544.667 41.3963 477.2 41.3963L364 41.3963L364 51.3963L364 61.3963L466.667 61.3963L569.334 61.3963L569.334 82.7297L569.334 104.063L466.667 104.063L364 104.063L364 114.33L364 124.463L430.267 123.663C466.667 123.13 518.534 122.73 545.467 122.73L594.534 122.73L598.667 116.73L602.8 110.73L611.734 110.73C619.867 110.73 621.867 111.396 635.067 118.063C643.067 122.063 650.8 125.396 652.267 125.396C656 125.396 714.267 92.3297 716.8 88.863C719.467 84.9963 719.2 77.9297 716 74.7297Z" fill="black"/>
<path d="M347.333 6.46293C346.133 4.32959 343.6 2.32959 340.933 1.66293C338.667 0.996259 321.867 0.729591 303.733 1.12959C271.867 1.66292 270.8 1.79626 270.133 4.46292C269.733 6.06292 269.867 42.5963 270.267 85.6629L271.067 164.063L306.933 164.063L342.8 164.063L346 160.73L349.333 157.53L349.333 83.7963C349.2 21.5296 348.933 9.52959 347.333 6.46293Z" fill="black"/>
<path d="M251.067 66.463L250.667 1.39628L237.6 1.26295C230.533 1.26295 201.6 1.26295 173.333 1.39628L122 1.52961L96 12.9963C81.7333 19.2629 68.6667 25.2629 67.0667 26.3296C65.3333 27.5296 63.6 30.7296 62.6667 34.7296C61.4667 39.3963 60.4 41.3963 58.2667 41.9296C56.6667 42.3296 44.4 42.7296 31.2 42.7296C8.8 42.7296 6.8 42.9963 3.46666 45.5296L-2.05152e-06 48.1963L-3.53771e-06 82.1963L-5.0239e-06 116.196L3.33333 119.396C6.53333 122.73 6.66666 122.73 33.7333 122.73L60.9333 122.73L62.8 129.796L64.6667 136.73L82.6667 145.663C92.5333 150.596 106.267 157.13 113.067 160.063L125.467 165.663L187.333 165.13C221.333 164.996 249.467 164.33 250 163.796C251.2 162.596 251.467 140.463 251.067 66.463Z" fill="black"/>
<path d="M7.66097 346.252V325.062L101.386 325.225C106.167 325.225 109.807 324.138 112.307 321.965C114.915 319.683 116.219 316.042 116.219 311.044C116.219 306.045 114.915 302.459 112.307 300.286C109.807 298.004 106.167 296.863 101.386 296.863H43.0318C30.9699 296.863 21.5702 293.983 14.8329 288.224C8.2043 282.356 4.88998 273.771 4.88998 262.47C4.88998 251.169 8.2043 242.638 14.8329 236.879C21.5702 231.011 30.9699 228.077 43.0318 228.077H134.637V249.267L45.8028 249.104C41.1302 249.104 37.4899 250.191 34.8819 252.364C32.2739 254.429 30.9699 257.797 30.9699 262.47C30.9699 267.143 32.2739 270.565 34.8819 272.739C37.4899 274.803 41.1302 275.836 45.8028 275.836H104.157C116.219 275.836 125.564 278.824 132.192 284.801C138.93 290.669 142.298 299.416 142.298 311.044C142.298 322.562 138.93 331.31 132.192 337.287C125.564 343.263 116.219 346.252 104.157 346.252H7.66097ZM199.889 345.437C190.435 345.437 183.481 343.1 179.025 338.428C174.57 333.646 172.343 327.398 172.343 319.683V280.237H148.056V261.492H172.343V235.738H195.977V261.492H230.859V280.237H195.977V316.749C195.977 323.377 199.237 326.692 205.757 326.692H235.423V345.437H199.889ZM269.905 345.437C261.103 345.437 254.366 343.209 249.693 338.754C245.021 334.298 242.684 327.941 242.684 319.683C242.684 311.533 245.021 305.23 249.693 300.775C254.366 296.319 261.103 294.092 269.905 294.092H332.497V290.18C332.497 283.551 329.237 280.237 322.717 280.237H253.605V261.492H328.911C338.8 261.492 345.809 263.774 349.938 268.338C354.067 272.793 356.132 279.096 356.132 287.246V345.437H269.905ZM274.143 326.692H332.497V312.837H274.143C272.079 312.837 270.449 313.489 269.253 314.793C268.167 315.988 267.623 317.618 267.623 319.683C267.623 321.747 268.167 323.432 269.253 324.736C270.449 326.04 272.079 326.692 274.143 326.692ZM394.008 382.111V363.366H443.233C449.753 363.366 453.013 360.052 453.013 353.423V345.437H417.154C402.592 345.437 391.237 341.851 383.087 334.679C374.937 327.507 370.862 317.129 370.862 303.546C370.862 289.854 374.937 279.422 383.087 272.25C391.237 265.078 402.592 261.492 417.154 261.492H476.648V356.357C476.648 364.073 474.421 370.267 469.965 374.939C465.51 379.721 458.555 382.111 449.101 382.111H394.008ZM417.154 326.692H453.013V280.237H417.154C410.09 280.237 404.657 282.193 400.854 286.105C397.159 289.908 395.312 295.722 395.312 303.546C395.312 311.261 397.159 317.075 400.854 320.987C404.657 324.79 410.09 326.692 417.154 326.692ZM537.652 346.252C523.091 346.252 511.735 342.666 503.585 335.494C495.435 328.213 491.36 317.564 491.36 303.546C491.36 289.419 495.435 278.77 503.585 271.598C511.735 264.317 523.091 260.677 537.652 260.677H578.402C587.965 260.677 595.245 262.959 600.244 267.523C605.351 271.978 607.905 278.389 607.905 286.757C607.905 303.817 598.07 312.348 578.402 312.348H516.788C519.07 322.454 526.025 327.507 537.652 327.507H603.667V346.252H537.652ZM537.652 279.422C526.459 279.422 519.559 284.149 516.951 293.603H577.261C579.434 293.603 581.119 292.951 582.314 291.647C583.618 290.343 584.27 288.55 584.27 286.268C584.27 281.704 581.934 279.422 577.261 279.422H537.652ZM622.6 345.437V261.492H686.822C696.276 261.492 703.231 263.883 707.686 268.664C712.141 273.336 714.369 279.53 714.369 287.246V304.687H690.408V290.18C690.408 283.66 687.148 280.4 680.628 280.4H646.561V345.437H622.6Z" fill="black"/>
</svg>
