<svg width="719" height="319" viewBox="0 0 719 319" fill="none" xmlns="http://www.w3.org/2000/svg">
<path d="M716.313 74.7297C714.98 73.3963 711.38 70.9963 708.58 69.5297C705.78 68.063 692.846 60.863 679.913 53.5297C666.846 46.063 655.246 40.063 653.78 40.063C652.446 40.063 644.713 43.263 636.58 47.263C613.646 58.5963 600.713 58.863 598.313 48.063C597.78 45.3963 596.18 43.5297 594.046 42.5963C592.18 41.9297 544.98 41.3963 477.513 41.3963L364.313 41.3963L364.313 51.3963L364.313 61.3963L466.98 61.3963L569.646 61.3963L569.646 82.7297L569.646 104.063L466.98 104.063L364.313 104.063L364.313 114.33L364.313 124.463L430.58 123.663C466.98 123.13 518.846 122.73 545.78 122.73L594.846 122.73L598.98 116.73L603.113 110.73L612.046 110.73C620.18 110.73 622.18 111.396 635.38 118.063C643.38 122.063 651.113 125.396 652.58 125.396C656.313 125.396 714.58 92.3297 717.113 88.863C719.78 84.9963 719.513 77.9297 716.313 74.7297Z" fill="black"/>
<path d="M347.646 6.46293C346.446 4.32959 343.913 2.32959 341.246 1.66293C338.979 0.996259 322.179 0.729591 304.046 1.12959C272.179 1.66292 271.113 1.79626 270.446 4.46292C270.046 6.06292 270.179 42.5963 270.579 85.6629L271.379 164.063L307.246 164.063L343.113 164.063L346.313 160.73L349.646 157.53L349.646 83.7963C349.513 21.5296 349.246 9.52959 347.646 6.46293Z" fill="black"/>
<path d="M251.379 66.463L250.979 1.39628L237.913 1.26295C230.846 1.26295 201.913 1.26295 173.646 1.39628L122.313 1.52961L96.3126 12.9963C82.0459 19.2629 68.9793 25.2629 67.3793 26.3296C65.646 27.5296 63.9126 30.7296 62.9793 34.7296C61.7793 39.3963 60.7126 41.3963 58.5793 41.9296C56.9793 42.3296 44.7126 42.7296 31.5126 42.7296C9.11262 42.7296 7.11262 42.9963 3.77929 45.5296L0.31262 48.1963L0.312619 82.1963L0.312617 116.196L3.64595 119.396C6.84595 122.73 6.97928 122.73 34.0459 122.73L61.2459 122.73L63.1126 129.796L64.9793 136.73L82.9793 145.663C92.8459 150.596 106.579 157.13 113.379 160.063L125.779 165.663L187.646 165.13C221.646 164.996 249.779 164.33 250.313 163.796C251.513 162.596 251.779 140.463 251.379 66.463Z" fill="black"/>
<path d="M4.90769 291.522V277.948L64.9485 278.052C68.0115 278.052 70.3435 277.356 71.9446 275.964C73.6153 274.502 74.4506 272.17 74.4506 268.968C74.4506 265.765 73.6153 263.468 71.9446 262.076C70.3435 260.614 68.0115 259.883 64.9485 259.883H27.5666C19.8396 259.883 13.8181 258.038 9.50211 254.349C5.25575 250.59 3.13257 245.091 3.13257 237.851C3.13257 230.611 5.25575 225.147 9.50211 221.457C13.8181 217.698 19.8396 215.818 27.5666 215.818H86.25V229.393L29.3417 229.288C26.3484 229.288 24.0163 229.985 22.3456 231.377C20.6749 232.699 19.8396 234.857 19.8396 237.851C19.8396 240.844 20.6749 243.037 22.3456 244.429C24.0163 245.752 26.3484 246.413 29.3417 246.413H66.7236C74.4506 246.413 80.4373 248.327 84.6837 252.156C88.9997 255.915 91.1576 261.519 91.1576 268.968C91.1576 276.347 88.9997 281.95 84.6837 285.779C80.4373 289.608 74.4506 291.522 66.7236 291.522H4.90769ZM128.051 291C121.995 291 117.539 289.503 114.685 286.51C111.831 283.447 110.404 279.444 110.404 274.502V249.232H94.8457V237.224H110.404V220.726H125.545V237.224H147.891V249.232H125.545V272.622C125.545 276.869 127.633 278.992 131.81 278.992H150.814V291H128.051ZM172.904 291C167.265 291 162.949 289.573 159.956 286.719C156.962 283.865 155.466 279.792 155.466 274.502C155.466 269.281 156.962 265.243 159.956 262.389C162.949 259.535 167.265 258.108 172.904 258.108H213.001V255.602C213.001 251.356 210.912 249.232 206.735 249.232H162.462V237.224H210.703C217.038 237.224 221.528 238.686 224.173 241.61C226.819 244.464 228.141 248.502 228.141 253.722V291H172.904ZM175.619 278.992H213.001V270.116H175.619C174.296 270.116 173.252 270.534 172.486 271.369C171.79 272.135 171.442 273.179 171.442 274.502C171.442 275.824 171.79 276.903 172.486 277.739C173.252 278.574 174.296 278.992 175.619 278.992ZM252.405 314.494V302.486H283.939C288.116 302.486 290.204 300.363 290.204 296.117V291H267.232C257.904 291 250.63 288.703 245.409 284.108C240.188 279.514 237.577 272.866 237.577 264.164C237.577 255.393 240.188 248.71 245.409 244.116C250.63 239.522 257.904 237.224 267.232 237.224H305.345V297.996C305.345 302.939 303.918 306.906 301.064 309.9C298.21 312.963 293.755 314.494 287.698 314.494H252.405ZM267.232 278.992H290.204V249.232H267.232C262.707 249.232 259.227 250.485 256.79 252.992C254.424 255.428 253.24 259.152 253.24 264.164C253.24 269.107 254.424 272.831 256.79 275.337C259.227 277.774 262.707 278.992 267.232 278.992ZM344.425 291.522C335.097 291.522 327.822 289.225 322.601 284.63C317.38 279.966 314.77 273.144 314.77 264.164C314.77 255.115 317.38 248.293 322.601 243.698C327.822 239.034 335.097 236.702 344.425 236.702H370.529C376.655 236.702 381.319 238.164 384.522 241.088C387.793 243.942 389.429 248.049 389.429 253.409C389.429 264.338 383.129 269.803 370.529 269.803H331.059C332.521 276.277 336.976 279.514 344.425 279.514H386.714V291.522H344.425ZM344.425 248.71C337.255 248.71 332.834 251.739 331.164 257.795H369.799C371.191 257.795 372.27 257.377 373.035 256.542C373.871 255.706 374.289 254.558 374.289 253.096C374.289 250.172 372.792 248.71 369.799 248.71H344.425ZM398.008 291.522V277.948L458.049 278.052C461.112 278.052 463.444 277.356 465.045 275.964C466.716 274.502 467.551 272.17 467.551 268.968C467.551 265.765 466.716 263.468 465.045 262.076C463.444 260.614 461.112 259.883 458.049 259.883H420.667C412.94 259.883 406.918 258.038 402.602 254.349C398.356 250.59 396.233 245.091 396.233 237.851C396.233 230.611 398.356 225.147 402.602 221.457C406.918 217.698 412.94 215.818 420.667 215.818H479.35V229.393L422.442 229.288C419.449 229.288 417.117 229.985 415.446 231.377C413.775 232.699 412.94 234.857 412.94 237.851C412.94 240.844 413.775 243.037 415.446 244.429C417.117 245.752 419.449 246.413 422.442 246.413H459.824C467.551 246.413 473.538 248.327 477.784 252.156C482.1 255.915 484.258 261.519 484.258 268.968C484.258 276.347 482.1 281.95 477.784 285.779C473.538 289.608 467.551 291.522 459.824 291.522H398.008ZM493.167 314.494V237.224H531.802C541.13 237.224 548.404 239.522 553.625 244.116C558.846 248.71 561.457 255.358 561.457 264.06C561.457 272.831 558.846 279.514 553.625 284.108C548.404 288.703 541.13 291 531.802 291H508.308V314.494H493.167ZM531.802 249.232H508.308V278.992H531.802C536.327 278.992 539.773 277.774 542.139 275.337C544.576 272.831 545.794 269.072 545.794 264.06C545.794 259.117 544.576 255.428 542.139 252.992C539.773 250.485 536.327 249.232 531.802 249.232ZM598.436 291.522C589.108 291.522 581.833 289.225 576.612 284.63C571.391 279.966 568.781 273.144 568.781 264.164C568.781 255.115 571.391 248.293 576.612 243.698C581.833 239.034 589.108 236.702 598.436 236.702H624.54C630.666 236.702 635.33 238.164 638.533 241.088C641.804 243.942 643.44 248.049 643.44 253.409C643.44 264.338 637.14 269.803 624.54 269.803H585.07C586.532 276.277 590.987 279.514 598.436 279.514H640.725V291.522H598.436ZM598.436 248.71C591.266 248.71 586.845 251.739 585.175 257.795H623.81C625.202 257.795 626.281 257.377 627.047 256.542C627.882 255.706 628.3 254.558 628.3 253.096C628.3 250.172 626.803 248.71 623.81 248.71H598.436ZM680.421 291.522C671.093 291.522 663.818 289.225 658.597 284.63C653.376 279.966 650.766 273.144 650.766 264.164C650.766 255.115 653.376 248.293 658.597 243.698C663.818 239.034 671.093 236.702 680.421 236.702H715.401V248.71H680.421C675.896 248.71 672.415 249.963 669.979 252.469C667.612 254.975 666.429 258.874 666.429 264.164C666.429 269.385 667.612 273.249 669.979 275.755C672.415 278.261 675.896 279.514 680.421 279.514H716.445V291.522H680.421Z" fill="black"/>
</svg>
