<?xml version="1.0" standalone="no"?>
<!DOCTYPE svg PUBLIC "-//W3C//DTD SVG 20010904//EN"
 "http://www.w3.org/TR/2001/REC-SVG-20010904/DTD/svg10.dtd">
<svg version="1.0" xmlns="http://www.w3.org/2000/svg"
 width="668.390549pt" height="1379.182424pt" viewBox="0 0 668.390549 1379.182424"
 preserveAspectRatio="xMidYMid meet">
<metadata>Created by Svg.la</metadata>
<g transform="translate(-178.123256,1448.559084) scale(0.100000,-0.100000)"
fill="#000000" stroke="none">
<path d="M3000 14424 c-565 -124 -771 -174 -800 -194 -37 -27 -74 -70 -88
-106 -6 -16 -53 -274 -103 -574 l-91 -545 1 -565 c1 -360 6 -579 12 -605 7
-24 28 -56 54 -82 l42 -43 -36 -9 c-20 -6 -48 -13 -62 -16 -38 -9 -96 -61
-122 -108 l-22 -42 -3 -4480 c-2 -4137 -1 -4483 14 -4524 21 -54 66 -107 113
-130 20 -10 81 -28 136 -41 55 -14 101 -25 103 -26 1 0 -5 -18 -14 -40 -21
-48 -24 -191 -7 -250 31 -100 123 -192 221 -220 190 -56 387 68 448 280 10 36
23 66 27 66 14 0 132 -31 777 -201 1061 -281 1424 -377 1890 -504 250 -68 550
-149 665 -181 116 -31 213 -58 217 -60 4 -3 1 -19 -7 -38 -24 -58 -29 -154
-11 -224 29 -115 92 -193 195 -244 69 -33 186 -32 262 3 99 47 194 165 230
286 11 38 19 46 65 67 61 28 29 -13 378 491 l256 369 88 1 c76 0 93 3 133 27
61 36 132 115 165 185 36 78 64 219 64 333 l0 95 134 186 c73 103 136 200 139
215 6 31 -1 8642 -7 8735 -4 61 -24 109 -65 152 -42 46 -75 57 -199 68 -64 5
-136 12 -160 15 l-43 5 35 39 c19 21 38 54 41 72 3 18 5 494 3 1058 l-3 1025
-31 55 c-25 44 -42 60 -85 82 l-54 28 -405 15 c-223 8 -580 22 -795 30 -214 8
-570 22 -790 30 -220 8 -517 19 -660 25 -143 6 -489 19 -770 30 -280 11 -613
24 -740 30 -126 5 -277 12 -335 14 -100 5 -118 2 -400 -60z m4854 -291 c4 -9
3 -19 -1 -23 -38 -32 -561 -229 -629 -237 -33 -4 -42 -2 -48 13 -4 9 -3 21 1
24 4 4 87 36 183 70 96 35 236 87 310 116 145 57 174 63 184 37z m-4499 -178
c1204 -57 1512 -71 1935 -90 823 -36 1637 -76 1659 -81 29 -6 34 46 -53 -558
l-66 -458 0 -602 c0 -635 -1 -638 -46 -661 -25 -12 -4 -13 -944 54 -382 28
-891 64 -1130 81 -239 17 -529 37 -645 45 -115 8 -372 26 -570 40 -463 32
-589 41 -994 70 -367 26 -363 25 -380 94 -5 20 -9 267 -10 550 -1 504 -1 516
24 655 13 77 54 312 90 521 37 209 69 383 71 387 3 4 31 5 62 2 31 -2 480 -25
997 -49z m4863 -2266 c4 -33 -5 -38 -493 -331 -381 -229 -400 -237 -393 -183
4 26 237 179 539 353 86 50 191 113 234 142 43 28 86 49 94 48 9 -2 17 -15 19
-29z m-1018 -204 c0 -20 -13 -33 -57 -62 -90 -57 -141 -73 -236 -72 l-82 1 45
12 c62 18 183 70 255 110 74 42 75 42 75 11z m-4729 -34 c189 -17 490 -41 669
-55 179 -14 498 -39 710 -56 212 -17 529 -41 705 -55 176 -14 406 -31 510 -40
105 -8 516 -40 915 -70 863 -65 952 -72 983 -84 40 -15 85 -76 92 -123 3 -24
4 -2189 3 -4813 -3 -4542 -4 -4772 -21 -4802 -9 -18 -29 -40 -43 -49 -24 -16
-32 -15 -197 29 -95 25 -386 102 -647 171 -261 69 -596 157 -745 196 -148 39
-463 123 -700 185 -236 63 -583 154 -770 204 -187 49 -430 113 -540 141 -616
159 -808 208 -1075 276 -164 42 -303 83 -314 92 -49 45 -46 -228 -44 4274 1
2312 4 4283 7 4381 l6 179 28 24 c36 31 43 31 468 -5z m5650 -3490 l24 -19 5
-304 c3 -166 2 -327 -2 -357 -9 -75 -40 -108 -199 -219 -295 -206 -308 -213
-329 -202 -42 23 -45 41 -48 370 l-3 316 33 63 c32 61 38 66 253 216 121 85
225 154 231 154 7 1 22 -8 35 -18z m-121 -5709 c-19 -76 -71 -133 -105 -114
-12 6 -4 25 47 99 65 95 79 99 58 15z m-5550 -48 c0 -74 16 -118 54 -154 l27
-24 -23 -13 c-72 -39 -156 6 -165 89 -11 96 29 180 82 170 24 -4 25 -8 25 -68z
m4228 -1060 c30 -6 31 -7 25 -54 -6 -56 9 -109 44 -150 l25 -30 -25 -11 c-51
-23 -114 6 -146 68 -18 35 -13 114 9 151 21 35 22 35 68 26z"/>
<path d="M2355 13888 c-18 -98 -142 -833 -141 -835 3 -4 969 -64 2276 -143
278 -17 685 -42 905 -55 220 -13 522 -31 670 -40 149 -9 360 -22 469 -30 110
-8 201 -13 203 -12 1 2 28 176 58 388 31 211 61 419 67 462 6 42 9 79 7 81 -2
2 -121 9 -264 15 -254 12 -1199 56 -2255 106 -289 14 -718 34 -955 45 -236 11
-556 27 -710 35 -154 8 -290 15 -302 15 -17 0 -23 -7 -28 -32z m645 -169 c173
-11 410 -24 525 -29 116 -5 372 -19 570 -30 198 -10 461 -24 585 -30 124 -6
405 -19 625 -30 220 -11 591 -27 825 -35 473 -18 472 -18 478 -85 5 -45 -57
-519 -71 -549 -7 -13 -20 -29 -29 -35 -12 -7 -126 -4 -395 13 -562 34 -804 48
-1383 81 -289 17 -707 41 -930 55 -223 14 -594 36 -825 50 -536 32 -522 31
-541 60 -13 20 -11 44 26 266 22 134 45 259 51 277 14 42 38 51 114 46 33 -3
202 -14 375 -25z"/>
<path d="M2545 13700 c-3 -5 -21 -100 -40 -212 -19 -112 -39 -225 -44 -253 -7
-37 -6 -53 3 -63 10 -11 489 -47 835 -63 l54 -3 45 272 c25 150 43 274 41 277
-6 6 -746 55 -826 55 -34 0 -64 -4 -68 -10z m179 -96 c74 -11 53 -25 -31 -22
-50 2 -78 7 -81 16 -4 14 37 16 112 6z m429 -25 c157 -9 214 -20 176 -33 -8
-3 -101 0 -208 7 -138 8 -196 16 -199 25 -5 15 9 15 231 1z m-363 -94 c35 -18
60 -62 60 -106 0 -22 -10 -41 -34 -65 -29 -29 -41 -34 -79 -34 -56 0 -92 27
-108 80 -10 32 -9 44 7 76 30 61 93 81 154 49z m388 -35 c39 -24 66 -80 57
-120 -3 -15 -19 -40 -35 -55 -54 -52 -143 -32 -177 40 -23 48 -5 108 40 135
41 25 74 25 115 0z"/>
<path d="M2696 13439 c-35 -28 -35 -70 0 -98 32 -25 52 -26 82 -5 32 22 30 76
-4 103 -15 12 -32 21 -39 21 -7 0 -24 -9 -39 -21z"/>
<path d="M3077 13402 c-39 -42 -8 -112 48 -112 58 0 86 69 45 110 -25 25 -72
26 -93 2z"/>
<path d="M3476 13648 c-10 -37 -88 -539 -85 -542 4 -4 945 -63 1459 -91 348
-19 838 -48 1274 -75 187 -12 350 -19 362 -16 27 7 25 -5 65 309 31 244 31
249 13 267 -17 16 -62 19 -449 34 -236 9 -567 23 -735 31 -168 8 -453 22 -635
30 -181 9 -529 27 -772 40 -516 29 -493 29 -497 13z m264 -108 c12 -8 12 -10
-4 -16 -24 -9 -157 3 -170 16 -13 13 153 14 174 0z m354 -21 c17 -15 -18 -19
-113 -11 -65 5 -96 11 -99 20 -3 11 15 12 99 7 57 -4 108 -11 113 -16z m400
-20 c18 -16 -23 -20 -130 -12 -73 5 -109 12 -112 21 -3 10 20 12 115 6 65 -3
122 -10 127 -15z m404 -15 c7 -2 10 -9 6 -15 -5 -8 -40 -9 -123 -4 -119 7
-135 10 -126 25 5 8 215 3 243 -6z m-1320 -28 c6 -29 -15 -43 -35 -24 -14 14
-14 20 -3 33 16 19 34 15 38 -9z m1720 9 c6 -3 12 -10 12 -16 0 -9 -30 -10
-117 -4 -120 7 -137 10 -128 25 5 7 205 3 233 -5z m620 -25 c250 -11 458 -23
464 -26 32 -20 -28 -24 -243 -14 -428 18 -674 31 -686 35 -7 3 -13 9 -13 15 0
5 6 10 13 10 6 0 216 -9 465 -20z m-2007 -26 c22 -19 34 -73 24 -103 -12 -38
-46 -61 -90 -61 -47 0 -78 25 -89 72 -8 37 17 96 46 108 31 13 86 5 109 -16z
m392 -19 c31 -32 39 -71 22 -112 -24 -57 -93 -71 -142 -29 -23 20 -28 32 -28
71 0 39 5 51 28 71 38 32 86 32 120 -1z m404 -28 c50 -46 33 -135 -31 -157
-91 -32 -163 75 -101 149 39 45 89 48 132 8z m367 3 c8 0 25 -12 40 -26 73
-74 -12 -197 -103 -150 -37 20 -51 44 -51 88 0 54 49 105 88 92 8 -2 19 -4 26
-4z"/>
<path d="M2200 12430 l0 -530 23 -4 c12 -3 139 -12 282 -21 143 -9 319 -20
390 -25 72 -6 366 -26 655 -45 289 -19 716 -49 950 -65 234 -17 493 -35 575
-40 83 -6 209 -14 280 -20 72 -5 234 -16 360 -25 369 -25 936 -64 983 -69 l42
-4 0 553 0 552 -107 7 c-60 4 -211 13 -338 21 -126 9 -567 35 -980 60 -859 51
-1600 96 -2055 125 -325 21 -1011 60 -1042 60 -17 0 -18 -28 -18 -530z m699
311 l315 -18 23 -27 c22 -26 23 -32 23 -227 0 -266 21 -247 -250 -229 -80 5
-253 17 -385 25 -311 19 -285 -4 -285 259 0 183 1 195 22 221 l21 27 101 -7
c56 -3 242 -14 415 -24z"/>
<path d="M2387 12722 c-15 -16 -17 -44 -17 -200 0 -205 2 -212 73 -212 23 -1
204 -11 402 -24 241 -16 364 -20 373 -14 9 8 12 60 12 197 0 134 -4 192 -12
204 -11 14 -66 19 -373 37 -198 11 -378 22 -401 25 -31 4 -44 2 -57 -13z m418
-77 c350 -21 367 -23 363 -43 -2 -9 -8 -17 -13 -17 -94 2 -555 30 -672 41 -54
5 -63 8 -63 25 0 18 5 19 63 14 34 -3 179 -12 322 -20z m80 -134 c251 -14 280
-18 283 -33 4 -22 -39 -23 -253 -8 -77 5 -216 14 -310 20 -161 10 -194 18
-179 42 3 5 45 6 92 2 48 -3 213 -13 367 -23z m-85 -112 c252 -16 359 -26 369
-35 28 -26 -22 -27 -313 -10 -417 26 -430 28 -434 49 -2 9 2 17 10 17 7 0 173
-9 368 -21z"/>
<path d="M2057 11383 c-4 -3 -7 -1963 -7 -4353 0 -3466 3 -4350 13 -4358 6 -5
122 -38 257 -72 135 -34 398 -101 585 -150 187 -49 482 -125 655 -170 173 -45
457 -119 630 -165 1821 -484 2754 -724 2766 -714 12 10 14 756 14 4780 0 3607
-3 4774 -12 4794 -7 16 -24 28 -47 34 -20 6 -166 19 -326 31 -159 11 -432 32
-605 45 -173 14 -659 52 -1080 85 -421 33 -936 73 -1145 90 -209 16 -528 41
-710 55 -181 14 -460 37 -618 50 -305 26 -360 29 -370 18z m592 -250 c284 -23
337 -30 357 -46 l24 -18 0 -414 c0 -238 -4 -424 -10 -439 -16 -44 -33 -46
-230 -25 -102 11 -252 26 -335 34 -113 12 -156 20 -175 34 l-25 18 1 426 c0
444 1 457 43 457 9 0 166 -12 350 -27z"/>
<path d="M2296 11122 c-3 -5 -8 -194 -12 -420 l-7 -411 24 -10 c41 -16 668
-76 680 -64 16 16 26 838 9 848 -7 4 -141 18 -299 31 -157 12 -309 25 -338 28
-28 4 -54 2 -57 -2z m394 -114 c91 -22 164 -79 208 -162 26 -49 27 -58 30
-240 2 -112 0 -192 -6 -198 -13 -13 -102 1 -102 17 0 7 10 34 22 61 17 38 22
68 23 134 0 74 -4 92 -28 140 -16 30 -40 68 -55 83 -95 100 -265 142 -364 91
-42 -22 -50 -18 -46 24 3 35 6 38 53 55 54 19 174 16 265 -5z m-26 -182 c83
-48 133 -170 106 -259 -44 -151 -213 -194 -328 -84 -54 52 -76 103 -76 177 0
174 146 255 298 166z m-14 -457 c251 -25 274 -30 278 -53 2 -10 0 -22 -5 -27
-4 -4 -129 5 -278 21 -148 16 -273 30 -277 30 -12 0 -29 40 -22 51 4 7 23 9
53 5 25 -4 138 -16 251 -27z"/>
<path d="M2531 10792 c-62 -10 -101 -63 -101 -137 0 -55 18 -93 60 -128 60
-51 131 -48 187 8 29 29 33 39 33 84 0 29 -6 64 -14 79 -33 62 -105 103 -165
94z m97 -98 c46 -52 17 -134 -47 -134 -43 0 -60 9 -76 41 -22 42 -18 77 11
106 20 20 32 24 57 19 18 -3 42 -17 55 -32z"/>
<path d="M7870 7746 c-124 -84 -202 -144 -213 -164 -16 -27 -18 -59 -17 -323
0 -172 4 -297 10 -303 10 -10 53 16 225 138 124 87 194 152 209 191 14 39 6
587 -9 591 -5 2 -98 -57 -205 -130z"/>
</g>
</svg>
