<svg width="553" height="952" viewBox="0 0 553 952" fill="none" xmlns="http://www.w3.org/2000/svg">
<mask id="path-1-inside-1_53_3" fill="white">
<path d="M104.954 1.47656C79.6212 3.74323 49.4878 10.8099 36.2878 17.4766C27.3545 22.0099 19.8878 28.0099 16.0212 33.7432C14.0212 36.6766 10.2878 41.7432 8.02116 44.9432C1.22116 54.0099 -0.778844 62.9433 0.287823 79.0766C1.35449 95.4766 3.88782 101.743 12.8212 110.41C18.6878 116.143 19.6212 117.877 20.8212 124.677C22.6878 135.61 32.2878 192.01 35.3545 210.143C38.1545 226.277 40.1545 230.277 48.6878 236.943C68.0212 252.143 101.088 259.61 143.354 258.143C179.488 256.943 206.421 249.477 224.555 235.877C233.221 229.21 238.021 221.21 239.621 210.277C240.421 205.743 241.221 199.877 241.621 197.477L242.421 193.21H253.755H264.954L264.288 241.477C263.221 320.01 262.954 324.143 258.954 330.01C255.754 334.81 255.621 335.477 255.355 361.743C255.088 395.743 254.955 394.81 258.555 397.743L261.621 400.143L261.088 511.077C260.688 612.143 260.421 622.01 258.421 623.077C254.155 625.477 248.021 632.943 246.821 637.343C245.888 640.677 243.488 643.21 237.621 647.343C233.221 650.277 213.488 663.743 193.621 677.21C154.555 703.877 123.488 725.477 80.9545 755.743C59.4878 770.943 52.9545 774.943 49.8878 774.81C45.4878 774.41 24.9545 785.077 19.3545 790.677C13.7545 796.143 13.3545 800.143 17.7545 808.677C22.1545 817.343 28.1545 822.543 33.8878 822.543C40.5545 822.543 67.2212 800.81 68.5545 794.41C69.0878 791.477 76.9545 785.077 110.155 761.077C132.555 744.677 152.555 730.41 154.555 729.343C158.155 727.21 158.421 727.343 182.554 743.743C196.021 752.677 219.755 769.21 235.221 780.277L263.488 800.543L263.621 848.41C263.621 890.01 263.355 896.677 261.488 898.677C258.688 901.743 256.288 933.61 258.288 941.21C260.021 947.477 264.421 950.277 274.155 951.477C284.021 952.677 290.021 950.01 292.955 943.343C295.221 938.41 295.355 936.01 294.288 920.01C293.488 908.01 292.421 901.21 290.955 899.077C289.221 896.41 288.955 888.943 288.955 847.877C288.955 821.477 289.488 799.877 290.155 799.877C290.688 799.877 300.555 792.943 311.755 784.41C356.555 750.543 393.221 725.743 396.021 727.477C398.421 728.943 470.955 781.077 479.355 787.21C483.088 790.143 486.288 793.21 486.288 794.143C486.288 796.677 499.088 811.477 506.421 817.21C514.821 823.877 521.221 824.41 527.621 819.077C534.555 813.21 539.088 802.143 536.955 796.41C535.088 791.61 509.621 775.343 503.621 775.077C499.888 774.943 493.755 771.343 473.621 756.943C440.821 733.743 378.021 690.143 338.155 662.81C311.888 644.943 306.555 640.677 305.888 637.61C305.088 633.743 301.621 629.21 295.488 624.543L292.021 621.743L291.354 511.477L290.688 401.21L294.555 396.143L298.555 391.21L297.621 361.877C296.688 332.81 296.688 332.543 293.354 328.943L289.888 325.343L289.088 259.343L288.288 193.21H297.888H307.488L308.288 199.477C311.621 226.41 320.021 236.943 346.821 247.077C369.621 255.743 386.021 258.543 416.688 258.543C456.821 258.543 484.955 251.743 504.421 237.077C512.955 230.81 516.155 224.41 518.821 208.543C519.888 201.877 522.155 189.343 523.621 180.543C525.221 171.743 527.888 155.877 529.621 145.21C531.355 134.543 533.221 123.477 533.755 120.543C534.421 116.543 536.688 113.077 542.421 106.81C546.688 102.277 550.688 96.8099 551.221 94.8099C551.888 92.8099 552.288 83.0766 552.288 73.2099C552.288 53.4766 552.955 55.7432 541.888 38.6766C532.955 24.9432 522.955 17.8766 503.621 11.3433C465.888 -1.3234 393.755 -3.72341 346.688 5.87659C317.755 11.8766 301.888 19.3432 292.821 31.2099C290.021 34.8099 286.421 39.6099 284.821 41.6099C283.221 43.7433 280.421 49.2099 278.555 53.6099C275.488 61.2099 275.355 62.9432 276.021 76.9432C276.821 94.6766 280.288 103.477 289.088 110.943C292.421 113.877 294.288 116.543 294.288 118.677V121.877L274.955 121.477L255.621 121.077V116.943C255.621 114.143 257.221 111.077 261.354 106.543C268.821 98.2766 270.288 92.9432 270.288 73.7432C270.288 55.8766 268.955 51.6099 260.421 41.2099C257.755 37.8766 253.755 32.9433 251.355 30.0099C236.155 11.3433 191.354 -0.390051 137.088 0.00994873C126.421 0.143282 111.888 0.809896 104.954 1.47656ZM431.621 13.2099C459.488 14.8099 476.421 17.4766 494.821 22.8099C510.821 27.4766 522.688 34.2766 526.688 41.0766C528.821 44.6766 528.821 45.6099 527.221 49.4766C522.555 60.4099 504.021 70.9432 481.621 75.2099C466.821 78.1432 432.555 81.2099 416.155 81.2099C399.621 81.2099 366.155 78.1433 351.088 75.3433C321.355 69.6099 300.955 57.3432 300.955 44.9432C300.955 39.6099 311.755 30.6766 323.755 26.1432C343.355 18.9432 370.955 14.0099 398.288 12.8099C403.755 12.5433 408.555 12.2766 408.955 12.1432C409.355 12.0099 419.488 12.5432 431.621 13.2099ZM186.955 16.4099C212.555 21.2099 231.488 29.0766 240.021 38.4099C245.621 44.5432 245.621 44.9432 243.088 51.2099C238.555 61.8766 212.288 72.8099 179.888 77.4766C161.355 80.1432 99.7545 79.7432 81.7545 76.6766C65.3545 74.0099 49.4878 69.2099 41.4878 64.5433C33.4878 59.8766 26.2878 51.3432 26.2878 46.6766C26.2878 33.2099 54.9545 20.8099 99.3545 15.2099C119.088 12.6766 170.688 13.4766 186.955 16.4099ZM33.8878 76.2766C45.8878 82.6766 54.9545 85.3432 80.9545 90.1432C99.2212 93.4766 164.955 93.4766 184.955 90.1432C220.821 84.2766 235.355 78.6766 248.688 65.7432C252.821 61.7432 256.288 58.5433 256.555 58.5433C258.288 58.5433 256.288 66.8099 253.621 70.8099C234.155 99.4766 148.821 111.343 68.9545 96.5433C54.6878 93.8766 40.9545 88.9432 30.2878 82.6766C21.0878 77.2099 16.9545 72.8099 14.2878 65.8766C11.4878 58.4099 14.0212 58.4099 20.9545 65.7432C24.5545 69.6099 30.4212 74.2766 33.8878 76.2766ZM537.755 69.0766C533.355 77.4766 515.221 88.6766 498.288 93.2099C455.088 105.21 379.888 105.743 336.555 94.5433C309.621 87.4766 292.688 76.6766 289.488 64.1432C288.021 58.9432 289.755 59.4766 296.555 66.2766C312.021 81.7433 341.488 90.2766 391.221 93.4766C429.088 95.8766 480.021 91.7432 502.021 84.4099C513.755 80.4099 526.021 73.0766 532.555 66.1432C538.288 60.0099 538.954 59.4766 539.354 62.1432C539.621 63.7432 538.821 66.8099 537.755 69.0766ZM233.754 138.81C232.688 145.61 229.888 162.543 227.621 176.41C225.354 190.41 222.688 203.21 221.621 205.077C220.688 206.943 217.888 210.277 215.621 212.543L211.221 216.543L212.021 212.277C212.955 207.21 217.488 170.943 219.621 151.21C221.888 130.543 221.621 131.21 228.688 128.143C232.154 126.81 235.221 125.743 235.355 126.01C235.621 126.143 234.954 131.877 233.754 138.81ZM511.621 147.61C500.955 215.21 501.888 211.743 493.888 217.477L489.888 220.41L490.821 216.41C493.355 206.81 495.755 187.343 499.755 146.543C500.555 138.143 501.488 130.943 501.888 130.543C502.155 130.277 504.955 128.943 508.021 127.877C512.555 126.143 513.755 126.143 514.021 127.477C514.288 128.41 513.221 137.477 511.621 147.61ZM53.4878 131.877C53.7545 132.277 55.3545 144.81 56.8212 159.877C58.4212 174.943 60.5545 194.01 61.7545 202.277C62.9545 210.677 63.4878 217.743 63.0878 218.143C62.6878 218.543 60.2878 216.81 57.8878 214.41C54.2878 210.81 53.2212 208.41 52.4212 202.543C52.0212 198.543 50.9545 192.143 50.2878 188.543C47.7545 176.01 40.9545 133.077 40.9545 130.01V126.81L46.9545 129.077C50.1545 130.277 53.0878 131.61 53.4878 131.877ZM326.955 132.01C327.355 132.677 328.554 140.143 329.621 148.81C334.421 188.81 337.621 210.943 339.088 215.477C339.621 216.81 337.221 215.21 333.755 211.877L327.621 205.877L321.621 169.877C318.288 150.01 315.355 132.277 315.088 130.277L314.421 126.677L320.288 128.81C323.621 129.877 326.555 131.343 326.955 132.01ZM258.021 666.81L264.821 671.21V723.743C264.955 768.677 264.688 776.01 263.088 775.477C262.021 775.077 241.488 761.343 217.488 745.077L173.888 715.343L178.288 712.01C184.821 706.81 249.488 662.677 250.421 662.543C250.955 662.543 254.288 664.543 258.021 666.81ZM336.688 685.477C375.488 712.41 376.955 713.477 376.955 714.543C376.955 715.077 370.155 720.01 362.021 725.477C353.755 730.943 334.021 744.543 318.288 755.743L289.621 776.01L289.221 722.943C289.088 685.877 289.355 669.743 290.421 669.343C291.088 669.21 293.354 667.477 295.354 665.743C297.354 664.01 300.021 662.543 301.354 662.543C302.688 662.543 318.555 672.81 336.688 685.477Z"/>
<path d="M431.621 13.2099C459.488 14.8099 476.421 17.4766 494.821 22.8099C510.821 27.4766 522.688 34.2766 526.688 41.0766C528.821 44.6766 528.821 45.6099 527.221 49.4766C522.555 60.4099 504.021 70.9432 481.621 75.2099C466.821 78.1432 432.555 81.2099 416.155 81.2099C399.621 81.2099 366.155 78.1433 351.088 75.3433C321.355 69.6099 300.955 57.3432 300.955 44.9432C300.955 39.6099 311.755 30.6766 323.755 26.1432C343.355 18.9432 370.955 14.0099 398.288 12.8099C403.755 12.5433 408.555 12.2766 408.955 12.1432C409.355 12.0099 419.488 12.5432 431.621 13.2099Z"/>
<path d="M186.955 16.4099C212.555 21.2099 231.488 29.0766 240.021 38.4099C245.621 44.5432 245.621 44.9432 243.088 51.2099C238.555 61.8766 212.288 72.8099 179.888 77.4766C161.355 80.1432 99.7545 79.7432 81.7545 76.6766C65.3545 74.0099 49.4878 69.2099 41.4878 64.5433C33.4878 59.8766 26.2878 51.3432 26.2878 46.6766C26.2878 33.2099 54.9545 20.8099 99.3545 15.2099C119.088 12.6766 170.688 13.4766 186.955 16.4099Z"/>
<path d="M33.8878 76.2766C45.8878 82.6766 54.9545 85.3432 80.9545 90.1432C99.2212 93.4766 164.955 93.4766 184.955 90.1432C220.821 84.2766 235.355 78.6766 248.688 65.7432C252.821 61.7432 256.288 58.5433 256.555 58.5433C258.288 58.5433 256.288 66.8099 253.621 70.8099C234.155 99.4766 148.821 111.343 68.9545 96.5433C54.6878 93.8766 40.9545 88.9432 30.2878 82.6766C21.0878 77.2099 16.9545 72.8099 14.2878 65.8766C11.4878 58.4099 14.0212 58.4099 20.9545 65.7432C24.5545 69.6099 30.4212 74.2766 33.8878 76.2766Z"/>
<path d="M326.955 132.01C327.355 132.677 328.554 140.143 329.621 148.81C334.421 188.81 337.621 210.943 339.088 215.477C339.621 216.81 337.221 215.21 333.755 211.877L327.621 205.877L321.621 169.877C318.288 150.01 315.355 132.277 315.088 130.277L314.421 126.677L320.288 128.81C323.621 129.877 326.555 131.343 326.955 132.01Z"/>
<path d="M233.754 138.81C232.688 145.61 229.888 162.543 227.621 176.41C225.354 190.41 222.688 203.21 221.621 205.077C220.688 206.943 217.888 210.277 215.621 212.543L211.221 216.543L212.021 212.277C212.955 207.21 217.488 170.943 219.621 151.21C221.888 130.543 221.621 131.21 228.688 128.143C232.154 126.81 235.221 125.743 235.355 126.01C235.621 126.143 234.954 131.877 233.754 138.81Z"/>
<path d="M511.621 147.61C500.955 215.21 501.888 211.743 493.888 217.477L489.888 220.41L490.821 216.41C493.355 206.81 495.755 187.343 499.755 146.543C500.555 138.143 501.488 130.943 501.888 130.543C502.155 130.277 504.955 128.943 508.021 127.877C512.555 126.143 513.755 126.143 514.021 127.477C514.288 128.41 513.221 137.477 511.621 147.61Z"/>
<path d="M53.4878 131.877C53.7545 132.277 55.3545 144.81 56.8212 159.877C58.4212 174.943 60.5545 194.01 61.7545 202.277C62.9545 210.677 63.4878 217.743 63.0878 218.143C62.6878 218.543 60.2878 216.81 57.8878 214.41C54.2878 210.81 53.2212 208.41 52.4212 202.543C52.0212 198.543 50.9545 192.143 50.2878 188.543C47.7545 176.01 40.9545 133.077 40.9545 130.01V126.81L46.9545 129.077C50.1545 130.277 53.0878 131.61 53.4878 131.877Z"/>
<path d="M537.755 69.0766C533.355 77.4766 515.221 88.6766 498.288 93.2099C455.088 105.21 379.888 105.743 336.555 94.5433C309.621 87.4766 292.688 76.6766 289.488 64.1432C288.021 58.9432 289.755 59.4766 296.555 66.2766C312.021 81.7433 341.488 90.2766 391.221 93.4766C429.088 95.8766 480.021 91.7432 502.021 84.4099C513.755 80.4099 526.021 73.0766 532.555 66.1432C538.288 60.0099 538.954 59.4766 539.354 62.1432C539.621 63.7432 538.821 66.8099 537.755 69.0766Z"/>
</mask>
<path d="M104.954 1.47656C79.6212 3.74323 49.4878 10.8099 36.2878 17.4766C27.3545 22.0099 19.8878 28.0099 16.0212 33.7432C14.0212 36.6766 10.2878 41.7432 8.02116 44.9432C1.22116 54.0099 -0.778844 62.9433 0.287823 79.0766C1.35449 95.4766 3.88782 101.743 12.8212 110.41C18.6878 116.143 19.6212 117.877 20.8212 124.677C22.6878 135.61 32.2878 192.01 35.3545 210.143C38.1545 226.277 40.1545 230.277 48.6878 236.943C68.0212 252.143 101.088 259.61 143.354 258.143C179.488 256.943 206.421 249.477 224.555 235.877C233.221 229.21 238.021 221.21 239.621 210.277C240.421 205.743 241.221 199.877 241.621 197.477L242.421 193.21H253.755H264.954L264.288 241.477C263.221 320.01 262.954 324.143 258.954 330.01C255.754 334.81 255.621 335.477 255.355 361.743C255.088 395.743 254.955 394.81 258.555 397.743L261.621 400.143L261.088 511.077C260.688 612.143 260.421 622.01 258.421 623.077C254.155 625.477 248.021 632.943 246.821 637.343C245.888 640.677 243.488 643.21 237.621 647.343C233.221 650.277 213.488 663.743 193.621 677.21C154.555 703.877 123.488 725.477 80.9545 755.743C59.4878 770.943 52.9545 774.943 49.8878 774.81C45.4878 774.41 24.9545 785.077 19.3545 790.677C13.7545 796.143 13.3545 800.143 17.7545 808.677C22.1545 817.343 28.1545 822.543 33.8878 822.543C40.5545 822.543 67.2212 800.81 68.5545 794.41C69.0878 791.477 76.9545 785.077 110.155 761.077C132.555 744.677 152.555 730.41 154.555 729.343C158.155 727.21 158.421 727.343 182.554 743.743C196.021 752.677 219.755 769.21 235.221 780.277L263.488 800.543L263.621 848.41C263.621 890.01 263.355 896.677 261.488 898.677C258.688 901.743 256.288 933.61 258.288 941.21C260.021 947.477 264.421 950.277 274.155 951.477C284.021 952.677 290.021 950.01 292.955 943.343C295.221 938.41 295.355 936.01 294.288 920.01C293.488 908.01 292.421 901.21 290.955 899.077C289.221 896.41 288.955 888.943 288.955 847.877C288.955 821.477 289.488 799.877 290.155 799.877C290.688 799.877 300.555 792.943 311.755 784.41C356.555 750.543 393.221 725.743 396.021 727.477C398.421 728.943 470.955 781.077 479.355 787.21C483.088 790.143 486.288 793.21 486.288 794.143C486.288 796.677 499.088 811.477 506.421 817.21C514.821 823.877 521.221 824.41 527.621 819.077C534.555 813.21 539.088 802.143 536.955 796.41C535.088 791.61 509.621 775.343 503.621 775.077C499.888 774.943 493.755 771.343 473.621 756.943C440.821 733.743 378.021 690.143 338.155 662.81C311.888 644.943 306.555 640.677 305.888 637.61C305.088 633.743 301.621 629.21 295.488 624.543L292.021 621.743L291.354 511.477L290.688 401.21L294.555 396.143L298.555 391.21L297.621 361.877C296.688 332.81 296.688 332.543 293.354 328.943L289.888 325.343L289.088 259.343L288.288 193.21H297.888H307.488L308.288 199.477C311.621 226.41 320.021 236.943 346.821 247.077C369.621 255.743 386.021 258.543 416.688 258.543C456.821 258.543 484.955 251.743 504.421 237.077C512.955 230.81 516.155 224.41 518.821 208.543C519.888 201.877 522.155 189.343 523.621 180.543C525.221 171.743 527.888 155.877 529.621 145.21C531.355 134.543 533.221 123.477 533.755 120.543C534.421 116.543 536.688 113.077 542.421 106.81C546.688 102.277 550.688 96.8099 551.221 94.8099C551.888 92.8099 552.288 83.0766 552.288 73.2099C552.288 53.4766 552.955 55.7432 541.888 38.6766C532.955 24.9432 522.955 17.8766 503.621 11.3433C465.888 -1.3234 393.755 -3.72341 346.688 5.87659C317.755 11.8766 301.888 19.3432 292.821 31.2099C290.021 34.8099 286.421 39.6099 284.821 41.6099C283.221 43.7433 280.421 49.2099 278.555 53.6099C275.488 61.2099 275.355 62.9432 276.021 76.9432C276.821 94.6766 280.288 103.477 289.088 110.943C292.421 113.877 294.288 116.543 294.288 118.677V121.877L274.955 121.477L255.621 121.077V116.943C255.621 114.143 257.221 111.077 261.354 106.543C268.821 98.2766 270.288 92.9432 270.288 73.7432C270.288 55.8766 268.955 51.6099 260.421 41.2099C257.755 37.8766 253.755 32.9433 251.355 30.0099C236.155 11.3433 191.354 -0.390051 137.088 0.00994873C126.421 0.143282 111.888 0.809896 104.954 1.47656ZM431.621 13.2099C459.488 14.8099 476.421 17.4766 494.821 22.8099C510.821 27.4766 522.688 34.2766 526.688 41.0766C528.821 44.6766 528.821 45.6099 527.221 49.4766C522.555 60.4099 504.021 70.9432 481.621 75.2099C466.821 78.1432 432.555 81.2099 416.155 81.2099C399.621 81.2099 366.155 78.1433 351.088 75.3433C321.355 69.6099 300.955 57.3432 300.955 44.9432C300.955 39.6099 311.755 30.6766 323.755 26.1432C343.355 18.9432 370.955 14.0099 398.288 12.8099C403.755 12.5433 408.555 12.2766 408.955 12.1432C409.355 12.0099 419.488 12.5432 431.621 13.2099ZM186.955 16.4099C212.555 21.2099 231.488 29.0766 240.021 38.4099C245.621 44.5432 245.621 44.9432 243.088 51.2099C238.555 61.8766 212.288 72.8099 179.888 77.4766C161.355 80.1432 99.7545 79.7432 81.7545 76.6766C65.3545 74.0099 49.4878 69.2099 41.4878 64.5433C33.4878 59.8766 26.2878 51.3432 26.2878 46.6766C26.2878 33.2099 54.9545 20.8099 99.3545 15.2099C119.088 12.6766 170.688 13.4766 186.955 16.4099ZM33.8878 76.2766C45.8878 82.6766 54.9545 85.3432 80.9545 90.1432C99.2212 93.4766 164.955 93.4766 184.955 90.1432C220.821 84.2766 235.355 78.6766 248.688 65.7432C252.821 61.7432 256.288 58.5433 256.555 58.5433C258.288 58.5433 256.288 66.8099 253.621 70.8099C234.155 99.4766 148.821 111.343 68.9545 96.5433C54.6878 93.8766 40.9545 88.9432 30.2878 82.6766C21.0878 77.2099 16.9545 72.8099 14.2878 65.8766C11.4878 58.4099 14.0212 58.4099 20.9545 65.7432C24.5545 69.6099 30.4212 74.2766 33.8878 76.2766ZM537.755 69.0766C533.355 77.4766 515.221 88.6766 498.288 93.2099C455.088 105.21 379.888 105.743 336.555 94.5433C309.621 87.4766 292.688 76.6766 289.488 64.1432C288.021 58.9432 289.755 59.4766 296.555 66.2766C312.021 81.7433 341.488 90.2766 391.221 93.4766C429.088 95.8766 480.021 91.7432 502.021 84.4099C513.755 80.4099 526.021 73.0766 532.555 66.1432C538.288 60.0099 538.954 59.4766 539.354 62.1432C539.621 63.7432 538.821 66.8099 537.755 69.0766ZM233.754 138.81C232.688 145.61 229.888 162.543 227.621 176.41C225.354 190.41 222.688 203.21 221.621 205.077C220.688 206.943 217.888 210.277 215.621 212.543L211.221 216.543L212.021 212.277C212.955 207.21 217.488 170.943 219.621 151.21C221.888 130.543 221.621 131.21 228.688 128.143C232.154 126.81 235.221 125.743 235.355 126.01C235.621 126.143 234.954 131.877 233.754 138.81ZM511.621 147.61C500.955 215.21 501.888 211.743 493.888 217.477L489.888 220.41L490.821 216.41C493.355 206.81 495.755 187.343 499.755 146.543C500.555 138.143 501.488 130.943 501.888 130.543C502.155 130.277 504.955 128.943 508.021 127.877C512.555 126.143 513.755 126.143 514.021 127.477C514.288 128.41 513.221 137.477 511.621 147.61ZM53.4878 131.877C53.7545 132.277 55.3545 144.81 56.8212 159.877C58.4212 174.943 60.5545 194.01 61.7545 202.277C62.9545 210.677 63.4878 217.743 63.0878 218.143C62.6878 218.543 60.2878 216.81 57.8878 214.41C54.2878 210.81 53.2212 208.41 52.4212 202.543C52.0212 198.543 50.9545 192.143 50.2878 188.543C47.7545 176.01 40.9545 133.077 40.9545 130.01V126.81L46.9545 129.077C50.1545 130.277 53.0878 131.61 53.4878 131.877ZM326.955 132.01C327.355 132.677 328.554 140.143 329.621 148.81C334.421 188.81 337.621 210.943 339.088 215.477C339.621 216.81 337.221 215.21 333.755 211.877L327.621 205.877L321.621 169.877C318.288 150.01 315.355 132.277 315.088 130.277L314.421 126.677L320.288 128.81C323.621 129.877 326.555 131.343 326.955 132.01ZM258.021 666.81L264.821 671.21V723.743C264.955 768.677 264.688 776.01 263.088 775.477C262.021 775.077 241.488 761.343 217.488 745.077L173.888 715.343L178.288 712.01C184.821 706.81 249.488 662.677 250.421 662.543C250.955 662.543 254.288 664.543 258.021 666.81ZM336.688 685.477C375.488 712.41 376.955 713.477 376.955 714.543C376.955 715.077 370.155 720.01 362.021 725.477C353.755 730.943 334.021 744.543 318.288 755.743L289.621 776.01L289.221 722.943C289.088 685.877 289.355 669.743 290.421 669.343C291.088 669.21 293.354 667.477 295.354 665.743C297.354 664.01 300.021 662.543 301.354 662.543C302.688 662.543 318.555 672.81 336.688 685.477Z" fill="black"/>
<path d="M431.621 13.2099C459.488 14.8099 476.421 17.4766 494.821 22.8099C510.821 27.4766 522.688 34.2766 526.688 41.0766C528.821 44.6766 528.821 45.6099 527.221 49.4766C522.555 60.4099 504.021 70.9432 481.621 75.2099C466.821 78.1432 432.555 81.2099 416.155 81.2099C399.621 81.2099 366.155 78.1433 351.088 75.3433C321.355 69.6099 300.955 57.3432 300.955 44.9432C300.955 39.6099 311.755 30.6766 323.755 26.1432C343.355 18.9432 370.955 14.0099 398.288 12.8099C403.755 12.5433 408.555 12.2766 408.955 12.1432C409.355 12.0099 419.488 12.5432 431.621 13.2099Z" fill="white"/>
<path d="M186.955 16.4099C212.555 21.2099 231.488 29.0766 240.021 38.4099C245.621 44.5432 245.621 44.9432 243.088 51.2099C238.555 61.8766 212.288 72.8099 179.888 77.4766C161.355 80.1432 99.7545 79.7432 81.7545 76.6766C65.3545 74.0099 49.4878 69.2099 41.4878 64.5433C33.4878 59.8766 26.2878 51.3432 26.2878 46.6766C26.2878 33.2099 54.9545 20.8099 99.3545 15.2099C119.088 12.6766 170.688 13.4766 186.955 16.4099Z" fill="white"/>
<path d="M33.8878 76.2766C45.8878 82.6766 54.9545 85.3432 80.9545 90.1432C99.2212 93.4766 164.955 93.4766 184.955 90.1432C220.821 84.2766 235.355 78.6766 248.688 65.7432C252.821 61.7432 256.288 58.5433 256.555 58.5433C258.288 58.5433 256.288 66.8099 253.621 70.8099C234.155 99.4766 148.821 111.343 68.9545 96.5433C54.6878 93.8766 40.9545 88.9432 30.2878 82.6766C21.0878 77.2099 16.9545 72.8099 14.2878 65.8766C11.4878 58.4099 14.0212 58.4099 20.9545 65.7432C24.5545 69.6099 30.4212 74.2766 33.8878 76.2766Z" fill="white"/>
<path d="M326.955 132.01C327.355 132.677 328.554 140.143 329.621 148.81C334.421 188.81 337.621 210.943 339.088 215.477C339.621 216.81 337.221 215.21 333.755 211.877L327.621 205.877L321.621 169.877C318.288 150.01 315.355 132.277 315.088 130.277L314.421 126.677L320.288 128.81C323.621 129.877 326.555 131.343 326.955 132.01Z" fill="white"/>
<path d="M233.754 138.81C232.688 145.61 229.888 162.543 227.621 176.41C225.354 190.41 222.688 203.21 221.621 205.077C220.688 206.943 217.888 210.277 215.621 212.543L211.221 216.543L212.021 212.277C212.955 207.21 217.488 170.943 219.621 151.21C221.888 130.543 221.621 131.21 228.688 128.143C232.154 126.81 235.221 125.743 235.355 126.01C235.621 126.143 234.954 131.877 233.754 138.81Z" fill="white"/>
<path d="M511.621 147.61C500.955 215.21 501.888 211.743 493.888 217.477L489.888 220.41L490.821 216.41C493.355 206.81 495.755 187.343 499.755 146.543C500.555 138.143 501.488 130.943 501.888 130.543C502.155 130.277 504.955 128.943 508.021 127.877C512.555 126.143 513.755 126.143 514.021 127.477C514.288 128.41 513.221 137.477 511.621 147.61Z" fill="white"/>
<path d="M53.4878 131.877C53.7545 132.277 55.3545 144.81 56.8212 159.877C58.4212 174.943 60.5545 194.01 61.7545 202.277C62.9545 210.677 63.4878 217.743 63.0878 218.143C62.6878 218.543 60.2878 216.81 57.8878 214.41C54.2878 210.81 53.2212 208.41 52.4212 202.543C52.0212 198.543 50.9545 192.143 50.2878 188.543C47.7545 176.01 40.9545 133.077 40.9545 130.01V126.81L46.9545 129.077C50.1545 130.277 53.0878 131.61 53.4878 131.877Z" fill="white"/>
<path d="M537.755 69.0766C533.355 77.4766 515.221 88.6766 498.288 93.2099C455.088 105.21 379.888 105.743 336.555 94.5433C309.621 87.4766 292.688 76.6766 289.488 64.1432C288.021 58.9432 289.755 59.4766 296.555 66.2766C312.021 81.7433 341.488 90.2766 391.221 93.4766C429.088 95.8766 480.021 91.7432 502.021 84.4099C513.755 80.4099 526.021 73.0766 532.555 66.1432C538.288 60.0099 538.954 59.4766 539.354 62.1432C539.621 63.7432 538.821 66.8099 537.755 69.0766Z" fill="white"/>
<path d="M104.954 1.47656C79.6212 3.74323 49.4878 10.8099 36.2878 17.4766C27.3545 22.0099 19.8878 28.0099 16.0212 33.7432C14.0212 36.6766 10.2878 41.7432 8.02116 44.9432C1.22116 54.0099 -0.778844 62.9433 0.287823 79.0766C1.35449 95.4766 3.88782 101.743 12.8212 110.41C18.6878 116.143 19.6212 117.877 20.8212 124.677C22.6878 135.61 32.2878 192.01 35.3545 210.143C38.1545 226.277 40.1545 230.277 48.6878 236.943C68.0212 252.143 101.088 259.61 143.354 258.143C179.488 256.943 206.421 249.477 224.555 235.877C233.221 229.21 238.021 221.21 239.621 210.277C240.421 205.743 241.221 199.877 241.621 197.477L242.421 193.21H253.755H264.954L264.288 241.477C263.221 320.01 262.954 324.143 258.954 330.01C255.754 334.81 255.621 335.477 255.355 361.743C255.088 395.743 254.955 394.81 258.555 397.743L261.621 400.143L261.088 511.077C260.688 612.143 260.421 622.01 258.421 623.077C254.155 625.477 248.021 632.943 246.821 637.343C245.888 640.677 243.488 643.21 237.621 647.343C233.221 650.277 213.488 663.743 193.621 677.21C154.555 703.877 123.488 725.477 80.9545 755.743C59.4878 770.943 52.9545 774.943 49.8878 774.81C45.4878 774.41 24.9545 785.077 19.3545 790.677C13.7545 796.143 13.3545 800.143 17.7545 808.677C22.1545 817.343 28.1545 822.543 33.8878 822.543C40.5545 822.543 67.2212 800.81 68.5545 794.41C69.0878 791.477 76.9545 785.077 110.155 761.077C132.555 744.677 152.555 730.41 154.555 729.343C158.155 727.21 158.421 727.343 182.554 743.743C196.021 752.677 219.755 769.21 235.221 780.277L263.488 800.543L263.621 848.41C263.621 890.01 263.355 896.677 261.488 898.677C258.688 901.743 256.288 933.61 258.288 941.21C260.021 947.477 264.421 950.277 274.155 951.477C284.021 952.677 290.021 950.01 292.955 943.343C295.221 938.41 295.355 936.01 294.288 920.01C293.488 908.01 292.421 901.21 290.955 899.077C289.221 896.41 288.955 888.943 288.955 847.877C288.955 821.477 289.488 799.877 290.155 799.877C290.688 799.877 300.555 792.943 311.755 784.41C356.555 750.543 393.221 725.743 396.021 727.477C398.421 728.943 470.955 781.077 479.355 787.21C483.088 790.143 486.288 793.21 486.288 794.143C486.288 796.677 499.088 811.477 506.421 817.21C514.821 823.877 521.221 824.41 527.621 819.077C534.555 813.21 539.088 802.143 536.955 796.41C535.088 791.61 509.621 775.343 503.621 775.077C499.888 774.943 493.755 771.343 473.621 756.943C440.821 733.743 378.021 690.143 338.155 662.81C311.888 644.943 306.555 640.677 305.888 637.61C305.088 633.743 301.621 629.21 295.488 624.543L292.021 621.743L291.354 511.477L290.688 401.21L294.555 396.143L298.555 391.21L297.621 361.877C296.688 332.81 296.688 332.543 293.354 328.943L289.888 325.343L289.088 259.343L288.288 193.21H297.888H307.488L308.288 199.477C311.621 226.41 320.021 236.943 346.821 247.077C369.621 255.743 386.021 258.543 416.688 258.543C456.821 258.543 484.955 251.743 504.421 237.077C512.955 230.81 516.155 224.41 518.821 208.543C519.888 201.877 522.155 189.343 523.621 180.543C525.221 171.743 527.888 155.877 529.621 145.21C531.355 134.543 533.221 123.477 533.755 120.543C534.421 116.543 536.688 113.077 542.421 106.81C546.688 102.277 550.688 96.8099 551.221 94.8099C551.888 92.8099 552.288 83.0766 552.288 73.2099C552.288 53.4766 552.955 55.7432 541.888 38.6766C532.955 24.9432 522.955 17.8766 503.621 11.3433C465.888 -1.3234 393.755 -3.72341 346.688 5.87659C317.755 11.8766 301.888 19.3432 292.821 31.2099C290.021 34.8099 286.421 39.6099 284.821 41.6099C283.221 43.7433 280.421 49.2099 278.555 53.6099C275.488 61.2099 275.355 62.9432 276.021 76.9432C276.821 94.6766 280.288 103.477 289.088 110.943C292.421 113.877 294.288 116.543 294.288 118.677V121.877L274.955 121.477L255.621 121.077V116.943C255.621 114.143 257.221 111.077 261.354 106.543C268.821 98.2766 270.288 92.9432 270.288 73.7432C270.288 55.8766 268.955 51.6099 260.421 41.2099C257.755 37.8766 253.755 32.9433 251.355 30.0099C236.155 11.3433 191.354 -0.390051 137.088 0.00994873C126.421 0.143282 111.888 0.809896 104.954 1.47656ZM431.621 13.2099C459.488 14.8099 476.421 17.4766 494.821 22.8099C510.821 27.4766 522.688 34.2766 526.688 41.0766C528.821 44.6766 528.821 45.6099 527.221 49.4766C522.555 60.4099 504.021 70.9432 481.621 75.2099C466.821 78.1432 432.555 81.2099 416.155 81.2099C399.621 81.2099 366.155 78.1433 351.088 75.3433C321.355 69.6099 300.955 57.3432 300.955 44.9432C300.955 39.6099 311.755 30.6766 323.755 26.1432C343.355 18.9432 370.955 14.0099 398.288 12.8099C403.755 12.5433 408.555 12.2766 408.955 12.1432C409.355 12.0099 419.488 12.5432 431.621 13.2099ZM186.955 16.4099C212.555 21.2099 231.488 29.0766 240.021 38.4099C245.621 44.5432 245.621 44.9432 243.088 51.2099C238.555 61.8766 212.288 72.8099 179.888 77.4766C161.355 80.1432 99.7545 79.7432 81.7545 76.6766C65.3545 74.0099 49.4878 69.2099 41.4878 64.5433C33.4878 59.8766 26.2878 51.3432 26.2878 46.6766C26.2878 33.2099 54.9545 20.8099 99.3545 15.2099C119.088 12.6766 170.688 13.4766 186.955 16.4099ZM33.8878 76.2766C45.8878 82.6766 54.9545 85.3432 80.9545 90.1432C99.2212 93.4766 164.955 93.4766 184.955 90.1432C220.821 84.2766 235.355 78.6766 248.688 65.7432C252.821 61.7432 256.288 58.5433 256.555 58.5433C258.288 58.5433 256.288 66.8099 253.621 70.8099C234.155 99.4766 148.821 111.343 68.9545 96.5433C54.6878 93.8766 40.9545 88.9432 30.2878 82.6766C21.0878 77.2099 16.9545 72.8099 14.2878 65.8766C11.4878 58.4099 14.0212 58.4099 20.9545 65.7432C24.5545 69.6099 30.4212 74.2766 33.8878 76.2766ZM537.755 69.0766C533.355 77.4766 515.221 88.6766 498.288 93.2099C455.088 105.21 379.888 105.743 336.555 94.5433C309.621 87.4766 292.688 76.6766 289.488 64.1432C288.021 58.9432 289.755 59.4766 296.555 66.2766C312.021 81.7433 341.488 90.2766 391.221 93.4766C429.088 95.8766 480.021 91.7432 502.021 84.4099C513.755 80.4099 526.021 73.0766 532.555 66.1432C538.288 60.0099 538.954 59.4766 539.354 62.1432C539.621 63.7432 538.821 66.8099 537.755 69.0766ZM233.754 138.81C232.688 145.61 229.888 162.543 227.621 176.41C225.354 190.41 222.688 203.21 221.621 205.077C220.688 206.943 217.888 210.277 215.621 212.543L211.221 216.543L212.021 212.277C212.955 207.21 217.488 170.943 219.621 151.21C221.888 130.543 221.621 131.21 228.688 128.143C232.154 126.81 235.221 125.743 235.355 126.01C235.621 126.143 234.954 131.877 233.754 138.81ZM511.621 147.61C500.955 215.21 501.888 211.743 493.888 217.477L489.888 220.41L490.821 216.41C493.355 206.81 495.755 187.343 499.755 146.543C500.555 138.143 501.488 130.943 501.888 130.543C502.155 130.277 504.955 128.943 508.021 127.877C512.555 126.143 513.755 126.143 514.021 127.477C514.288 128.41 513.221 137.477 511.621 147.61ZM53.4878 131.877C53.7545 132.277 55.3545 144.81 56.8212 159.877C58.4212 174.943 60.5545 194.01 61.7545 202.277C62.9545 210.677 63.4878 217.743 63.0878 218.143C62.6878 218.543 60.2878 216.81 57.8878 214.41C54.2878 210.81 53.2212 208.41 52.4212 202.543C52.0212 198.543 50.9545 192.143 50.2878 188.543C47.7545 176.01 40.9545 133.077 40.9545 130.01V126.81L46.9545 129.077C50.1545 130.277 53.0878 131.61 53.4878 131.877ZM326.955 132.01C327.355 132.677 328.554 140.143 329.621 148.81C334.421 188.81 337.621 210.943 339.088 215.477C339.621 216.81 337.221 215.21 333.755 211.877L327.621 205.877L321.621 169.877C318.288 150.01 315.355 132.277 315.088 130.277L314.421 126.677L320.288 128.81C323.621 129.877 326.555 131.343 326.955 132.01ZM258.021 666.81L264.821 671.21V723.743C264.955 768.677 264.688 776.01 263.088 775.477C262.021 775.077 241.488 761.343 217.488 745.077L173.888 715.343L178.288 712.01C184.821 706.81 249.488 662.677 250.421 662.543C250.955 662.543 254.288 664.543 258.021 666.81ZM336.688 685.477C375.488 712.41 376.955 713.477 376.955 714.543C376.955 715.077 370.155 720.01 362.021 725.477C353.755 730.943 334.021 744.543 318.288 755.743L289.621 776.01L289.221 722.943C289.088 685.877 289.355 669.743 290.421 669.343C291.088 669.21 293.354 667.477 295.354 665.743C297.354 664.01 300.021 662.543 301.354 662.543C302.688 662.543 318.555 672.81 336.688 685.477Z" stroke="black" stroke-width="2" mask="url(#path-1-inside-1_53_3)"/>
<path d="M431.621 13.2099C459.488 14.8099 476.421 17.4766 494.821 22.8099C510.821 27.4766 522.688 34.2766 526.688 41.0766C528.821 44.6766 528.821 45.6099 527.221 49.4766C522.555 60.4099 504.021 70.9432 481.621 75.2099C466.821 78.1432 432.555 81.2099 416.155 81.2099C399.621 81.2099 366.155 78.1433 351.088 75.3433C321.355 69.6099 300.955 57.3432 300.955 44.9432C300.955 39.6099 311.755 30.6766 323.755 26.1432C343.355 18.9432 370.955 14.0099 398.288 12.8099C403.755 12.5433 408.555 12.2766 408.955 12.1432C409.355 12.0099 419.488 12.5432 431.621 13.2099Z" stroke="black" stroke-width="2" mask="url(#path-1-inside-1_53_3)"/>
<path d="M186.955 16.4099C212.555 21.2099 231.488 29.0766 240.021 38.4099C245.621 44.5432 245.621 44.9432 243.088 51.2099C238.555 61.8766 212.288 72.8099 179.888 77.4766C161.355 80.1432 99.7545 79.7432 81.7545 76.6766C65.3545 74.0099 49.4878 69.2099 41.4878 64.5433C33.4878 59.8766 26.2878 51.3432 26.2878 46.6766C26.2878 33.2099 54.9545 20.8099 99.3545 15.2099C119.088 12.6766 170.688 13.4766 186.955 16.4099Z" stroke="black" stroke-width="2" mask="url(#path-1-inside-1_53_3)"/>
<path d="M33.8878 76.2766C45.8878 82.6766 54.9545 85.3432 80.9545 90.1432C99.2212 93.4766 164.955 93.4766 184.955 90.1432C220.821 84.2766 235.355 78.6766 248.688 65.7432C252.821 61.7432 256.288 58.5433 256.555 58.5433C258.288 58.5433 256.288 66.8099 253.621 70.8099C234.155 99.4766 148.821 111.343 68.9545 96.5433C54.6878 93.8766 40.9545 88.9432 30.2878 82.6766C21.0878 77.2099 16.9545 72.8099 14.2878 65.8766C11.4878 58.4099 14.0212 58.4099 20.9545 65.7432C24.5545 69.6099 30.4212 74.2766 33.8878 76.2766Z" stroke="black" stroke-width="2" mask="url(#path-1-inside-1_53_3)"/>
<path d="M326.955 132.01C327.355 132.677 328.554 140.143 329.621 148.81C334.421 188.81 337.621 210.943 339.088 215.477C339.621 216.81 337.221 215.21 333.755 211.877L327.621 205.877L321.621 169.877C318.288 150.01 315.355 132.277 315.088 130.277L314.421 126.677L320.288 128.81C323.621 129.877 326.555 131.343 326.955 132.01Z" stroke="black" stroke-width="2" mask="url(#path-1-inside-1_53_3)"/>
<path d="M233.754 138.81C232.688 145.61 229.888 162.543 227.621 176.41C225.354 190.41 222.688 203.21 221.621 205.077C220.688 206.943 217.888 210.277 215.621 212.543L211.221 216.543L212.021 212.277C212.955 207.21 217.488 170.943 219.621 151.21C221.888 130.543 221.621 131.21 228.688 128.143C232.154 126.81 235.221 125.743 235.355 126.01C235.621 126.143 234.954 131.877 233.754 138.81Z" stroke="black" stroke-width="2" mask="url(#path-1-inside-1_53_3)"/>
<path d="M511.621 147.61C500.955 215.21 501.888 211.743 493.888 217.477L489.888 220.41L490.821 216.41C493.355 206.81 495.755 187.343 499.755 146.543C500.555 138.143 501.488 130.943 501.888 130.543C502.155 130.277 504.955 128.943 508.021 127.877C512.555 126.143 513.755 126.143 514.021 127.477C514.288 128.41 513.221 137.477 511.621 147.61Z" stroke="black" stroke-width="2" mask="url(#path-1-inside-1_53_3)"/>
<path d="M53.4878 131.877C53.7545 132.277 55.3545 144.81 56.8212 159.877C58.4212 174.943 60.5545 194.01 61.7545 202.277C62.9545 210.677 63.4878 217.743 63.0878 218.143C62.6878 218.543 60.2878 216.81 57.8878 214.41C54.2878 210.81 53.2212 208.41 52.4212 202.543C52.0212 198.543 50.9545 192.143 50.2878 188.543C47.7545 176.01 40.9545 133.077 40.9545 130.01V126.81L46.9545 129.077C50.1545 130.277 53.0878 131.61 53.4878 131.877Z" stroke="black" stroke-width="2" mask="url(#path-1-inside-1_53_3)"/>
<path d="M537.755 69.0766C533.355 77.4766 515.221 88.6766 498.288 93.2099C455.088 105.21 379.888 105.743 336.555 94.5433C309.621 87.4766 292.688 76.6766 289.488 64.1432C288.021 58.9432 289.755 59.4766 296.555 66.2766C312.021 81.7433 341.488 90.2766 391.221 93.4766C429.088 95.8766 480.021 91.7432 502.021 84.4099C513.755 80.4099 526.021 73.0766 532.555 66.1432C538.288 60.0099 538.954 59.4766 539.354 62.1432C539.621 63.7432 538.821 66.8099 537.755 69.0766Z" stroke="black" stroke-width="2" mask="url(#path-1-inside-1_53_3)"/>
</svg>
