<?xml version="1.0" standalone="no"?>
<!DOCTYPE svg PUBLIC "-//W3C//DTD SVG 20010904//EN"
 "http://www.w3.org/TR/2001/REC-SVG-20010904/DTD/svg10.dtd">
<svg version="1.0" xmlns="http://www.w3.org/2000/svg"
 width="954.743846pt" height="1157.570020pt" viewBox="0 0 954.743846 1157.570020"
 preserveAspectRatio="xMidYMid meet">
<metadata>Created by Svg.la</metadata>
<g transform="translate(-27.980311,1357.872390) scale(0.100000,-0.100000)"
fill="#000000" stroke="none">
<path d="M4915 13574 c-192 -40 -324 -113 -461 -255 -155 -162 -239 -343 -309
-670 -48 -226 -66 -260 -215 -413 -134 -137 -157 -167 -202 -263 -51 -109 -51
-290 1 -354 29 -36 63 -14 102 63 33 65 118 192 125 186 8 -9 -45 -179 -72
-228 -32 -59 -66 -90 -138 -127 -116 -59 -217 -61 -268 -4 l-28 31 0 -53 c0
-96 61 -180 133 -181 l33 -1 -68 -92 c-70 -95 -314 -464 -470 -711 -52 -82
-88 -149 -88 -165 0 -14 -23 -63 -51 -108 -222 -357 -224 -517 -14 -874 30
-52 118 -193 193 -312 76 -120 155 -247 175 -283 l36 -65 -16 -55 c-10 -35
-16 -100 -16 -180 -1 -107 2 -133 21 -181 41 -102 104 -171 173 -185 l26 -6
-47 -96 c-25 -54 -52 -112 -60 -130 -9 -23 -18 -31 -29 -27 -34 10 -209 44
-286 55 -119 16 -426 14 -542 -5 -230 -37 -376 -98 -483 -203 -76 -75 -76 -76
-105 -259 -12 -77 -16 -134 -11 -179 6 -59 -4 -119 -95 -572 -73 -367 -106
-513 -119 -527 -31 -34 -47 -77 -65 -172 -24 -128 -18 -193 28 -285 129 -261
549 -491 1000 -547 43 -5 80 -11 83 -13 2 -3 -3 -36 -12 -74 -10 -45 -17 -136
-20 -259 -3 -162 -9 -215 -37 -359 -27 -144 -35 -170 -52 -176 -36 -14 -48
-39 -76 -163 -28 -122 -28 -122 -9 -149 29 -40 25 -72 -29 -230 -27 -79 -108
-316 -181 -528 -73 -212 -150 -439 -172 -504 -29 -85 -49 -127 -69 -145 -35
-33 -119 -220 -119 -265 0 -89 171 -152 240 -88 27 24 32 40 53 157 21 112 23
133 11 152 -12 20 -8 39 42 185 31 90 100 294 154 455 54 161 100 289 104 286
3 -4 6 -21 6 -38 0 -18 11 -75 24 -126 90 -355 335 -685 681 -919 184 -124
468 -233 718 -274 578 -97 1083 47 1489 423 173 159 317 405 382 650 16 58 25
80 29 66 3 -11 45 -155 92 -320 48 -165 102 -351 121 -413 31 -103 33 -115 19
-135 -13 -21 -12 -37 8 -155 26 -145 37 -167 96 -177 81 -14 191 42 191 97 0
40 -88 251 -114 273 -17 15 -35 59 -69 170 -24 83 -97 325 -162 539 l-117 389
11 93 c6 51 11 119 11 152 0 52 -3 63 -24 79 l-24 18 12 120 c7 68 19 133 28
150 30 57 79 229 100 349 29 171 22 443 -15 592 -32 125 -62 205 -118 314 -24
47 -45 88 -47 91 -1 3 60 9 135 12 150 6 286 30 431 76 60 19 92 25 92 17 0
-6 11 -115 25 -241 25 -227 25 -230 54 -256 16 -15 34 -28 40 -30 8 -3 7 -14
-5 -37 -24 -49 -29 -172 -14 -374 l13 -180 -194 -188 c-125 -121 -200 -187
-210 -184 -9 3 -49 -31 -108 -91 -84 -85 -93 -97 -86 -122 8 -36 40 -83 72
-107 38 -28 108 -33 135 -10 20 18 112 152 120 175 2 5 50 -35 107 -89 l104
-99 -32 -259 c-29 -234 -34 -261 -56 -284 -34 -36 -75 -238 -56 -274 27 -50
149 -73 212 -41 41 22 49 50 49 173 0 89 -3 109 -19 126 -18 21 -18 26 6 211
14 105 27 191 28 193 2 2 12 -1 23 -7 12 -6 45 -11 75 -11 60 0 96 21 121 68
10 19 54 49 140 95 69 38 130 67 135 65 5 -2 59 -61 120 -131 95 -110 110
-132 105 -155 -4 -22 8 -45 58 -117 77 -109 102 -124 163 -100 59 22 115 85
115 128 0 28 -14 48 -87 125 -59 62 -95 92 -110 92 -17 0 -97 87 -328 355
-168 195 -308 361 -311 368 -2 7 2 21 9 31 13 17 22 12 143 -78 82 -61 174
-119 254 -158 l125 -63 110 0 c61 0 129 6 152 13 50 15 130 68 156 104 18 24
19 32 8 104 -7 50 -22 97 -41 132 l-30 55 27 46 c14 25 55 90 89 143 l63 98
118 -78 c232 -153 223 -145 223 -172 0 -36 34 -86 71 -105 31 -17 105 -17 140
-1 21 9 17 31 79 -444 28 -212 58 -436 67 -498 15 -107 15 -115 -2 -146 -17
-31 -17 -44 -7 -157 7 -78 16 -128 25 -137 41 -40 178 -32 223 14 29 28 29 41
-1 178 -19 87 -29 113 -49 130 -23 20 -26 34 -60 321 -20 165 -52 424 -71 575
-20 151 -34 288 -33 304 2 24 26 49 126 133 68 57 127 101 132 98 10 -6 62
-93 235 -395 64 -113 142 -247 172 -298 42 -72 53 -99 49 -120 -6 -26 47 -196
76 -242 40 -64 188 -29 234 56 17 31 17 33 -16 90 -63 113 -99 163 -128 178
-22 11 -66 81 -192 303 -206 364 -260 456 -496 843 -179 295 -191 319 -196
373 -4 46 -10 63 -33 87 -16 16 -37 32 -47 36 -17 5 -18 33 -18 583 l0 578 25
23 c24 23 25 27 25 161 l0 138 -30 22 -29 22 2 414 c1 227 5 413 8 413 34 0
232 24 299 36 358 64 686 263 792 482 28 58 33 80 36 164 7 150 -35 252 -157
381 -190 201 -485 322 -876 358 l-130 12 0 354 c0 339 -1 355 -19 369 -27 19
-60 18 -79 -4 -14 -15 -16 -62 -18 -369 l-1 -352 -52 -5 c-28 -3 -85 -8 -126
-11 -166 -13 -350 -55 -505 -116 -276 -107 -469 -299 -506 -502 -32 -177 85
-398 283 -534 192 -133 458 -225 713 -248 39 -3 89 -8 113 -11 l44 -5 -4 -412
-3 -412 -27 -27 c-28 -27 -28 -29 -28 -157 0 -124 1 -131 25 -159 l25 -30 0
-570 0 -570 -29 -12 c-48 -19 -72 -53 -80 -111 -7 -47 -29 -88 -166 -299 -87
-135 -221 -346 -298 -470 -77 -124 -142 -227 -144 -229 -4 -6 -228 228 -308
322 -55 64 -57 69 -70 154 l-13 88 27 28 c34 36 34 29 -23 547 l-46 415 27 19
c54 38 142 134 166 182 23 47 24 55 20 219 -3 143 -7 176 -24 215 -19 41 -21
65 -21 261 0 194 2 219 18 245 26 39 32 177 10 243 -12 38 -13 56 -5 80 16 47
3 111 -37 177 -44 74 -63 95 -144 156 -75 57 -188 113 -309 153 -80 26 -90 33
-190 128 -111 105 -318 275 -407 334 -33 22 -51 40 -47 49 6 17 -28 73 -92
149 -46 55 -51 64 -47 101 2 25 -7 80 -23 140 -133 486 -135 496 -111 703 14
118 81 512 113 665 l8 39 129 -171 c109 -146 131 -171 150 -167 18 5 38 -19
141 -167 135 -194 265 -335 355 -383 48 -26 65 -30 135 -30 90 0 129 15 223
87 51 40 180 189 220 257 27 44 109 81 119 53 3 -9 17 -29 31 -44 38 -42 93
-39 138 6 33 33 47 87 25 100 -5 3 -11 23 -13 43 -4 33 0 43 34 81 84 92 104
206 54 302 -14 27 -26 63 -26 79 0 62 -43 128 -100 151 -19 8 -30 21 -34 41
-3 16 -23 48 -45 72 l-40 42 -82 1 -83 0 -252 632 c-245 615 -252 634 -247
687 5 52 4 56 -30 90 -39 39 -70 44 -116 20 -30 -15 -61 -69 -61 -105 0 -29
26 -77 48 -89 20 -10 41 -65 171 -431 43 -124 129 -364 190 -534 62 -170 110
-309 109 -310 -49 -19 -88 -52 -114 -94 -35 -58 -44 -105 -44 -233 0 -49 -3
-89 -7 -89 -15 1 -118 163 -124 194 -5 32 -221 387 -406 670 -106 161 -169
233 -330 373 -80 71 -116 131 -111 189 l3 37 47 -70 c49 -71 104 -119 172
-147 48 -20 86 -20 134 0 l37 15 -37 14 c-90 31 -134 87 -150 192 -20 128 -48
227 -81 281 -17 29 -76 100 -129 157 -53 57 -106 121 -116 142 -34 66 -70 196
-97 345 -34 191 -59 292 -95 385 -97 252 -285 439 -491 488 -70 16 -180 19
-247 6 -33 -6 -58 -4 -103 10 -56 17 -135 23 -184 13z m214 -621 c30 -98 86
-187 171 -274 108 -108 211 -159 350 -174 l65 -7 -6 -116 c-10 -176 -50 -329
-127 -477 -41 -80 -182 -229 -272 -288 -158 -104 -312 -78 -482 82 -137 128
-232 296 -273 481 -9 41 -19 130 -22 198 l-6 122 28 0 c46 0 147 30 223 67
140 66 273 231 310 381 9 40 18 72 19 72 0 0 10 -30 22 -67z m-364 -1344 c115
-107 232 -159 354 -159 120 0 226 48 351 159 l61 53 -8 -53 c-11 -76 -6 -186
11 -241 l14 -47 -61 -67 c-105 -115 -212 -167 -363 -180 -180 -14 -355 70
-459 220 l-38 55 22 58 c26 71 45 194 37 241 l-5 34 22 -18 c12 -10 40 -35 62
-55z m-530 -627 c20 -42 50 -92 68 -109 39 -41 29 -42 -27 -4 -126 87 -163
199 -109 332 l18 44 7 -93 c5 -78 12 -105 43 -170z m1851 81 c10 -68 -19 -150
-73 -201 -25 -24 -47 -42 -49 -39 -2 2 14 42 35 89 22 46 46 114 53 151 13 70
23 70 34 0z m1622 -449 c83 -58 -78 -292 -168 -244 -11 6 -20 14 -20 18 0 5
22 33 48 63 27 29 54 64 60 76 15 27 15 70 2 78 -6 4 -8 11 -5 16 9 14 58 11
83 -7z m-241 -46 c38 -35 31 -80 -17 -119 -22 -18 -40 -40 -40 -50 0 -9 32
-65 71 -123 67 -101 70 -107 55 -128 -34 -48 -8 -112 54 -138 16 -7 30 -18 30
-24 0 -15 -38 -51 -62 -59 -9 -3 -45 -47 -79 -98 -155 -232 -292 -306 -425
-230 -71 41 -183 164 -294 325 -52 75 -96 140 -98 145 -2 5 25 26 60 47 91 54
133 87 224 176 l80 79 58 -87 58 -87 -70 -64 c-39 -35 -80 -79 -92 -98 -21
-34 -43 -95 -34 -95 2 0 35 22 72 49 37 27 113 74 170 106 113 63 111 63 181
1 23 -20 24 -20 17 -1 -65 177 -69 408 -8 478 21 23 61 21 89 -5z m377 -157
c-14 -59 -94 -150 -151 -172 -37 -14 -82 4 -83 33 0 3 15 11 34 18 45 15 109
71 148 131 29 45 34 49 45 33 7 -10 10 -28 7 -43z m-3929 -200 c35 -173 46
-271 52 -451 8 -255 -16 -390 -133 -750 l-47 -145 -77 160 c-43 88 -106 234
-140 325 -35 91 -86 226 -115 300 l-52 135 86 93 c70 75 90 92 109 89 20 -4
41 20 155 172 73 98 135 173 138 167 4 -6 15 -49 24 -95z m3970 -51 c-22 -43
-99 -90 -146 -90 -54 0 -89 16 -89 40 0 21 5 24 95 56 30 10 70 37 100 65 l50
48 3 -44 c2 -26 -3 -56 -13 -75z m-4572 -120 c55 -28 105 -50 113 -50 25 0 15
-14 -65 -94 l-79 -79 18 -51 c81 -232 237 -622 305 -763 l83 -172 124 -123
c75 -74 134 -143 150 -173 34 -64 60 -193 56 -274 l-3 -64 -45 35 c-38 29 -46
40 -51 78 -3 25 -11 64 -18 87 -46 163 -72 -107 -29 -308 23 -108 20 -118 -28
-119 -42 0 -85 81 -130 242 -14 54 -30 95 -35 92 -14 -8 -10 -101 7 -166 8
-33 13 -62 10 -65 -6 -7 -59 22 -77 43 -24 27 -64 110 -85 177 -10 31 -21 57
-26 57 -13 0 -21 -50 -15 -102 6 -50 6 -50 -16 -36 -12 8 -35 41 -52 74 -29
56 -30 65 -29 179 0 92 5 134 21 182 l20 61 -42 79 c-23 43 -126 213 -229 378
-247 395 -296 499 -296 625 0 88 53 216 153 373 l37 58 78 -66 c45 -39 117
-86 175 -115z m5217 -741 c0 -44 -4 -54 -30 -76 -27 -22 -30 -31 -30 -83 l0
-58 -38 -7 c-66 -11 -153 -66 -190 -121 -30 -43 -33 -55 -30 -101 6 -73 41
-114 131 -157 40 -19 96 -39 125 -45 118 -24 316 -5 407 41 82 41 135 109 135
173 0 87 -74 154 -222 201 l-58 18 0 51 c0 54 -27 105 -55 105 -9 0 -14 18
-17 56 l-3 57 104 -7 c424 -26 808 -219 925 -466 27 -56 31 -76 31 -145 0
-101 -30 -168 -118 -262 -146 -156 -369 -258 -687 -315 -118 -21 -528 -17
-655 6 -379 69 -670 237 -768 443 -28 60 -32 78 -32 153 0 71 4 94 27 143 77
164 312 318 600 393 93 24 292 52 376 53 l72 1 0 -51z m-58 -345 c4 -58 34
-85 105 -91 83 -8 164 44 150 97 -7 28 18 26 83 -7 87 -45 114 -99 77 -153
-57 -86 -169 -125 -334 -118 -91 4 -109 8 -170 39 -153 77 -148 188 12 254 33
14 63 25 67 25 4 0 8 -21 10 -46z m-2532 -379 c0 -8 -120 -66 -210 -100 -103
-40 -205 -62 -325 -69 l-90 -5 85 18 c130 28 232 58 380 111 133 47 160 55
160 45z m-1671 -24 c9 -6 80 -28 157 -50 121 -35 260 -64 479 -100 52 -9 43
-10 -65 -6 -200 6 -344 42 -570 143 -25 12 -39 21 -32 21 7 1 21 -3 31 -8z
m-133 -563 c389 -345 594 -543 594 -574 0 -42 -55 0 -446 332 -309 263 -306
259 -312 324 -3 30 -1 50 6 50 5 0 77 -59 158 -132z m2693 28 c144 -27 233
-55 336 -106 168 -83 265 -186 265 -282 0 -105 -82 -198 -245 -280 -50 -26
-205 -78 -228 -78 -7 0 -23 19 -37 41 -58 95 -282 181 -575 221 -135 19 -513
15 -660 -6 -113 -16 -249 -41 -287 -52 -16 -5 -18 2 -18 52 0 79 27 131 119
223 61 62 94 86 171 124 157 77 352 132 560 157 116 14 500 5 599 -14z m-1659
-167 c35 -25 95 -72 158 -124 1 -1 -9 -27 -23 -57 -31 -67 -40 -130 -27 -186
9 -37 8 -44 -6 -49 -96 -30 -252 -138 -283 -194 -8 -16 -23 -226 -22 -306 1
-12 10 -35 21 -50 l20 -28 -29 -33 c-18 -20 -29 -43 -29 -62 0 -30 0 -30 -59
-30 -72 0 -180 -32 -243 -72 -83 -52 -152 -142 -193 -252 -26 -69 -28 -70
-176 -78 l-75 -3 23 125 c81 429 161 648 306 842 l65 88 71 -72 c68 -68 74
-72 124 -76 46 -4 57 -1 84 22 43 36 59 87 44 137 -12 41 -61 89 -91 89 -11 0
-39 19 -64 43 l-44 43 75 59 c40 32 119 102 175 157 115 112 129 117 198 67z
m-2132 -60 c350 -38 700 -172 885 -338 57 -51 115 -144 123 -197 18 -124 -118
-258 -313 -308 -300 -78 -717 -54 -1061 60 -260 86 -502 254 -571 396 -23 48
-28 117 -10 151 57 111 291 211 559 240 78 8 297 6 388 -4z m3391 -379 c261
-46 431 -126 431 -203 0 -61 -117 -143 -280 -195 -326 -106 -881 -120 -1210
-31 -146 40 -300 134 -300 183 0 29 85 101 166 140 91 45 258 89 416 110 172
23 187 24 428 21 175 -3 253 -8 349 -25z m1025 -27 c-24 -98 -134 -186 -338
-269 -112 -46 -143 -51 -149 -28 -20 72 -22 68 51 87 149 39 323 129 396 206
37 38 48 39 40 4z m-5349 -157 c42 -53 140 -129 251 -195 l72 -42 -10 -42 c-5
-23 -10 -43 -12 -44 -1 -2 -39 20 -85 48 -154 95 -271 228 -271 309 0 18 4 30
8 25 4 -6 25 -32 47 -59z m4760 -262 c-18 -27 -100 -83 -158 -108 l-37 -15 0
42 0 42 85 44 c47 24 93 53 102 64 18 19 18 19 21 -13 2 -17 -4 -42 -13 -56z
m-1671 -29 c40 -19 76 -42 80 -51 8 -20 8 -74 0 -74 -17 0 -154 71 -181 94
-27 23 -33 35 -33 68 l0 39 30 -21 c16 -12 63 -37 104 -55z m-1154 26 c-19
-66 -65 -113 -158 -160 -57 -29 -187 -73 -251 -85 -31 -6 -33 -4 -27 17 3 12
6 33 6 47 0 25 5 27 100 48 107 25 231 81 290 131 44 38 51 38 40 2z m-1405
-51 c227 -77 436 -112 682 -114 l173 -1 -6 -35 c-3 -19 -7 -41 -9 -47 -9 -29
-407 -7 -603 32 -133 27 -337 89 -347 106 -8 12 4 89 13 89 4 0 48 -14 97 -30z
m3903 -111 c-32 -20 -279 -70 -395 -80 -214 -19 -567 2 -714 41 -39 11 -39 11
-39 60 l0 48 33 -8 c104 -28 283 -44 497 -44 229 0 344 11 540 52 l85 18 3
-40 c2 -24 -2 -42 -10 -47z m-4109 -72 c10 -27 -3 -123 -20 -143 -15 -19 -43
-18 -59 2 -11 12 -11 28 -2 75 6 34 16 67 23 75 18 21 48 17 58 -9z m2679
-160 c2 -118 0 -135 -14 -141 -36 -14 -41 9 -39 156 2 79 3 145 4 147 1 2 11
-3 24 -11 21 -15 22 -23 25 -151z m2308 99 c16 -12 19 -27 19 -86 0 -68 -2
-74 -28 -94 -27 -20 -29 -20 -42 -3 -7 10 -16 50 -20 88 -6 59 -4 73 10 90 21
23 35 24 61 5z m-778 -18 c7 -7 12 -43 12 -93 0 -77 -1 -82 -26 -95 -45 -24
-59 -5 -62 86 -3 71 -1 81 19 97 25 20 40 22 57 5z m-1690 -65 l-3 -37 -72
-12 c-109 -18 -174 -67 -227 -172 -38 -76 -46 -147 -46 -428 0 -241 -1 -264
-18 -273 -9 -5 -30 -7 -45 -4 l-29 6 4 306 c4 279 6 311 25 361 75 201 180
288 351 289 l63 1 -3 -37z m411 23 c7 -8 13 -47 14 -86 2 -67 0 -73 -21 -81
-17 -6 -27 -4 -42 11 -16 16 -20 34 -20 88 0 38 3 72 7 75 11 12 50 7 62 -7z
m-1389 -43 c-5 -16 -16 -71 -25 -123 -9 -52 -18 -103 -21 -112 -7 -22 -34 -24
-34 -2 0 27 73 264 81 264 4 0 4 -12 -1 -27z m-437 -14 c13 -18 13 -29 0 -87
-18 -77 -27 -92 -58 -92 -40 0 -49 23 -36 93 7 34 19 72 27 85 18 28 48 28 67
1z m1407 -143 c0 -28 35 -76 56 -76 10 0 14 -14 14 -55 l0 -55 -62 23 c-35 13
-94 32 -133 42 -38 10 -71 19 -73 21 -7 5 27 60 50 81 30 29 64 42 111 42 32
1 37 -2 37 -23z m2519 -28 c-12 -20 -14 -21 -17 -5 -2 10 2 25 9 34 18 21 23
0 8 -29z m-139 -102 l0 -44 -87 -45 c-89 -45 -229 -97 -264 -97 -16 0 -19 8
-19 43 l0 42 98 33 c53 18 133 51 177 72 44 21 83 39 88 39 4 1 7 -19 7 -43z
m-2908 -85 l-4 -38 -101 -6 c-501 -29 -967 -296 -1231 -705 -60 -92 -157 -294
-190 -392 -32 -98 -33 -70 -1 54 111 423 396 767 810 974 177 88 429 149 625
151 l96 1 -4 -39z m476 -33 l122 -40 0 -40 c0 -34 -3 -39 -17 -33 -59 24 -162
56 -228 70 -59 13 -75 21 -71 32 3 8 6 26 6 40 0 22 3 24 33 18 17 -4 87 -25
155 -47z m1742 -58 c10 -6 16 -33 20 -81 6 -76 -3 -102 -39 -112 -35 -9 -48
14 -55 90 -5 64 -4 75 14 93 22 22 37 25 60 10z m-1265 -26 c12 -13 15 -32 13
-87 -3 -81 -18 -99 -62 -79 -25 11 -26 15 -26 90 0 43 3 82 7 85 12 13 51 7
68 -9z m-1501 -102 c2 -4 -16 -84 -40 -177 -24 -94 -58 -235 -74 -314 -17 -79
-33 -147 -36 -152 -9 -15 -44 -10 -51 7 -10 26 61 326 128 547 24 78 34 97 49
97 10 0 21 -3 24 -8z m3020 -29 c-14 -81 -82 -172 -178 -241 l-45 -32 -6 55
c-4 31 -6 57 -4 58 2 2 31 20 64 42 33 21 85 64 115 96 30 32 56 58 58 58 2 1
0 -16 -4 -36z m-1646 -127 c30 -16 32 -20 32 -72 l0 -55 -47 32 c-105 71 -143
121 -143 190 l0 42 63 -60 c34 -33 77 -67 95 -77z m-3338 -97 c41 -41 103 -95
138 -118 l62 -42 -6 -42 c-4 -23 -9 -45 -13 -49 -10 -11 -170 112 -225 173
-67 74 -106 158 -106 229 l0 55 38 -65 c20 -35 71 -99 112 -141z m365 131 c-1
-77 -12 -109 -41 -122 -20 -9 -28 -9 -40 4 -13 13 -13 25 -3 84 13 81 23 96
58 92 25 -3 26 -6 26 -58z m3195 -127 c82 -26 223 -53 343 -65 183 -18 508 12
670 62 54 17 57 17 57 0 0 -10 3 -31 6 -48 6 -28 4 -30 -42 -46 -196 -65 -465
-91 -689 -67 -124 13 -344 56 -392 76 -31 13 -33 17 -33 66 0 45 2 50 18 44 9
-4 37 -14 62 -22z m-1000 -143 c44 -32 123 -38 170 -13 19 10 45 36 57 58 22
39 23 39 23 12 0 -16 4 -37 10 -47 15 -28 2 -48 -43 -72 -90 -45 -229 -29
-281 33 -24 28 -24 30 -9 69 l16 41 13 -29 c6 -16 27 -40 44 -52z m-2146 -126
c110 -45 318 -98 449 -114 84 -11 97 -15 92 -29 -4 -9 -12 -28 -17 -43 -11
-32 -30 -34 -138 -18 -185 29 -486 119 -506 151 -11 18 6 101 19 95 7 -3 52
-22 101 -42z m3541 -65 c97 -159 164 -344 184 -504 11 -89 16 -343 6 -334 -2
3 -9 57 -15 121 -22 256 -91 463 -230 694 -27 46 -50 85 -50 87 0 1 16 1 35
-1 30 -4 40 -12 70 -63z m-580 -39 c4 -6 -6 -67 -21 -135 -27 -124 -27 -125
-53 -118 -14 3 -27 6 -28 7 -2 2 45 227 52 244 5 15 41 16 50 2z m3207 -320
c-3 -317 -6 -370 -22 -370 -9 0 -258 165 -298 197 l-22 18 151 238 c206 323
195 328 191 -83z m367 90 l132 -219 -38 -34 c-79 -71 -158 -137 -165 -137 -4
0 -10 10 -13 23 -5 21 -65 554 -65 576 0 32 30 -10 149 -209z m-5160 116 c6
-7 9 -20 7 -27 -2 -8 -7 -27 -11 -42 -5 -24 -10 -28 -33 -25 -25 3 -27 6 -24
43 4 53 37 81 61 51z m848 -110 c144 -31 329 -89 437 -140 l78 -36 -21 -26
c-12 -15 -21 -35 -21 -45 0 -24 -1 -24 -60 6 -120 61 -365 132 -530 155 -158
22 -488 8 -621 -25 -23 -6 -27 -3 -32 22 -4 15 -9 38 -13 50 -5 19 0 23 68 37
137 30 193 35 393 31 167 -3 220 -8 322 -29z m-899 -88 c7 -7 12 -21 12 -33 0
-12 -5 -26 -12 -33 -7 -7 -21 -12 -33 -12 -12 0 -26 5 -33 12 -7 7 -12 21 -12
33 0 12 5 26 12 33 7 7 21 12 33 12 12 0 26 -5 33 -12z m1561 -27 c10 -6 12
-19 7 -46 -6 -32 -10 -36 -34 -33 -24 3 -27 6 -24 38 6 52 18 62 51 41z
m-1714 -61 c0 -40 -2 -41 -82 -89 -46 -27 -112 -72 -147 -100 -150 -120 -324
-337 -406 -509 -19 -40 -39 -71 -44 -69 -101 34 159 435 418 643 82 66 232
164 251 164 5 0 10 -18 10 -40z m820 -10 c301 -25 555 -109 780 -258 111 -74
184 -137 292 -255 103 -111 158 -193 223 -329 114 -241 157 -469 131 -697 -56
-479 -391 -871 -885 -1035 -311 -103 -744 -88 -1077 39 -645 246 -1017 835
-923 1462 38 262 160 496 369 709 106 108 221 186 367 249 188 80 308 106 578
123 14 1 79 -3 145 -8z m869 -109 c14 -15 15 -24 6 -40 -19 -36 -80 -22 -80
19 0 39 46 52 74 21z m192 -109 c202 -175 378 -447 463 -714 43 -136 49 -196
23 -228 -23 -29 -22 -32 -47 75 -40 170 -141 386 -247 530 -28 39 -113 131
-189 207 -134 132 -137 137 -118 154 10 9 19 23 19 31 0 23 15 14 96 -55z
m1326 -689 c-8 -87 -16 -160 -18 -163 -3 -2 -39 31 -82 74 l-77 77 90 85 c50
46 92 84 95 84 3 0 -1 -71 -8 -157z m371 -17 l118 -137 -23 -19 c-23 -19 -221
-130 -232 -130 -3 0 -6 97 -6 216 0 168 3 215 13 212 6 -3 65 -66 130 -142z
m-4306 -7 c-14 -40 -18 -44 -52 -47 -35 -3 -37 -2 -31 20 3 13 11 49 17 81
l12 59 34 -35 35 -34 -15 -44z m-32 -332 c1 -192 19 -301 76 -464 177 -505
656 -887 1252 -1000 134 -25 518 -25 637 0 219 47 415 128 577 238 102 70 286
254 352 352 110 164 187 360 212 542 8 59 16 85 26 85 17 0 17 -27 -2 -136
-74 -426 -347 -781 -761 -987 -448 -224 -1027 -219 -1514 14 -319 152 -598
421 -741 714 -87 179 -135 359 -146 550 -7 126 4 276 20 269 9 -3 12 -55 12
-177z m3195 -62 c0 -67 -2 -75 -19 -75 -40 0 -51 11 -51 53 0 31 7 48 27 69
15 15 30 28 35 28 4 0 8 -34 8 -75z"/>
<path d="M1055 9773 c-140 -19 -303 -80 -397 -150 -146 -106 -211 -302 -163
-488 20 -76 81 -206 136 -287 129 -189 382 -394 670 -543 l136 -70 -84 -140
c-46 -77 -98 -165 -115 -197 -28 -49 -36 -57 -68 -62 -121 -19 -181 -160 -116
-270 15 -25 35 -50 46 -56 20 -11 20 -27 20 -1070 0 -931 -2 -1060 -15 -1060
-8 0 -29 -13 -46 -28 -29 -26 -32 -35 -34 -88 -1 -55 -9 -72 -112 -259 -112
-201 -304 -563 -411 -772 -31 -62 -64 -114 -73 -116 -9 -3 -47 -50 -83 -105
-73 -112 -82 -149 -45 -196 30 -38 71 -56 131 -58 67 -1 76 10 123 151 30 90
34 113 24 129 -10 16 3 45 92 208 56 104 114 210 128 236 15 26 31 46 36 45 6
-2 59 -70 119 -151 l109 -147 -52 -467 c-28 -257 -51 -480 -51 -495 0 -17 -10
-37 -24 -50 -19 -17 -27 -43 -40 -123 -24 -140 -20 -172 24 -202 30 -21 44
-23 104 -20 60 3 71 7 92 31 22 26 24 36 24 144 0 105 -2 119 -21 139 l-21 22
32 284 c17 156 40 350 51 432 10 81 19 155 19 162 0 10 13 14 43 14 52 0 104
30 121 71 7 16 46 58 88 92 41 34 116 97 167 140 50 42 97 77 104 77 11 -1 61
-71 300 -423 97 -144 107 -163 101 -193 -5 -27 2 -48 37 -115 75 -141 112
-163 198 -119 67 34 104 98 83 144 -21 47 -132 176 -152 176 -13 0 -41 31 -88
98 -111 157 -341 494 -579 846 -196 290 -223 335 -223 369 0 51 -27 94 -67
109 l-33 12 0 1056 0 1057 26 24 c15 13 33 38 40 56 19 43 18 127 -2 164 l-15
31 119 201 c78 130 125 200 134 198 7 -3 49 -17 93 -32 290 -98 714 -126 965
-64 189 46 362 149 441 262 105 152 97 360 -22 564 -85 146 -196 264 -369 393
-329 246 -755 414 -1193 471 -108 14 -383 19 -462 8z m500 -118 c636 -99 1239
-444 1444 -826 106 -199 96 -356 -33 -485 -280 -280 -985 -265 -1581 33 -224
112 -388 228 -531 374 -148 153 -223 274 -260 419 -62 245 108 436 444 496 97
17 376 11 517 -11z m-454 -4823 c-16 -288 -23 -382 -30 -382 -10 1 -173 230
-169 238 24 61 204 379 206 367 2 -9 -1 -110 -7 -223z m334 97 c53 -78 125
-183 160 -233 l64 -93 -132 -115 c-207 -180 -195 -172 -212 -158 -13 11 -15
67 -15 376 0 444 -7 431 135 223z"/>
<path d="M1884 9320 c-24 -10 -74 -66 -74 -84 0 -9 -23 -15 -72 -19 -98 -7
-153 -30 -189 -80 -75 -104 0 -242 178 -324 149 -69 298 -80 408 -29 63 28 85
63 85 131 0 84 -39 137 -160 217 -61 40 -65 45 -62 77 2 19 1 44 -2 57 -10 39
-73 70 -112 54z m-124 -236 c0 -37 5 -51 28 -74 58 -58 148 -44 182 28 8 17
18 32 22 32 15 0 111 -84 129 -113 88 -146 -169 -223 -386 -115 -172 85 -207
229 -67 272 26 8 57 15 70 15 20 1 22 -4 22 -45z"/>
</g>
</svg>
