<svg version="1.0" xmlns="http://www.w3.org/2000/svg"
 width="951.956904pt" height="937.827159pt" viewBox="0 0 951.956904 937.827159"
 preserveAspectRatio="xMidYMid meet">
<metadata>Created by Svg.la</metadata>
<g transform="translate(-20.730550,988.687727) scale(0.100000,-0.100000)"
fill="#000000" stroke="none">
<path d="M5049 9869 c-105 -21 -171 -46 -262 -100 -186 -110 -311 -295 -346
-514 -9 -56 -31 -271 -31 -308 0 -5 -5 -5 -10 -2 -14 9 -56 -19 -71 -47 -7
-13 -18 -50 -25 -83 -11 -51 -11 -74 2 -150 8 -49 22 -114 31 -143 8 -30 13
-55 11 -56 -1 -1 -39 -15 -83 -31 -215 -76 -612 -251 -687 -304 -79 -55 -203
-203 -370 -441 -166 -237 -405 -596 -433 -649 -19 -37 -24 -91 -12 -131 6 -20
-5 -47 -59 -140 -79 -138 -137 -251 -153 -302 -7 -21 -15 -38 -18 -38 -2 0
-39 23 -81 51 -125 82 -340 183 -502 236 l-149 48 5 65 c8 82 -13 114 -78 125
-58 10 -78 -15 -78 -97 0 -52 -2 -59 -17 -54 -10 3 -74 15 -143 28 -108 19
-159 22 -380 23 -237 0 -261 -2 -345 -24 -163 -43 -242 -89 -295 -171 -28 -44
-33 -60 -34 -118 0 -56 5 -78 32 -134 88 -182 394 -389 787 -533 72 -26 131
-49 133 -50 2 -2 -39 -67 -91 -146 -133 -203 -267 -418 -267 -429 0 -12 -70
-60 -88 -60 -7 0 -36 -10 -63 -21 -46 -20 -49 -24 -49 -59 0 -21 -7 -43 -15
-50 -11 -9 -14 -22 -9 -46 9 -50 -16 -133 -56 -189 -20 -27 -79 -112 -131
-188 -52 -77 -100 -147 -108 -158 -11 -16 -11 -24 -1 -49 24 -57 89 -68 132
-23 15 16 66 91 114 168 74 119 122 190 155 229 4 4 8 -213 8 -483 2 -424 0
-495 -14 -520 -13 -26 -15 -111 -15 -646 0 -517 -2 -615 -14 -615 -28 0 -46
-47 -46 -122 l0 -73 -72 -115 c-86 -138 -142 -260 -299 -649 -82 -203 -127
-302 -143 -316 -25 -21 -67 -110 -96 -207 -17 -54 -17 -58 1 -87 26 -43 68
-61 139 -61 86 0 108 24 139 148 18 75 20 99 11 126 -9 29 -6 44 28 127 22 52
65 157 97 234 31 77 59 142 62 145 7 7 70 -31 95 -57 13 -14 27 -47 33 -75 16
-80 39 -92 180 -94 100 -2 120 1 157 19 32 16 43 28 43 45 1 24 17 39 182 163
116 88 154 105 186 84 12 -8 111 -108 220 -222 182 -192 200 -214 231 -286 67
-154 112 -183 223 -146 96 31 123 80 87 152 -27 50 -123 145 -155 152 -16 4
-35 15 -42 25 -60 86 -709 755 -812 838 -105 85 -115 98 -115 151 0 49 -18 80
-58 100 l-22 12 0 612 c-1 522 -3 615 -15 631 -13 17 -15 80 -16 380 0 199 -4
428 -8 510 l-9 149 30 25 c46 39 58 72 56 158 -1 64 -5 81 -25 104 -13 15 -23
33 -23 38 0 6 22 40 49 76 74 97 251 359 311 459 45 76 56 88 74 82 71 -20
287 -67 376 -80 149 -23 410 -24 526 -2 167 31 269 76 321 142 16 19 32 35 36
35 4 0 34 -17 65 -38 111 -75 318 -196 372 -218 54 -23 55 -23 102 -123 36
-78 42 -99 28 -91 -53 29 -341 77 -509 86 -121 6 -223 0 -406 -27 -158 -23
-275 -59 -420 -129 -179 -86 -280 -173 -330 -283 -26 -55 -26 -59 -20 -234 3
-98 7 -390 10 -650 l6 -472 -28 -58 c-25 -53 -28 -71 -31 -194 -4 -116 -1
-147 18 -215 62 -228 293 -422 627 -527 213 -67 305 -82 518 -81 196 1 280 11
431 54 38 11 74 20 80 20 6 0 12 -23 13 -54 1 -30 6 -77 10 -105 8 -51 7 -57
-38 -169 -41 -103 -23 -254 40 -335 17 -20 27 -42 24 -47 -8 -12 -42 -130
-186 -635 -82 -287 -117 -397 -134 -415 -50 -55 -115 -238 -115 -324 l0 -57
46 -21 c61 -26 164 -22 194 8 12 11 30 59 44 114 31 122 33 145 17 200 -12 44
-11 49 99 385 61 187 121 370 133 407 21 63 37 87 37 54 0 -36 56 -190 106
-293 208 -426 629 -739 1125 -834 91 -17 153 -22 309 -23 206 -1 250 3 388 34
428 96 786 341 1019 697 81 124 158 306 186 438 5 26 -4 52 122 -345 58 -184
117 -368 130 -408 22 -68 23 -75 8 -109 -9 -24 -13 -52 -10 -78 8 -52 64 -234
78 -252 21 -25 128 -17 190 14 51 27 54 30 57 70 5 71 -67 266 -116 311 -30
29 -34 39 -152 454 l-94 326 69 79 c37 43 101 113 140 155 65 69 74 76 91 64
20 -15 55 -149 47 -183 -4 -19 1 -23 37 -33 31 -8 50 -8 76 0 l34 12 0 68 c0
83 9 132 24 127 13 -4 146 -151 287 -318 161 -190 163 -193 156 -236 -5 -29 1
-53 32 -117 50 -107 60 -116 127 -116 62 0 96 14 138 58 25 27 28 35 21 69
-11 58 -93 173 -137 192 -20 9 -44 28 -52 42 -41 70 -278 373 -395 504 -63 71
-71 85 -71 120 0 54 -37 125 -77 150 l-32 20 2 610 2 610 50 6 c28 4 93 12
145 19 211 27 459 106 601 190 84 50 186 143 228 208 39 62 65 162 58 225 -4
27 -20 76 -37 109 l-30 61 0 196 c0 154 3 201 14 217 11 16 15 73 18 260 3
238 3 239 -22 288 -83 164 -299 295 -605 366 -44 10 -150 26 -235 36 -130 14
-186 15 -350 7 -107 -5 -202 -12 -210 -16 -13 -6 -15 4 -15 65 1 66 6 82 47
168 87 180 146 395 154 565 5 102 4 117 -24 210 -17 55 -41 137 -55 183 -14
46 -27 86 -30 89 -3 2 4 14 15 25 40 40 24 84 -187 508 -266 533 -292 578
-384 671 -59 58 -95 84 -162 117 -104 50 -253 101 -320 109 -39 5 -49 9 -45
22 2 9 7 30 10 46 4 17 9 41 12 55 3 14 11 99 17 190 10 123 17 174 31 200 89
167 22 440 -153 623 -154 161 -351 256 -591 286 -105 13 -164 11 -271 -10z
m848 -901 c15 -28 18 -56 16 -178 -1 -135 -4 -156 -42 -300 -62 -241 -106
-353 -193 -498 -66 -110 -193 -240 -269 -275 -155 -72 -320 -31 -481 121 -107
101 -193 238 -263 420 -26 67 -34 78 -85 112 -89 60 -117 112 -150 274 -31
151 -24 206 24 206 19 0 34 -19 84 -107 65 -117 118 -178 145 -167 9 3 26 22
38 41 18 29 23 57 29 169 9 185 10 186 129 96 106 -82 185 -115 313 -132 102
-14 235 -3 378 32 141 34 186 61 244 146 27 39 53 72 58 72 4 0 15 -15 25 -32z
m-1303 -865 c38 -100 125 -236 199 -311 34 -34 108 -95 165 -134 56 -39 105
-75 108 -79 9 -16 -55 -9 -113 11 -82 29 -156 76 -239 153 -110 103 -142 177
-159 377 -8 88 0 84 39 -17z m1661 -838 c-13 -110 -28 -228 -35 -262 l-13 -63
108 -182 c59 -101 112 -187 119 -191 16 -12 3 -189 -20 -274 -17 -63 -19 -66
-96 -121 -71 -52 -221 -142 -237 -142 -3 0 -5 24 -3 52 5 115 23 364 26 388 3
14 8 66 11 115 3 50 17 155 30 235 14 80 29 183 34 230 5 47 12 92 15 100 3 8
7 26 10 40 6 33 56 251 62 269 13 39 10 -12 -11 -194z m-2309 -107 c-31 -130
-133 -355 -165 -366 -20 -7 -8 24 75 199 41 85 74 158 74 161 0 11 19 58 24
58 2 0 -1 -24 -8 -52z m3070 -358 c39 -151 45 -224 29 -337 -26 -167 -77 -341
-137 -458 -51 -100 -57 -124 -46 -190 18 -115 -29 -249 -120 -347 -48 -52 -96
-83 -112 -73 -12 8 -2 35 25 65 29 32 65 91 65 107 0 16 -35 34 -52 28 -7 -3
-28 -28 -47 -55 -65 -95 -157 -166 -190 -145 -14 8 -15 55 -2 55 19 0 129 111
146 146 15 32 15 37 1 60 -28 41 -60 32 -95 -28 -67 -118 -149 -164 -229 -128
-50 23 -112 77 -112 100 0 35 24 42 71 20 70 -31 93 -27 128 24 37 53 61 139
61 217 l0 58 -57 11 c-32 6 -69 15 -82 19 l-25 7 25 18 c13 9 62 45 109 79 47
33 101 69 120 79 l35 18 16 128 c10 70 22 159 28 197 6 39 11 91 11 118 0 44
-2 47 -25 47 -20 0 -29 8 -40 33 -18 41 -13 45 100 87 103 38 274 118 325 154
l35 24 8 -22 c5 -11 20 -64 33 -116z m-3290 -658 c-10 -9 -316 226 -316 243 0
6 13 32 29 57 34 54 234 323 265 356 l21 24 3 -338 c1 -185 0 -339 -2 -342z
m-648 524 c49 -30 124 -72 166 -93 79 -39 88 -52 60 -91 -19 -27 -49 -28 -71
-2 -27 31 -103 21 -103 -14 0 -22 187 -187 328 -289 53 -38 113 -85 132 -103
20 -19 44 -34 54 -34 27 0 311 -119 346 -145 l32 -24 -54 -30 c-29 -17 -61
-31 -70 -31 -15 0 -18 -9 -18 -45 0 -91 111 -243 189 -260 81 -18 73 -105 -11
-119 -37 -7 -40 -5 -133 89 -53 52 -100 95 -105 95 -4 0 -18 -8 -30 -18 -34
-27 -21 -49 91 -156 108 -104 110 -114 22 -102 -55 7 -99 33 -175 103 -42 38
-62 50 -77 46 -28 -7 -37 -47 -18 -77 22 -32 92 -89 145 -115 48 -24 53 -36
17 -45 -30 -8 -113 23 -160 59 -54 40 -119 141 -195 298 l-70 145 -53 21 c-77
32 -119 56 -257 144 -69 44 -146 92 -171 106 -41 22 -48 30 -52 64 -8 59 -54
143 -119 218 l-59 69 16 63 c20 79 87 230 149 335 l48 81 58 -44 c31 -24 98
-69 148 -99z m2233 49 c30 -16 49 -49 49 -87 0 -30 -61 -85 -102 -93 -26 -5
-111 -65 -309 -222 -221 -173 -713 -563 -860 -682 -33 -27 -34 -26 -73 41
l-16 26 107 94 c128 112 178 152 518 418 503 394 533 419 545 455 7 21 22 39
43 49 40 20 60 20 98 1z m-3579 -224 c72 -28 108 -56 108 -86 0 -29 -16 -41
-67 -50 -75 -12 -238 43 -271 92 -48 74 84 99 230 44z m3593 -407 c11 -8 29
-20 40 -28 11 -8 103 -33 205 -56 102 -23 264 -59 360 -81 96 -21 219 -49 273
-61 82 -18 97 -24 97 -41 0 -33 -23 -97 -34 -97 -6 0 -108 23 -226 50 -118 28
-267 62 -330 76 -63 13 -173 38 -244 55 -106 26 -135 30 -163 21 -98 -30 -172
70 -108 147 36 42 83 48 130 15z m-1021 -450 c11 -29 6 -83 -10 -98 -18 -19
-67 -20 -108 -3 l-29 13 64 51 c35 29 67 52 70 53 4 0 10 -7 13 -16z m3236
-18 c14 -2 61 -10 105 -16 330 -47 560 -158 629 -305 45 -95 -13 -189 -185
-298 -88 -56 -271 -124 -383 -142 -17 -3 -53 -10 -81 -15 -133 -25 -468 -37
-585 -20 -36 5 -83 11 -105 14 -22 3 -51 8 -65 10 -14 3 -50 11 -80 17 -165
33 -408 135 -488 204 l-43 37 3 126 c4 153 12 162 88 87 56 -55 111 -70 155
-41 24 16 27 16 52 -4 31 -24 100 -27 142 -6 28 15 136 125 183 187 15 19 40
62 57 96 l31 61 87 7 c49 3 95 8 103 10 20 5 347 -2 380 -9z m-4402 -301 c210
-41 381 -107 543 -211 100 -64 151 -118 172 -183 23 -72 21 -108 -8 -167 -81
-164 -331 -276 -710 -319 -357 -41 -740 16 -1014 152 -125 61 -221 143 -255
217 -23 49 -41 153 -33 187 17 66 169 180 324 241 192 77 364 106 643 107 181
1 221 -2 338 -24z m2375 -245 c289 -44 540 -167 651 -318 32 -44 36 -57 36
-108 l0 -59 -30 51 c-65 115 -287 247 -508 304 -174 44 -289 56 -512 53 -247
-3 -451 -48 -646 -144 -101 -49 -134 -71 -196 -132 -52 -50 -85 -92 -107 -137
l-32 -65 5 56 c13 164 172 324 415 421 117 46 336 92 486 101 104 6 321 -5
438 -23z m2788 -115 c-30 -108 -200 -227 -430 -299 -186 -59 -319 -78 -562
-83 -251 -6 -405 8 -581 52 -123 30 -299 104 -363 153 -47 35 -121 129 -111
140 3 2 19 -6 35 -17 41 -29 216 -105 310 -135 400 -126 893 -128 1295 -5 153
47 384 176 403 225 11 29 14 5 4 -31z m-2798 -115 c515 -88 750 -335 534 -561
-112 -118 -340 -210 -592 -239 -118 -13 -367 -13 -480 1 -283 34 -546 151
-626 277 -26 42 -29 54 -29 133 l0 87 48 53 c97 108 252 185 472 234 143 32
139 32 362 34 154 1 220 -3 311 -19z m-3532 -307 c150 -96 414 -186 629 -214
47 -6 108 -14 135 -18 85 -12 413 -4 510 12 276 47 473 127 610 249 29 26 56
48 58 48 3 0 2 -14 -3 -30 -88 -305 -792 -475 -1428 -344 -151 31 -330 92
-436 147 -126 66 -226 176 -226 248 0 19 4 18 41 -16 22 -20 72 -57 110 -82z
m6082 12 c22 -47 24 -249 3 -299 -19 -45 -53 -56 -78 -27 -14 19 -17 42 -17
143 0 126 12 178 47 204 24 19 26 18 45 -21z m-1445 -190 c2 -170 1 -191 -15
-202 -25 -19 -61 -16 -73 6 -6 12 -10 92 -10 192 0 190 4 201 65 196 l30 -2 3
-190z m724 28 c16 -14 18 -33 18 -159 0 -181 -11 -213 -72 -214 -50 0 -58 27
-58 194 0 140 1 151 22 173 25 27 64 30 90 6z m-1126 -200 c-31 -91 -126 -185
-255 -252 -214 -110 -587 -169 -901 -141 -370 32 -641 138 -769 300 -35 44
-78 146 -67 157 2 2 28 -21 57 -52 128 -136 334 -230 615 -282 137 -25 537
-25 669 0 307 58 557 193 636 342 l24 46 3 -37 c2 -19 -4 -56 -12 -81z m-2393
60 c3 -5 8 -75 11 -157 6 -132 5 -151 -10 -167 -26 -29 -54 -25 -54 9 -1 15
-3 79 -6 143 -5 95 -3 122 10 148 15 29 39 41 49 24z m-1683 -161 c6 -130 -3
-152 -67 -152 l-33 0 0 131 0 130 48 -3 47 -3 5 -103z m6181 20 c-25 -50 -134
-151 -208 -194 -214 -125 -511 -192 -858 -192 -201 0 -279 10 -485 60 -142 35
-255 82 -353 147 -113 76 -122 86 -106 131 l12 35 41 -28 c194 -133 501 -215
851 -228 422 -15 814 83 1051 262 33 25 62 45 67 45 4 0 -1 -17 -12 -38z
m-5246 -83 c13 -39 21 -219 11 -229 -14 -14 -70 -12 -84 2 -13 13 -17 184 -6
226 9 31 69 32 79 1z m1128 -62 c15 -23 14 -25 -61 -78 -106 -75 -295 -265
-376 -379 -134 -187 -285 -551 -302 -723 -10 -112 -17 -75 -10 58 8 164 12
195 36 275 24 79 105 267 154 354 77 137 210 290 338 387 73 56 186 129 199
129 4 0 14 -11 22 -23z m2120 -131 c85 -69 287 -156 466 -201 84 -21 260 -45
339 -45 l62 0 0 -605 0 -604 -27 -15 c-60 -31 -103 -101 -103 -166 0 -18 -14
-45 -37 -72 -81 -96 -195 -223 -203 -226 -5 -2 -14 22 -20 53 -10 47 -9 59 3
73 41 47 57 100 57 192 0 98 -19 162 -67 227 -21 29 -23 42 -23 151 0 244 -72
523 -196 760 -93 178 -134 239 -214 316 -38 38 -72 78 -75 90 -8 41 -13 106
-8 106 2 0 23 -15 46 -34z m-433 -91 c0 -93 -53 -142 -97 -90 -19 21 -23 37
-21 68 3 40 5 42 48 53 70 19 70 19 70 -31z m-1262 -14 c1 -1 2 -37 2 -81 0
-89 -7 -99 -65 -92 l-35 4 0 90 0 90 48 -5 c26 -3 48 -6 50 -6z m-5 -298 c4
-2 7 -28 7 -56 0 -90 -46 -125 -90 -69 -17 21 -21 36 -17 69 6 58 22 76 61 67
17 -3 34 -8 39 -11z m-2520 -113 c8 -96 -4 -130 -42 -130 -44 0 -50 11 -54
107 -5 101 -7 98 64 102 26 1 26 -1 32 -79z m3774 34 c26 -8 79 -31 118 -51
255 -127 548 -455 650 -727 30 -80 30 -86 6 -86 -11 0 -22 -6 -25 -12 -5 -10
-8 -9 -12 2 -4 8 -35 70 -70 138 -147 287 -332 474 -609 613 -66 34 -134 71
-151 82 l-32 21 22 18 c26 22 43 22 103 2z m-1472 -34 c15 -28 14 -31 -2 -37
-78 -27 -220 -91 -282 -128 -226 -133 -409 -337 -527 -590 -54 -117 -73 -124
-69 -27 2 54 9 83 37 139 109 221 348 462 568 573 57 29 233 98 252 99 4 1 15
-13 23 -29z m-2526 -83 c116 -138 272 -241 469 -308 250 -86 624 -101 894 -38
48 11 91 19 95 17 12 -5 6 -60 -9 -73 -15 -14 -145 -49 -238 -65 -36 -6 -130
-13 -210 -17 -159 -6 -299 9 -465 52 -186 47 -394 161 -493 270 -55 60 -132
202 -132 243 0 14 4 22 8 17 4 -6 41 -49 81 -98z m3374 43 c295 -31 562 -118
747 -243 272 -184 481 -524 524 -852 20 -157 16 -253 -20 -420 -73 -346 -306
-650 -654 -855 -81 -48 -241 -116 -323 -139 -171 -47 -236 -55 -432 -56 -260
0 -306 6 -505 67 -209 64 -391 172 -555 330 -114 110 -193 214 -264 349 -94
178 -128 316 -138 549 -5 139 -3 164 16 242 56 221 179 435 351 608 230 232
491 359 860 418 82 13 282 14 393 2z m-2189 -67 c4 -27 7 -76 9 -111 2 -69
-12 -92 -60 -92 -43 0 -55 37 -45 134 11 96 22 116 62 116 26 0 29 -4 34 -47z
m441 -875 c20 -9 25 -17 20 -32 -3 -12 -10 -59 -16 -106 -5 -46 -12 -86 -14
-89 -11 -10 -46 35 -56 71 -12 47 -2 126 19 151 18 20 15 20 47 5z m3205 -17
c14 -27 12 -161 -3 -191 -7 -14 -20 -26 -30 -28 -14 -3 -17 4 -17 44 0 26 -5
76 -11 112 -9 53 -9 66 2 73 23 14 48 10 59 -10z m-5496 -170 c71 -58 233
-221 218 -221 -5 0 -39 -26 -73 -58 -35 -31 -92 -79 -127 -105 -93 -72 -92
-74 -92 204 0 126 3 229 6 229 3 0 34 -22 68 -49z m-299 -280 l7 -114 -39 29
c-22 16 -55 42 -73 57 l-33 28 24 52 c13 29 39 81 59 117 l35 65 6 -60 c4 -33
10 -111 14 -174z"/>
<path d="M8522 7720 c-22 -21 -22 -21 -22 -448 0 -424 0 -426 -20 -407 -16 17
-19 35 -21 114 l-2 94 -89 -7 c-302 -21 -636 -149 -804 -308 -137 -129 -174
-268 -113 -423 36 -90 173 -224 294 -287 193 -99 375 -147 668 -173 l77 -7 0
-540 0 -540 -25 -30 c-25 -29 -25 -32 -25 -208 0 -132 4 -188 15 -220 12 -34
15 -104 15 -366 0 -303 -1 -323 -18 -328 -50 -16 -92 -95 -92 -171 0 -37 -8
-53 -53 -111 -118 -152 -295 -419 -472 -716 -44 -73 -78 -119 -90 -122 -35 -9
-155 -187 -155 -230 0 -40 65 -76 135 -76 75 0 164 111 180 225 6 40 26 78 98
185 50 74 92 137 93 139 4 5 213 -127 241 -152 14 -12 25 -37 29 -64 4 -25 17
-57 29 -71 20 -24 30 -27 77 -25 29 1 64 2 78 3 14 0 46 -2 71 -6 42 -5 48 -3
84 30 36 34 37 38 32 81 -4 25 -3 45 3 45 5 0 57 32 117 70 84 55 110 67 119
58 6 -7 60 -96 119 -198 59 -102 134 -229 166 -282 56 -94 58 -100 56 -160 -2
-54 3 -73 33 -133 19 -38 47 -78 61 -88 56 -40 163 -30 221 22 27 24 30 32 24
62 -4 19 -30 76 -59 128 -39 70 -61 99 -86 112 -27 14 -50 47 -114 161 -394
704 -433 772 -559 960 -66 101 -78 124 -78 160 -1 56 -30 120 -69 149 l-31 23
0 318 c0 299 1 321 20 358 18 35 20 59 20 233 0 179 -2 196 -20 220 -19 24
-20 40 -20 560 l0 535 38 6 c20 3 80 10 132 16 203 21 451 99 604 189 222 131
319 284 287 455 -16 86 -48 143 -126 222 -163 165 -486 290 -828 320 l-78 7 2
-98 c1 -93 0 -98 -25 -123 l-26 -27 0 437 0 437 -22 15 c-31 22 -70 20 -96 -4z
m-54 -997 c83 -40 207 -33 264 15 15 13 19 11 37 -19 38 -61 19 -133 -42 -166
-82 -45 -151 -53 -236 -27 -108 32 -157 115 -111 188 12 20 24 36 27 36 3 0
31 -12 61 -27z m2 -3723 c0 -260 -1 -280 -17 -280 -29 0 -113 53 -181 114 -40
36 -67 53 -78 49 -18 -7 15 48 144 237 94 138 111 160 124 160 4 0 8 -126 8
-280z m314 60 c90 -150 103 -176 89 -184 -9 -5 -31 -24 -49 -41 -50 -50 -99
-85 -133 -95 l-31 -9 0 256 c0 159 4 253 10 251 5 -1 56 -82 114 -178z"/>
</g>
</svg>
