<?xml version="1.0" standalone="no"?>
<!DOCTYPE svg PUBLIC "-//W3C//DTD SVG 20010904//EN"
 "http://www.w3.org/TR/2001/REC-SVG-20010904/DTD/svg10.dtd">
<svg version="1.0" xmlns="http://www.w3.org/2000/svg"
 width="468.996271pt" height="671.874495pt" viewBox="0 0 468.996271 671.874495"
 preserveAspectRatio="xMidYMid meet">
<metadata>Created by Svg.la</metadata>
<g transform="translate(-28.000000,730.909640) scale(0.100000,-0.100000)"
fill="#000000" stroke="none">
<path d="M2039 7287 c-21 -13 -218 -266 -499 -639 -256 -340 -604 -801 -775
-1025 -170 -224 -321 -430 -335 -458 -23 -47 -25 -60 -27 -220 l-2 -171 -60
-60 -61 -61 0 -67 c0 -121 21 -142 214 -205 83 -27 390 -125 681 -217 292 -91
690 -217 885 -279 l355 -112 0 -358 0 -358 -53 -17 c-90 -30 -132 -87 -132
-181 0 -21 -6 -39 -13 -42 -7 -3 -112 -85 -233 -183 -527 -428 -763 -608 -819
-627 -75 -25 -171 -115 -181 -170 -20 -112 78 -219 188 -204 67 9 198 112 198
156 0 11 52 57 137 122 75 57 189 146 252 197 64 50 122 90 129 87 7 -2 123
-97 257 -211 l245 -207 0 -61 c0 -33 -9 -212 -20 -396 -14 -247 -23 -345 -34
-372 -9 -21 -19 -83 -22 -140 -6 -97 -5 -105 17 -138 66 -97 256 -108 321 -18
32 46 46 205 23 265 -16 42 -16 65 -1 366 9 177 19 340 22 362 l5 40 312 208
c172 114 316 207 321 207 25 0 468 -404 491 -447 25 -47 133 -130 180 -139 78
-14 147 22 185 97 25 49 25 90 0 139 -23 46 -107 112 -167 131 -41 14 -118 80
-628 540 -82 75 -215 194 -295 265 l-145 130 -6 55 c-10 95 -49 143 -136 169
l-43 13 0 305 c0 258 2 303 14 299 93 -36 414 -130 457 -134 68 -7 150 15 201
54 20 15 70 69 110 118 479 582 668 811 808 980 303 366 570 695 590 728 16
26 20 50 20 128 0 107 -15 143 -76 184 l-30 20 28 54 28 53 0 343 c0 338 0
342 -23 375 -43 64 6 49 -817 260 -528 135 -893 230 -1355 351 -568 149 -623
159 -686 116z m156 -78 c0 -12 -1491 -1997 -1531 -2039 -22 -22 -25 -23 -39
-9 -14 14 -10 23 43 90 32 41 191 250 352 464 552 732 935 1240 1035 1373 76
99 105 131 120 129 11 -1 20 -5 20 -8z m182 -78 c132 -61 55 -230 -105 -231
-139 0 -191 133 -82 210 60 43 123 50 187 21z m233 -33 c-1 -14 -210 -306
-464 -648 -84 -113 -299 -407 -478 -655 -417 -577 -536 -738 -554 -748 -17
-10 -36 0 -32 17 2 6 112 160 245 341 414 562 672 919 669 922 -2 2 -16 -3
-32 -12 -60 -31 -130 -10 -158 49 -18 38 -20 74 -6 96 8 12 10 9 10 -12 0 -57
49 -108 105 -108 37 0 88 34 103 69 l16 36 5 -30 c6 -28 14 -19 147 160 77
105 196 268 264 363 82 113 130 172 142 172 10 0 18 -6 18 -12z m201 -82 c86
-59 69 -160 -35 -207 -133 -61 -269 38 -208 151 42 78 168 106 243 56z m219
-32 c0 -8 -25 -43 -524 -739 -353 -493 -827 -1151 -918 -1272 -24 -33 -46 -53
-58 -53 -30 0 -25 17 28 89 463 632 872 1198 872 1207 0 2 -13 -2 -30 -11 -60
-31 -145 -10 -169 42 -14 30 -14 100 -1 108 6 4 10 -10 10 -34 0 -32 6 -44 31
-65 58 -49 162 -22 176 47 l7 32 11 -29 12 -29 44 60 c24 33 139 193 254 356
168 237 215 297 233 297 12 0 22 -3 22 -6z m185 -64 c72 -35 93 -99 52 -161
-62 -94 -220 -105 -271 -18 -38 64 -4 142 79 180 52 24 89 24 140 -1z m235
-36 c0 -13 -36 -67 -284 -423 -144 -207 -313 -450 -376 -541 -144 -209 -733
-1043 -772 -1092 -16 -21 -36 -38 -44 -38 -27 0 -13 37 44 115 191 261 842
1187 842 1198 0 2 -18 -4 -40 -15 -55 -27 -103 -18 -147 29 -27 28 -33 43 -33
76 0 23 5 49 10 57 7 11 10 7 10 -17 0 -72 42 -113 114 -113 47 0 96 41 96 81
0 45 18 34 22 -13 l3 -42 224 325 c297 429 290 419 312 419 10 0 19 -3 19 -6z
m-1279 -53 c37 -38 37 -55 -5 -97 -29 -29 -41 -34 -79 -34 -38 0 -49 5 -71 31
-29 34 -31 47 -15 83 14 31 43 44 97 45 35 1 49 -5 73 -28z m1483 -31 c41 -37
51 -71 32 -109 -43 -82 -203 -80 -243 3 -16 34 -16 38 0 72 20 42 63 63 129
64 39 0 54 -6 82 -30z m-1063 -67 c33 -34 34 -68 2 -103 -39 -43 -105 -52
-145 -20 -22 16 -28 30 -28 59 0 20 6 45 13 54 27 38 124 44 158 10z m1403
-44 c25 -20 33 -50 20 -84 -10 -25 -59 -45 -110 -45 -60 0 -94 28 -94 76 0 47
38 74 105 74 38 0 60 -6 79 -21z m-1001 -51 c76 -40 53 -135 -37 -152 -83 -16
-144 59 -100 122 28 40 93 54 137 30z m-1009 -19 c55 -44 6 -114 -79 -114 -52
0 -85 26 -85 66 0 62 106 93 164 48z m2344 1 c38 -23 43 -59 12 -90 -44 -44
-112 -52 -154 -19 -43 34 -30 90 27 114 45 20 77 18 115 -5z m-855 -31 c61
-31 74 -94 29 -139 -57 -57 -168 -47 -206 19 -19 34 -19 34 0 70 10 19 30 41
44 48 31 16 104 17 133 2z m-1055 -82 c30 -28 28 -53 -7 -88 -24 -24 -38 -29
-76 -29 -85 0 -123 74 -62 122 42 33 106 30 145 -5z m2366 11 c-1 -8 -163
-247 -361 -529 -198 -283 -431 -617 -518 -744 -475 -688 -648 -932 -672 -949
-16 -12 -48 -21 -82 -24 -50 -4 -121 16 -656 178 -894 272 -1042 316 -1245
376 -102 30 -303 91 -448 135 -144 43 -265 79 -267 79 -12 0 -4 38 9 43 8 3
101 -21 207 -54 107 -33 322 -98 479 -145 157 -47 350 -105 430 -129 80 -24
204 -62 275 -83 72 -21 342 -103 600 -182 259 -78 500 -151 538 -163 57 -17
73 -18 106 -8 36 10 51 29 199 244 240 350 793 1150 990 1432 363 519 384 546
401 543 9 -2 15 -11 15 -20z m-979 -28 c29 -11 55 -62 47 -92 -8 -34 -51 -58
-102 -58 -42 0 -52 4 -74 31 -30 35 -32 56 -10 87 27 39 85 52 139 32z m-990
-74 c82 -34 36 -136 -60 -136 -62 0 -109 55 -85 100 12 22 62 49 93 50 10 0
33 -6 52 -14z m1339 -17 c32 -15 51 -60 37 -87 -11 -21 -59 -42 -96 -42 -32 0
-75 37 -75 64 0 25 23 50 60 65 33 13 45 13 74 0z m-2398 -74 c29 -29 26 -59
-9 -87 -70 -55 -182 -11 -155 61 13 37 38 50 91 51 38 0 53 -5 73 -25z m1552
-51 c48 -33 10 -104 -57 -104 -38 0 -81 32 -81 61 0 26 48 59 84 59 17 0 42
-7 54 -16z m-1125 -52 c23 -21 22 -74 -3 -97 -11 -10 -41 -20 -67 -22 -81 -8
-128 48 -88 105 29 41 118 49 158 14z m1501 -30 c3 -5 -79 -132 -182 -283
-320 -467 -661 -966 -780 -1141 -106 -157 -142 -195 -142 -149 0 19 20 50 335
511 111 162 292 428 402 590 311 458 327 480 345 480 9 0 19 -4 22 -8z m-2069
-119 c58 -51 175 -12 175 58 0 35 15 31 22 -6 7 -32 -23 -80 -61 -100 -103
-53 -215 27 -186 132 8 26 9 25 16 -17 6 -29 18 -53 34 -67z m1764 9 c1 -42
-39 -85 -96 -102 -34 -11 -45 -10 -77 5 -48 23 -83 88 -71 131 l8 29 7 -32
c17 -74 56 -101 128 -90 48 8 82 46 83 95 0 30 2 33 9 17 5 -11 9 -35 9 -53z
m542 45 c10 -6 22 -22 28 -35 21 -45 -23 -87 -100 -98 -39 -5 -49 -3 -73 18
-50 43 -30 107 38 127 34 10 80 5 107 -12z m-1313 -13 c38 -25 28 -85 -19
-109 -44 -23 -96 -19 -124 10 -44 43 -28 86 40 110 42 15 65 12 103 -11z
m-605 -73 c-6 -24 21 -77 46 -91 62 -33 161 11 161 71 0 16 5 29 10 29 6 0 10
-20 10 -44 0 -37 -5 -48 -30 -70 -85 -71 -192 -47 -216 48 -7 30 2 76 15 76 5
0 7 -8 4 -19z m1738 -142 c14 -35 59 -59 112 -59 60 0 102 34 115 93 l9 42 12
-29 c17 -42 5 -80 -34 -115 -111 -97 -278 -8 -239 126 l8 28 3 -30 c2 -16 8
-42 14 -56z m-1274 -49 c60 -47 173 -7 173 61 0 31 14 39 24 13 11 -30 6 -53
-21 -85 -86 -102 -233 -62 -233 64 0 50 14 55 23 8 5 -25 18 -48 34 -61z m617
87 c46 -34 6 -107 -58 -107 -69 0 -104 68 -53 103 27 20 87 22 111 4z m-1665
-16 c23 -15 5 -44 -21 -35 -30 9 -32 10 -25 29 7 17 25 19 46 6z m129 -55 c3
-11 -4 -16 -21 -16 -31 0 -51 22 -36 37 15 15 53 1 57 -21z m297 -86 c0 -18
-33 -26 -47 -12 -6 6 -7 15 -3 22 10 16 50 8 50 -10z m1119 -77 c41 -35 99
-32 138 7 23 24 29 37 26 60 -6 43 10 37 18 -6 18 -95 -87 -165 -176 -119 -48
25 -73 91 -53 142 6 14 9 8 14 -21 4 -25 16 -48 33 -63z m-1684 78 c19 -6 54
-15 78 -21 44 -11 56 -36 29 -58 -16 -14 -156 20 -168 40 -12 19 -11 36 4 41
18 8 19 8 57 -2z m684 -24 c16 -11 16 -15 3 -25 -16 -13 -67 -1 -67 16 0 24
36 29 64 9z m-698 -93 c78 -20 86 -36 39 -84 -29 -29 -35 -43 -35 -78 0 -23
-3 -42 -7 -42 -4 0 -44 11 -90 25 l-83 26 0 52 c0 29 4 58 8 65 15 23 77 61
91 56 8 -2 42 -12 77 -20z m2404 0 c72 -19 96 -35 87 -58 -8 -21 -38 -19 -121
7 -73 23 -103 50 -76 67 8 5 22 8 30 5 8 -2 44 -11 80 -21z m-1392 -7 c3 -15
-2 -18 -25 -15 -17 2 -29 10 -31 21 -3 15 2 18 25 15 17 -2 29 -10 31 -21z
m-535 -4 c70 -18 90 -32 82 -55 -10 -27 -30 -28 -101 -8 -74 21 -100 40 -91
64 8 20 32 20 110 -1z m650 -15 c11 -9 14 -18 8 -27 -8 -12 -14 -13 -35 -3
-14 6 -26 18 -26 27 0 18 30 20 53 3z m2437 -3 c11 -13 7 -23 -21 -58 -18 -23
-229 -283 -468 -577 -386 -475 -532 -653 -862 -1050 -107 -129 -134 -155 -181
-174 -75 -32 -137 -22 -410 65 -837 266 -1116 353 -1728 543 -646 200 -750
233 -757 240 -8 7 26 46 40 46 6 0 46 -13 91 -30 45 -16 236 -77 426 -135 190
-58 392 -121 450 -140 58 -18 222 -70 365 -115 482 -151 1019 -321 1190 -377
238 -78 297 -77 383 8 46 45 472 562 1042 1264 376 464 411 505 419 505 5 0
14 -7 21 -15z m-3206 -74 c3 -5 18 -12 33 -15 117 -29 125 -37 74 -84 -23 -21
-30 -37 -33 -72 -3 -45 -3 -45 -38 -43 -19 1 -60 10 -90 20 l-55 18 -3 52 c-3
55 -4 53 63 108 33 27 41 29 49 16z m1159 -40 c4 -4 -1 -15 -10 -23 -16 -14
-22 -15 -50 -3 -24 10 -31 18 -26 30 4 13 14 15 42 10 20 -4 39 -10 44 -14z
m810 -12 c54 -16 67 -24 67 -40 0 -31 -22 -32 -110 -8 -81 21 -98 34 -86 65 7
18 13 17 129 -17z m-1429 -18 c69 -20 89 -42 64 -67 -15 -15 -22 -14 -89 7
-75 24 -89 39 -75 76 4 10 12 13 24 8 9 -4 44 -15 76 -24z m760 -7 c19 -7 21
-30 3 -37 -26 -10 -67 5 -67 24 0 20 31 26 64 13z m-821 -96 c38 -13 72 -29
75 -37 3 -9 -9 -27 -31 -46 -31 -27 -37 -38 -37 -72 0 -26 -5 -43 -14 -46 -8
-3 -47 4 -88 17 l-73 22 -3 61 -3 61 43 30 c24 17 47 31 52 31 5 1 41 -9 79
-21z m566 11 c33 -12 38 -21 19 -36 -17 -13 -78 3 -78 21 0 27 13 31 59 15z
m-1544 -18 c0 -16 -164 -237 -182 -245 -6 -3 -16 1 -22 8 -14 17 165 258 189
254 8 -2 15 -9 15 -17z m1729 -41 c11 -11 -1 -30 -19 -30 -8 0 -26 5 -40 10
-23 9 -25 13 -14 26 13 15 54 12 73 -6z m560 0 c13 -13 -3 -30 -28 -30 -31 0
-50 22 -34 38 12 12 45 7 62 -8z m120 -30 c38 -14 24 -44 -18 -36 -36 7 -51
20 -42 35 9 14 27 14 60 1z m-936 -35 c26 -8 28 -20 5 -33 -20 -12 -73 4 -73
22 0 18 11 27 29 22 9 -2 26 -7 39 -11z m-1038 -17 c0 -5 -41 -63 -92 -129
-85 -111 -114 -135 -125 -104 -3 9 106 158 172 237 14 17 45 15 45 -4z m1215
-39 c18 -17 -12 -32 -49 -25 -35 7 -49 29 -23 39 15 6 59 -3 72 -14z m525 -62
c50 -17 66 -27 68 -43 5 -32 -18 -35 -101 -10 -83 24 -103 36 -94 60 8 21 48
19 127 -7z m-794 3 c19 0 30 -30 14 -40 -16 -10 -80 10 -80 26 0 15 20 24 38
18 8 -2 20 -4 28 -4z m-541 -50 c3 -5 -29 -55 -71 -112 -55 -74 -83 -103 -98
-103 -31 0 -24 15 57 125 67 92 96 116 112 90z m733 -15 c14 -14 -19 -27 -52
-21 -38 7 -43 15 -25 33 10 10 63 2 77 -12z m536 -44 c55 -16 89 -42 74 -56
-10 -10 -178 45 -178 59 0 19 12 27 29 20 9 -3 43 -14 75 -23z m-774 -32 c0
-18 -34 -27 -64 -16 -40 13 -41 14 -27 31 9 11 20 12 51 4 22 -6 40 -14 40
-19z m158 -44 c14 -14 -19 -27 -52 -21 -35 7 -49 30 -23 39 12 4 66 -8 75 -18z
m559 -7 c80 -23 95 -38 69 -67 -9 -10 -16 -34 -16 -53 0 -57 -16 -62 -107 -37
-43 12 -84 27 -90 32 -8 5 -13 32 -13 62 0 46 4 56 27 75 15 11 33 18 40 15 8
-2 48 -15 90 -27z m-813 -68 c7 -7 6 -14 -2 -22 -9 -9 -21 -8 -52 1 -36 10
-40 14 -29 27 14 17 64 13 83 -6z m171 -51 c17 -16 -11 -31 -44 -24 -34 7 -46
19 -36 36 7 11 64 3 80 -12z m-196 -80 c18 -6 30 -16 28 -23 -5 -16 -52 -19
-77 -6 -17 9 -19 14 -9 26 14 17 17 17 58 3z m751 -61 c0 -20 -120 -168 -135
-168 -31 0 -23 24 32 99 42 57 64 80 81 80 12 1 22 -5 22 -11z m-665 -1796
c28 -52 73 -72 163 -72 41 0 88 6 107 14 29 13 66 55 78 91 7 18 37 -17 37
-42 0 -35 -65 -98 -115 -112 -51 -14 -158 -14 -208 0 -45 12 -105 62 -113 94
-6 23 10 65 24 65 4 0 16 -17 27 -38z m-41 -377 l38 -20 -7 -225 c-4 -124 -10
-244 -14 -268 l-6 -44 -170 137 c-93 76 -181 148 -195 162 l-25 24 39 32 c95
77 291 226 296 224 3 -1 22 -11 44 -22z m641 -147 c107 -99 181 -176 176 -181
-5 -5 -116 -80 -247 -167 -174 -114 -240 -153 -243 -142 -3 17 27 539 34 588
4 23 15 35 48 51 23 12 43 22 45 22 1 1 86 -76 187 -171z"/>
<path d="M2263 7089 c-30 -9 -83 -60 -83 -80 0 -25 50 -59 87 -59 42 0 101 26
116 51 32 53 -45 109 -120 88z"/>
<path d="M2665 6981 c-25 -11 -51 -40 -59 -68 -11 -34 32 -73 80 -73 45 0 101
26 120 56 38 58 -61 117 -141 85z"/>
<path d="M3094 6876 c-37 -16 -64 -51 -64 -82 0 -30 45 -64 84 -64 44 0 109
40 121 74 9 25 6 31 -23 57 -36 32 -69 36 -118 15z"/>
<path d="M2058 6809 c-25 -14 -22 -36 7 -55 21 -14 31 -15 51 -6 30 14 40 37
24 57 -14 17 -57 19 -82 4z"/>
<path d="M3524 6776 c-64 -28 -41 -96 32 -96 35 0 73 15 85 33 13 19 -5 50
-37 63 -40 17 -41 17 -80 0z"/>
<path d="M2488 6703 c-25 -7 -32 -36 -11 -51 19 -14 70 -9 87 8 26 26 -28 57
-76 43z"/>
<path d="M3870 6655 c-18 -21 -6 -42 29 -50 34 -7 71 8 71 30 0 32 -77 48
-100 20z"/>
<path d="M2901 6586 c-24 -28 -6 -47 41 -44 38 3 43 6 43 28 0 21 -5 25 -36
28 -23 2 -40 -2 -48 -12z"/>
<path d="M3362 6544 c-12 -8 -22 -26 -22 -38 0 -43 86 -59 127 -24 33 27 -5
78 -57 78 -14 0 -36 -7 -48 -16z"/>
<path d="M3710 6436 c-17 -22 3 -46 39 -46 35 0 54 14 49 36 -4 25 -69 32 -88
10z"/>
</g>
</svg>
