<?xml version="1.0" standalone="no"?>
<!DOCTYPE svg PUBLIC "-//W3C//DTD SVG 20010904//EN"
 "http://www.w3.org/TR/2001/REC-SVG-20010904/DTD/svg10.dtd">
<svg version="1.0" xmlns="http://www.w3.org/2000/svg"
 width="329.933817pt" height="755.778678pt" viewBox="0 0 329.933817 755.778678"
 preserveAspectRatio="xMidYMid meet">
<metadata>Created by Svg.la</metadata>
<g transform="translate(-67.066183,780.861630) scale(0.100000,-0.100000)"
fill="#000000" stroke="none">
<path d="M3645 7796 c-67 -21 -102 -44 -141 -91 -20 -25 -41 -44 -47 -42 -5 1
-15 18 -21 37 -14 45 -56 53 -92 19 -59 -55 -2 -167 57 -113 10 9 25 14 34 10
14 -5 10 -18 -26 -86 -40 -78 -60 -94 -68 -54 -16 87 -127 58 -119 -31 4 -53
31 -70 76 -48 18 9 36 13 39 9 10 -10 -69 -165 -81 -160 -6 3 -18 19 -26 37
-28 59 -100 44 -115 -25 -14 -62 41 -103 84 -64 10 10 22 12 30 6 11 -6 6 -23
-26 -82 -43 -76 -73 -99 -73 -54 0 55 -54 73 -95 31 -29 -28 -34 -85 -9 -109
20 -20 34 -20 63 0 43 30 45 2 4 -80 -38 -77 -56 -90 -61 -44 -5 39 -33 61
-65 49 -49 -19 -76 -98 -45 -129 15 -15 53 -15 78 0 31 20 33 3 6 -51 -33 -64
-33 -114 -1 -166 42 -67 39 -83 -101 -665 -19 -80 -53 -221 -76 -315 -22 -93
-60 -251 -83 -350 -42 -172 -73 -304 -115 -480 -10 -44 -46 -192 -78 -330 -33
-137 -79 -332 -103 -433 -39 -162 -46 -183 -66 -188 -31 -8 -59 3 -99 38 -71
62 -102 175 -84 309 15 116 13 221 -6 247 -8 12 -10 22 -5 22 21 0 11 39 -15
59 -32 25 -111 29 -120 7 -3 -8 -32 -24 -65 -35 -82 -30 -136 -75 -191 -156
-95 -141 -128 -318 -110 -581 34 -474 27 -553 -66 -741 -20 -40 -64 -110 -99
-155 -34 -46 -98 -129 -140 -185 -98 -128 -167 -249 -206 -361 -29 -82 -31
-96 -31 -242 -1 -123 3 -167 17 -215 26 -84 80 -189 138 -269 28 -38 47 -72
42 -76 -27 -27 -435 -240 -455 -238 -31 3 -194 -87 -209 -114 -18 -33 -6 -115
21 -143 42 -45 76 -42 186 13 62 31 103 58 109 72 7 15 92 67 253 156 l243
133 57 -43 c76 -57 183 -118 320 -183 66 -31 110 -58 107 -64 -13 -20 5 -57
32 -67 60 -23 72 -23 92 -3 l20 20 148 -49 c211 -70 337 -93 482 -88 84 3 133
10 177 26 76 27 169 81 223 131 l41 38 4 -31 c17 -106 30 -82 -167 -283 -99
-101 -187 -183 -196 -183 -17 0 -128 -117 -149 -157 -31 -57 3 -135 65 -152
71 -20 82 -16 166 68 64 65 78 83 72 101 -8 25 85 126 524 572 195 199 280
278 296 278 14 0 43 22 78 59 50 52 57 64 57 100 0 52 -48 111 -90 111 -40 0
-160 -83 -160 -110 0 -16 -47 -68 -53 -59 -9 11 -43 166 -102 469 -19 96 -41
207 -49 245 -8 39 -35 175 -60 302 l-46 233 20 51 c11 28 51 99 89 157 134
210 174 316 175 472 1 85 -2 101 -27 152 -36 73 -80 103 -152 102 -92 -2 -165
-56 -209 -156 -14 -31 -29 -59 -34 -62 -6 -3 -15 20 -21 52 -11 59 -63 332
-107 557 -18 88 -27 173 -29 261 -2 99 -7 141 -20 168 -18 37 -17 38 64 414
45 207 104 478 131 602 28 124 54 245 59 270 9 41 62 286 128 580 41 189 92
264 221 329 58 29 60 32 67 78 4 26 6 161 4 298 -2 138 0 260 5 273 4 12 39
43 77 68 111 74 149 137 149 252 0 120 -67 215 -174 247 -59 18 -97 18 -151 1z
m146 -89 c66 -44 98 -124 83 -205 -14 -78 -45 -113 -141 -161 -34 -17 -68 -41
-74 -53 -9 -17 -13 -109 -14 -324 -1 -166 -5 -306 -9 -313 -4 -6 -38 -31 -76
-55 -71 -46 -120 -102 -142 -162 -7 -19 -16 -34 -21 -34 -4 0 -6 4 -2 10 17
27 135 655 180 957 14 92 21 115 41 134 28 26 31 55 8 87 -19 28 -57 29 -84 2
-27 -27 -25 -56 5 -86 l25 -25 -20 -130 c-21 -135 -178 -930 -185 -937 -2 -2
-13 -1 -25 3 -14 4 -19 12 -16 22 6 15 107 515 145 722 17 86 28 121 46 143
30 36 31 52 5 78 -27 27 -65 26 -84 -2 -22 -31 -20 -57 5 -84 l21 -22 -22
-124 c-18 -103 -120 -622 -137 -695 -6 -24 -43 -33 -43 -11 0 6 28 152 62 322
50 253 66 316 85 339 27 34 28 45 7 75 -24 35 -79 27 -95 -14 -11 -30 5 -74
26 -74 17 0 16 -18 -10 -124 -8 -32 -13 -42 -14 -25 -1 32 -18 49 -50 49 -54
0 -80 -61 -41 -98 18 -17 19 -23 8 -78 -6 -32 -13 -61 -14 -63 -2 -2 -13 8
-25 22 -24 32 -52 34 -79 7 -24 -24 -26 -63 -4 -85 14 -14 15 -24 4 -80 -7
-36 -15 -65 -19 -65 -17 0 -53 93 -48 123 6 37 475 968 503 998 55 61 172 79
235 36z m-485 -890 c-8 -34 -29 -131 -47 -214 -28 -130 -35 -153 -51 -153 -10
0 -18 6 -18 13 0 6 18 100 41 207 32 150 46 200 63 216 28 28 32 10 12 -69z
m-94 -129 c-6 -18 -20 -76 -32 -129 -19 -86 -23 -96 -41 -92 -10 3 -19 7 -19
9 0 2 9 46 21 99 16 72 28 103 48 123 14 15 28 27 29 25 2 -1 -1 -17 -6 -35z
m76 -320 c12 0 25 -4 28 -9 3 -5 18 -9 33 -9 37 0 57 -22 38 -41 -7 -8 -21
-50 -31 -94 -36 -164 -45 -203 -74 -330 -17 -71 -28 -133 -25 -138 2 -4 0 -13
-5 -20 -9 -11 -50 -178 -56 -228 -1 -13 -5 -31 -9 -39 -15 -34 -46 -200 -41
-214 3 -9 2 -16 -3 -16 -12 0 -57 -206 -48 -220 3 -5 2 -10 -3 -10 -12 0 -56
-196 -47 -211 4 -6 3 -14 -3 -18 -18 -11 -53 -174 -39 -183 9 -6 8 -11 -3 -18
-18 -11 -52 -158 -38 -166 5 -3 3 -11 -5 -17 -19 -16 -51 -151 -37 -155 15 -5
12 -22 -3 -22 -15 0 -43 -122 -32 -139 3 -6 2 -11 -4 -11 -12 0 -35 -106 -26
-127 3 -9 1 -19 -5 -23 -18 -11 -40 -106 -27 -119 8 -8 6 -14 -5 -23 -21 -17
-40 -105 -24 -111 7 -3 5 -10 -5 -18 -22 -19 -34 -86 -18 -105 9 -11 8 -14 -4
-14 -18 0 -39 -79 -25 -94 12 -14 10 -26 -4 -24 -16 4 -35 -75 -19 -80 16 -5
14 -22 -3 -22 -20 0 -31 -57 -16 -75 10 -12 9 -15 -3 -15 -9 0 -17 -14 -22
-36 -3 -20 -13 -43 -21 -51 -8 -8 -14 -27 -14 -42 0 -37 -6 -41 -41 -29 -29
10 -34 24 -23 66 6 19 11 22 40 16 30 -6 34 -4 39 22 4 16 8 35 10 41 4 13
-53 49 -62 40 -2 -3 -7 -24 -10 -46 -3 -23 -10 -41 -15 -41 -5 0 -6 19 -2 46
5 34 3 48 -7 55 -30 19 -48 9 -59 -31 -14 -54 -24 -51 -16 4 6 38 4 46 -13 55
-33 18 -40 13 -47 -29 -4 -22 -11 -40 -16 -40 -9 0 -7 23 8 71 3 12 -5 20 -26
28 -28 9 -32 8 -40 -15 -6 -14 -10 -32 -10 -40 0 -8 -5 -14 -11 -14 -6 0 -8 9
-3 22 3 12 8 34 9 48 1 14 5 32 9 40 3 8 7 29 9 45 2 17 7 37 11 44 5 7 10 33
11 57 2 25 8 51 15 59 6 7 12 34 13 59 1 25 5 46 8 46 7 0 30 84 27 97 0 5 4
22 11 38 7 17 14 46 16 65 1 19 8 49 15 65 7 17 13 49 14 72 0 24 4 43 8 43 7
0 30 92 27 111 -1 8 6 32 15 53 10 21 18 57 19 80 1 23 6 44 10 47 12 8 39
131 34 151 -3 9 -1 18 4 20 12 4 49 157 42 175 -3 7 -1 13 4 13 8 0 44 128 47
170 1 8 7 31 13 50 12 40 35 138 37 166 2 11 7 30 13 44 5 14 18 66 27 115 10
50 22 99 26 110 7 17 59 233 105 435 7 30 25 107 40 170 14 63 28 124 29 135
1 11 5 27 9 35 13 30 57 231 57 258 0 16 2 31 5 34 3 2 47 -6 98 -19 50 -14
102 -25 115 -25z m-1213 -2164 c-8 -54 -15 -122 -15 -150 0 -55 23 -143 48
-183 46 -75 133 -141 187 -141 14 0 25 -5 25 -11 0 -16 -77 -2 -130 25 -54 26
-113 101 -136 170 -13 37 -15 73 -12 155 5 92 34 249 44 238 2 -2 -3 -48 -11
-103z m976 -599 c39 -198 71 -367 72 -375 2 -12 -11 -16 -58 -18 -68 -2 -122
22 -158 70 -27 36 -25 86 11 263 30 145 29 172 -8 182 -16 4 -16 8 0 81 10 42
26 117 36 166 l19 89 8 -49 c4 -27 40 -211 78 -409z m-796 10 c17 -9 45 -29
60 -45 l27 -28 -26 -111 c-30 -130 -31 -149 -11 -179 22 -31 4 -102 -24 -95
-10 3 -30 -1 -42 -8 -13 -7 -37 -13 -54 -13 -25 -1 -30 -5 -30 -26 0 -16 8
-28 22 -35 12 -5 24 -22 27 -37 3 -17 16 -33 31 -40 19 -9 25 -17 22 -32 -3
-12 -15 -64 -27 -117 -20 -92 -22 -96 -45 -91 -14 2 -36 -3 -49 -11 -13 -9
-33 -13 -44 -10 -27 7 -49 -31 -31 -53 6 -8 20 -14 30 -14 14 0 19 -7 19 -27
0 -15 9 -37 21 -49 19 -20 19 -27 9 -85 -18 -106 -19 -109 -41 -109 -11 0 -30
-5 -42 -12 -12 -7 -32 -11 -44 -9 -30 3 -49 -32 -27 -53 8 -9 22 -16 30 -16 8
0 14 -10 14 -22 0 -12 10 -32 21 -44 20 -22 21 -27 9 -88 -12 -63 -13 -64 -37
-55 -33 12 -59 -3 -66 -41 -8 -38 -21 -38 -78 5 -33 23 -56 51 -75 92 -25 50
-28 70 -28 148 0 136 38 239 162 436 158 251 208 408 219 692 5 125 9 152 25
173 23 28 29 29 73 9z m1185 -135 c32 -17 69 -92 81 -167 11 -59 10 -83 -3
-149 -9 -44 -23 -95 -32 -114 -9 -19 -14 -27 -11 -17 2 9 11 58 20 107 23 133
1 238 -66 315 -31 34 -26 45 11 25z m-36 -115 c59 -124 1 -328 -160 -562 -78
-114 -128 -216 -149 -305 -19 -80 -19 -278 0 -378 56 -292 58 -314 59 -505 1
-168 -1 -195 -18 -233 -20 -44 -57 -72 -95 -72 -32 0 -94 68 -153 170 -71 121
-139 211 -191 254 -45 37 -145 90 -189 101 -24 6 -26 11 -25 48 2 38 -1 43
-33 59 -19 9 -39 18 -43 20 -5 2 -6 25 -2 51 6 37 11 47 23 42 8 -3 25 2 39
10 18 12 28 13 44 4 17 -9 25 -8 36 4 18 17 9 57 -13 57 -8 0 -14 9 -14 21 0
12 -13 33 -29 48 l-30 28 19 89 c11 49 22 99 25 112 4 15 13 22 29 22 12 0 31
9 41 20 12 14 25 18 42 14 48 -12 72 38 28 58 -14 6 -25 17 -25 24 0 7 -14 24
-31 39 l-32 26 27 113 c25 106 28 113 50 109 15 -3 30 4 46 20 19 20 27 23 42
14 14 -9 21 -8 34 5 20 20 10 58 -16 58 -11 0 -20 10 -24 26 -4 14 -20 33 -36
42 -30 17 -30 22 -13 85 2 10 14 17 27 17 27 0 46 18 46 43 0 15 6 12 33 -16
65 -69 177 -104 277 -85 140 26 248 124 301 275 13 34 26 63 30 63 4 0 14 -16
23 -35z m-494 -196 c14 -7 54 -21 90 -31 l65 -18 -62 5 c-75 6 -124 25 -158
61 -35 38 -31 50 8 21 17 -14 43 -30 57 -38z m-517 32 c9 -9 -3 -71 -14 -71
-4 0 -19 4 -33 9 -24 10 -26 19 -10 69 4 13 39 9 57 -7z m70 -24 c13 -9 16
-20 11 -45 -6 -27 -10 -32 -28 -26 -40 12 -43 17 -34 52 9 34 24 40 51 19z
m85 -26 c12 -7 9 -48 -5 -73 -5 -10 -53 13 -53 26 1 48 26 68 58 47z m-248
-85 c0 -8 -5 -18 -11 -22 -14 -8 -33 11 -25 25 10 16 36 13 36 -3z m87 -21 c7
-20 -2 -29 -21 -22 -9 4 -13 13 -10 22 8 19 23 19 31 0z m83 -29 c0 -8 -5 -18
-11 -22 -14 -8 -33 11 -25 25 10 16 36 13 36 -3z m78 -33 c-4 -22 -22 -20 -26
1 -2 10 3 16 13 16 10 0 15 -7 13 -17z m-206 -36 c0 -8 -40 -193 -47 -214 -3
-9 -12 -10 -35 -1 -25 8 -31 15 -27 32 3 11 15 65 27 118 l22 97 29 -12 c17
-7 31 -15 31 -20z m298 19 c0 -20 -19 -31 -32 -18 -6 6 -7 15 -4 21 10 16 36
13 36 -3z m-220 -47 c0 -11 -29 -148 -40 -191 -10 -35 -11 -36 -40 -25 -20 7
-28 17 -25 27 2 8 14 57 25 109 11 52 23 98 26 102 5 9 54 -10 54 -22z m55
-11 c14 -6 25 -19 25 -28 0 -19 -40 -203 -45 -208 -2 -2 -18 -1 -35 3 -22 5
-29 11 -26 23 6 21 46 210 46 217 0 7 6 6 35 -7z m84 -29 c24 -9 31 -16 28
-30 -3 -10 -15 -63 -28 -117 l-22 -100 -29 10 c-15 6 -28 15 -28 21 0 13 43
227 46 227 0 0 16 -5 33 -11z m-354 -220 c0 -7 -8 -15 -17 -17 -18 -3 -25 18
-11 32 10 10 28 1 28 -15z m80 -9 c10 -16 -16 -43 -28 -31 -11 11 -2 41 12 41
5 0 13 -5 16 -10z m85 -50 c0 -21 -24 -28 -35 -10 -8 14 3 30 21 30 8 0 14 -9
14 -20z m848 -55 c-28 -97 -28 -256 0 -390 43 -208 55 -325 56 -515 0 -150 -3
-194 -17 -230 -9 -25 -14 -34 -11 -20 3 14 8 84 11 155 6 146 -9 280 -56 521
-39 197 -45 264 -32 358 9 66 57 204 67 194 1 -2 -7 -35 -18 -73z m-768 25 c0
-11 -7 -20 -15 -20 -8 0 -15 9 -15 20 0 11 7 20 15 20 8 0 15 -9 15 -20z
m-241 -11 c19 -7 30 -16 27 -24 -2 -7 -12 -49 -22 -93 l-17 -81 -29 15 c-23
12 -29 20 -24 37 2 12 10 52 16 90 7 37 13 67 15 67 1 0 16 -5 34 -11z m319
-16 c-5 -25 -28 -28 -28 -4 0 12 6 21 16 21 9 0 14 -7 12 -17z m-233 -15 c14
-6 25 -15 25 -19 0 -22 -43 -189 -48 -189 -4 0 -18 9 -31 19 l-24 19 17 83
c24 110 21 106 61 87z m99 -38 c8 -8 -20 -177 -34 -199 -5 -9 -14 -9 -34 0
-31 14 -31 13 1 152 13 62 17 67 36 61 12 -3 26 -10 31 -14z m65 -21 c17 -6
31 -14 31 -17 0 -4 -9 -45 -20 -92 -11 -47 -22 -95 -25 -108 -6 -24 -1 -25
-63 14 -3 2 40 214 43 214 1 0 16 -5 34 -11z m-343 -160 c10 -17 -13 -36 -27
-22 -12 12 -4 33 11 33 5 0 12 -5 16 -11z m89 -50 c0 -7 -8 -15 -17 -17 -18
-3 -25 18 -11 32 10 10 28 1 28 -15z m79 -27 c8 -13 -11 -35 -23 -28 -16 10
-14 36 3 36 8 0 17 -4 20 -8z m-150 -35 c16 -12 17 -19 6 -74 l-12 -61 -30 10
c-27 10 -29 14 -23 42 3 17 9 46 12 64 6 34 19 40 47 19z m230 -5 c8 -13 -11
-35 -23 -28 -16 10 -14 36 3 36 8 0 17 -4 20 -8z m-139 -89 c-10 -70 -12 -72
-46 -60 -33 13 -33 16 -18 86 l11 51 30 -16 c29 -15 30 -18 23 -61z m212 52
c7 -20 -2 -29 -21 -22 -9 4 -13 13 -10 22 8 19 23 19 31 0z m954 -221 c35
-185 70 -347 126 -592 l16 -73 -78 -79 c-56 -56 -82 -76 -87 -67 -4 7 -12 51
-19 98 -11 78 -10 90 11 169 34 129 39 376 11 568 -12 79 -24 155 -27 170 -4
15 -4 24 0 21 4 -4 25 -101 47 -215z m-1100 185 c18 -9 20 -17 14 -62 -4 -29
-9 -53 -10 -55 -2 -2 -17 4 -35 13 -19 10 -30 22 -26 30 2 7 8 30 12 49 7 38
14 42 45 25z m94 -97 c-4 -26 -8 -48 -10 -50 -1 -1 -14 3 -29 9 -27 13 -30 21
-20 81 l6 37 30 -15 c29 -15 30 -18 23 -62z m-358 40 c18 -11 4 -52 -18 -52
-21 0 -36 -20 -21 -29 6 -3 12 -25 14 -49 4 -51 20 -56 32 -10 12 41 10 40 30
32 11 -4 16 -19 16 -50 0 -56 26 -62 36 -8 5 25 11 34 23 32 11 -2 17 -16 19
-51 4 -58 28 -65 38 -11 5 28 10 35 28 32 17 -2 22 -11 24 -50 4 -61 27 -65
37 -7 5 30 11 39 22 35 8 -3 19 -6 25 -6 5 0 8 -20 6 -47 -4 -60 16 -69 33
-13 10 32 16 39 31 34 13 -4 18 0 18 15 0 12 -7 21 -15 21 -9 0 -15 9 -15 25
0 28 5 30 39 11 22 -12 25 -20 22 -66 -2 -39 2 -55 14 -64 15 -11 15 -17 0
-83 -9 -39 -22 -74 -30 -77 -14 -5 -482 147 -497 162 -5 5 -6 17 -2 26 4 10
10 14 13 9 6 -9 381 -143 410 -146 20 -3 38 30 24 44 -16 16 -380 139 -413
139 l-27 0 13 63 c33 148 39 159 71 139z m86 -32 c5 -4 6 -18 2 -30 -6 -18
-12 -20 -33 -15 -35 9 -36 10 -28 40 5 21 11 25 29 19 12 -3 26 -10 30 -14z
m61 -20 c16 -6 26 -17 26 -29 0 -26 -13 -33 -43 -22 -19 8 -23 15 -20 35 6 30
4 29 37 16z m107 -39 c3 -3 3 -15 0 -27 -5 -18 -10 -19 -37 -12 -27 7 -31 12
-26 33 4 21 8 24 31 19 14 -4 29 -9 32 -13z m64 -23 c14 -6 25 -20 25 -31 0
-17 -5 -19 -32 -13 -39 8 -41 10 -33 35 7 25 7 24 40 9z m353 -423 c97 -87
193 -248 207 -345 5 -37 3 -50 -12 -69 -18 -22 -22 -23 -55 -12 -43 14 -160
132 -212 214 -77 120 -94 192 -54 234 34 36 68 30 126 -22z"/>
<path d="M3068 6253 c-15 -65 -30 -126 -33 -134 -4 -12 1 -18 21 -23 14 -4 27
-6 28 -4 4 5 64 263 63 265 -1 1 -13 4 -27 8 -26 6 -26 5 -52 -112z"/>
<path d="M3133 6219 l-30 -131 25 -9 c14 -5 26 -8 27 -7 1 2 16 61 33 133 32
133 31 144 -9 145 -12 0 -23 -31 -46 -131z"/>
<path d="M3235 6327 c-2 -7 -16 -61 -30 -122 -14 -60 -28 -116 -30 -122 -4
-12 41 -31 50 -21 6 5 55 232 55 252 0 17 -40 29 -45 13z"/>
<path d="M3285 6243 c-9 -43 -23 -103 -30 -133 -8 -30 -13 -55 -12 -56 1 -1
14 -5 28 -9 26 -7 26 -6 57 122 17 70 28 131 24 134 -4 4 -17 10 -28 13 -20 6
-23 1 -39 -71z"/>
<path d="M3025 6068 c-15 -42 -54 -231 -50 -239 4 -5 16 -9 28 -9 20 0 25 12
49 122 21 94 25 124 15 130 -18 12 -37 10 -42 -4z"/>
<path d="M3095 6051 c-2 -9 -16 -65 -29 -126 -26 -112 -24 -124 14 -125 11 0
22 32 43 123 15 67 27 125 27 128 0 4 -11 9 -25 11 -17 4 -26 0 -30 -11z"/>
<path d="M3166 6033 c-3 -10 -16 -67 -30 -128 -19 -83 -22 -111 -13 -117 22
-14 41 -3 48 27 51 218 51 218 37 226 -21 14 -36 10 -42 -8z"/>
<path d="M3235 6018 c-2 -7 -16 -64 -30 -127 -21 -92 -23 -116 -13 -122 16
-10 48 -12 48 -2 0 4 12 60 26 126 23 100 25 120 13 128 -20 12 -39 11 -44 -3z"/>
<path d="M2937 5697 c-15 -62 -27 -118 -27 -124 0 -6 11 -13 25 -15 20 -4 27
0 31 16 43 174 51 221 35 228 -33 14 -38 6 -64 -105z"/>
<path d="M3006 5675 c-15 -64 -24 -120 -21 -125 3 -6 17 -10 29 -10 27 0 40
39 29 92 -4 22 -2 34 10 43 22 16 40 97 24 107 -35 22 -43 9 -71 -107z"/>
<path d="M3078 5653 c-27 -120 -26 -137 12 -130 20 3 73 229 57 239 -34 22
-43 8 -69 -109z"/>
<path d="M3147 5633 c-28 -121 -27 -132 14 -133 22 0 76 229 57 241 -36 23
-44 11 -71 -108z"/>
<path d="M2876 5443 c-14 -59 -24 -108 -23 -109 1 -1 14 -5 28 -9 25 -6 26 -5
51 97 14 57 22 106 19 109 -3 4 -16 10 -28 13 -20 6 -23 0 -47 -101z"/>
<path d="M2951 5438 c-11 -51 -21 -101 -21 -110 0 -15 36 -36 45 -26 5 5 56
211 53 214 -2 1 -15 5 -29 9 -26 6 -27 5 -48 -87z"/>
<path d="M3046 5502 c-6 -11 -46 -177 -46 -195 0 -13 39 -32 48 -22 2 2 15 50
28 106 19 81 22 104 12 111 -16 10 -35 10 -42 0z"/>
<path d="M3116 5482 c-8 -13 -49 -202 -45 -207 2 -2 16 -6 32 -10 22 -6 27 -4
27 11 0 11 10 59 21 107 12 48 20 89 18 91 -12 10 -48 16 -53 8z"/>
<path d="M2845 5307 c-10 -26 -45 -183 -45 -198 0 -15 38 -34 48 -24 9 9 52
207 47 214 -8 15 -46 20 -50 8z"/>
<path d="M2891 5184 c-13 -58 -21 -107 -20 -109 2 -2 15 -5 28 -7 20 -2 26 3
32 27 5 16 6 47 2 67 -4 30 -2 38 10 38 9 0 17 13 21 35 8 43 2 55 -27 55 -20
0 -25 -10 -46 -106z"/>
<path d="M2986 5253 c-3 -10 -14 -58 -25 -106 l-19 -88 25 -10 c14 -5 27 -8
28 -7 1 2 13 51 27 110 21 90 22 108 11 113 -26 9 -42 5 -47 -12z"/>
<path d="M3056 5233 c-8 -31 -41 -178 -41 -187 0 -5 12 -13 28 -17 23 -6 28
-4 32 14 41 180 43 192 32 199 -21 13 -45 9 -51 -9z"/>
<path d="M2781 5043 c-14 -53 -35 -146 -36 -157 0 -5 12 -13 27 -17 26 -7 26
-6 47 80 23 95 26 121 12 121 -5 0 -16 3 -25 6 -11 4 -18 -5 -25 -33z"/>
<path d="M2841 4969 c-12 -50 -21 -96 -21 -104 0 -16 50 -27 56 -11 6 18 43
190 41 192 -1 1 -14 4 -29 8 -26 6 -26 5 -47 -85z"/>
<path d="M2934 5026 c-8 -23 -44 -189 -42 -191 2 -1 15 -5 29 -8 25 -6 26 -5
47 91 12 53 22 100 22 103 0 12 -52 17 -56 5z"/>
<path d="M3006 5008 c-3 -7 -12 -47 -21 -88 -9 -41 -18 -82 -21 -91 -3 -12 3
-19 22 -23 14 -4 28 -5 31 -2 9 9 50 191 44 197 -14 15 -51 20 -55 7z"/>
<path d="M2735 4848 c-2 -7 -13 -48 -23 -90 l-19 -77 29 -10 c15 -5 29 -7 32
-3 7 13 40 172 35 176 -14 13 -50 16 -54 4z"/>
<path d="M2792 4753 c-12 -49 -18 -91 -14 -94 4 -4 17 -10 29 -13 18 -6 22 -2
28 26 5 21 4 33 -4 36 -18 6 -13 43 8 49 12 3 21 16 23 35 4 24 0 31 -19 39
-13 5 -26 9 -28 9 -2 0 -12 -39 -23 -87z"/>
<path d="M2864 4729 l-21 -91 25 -9 c14 -5 26 -8 28 -6 9 9 43 172 36 178 -4
4 -16 10 -27 13 -19 6 -23 -2 -41 -85z"/>
<path d="M2937 4713 c-10 -43 -17 -83 -17 -89 0 -10 29 -23 51 -24 10 0 42
159 35 175 -3 8 -16 15 -29 15 -20 0 -25 -8 -40 -77z"/>
<path d="M2681 4623 c-20 -83 -30 -127 -28 -129 1 -1 14 -4 28 -7 26 -7 27 -5
47 73 19 78 19 81 2 90 -31 16 -39 12 -49 -27z"/>
<path d="M2746 4560 c-10 -45 -16 -83 -14 -85 1 -2 15 -6 29 -10 25 -6 26 -5
43 75 10 45 16 83 14 85 -1 2 -15 6 -29 10 -25 6 -26 5 -43 -75z"/>
<path d="M2831 4582 c-6 -21 -13 -50 -16 -67 -4 -16 -9 -37 -11 -46 -3 -12 5
-20 24 -27 l30 -10 17 79 c18 84 16 94 -15 102 -16 4 -22 -2 -29 -31z"/>
<path d="M2905 4577 c-33 -145 -33 -145 -18 -151 41 -16 50 -7 67 65 20 91 21
85 -14 97 -27 10 -30 9 -35 -11z"/>
<path d="M2645 4467 c-11 -32 -36 -140 -33 -142 2 -2 15 -6 30 -10 25 -7 26
-5 42 65 9 39 14 75 11 79 -8 15 -46 20 -50 8z"/>
<path d="M2715 4438 c-3 -7 -11 -41 -19 -75 l-14 -62 29 -10 c34 -12 32 -15
53 79 12 50 13 66 3 72 -19 12 -47 9 -52 -4z"/>
<path d="M2781 4370 c-7 -34 -15 -68 -18 -76 -3 -8 5 -18 22 -24 15 -6 30 -9
32 -7 5 6 34 149 31 152 -2 2 -15 6 -29 10 -25 6 -27 4 -38 -55z"/>
<path d="M2866 4398 c-33 -123 -33 -144 0 -152 15 -4 27 -6 29 -4 5 7 36 150
33 152 -1 2 -15 6 -31 10 -18 4 -29 2 -31 -6z"/>
<path d="M2589 4240 c-14 -73 -14 -74 16 -81 16 -5 25 -2 29 8 10 24 7 33 -9
33 -25 0 -17 40 10 50 28 11 33 35 9 44 -35 13 -43 6 -55 -54z"/>
<path d="M2677 4273 c-8 -13 -31 -123 -26 -127 2 -3 16 -7 30 -11 25 -6 26 -4
42 61 10 37 16 68 14 70 -8 8 -56 14 -60 7z"/>
<path d="M2754 4246 c-8 -22 -32 -121 -30 -123 1 -2 16 -5 32 -9 29 -6 30 -5
42 53 7 33 12 64 12 70 0 15 -51 23 -56 9z"/>
<path d="M2826 4223 c-10 -25 -7 -43 7 -40 7 1 12 -8 12 -23 0 -18 -5 -25 -20
-25 -31 0 -31 -33 1 -45 15 -6 29 -8 32 -6 8 9 33 127 27 135 -9 16 -54 19
-59 4z"/>
<path d="M2565 4138 c-16 -49 -25 -102 -18 -108 4 -4 17 -11 29 -14 19 -6 22
0 34 54 14 66 15 65 -18 74 -14 5 -24 3 -27 -6z"/>
<path d="M2630 4083 c-6 -27 -14 -54 -16 -61 -4 -15 46 -37 56 -25 8 9 33 104
28 108 -6 5 -47 25 -51 25 -2 0 -10 -21 -17 -47z"/>
<path d="M2715 4088 c-21 -64 -26 -101 -13 -109 30 -19 47 -9 58 34 6 23 13
49 16 58 3 11 -3 19 -18 23 -33 8 -38 8 -43 -6z"/>
<path d="M2779 4024 c-12 -52 -11 -58 6 -70 39 -29 47 -19 60 63 6 35 3 43
-14 52 -33 18 -39 13 -52 -45z"/>
<path d="M2521 3954 c-7 -30 -11 -57 -9 -59 2 -2 15 -6 29 -10 24 -6 26 -3 38
47 10 47 10 54 -6 65 -30 22 -40 14 -52 -43z"/>
<path d="M2607 3982 c-3 -4 -7 -24 -11 -45 -4 -21 -9 -44 -12 -52 -3 -7 7 -17
25 -23 30 -11 31 -10 41 31 6 23 13 49 16 58 3 12 -5 20 -25 27 -17 6 -32 8
-34 4z"/>
<path d="M2670 3904 c-7 -30 -10 -57 -8 -59 2 -2 15 -6 30 -10 25 -6 27 -4 39
50 11 48 10 58 -2 66 -33 21 -47 10 -59 -47z"/>
<path d="M2752 3901 c-18 -60 -15 -80 14 -91 14 -6 27 -10 28 -10 2 0 8 25 15
56 13 58 10 67 -25 78 -17 5 -23 0 -32 -33z"/>
<path d="M2491 3824 c-7 -30 -11 -57 -9 -59 2 -2 15 -6 29 -10 25 -6 27 -4 37
47 11 56 9 62 -24 72 -18 6 -22 0 -33 -50z"/>
<path d="M2567 3818 c-4 -18 -9 -42 -12 -54 -5 -15 0 -23 21 -33 22 -10 29
-10 35 1 14 21 10 36 -11 43 -29 9 -25 28 4 21 18 -4 25 -1 29 15 4 15 -1 23
-19 30 -37 14 -41 12 -47 -23z"/>
<path d="M2641 3784 c-16 -62 -14 -71 18 -82 28 -10 28 -10 40 44 14 61 11 70
-23 76 -22 4 -26 0 -35 -38z"/>
<path d="M2726 3789 c-2 -8 -9 -33 -14 -57 -10 -41 -9 -44 15 -53 13 -5 28 -9
33 -9 9 0 36 107 29 114 -2 3 -16 7 -31 11 -19 5 -29 3 -32 -6z"/>
<path d="M2461 3702 c-11 -41 -10 -48 5 -59 29 -21 41 -15 48 23 4 19 9 41 12
49 3 7 -6 17 -24 23 -28 10 -29 9 -41 -36z"/>
<path d="M2536 3684 c-4 -19 -9 -41 -12 -49 -6 -14 52 -39 60 -26 3 4 8 26 12
48 5 35 3 43 -14 52 -32 17 -39 14 -46 -25z"/>
<path d="M2611 3653 c-15 -54 -14 -60 15 -67 33 -9 40 -2 49 50 6 37 4 42 -17
48 -35 9 -36 8 -47 -31z"/>
<path d="M2696 3662 c-9 -16 -18 -102 -10 -102 5 0 19 -3 31 -6 18 -5 23 0 32
33 6 21 11 43 11 50 0 13 -57 35 -64 25z"/>
<path d="M2432 3583 c-6 -26 -10 -49 -9 -50 1 -1 14 -4 29 -8 25 -6 28 -4 38
35 12 45 8 54 -27 64 -19 6 -22 2 -31 -41z"/>
<path d="M2505 3554 c-8 -53 -9 -50 28 -59 23 -6 27 -4 27 14 0 12 -6 21 -14
21 -8 0 -18 5 -22 11 -5 8 1 10 19 7 32 -6 45 27 17 42 -36 19 -47 12 -55 -36z"/>
<path d="M2585 3543 c-3 -19 -8 -40 -11 -47 -6 -15 45 -41 57 -29 4 4 11 27
15 49 6 39 5 42 -24 52 -29 10 -30 9 -37 -25z"/>
<path d="M2661 3506 c-6 -25 -11 -47 -11 -49 0 -4 56 -27 65 -27 1 0 5 15 8
33 3 17 8 39 12 48 4 11 0 18 -12 22 -10 2 -25 8 -34 11 -13 6 -19 -2 -28 -38z"/>
<path d="M2416 3512 c-2 -4 -7 -24 -11 -44 -6 -31 -4 -38 15 -48 27 -15 39 -4
46 41 5 30 3 36 -20 47 -14 6 -27 8 -30 4z"/>
<path d="M2480 3451 c-13 -49 -14 -48 20 -59 29 -11 30 -10 40 29 13 46 9 55
-25 61 -22 5 -26 0 -35 -31z"/>
<path d="M2555 3423 c-5 -29 -3 -40 11 -50 28 -20 43 -16 50 15 3 15 7 33 10
40 3 11 -33 32 -56 32 -4 0 -11 -17 -15 -37z"/>
<path d="M2635 3394 c-7 -41 0 -52 35 -56 20 -3 25 3 31 32 6 27 4 38 -8 48
-31 23 -50 14 -58 -24z"/>
<path d="M2386 3394 c-13 -33 -6 -63 15 -69 25 -8 34 0 43 38 5 23 3 29 -19
37 -33 13 -32 13 -39 -6z"/>
<path d="M2455 3349 c-8 -33 -2 -43 31 -53 34 -10 39 21 6 39 l-27 16 28 -6
c19 -4 27 -1 27 9 0 14 -21 26 -45 26 -7 0 -16 -14 -20 -31z"/>
<path d="M2536 3338 c-11 -43 -6 -56 24 -66 28 -10 30 -10 36 24 7 38 1 48
-32 58 -17 5 -23 1 -28 -16z"/>
<path d="M2616 3314 c-14 -36 -6 -62 20 -68 31 -8 39 -2 48 35 4 21 1 28 -20
37 -33 16 -41 15 -48 -4z"/>
<path d="M2870 2285 c-15 -18 -10 -45 13 -59 15 -9 21 -7 33 8 18 25 18 31 -2
50 -19 20 -28 20 -44 1z"/>
<path d="M2951 2123 c19 -32 36 -76 39 -98 4 -35 8 -40 30 -40 34 0 41 48 10
67 -12 7 -37 39 -56 71 -46 74 -65 74 -23 0z"/>
<path d="M2612 2100 c-19 -12 -40 -37 -49 -58 -14 -34 -14 -39 3 -71 47 -86
187 -54 201 45 4 33 1 45 -22 72 -32 39 -82 43 -133 12z m88 -81 c0 -30 -17
-31 -22 -1 -3 15 -8 36 -12 47 -7 17 -5 17 13 -4 12 -13 21 -31 21 -42z"/>
<path d="M2842 1879 c-63 -19 -98 -132 -53 -173 50 -46 148 -24 178 38 18 40
12 74 -20 110 -26 30 -60 38 -105 25z m68 -104 c0 -8 -4 -17 -10 -20 -5 -3
-10 1 -10 10 0 9 -7 30 -16 48 l-15 32 25 -28 c15 -15 26 -34 26 -42z"/>
<path d="M2944 1586 c-28 -28 -34 -41 -34 -78 0 -50 16 -71 68 -89 48 -17 116
17 132 66 22 66 -28 135 -97 135 -26 0 -43 -8 -69 -34z m96 -51 c10 -19 10
-30 2 -47 -10 -23 -11 -23 -11 5 -1 15 -8 39 -17 53 -14 20 -14 23 -2 19 9 -3
21 -17 28 -30z"/>
<path d="M2681 1401 l-44 -38 22 -36 c27 -44 132 -142 160 -150 57 -15 40 65
-40 188 -27 41 -50 75 -51 75 -2 0 -23 -18 -47 -39z"/>
</g>
</svg>
