<?xml version="1.0" standalone="no"?>
<!DOCTYPE svg PUBLIC "-//W3C//DTD SVG 20010904//EN"
 "http://www.w3.org/TR/2001/REC-SVG-20010904/DTD/svg10.dtd">
<svg version="1.0" xmlns="http://www.w3.org/2000/svg"
 width="616.527675pt" height="329.500000pt" viewBox="0 0 616.527675 329.500000"
 preserveAspectRatio="xMidYMid meet">
<metadata>Created by Svg.la</metadata>
<g transform="translate(-91.500000,431.000000) scale(0.100000,-0.100000)"
fill="#000000" stroke="none">
<path d="M1142 4289 c-75 -29 -162 -113 -198 -191 l-29 -63 0 -1370 0 -1370
27 -57 c37 -80 107 -152 187 -191 l66 -32 2805 0 2805 0 57 27 c76 35 151 107
185 177 l28 56 3 1377 2 1377 -21 58 c-30 80 -122 171 -202 201 l-58 22 -2802
-1 c-2791 0 -2802 0 -2855 -20z m5668 -215 c64 -55 60 47 60 -1411 0 -1275 -1
-1330 -19 -1363 -11 -20 -36 -44 -61 -57 l-43 -23 -2756 2 -2756 3 -35 22
c-75 47 -69 -75 -71 1416 -1 1313 -1 1337 18 1368 11 17 33 39 49 50 28 18 90
19 2806 19 l2776 0 32 -26z"/>
<path d="M1993 3636 c-114 -37 -200 -132 -288 -319 -148 -318 -184 -684 -100
-1027 27 -113 60 -198 128 -335 57 -114 142 -211 222 -254 l50 -26 640 0 c609
0 642 1 675 19 231 125 408 598 387 1036 -21 431 -176 789 -386 892 l-46 23
-620 2 c-491 2 -629 -1 -662 -11z m1265 -160 c104 -55 223 -297 269 -546 21
-120 24 -411 4 -520 -31 -173 -124 -408 -196 -496 -64 -78 -30 -74 -700 -74
-504 0 -600 2 -624 15 -98 50 -206 266 -263 523 -32 141 -32 435 -1 574 55
243 155 448 251 513 l37 25 598 0 c496 0 603 -2 625 -14z"/>
<path d="M2203 3198 c-12 -6 -27 -24 -32 -41 -15 -40 -14 -504 0 -545 12 -35
49 -52 111 -52 44 0 93 22 102 45 3 9 6 138 6 286 l0 270 -26 24 c-22 21 -37
25 -83 24 -31 0 -66 -5 -78 -11z"/>
<path d="M2915 3185 l-25 -24 0 -274 c0 -327 -3 -318 102 -325 58 -4 68 -1 94
21 l29 25 0 264 c0 144 -3 275 -7 289 -10 33 -46 49 -114 49 -45 0 -59 -4 -79
-25z"/>
<path d="M2552 2384 c-65 -33 -77 -63 -80 -213 -3 -103 -1 -136 10 -142 7 -5
79 -9 159 -9 117 0 149 3 159 15 8 10 11 51 9 139 -4 135 -11 155 -72 200 -37
28 -139 33 -185 10z"/>
<path d="M4695 3633 c-65 -20 -173 -128 -233 -235 -57 -100 -115 -267 -144
-410 -19 -97 -23 -143 -22 -323 0 -180 3 -225 22 -315 63 -289 192 -545 317
-628 26 -17 70 -36 99 -42 35 -7 253 -10 662 -8 l609 3 43 23 c163 87 307 355
369 685 24 131 24 446 -1 576 -50 270 -184 539 -313 632 -84 60 -78 59 -747
58 -519 0 -619 -3 -661 -16z m1278 -157 c100 -41 226 -281 279 -529 28 -133
30 -395 4 -532 -52 -271 -156 -498 -255 -553 -39 -22 -39 -22 -635 -22 -484 0
-603 3 -630 14 -87 36 -200 257 -258 505 -14 62 -21 138 -25 271 -5 162 -3
199 16 297 36 191 107 370 189 478 68 90 27 85 695 85 474 0 594 -3 620 -14z"/>
<path d="M4919 3191 c-24 -19 -24 -19 -27 -288 -2 -147 0 -278 3 -290 8 -32
55 -53 117 -53 62 1 85 15 98 61 6 19 10 137 10 264 0 236 -6 287 -37 311 -28
21 -136 18 -164 -5z"/>
<path d="M5660 3203 c-8 -3 -23 -12 -32 -21 -16 -14 -18 -41 -18 -297 0 -336
-6 -320 116 -320 114 0 108 -14 112 297 2 144 1 272 -3 285 -11 46 -40 63
-102 62 -32 0 -65 -3 -73 -6z"/>
<path d="M5280 2382 c-69 -38 -88 -91 -89 -249 -1 -115 -4 -113 179 -113 183
0 175 -7 168 155 -6 124 -19 160 -70 196 -45 32 -139 38 -188 11z"/>
</g>
</svg>
