<?xml version="1.0" standalone="no"?>
<!DOCTYPE svg PUBLIC "-//W3C//DTD SVG 20010904//EN"
 "http://www.w3.org/TR/2001/REC-SVG-20010904/DTD/svg10.dtd">
<svg version="1.0" xmlns="http://www.w3.org/2000/svg"
 width="719.842153pt" height="217.740890pt" viewBox="0 0 719.842153 217.740890"
 preserveAspectRatio="xMidYMid meet">
<metadata>Created by Svg.la</metadata>
<g transform="translate(-35.000000,313.728881) scale(0.100000,-0.100000)"
fill="#000000" stroke="none">
<path d="M645 3126 c-103 -33 -199 -114 -248 -212 -46 -91 -47 -114 -47 -867
0 -612 2 -721 16 -772 30 -119 115 -225 223 -278 l66 -32 3275 -3 3275 -2 63
21 c108 36 203 129 254 249 l23 55 3 728 c2 456 -1 749 -7 783 -25 133 -130
268 -246 315 l-60 24 -3275 2 c-2626 1 -3283 -1 -3315 -11z m6598 -259 c76
-58 72 -8 75 -805 2 -683 2 -715 -17 -756 -10 -24 -36 -56 -57 -72 l-37 -29
-3241 -3 c-1783 -1 -3251 0 -3263 3 -34 8 -84 56 -104 100 -17 38 -19 82 -19
745 0 663 2 707 19 745 20 44 41 66 86 89 27 14 347 16 3276 13 l3246 -2 36
-28z"/>
<path d="M1400 2690 c-330 -6 -321 -4 -407 -83 -123 -114 -221 -311 -238 -482
-14 -143 33 -333 111 -452 51 -77 163 -185 222 -214 46 -24 51 -24 377 -24
389 0 379 -2 497 117 288 290 277 773 -26 1055 -95 89 -101 90 -536 83z m380
-130 c60 -16 146 -112 204 -227 40 -80 57 -157 57 -265 0 -188 -46 -304 -172
-430 l-77 -78 -306 0 c-358 0 -342 -4 -448 109 -111 117 -158 238 -158 405 0
138 47 260 146 380 60 72 89 95 137 106 48 12 576 11 617 0z"/>
<path d="M1166 2362 c-8 -14 -19 -287 -13 -315 6 -20 15 -26 53 -32 34 -5 52
-2 70 10 l24 16 -2 162 -3 162 -62 3 c-34 2 -64 -1 -67 -6z"/>
<path d="M1647 2362 c-3 -4 -9 -80 -13 -168 -8 -188 -5 -194 76 -194 74 0 80
11 79 143 -1 62 -4 137 -7 167 l-7 55 -62 3 c-34 2 -64 -1 -66 -6z"/>
<path d="M1388 1855 c-45 -31 -70 -92 -66 -161 l3 -49 140 0 140 0 0 77 c0 68
-3 79 -25 103 -56 61 -130 72 -192 30z"/>
<path d="M2959 2690 l-306 -5 -42 -28 c-94 -63 -189 -183 -242 -308 -126 -296
-43 -634 206 -839 95 -79 113 -82 477 -78 368 4 353 0 478 127 131 132 200
301 200 485 -1 226 -69 401 -210 546 -72 73 -119 96 -205 102 -27 2 -188 1
-356 -2z m384 -131 c97 -27 223 -221 253 -389 12 -68 13 -103 4 -174 -20 -163
-70 -265 -183 -372 l-67 -64 -306 0 c-357 0 -340 -4 -448 111 -145 153 -192
351 -135 564 35 127 183 317 257 328 62 9 589 6 625 -4z"/>
<path d="M2726 2362 c-3 -5 -9 -80 -12 -165 -8 -182 -7 -187 67 -187 75 0 80
14 77 201 l-3 154 -62 3 c-34 2 -64 -1 -67 -6z"/>
<path d="M3207 2362 c-11 -17 -18 -327 -9 -341 6 -8 33 -16 64 -19 84 -7 88 1
87 166 -1 75 -4 151 -8 167 -6 29 -8 30 -68 33 -34 2 -64 -1 -66 -6z"/>
<path d="M2953 1860 c-48 -29 -75 -89 -71 -158 l3 -57 137 -3 c123 -2 138 -1
146 15 13 26 -1 125 -21 157 -42 63 -132 85 -194 46z"/>
<path d="M4525 2690 c-352 -6 -338 -2 -454 -126 -51 -55 -84 -102 -116 -168
-64 -130 -80 -198 -79 -336 2 -138 26 -241 80 -338 47 -83 183 -226 249 -261
l50 -26 305 -3 c205 -2 322 0 357 8 110 24 256 175 321 332 32 77 62 218 62
292 0 76 -30 215 -64 296 -61 144 -178 281 -266 313 -61 21 -99 23 -445 17z
m402 -141 c89 -43 199 -215 228 -357 19 -91 19 -134 1 -244 -20 -124 -62 -204
-161 -305 l-81 -83 -310 0 -311 0 -46 31 c-110 73 -214 228 -236 353 -34 189
11 359 133 508 57 69 94 97 141 109 16 4 158 7 314 8 271 1 287 0 328 -20z"/>
<path d="M4286 2358 c-3 -7 -7 -81 -10 -165 -6 -175 -3 -183 68 -183 70 0 73
5 80 179 4 108 3 158 -5 167 -15 18 -128 19 -133 2z"/>
<path d="M4766 2358 c-3 -7 -7 -82 -10 -165 -6 -144 -5 -154 14 -173 22 -22
87 -27 121 -10 18 10 19 23 19 173 0 114 -4 167 -12 175 -16 16 -127 16 -132
0z"/>
<path d="M4535 1870 c-30 -12 -71 -61 -84 -99 -14 -44 -14 -104 1 -119 19 -19
262 -16 278 3 18 21 4 122 -23 162 -36 53 -115 77 -172 53z"/>
<path d="M6085 2690 c-352 -6 -338 -2 -452 -124 -204 -219 -257 -545 -131
-813 52 -112 171 -243 268 -294 45 -24 46 -24 375 -24 391 0 381 -2 500 118
198 202 261 489 166 763 -35 103 -77 174 -153 258 -68 76 -136 112 -218 118
-30 1 -190 1 -355 -2z m424 -153 c23 -15 64 -58 91 -95 100 -137 142 -298 120
-462 -21 -150 -78 -260 -189 -362 l-62 -58 -305 0 c-348 0 -330 -4 -427 88
-109 104 -164 226 -174 379 -10 152 28 274 122 400 61 80 110 122 158 134 17
4 165 7 328 6 l296 -2 42 -28z"/>
<path d="M5847 2363 c-3 -5 -8 -79 -12 -165 -9 -183 -7 -188 64 -188 77 0 78
3 83 182 3 101 1 161 -6 168 -11 11 -122 14 -129 3z"/>
<path d="M6326 2362 c-2 -4 -6 -81 -8 -170 -3 -185 -1 -192 75 -192 77 0 77 0
77 183 0 114 -4 167 -12 175 -13 13 -124 17 -132 4z"/>
<path d="M6076 1861 c-15 -10 -36 -31 -47 -47 -23 -36 -35 -124 -19 -153 11
-21 17 -21 148 -19 l137 3 -1 60 c0 36 -8 76 -19 98 -32 69 -136 99 -199 58z"/>
</g>
</svg>
