<?xml version="1.0" standalone="no"?>
<!DOCTYPE svg PUBLIC "-//W3C//DTD SVG 20010904//EN"
 "http://www.w3.org/TR/2001/REC-SVG-20010904/DTD/svg10.dtd">
<svg version="1.0" xmlns="http://www.w3.org/2000/svg"
 width="465.500000pt" height="496.045838pt" viewBox="0 0 465.500000 496.045838"
 preserveAspectRatio="xMidYMid meet">
<metadata>Created by Svg.la</metadata>
<g transform="translate(-202.500000,662.000000) scale(0.100000,-0.100000)"
fill="#000000" stroke="none">
<path d="M2165 6601 c-50 -22 -108 -86 -126 -137 -12 -33 -14 -412 -14 -2309
0 -2188 1 -2272 19 -2323 22 -64 64 -115 120 -145 l41 -22 808 -3 807 -2 25
24 c24 24 25 30 25 156 0 126 -1 132 -25 155 l-24 25 -691 0 -692 0 -29 29
-29 29 0 2067 0 2067 29 29 29 29 1004 0 c768 0 1007 -3 1016 -12 9 -9 12
-135 12 -508 0 -293 4 -509 10 -529 11 -39 51 -86 92 -107 22 -11 116 -14 523
-14 323 0 503 -4 516 -10 19 -10 19 -30 19 -788 0 -688 2 -780 16 -800 14 -21
22 -22 163 -22 114 0 151 3 160 14 8 10 11 250 9 907 l-3 894 -30 57 c-24 46
-148 176 -610 641 -549 553 -583 585 -638 606 l-58 21 -1217 0 c-1156 0 -1219
-1 -1257 -19z"/>
<path d="M3540 5333 c-8 -3 -25 -15 -37 -26 -23 -20 -23 -25 -23 -238 0 -166
-3 -219 -13 -227 -9 -8 -131 -12 -364 -14 l-351 -3 -26 -24 -26 -24 0 -391 c1
-292 4 -395 13 -407 28 -37 50 -39 374 -39 283 0 322 -2 353 -18 l35 -17 5
-217 c6 -243 6 -245 77 -255 26 -3 50 0 69 10 16 9 226 213 467 454 421 423
437 440 437 476 0 21 -6 50 -14 65 -20 39 -878 880 -910 892 -29 11 -43 11
-66 3z"/>
<path d="M4134 3281 c-18 -11 -45 -36 -60 -57 l-29 -37 0 -702 0 -701 27 -41
c16 -24 44 -49 70 -62 l44 -21 1175 0 c1120 0 1176 1 1214 19 46 21 79 54 94
94 8 19 11 251 11 709 0 672 0 682 -21 725 -14 29 -35 52 -63 68 l-43 25
-1194 0 c-1158 0 -1195 -1 -1225 -19z m675 -367 c67 -20 134 -80 158 -142 13
-35 18 -75 18 -152 0 -124 -20 -177 -88 -235 -49 -42 -94 -56 -202 -64 l-80
-6 -3 -124 c-1 -71 -7 -130 -14 -138 -16 -20 -142 -18 -162 3 -14 13 -16 67
-16 433 0 311 3 420 12 429 19 19 311 16 377 -4z m647 2 c150 -40 234 -167
248 -376 16 -248 -40 -395 -179 -468 -47 -25 -59 -27 -218 -30 -121 -3 -172 0
-182 8 -13 11 -15 77 -15 434 0 315 3 425 12 434 17 17 268 16 334 -2z m854
-5 c14 -27 13 -124 -2 -139 -8 -8 -51 -12 -128 -12 -77 0 -120 -4 -128 -12 -7
-7 -12 -43 -12 -93 0 -50 5 -86 12 -93 8 -8 47 -12 110 -12 113 0 112 1 106
-105 l-3 -60 -102 -3 c-67 -2 -105 -7 -112 -16 -6 -7 -12 -76 -13 -167 l-3
-154 -78 -3 c-50 -2 -84 1 -93 9 -19 16 -21 848 -2 867 9 9 73 12 225 12 200
0 213 -1 223 -19z"/>
<path d="M4613 2746 c-4 -8 -6 -68 -3 -133 l5 -118 53 -3 c49 -3 55 -1 89 33
l35 35 -3 79 c-5 105 -19 121 -105 121 -44 0 -65 -4 -71 -14z"/>
<path d="M5297 2753 c-4 -3 -7 -125 -7 -270 l0 -263 65 0 c58 0 68 3 100 31
49 44 58 82 53 249 -3 162 -14 195 -78 237 -32 22 -117 32 -133 16z"/>
</g>
</svg>
