<?xml version="1.0" standalone="no"?>
<!DOCTYPE svg PUBLIC "-//W3C//DTD SVG 20010904//EN"
 "http://www.w3.org/TR/2001/REC-SVG-20010904/DTD/svg10.dtd">
<svg version="1.0" xmlns="http://www.w3.org/2000/svg"
 width="259.839089pt" height="547.863249pt" viewBox="0 0 259.839089 547.863249"
 preserveAspectRatio="xMidYMid meet">
<metadata>Created by Svg.la</metadata>
<g transform="translate(-45.121085,570.863249) scale(0.100000,-0.100000)"
fill="#000000" stroke="none">
<path d="M2237 5696 c-141 -51 -215 -168 -266 -421 -17 -82 -47 -217 -69 -300
l-39 -150 -56 -14 -56 -13 -33 32 -32 33 -89 -7 c-55 -4 -101 -14 -120 -24
-54 -31 -65 -38 -82 -52 -9 -8 -24 -15 -33 -16 -9 -2 -23 -11 -32 -22 -8 -11
-43 -26 -78 -35 l-62 -15 -31 39 c-29 37 -64 50 -83 32 -4 -4 -32 -9 -62 -10
-59 -2 -88 -18 -157 -84 -30 -28 -56 -41 -120 -58 -45 -12 -87 -21 -94 -21 -7
0 -16 -6 -20 -14 -9 -15 -74 -36 -114 -36 -51 0 -72 -51 -48 -119 19 -53 30
-54 229 -16 100 19 183 35 185 35 2 0 57 -109 123 -242 66 -134 140 -270 165
-304 55 -75 117 -110 178 -100 87 14 190 77 307 190 33 32 49 40 72 38 24 -3
34 4 59 38 28 39 30 41 35 18 18 -87 22 -382 7 -503 -6 -44 -30 -175 -53 -292
-41 -201 -42 -213 -25 -225 17 -13 17 -21 -4 -183 -34 -263 -31 -543 13 -1185
13 -194 4 -568 -18 -780 l-15 -145 -62 -59 c-34 -32 -99 -87 -144 -123 -88
-71 -111 -105 -96 -150 12 -35 52 -55 120 -61 63 -5 120 7 233 53 47 18 127
41 177 51 73 13 98 22 119 43 l27 26 -6 135 c-5 120 -2 160 28 360 30 207 34
250 38 535 5 254 9 328 26 410 10 55 22 120 26 145 22 148 92 473 121 559 10
30 26 -9 50 -120 41 -190 72 -366 94 -539 12 -91 28 -196 36 -235 9 -41 18
-137 20 -230 2 -88 11 -216 19 -285 28 -221 37 -389 27 -485 -8 -77 -7 -92 6
-102 14 -11 13 -24 -3 -127 -23 -150 -18 -222 19 -271 34 -44 79 -65 141 -65
88 0 153 49 176 133 13 50 6 167 -16 247 -8 30 -15 84 -15 120 1 69 3 91 45
375 24 163 26 198 21 365 -3 102 -11 214 -17 250 -25 152 -28 299 -9 445 45
344 52 446 48 657 -3 114 -1 211 3 215 5 5 -5 69 -22 143 -100 455 -102 473
-69 716 11 82 20 152 20 157 0 4 6 7 14 7 15 0 32 39 93 215 27 78 36 122 40
197 5 91 4 101 -21 152 -29 58 -91 109 -186 151 -65 28 -77 55 -24 55 40 0 67
36 61 82 -7 54 -22 68 -73 68 l-44 0 0 113 c-1 237 -29 379 -95 469 -51 69
-95 98 -193 124 -98 27 -178 30 -235 10z m349 -251 c58 -60 74 -117 74 -264
-1 -122 -20 -207 -50 -222 -8 -4 -98 -21 -199 -38 -146 -25 -186 -29 -192 -19
-5 7 -16 46 -25 85 -17 70 -19 73 -51 79 -40 7 -47 19 -64 102 -12 55 -11 64
3 78 15 15 19 15 56 -6 l39 -22 93 47 c99 52 194 131 225 189 11 20 26 36 34
36 8 0 34 -20 57 -45z m232 -542 c-2 -13 -33 -21 -143 -39 -162 -27 -196 -34
-405 -79 -191 -41 -420 -85 -442 -85 -14 0 -34 28 -25 36 3 3 349 75 556 115
119 23 392 66 434 68 22 1 28 -3 25 -16z m-1106 -151 c25 -27 49 -63 52 -80 4
-17 14 -36 22 -43 8 -6 21 -35 29 -63 9 -28 23 -60 33 -71 43 -52 292 -199
482 -286 70 -31 147 -67 171 -78 23 -12 49 -21 56 -21 16 0 17 24 2 52 -10 18
-5 26 32 64 l44 44 53 -25 c52 -24 182 -112 182 -122 0 -15 -119 -162 -174
-215 -109 -106 -156 -110 -302 -26 -100 57 -359 242 -507 363 -54 44 -123 96
-154 114 -30 19 -71 55 -91 80 -58 75 -123 140 -180 183 -29 21 -50 43 -47 48
6 9 107 -37 158 -72 21 -15 27 -16 27 -5 0 27 -38 62 -104 97 -63 34 -85 60
-48 60 9 0 55 -21 102 -45 46 -24 86 -43 88 -41 12 12 -40 62 -85 82 -29 13
-53 28 -53 34 0 15 61 12 90 -5 36 -20 46 -18 25 5 -18 20 -17 20 17 20 29 0
43 -8 80 -48z m878 18 c9 -17 4 -24 -37 -55 -81 -59 -131 -79 -210 -83 -49 -3
-87 1 -121 12 -54 18 -80 40 -63 51 11 6 385 93 408 94 7 1 17 -8 23 -19z
m-1475 -90 c-3 -6 -10 -10 -16 -10 -10 0 -12 33 -2 44 9 9 26 -22 18 -34z
m-55 5 c15 -18 12 -23 -18 -28 -12 -2 -25 -6 -28 -10 -4 -4 -28 -7 -52 -7 -44
0 -45 0 -27 20 22 25 34 25 51 3 7 -10 16 -15 20 -10 4 4 2 13 -4 19 -7 7 -12
16 -12 20 0 14 57 8 70 -7z m334 -54 c17 -18 15 -19 -56 -34 -196 -43 -716
-143 -768 -149 -29 -4 -40 26 -13 36 10 4 112 25 228 47 116 22 291 57 390 78
99 22 185 40 191 40 6 1 19 -7 28 -18z m-503 -34 c-13 -13 -26 -3 -16 12 3 6
11 8 17 5 6 -4 6 -10 -1 -17z m1758 -161 c-46 -89 -75 -134 -81 -128 -6 6 5
39 32 93 41 80 108 184 116 176 2 -2 -28 -65 -67 -141z m-1140 70 c28 -30 51
-59 51 -63 0 -23 -183 -253 -201 -253 -3 0 -39 49 -79 110 -71 107 -73 111
-66 157 3 25 8 48 10 51 5 4 200 49 222 51 6 1 34 -23 63 -53z m-355 -60 l-7
-55 93 -138 c112 -165 159 -225 172 -217 11 7 1 63 -15 82 -8 10 2 25 38 62
27 28 54 50 61 50 6 0 46 -34 90 -75 l79 -75 -66 -63 c-134 -130 -264 -192
-329 -157 -45 24 -167 240 -328 581 -2 4 9 10 24 13 18 5 32 2 46 -10 18 -17
20 -17 44 9 13 15 37 29 52 33 15 3 32 7 37 9 6 2 11 4 13 4 1 1 -1 -23 -4
-53z"/>
</g>
</svg>
