<?xml version="1.0" standalone="no"?>
<!DOCTYPE svg PUBLIC "-//W3C//DTD SVG 20010904//EN"
 "http://www.w3.org/TR/2001/REC-SVG-20010904/DTD/svg10.dtd">
<svg version="1.0" xmlns="http://www.w3.org/2000/svg"
 width="907.500000pt" height="924.223708pt" viewBox="0 0 907.500000 924.223708"
 preserveAspectRatio="xMidYMid meet">
<metadata>Created by Svg.la</metadata>
<g transform="translate(-58.000000,979.723708) scale(0.100000,-0.100000)"
fill="#000000" stroke="none">
<path d="M4885 9794 c-382 -36 -739 -132 -1052 -280 l-92 -44 -161 0 c-123 0
-169 -4 -198 -16 -67 -27 -122 -95 -122 -149 l0 -25 -1233 0 -1233 0 -52 -26
c-64 -32 -115 -90 -142 -161 -20 -53 -20 -73 -20 -3993 l0 -3939 21 -58 c27
-69 94 -145 164 -181 46 -25 61 -27 197 -30 l146 -4 4 -118 c3 -132 13 -156
79 -195 32 -19 52 -20 304 -20 300 0 310 2 357 67 20 29 23 47 26 151 l4 117
3239 0 3239 0 0 -114 c0 -124 11 -154 73 -200 27 -20 40 -21 305 -21 248 0
280 2 310 18 60 33 72 67 72 199 l0 116 153 4 c133 3 158 6 198 26 68 34 121
82 154 143 l30 54 0 3980 0 3980 -30 54 c-34 62 -108 125 -163 141 -24 6 -452
10 -1258 10 l-1221 0 -7 40 c-8 49 -56 107 -111 131 -33 16 -67 19 -206 19
l-166 0 -104 49 c-253 118 -545 202 -894 257 -95 15 -515 27 -610 18z m580
-239 c247 -37 546 -125 740 -220 l110 -53 -1205 0 -1205 0 110 54 c236 116
542 201 840 234 119 13 482 4 610 -15z m-1740 -255 c0 -12 -23 -15 -137 -18
-85 -1 -138 1 -138 7 0 23 41 31 155 28 99 -2 120 -5 120 -17z m3046 10 c43
-23 15 -30 -126 -30 -114 0 -145 3 -145 13 0 8 3 17 7 20 11 11 243 8 264 -3z
m-745 -369 c22 -10 50 -31 62 -46 21 -27 22 -35 22 -325 0 -281 -1 -299 -20
-322 -47 -61 -5 -58 -972 -58 -821 0 -885 1 -917 18 -19 9 -44 30 -55 45 -20
27 -21 43 -24 310 -3 290 0 318 38 352 49 44 50 44 960 44 821 1 867 0 906
-18z m3172 -1014 l22 -23 0 -3094 0 -3094 -22 -23 -21 -23 -4059 0 -4059 0
-24 25 -25 24 0 3091 0 3091 25 24 24 25 4059 0 4059 0 21 -23z m-7921 -6558
c30 -29 38 -71 19 -108 -46 -87 -176 -60 -176 36 0 90 92 132 157 72z m7821
-5 c31 -36 30 -97 -3 -129 -33 -34 -93 -34 -132 -1 -22 19 -28 33 -28 64 0 90
104 133 163 66z"/>
<path d="M4254 8909 c-16 -5 -40 -19 -52 -32 -22 -23 -22 -26 -20 -312 l3
-288 28 -21 c28 -21 32 -21 880 -24 469 -1 866 0 883 3 17 3 43 16 58 30 l26
24 0 280 c0 276 0 280 -22 306 -13 14 -41 30 -63 35 -51 12 -1680 11 -1721 -1z
m454 -75 c18 -12 22 -25 22 -67 0 -29 -4 -68 -10 -86 -5 -19 -8 -36 -6 -38 1
-2 22 4 46 12 46 16 100 20 100 7 0 -18 -40 -44 -107 -71 -46 -19 -69 -34 -72
-47 -1 -10 -19 -62 -38 -114 -42 -112 -75 -163 -106 -158 -33 5 -32 39 3 107
16 34 39 84 50 112 l21 51 -33 -6 c-77 -14 -72 30 7 60 39 14 46 22 59 63 17
50 36 141 29 141 -32 0 -260 -135 -291 -173 -22 -26 -70 -41 -87 -27 -44 37 9
95 149 165 91 45 194 83 226 84 9 1 26 -6 38 -15z m917 -15 c4 -6 -34 -95 -84
-197 -50 -103 -91 -193 -91 -200 0 -35 76 9 95 56 22 50 50 79 100 98 33 12
48 13 64 5 71 -39 34 -115 -75 -157 -36 -14 -42 -19 -30 -26 24 -13 97 23 144
72 34 34 40 46 36 73 -6 44 15 82 46 82 21 0 26 -5 28 -33 3 -27 7 -33 21 -29
22 5 51 -10 51 -27 0 -7 -13 -32 -30 -54 -39 -54 -40 -81 -3 -79 43 3 42 -29
-1 -50 -35 -16 -37 -16 -64 4 -37 27 -39 55 -7 108 37 64 12 56 -53 -15 -89
-99 -169 -126 -217 -74 l-24 26 -27 -21 c-35 -27 -70 -27 -96 2 l-21 23 -23
-22 c-34 -35 -71 -41 -98 -15 -20 19 -25 20 -36 7 -17 -21 -73 -30 -99 -17
-27 15 -27 54 -2 104 10 20 15 37 11 37 -5 0 -39 -34 -76 -75 -58 -64 -69 -73
-86 -64 -20 11 -20 24 -1 76 5 14 0 12 -23 -8 -69 -62 -125 -76 -172 -43 -26
18 -29 59 -5 73 14 8 15 12 4 25 -20 24 -5 64 32 86 31 19 99 26 131 14 30
-12 12 -64 -22 -64 -9 0 -11 7 -7 20 8 24 -3 25 -49 6 -52 -22 -57 -40 -8 -31
69 11 66 -31 -5 -60 -18 -8 -33 -19 -33 -24 0 -34 117 25 166 83 45 54 77 59
82 13 l3 -27 42 35 c44 38 77 51 102 41 30 -11 29 -39 -3 -97 -38 -68 -38 -69
-13 -69 38 0 51 12 51 44 0 74 78 139 141 117 18 -6 33 -10 34 -9 1 2 24 45
51 96 70 135 128 197 149 161z"/>
<path d="M5640 8524 c-17 -15 -38 -40 -46 -56 l-15 -29 33 17 c52 26 98 64 98
80 0 22 -36 16 -70 -12z"/>
<path d="M5345 8508 c-30 -27 -47 -98 -23 -98 23 0 67 53 74 88 8 39 -12 43
-51 10z"/>
<path d="M1110 4815 l0 -3035 4005 0 4005 0 0 3035 0 3035 -4005 0 -4005 0 0
-3035z m370 2950 l0 -35 120 0 120 0 0 35 c0 32 2 35 30 35 28 0 30 -3 30 -35
l0 -35 125 0 125 0 0 35 c0 32 2 35 30 35 28 0 30 -3 30 -35 l0 -35 125 0 125
0 0 35 c0 32 2 35 30 35 28 0 30 -3 30 -35 l0 -36 123 3 122 3 -3 33 c-3 31
-2 32 32 32 34 0 35 -1 29 -35 l-6 -35 127 0 126 0 0 35 c0 32 2 35 30 35 28
0 30 -3 30 -35 l0 -35 125 0 125 0 0 35 c0 32 2 35 30 35 28 0 30 -3 30 -35
l0 -35 120 0 120 0 0 35 c0 32 2 35 30 35 28 0 30 -3 30 -35 l0 -35 125 0 125
0 0 35 c0 32 2 35 30 35 28 0 30 -3 30 -35 l0 -35 120 0 120 0 0 35 c0 32 2
35 30 35 28 0 30 -3 30 -35 l0 -36 123 3 122 3 -2 33 c-2 30 0 32 32 32 33 0
34 -1 28 -35 l-6 -35 127 0 126 0 0 35 c0 32 2 35 30 35 28 0 30 -3 30 -35 l0
-35 120 0 120 0 0 35 c0 32 2 35 30 35 28 0 30 -3 30 -35 l0 -35 125 0 125 0
0 35 c0 32 2 35 30 35 28 0 30 -3 30 -35 l0 -35 120 0 120 0 0 35 c0 32 2 35
30 35 28 0 30 -3 30 -35 l0 -35 120 0 120 0 0 35 c0 32 2 35 30 35 28 0 30 -3
30 -35 l0 -35 125 0 125 0 0 35 c0 32 2 35 30 35 22 0 29 -4 28 -17 -4 -54 -6
-53 122 -53 l120 0 0 35 c0 32 2 35 30 35 28 0 30 -3 30 -35 l0 -35 125 0 125
0 0 35 c0 32 2 35 30 35 28 0 30 -3 30 -35 l0 -35 120 0 120 0 0 35 c0 32 2
35 30 35 28 0 30 -3 30 -35 l0 -35 125 0 125 0 0 35 c0 32 2 35 30 35 28 0 30
-3 30 -35 l0 -35 120 0 120 0 0 35 c0 32 2 35 30 35 28 0 30 -3 30 -35 l0 -35
120 0 120 0 0 35 c0 32 2 35 30 35 28 0 30 -3 30 -35 l0 -35 125 0 125 0 0 35
c0 32 2 35 30 35 28 0 30 -3 30 -35 l0 -35 125 0 124 0 -4 35 c-5 34 -4 35 29
35 34 0 35 -1 29 -35 l-6 -35 127 0 126 0 0 -30 0 -30 -125 0 -125 0 0 -70 0
-70 126 0 125 0 -3 -31 -3 -31 -120 -1 -120 -2 -3 -72 -3 -73 126 0 125 0 0
-30 0 -30 -125 0 -126 0 3 -72 3 -73 123 -3 123 -3 -3 -25 -3 -26 -120 -1
-120 -2 -3 -72 -3 -73 126 0 125 0 0 -30 0 -30 -125 0 -125 0 0 -75 0 -75 125
0 125 0 0 -30 0 -30 -125 0 -126 0 3 -72 3 -73 122 2 123 2 0 -29 0 -29 -122
-3 -123 -3 -3 -72 -3 -73 126 0 125 0 0 -30 0 -30 -125 0 -126 0 3 -72 3 -73
120 -2 120 -1 0 -29 0 -28 -120 0 -120 0 -3 -72 -3 -73 126 0 125 0 0 -30 0
-30 -125 0 -125 0 0 -70 0 -69 123 -3 122 -3 3 -32 3 -32 -123 0 -123 1 -3
-71 -3 -71 126 0 125 0 0 -30 0 -30 -125 0 -126 0 3 -72 3 -73 120 -2 120 -1
0 -29 0 -28 -120 -2 -120 -1 -3 -71 -3 -71 126 0 125 0 0 -30 0 -30 -125 0
-125 0 0 -70 0 -70 125 0 125 0 0 -30 0 -29 -122 -3 -123 -3 -3 -72 -3 -73
126 0 125 0 0 -30 0 -30 -125 0 -125 0 0 -75 0 -75 125 0 125 0 0 -30 0 -30
-125 0 -125 0 0 -70 0 -70 125 0 125 0 0 -30 0 -29 -122 -3 -123 -3 -3 -72 -3
-73 126 0 125 0 0 -30 0 -30 -125 0 -125 0 0 -70 0 -70 125 0 125 0 0 -30 0
-29 -122 -3 -123 -3 -3 -72 -3 -73 126 0 125 0 0 -30 0 -30 -125 0 -126 0 3
-72 3 -73 120 0 120 0 0 -30 0 -30 -120 0 -120 0 -3 -72 -3 -73 126 0 125 0 0
-30 0 -30 -125 0 -125 0 0 -75 0 -75 125 0 125 0 0 -30 0 -30 -125 0 -125 0 0
-70 0 -69 123 -3 122 -3 3 -27 3 -27 -123 -3 -123 -3 -3 -72 -3 -73 126 0 125
0 0 -30 0 -30 -125 0 -126 0 3 -72 3 -73 123 -3 123 -3 -3 -27 -3 -27 -120 -1
-120 -1 -3 -72 -3 -71 126 0 125 0 0 -30 0 -30 -125 0 -125 0 0 -70 0 -70 125
0 125 0 0 -30 0 -30 -126 0 -126 0 3 -47 c3 -46 3 -47 -26 -47 -29 0 -29 1
-26 47 l3 47 -126 0 -126 0 0 -47 c0 -46 -1 -48 -30 -49 -29 -1 -30 0 -30 47
l0 49 -125 0 -125 0 0 -47 c0 -46 -1 -48 -30 -49 -29 -1 -30 0 -30 47 l0 49
-120 0 -120 0 0 -49 c0 -47 -1 -48 -30 -47 -29 1 -30 3 -30 49 l0 47 -122 0
-123 0 0 -47 c0 -44 -2 -47 -27 -48 -27 -2 -28 0 -28 47 l0 48 -125 0 -125 0
0 -47 c0 -46 -1 -48 -30 -49 -29 -1 -30 0 -30 47 l0 49 -119 0 -120 0 -3 -47
c-3 -45 -4 -47 -33 -47 -29 0 -29 1 -26 47 l3 47 -126 0 -126 0 0 -48 c0 -47
-1 -49 -30 -49 -29 0 -30 2 -30 49 l0 48 -126 0 -126 0 3 -47 c3 -46 2 -48
-24 -51 -26 -3 -27 -2 -27 47 l0 51 -125 0 -125 0 0 -47 c0 -46 -1 -48 -30
-49 -29 -1 -30 0 -30 47 l0 49 -119 0 -120 0 -3 -47 c-3 -43 -5 -46 -30 -48
-27 -1 -28 1 -28 47 l0 48 -119 0 -120 0 -3 -47 c-3 -43 -5 -46 -30 -48 -27
-1 -28 1 -28 47 l0 48 -125 0 -125 0 0 -47 c0 -46 -1 -48 -30 -49 -29 -1 -30
0 -30 47 l0 49 -120 0 -120 0 0 -50 c0 -49 -1 -50 -30 -50 -29 0 -30 1 -30 50
l0 50 -123 0 -124 0 1 -47 c1 -46 0 -47 -29 -47 -29 0 -30 1 -30 47 l0 47
-122 0 -123 0 0 -47 c0 -46 -1 -48 -30 -49 -29 -1 -30 0 -30 47 l0 49 -119 0
-120 0 -3 -47 c-3 -43 -5 -46 -30 -48 -27 -1 -28 1 -28 47 l0 48 -125 0 -125
0 0 -47 c0 -46 -1 -48 -30 -49 -29 -1 -30 0 -30 47 l0 49 -119 0 -120 0 -3
-47 c-3 -43 -5 -46 -30 -48 -27 -1 -28 1 -28 47 l0 48 -125 0 -125 0 0 -47 c0
-47 -1 -48 -30 -48 -29 0 -30 1 -30 48 l0 47 -126 0 -126 0 3 -47 c3 -46 3
-47 -26 -47 -29 0 -30 2 -30 47 l0 47 -122 0 -123 0 0 -47 c0 -46 -1 -48 -30
-49 -29 -1 -30 0 -30 47 l0 49 -125 0 -125 0 0 -47 c0 -47 -1 -48 -30 -48 -29
0 -30 1 -30 48 l0 47 -125 0 -125 0 0 -48 c0 -47 -1 -49 -27 -47 -26 1 -28 4
-31 48 l-3 47 -120 0 -119 0 0 -47 c0 -46 -1 -48 -30 -49 -29 -1 -30 0 -30 47
l0 49 -115 0 -115 0 0 30 0 30 115 0 115 0 0 70 0 70 -115 0 -115 0 0 30 0 30
115 0 116 0 -3 71 -3 72 -112 -2 -113 -2 0 30 0 31 115 0 115 0 0 75 0 75
-115 0 -115 0 0 30 0 30 115 0 115 0 0 75 0 75 -116 0 -115 0 3 28 3 27 113 3
112 3 0 69 0 70 -115 0 -115 0 0 30 0 30 115 0 115 0 0 75 0 75 -115 0 -115 0
0 30 0 30 115 0 115 0 0 74 0 75 -112 0 -113 -1 0 29 0 28 113 -1 112 0 0 73
0 73 -115 0 -115 0 0 30 0 30 115 0 115 0 0 75 0 75 -115 0 -115 0 0 30 0 30
115 0 115 0 0 70 0 70 -115 0 -115 0 0 30 0 30 115 0 115 0 0 75 0 75 -115 0
-115 0 0 30 0 30 115 0 115 0 0 70 0 70 -115 0 -115 0 0 30 0 30 115 0 115 0
0 75 0 75 -115 0 -115 0 0 30 0 30 115 0 115 0 0 75 0 75 -115 0 -115 0 0 30
0 30 115 0 115 0 0 70 0 70 -115 0 -115 0 0 30 0 30 115 0 115 0 0 76 0 75
-112 -2 -113 -2 -3 32 -3 31 115 0 116 0 0 70 0 70 -115 0 -115 0 0 30 0 30
115 0 115 0 0 73 0 72 -116 -3 -115 -4 3 34 3 33 113 0 112 0 0 73 0 72 -115
0 -115 0 0 30 0 30 115 0 115 0 0 73 0 72 -113 2 -112 1 0 27 0 26 113 1 112
1 0 74 0 73 -115 0 -115 0 0 30 0 30 115 0 115 0 0 75 0 75 -115 0 -115 0 0
28 0 28 115 -1 116 0 -3 75 -3 74 -112 -2 -113 -2 0 30 0 30 115 0 115 0 0 75
0 75 -115 0 -115 0 0 30 0 30 115 0 115 0 0 76 0 75 -112 -2 -113 -2 -3 27 -3
26 115 0 116 0 0 75 0 75 -115 0 -115 0 0 30 0 30 115 0 115 0 0 74 0 75 -112
-1 -113 0 -3 31 -3 31 115 0 116 0 0 70 0 70 -115 0 -115 0 0 30 0 30 115 0
115 0 0 35 c0 32 2 35 30 35 28 0 30 -3 30 -35z"/>
<path d="M1480 7600 l0 -70 120 0 120 0 0 70 0 70 -120 0 -120 0 0 -70z"/>
<path d="M1780 7600 l0 -70 125 0 125 0 0 70 0 70 -125 0 -125 0 0 -70z"/>
<path d="M2090 7600 l0 -70 125 0 125 0 0 70 0 70 -125 0 -125 0 0 -70z"/>
<path d="M2400 7600 l0 -70 123 0 122 0 0 70 0 70 -122 0 -123 0 0 -70z"/>
<path d="M2704 7600 l1 -70 122 0 123 0 0 70 0 70 -123 0 -124 0 1 -70z"/>
<path d="M3010 7600 l0 -70 125 0 125 0 0 70 0 70 -125 0 -125 0 0 -70z"/>
<path d="M3320 7600 l0 -70 120 0 120 0 0 70 0 70 -120 0 -120 0 0 -70z"/>
<path d="M3620 7600 l0 -70 125 0 125 0 0 70 0 70 -125 0 -125 0 0 -70z"/>
<path d="M3930 7600 l0 -70 120 0 120 0 0 70 0 70 -120 0 -120 0 0 -70z"/>
<path d="M4230 7600 l0 -70 123 0 122 0 0 70 0 70 -122 0 -123 0 0 -70z"/>
<path d="M4533 7600 l1 -70 123 0 123 0 0 70 0 70 -124 0 -123 0 0 -70z"/>
<path d="M4840 7600 l0 -70 120 0 120 0 0 70 0 70 -120 0 -120 0 0 -70z"/>
<path d="M5140 7600 l0 -70 125 0 125 0 0 70 0 70 -125 0 -125 0 0 -70z"/>
<path d="M5450 7600 l0 -70 120 0 120 0 0 70 0 70 -120 0 -120 0 0 -70z"/>
<path d="M5750 7600 l0 -70 120 0 120 0 0 70 0 70 -120 0 -120 0 0 -70z"/>
<path d="M6050 7600 l0 -70 125 0 125 0 0 70 0 70 -125 0 -125 0 0 -70z"/>
<path d="M6350 7600 l0 -70 125 0 125 0 0 70 0 70 -125 0 -125 0 0 -70z"/>
<path d="M6660 7600 l0 -70 125 0 125 0 0 70 0 70 -125 0 -125 0 0 -70z"/>
<path d="M6970 7600 l0 -70 120 0 120 0 0 70 0 70 -120 0 -120 0 0 -70z"/>
<path d="M7270 7600 l0 -70 125 0 125 0 0 70 0 70 -125 0 -125 0 0 -70z"/>
<path d="M7575 7600 l0 -70 123 0 122 0 0 70 0 70 -122 0 -123 0 0 -70z"/>
<path d="M7880 7600 l0 -70 120 0 120 0 0 70 0 70 -120 0 -120 0 0 -70z"/>
<path d="M8180 7600 l0 -70 125 0 125 0 0 70 0 70 -125 0 -125 0 0 -70z"/>
<path d="M8490 7600 l0 -70 124 0 123 0 0 70 -1 70 -123 0 -123 0 0 -70z"/>
<path d="M1480 7395 l0 -75 120 0 120 0 0 74 0 74 -120 1 -120 2 0 -76z"/>
<path d="M1787 7464 c-4 -4 -7 -38 -7 -76 l0 -68 125 0 125 0 0 74 0 74 -118
1 c-65 1 -121 -1 -125 -5z"/>
<path d="M2090 7395 l0 -75 125 0 125 0 0 75 0 75 -125 0 -125 0 0 -75z"/>
<path d="M2400 7396 l0 -76 123 0 122 0 -2 72 -2 73 -120 3 -121 3 0 -75z"/>
<path d="M2709 7468 c-1 -2 -3 -36 -4 -75 l-2 -73 124 0 123 0 0 75 0 75 -120
0 c-66 0 -121 -1 -121 -2z"/>
<path d="M3010 7394 l0 -74 125 0 126 0 -3 73 -3 72 -122 2 -123 1 0 -74z"/>
<path d="M3320 7395 l0 -75 120 0 120 0 0 75 0 75 -120 0 -120 0 0 -75z"/>
<path d="M3626 7463 c-3 -4 -6 -37 -6 -75 l0 -68 125 0 126 0 -3 73 -3 72
-116 2 c-64 1 -119 -1 -123 -4z"/>
<path d="M3930 7395 l0 -75 120 0 121 0 -3 73 -3 72 -117 3 -118 3 0 -76z"/>
<path d="M4230 7396 l0 -76 123 0 122 0 -2 72 -1 73 -121 3 -121 3 0 -75z"/>
<path d="M4537 7463 c-2 -4 -5 -38 -6 -75 l-2 -68 126 0 126 0 -3 73 -3 72
-117 3 c-64 1 -118 -1 -121 -5z"/>
<path d="M4840 7395 l0 -75 120 0 120 0 0 75 0 75 -120 0 -120 0 0 -75z"/>
<path d="M5140 7395 l0 -75 125 0 126 0 -3 73 -3 72 -122 3 -123 3 0 -76z"/>
<path d="M5450 7396 l0 -76 120 0 121 0 -3 73 -3 72 -117 3 -118 3 0 -75z"/>
<path d="M5750 7395 l0 -75 120 0 120 0 0 74 0 74 -120 1 -120 2 0 -76z"/>
<path d="M6050 7395 l0 -75 125 0 126 0 -3 73 -3 72 -122 3 -123 3 0 -76z"/>
<path d="M6356 7462 c-3 -3 -6 -36 -6 -74 l0 -68 125 0 125 0 0 75 0 76 -119
-2 c-66 0 -122 -4 -125 -7z"/>
<path d="M6660 7396 l0 -76 125 0 126 0 -3 73 -3 72 -122 3 -123 3 0 -75z"/>
<path d="M6970 7393 l0 -73 120 0 120 0 0 75 0 75 -120 -2 -120 -2 0 -73z"/>
<path d="M7270 7395 l0 -75 125 0 126 0 -3 73 -3 72 -122 3 -123 3 0 -76z"/>
<path d="M7580 7468 c-1 -2 -2 -36 -3 -76 l-2 -72 123 0 122 0 0 75 0 75 -120
0 c-66 0 -120 -1 -120 -2z"/>
<path d="M7880 7395 l0 -75 120 0 120 0 0 75 0 75 -120 0 -120 0 0 -75z"/>
<path d="M8187 7463 c-4 -3 -7 -37 -7 -75 l0 -68 125 0 125 0 0 75 0 75 -118
0 c-65 0 -122 -3 -125 -7z"/>
<path d="M8490 7395 l0 -75 123 0 122 0 -1 72 -1 73 -122 3 -121 3 0 -76z"/>
<path d="M1480 7185 l0 -75 120 0 120 0 0 75 0 75 -120 0 -120 0 0 -75z"/>
<path d="M1782 7188 l3 -73 123 -3 122 -3 0 76 0 75 -125 0 -126 0 3 -72z"/>
<path d="M2090 7185 l0 -75 125 0 125 0 0 75 0 75 -125 0 -125 0 0 -75z"/>
<path d="M2400 7185 l0 -75 119 0 119 0 4 75 3 75 -122 0 -123 0 0 -75z"/>
<path d="M2703 7188 l2 -73 123 -3 122 -3 0 76 0 75 -125 0 -124 0 2 -72z"/>
<path d="M3010 7185 l0 -75 125 0 125 0 0 75 0 75 -125 0 -125 0 0 -75z"/>
<path d="M3320 7185 l0 -75 120 0 120 0 0 75 0 75 -120 0 -120 0 0 -75z"/>
<path d="M3620 7185 l0 -75 125 0 125 0 0 75 0 75 -125 0 -125 0 0 -75z"/>
<path d="M3930 7185 l0 -75 120 0 120 0 0 75 0 75 -120 0 -120 0 0 -75z"/>
<path d="M4230 7185 l0 -75 118 0 c65 0 121 2 123 4 2 2 3 36 1 75 l-4 71
-119 0 -119 0 0 -75z"/>
<path d="M4532 7188 l3 -73 123 -3 122 -3 0 76 0 75 -125 0 -126 0 3 -72z"/>
<path d="M4840 7185 l0 -75 120 0 120 0 0 75 0 75 -120 0 -120 0 0 -75z"/>
<path d="M5140 7185 l0 -75 125 0 125 0 0 75 0 75 -125 0 -125 0 0 -75z"/>
<path d="M5450 7185 l0 -76 118 3 117 3 3 73 3 72 -121 0 -120 0 0 -75z"/>
<path d="M5750 7185 l0 -75 120 0 120 0 0 75 0 75 -120 0 -120 0 0 -75z"/>
<path d="M6050 7185 l0 -75 125 0 125 0 0 75 0 75 -125 0 -125 0 0 -75z"/>
<path d="M6352 7188 l3 -73 123 -3 122 -3 0 76 0 75 -125 0 -126 0 3 -72z"/>
<path d="M6660 7185 l0 -76 123 3 122 3 3 73 3 72 -126 0 -125 0 0 -75z"/>
<path d="M6968 7185 l4 -75 119 0 119 0 0 75 0 75 -122 0 -123 0 3 -75z"/>
<path d="M7270 7185 l0 -76 123 3 122 3 3 73 3 72 -126 0 -125 0 0 -75z"/>
<path d="M7577 7188 l1 -73 121 -3 121 -3 0 76 0 75 -122 0 -123 0 2 -72z"/>
<path d="M7880 7185 l0 -75 120 0 120 0 0 75 0 75 -120 0 -120 0 0 -75z"/>
<path d="M8180 7185 l0 -75 125 0 125 0 0 75 0 75 -125 0 -125 0 0 -75z"/>
<path d="M8490 7185 l0 -76 123 3 122 3 2 73 1 72 -124 0 -124 0 0 -75z"/>
<path d="M1480 6985 l0 -75 120 0 120 0 0 75 0 75 -120 0 -120 0 0 -75z"/>
<path d="M1787 7053 c-4 -3 -7 -37 -7 -75 l0 -68 125 0 125 0 0 75 0 75 -118
0 c-65 0 -122 -3 -125 -7z"/>
<path d="M2090 6985 l0 -75 125 0 125 0 0 75 0 75 -125 0 -125 0 0 -75z"/>
<path d="M2400 6985 l0 -75 123 0 122 0 -2 72 -1 73 -121 3 -121 3 0 -76z"/>
<path d="M2707 7053 c-4 -3 -7 -37 -7 -75 l0 -68 125 0 125 0 0 75 0 75 -118
0 c-65 0 -122 -3 -125 -7z"/>
<path d="M3010 6985 l0 -75 125 0 126 0 -3 73 -3 72 -122 3 -123 3 0 -76z"/>
<path d="M3320 6985 l0 -75 120 0 120 0 0 75 0 75 -120 0 -120 0 0 -75z"/>
<path d="M3626 7052 c-3 -3 -6 -36 -6 -74 l0 -68 125 0 126 0 -3 73 -3 72
-117 2 c-64 1 -119 -1 -122 -5z"/>
<path d="M3930 6985 l0 -75 120 0 120 0 0 75 0 75 -120 0 -120 0 0 -75z"/>
<path d="M4237 7054 c-4 -4 -7 -38 -7 -76 l0 -68 123 0 122 0 -2 72 -1 73
-114 3 c-63 1 -117 -1 -121 -4z"/>
<path d="M4535 7051 c-3 -5 -5 -39 -4 -75 l2 -66 123 0 124 0 0 75 0 75 -119
0 c-66 0 -122 -4 -126 -9z"/>
<path d="M4840 6985 l0 -75 120 0 120 0 0 75 0 75 -120 0 -120 0 0 -75z"/>
<path d="M5140 6985 l0 -75 125 0 126 0 -3 73 -3 72 -122 3 -123 3 0 -76z"/>
<path d="M5450 6985 l0 -75 120 0 121 0 -3 73 -3 72 -117 3 -118 3 0 -76z"/>
<path d="M5750 6985 l0 -75 120 0 120 0 0 75 0 75 -120 0 -120 0 0 -75z"/>
<path d="M6050 6985 l0 -75 125 0 125 0 0 75 0 75 -125 0 -125 0 0 -75z"/>
<path d="M6357 7053 c-2 -5 -5 -38 -6 -75 l-2 -68 125 0 126 0 0 75 0 75 -119
0 c-66 0 -122 -3 -124 -7z"/>
<path d="M6660 6985 l0 -75 125 0 126 0 -3 73 -3 72 -122 3 -123 3 0 -76z"/>
<path d="M6970 6985 l0 -75 120 0 120 0 0 75 0 75 -120 0 -120 0 0 -75z"/>
<path d="M7270 6985 l0 -75 125 0 126 0 -3 73 -3 72 -122 3 -123 3 0 -76z"/>
<path d="M7580 7058 c-1 -2 -2 -36 -3 -76 l-2 -72 123 0 122 0 0 75 0 75 -120
0 c-66 0 -120 -1 -120 -2z"/>
<path d="M7880 6985 l0 -75 120 0 120 0 0 75 0 75 -120 0 -120 0 0 -75z"/>
<path d="M8187 7053 c-4 -3 -7 -37 -7 -75 l0 -68 125 0 125 0 0 75 0 75 -118
0 c-65 0 -122 -3 -125 -7z"/>
<path d="M8490 6985 l0 -75 124 0 124 0 -2 73 -2 72 -122 3 -122 3 0 -76z"/>
<path d="M1480 6775 l0 -75 120 0 120 0 0 75 0 75 -120 0 -120 0 0 -75z"/>
<path d="M1782 6778 l3 -73 123 -3 122 -3 0 76 0 75 -125 0 -126 0 3 -72z"/>
<path d="M2090 6775 l0 -75 125 0 125 0 0 75 0 75 -125 0 -125 0 0 -75z"/>
<path d="M2400 6775 l0 -75 118 0 c65 0 121 2 123 4 2 2 3 36 1 75 l-4 71
-119 0 -119 0 0 -75z"/>
<path d="M2702 6778 l3 -73 123 -3 122 -3 0 76 0 75 -125 0 -126 0 3 -72z"/>
<path d="M3010 6775 l0 -75 125 0 125 0 0 75 0 75 -125 0 -125 0 0 -75z"/>
<path d="M3320 6775 l0 -75 120 0 120 0 0 75 0 75 -120 0 -120 0 0 -75z"/>
<path d="M3620 6775 l0 -75 125 0 125 0 0 75 0 75 -125 0 -125 0 0 -75z"/>
<path d="M3930 6775 l0 -75 120 0 120 0 0 75 0 75 -120 0 -120 0 0 -75z"/>
<path d="M4230 6775 l0 -75 118 0 c65 0 121 2 123 4 2 2 3 36 1 75 l-4 71
-119 0 -119 0 0 -75z"/>
<path d="M4530 6775 l0 -75 125 0 125 0 0 75 0 75 -125 0 -125 0 0 -75z"/>
<path d="M4840 6775 l0 -75 120 0 120 0 0 75 0 75 -120 0 -120 0 0 -75z"/>
<path d="M5140 6775 l0 -75 125 0 125 0 0 75 0 75 -125 0 -125 0 0 -75z"/>
<path d="M5450 6775 l0 -75 120 0 120 0 0 75 0 75 -120 0 -120 0 0 -75z"/>
<path d="M5750 6775 l0 -75 120 0 120 0 0 75 0 75 -120 0 -120 0 0 -75z"/>
<path d="M6050 6775 l0 -75 125 0 125 0 0 75 0 75 -125 0 -125 0 0 -75z"/>
<path d="M6352 6778 l3 -73 123 -3 122 -3 0 76 0 75 -125 0 -126 0 3 -72z"/>
<path d="M6660 6775 l0 -75 125 0 125 0 0 75 0 75 -125 0 -125 0 0 -75z"/>
<path d="M6970 6775 l0 -75 120 0 120 0 0 75 0 75 -120 0 -120 0 0 -75z"/>
<path d="M7270 6775 l0 -75 125 0 125 0 0 75 0 75 -125 0 -125 0 0 -75z"/>
<path d="M7577 6778 l1 -73 121 -3 121 -3 0 76 0 75 -122 0 -123 0 2 -72z"/>
<path d="M7880 6775 l0 -75 120 0 120 0 0 75 0 75 -120 0 -120 0 0 -75z"/>
<path d="M8180 6775 l0 -75 125 0 125 0 0 75 0 75 -125 0 -125 0 0 -75z"/>
<path d="M8490 6775 l0 -76 123 3 122 3 0 73 1 72 -123 0 -123 0 0 -75z"/>
<path d="M1598 6643 l-118 -4 0 -72 0 -72 120 0 120 0 0 78 c0 42 -1 76 -2 75
-2 -1 -56 -4 -120 -5z"/>
<path d="M1783 6634 c-2 -6 -3 -40 -1 -75 l3 -64 123 -1 122 0 0 75 0 76 -121
0 c-80 0 -123 -4 -126 -11z"/>
<path d="M2090 6568 l0 -73 125 0 125 0 0 73 0 72 -125 0 -125 0 0 -72z"/>
<path d="M2400 6567 l0 -73 121 2 121 1 1 71 2 72 -122 0 -123 0 0 -73z"/>
<path d="M2704 6568 l1 -73 123 -1 122 0 0 73 0 73 -124 0 -124 0 2 -72z"/>
<path d="M3010 6568 l0 -73 123 0 122 0 3 73 3 72 -126 0 -125 0 0 -72z"/>
<path d="M3320 6568 l0 -73 120 0 120 -1 0 73 0 73 -120 0 -120 0 0 -72z"/>
<path d="M3622 6569 l3 -72 120 1 120 1 3 70 3 71 -126 0 -126 0 3 -71z"/>
<path d="M3930 6568 l0 -73 120 0 120 0 0 73 0 72 -120 0 -120 0 0 -72z"/>
<path d="M4230 6566 l0 -73 121 2 121 1 1 72 2 72 -122 0 -123 0 0 -74z"/>
<path d="M4532 6568 l3 -73 120 1 120 0 3 72 3 72 -126 0 -126 0 3 -72z"/>
<path d="M4840 6566 l0 -74 120 1 120 1 0 73 0 73 -120 0 -120 0 0 -74z"/>
<path d="M5140 6570 c0 -49 4 -70 13 -71 6 0 62 -1 122 -2 l110 -1 3 72 3 72
-126 0 -125 0 0 -70z"/>
<path d="M5450 6568 l0 -73 117 1 118 1 3 72 3 71 -121 0 -120 0 0 -72z"/>
<path d="M5750 6566 l0 -73 120 1 120 1 0 73 0 72 -120 0 -120 0 0 -74z"/>
<path d="M6050 6568 l0 -73 122 0 123 1 3 72 3 72 -126 0 -125 0 0 -72z"/>
<path d="M6352 6568 l3 -73 123 -1 122 -1 0 73 0 74 -125 0 -126 0 3 -72z"/>
<path d="M6660 6567 l0 -72 123 1 122 1 3 71 3 72 -126 0 -125 0 0 -73z"/>
<path d="M6967 6569 l1 -72 121 -2 121 -2 0 73 0 74 -122 0 -123 0 2 -71z"/>
<path d="M7270 6567 l0 -74 123 1 122 1 3 73 3 72 -126 0 -125 0 0 -73z"/>
<path d="M7577 6569 l1 -72 121 -1 121 -1 0 73 0 72 -122 0 -123 0 2 -71z"/>
<path d="M7880 6567 l0 -72 120 0 120 0 0 73 0 72 -120 0 -120 0 0 -73z"/>
<path d="M8182 6568 l3 -73 123 0 122 0 0 72 0 73 -125 0 -126 0 3 -72z"/>
<path d="M8490 6567 l0 -72 122 0 122 1 2 72 2 72 -124 0 -124 0 0 -73z"/>
<path d="M1480 6365 l0 -75 120 0 120 0 0 75 0 75 -120 0 -120 0 0 -75z"/>
<path d="M1787 6433 c-4 -3 -7 -37 -7 -75 l0 -68 125 0 125 0 0 75 0 75 -118
0 c-65 0 -122 -3 -125 -7z"/>
<path d="M2090 6365 l0 -75 125 0 125 0 0 75 0 75 -125 0 -125 0 0 -75z"/>
<path d="M2400 6365 l0 -75 123 0 122 0 -2 72 -1 73 -121 3 -121 3 0 -76z"/>
<path d="M2709 6438 c-1 -2 -2 -36 -4 -75 l-2 -73 124 0 123 0 0 75 0 75 -120
0 c-66 0 -121 -1 -121 -2z"/>
<path d="M3010 6365 l0 -75 125 0 125 0 0 75 0 75 -125 0 -125 0 0 -75z"/>
<path d="M3320 6365 l0 -75 120 0 120 0 0 75 0 75 -120 0 -120 0 0 -75z"/>
<path d="M3620 6365 l0 -75 125 0 125 0 0 75 0 75 -125 0 -125 0 0 -75z"/>
<path d="M3930 6365 l0 -75 120 0 120 0 0 75 0 75 -120 0 -120 0 0 -75z"/>
<path d="M4230 6365 l0 -75 119 0 119 0 4 71 c2 39 1 73 -1 75 -2 2 -58 4
-123 4 l-118 0 0 -75z"/>
<path d="M4537 6433 c-2 -5 -5 -38 -6 -75 l-2 -68 125 0 126 0 0 75 0 75 -119
0 c-66 0 -122 -3 -124 -7z"/>
<path d="M4840 6365 l0 -75 120 0 120 0 0 75 0 75 -120 0 -120 0 0 -75z"/>
<path d="M5140 6365 l0 -75 125 0 125 0 0 75 0 75 -125 0 -125 0 0 -75z"/>
<path d="M5450 6365 l0 -75 120 0 121 0 -3 73 -3 72 -117 3 -118 3 0 -76z"/>
<path d="M5750 6365 l0 -75 120 0 120 0 0 75 0 75 -120 0 -120 0 0 -75z"/>
<path d="M6050 6365 l0 -75 125 0 125 0 0 75 0 75 -125 0 -125 0 0 -75z"/>
<path d="M6357 6433 c-4 -3 -7 -37 -7 -75 l0 -68 125 0 125 0 0 75 0 75 -118
0 c-65 0 -122 -3 -125 -7z"/>
<path d="M6660 6365 l0 -75 125 0 126 0 -3 73 -3 72 -122 3 -123 3 0 -76z"/>
<path d="M6970 6365 l0 -75 120 0 120 0 0 75 0 75 -120 0 -120 0 0 -75z"/>
<path d="M7270 6365 l0 -75 125 0 125 0 0 75 0 75 -125 0 -125 0 0 -75z"/>
<path d="M7580 6438 c-1 -2 -2 -36 -3 -76 l-2 -72 123 0 122 0 0 75 0 75 -120
0 c-66 0 -120 -1 -120 -2z"/>
<path d="M7880 6365 l0 -75 120 0 120 0 0 75 0 75 -120 0 -120 0 0 -75z"/>
<path d="M8180 6365 l0 -75 125 0 125 0 0 75 0 75 -125 0 -125 0 0 -75z"/>
<path d="M8490 6365 l0 -75 125 0 124 0 -2 73 -3 72 -122 3 -122 3 0 -76z"/>
<path d="M1480 6156 l0 -74 120 0 120 1 0 74 0 73 -120 0 -120 0 0 -74z"/>
<path d="M1782 6158 l3 -73 123 -2 122 -1 0 74 0 74 -125 0 -126 0 3 -72z"/>
<path d="M2090 6156 l0 -74 125 -1 125 -2 0 76 0 75 -125 0 -125 0 0 -74z"/>
<path d="M2400 6155 l0 -74 120 2 c66 1 120 5 120 10 0 4 0 36 0 72 l0 65
-120 0 -120 0 0 -75z"/>
<path d="M2702 6158 l3 -73 123 -2 122 -1 0 74 0 74 -125 0 -126 0 3 -72z"/>
<path d="M3010 6156 l0 -75 123 2 122 2 3 73 3 72 -126 0 -125 0 0 -74z"/>
<path d="M3320 6157 l0 -74 120 -2 120 -2 0 75 0 76 -120 0 -120 0 0 -73z"/>
<path d="M3622 6158 l3 -73 120 0 120 0 3 73 3 72 -126 0 -126 0 3 -72z"/>
<path d="M3930 6155 l0 -76 120 2 120 1 0 74 0 74 -120 0 -120 0 0 -75z"/>
<path d="M4230 6154 l0 -76 121 4 121 3 1 73 2 72 -122 0 -123 0 0 -76z"/>
<path d="M4535 6158 l0 -73 123 -1 122 -1 0 73 0 74 -123 0 -122 0 0 -72z"/>
<path d="M4840 6157 l0 -73 120 -3 120 -2 0 75 0 76 -120 0 -120 0 0 -73z"/>
<path d="M5140 6156 l0 -75 123 2 122 2 3 73 3 72 -126 0 -125 0 0 -74z"/>
<path d="M5450 6157 l0 -73 118 0 117 1 3 73 3 72 -121 0 -120 0 0 -73z"/>
<path d="M5750 6154 l0 -75 120 3 120 2 0 73 0 73 -120 0 -120 0 0 -76z"/>
<path d="M6050 6155 l0 -74 123 2 122 2 3 73 3 72 -126 0 -125 0 0 -75z"/>
<path d="M6352 6158 l3 -73 123 -1 122 -2 0 74 0 74 -125 0 -126 0 3 -72z"/>
<path d="M6660 6155 l0 -74 123 2 122 2 3 73 3 72 -126 0 -125 0 0 -75z"/>
<path d="M6970 6155 l0 -75 120 0 120 0 0 75 0 75 -120 0 -120 0 0 -75z"/>
<path d="M7270 6154 l0 -75 123 3 122 3 3 73 3 72 -126 0 -125 0 0 -76z"/>
<path d="M7577 6158 l1 -73 121 -2 121 -2 0 74 0 75 -122 0 -123 0 2 -72z"/>
<path d="M7880 6155 l0 -76 120 2 120 1 0 74 0 74 -120 0 -120 0 0 -75z"/>
<path d="M8182 6158 l3 -73 123 -3 122 -4 0 76 0 76 -125 0 -126 0 3 -72z"/>
<path d="M8490 6157 l0 -73 123 1 122 0 2 73 2 72 -125 0 -124 0 0 -73z"/>
<path d="M1480 5953 l0 -73 120 0 120 0 0 73 0 72 -120 0 -120 0 0 -72z"/>
<path d="M1784 6021 c-2 -2 -4 -35 -4 -73 l0 -68 125 0 125 0 0 75 0 74 -121
-2 c-66 -1 -122 -4 -125 -6z"/>
<path d="M2090 5953 l0 -73 125 0 125 0 0 73 0 72 -125 0 -125 0 0 -72z"/>
<path d="M2400 5953 l0 -73 123 0 122 0 -2 72 -2 71 -120 1 -121 1 0 -72z"/>
<path d="M2704 6021 c-2 -2 -4 -35 -4 -73 l0 -68 125 0 125 0 0 73 0 72 -121
0 c-66 0 -123 -2 -125 -4z"/>
<path d="M3010 5953 l0 -73 125 0 126 0 -3 73 -3 72 -122 0 -123 0 0 -72z"/>
<path d="M3320 5954 l0 -74 120 0 120 0 0 73 0 74 -120 1 -120 0 0 -74z"/>
<path d="M3693 6022 l-73 -3 0 -69 0 -70 125 0 126 0 -3 72 -3 71 -50 1 c-27
1 -83 0 -122 -2z"/>
<path d="M3930 5953 l0 -73 120 0 120 0 0 73 0 72 -120 0 -120 0 0 -72z"/>
<path d="M4230 5953 l0 -73 123 0 122 0 -2 70 -1 71 -121 2 -121 2 0 -72z"/>
<path d="M4535 6020 c-1 -3 -3 -35 -4 -72 l-2 -68 126 0 126 0 -3 72 -3 72
-118 1 c-66 0 -120 -2 -122 -5z"/>
<path d="M4840 5953 l0 -73 120 0 120 0 0 73 0 73 -120 0 -120 -1 0 -72z"/>
<path d="M5145 6022 c-3 -3 -5 -36 -5 -74 l0 -68 125 0 126 0 -3 71 -3 71
-118 2 c-64 1 -119 0 -122 -2z"/>
<path d="M5450 5953 l0 -73 120 0 121 0 -3 71 -3 70 -118 2 -117 2 0 -72z"/>
<path d="M5754 6021 c-2 -2 -4 -35 -4 -73 l0 -68 120 0 120 0 0 73 0 72 -116
0 c-64 0 -118 -2 -120 -4z"/>
<path d="M6050 5953 l0 -73 125 0 126 0 -3 70 -3 70 -122 3 -123 3 0 -73z"/>
<path d="M6354 6021 c-2 -2 -4 -35 -4 -73 l0 -68 125 0 125 0 0 73 0 72 -121
0 c-66 0 -123 -2 -125 -4z"/>
<path d="M6660 5953 l0 -73 125 0 126 0 -3 71 -3 70 -123 2 -122 2 0 -72z"/>
<path d="M6970 5953 l0 -73 120 0 120 0 0 73 0 72 -120 0 -120 0 0 -72z"/>
<path d="M7270 5953 l0 -73 125 0 126 0 -3 72 -3 71 -122 2 -123 1 0 -73z"/>
<path d="M7580 6025 c-1 0 -2 -33 -3 -73 l-2 -72 123 0 122 0 0 73 0 72 -120
0 c-66 0 -120 0 -120 0z"/>
<path d="M7880 5953 l0 -73 120 0 120 0 0 73 0 72 -120 0 -120 0 0 -72z"/>
<path d="M8184 6021 c-2 -2 -4 -35 -4 -73 l0 -68 125 0 125 0 0 73 0 72 -121
0 c-66 0 -123 -2 -125 -4z"/>
<path d="M8490 5953 l0 -73 125 0 126 0 -3 72 -3 72 -122 0 -123 1 0 -72z"/>
<path d="M1480 5748 l0 -73 120 0 120 0 0 73 0 72 -120 0 -120 0 0 -72z"/>
<path d="M1782 5750 l3 -71 123 -2 122 -2 0 73 0 72 -125 0 -126 0 3 -70z"/>
<path d="M2090 5748 l0 -73 125 0 125 0 0 73 0 72 -125 0 -125 0 0 -72z"/>
<path d="M2402 5749 l3 -70 118 0 119 0 1 70 2 71 -123 0 -123 0 3 -71z"/>
<path d="M2702 5750 l3 -70 123 -3 122 -2 0 73 0 72 -125 0 -126 0 3 -70z"/>
<path d="M3010 5748 l0 -73 122 2 123 2 3 71 3 70 -126 0 -125 0 0 -72z"/>
<path d="M3320 5748 l0 -73 120 0 120 0 0 73 0 72 -120 0 -120 0 0 -72z"/>
<path d="M3622 5749 l3 -70 120 0 120 0 3 70 3 71 -126 0 -126 0 3 -71z"/>
<path d="M3930 5748 l0 -73 120 0 120 0 0 73 0 72 -120 0 -120 0 0 -72z"/>
<path d="M4230 5748 l0 -73 121 2 121 2 1 71 2 70 -122 0 -123 0 0 -72z"/>
<path d="M4532 5749 l3 -72 122 -1 123 -1 0 73 0 72 -126 0 -126 0 4 -71z"/>
<path d="M4840 5748 l0 -73 120 0 120 0 0 73 0 72 -120 0 -120 0 0 -72z"/>
<path d="M5140 5748 l0 -73 122 2 123 2 3 71 3 70 -126 0 -125 0 0 -72z"/>
<path d="M5450 5748 l0 -73 120 3 120 3 0 70 0 69 -120 0 -120 0 0 -72z"/>
<path d="M5750 5748 l0 -73 120 0 120 0 0 73 0 72 -120 0 -120 0 0 -72z"/>
<path d="M6050 5748 l0 -73 123 0 122 1 3 72 3 72 -126 0 -125 0 0 -72z"/>
<path d="M6352 5748 l3 -72 122 -1 123 0 0 73 0 72 -125 0 -126 0 3 -72z"/>
<path d="M6660 5748 l0 -73 122 2 123 2 3 71 3 70 -126 0 -125 0 0 -72z"/>
<path d="M6968 5748 l3 -73 120 -1 119 -1 0 74 0 73 -122 0 -123 0 3 -72z"/>
<path d="M7270 5748 l0 -73 122 2 123 2 3 70 3 71 -126 0 -125 0 0 -72z"/>
<path d="M7577 5749 l1 -71 121 -1 121 -2 0 73 0 72 -122 0 -123 0 2 -71z"/>
<path d="M7880 5748 l0 -73 120 0 120 0 0 73 0 72 -120 0 -120 0 0 -72z"/>
<path d="M8182 5750 l3 -71 123 -2 122 -2 0 73 0 72 -125 0 -126 0 3 -70z"/>
<path d="M8490 5748 l0 -73 122 2 123 2 3 71 3 70 -126 0 -125 0 0 -72z"/>
<path d="M1588 5612 l-108 -3 0 -69 0 -70 120 0 120 0 0 73 c0 53 -4 73 -12
73 -7 -1 -61 -2 -120 -4z"/>
<path d="M1784 5611 c-2 -2 -4 -35 -4 -73 l0 -68 125 0 125 0 0 74 0 74 -121
-2 c-66 0 -122 -3 -125 -5z"/>
<path d="M2094 5611 c-2 -2 -4 -35 -4 -73 l0 -68 125 0 125 0 0 73 0 72 -121
0 c-66 0 -123 -2 -125 -4z"/>
<path d="M2400 5544 l0 -74 123 0 122 0 -3 72 -3 73 -120 2 -119 1 0 -74z"/>
<path d="M2704 5611 c-2 -2 -4 -35 -4 -73 l0 -68 125 0 125 0 0 73 0 72 -121
0 c-66 0 -123 -2 -125 -4z"/>
<path d="M3010 5543 l0 -73 125 0 126 0 -3 70 -3 71 -123 2 -122 2 0 -72z"/>
<path d="M3320 5543 l0 -73 120 0 120 0 0 73 0 72 -120 0 -120 0 0 -72z"/>
<path d="M3624 5611 c-2 -2 -4 -35 -4 -73 l0 -68 125 0 126 0 -3 71 -3 70
-118 2 c-65 1 -121 0 -123 -2z"/>
<path d="M3930 5543 l0 -73 120 0 120 0 0 73 0 72 -120 0 -120 0 0 -72z"/>
<path d="M4234 5611 c-2 -2 -4 -35 -4 -73 l0 -68 123 0 122 0 -2 71 -1 70
-117 2 c-64 1 -119 0 -121 -2z"/>
<path d="M4534 5611 c-2 -2 -4 -35 -4 -73 l0 -68 125 0 125 0 0 69 0 70 -121
3 c-66 2 -123 1 -125 -1z"/>
<path d="M4840 5543 l0 -73 120 0 120 0 0 73 0 72 -120 0 -120 0 0 -72z"/>
<path d="M5243 5612 l-103 -3 0 -69 0 -70 125 0 126 0 -3 72 c-3 82 12 75
-145 70z"/>
<path d="M5450 5544 l0 -74 120 0 120 0 0 70 0 70 -97 1 c-54 1 -108 3 -120 4
-22 2 -23 -1 -23 -71z"/>
<path d="M5750 5543 l0 -73 120 0 120 0 0 73 0 72 -120 0 -120 0 0 -72z"/>
<path d="M6148 5612 l-98 -3 0 -69 0 -70 125 0 126 0 -3 72 c-3 82 12 75 -150
70z"/>
<path d="M6356 5610 c-2 -3 -4 -35 -5 -72 l-2 -68 125 0 126 0 0 73 0 72 -121
0 c-66 0 -122 -2 -123 -5z"/>
<path d="M6660 5543 l0 -73 125 0 126 0 -3 71 -3 70 -123 2 -122 2 0 -72z"/>
<path d="M6968 5542 l-3 -72 123 0 122 0 0 73 0 72 -119 0 -120 0 -3 -73z"/>
<path d="M7270 5543 l0 -73 125 0 126 0 -3 73 -3 72 -122 0 -123 0 0 -72z"/>
<path d="M7580 5615 c-1 0 -2 -33 -3 -73 l-2 -72 123 0 122 0 0 73 0 72 -120
0 c-66 0 -120 0 -120 0z"/>
<path d="M7880 5543 l0 -73 120 0 120 0 0 73 0 72 -120 0 -120 0 0 -72z"/>
<path d="M8184 5611 c-2 -2 -4 -35 -4 -73 l0 -68 125 0 125 0 0 73 0 72 -121
0 c-66 0 -123 -2 -125 -4z"/>
<path d="M8608 5612 l-118 -3 0 -69 0 -70 125 0 125 0 0 69 c0 39 -3 71 -7 73
-5 2 -61 2 -125 0z"/>
<path d="M1480 5338 l0 -73 120 0 120 0 0 73 0 72 -120 0 -120 0 0 -72z"/>
<path d="M1782 5339 l3 -70 123 -2 122 -2 0 73 0 72 -125 0 -126 0 3 -71z"/>
<path d="M2090 5340 l0 -70 109 0 c60 0 116 -3 125 -6 14 -5 16 5 16 70 l0 76
-125 0 -125 0 0 -70z"/>
<path d="M2400 5335 l0 -76 121 3 121 3 1 73 2 72 -122 0 -123 0 0 -75z"/>
<path d="M2702 5338 l3 -73 123 -3 122 -3 0 76 0 75 -125 0 -126 0 3 -72z"/>
<path d="M3010 5335 l0 -76 123 3 122 3 3 73 3 72 -126 0 -125 0 0 -75z"/>
<path d="M3320 5335 l0 -75 120 0 120 0 0 75 0 75 -120 0 -120 0 0 -75z"/>
<path d="M3620 5335 l0 -76 123 3 122 3 3 73 3 72 -126 0 -125 0 0 -75z"/>
<path d="M3930 5335 l0 -75 120 0 120 0 0 75 0 75 -120 0 -120 0 0 -75z"/>
<path d="M4230 5335 l0 -76 121 3 121 3 1 73 2 72 -122 0 -123 0 0 -75z"/>
<path d="M4532 5338 l3 -73 123 -3 122 -3 0 76 0 75 -125 0 -126 0 3 -72z"/>
<path d="M4840 5335 l0 -75 120 0 120 0 0 75 0 75 -120 0 -120 0 0 -75z"/>
<path d="M5140 5335 l0 -76 123 3 122 3 3 73 3 72 -126 0 -125 0 0 -75z"/>
<path d="M5450 5335 l0 -76 118 3 117 3 3 73 3 72 -121 0 -120 0 0 -75z"/>
<path d="M5750 5335 l0 -75 120 0 120 0 0 75 0 75 -120 0 -120 0 0 -75z"/>
<path d="M6050 5335 l0 -75 125 0 125 0 0 75 0 75 -125 0 -125 0 0 -75z"/>
<path d="M6352 5338 l3 -73 123 -3 122 -3 0 76 0 75 -125 0 -126 0 3 -72z"/>
<path d="M6660 5335 l0 -76 123 3 122 3 3 73 3 72 -126 0 -125 0 0 -75z"/>
<path d="M6967 5338 l1 -73 121 -3 121 -3 0 76 0 75 -122 0 -123 0 2 -72z"/>
<path d="M7270 5335 l0 -76 123 3 122 3 3 73 3 72 -126 0 -125 0 0 -75z"/>
<path d="M7577 5338 l1 -73 121 -3 121 -3 0 76 0 75 -122 0 -123 0 2 -72z"/>
<path d="M7880 5335 l0 -75 120 0 120 0 0 75 0 75 -120 0 -120 0 0 -75z"/>
<path d="M8182 5338 l3 -73 123 -3 122 -3 0 76 0 75 -125 0 -126 0 3 -72z"/>
<path d="M8490 5335 l0 -76 123 3 122 3 3 73 3 72 -126 0 -125 0 0 -75z"/>
<path d="M1480 5134 l0 -74 120 0 120 0 0 73 0 73 -120 1 -120 2 0 -75z"/>
<path d="M1787 5204 c-4 -4 -7 -38 -7 -76 l0 -68 125 0 125 0 0 74 0 74 -118
1 c-65 1 -121 -1 -125 -5z"/>
<path d="M2090 5136 l0 -76 125 0 125 0 0 70 c0 39 -3 70 -7 70 -5 1 -61 3
-125 7 l-118 5 0 -76z"/>
<path d="M2400 5134 l0 -74 123 0 122 0 -2 71 -1 70 -121 4 -121 3 0 -74z"/>
<path d="M2709 5205 c0 0 -3 -33 -5 -72 l-5 -73 126 0 125 0 0 73 0 72 -120 0
c-66 0 -120 0 -121 0z"/>
<path d="M3128 5202 l-118 -3 0 -69 0 -70 125 0 125 0 0 69 c0 39 -3 71 -7 73
-5 2 -61 2 -125 0z"/>
<path d="M3320 5133 l0 -73 120 0 120 0 0 73 0 72 -120 0 -120 0 0 -72z"/>
<path d="M3624 5201 c-2 -2 -4 -35 -4 -73 l0 -68 125 0 126 0 -3 71 -3 71
-118 1 c-65 1 -121 0 -123 -2z"/>
<path d="M3930 5133 l0 -73 120 0 120 0 0 69 0 70 -120 3 -120 3 0 -72z"/>
<path d="M4230 5133 l0 -73 123 0 122 0 -2 70 -1 71 -121 2 -121 2 0 -72z"/>
<path d="M4534 5201 c-2 -2 -4 -35 -4 -73 l0 -68 125 0 125 0 0 69 0 70 -121
3 c-66 2 -123 1 -125 -1z"/>
<path d="M4953 5203 l-113 -4 0 -69 0 -70 120 0 120 0 0 75 c0 41 -3 74 -7 73
-5 -1 -59 -4 -120 -5z"/>
<path d="M5258 5202 l-118 -3 0 -69 0 -70 125 0 125 0 0 69 c0 39 -3 71 -7 73
-5 2 -61 2 -125 0z"/>
<path d="M5450 5133 l0 -73 120 0 120 0 0 69 0 70 -120 3 -120 3 0 -72z"/>
<path d="M5750 5133 l0 -73 120 0 120 0 0 73 0 72 -120 0 -120 0 0 -72z"/>
<path d="M6050 5133 l0 -73 125 0 126 0 -3 71 -3 70 -123 2 -122 2 0 -72z"/>
<path d="M6354 5201 c-2 -2 -4 -35 -4 -73 l0 -68 125 0 125 0 0 73 0 72 -121
0 c-66 0 -123 -2 -125 -4z"/>
<path d="M6660 5133 l0 -73 125 0 126 0 -3 71 -3 70 -123 2 -122 2 0 -72z"/>
<path d="M6969 5206 c-2 -2 -3 -36 -1 -75 l4 -71 119 0 119 0 0 70 0 70 -104
0 c-57 0 -111 2 -118 5 -8 3 -16 4 -19 1z"/>
<path d="M7388 5202 l-118 -3 0 -69 0 -70 125 0 125 0 0 69 c0 39 -3 71 -7 73
-5 2 -61 2 -125 0z"/>
<path d="M7579 5205 c0 0 -1 -33 -2 -73 l-2 -72 123 0 122 0 0 69 0 70 -120 3
c-66 2 -120 3 -121 3z"/>
<path d="M7880 5133 l0 -73 120 0 120 0 0 73 0 72 -120 0 -120 0 0 -72z"/>
<path d="M8184 5201 c-2 -2 -4 -35 -4 -73 l0 -68 125 0 125 0 0 73 0 72 -121
0 c-66 0 -123 -2 -125 -4z"/>
<path d="M8490 5133 l0 -73 123 0 122 0 0 70 0 71 -123 2 -122 2 0 -72z"/>
<path d="M1480 4930 l0 -70 120 0 120 0 0 70 0 70 -120 0 -120 0 0 -70z"/>
<path d="M1780 4930 l0 -70 125 0 125 0 0 70 0 70 -125 0 -125 0 0 -70z"/>
<path d="M2090 4930 l0 -70 125 0 125 0 0 70 0 70 -125 0 -125 0 0 -70z"/>
<path d="M2400 4930 l0 -70 123 0 122 0 -3 70 -4 70 -119 0 -119 0 0 -70z"/>
<path d="M2705 4929 l0 -70 123 -2 122 -2 0 73 0 72 -123 0 -123 0 1 -71z"/>
<path d="M3010 4930 l0 -70 125 0 125 0 0 70 0 70 -125 0 -125 0 0 -70z"/>
<path d="M3320 4928 l0 -73 120 0 120 0 0 73 0 72 -120 0 -120 0 0 -72z"/>
<path d="M3620 4930 l0 -70 125 0 125 0 0 70 0 70 -125 0 -125 0 0 -70z"/>
<path d="M3930 4928 l0 -73 120 0 120 0 0 73 0 72 -120 0 -120 0 0 -72z"/>
<path d="M4230 4930 l0 -70 123 0 122 0 0 70 0 70 -122 0 -123 0 0 -70z"/>
<path d="M4533 4933 c1 -38 5 -69 10 -70 4 -2 59 -3 122 -3 l115 0 0 70 0 70
-124 0 -124 0 1 -67z"/>
<path d="M4840 4928 l0 -73 120 0 120 0 0 73 0 72 -120 0 -120 0 0 -72z"/>
<path d="M5140 4930 l0 -70 125 0 125 0 0 70 0 70 -125 0 -125 0 0 -70z"/>
<path d="M5450 4928 l0 -73 120 3 120 3 0 70 0 69 -120 0 -120 0 0 -72z"/>
<path d="M5750 4928 l0 -73 120 0 120 0 0 73 0 72 -120 0 -120 0 0 -72z"/>
<path d="M6050 4930 l0 -70 125 0 125 0 0 70 0 70 -125 0 -125 0 0 -70z"/>
<path d="M6350 4930 l0 -70 125 0 125 0 0 70 0 70 -125 0 -125 0 0 -70z"/>
<path d="M6660 4930 l0 -70 125 0 125 0 0 70 0 70 -125 0 -125 0 0 -70z"/>
<path d="M6968 4929 c-2 -39 -2 -71 -1 -72 1 -1 56 -1 122 1 l121 3 0 70 0 69
-119 0 -119 0 -4 -71z"/>
<path d="M7270 4930 l0 -70 125 0 125 0 0 70 0 70 -125 0 -125 0 0 -70z"/>
<path d="M7577 4929 l1 -70 121 -2 121 -2 0 73 0 72 -122 0 -123 0 2 -71z"/>
<path d="M7880 4928 l0 -73 120 0 120 0 0 73 0 72 -120 0 -120 0 0 -72z"/>
<path d="M8182 4929 l3 -70 123 -2 122 -2 0 73 0 72 -125 0 -126 0 3 -71z"/>
<path d="M8490 4930 l0 -70 124 0 124 0 -1 70 0 70 -123 0 -124 0 0 -70z"/>
<path d="M1480 4725 l0 -75 120 0 120 0 0 75 0 75 -120 0 -120 0 0 -75z"/>
<path d="M1780 4725 l0 -75 125 0 125 0 0 75 0 75 -125 0 -125 0 0 -75z"/>
<path d="M2090 4725 l0 -75 125 0 125 0 0 75 0 75 -125 0 -125 0 0 -75z"/>
<path d="M2400 4725 l0 -75 123 0 122 0 -2 72 -1 73 -121 3 -121 3 0 -76z"/>
<path d="M2708 4793 c-1 -5 -2 -38 -2 -75 l-1 -68 122 0 123 0 0 75 0 75 -120
0 c-66 0 -121 -3 -122 -7z"/>
<path d="M3010 4725 l0 -75 125 0 126 0 -3 73 -3 72 -122 3 -123 3 0 -76z"/>
<path d="M3320 4725 l0 -75 120 0 120 0 0 75 0 75 -120 0 -120 0 0 -75z"/>
<path d="M3620 4725 l0 -75 125 0 126 0 -3 73 -3 72 -122 3 -123 3 0 -76z"/>
<path d="M3930 4725 l0 -75 120 0 120 0 0 75 0 75 -120 0 -120 0 0 -75z"/>
<path d="M4230 4725 l0 -75 123 0 122 0 -2 72 -1 73 -121 3 -121 3 0 -76z"/>
<path d="M4537 4793 c-4 -3 -7 -37 -7 -75 l0 -68 125 0 125 0 0 75 0 75 -118
0 c-65 0 -122 -3 -125 -7z"/>
<path d="M4840 4725 l0 -75 120 0 120 0 0 75 0 75 -120 0 -120 0 0 -75z"/>
<path d="M5140 4725 l0 -75 125 0 126 0 -3 73 -3 72 -122 3 -123 3 0 -76z"/>
<path d="M5450 4725 l0 -75 120 0 121 0 -3 73 -3 72 -117 3 -118 3 0 -76z"/>
<path d="M5750 4725 l0 -75 120 0 120 0 0 75 0 75 -120 0 -120 0 0 -75z"/>
<path d="M6050 4725 l0 -75 125 0 125 0 0 75 0 75 -125 0 -125 0 0 -75z"/>
<path d="M6357 4793 c-4 -3 -7 -37 -7 -75 l0 -68 125 0 125 0 0 75 0 75 -118
0 c-65 0 -122 -3 -125 -7z"/>
<path d="M6660 4725 l0 -75 125 0 126 0 -3 73 -3 72 -122 3 -123 3 0 -76z"/>
<path d="M6970 4798 c-1 -2 -2 -36 -3 -76 l-2 -72 123 0 122 0 0 75 0 75 -120
0 c-66 0 -120 -1 -120 -2z"/>
<path d="M7270 4725 l0 -75 125 0 126 0 -3 73 -3 72 -122 3 -123 3 0 -76z"/>
<path d="M7580 4798 c-1 -2 -2 -36 -3 -76 l-2 -72 123 0 122 0 0 75 0 75 -120
0 c-66 0 -120 -1 -120 -2z"/>
<path d="M7880 4725 l0 -75 120 0 120 0 0 75 0 75 -120 0 -120 0 0 -75z"/>
<path d="M8187 4793 c-4 -3 -7 -37 -7 -75 l0 -68 125 0 125 0 0 75 0 75 -118
0 c-65 0 -122 -3 -125 -7z"/>
<path d="M8490 4725 l0 -75 124 0 125 0 -3 73 -3 72 -122 3 -121 3 0 -76z"/>
<path d="M1480 4515 l0 -75 120 0 120 0 0 75 0 75 -120 0 -120 0 0 -75z"/>
<path d="M1780 4515 l0 -75 125 0 125 0 0 75 0 75 -125 0 -125 0 0 -75z"/>
<path d="M2090 4515 l0 -75 125 0 125 0 0 75 0 75 -125 0 -125 0 0 -75z"/>
<path d="M2400 4515 l0 -75 119 0 119 0 4 75 3 75 -122 0 -123 0 0 -75z"/>
<path d="M2701 4515 l2 -75 123 0 124 0 0 75 0 75 -125 0 -126 0 2 -75z"/>
<path d="M3010 4515 l0 -75 125 0 125 0 0 75 0 75 -125 0 -125 0 0 -75z"/>
<path d="M3320 4515 l0 -75 120 0 120 0 0 75 0 75 -120 0 -120 0 0 -75z"/>
<path d="M3620 4515 l0 -75 125 0 125 0 0 75 0 75 -125 0 -125 0 0 -75z"/>
<path d="M3930 4515 l0 -75 120 0 120 0 0 75 0 75 -120 0 -120 0 0 -75z"/>
<path d="M4230 4515 l0 -75 123 0 122 0 0 75 0 75 -122 0 -123 0 0 -75z"/>
<path d="M4530 4515 l0 -75 125 0 125 0 0 75 0 75 -125 0 -125 0 0 -75z"/>
<path d="M4840 4515 l0 -75 120 0 120 0 0 75 0 75 -120 0 -120 0 0 -75z"/>
<path d="M5140 4515 l0 -75 125 0 125 0 0 75 0 75 -125 0 -125 0 0 -75z"/>
<path d="M5450 4515 l0 -75 120 0 120 0 0 75 0 75 -120 0 -120 0 0 -75z"/>
<path d="M5750 4515 l0 -75 120 0 120 0 0 75 0 75 -120 0 -120 0 0 -75z"/>
<path d="M6050 4515 l0 -75 125 0 125 0 0 75 0 75 -125 0 -125 0 0 -75z"/>
<path d="M6350 4515 l0 -75 125 0 125 0 0 75 0 75 -125 0 -125 0 0 -75z"/>
<path d="M6660 4515 l0 -75 125 0 125 0 0 75 0 75 -125 0 -125 0 0 -75z"/>
<path d="M6970 4515 l0 -75 120 0 120 0 0 75 0 75 -120 0 -120 0 0 -75z"/>
<path d="M7270 4515 l0 -75 125 0 125 0 0 75 0 75 -125 0 -125 0 0 -75z"/>
<path d="M7575 4515 l0 -75 123 0 122 0 0 75 0 75 -122 0 -123 0 0 -75z"/>
<path d="M7880 4515 l0 -75 120 0 120 0 0 75 0 75 -120 0 -120 0 0 -75z"/>
<path d="M8180 4515 l0 -75 125 0 125 0 0 75 0 75 -125 0 -125 0 0 -75z"/>
<path d="M8490 4515 l0 -75 124 0 123 0 2 75 2 75 -126 0 -125 0 0 -75z"/>
<path d="M1480 4310 l0 -70 120 0 120 0 0 70 0 70 -120 0 -120 0 0 -70z"/>
<path d="M1780 4310 l0 -70 125 0 125 0 0 70 0 70 -125 0 -125 0 0 -70z"/>
<path d="M2090 4310 l0 -70 125 0 125 0 0 70 0 70 -125 0 -125 0 0 -70z"/>
<path d="M2400 4310 l0 -70 123 0 122 0 0 70 0 70 -122 0 -123 0 0 -70z"/>
<path d="M2701 4310 l2 -70 124 0 123 0 0 70 0 70 -126 0 -125 0 2 -70z"/>
<path d="M3010 4310 l0 -70 125 0 125 0 0 70 0 70 -125 0 -125 0 0 -70z"/>
<path d="M3320 4310 l0 -70 120 0 120 0 0 70 0 70 -120 0 -120 0 0 -70z"/>
<path d="M3620 4310 l0 -70 125 0 125 0 0 70 0 70 -125 0 -125 0 0 -70z"/>
<path d="M3930 4310 l0 -70 120 0 120 0 0 70 0 70 -120 0 -120 0 0 -70z"/>
<path d="M4230 4308 l0 -73 121 2 121 2 1 70 2 71 -122 0 -123 0 0 -72z"/>
<path d="M4530 4310 l0 -70 125 0 125 0 0 70 0 70 -125 0 -125 0 0 -70z"/>
<path d="M4840 4308 l0 -73 120 3 120 3 0 70 0 69 -120 0 -120 0 0 -72z"/>
<path d="M5140 4310 l0 -70 125 0 125 0 0 70 0 70 -125 0 -125 0 0 -70z"/>
<path d="M5450 4310 l0 -70 120 0 120 0 0 70 0 70 -120 0 -120 0 0 -70z"/>
<path d="M5750 4310 l0 -70 120 0 120 0 0 70 0 70 -120 0 -120 0 0 -70z"/>
<path d="M6050 4310 l0 -70 125 0 125 0 0 70 0 70 -125 0 -125 0 0 -70z"/>
<path d="M6353 4310 l-2 -70 124 0 125 0 0 70 0 70 -122 0 -123 0 -2 -70z"/>
<path d="M6660 4310 l0 -70 125 0 125 0 0 70 0 70 -125 0 -125 0 0 -70z"/>
<path d="M6968 4310 l-3 -70 123 0 122 0 0 70 0 70 -119 0 -119 0 -4 -70z"/>
<path d="M7270 4308 l0 -73 125 3 125 3 0 70 0 69 -125 0 -125 0 0 -72z"/>
<path d="M7577 4310 c0 -39 4 -70 7 -70 3 0 58 0 121 0 l115 0 0 70 0 70 -122
0 -123 0 2 -70z"/>
<path d="M7880 4310 l0 -70 120 0 120 0 0 70 0 70 -120 0 -120 0 0 -70z"/>
<path d="M8180 4311 l0 -70 125 -3 125 -3 0 73 0 72 -125 0 -125 0 0 -69z"/>
<path d="M8490 4310 l0 -70 125 0 125 0 0 70 0 70 -125 0 -125 0 0 -70z"/>
<path d="M1480 4105 l0 -75 120 0 120 0 0 75 0 75 -120 0 -120 0 0 -75z"/>
<path d="M1780 4105 l0 -75 125 0 125 0 0 75 0 75 -125 0 -125 0 0 -75z"/>
<path d="M2090 4105 l0 -75 125 0 125 0 0 75 0 75 -125 0 -125 0 0 -75z"/>
<path d="M2400 4105 l0 -75 126 0 c111 0 125 2 120 16 -3 9 -6 42 -6 75 l0 59
-120 0 -120 0 0 -75z"/>
<path d="M2709 4173 c-1 -5 -2 -38 -3 -75 l-1 -68 123 0 122 0 0 75 0 75 -120
0 c-66 0 -121 -3 -121 -7z"/>
<path d="M3010 4105 l0 -75 125 0 125 0 0 75 0 75 -125 0 -125 0 0 -75z"/>
<path d="M3320 4105 l0 -75 120 0 120 0 0 75 0 75 -120 0 -120 0 0 -75z"/>
<path d="M3620 4105 l0 -75 125 0 125 0 0 75 0 75 -125 0 -125 0 0 -75z"/>
<path d="M3930 4105 l0 -75 120 0 120 0 0 75 0 75 -120 0 -120 0 0 -75z"/>
<path d="M4230 4105 l0 -75 123 0 122 0 0 73 -1 72 -122 3 -122 3 0 -76z"/>
<path d="M4537 4173 c-4 -3 -7 -37 -7 -75 l0 -68 125 0 125 0 0 75 0 75 -118
0 c-65 0 -122 -3 -125 -7z"/>
<path d="M4840 4105 l0 -75 120 0 120 0 0 75 0 75 -120 0 -120 0 0 -75z"/>
<path d="M5140 4105 l0 -75 125 0 125 0 0 75 0 75 -125 0 -125 0 0 -75z"/>
<path d="M5450 4105 l0 -75 120 0 120 0 0 75 0 75 -120 0 -120 0 0 -75z"/>
<path d="M5750 4105 l0 -75 120 0 120 0 0 75 0 75 -120 0 -120 0 0 -75z"/>
<path d="M6050 4105 l0 -75 125 0 125 0 0 75 0 75 -125 0 -125 0 0 -75z"/>
<path d="M6355 4170 c-3 -5 -5 -39 -3 -75 l2 -65 123 0 123 0 0 75 0 75 -119
0 c-66 0 -122 -4 -126 -10z"/>
<path d="M6660 4105 l0 -75 125 0 126 0 -3 73 -3 72 -122 3 -123 3 0 -76z"/>
<path d="M6970 4105 l0 -75 120 0 120 0 0 75 0 75 -120 0 -120 0 0 -75z"/>
<path d="M7270 4105 l0 -75 125 0 125 0 0 75 0 75 -125 0 -125 0 0 -75z"/>
<path d="M7580 4178 c-1 -2 -2 -36 -3 -76 l-2 -72 123 0 122 0 0 75 0 75 -120
0 c-66 0 -120 -1 -120 -2z"/>
<path d="M7880 4105 l0 -75 120 0 120 0 0 75 0 75 -120 0 -120 0 0 -75z"/>
<path d="M8180 4105 l0 -75 125 0 125 0 0 75 0 75 -125 0 -125 0 0 -75z"/>
<path d="M8490 4105 l0 -75 123 0 122 0 0 73 -1 72 -122 3 -122 3 0 -76z"/>
<path d="M1480 3900 l0 -70 120 0 120 0 0 70 0 70 -120 0 -120 0 0 -70z"/>
<path d="M1780 3900 l0 -70 125 0 125 0 0 70 0 70 -125 0 -125 0 0 -70z"/>
<path d="M2090 3900 l0 -70 125 0 125 0 0 70 0 70 -125 0 -125 0 0 -70z"/>
<path d="M2400 3900 l0 -70 123 0 122 0 -3 70 -4 70 -119 0 -119 0 0 -70z"/>
<path d="M2700 3900 l0 -70 125 0 125 0 0 70 0 70 -125 0 -125 0 0 -70z"/>
<path d="M3010 3900 l0 -70 125 0 125 0 0 70 0 70 -125 0 -125 0 0 -70z"/>
<path d="M3320 3900 l0 -70 120 0 120 0 0 70 0 70 -120 0 -120 0 0 -70z"/>
<path d="M3620 3900 l0 -70 125 0 125 0 0 70 0 70 -125 0 -125 0 0 -70z"/>
<path d="M3930 3900 l0 -70 120 0 120 0 0 70 0 70 -120 0 -120 0 0 -70z"/>
<path d="M4230 3900 l0 -70 123 0 122 0 0 70 0 70 -122 0 -123 0 0 -70z"/>
<path d="M4530 3900 l0 -70 125 0 125 0 0 70 0 70 -125 0 -125 0 0 -70z"/>
<path d="M4840 3900 l0 -70 120 0 120 0 0 70 0 70 -120 0 -120 0 0 -70z"/>
<path d="M5140 3900 l0 -70 125 0 125 0 0 70 0 70 -125 0 -125 0 0 -70z"/>
<path d="M5450 3900 l0 -70 120 0 120 0 0 70 0 70 -120 0 -120 0 0 -70z"/>
<path d="M5750 3900 l0 -70 120 0 120 0 0 70 0 70 -120 0 -120 0 0 -70z"/>
<path d="M6050 3900 l0 -70 125 0 125 0 0 70 0 70 -125 0 -125 0 0 -70z"/>
<path d="M6351 3900 l2 -70 124 0 123 0 0 70 0 70 -126 0 -125 0 2 -70z"/>
<path d="M6660 3900 l0 -70 125 0 125 0 0 70 0 70 -125 0 -125 0 0 -70z"/>
<path d="M6968 3900 l4 -70 119 0 119 0 0 70 0 70 -122 0 -123 0 3 -70z"/>
<path d="M7270 3900 l0 -70 125 0 125 0 0 70 0 70 -125 0 -125 0 0 -70z"/>
<path d="M7575 3900 l0 -70 123 0 122 0 0 70 0 70 -122 0 -123 0 0 -70z"/>
<path d="M7880 3900 l0 -70 120 0 120 0 0 70 0 70 -120 0 -120 0 0 -70z"/>
<path d="M8180 3900 l0 -70 125 0 125 0 0 70 0 70 -125 0 -125 0 0 -70z"/>
<path d="M8490 3900 l0 -70 125 0 125 0 0 70 0 70 -125 0 -125 0 0 -70z"/>
<path d="M1480 3695 l0 -75 120 0 120 0 0 75 0 75 -120 0 -120 0 0 -75z"/>
<path d="M1787 3763 c-4 -3 -7 -37 -7 -75 l0 -68 125 0 125 0 0 75 0 75 -118
0 c-65 0 -122 -3 -125 -7z"/>
<path d="M2090 3695 l0 -75 125 0 125 0 0 75 0 75 -125 0 -125 0 0 -75z"/>
<path d="M2400 3695 l0 -75 123 0 122 0 -2 72 -1 73 -121 3 -121 3 0 -76z"/>
<path d="M2709 3763 c-1 -5 -2 -38 -3 -75 l-1 -68 123 0 122 0 0 75 0 75 -120
0 c-66 0 -121 -3 -121 -7z"/>
<path d="M3010 3695 l0 -75 125 0 125 0 0 75 0 75 -125 0 -125 0 0 -75z"/>
<path d="M3320 3695 l0 -75 120 0 120 0 0 75 0 75 -120 0 -120 0 0 -75z"/>
<path d="M3620 3695 l0 -75 125 0 125 0 0 75 0 75 -125 0 -125 0 0 -75z"/>
<path d="M3930 3695 l0 -75 120 0 120 0 0 75 0 75 -120 0 -120 0 0 -75z"/>
<path d="M4230 3695 l0 -75 123 0 122 0 -2 72 -1 73 -121 3 -121 3 0 -76z"/>
<path d="M4537 3763 c-4 -3 -7 -37 -7 -75 l0 -68 125 0 125 0 0 75 0 75 -118
0 c-65 0 -122 -3 -125 -7z"/>
<path d="M4840 3695 l0 -75 120 0 120 0 0 75 0 75 -120 0 -120 0 0 -75z"/>
<path d="M5140 3695 l0 -75 125 0 125 0 0 75 0 75 -125 0 -125 0 0 -75z"/>
<path d="M5450 3695 l0 -75 120 0 121 0 -3 73 -3 72 -117 3 -118 3 0 -76z"/>
<path d="M5750 3695 l0 -75 120 0 120 0 0 75 0 75 -120 0 -120 0 0 -75z"/>
<path d="M6050 3695 l0 -75 125 0 125 0 0 75 0 75 -125 0 -125 0 0 -75z"/>
<path d="M6357 3763 c-4 -3 -7 -37 -7 -75 l0 -68 125 0 125 0 0 75 0 75 -118
0 c-65 0 -122 -3 -125 -7z"/>
<path d="M6660 3695 l0 -75 125 0 126 0 -3 73 -3 72 -122 3 -123 3 0 -76z"/>
<path d="M6970 3695 l0 -75 120 0 120 0 0 75 0 75 -120 0 -120 0 0 -75z"/>
<path d="M7270 3695 l0 -75 125 0 126 0 -3 73 -3 72 -122 3 -123 3 0 -76z"/>
<path d="M7580 3768 c-1 -2 -2 -36 -3 -76 l-2 -72 123 0 122 0 0 75 0 75 -120
0 c-66 0 -120 -1 -120 -2z"/>
<path d="M7880 3695 l0 -75 120 0 120 0 0 75 0 75 -120 0 -120 0 0 -75z"/>
<path d="M8180 3695 l0 -75 125 0 125 0 0 75 0 75 -125 0 -125 0 0 -75z"/>
<path d="M8490 3695 l0 -75 125 0 125 0 -3 73 -4 72 -121 3 -122 3 0 -76z"/>
<path d="M1480 3486 l0 -75 120 2 120 2 0 73 0 72 -120 0 -120 0 0 -74z"/>
<path d="M1782 3488 l3 -73 123 0 122 -1 0 73 0 73 -125 0 -126 0 3 -72z"/>
<path d="M2090 3488 l0 -73 125 -2 125 -2 0 74 0 75 -125 0 -125 0 0 -72z"/>
<path d="M2400 3487 l0 -72 121 0 120 0 2 73 2 72 -122 0 -123 0 0 -73z"/>
<path d="M2702 3488 l3 -73 123 -1 122 -1 0 74 0 73 -126 0 -126 0 4 -72z"/>
<path d="M3010 3484 l0 -75 123 3 122 3 3 73 3 72 -126 0 -125 0 0 -76z"/>
<path d="M3320 3485 l0 -75 120 0 120 0 0 75 0 75 -120 0 -120 0 0 -75z"/>
<path d="M3622 3488 l3 -73 120 0 120 0 3 73 3 72 -126 0 -126 0 3 -72z"/>
<path d="M3930 3486 l0 -74 120 0 120 0 0 74 0 74 -120 0 -120 0 0 -74z"/>
<path d="M4230 3485 l0 -74 121 2 121 2 1 73 2 72 -122 0 -123 0 0 -75z"/>
<path d="M4534 3488 l1 -73 123 -1 122 -1 0 74 0 73 -123 0 -124 0 1 -72z"/>
<path d="M4840 3484 l0 -75 120 2 120 2 0 74 0 73 -120 0 -120 0 0 -76z"/>
<path d="M5140 3487 l0 -72 123 0 122 0 3 73 3 72 -126 0 -125 0 0 -73z"/>
<path d="M5450 3485 l0 -74 118 2 117 2 3 73 3 72 -121 0 -120 0 0 -75z"/>
<path d="M5750 3484 l0 -75 120 2 120 3 0 73 0 73 -120 0 -120 0 0 -76z"/>
<path d="M6050 3486 l0 -74 123 2 122 1 3 73 3 72 -126 0 -125 0 0 -74z"/>
<path d="M6352 3488 l3 -73 123 -3 122 -2 0 75 0 75 -126 0 -126 0 4 -72z"/>
<path d="M6660 3484 l0 -76 123 4 122 4 3 72 3 72 -126 0 -125 0 0 -76z"/>
<path d="M6970 3495 c0 -36 0 -68 0 -72 0 -5 54 -10 120 -11 l120 -4 0 76 0
76 -120 0 -120 0 0 -65z"/>
<path d="M7270 3484 l0 -75 123 3 122 3 3 73 3 72 -126 0 -125 0 0 -76z"/>
<path d="M7577 3488 l1 -73 121 -1 121 -1 0 74 0 73 -122 0 -123 0 2 -72z"/>
<path d="M7880 3485 l0 -75 120 0 120 0 0 75 0 75 -120 0 -120 0 0 -75z"/>
<path d="M8182 3488 l3 -72 123 -4 122 -4 0 76 0 76 -125 0 -126 0 3 -72z"/>
<path d="M8490 3487 l0 -73 122 1 123 0 1 73 2 72 -124 0 -124 0 0 -73z"/>
<path d="M1480 3283 l0 -73 120 0 120 0 0 74 0 75 -120 -2 -120 -2 0 -72z"/>
<path d="M1784 3351 c-2 -2 -4 -35 -4 -73 l0 -68 125 0 125 0 0 73 0 72 -121
0 c-66 0 -122 -2 -125 -4z"/>
<path d="M2090 3284 l0 -74 125 0 125 0 0 75 0 75 -125 -1 -125 -2 0 -73z"/>
<path d="M2400 3284 l0 -74 120 0 120 0 0 65 c0 36 0 68 0 72 0 4 -54 9 -120
10 l-120 2 0 -75z"/>
<path d="M2706 3353 c-3 -4 -6 -37 -6 -75 l0 -68 125 0 125 0 0 73 0 72 -119
2 c-66 1 -122 -1 -125 -4z"/>
<path d="M3078 3353 l-68 -4 0 -69 0 -70 125 0 126 0 -3 73 -3 72 -55 1 c-30
0 -85 -1 -122 -3z"/>
<path d="M3320 3284 l0 -74 120 0 120 0 0 74 0 75 -120 -1 -120 0 0 -74z"/>
<path d="M3627 3354 c-4 -4 -7 -38 -7 -76 l0 -68 125 0 126 0 -3 72 -3 72
-115 4 c-64 1 -119 0 -123 -4z"/>
<path d="M3930 3283 l0 -73 120 0 120 0 0 75 0 74 -120 -1 -120 -2 0 -73z"/>
<path d="M4248 3352 c-15 -3 -18 -15 -18 -73 l0 -69 123 0 122 0 -2 72 -2 72
-103 1 c-57 1 -111 0 -120 -3z"/>
<path d="M4537 3353 c-2 -4 -4 -38 -4 -75 l-1 -68 124 0 124 0 0 73 0 73 -119
3 c-65 1 -121 -1 -124 -6z"/>
<path d="M4840 3283 l0 -73 120 0 120 0 0 74 0 74 -120 -1 -120 -2 0 -72z"/>
<path d="M5173 3353 l-33 -4 0 -70 0 -69 125 0 126 0 -3 73 -3 72 -90 1 c-49
1 -105 -1 -122 -3z"/>
<path d="M5450 3284 l0 -74 120 0 121 0 -3 73 -3 72 -117 1 -118 2 0 -74z"/>
<path d="M5750 3284 l0 -74 120 0 120 0 0 74 0 74 -120 0 -120 1 0 -75z"/>
<path d="M6050 3283 l0 -73 125 0 126 0 -3 73 -3 72 -122 0 -123 0 0 -72z"/>
<path d="M6356 3351 c-2 -3 -4 -36 -5 -73 l-2 -68 125 0 126 0 0 74 0 73 -120
0 c-66 1 -122 -2 -124 -6z"/>
<path d="M6660 3284 l0 -74 125 0 126 0 -3 70 -3 71 -122 3 -123 4 0 -74z"/>
<path d="M6970 3355 c-1 0 -2 -33 -3 -73 l-2 -72 123 0 122 0 0 75 0 75 -120
-3 c-66 -1 -120 -2 -120 -2z"/>
<path d="M7274 3351 c-2 -2 -4 -35 -4 -73 l0 -68 125 0 126 0 -3 73 -3 72
-118 0 c-65 0 -120 -2 -123 -4z"/>
<path d="M7580 3355 c-1 0 -2 -33 -3 -73 l-2 -72 123 0 122 0 0 73 0 72 -120
0 c-66 0 -120 0 -120 0z"/>
<path d="M7880 3283 l0 -73 120 0 120 0 0 73 0 73 -120 0 -120 0 0 -73z"/>
<path d="M8187 3354 c-4 -4 -7 -38 -7 -76 l0 -68 125 0 125 0 0 73 0 72 -118
3 c-65 1 -121 0 -125 -4z"/>
<path d="M8490 3284 l0 -74 123 0 124 0 -1 73 -1 72 -122 1 -123 1 0 -73z"/>
<path d="M1480 3075 l0 -75 120 0 120 0 0 75 0 75 -120 0 -120 0 0 -75z"/>
<path d="M1780 3075 l0 -75 125 0 125 0 0 75 0 75 -125 0 -125 0 0 -75z"/>
<path d="M2090 3075 l0 -75 125 0 125 0 0 75 0 75 -125 0 -125 0 0 -75z"/>
<path d="M2400 3075 l0 -75 123 0 122 0 0 75 0 75 -122 0 -123 0 0 -75z"/>
<path d="M2700 3075 l0 -75 125 0 125 0 0 75 0 75 -125 0 -125 0 0 -75z"/>
<path d="M3010 3075 l0 -75 125 0 125 0 0 75 0 75 -125 0 -125 0 0 -75z"/>
<path d="M3320 3075 l0 -75 120 0 120 0 0 75 0 75 -120 0 -120 0 0 -75z"/>
<path d="M3620 3075 l0 -75 125 0 125 0 0 75 0 75 -125 0 -125 0 0 -75z"/>
<path d="M3930 3075 l0 -75 120 0 120 0 0 75 0 75 -120 0 -120 0 0 -75z"/>
<path d="M4230 3075 l0 -75 123 0 122 0 -3 75 -4 75 -119 0 -119 0 0 -75z"/>
<path d="M4530 3075 l0 -75 125 0 125 0 0 75 0 75 -125 0 -125 0 0 -75z"/>
<path d="M4840 3075 l0 -75 120 0 120 0 0 75 0 75 -120 0 -120 0 0 -75z"/>
<path d="M5140 3075 l0 -75 125 0 125 0 0 75 0 75 -125 0 -125 0 0 -75z"/>
<path d="M5450 3075 l0 -75 120 0 120 0 0 75 0 75 -120 0 -120 0 0 -75z"/>
<path d="M5750 3075 l0 -75 120 0 120 0 0 75 0 75 -120 0 -120 0 0 -75z"/>
<path d="M6050 3075 l0 -75 125 0 125 0 0 75 0 75 -125 0 -125 0 0 -75z"/>
<path d="M6350 3075 l0 -75 125 0 125 0 0 75 0 75 -125 0 -125 0 0 -75z"/>
<path d="M6660 3075 l0 -75 125 0 125 0 0 75 0 75 -125 0 -125 0 0 -75z"/>
<path d="M6970 3075 l0 -75 120 0 120 0 0 75 0 75 -120 0 -120 0 0 -75z"/>
<path d="M7270 3075 l0 -75 125 0 125 0 0 75 0 75 -125 0 -125 0 0 -75z"/>
<path d="M7575 3075 l0 -75 123 0 122 0 0 75 0 75 -122 0 -123 0 0 -75z"/>
<path d="M7880 3075 l0 -75 120 0 120 0 0 75 0 75 -120 0 -120 0 0 -75z"/>
<path d="M8180 3075 l0 -75 125 0 125 0 0 75 0 75 -125 0 -125 0 0 -75z"/>
<path d="M8490 3075 l0 -75 123 0 123 0 0 75 0 75 -123 0 -123 0 0 -75z"/>
<path d="M1480 2871 l0 -70 120 -3 120 -3 0 73 0 72 -120 0 -120 0 0 -69z"/>
<path d="M1782 2869 l3 -70 123 -2 122 -2 0 73 0 72 -125 0 -126 0 3 -71z"/>
<path d="M2090 2868 l0 -73 125 0 125 0 0 73 0 72 -125 0 -125 0 0 -72z"/>
<path d="M2400 2870 l0 -70 123 0 122 0 0 70 0 70 -122 0 -123 0 0 -70z"/>
<path d="M2702 2869 l3 -70 123 -2 122 -2 0 73 0 72 -125 0 -126 0 3 -71z"/>
<path d="M3010 2870 l0 -70 115 0 c63 0 118 -1 123 -2 4 -2 8 30 10 70 l3 72
-126 0 -125 0 0 -70z"/>
<path d="M3320 2868 l0 -73 120 0 120 0 0 73 0 72 -120 0 -120 0 0 -72z"/>
<path d="M3620 2868 l0 -73 122 2 123 2 3 71 3 70 -126 0 -125 0 0 -72z"/>
<path d="M3930 2868 l0 -73 120 3 120 3 0 70 0 69 -120 0 -120 0 0 -72z"/>
<path d="M4230 2868 l0 -73 121 2 121 2 1 70 2 71 -122 0 -123 0 0 -72z"/>
<path d="M4535 2869 l0 -70 120 0 120 0 3 70 3 71 -123 0 -123 0 0 -71z"/>
<path d="M4840 2868 l0 -73 120 0 120 0 0 73 0 72 -120 0 -120 0 0 -72z"/>
<path d="M5142 2869 l3 -70 120 0 120 0 3 70 3 71 -126 0 -126 0 3 -71z"/>
<path d="M5450 2868 l0 -73 117 2 118 2 3 70 3 71 -121 0 -120 0 0 -72z"/>
<path d="M5750 2868 l0 -73 120 0 120 0 0 73 0 72 -120 0 -120 0 0 -72z"/>
<path d="M6050 2868 l0 -73 122 2 123 2 3 71 3 70 -126 0 -125 0 0 -72z"/>
<path d="M6352 2869 l3 -70 123 -2 122 -2 0 73 0 72 -126 0 -126 0 4 -71z"/>
<path d="M6660 2870 l0 -70 125 0 125 0 0 70 0 70 -125 0 -125 0 0 -70z"/>
<path d="M6970 2868 l0 -73 120 0 120 0 0 73 0 72 -120 0 -120 0 0 -72z"/>
<path d="M7270 2868 l0 -73 122 2 123 2 3 70 3 71 -126 0 -125 0 0 -72z"/>
<path d="M7577 2870 l1 -71 121 -2 121 -2 0 73 0 72 -122 0 -123 0 2 -70z"/>
<path d="M7880 2868 l0 -73 120 0 120 0 0 73 0 72 -120 0 -120 0 0 -72z"/>
<path d="M8182 2870 l3 -71 123 -2 122 -2 0 73 0 72 -125 0 -126 0 3 -70z"/>
<path d="M8490 2868 l0 -73 122 2 123 2 2 70 1 71 -124 0 -124 0 0 -72z"/>
<path d="M1480 2665 l0 -75 120 0 120 0 0 75 0 75 -120 0 -120 0 0 -75z"/>
<path d="M1787 2733 c-4 -3 -7 -37 -7 -75 l0 -68 125 0 125 0 0 75 0 75 -118
0 c-65 0 -122 -3 -125 -7z"/>
<path d="M2090 2665 l0 -75 125 0 125 0 0 75 0 75 -125 0 -125 0 0 -75z"/>
<path d="M2400 2665 l0 -75 123 0 122 0 -3 75 -4 75 -119 0 -119 0 0 -75z"/>
<path d="M2707 2733 c-4 -3 -7 -37 -7 -75 l0 -68 125 0 125 0 0 75 0 75 -118
0 c-65 0 -122 -3 -125 -7z"/>
<path d="M3010 2665 l0 -75 125 0 125 0 0 75 0 75 -125 0 -125 0 0 -75z"/>
<path d="M3320 2665 l0 -75 120 0 120 0 0 75 0 75 -120 0 -120 0 0 -75z"/>
<path d="M3620 2665 l0 -75 125 0 125 0 0 75 0 75 -125 0 -125 0 0 -75z"/>
<path d="M3930 2665 l0 -75 120 0 120 0 0 75 0 75 -120 0 -120 0 0 -75z"/>
<path d="M4230 2665 l0 -75 123 0 122 0 -2 72 -1 73 -121 3 -121 3 0 -76z"/>
<path d="M4537 2733 c-4 -3 -7 -37 -7 -75 l0 -68 125 0 125 0 0 75 0 75 -118
0 c-65 0 -122 -3 -125 -7z"/>
<path d="M4840 2665 l0 -75 120 0 120 0 0 75 0 75 -120 0 -120 0 0 -75z"/>
<path d="M5140 2665 l0 -75 125 0 126 0 -3 73 -3 72 -122 3 -123 3 0 -76z"/>
<path d="M5450 2665 l0 -75 120 0 121 0 -3 73 -3 72 -117 3 -118 3 0 -76z"/>
<path d="M5750 2665 l0 -75 120 0 120 0 0 75 0 75 -120 0 -120 0 0 -75z"/>
<path d="M6050 2665 l0 -75 125 0 126 0 -3 73 -3 72 -122 3 -123 3 0 -76z"/>
<path d="M6357 2733 c-4 -3 -7 -37 -7 -75 l0 -68 125 0 125 0 0 75 0 75 -118
0 c-65 0 -122 -3 -125 -7z"/>
<path d="M6660 2665 l0 -75 125 0 126 0 -3 73 -3 72 -122 3 -123 3 0 -76z"/>
<path d="M6970 2665 l0 -75 120 0 120 0 0 75 0 75 -120 0 -120 0 0 -75z"/>
<path d="M7270 2665 l0 -75 125 0 125 0 0 75 0 75 -125 0 -125 0 0 -75z"/>
<path d="M7580 2738 c-1 -2 -2 -36 -3 -76 l-2 -72 123 0 122 0 0 75 0 75 -120
0 c-66 0 -120 -1 -120 -2z"/>
<path d="M7880 2665 l0 -75 120 0 120 0 0 75 0 75 -120 0 -120 0 0 -75z"/>
<path d="M8180 2665 l0 -75 125 0 125 0 0 75 0 75 -125 0 -125 0 0 -75z"/>
<path d="M8490 2665 l0 -75 124 0 124 0 -1 73 -2 72 -122 3 -123 3 0 -76z"/>
<path d="M1480 2455 l0 -75 120 0 120 0 0 75 0 75 -120 0 -120 0 0 -75z"/>
<path d="M1782 2458 l3 -73 123 -3 122 -3 0 76 0 75 -125 0 -126 0 3 -72z"/>
<path d="M2090 2455 l0 -75 125 0 125 0 0 75 0 75 -125 0 -125 0 0 -75z"/>
<path d="M2400 2455 l0 -76 121 3 121 3 1 73 2 72 -122 0 -123 0 0 -75z"/>
<path d="M2702 2458 l3 -73 123 -3 122 -3 0 76 0 75 -126 0 -126 0 4 -72z"/>
<path d="M3010 2455 l0 -75 125 0 125 0 0 75 0 75 -125 0 -125 0 0 -75z"/>
<path d="M3320 2455 l0 -75 120 0 120 0 0 75 0 75 -120 0 -120 0 0 -75z"/>
<path d="M3620 2455 l0 -75 125 0 125 0 0 75 0 75 -125 0 -125 0 0 -75z"/>
<path d="M3930 2455 l0 -75 120 0 120 0 0 75 0 75 -120 0 -120 0 0 -75z"/>
<path d="M4230 2455 l0 -76 121 3 121 3 1 73 2 72 -122 0 -123 0 0 -75z"/>
<path d="M4533 2458 l2 -73 123 -3 122 -3 0 76 0 75 -124 0 -125 0 2 -72z"/>
<path d="M4840 2455 l0 -75 120 0 120 0 0 75 0 75 -120 0 -120 0 0 -75z"/>
<path d="M5140 2455 l0 -75 125 0 125 0 0 75 0 75 -125 0 -125 0 0 -75z"/>
<path d="M5450 2455 l0 -76 118 3 117 3 3 73 3 72 -121 0 -120 0 0 -75z"/>
<path d="M5750 2455 l0 -75 120 0 120 0 0 75 0 75 -120 0 -120 0 0 -75z"/>
<path d="M6050 2455 l0 -75 125 0 125 0 0 75 0 75 -125 0 -125 0 0 -75z"/>
<path d="M6355 2458 l0 -73 123 -3 122 -3 0 76 0 75 -123 0 -123 0 1 -72z"/>
<path d="M6660 2455 l0 -76 123 3 122 3 3 73 3 72 -126 0 -125 0 0 -75z"/>
<path d="M6968 2459 c-2 -39 -1 -73 1 -75 2 -2 58 -4 123 -4 l118 0 0 75 0 75
-119 0 -119 0 -4 -71z"/>
<path d="M7270 2455 l0 -76 123 3 122 3 3 73 3 72 -126 0 -125 0 0 -75z"/>
<path d="M7577 2458 l1 -73 121 -3 121 -3 0 76 0 75 -122 0 -123 0 2 -72z"/>
<path d="M7880 2455 l0 -75 120 0 120 0 0 75 0 75 -120 0 -120 0 0 -75z"/>
<path d="M8180 2455 l0 -75 125 0 125 0 0 75 0 75 -125 0 -125 0 0 -75z"/>
<path d="M8490 2455 l0 -76 121 3 121 3 4 73 4 72 -125 0 -125 0 0 -75z"/>
<path d="M1480 2255 l0 -75 120 0 120 0 0 73 0 72 -120 2 -120 2 0 -74z"/>
<path d="M1784 2321 c-2 -2 -4 -35 -4 -73 l0 -68 125 0 125 0 0 73 0 72 -121
0 c-66 0 -123 -2 -125 -4z"/>
<path d="M2090 2253 l0 -73 125 0 125 0 0 73 0 72 -125 0 -125 0 0 -72z"/>
<path d="M2704 2321 c-2 -2 -4 -35 -4 -73 l0 -68 125 0 125 0 0 73 0 72 -121
0 c-66 0 -123 -2 -125 -4z"/>
<path d="M3014 2321 c-2 -2 -4 -35 -4 -73 l0 -68 125 0 126 0 -3 70 -3 71
-118 2 c-65 1 -121 0 -123 -2z"/>
<path d="M3320 2253 l0 -73 120 0 120 0 0 73 0 72 -120 0 -120 0 0 -72z"/>
<path d="M3624 2321 c-2 -2 -4 -35 -4 -73 l0 -68 125 0 126 0 -3 71 -3 70
-118 2 c-65 1 -121 0 -123 -2z"/>
<path d="M3930 2253 l0 -73 120 0 120 0 0 73 0 72 -120 0 -120 0 0 -72z"/>
<path d="M4230 2253 l0 -73 123 0 122 0 -2 70 -1 71 -121 2 -121 2 0 -72z"/>
<path d="M4534 2321 c-2 -2 -4 -35 -4 -73 l0 -68 125 0 126 0 -3 71 -3 70
-118 2 c-65 1 -121 0 -123 -2z"/>
<path d="M4840 2253 l0 -73 120 0 120 0 0 73 0 72 -120 0 -120 0 0 -72z"/>
<path d="M5258 2322 l-118 -3 0 -69 0 -70 125 0 125 0 0 69 c0 39 -3 71 -7 73
-5 2 -61 2 -125 0z"/>
<path d="M5450 2253 l0 -73 120 0 121 0 -3 72 -3 71 -117 1 -118 1 0 -72z"/>
<path d="M5868 2323 l-118 -4 0 -69 0 -70 120 0 120 0 0 75 c0 41 -1 74 -2 73
-2 -1 -56 -4 -120 -5z"/>
<path d="M6050 2253 l0 -73 125 0 126 0 -3 70 -3 71 -123 2 -122 2 0 -72z"/>
<path d="M6354 2321 c-2 -2 -4 -35 -4 -73 l0 -68 125 0 125 0 0 73 0 72 -121
0 c-66 0 -123 -2 -125 -4z"/>
<path d="M6660 2253 l0 -73 125 0 126 0 -3 70 -3 71 -123 2 -122 2 0 -72z"/>
<path d="M6967 2323 c-1 -1 -1 -33 1 -72 l4 -71 119 0 119 0 0 73 0 72 -121 0
c-66 0 -121 -1 -122 -2z"/>
<path d="M7388 2322 l-118 -3 0 -69 0 -70 125 0 125 0 0 69 c0 39 -3 71 -7 73
-5 2 -61 2 -125 0z"/>
<path d="M7579 2325 c0 0 -1 -33 -2 -73 l-2 -72 123 0 122 0 0 69 0 70 -120 3
c-66 2 -120 3 -121 3z"/>
<path d="M7993 2323 l-113 -4 0 -69 0 -70 120 0 120 0 0 75 c0 41 -3 74 -7 73
-5 -1 -59 -4 -120 -5z"/>
<path d="M8184 2321 c-2 -2 -4 -35 -4 -73 l0 -68 125 0 125 0 0 73 0 72 -121
0 c-66 0 -123 -2 -125 -4z"/>
<path d="M8490 2253 l0 -73 123 0 122 0 0 69 0 70 -123 3 -122 3 0 -72z"/>
<path d="M2400 2250 l0 -70 123 0 122 0 0 70 0 70 -122 0 -123 0 0 -70z"/>
<path d="M1480 2050 l0 -70 120 0 120 0 0 70 0 70 -120 0 -120 0 0 -70z"/>
<path d="M1780 2050 l0 -70 125 0 125 0 0 70 0 70 -125 0 -125 0 0 -70z"/>
<path d="M2090 2050 l0 -70 125 0 125 0 0 70 0 70 -125 0 -125 0 0 -70z"/>
<path d="M2400 2050 l0 -70 123 0 122 0 0 70 0 70 -122 0 -123 0 0 -70z"/>
<path d="M2700 2050 l0 -70 125 0 125 0 0 70 0 70 -125 0 -125 0 0 -70z"/>
<path d="M3010 2050 l0 -70 125 0 125 0 0 70 0 70 -125 0 -125 0 0 -70z"/>
<path d="M3320 2050 l0 -70 120 0 120 0 0 70 0 70 -120 0 -120 0 0 -70z"/>
<path d="M3620 2050 l0 -70 125 0 125 0 0 70 0 70 -125 0 -125 0 0 -70z"/>
<path d="M3930 2050 l0 -70 120 0 120 0 0 70 0 70 -120 0 -120 0 0 -70z"/>
<path d="M4230 2050 l0 -70 123 0 122 0 0 70 0 70 -122 0 -123 0 0 -70z"/>
<path d="M4532 2050 l-3 -70 125 0 126 0 0 70 0 70 -122 0 -123 0 -3 -70z"/>
<path d="M4840 2050 l0 -70 120 0 120 0 0 70 0 70 -120 0 -120 0 0 -70z"/>
<path d="M5140 2050 l0 -70 125 0 125 0 0 70 0 70 -125 0 -125 0 0 -70z"/>
<path d="M5450 2050 l0 -70 120 0 120 0 0 70 0 70 -120 0 -120 0 0 -70z"/>
<path d="M5750 2050 l0 -70 120 0 120 0 0 70 0 70 -120 0 -120 0 0 -70z"/>
<path d="M6050 2050 l0 -70 125 0 125 0 0 70 0 70 -125 0 -125 0 0 -70z"/>
<path d="M6350 2050 l0 -70 125 0 125 0 0 70 0 70 -125 0 -125 0 0 -70z"/>
<path d="M6660 2050 l0 -70 125 0 125 0 0 70 0 70 -125 0 -125 0 0 -70z"/>
<path d="M6968 2050 l4 -70 119 0 119 0 0 70 0 70 -122 0 -123 0 3 -70z"/>
<path d="M7270 2050 l0 -70 125 0 125 0 0 70 0 70 -125 0 -125 0 0 -70z"/>
<path d="M7575 2050 l0 -70 123 0 122 0 0 70 0 70 -122 0 -123 0 0 -70z"/>
<path d="M7880 2050 l0 -70 120 0 120 0 0 70 0 70 -120 0 -120 0 0 -70z"/>
<path d="M8180 2050 l0 -70 125 0 125 0 0 70 0 70 -125 0 -125 0 0 -70z"/>
<path d="M8490 2050 l0 -70 125 0 124 0 0 70 0 70 -125 0 -124 0 0 -70z"/>
</g>
</svg>
