
<svg version="1.0" xmlns="http://www.w3.org/2000/svg"
 width="921.131913pt" height="1424.795788pt" viewBox="0 0 921.131913 1424.795788"
 preserveAspectRatio="xMidYMid meet">
<metadata>Created by Svg.la</metadata>
<g transform="translate(-75.396143,1491.510880) scale(0.100000,-0.100000)"
fill="#000000" stroke="none">
<path d="M3995 14913 c-423 -32 -755 -267 -955 -678 -94 -193 -148 -380 -225
-780 -94 -490 -185 -729 -340 -893 -80 -85 -153 -129 -235 -144 -59 -10 -62
-12 -44 -25 38 -30 100 -53 142 -53 81 0 205 52 350 147 46 30 85 53 87 51 2
-2 -8 -38 -22 -82 -19 -54 -33 -81 -47 -87 -12 -4 -66 -25 -121 -45 -335 -123
-430 -186 -574 -379 -119 -160 -199 -311 -371 -705 -56 -129 -115 -261 -131
-292 -30 -60 -36 -111 -18 -150 8 -20 1 -46 -46 -163 -136 -334 -283 -755
-341 -975 -68 -260 -25 -420 278 -1033 98 -197 178 -360 178 -363 0 -2 -8 -4
-17 -4 -41 0 -217 -70 -290 -115 -96 -60 -226 -184 -292 -279 -229 -334 -269
-775 -115 -1285 114 -374 322 -800 526 -1076 96 -130 302 -337 414 -417 369
-263 757 -301 1129 -110 290 150 550 444 759 861 122 243 224 364 360 427 122
56 175 65 433 70 266 5 352 17 458 69 184 88 299 282 221 372 l-24 28 -156 -3
c-86 -2 -180 1 -209 7 -186 34 -304 144 -352 328 -19 74 -19 143 1 171 13 18
63 52 77 52 2 0 0 -25 -5 -55 -18 -120 24 -247 108 -324 96 -88 227 -117 414
-92 107 15 157 4 200 -46 41 -46 54 -102 41 -176 -15 -86 -46 -144 -115 -213
-147 -147 -309 -194 -667 -194 -161 0 -209 -3 -271 -19 -103 -27 -171 -63
-241 -130 -72 -67 -124 -146 -204 -306 -183 -370 -403 -641 -662 -815 -137
-92 -336 -170 -478 -187 -52 -6 -53 -7 -64 -47 -29 -106 -59 -283 -70 -412
-12 -133 -14 -143 -34 -148 -36 -9 -44 -42 -34 -146 5 -52 20 -237 34 -410 14
-173 36 -425 50 -560 35 -351 39 -428 26 -476 -9 -35 -8 -52 9 -105 l19 -64
-33 -140 c-19 -77 -44 -183 -56 -235 -12 -52 -51 -178 -87 -280 -110 -313
-134 -391 -154 -493 -88 -452 148 -725 490 -566 96 44 206 159 259 269 23 47
48 114 56 150 16 72 36 275 36 369 0 50 4 64 24 85 29 28 43 75 87 301 31 155
34 187 35 362 1 161 3 196 17 217 13 19 17 49 17 121 0 70 8 132 31 233 189
848 269 1228 269 1278 0 22 -7 38 -21 48 -21 14 -21 17 -9 183 14 214 24 275
56 359 50 130 85 269 134 529 27 143 52 282 55 308 7 45 9 48 34 43 72 -15
503 -38 632 -34 l147 4 6 -71 c8 -86 58 -337 92 -463 26 -97 88 -251 154 -382
34 -68 40 -91 54 -216 9 -76 21 -168 27 -203 8 -53 7 -66 -6 -81 -35 -38 -22
-100 190 -940 81 -321 95 -414 77 -523 -13 -79 -7 -100 45 -157 l44 -50 -17
-77 c-26 -115 -22 -214 15 -388 18 -82 37 -187 42 -233 9 -88 31 -142 73 -181
24 -23 26 -31 26 -110 1 -351 88 -582 271 -716 86 -64 157 -88 254 -88 155 0
259 80 316 244 18 51 22 85 22 169 -2 157 -32 280 -150 600 -89 242 -127 379
-179 640 l-44 225 19 46 c18 40 19 61 14 190 -4 104 1 207 16 374 38 423 44
529 45 775 l1 245 -40 9 c-22 5 -41 10 -42 11 -1 0 -9 59 -17 130 -19 161 -38
239 -116 479 -93 288 -90 265 -90 646 l0 335 65 34 c113 58 310 216 367 295
34 47 35 79 9 184 -11 43 -47 219 -81 392 -33 173 -83 425 -110 560 -27 135
-68 355 -90 490 -22 135 -46 272 -54 305 -8 33 -14 60 -13 61 1 1 169 99 372
219 204 120 385 226 403 237 18 11 34 19 36 17 1 -2 20 -29 41 -59 107 -150
184 -200 308 -200 109 0 274 57 372 128 71 52 154 131 180 173 58 91 71 243
34 401 -12 50 -17 94 -13 98 5 4 126 77 269 160 143 84 352 208 465 276 113
67 229 130 258 139 69 23 141 16 253 -25 145 -53 150 -49 448 315 153 186 204
238 277 281 l41 24 47 -20 c176 -79 360 19 411 218 49 191 -89 407 -274 429
-31 3 -68 -1 -105 -11 -32 -10 -59 -16 -61 -14 -1 2 -5 12 -9 24 -5 15 0 24
18 34 54 28 58 115 8 162 -43 41 -66 43 -127 13 -71 -34 -95 -65 -95 -122 0
-36 6 -50 29 -74 16 -16 38 -29 49 -29 19 0 32 -18 32 -45 0 -7 -46 -32 -101
-56 -96 -40 -103 -41 -115 -25 -11 16 -9 22 22 51 38 36 43 68 19 115 -8 16
-25 36 -37 44 -49 34 -151 8 -197 -50 -49 -63 -6 -174 68 -174 19 0 48 -36 38
-46 -3 -3 -51 -25 -108 -49 -100 -43 -104 -44 -113 -25 -7 15 -4 26 12 43 45
48 45 106 1 153 -47 50 -145 39 -200 -23 -33 -38 -37 -74 -15 -128 16 -38 48
-59 81 -53 17 4 26 -1 34 -18 12 -28 15 -26 -113 -79 -68 -28 -91 -34 -97 -24
-4 8 0 24 12 40 35 50 30 110 -15 155 -28 28 -41 34 -79 34 -48 0 -96 -26
-130 -71 -41 -57 12 -169 81 -169 26 0 42 -14 42 -36 0 -11 -134 -64 -161 -64
-33 0 -44 -16 -65 -98 -18 -69 -67 -146 -126 -197 -23 -20 -133 -86 -243 -147
-110 -60 -274 -150 -365 -200 -91 -50 -233 -128 -316 -173 -148 -82 -151 -83
-191 -72 -79 21 -153 -23 -153 -91 0 -11 -13 -25 -34 -35 l-34 -16 -48 57
c-27 31 -94 104 -150 162 -125 129 -111 89 -224 676 l-31 162 25 26 c14 14 26
31 26 39 0 21 -62 268 -146 582 -193 717 -292 901 -606 1128 -121 88 -187 123
-343 182 l-110 41 -7 -210 c-11 -360 -52 -674 -158 -1190 -124 -603 -426
-1736 -481 -1803 -29 -34 -32 23 -7 142 5 28 57 230 114 450 319 1231 475
2127 450 2588 -4 64 -4 117 -2 117 3 0 89 -29 193 -65 103 -36 191 -65 196
-65 14 0 6 26 -74 219 -157 383 -213 559 -279 878 -72 348 -162 670 -231 829
-93 212 -235 384 -391 472 -153 87 -375 138 -543 125z m422 -640 c-4 -49 -16
-122 -27 -163 -12 -41 -24 -85 -27 -96 -4 -16 26 -69 109 -195 62 -96 138
-211 167 -256 30 -46 59 -83 66 -83 7 0 34 29 59 65 52 72 106 118 132 113 29
-5 37 -62 24 -170 -6 -54 -18 -122 -27 -151 -31 -106 -95 -202 -154 -233 -16
-8 -31 -24 -34 -37 -58 -266 -108 -384 -229 -544 -253 -335 -494 -417 -730
-249 -159 114 -327 345 -420 578 -50 127 -106 426 -106 569 l0 36 118 6 c85 4
142 12 207 32 109 32 271 108 368 172 94 62 245 207 319 307 69 92 152 256
169 333 7 29 14 53 17 53 3 0 2 -39 -1 -87z m256 -1819 c39 -35 95 -71 149
-97 l87 -42 1 -42 c0 -23 -6 -75 -14 -116 -64 -332 -282 -580 -581 -662 -84
-22 -273 -30 -375 -16 -262 39 -504 210 -619 439 l-22 44 40 92 c50 114 81
240 81 329 l0 69 58 -79 c76 -101 175 -200 252 -251 167 -112 338 -114 506 -7
81 52 249 220 314 314 30 44 57 80 58 81 2 0 32 -25 65 -56z m983 -327 c13
-41 -21 -374 -67 -657 -104 -635 -312 -1311 -572 -1857 -45 -94 -83 -170 -85
-169 -1 2 54 169 123 372 144 424 226 689 295 959 94 367 191 868 230 1185 11
96 23 180 25 187 6 18 44 3 51 -20z m-2848 -723 c121 -161 258 -255 412 -285
58 -12 62 -14 35 -20 -237 -53 -486 124 -555 396 -31 121 -26 142 13 60 19
-39 62 -107 95 -151z m-339 -709 c7 -55 24 -151 37 -214 24 -107 87 -304 104
-326 15 -19 32 -181 37 -361 11 -347 -18 -462 -226 -882 -76 -152 -150 -307
-166 -344 -15 -38 -32 -68 -36 -68 -7 0 -89 247 -199 595 -25 79 -106 371
-115 413 -6 28 19 92 169 442 215 499 363 874 367 929 2 20 13 -53 28 -184z
m7051 -15 c42 -42 13 -110 -47 -110 -31 0 -63 34 -63 67 0 57 69 84 110 43z
m-7842 -88 c43 -32 119 -79 168 -104 88 -45 227 -98 258 -98 9 0 16 -1 16 -3
0 -12 -229 -566 -326 -791 l-35 -78 27 -97 c32 -121 334 -1028 404 -1216 61
-166 148 -349 185 -393 15 -18 106 -92 204 -166 97 -73 191 -150 208 -169 17
-20 52 -75 78 -124 64 -119 130 -218 187 -277 26 -27 49 -58 50 -70 3 -19 -2
-21 -51 -21 -51 1 -55 3 -100 51 -25 27 -87 99 -136 159 -70 85 -97 111 -118
113 -78 9 -21 -124 132 -304 78 -93 139 -134 200 -134 93 0 114 -22 59 -63
-36 -27 -158 -36 -209 -14 -20 8 -83 55 -140 104 -127 109 -161 133 -188 133
-55 0 -10 -71 136 -212 104 -100 134 -117 218 -119 22 -1 51 -4 64 -8 l24 -7
-24 -15 c-62 -41 -111 -59 -157 -59 -62 0 -95 23 -259 183 -68 65 -128 117
-135 115 -25 -9 -17 -28 37 -94 98 -121 138 -174 132 -180 -3 -3 -31 8 -64 24
-95 48 -178 151 -287 355 -49 91 -85 194 -151 428 -53 187 -116 329 -289 649
-180 332 -422 822 -483 975 -63 159 -102 290 -110 371 -10 110 54 359 177 684
59 155 212 530 217 530 1 0 38 -26 81 -58z m7521 -58 c26 -33 26 -55 4 -82
-30 -35 -68 -38 -97 -8 -31 30 -33 69 -6 96 29 29 74 26 99 -6z m-3604 -339
c29 -285 197 -966 261 -1061 14 -20 57 -74 96 -121 38 -46 68 -86 67 -87 -2
-2 -69 -38 -149 -81 -80 -43 -176 -96 -213 -117 -38 -22 -71 -38 -73 -35 -11
11 -111 268 -154 397 -53 158 -86 300 -96 408 -8 80 9 260 37 412 24 125 18
104 115 405 l78 240 8 -105 c4 -58 15 -172 23 -255z m3293 229 c32 -22 30 -76
-5 -103 -30 -24 -58 -20 -85 11 -24 27 -23 57 4 85 25 27 54 29 86 7z m305
-52 c-6 -4 -77 -49 -159 -100 -82 -51 -192 -120 -244 -154 -52 -33 -194 -119
-315 -191 -121 -72 -221 -132 -223 -133 -5 -3 19 -48 29 -54 4 -3 10 -17 14
-32 5 -21 2 -29 -15 -38 -16 -9 -25 -9 -36 1 -12 9 -43 -5 -167 -76 -83 -48
-154 -89 -156 -91 -3 -3 1 -10 7 -16 15 -15 15 -38 0 -38 -6 0 -19 7 -29 16
-20 18 -2 26 -207 -93 -84 -50 -91 -56 -81 -75 17 -32 -6 -47 -29 -18 l-19 23
-69 -42 c-39 -22 -74 -41 -78 -41 -18 0 10 22 69 56 36 19 67 39 69 43 2 3 -4
17 -14 30 l-17 24 -69 -39 c-85 -48 -84 -48 -84 -36 0 5 32 28 70 51 39 23 70
46 70 50 0 5 -8 19 -18 31 l-17 21 -82 -45 c-88 -50 -95 -53 -87 -32 3 7 40
33 84 56 l78 44 -16 25 c-9 14 -17 28 -19 30 -1 2 -33 -14 -70 -36 -97 -57
-133 -75 -133 -64 0 4 43 34 96 66 74 44 94 60 89 73 -11 30 -10 36 6 39 10 3
19 -4 22 -18 l6 -22 35 21 c19 11 85 48 145 83 99 55 110 64 105 84 -7 28 9
40 26 20 7 -8 17 -15 21 -15 5 0 77 39 159 86 132 75 149 88 145 107 -3 12 1
31 10 42 15 20 15 20 36 -4 16 -19 24 -23 37 -15 159 96 345 195 359 192 11
-2 -53 -43 -162 -105 -229 -130 -209 -116 -196 -142 7 -11 16 -21 22 -21 9 0
261 150 568 338 74 46 111 62 111 48 0 -6 -393 -250 -542 -337 -70 -41 -127
-76 -127 -79 0 -3 8 -16 18 -29 l18 -24 69 38 c127 70 357 208 559 334 261
162 328 202 334 195 3 -3 0 -8 -6 -12z m-2874 -364 c84 -408 80 -372 39 -388
-55 -22 -161 -96 -187 -130 -13 -18 -20 -31 -15 -28 158 75 256 94 329 64 19
-8 57 -36 84 -61 50 -47 137 -153 130 -158 -2 -2 -132 -74 -289 -161 l-285
-158 -60 65 c-109 117 -152 212 -220 487 -40 160 -99 435 -116 538 -14 82 -9
92 42 92 51 0 255 58 364 103 61 25 112 46 115 46 3 1 34 -140 69 -311z m2259
296 c47 -33 16 -124 -43 -124 -61 0 -87 81 -39 119 32 25 52 26 82 5z m-1397
-1011 c107 -110 163 -199 204 -326 29 -91 31 -142 9 -217 -23 -78 -141 -195
-246 -245 -97 -46 -233 -80 -283 -71 -100 19 -295 279 -295 394 0 82 52 60
112 -48 56 -99 86 -137 123 -154 20 -10 44 -14 56 -11 18 6 17 11 -21 81 -57
102 -120 260 -127 316 -6 47 6 78 29 78 27 0 147 -167 204 -284 30 -61 63 -92
89 -82 30 11 14 60 -80 245 -95 188 -110 236 -80 261 29 24 71 2 111 -58 20
-31 63 -91 94 -132 31 -41 66 -92 79 -112 25 -42 66 -78 89 -78 41 0 -29 163
-131 305 -74 104 -107 164 -107 198 0 31 7 37 44 37 25 0 47 -16 127 -97z
m-2811 16 c157 -35 231 -176 158 -299 -15 -25 -70 -92 -122 -150 -103 -113
-148 -187 -167 -278 -14 -70 -6 -209 16 -275 22 -63 86 -130 163 -171 l63 -33
-42 -28 -43 -28 -35 19 c-20 10 -63 46 -97 79 -81 80 -105 141 -112 285 -5
126 7 193 52 286 33 67 60 102 194 254 35 40 68 84 73 98 25 67 -20 129 -113
157 -69 20 -129 19 -223 -5 -196 -50 -390 -208 -658 -537 -219 -268 -374 -380
-613 -440 -113 -28 -506 -21 -548 10 -9 7 -19 27 -22 45 l-7 33 54 -7 c30 -5
149 -8 264 -8 234 -1 285 9 425 79 134 68 207 135 405 370 232 277 405 428
580 503 60 26 104 38 200 55 26 5 99 -2 155 -14z m2340 -144 c-7 -9 -50 -36
-96 -61 -46 -25 -84 -51 -84 -57 0 -7 7 -21 15 -32 15 -18 16 -18 44 -2 16 9
35 17 41 17 20 0 -6 -26 -40 -40 -25 -10 -28 -15 -19 -32 14 -26 3 -37 -14
-14 -13 17 -21 14 -133 -49 -65 -38 -120 -69 -122 -71 -4 -2 8 -25 26 -53 8
-11 23 -6 76 24 36 20 66 32 66 27 0 -6 -27 -25 -60 -44 -33 -18 -60 -37 -60
-43 0 -5 10 -23 23 -39 l23 -29 43 27 c24 15 45 25 48 22 4 -3 -50 -42 -85
-62 -1 -1 2 -14 8 -29 8 -21 8 -31 -1 -39 -8 -8 -13 -8 -16 0 -2 6 -10 19 -17
29 -12 17 -21 14 -129 -49 l-117 -68 16 -30 c12 -23 13 -33 4 -42 -8 -8 -13
-7 -20 4 -31 53 -28 53 -130 -5 -52 -30 -99 -56 -104 -58 -5 -2 -1 -17 8 -34
20 -39 20 -43 1 -43 -9 0 -21 11 -27 25 -6 14 -15 25 -19 25 -5 0 -53 -25
-108 -56 l-99 -55 11 -30 c8 -21 8 -32 0 -40 -9 -9 -15 -5 -25 17 -6 16 -13
30 -14 32 -1 2 -173 -91 -193 -104 -1 -2 4 -13 13 -26 18 -25 21 -58 7 -58 -6
0 -18 14 -28 30 -20 35 -25 36 -67 12 -17 -11 -52 -31 -78 -46 l-48 -27 20
-40 c20 -38 20 -59 -1 -59 -5 0 -17 17 -26 38 -10 20 -18 39 -20 41 -2 3 -127
-65 -161 -88 -12 -7 -11 -14 3 -41 11 -21 13 -36 7 -42 -7 -7 -16 1 -27 23
-10 19 -19 35 -20 37 -2 2 -37 -16 -79 -41 -70 -41 -74 -45 -61 -63 17 -22 20
-64 4 -64 -5 0 -17 16 -25 36 l-15 35 -67 -37 c-37 -20 -69 -39 -71 -41 -3 -2
3 -19 12 -38 20 -41 21 -55 7 -55 -6 0 -18 16 -27 35 -9 19 -21 35 -26 35 -8
0 -102 -54 -116 -66 -2 -2 6 -19 17 -37 11 -20 16 -40 12 -47 -11 -18 -27 -5
-40 35 -6 19 -13 35 -15 35 -4 0 -107 -59 -113 -65 -2 -2 6 -21 17 -44 22 -43
26 -61 13 -61 -4 0 -18 21 -30 46 l-23 46 -47 -28 c-26 -15 -48 -28 -50 -29
-2 -2 7 -23 19 -49 22 -44 22 -65 0 -52 -6 4 -18 22 -27 41 -9 19 -20 35 -25
35 -4 0 -51 -25 -103 -56 -66 -38 -93 -60 -89 -70 3 -8 1 -14 -5 -14 -5 0 -62
-30 -126 -66 -64 -36 -127 -67 -139 -68 -12 -2 -80 -37 -152 -78 -209 -121
-406 -230 -410 -226 -2 2 -1 9 3 15 6 10 255 153 482 276 30 17 57 32 59 33 2
2 -6 19 -18 39 l-21 36 28 15 c15 9 77 44 139 78 l112 63 12 -29 c6 -15 15
-31 20 -34 6 -4 180 90 208 112 2 2 -6 15 -16 31 -11 15 -22 33 -24 40 -2 7
-104 -46 -249 -129 -354 -202 -720 -401 -726 -395 -9 9 44 41 259 157 114 62
210 116 213 121 3 5 -2 19 -10 31 -9 12 -16 26 -16 30 0 4 39 28 88 54 48 26
110 60 138 76 l52 28 19 -29 18 -30 90 50 c50 28 94 54 99 59 9 9 -23 70 -37
70 -5 0 -39 -17 -75 -39 -37 -21 -188 -104 -337 -184 -148 -79 -324 -174 -390
-209 -115 -62 -165 -85 -165 -75 0 7 121 76 317 181 l162 87 -19 32 c-11 18
-20 35 -20 39 0 8 280 151 285 146 1 -2 11 -17 22 -35 l19 -32 90 51 c49 27
93 54 98 58 7 7 -28 80 -38 80 -8 0 -541 -278 -670 -349 -175 -96 -321 -171
-336 -171 -28 0 -1 20 88 64 116 57 412 216 412 221 0 2 -13 33 -30 69 -41 93
-53 141 -40 165 12 23 189 121 218 121 11 0 28 -3 37 -6 15 -6 55 -76 88 -156
l16 -37 -32 -20 c-65 -42 -12 -19 109 46 120 65 124 69 118 95 -3 17 -1 28 5
28 6 0 11 -3 11 -7 0 -5 4 -14 9 -22 7 -11 18 -8 59 15 46 26 50 31 45 56 -6
32 12 39 22 8 8 -26 10 -26 74 11 39 23 50 34 42 42 -16 16 -14 37 3 37 8 0
18 -9 21 -20 6 -19 9 -19 68 15 47 26 61 39 59 54 -4 26 15 36 23 12 5 -18 9
-17 66 15 34 19 65 34 70 34 5 0 7 11 3 25 -7 27 4 33 24 13 18 -18 164 60
156 85 -6 18 6 23 22 8 5 -6 41 8 94 38 69 40 84 53 82 70 -3 22 23 31 30 9 3
-7 35 5 90 35 72 39 85 50 81 67 -6 22 7 26 24 9 9 -9 36 1 107 41 83 46 94
55 93 78 -2 31 20 41 31 13 7 -20 12 -18 110 37 97 54 103 59 98 84 -7 35 8
44 28 17 l15 -22 105 59 c94 52 105 61 100 81 -7 26 10 31 24 8 7 -13 29 -4
130 52 79 45 120 73 117 81 -8 22 4 33 23 21 14 -9 39 1 127 50 97 54 110 64
110 87 0 33 24 44 32 15 5 -19 11 -17 107 34 55 30 103 55 105 55 2 0 -2 -7
-9 -15z m-2611 -1979 c18 -46 31 -94 29 -107 -2 -17 -22 -35 -78 -66 -99 -57
-137 -67 -168 -47 -22 15 -86 138 -80 156 3 8 246 146 259 147 3 1 21 -37 38
-83z m-1993 -169 c51 -44 19 -137 -47 -137 -30 0 -77 35 -80 60 -10 87 63 131
127 77z m65 -139 c12 -24 69 -113 127 -198 81 -118 117 -183 153 -270 l46
-115 -34 -11 c-19 -7 -42 -19 -52 -28 -10 -9 -22 -16 -27 -15 -11 1 -268 515
-290 579 -11 34 -12 46 -3 49 7 2 22 14 33 26 12 13 22 23 23 24 2 1 12 -18
24 -41z m928 -270 c27 -43 30 -74 11 -105 -21 -35 -147 -104 -190 -105 -34 -1
-73 29 -96 75 l-15 27 37 0 c43 0 159 58 199 101 34 35 36 35 54 7z m-544
-369 c41 -40 42 -100 2 -135 -32 -28 -56 -30 -97 -9 -78 40 -82 138 -7 170 40
17 64 11 102 -26z m274 -464 c16 -8 41 -29 56 -47 24 -28 27 -38 23 -87 -4
-47 -10 -59 -39 -83 -70 -59 -161 -26 -189 69 -33 111 54 198 149 148z m-489
-220 c15 -8 38 -27 49 -41 39 -50 22 -167 -28 -194 -29 -15 -98 -12 -131 5
-38 20 -60 63 -60 118 0 52 27 92 74 113 40 17 61 17 96 -1z"/>
<path d="M7946 9825 c-82 -46 -153 -88 -157 -92 -4 -4 1 -18 11 -30 l18 -23
134 76 c193 110 179 100 166 129 -6 14 -14 25 -17 25 -3 0 -73 -38 -155 -85z"/>
<path d="M7991 9751 c-84 -49 -157 -93 -162 -98 -4 -4 0 -19 10 -32 17 -23 18
-23 52 -6 33 17 270 154 278 162 3 2 -2 17 -10 33 l-14 30 -154 -89z"/>
<path d="M8028 9667 c-87 -51 -158 -94 -158 -97 1 -3 9 -16 20 -28 l20 -24 32
20 c18 11 88 52 155 91 l123 72 -15 30 c-9 16 -17 29 -18 28 -1 0 -73 -42
-159 -92z"/>
<path d="M7610 9634 c-74 -42 -142 -83 -150 -91 -8 -9 -10 -13 -3 -9 7 4 17
-4 25 -19 l13 -25 130 76 c160 94 161 95 143 123 -7 11 -15 21 -18 21 -3 0
-66 -34 -140 -76z"/>
<path d="M7655 9556 c-76 -45 -140 -87 -142 -93 -2 -5 4 -20 14 -32 l18 -22
140 82 c77 45 141 83 143 84 2 2 -5 16 -15 33 l-19 31 -139 -83z"/>
<path d="M7697 9474 l-147 -86 16 -30 c14 -27 17 -28 37 -15 12 7 79 46 149
86 l127 73 -16 26 c-9 15 -17 28 -18 29 0 1 -67 -37 -148 -83z"/>
<path d="M6382 8976 c-62 -35 -115 -66 -119 -69 -7 -8 17 -69 26 -65 52 23
240 136 240 143 1 6 -7 20 -17 32 l-17 22 -113 -63z"/>
<path d="M6170 8858 c-30 -17 -85 -48 -122 -70 l-68 -39 17 -27 c9 -15 18 -29
20 -31 2 -3 227 122 242 135 4 4 -22 64 -29 64 -3 0 -30 -14 -60 -32z"/>
<path d="M6160 8744 c-63 -35 -119 -65 -124 -67 -9 -3 20 -67 31 -67 3 0 59
30 124 66 l119 65 -16 32 c-9 18 -17 33 -18 34 -1 1 -53 -27 -116 -63z"/>
<path d="M5848 8678 l-108 -60 17 -29 c10 -16 21 -29 26 -29 11 0 207 110 207
117 0 6 -30 63 -33 63 -1 -1 -50 -28 -109 -62z"/>
<path d="M6205 8664 c-60 -35 -114 -65 -119 -67 -5 -1 1 -22 13 -45 l21 -41
98 56 c53 31 107 62 119 70 l23 13 -21 38 c-12 20 -22 37 -23 38 0 0 -50 -28
-111 -62z"/>
<path d="M5892 8596 c-51 -29 -95 -56 -98 -59 -5 -5 3 -23 25 -56 14 -22 81
23 81 54 0 31 17 41 38 21 16 -14 21 -13 59 10 l42 24 -17 30 c-9 16 -21 30
-27 30 -5 0 -52 -25 -103 -54z"/>
<path d="M5603 8542 l-101 -57 15 -30 c9 -17 17 -32 19 -34 2 -3 195 101 212
115 6 4 -28 64 -36 64 -4 -1 -53 -27 -109 -58z"/>
<path d="M6009 8550 c-30 -16 -36 -24 -32 -43 6 -31 -10 -41 -38 -26 -17 9
-29 7 -60 -7 -22 -9 -39 -19 -39 -22 0 -6 41 -72 45 -72 4 0 198 109 203 114
2 3 -38 77 -41 76 -1 -1 -18 -9 -38 -20z"/>
<path d="M5660 8465 c-52 -30 -99 -56 -104 -58 -5 -1 0 -19 10 -39 l19 -36
107 59 107 60 -17 34 c-9 19 -19 34 -22 34 -3 0 -48 -24 -100 -54z"/>
<path d="M5368 8414 l-98 -55 23 -34 22 -33 85 45 c116 63 112 58 93 99 -9 19
-19 34 -22 33 -3 -1 -50 -26 -103 -55z"/>
<path d="M5705 8379 c-49 -28 -94 -54 -99 -59 -5 -5 1 -24 13 -43 l22 -35 82
45 c137 75 129 67 110 108 -9 19 -21 35 -27 35 -6 0 -51 -23 -101 -51z"/>
<path d="M5413 8326 c-86 -49 -90 -53 -76 -71 8 -11 18 -26 22 -33 6 -10 29 0
97 38 49 29 91 54 93 56 8 7 -22 64 -33 63 -6 -1 -52 -24 -103 -53z"/>
<path d="M5153 8293 l-82 -46 17 -31 c9 -17 18 -33 19 -35 2 -3 150 76 170 92
10 7 8 16 -8 38 -11 16 -23 29 -27 29 -4 0 -44 -21 -89 -47z"/>
<path d="M5473 8251 c-45 -26 -85 -50 -89 -53 -6 -6 32 -78 42 -78 2 0 44 23
94 51 l89 51 -19 39 c-11 21 -24 39 -28 38 -4 0 -44 -22 -89 -48z"/>
<path d="M5210 8214 c-47 -26 -87 -48 -89 -50 -2 -1 7 -19 19 -38 18 -30 25
-34 41 -26 11 6 18 19 16 33 -2 19 2 22 29 19 26 -2 66 13 112 43 4 3 -32 65
-38 65 -3 0 -43 -21 -90 -46z"/>
<path d="M4953 8182 c-46 -26 -83 -49 -83 -52 1 -3 11 -18 24 -33 l22 -28 82
46 c45 25 82 48 82 51 0 12 -31 64 -38 63 -4 0 -44 -21 -89 -47z"/>
<path d="M5308 8160 c-28 -15 -35 -24 -31 -40 5 -17 1 -20 -25 -20 -17 0 -42
-5 -56 -11 l-25 -12 22 -33 c12 -19 26 -34 30 -34 11 0 156 80 162 90 4 7 -32
81 -38 80 -1 -1 -18 -10 -39 -20z"/>
<path d="M5017 8104 c-44 -24 -83 -44 -88 -44 -14 0 -11 -9 13 -43 12 -18 22
-33 23 -35 2 -2 154 84 163 93 2 2 -5 19 -15 38 l-18 36 -78 -45z"/>
<path d="M4775 8083 c-33 -19 -64 -38 -68 -43 -7 -6 3 -29 29 -69 2 -1 36 16
77 39 l75 43 -20 33 c-11 19 -23 34 -26 33 -4 0 -34 -16 -67 -36z"/>
<path d="M5062 8015 c-41 -24 -76 -46 -79 -48 -3 -3 3 -21 14 -39 10 -18 19
-35 20 -37 2 -2 142 75 171 95 5 3 -40 74 -46 73 -4 0 -40 -20 -80 -44z"/>
<path d="M4825 7998 c-38 -23 -72 -42 -74 -44 -2 -2 7 -19 18 -38 19 -30 25
-34 40 -24 12 7 16 19 13 39 -5 33 3 36 29 13 16 -14 20 -14 51 2 18 9 34 18
36 19 3 2 -38 76 -41 75 -1 -1 -33 -19 -72 -42z"/>
<path d="M4592 7983 c-66 -36 -66 -38 -29 -87 13 -18 16 -17 80 18 37 21 67
40 67 43 0 13 -36 63 -45 62 -5 -1 -38 -17 -73 -36z"/>
<path d="M4912 7932 c-23 -11 -32 -22 -29 -33 6 -21 -16 -32 -31 -17 -7 7 -17
6 -31 -1 l-21 -12 20 -40 21 -40 58 32 c99 54 97 52 71 93 -12 20 -22 36 -23
35 -1 0 -17 -8 -35 -17z"/>
<path d="M4660 7905 c-30 -19 -59 -36 -64 -38 -10 -4 -1 -35 18 -60 13 -17 17
-16 77 19 35 20 65 38 67 39 5 4 -31 75 -37 74 -3 0 -31 -16 -61 -34z"/>
<path d="M4438 7897 l-57 -33 22 -37 21 -36 55 31 c31 17 60 34 65 39 10 9
-24 69 -39 69 -5 0 -36 -15 -67 -33z"/>
<path d="M4305 7825 c-22 -14 -44 -26 -50 -28 -11 -4 25 -77 38 -77 12 0 96
50 103 61 6 10 -32 69 -44 69 -4 0 -25 -12 -47 -25z"/>
<path d="M4502 7816 c-68 -43 -66 -39 -47 -76 19 -37 50 -38 51 0 0 25 2 25
44 13 8 -2 23 2 33 9 16 12 16 15 0 50 -10 21 -20 37 -23 37 -3 0 -29 -15 -58
-33z"/>
<path d="M4705 7814 c-33 -20 -62 -38 -63 -39 -6 -5 7 -38 23 -59 13 -18 17
-17 82 19 37 21 69 39 71 40 4 3 -42 74 -48 74 -3 0 -32 -16 -65 -35z"/>
<path d="M4170 7753 c-25 -14 -47 -27 -49 -29 -4 -4 39 -74 45 -74 3 0 27 11
54 25 l50 25 -22 40 c-13 22 -25 40 -28 40 -3 0 -25 -12 -50 -27z"/>
<path d="M4352 7730 l-52 -31 15 -29 c8 -16 19 -31 25 -35 10 -6 95 39 105 56
7 10 -22 69 -33 69 -4 0 -31 -14 -60 -30z"/>
<path d="M4585 7744 c-11 -8 -19 -24 -17 -34 4 -22 -17 -27 -35 -9 -8 8 -16 7
-31 -2 -20 -12 -20 -13 5 -51 l25 -37 47 26 c72 41 73 43 53 85 -19 42 -20 43
-47 22z"/>
<path d="M4223 7659 c-55 -32 -56 -35 -21 -82 15 -21 48 -14 48 10 0 10 7 14
18 11 10 -3 26 0 36 7 16 12 15 15 -5 49 -11 20 -22 36 -22 35 -1 0 -26 -14
-54 -30z"/>
<path d="M4407 7643 l-57 -34 22 -38 22 -39 51 29 c27 16 51 33 53 38 2 5 -5
25 -15 44 l-18 34 -58 -34z"/>
<path d="M4313 7588 c-4 -7 -6 -23 -4 -35 3 -25 -17 -31 -36 -12 -6 6 -20 8
-31 5 l-21 -7 21 -37 c12 -20 23 -39 24 -40 4 -6 104 52 104 60 0 8 -41 78
-45 78 -2 0 -7 -6 -12 -12z"/>
</g>
</svg>
