<?xml version="1.0" standalone="no"?>
<!DOCTYPE svg PUBLIC "-//W3C//DTD SVG 20010904//EN"
 "http://www.w3.org/TR/2001/REC-SVG-20010904/DTD/svg10.dtd">
<svg version="1.0" xmlns="http://www.w3.org/2000/svg"
 width="774.734900pt" height="750.186667pt" viewBox="0 0 774.734900 750.186667"
 preserveAspectRatio="xMidYMid meet">
<metadata>Created by Svg.la</metadata>
<g transform="translate(-0.112001,779.683688) scale(0.100000,-0.100000)"
fill="#000000" stroke="none">
<path d="M6190 7784 c-41 -8 -111 -32 -155 -53 -75 -35 -84 -42 -141 -122 -34
-46 -69 -98 -78 -116 -25 -49 -39 -176 -32 -290 6 -98 5 -103 -14 -103 -38 0
-53 -42 -48 -133 5 -97 38 -172 111 -252 34 -39 45 -60 50 -97 6 -44 5 -48
-14 -48 -11 0 -59 -18 -106 -40 -47 -23 -143 -63 -212 -91 -69 -28 -157 -68
-194 -90 -84 -50 -169 -133 -202 -198 l-24 -49 28 -84 c105 -303 158 -481 216
-716 36 -145 37 -153 20 -166 -17 -12 -17 -17 -1 -112 9 -54 19 -113 22 -131
3 -19 12 -34 23 -38 19 -6 257 22 441 51 212 34 283 62 343 137 48 60 72 103
96 177 12 36 30 81 40 100 l19 35 6 -70 c3 -39 14 -131 23 -205 9 -74 17 -171
18 -214 l0 -79 -54 -33 c-30 -18 -100 -48 -155 -65 -56 -18 -139 -54 -186 -80
-217 -123 -504 -200 -620 -167 -25 7 -25 8 -26 125 0 69 -10 183 -24 273 -12
85 -22 193 -22 240 0 94 -27 210 -139 585 -83 278 -103 331 -146 393 -63 92
-200 177 -378 236 -92 31 -165 71 -165 91 0 15 42 3 167 -49 34 -14 69 -23 78
-20 25 10 45 59 45 109 0 53 -7 70 -62 142 -22 29 -46 72 -53 97 -13 42 -12
51 11 118 43 129 31 199 -56 318 -50 68 -57 86 -90 214 -28 110 -83 220 -139
275 -84 84 -220 134 -359 131 -53 -1 -114 4 -156 14 -120 29 -268 -5 -398 -91
-103 -67 -149 -136 -207 -305 -16 -47 -42 -106 -58 -130 -44 -65 -95 -196
-100 -260 -4 -37 0 -78 12 -122 20 -75 16 -115 -18 -160 -56 -74 -77 -122 -77
-175 0 -129 72 -176 176 -115 33 19 44 22 44 12 0 -27 -34 -46 -125 -72 -168
-49 -289 -125 -377 -237 -68 -87 -87 -144 -178 -544 -22 -99 -54 -236 -71
-304 -56 -232 -71 -316 -75 -435 -3 -81 -8 -123 -17 -128 -21 -13 -110 -9
-168 8 -128 38 -267 133 -434 296 l-104 103 -9 220 c-5 121 -8 222 -6 224 6 7
43 -44 81 -113 21 -38 56 -85 79 -105 151 -132 504 -245 504 -161 0 27 -32 45
-144 83 l-97 33 22 28 c32 40 77 56 161 56 57 0 85 -6 127 -25 63 -30 81 -22
81 34 0 47 37 333 55 430 20 104 19 136 -9 217 -65 192 -119 252 -312 344 -71
34 -163 75 -204 92 -117 46 -241 111 -236 124 2 6 8 33 12 60 5 34 14 54 34
70 34 29 77 124 91 201 20 103 -1 215 -41 228 -12 4 -14 24 -12 119 5 148 -8
208 -58 277 -22 30 -53 73 -70 97 -64 89 -215 152 -361 152 -38 0 -114 -9
-170 -20 -192 -37 -321 -126 -375 -258 -24 -61 -27 -79 -28 -208 l-1 -141 -30
-25 c-29 -25 -30 -29 -30 -110 1 -121 42 -241 109 -316 31 -34 72 -129 61
-140 -3 -3 -53 -22 -112 -42 -126 -42 -303 -120 -387 -169 -166 -96 -284 -293
-343 -576 -58 -274 -75 -368 -70 -393 2 -13 -4 -80 -14 -150 -23 -157 -24
-240 -3 -339 19 -92 42 -141 94 -197 104 -112 256 -118 401 -15 17 12 31 20
32 18 4 -5 -10 -275 -22 -447 -10 -144 -8 -165 15 -192 10 -12 10 -40 4 -125
-15 -178 -38 -571 -50 -835 -6 -135 -17 -378 -25 -540 -45 -900 -45 -904 -10
-968 l27 -49 -22 -44 c-13 -24 -54 -87 -92 -139 -88 -119 -157 -260 -165 -333
-6 -56 18 -129 55 -170 51 -57 153 -78 252 -53 119 31 222 120 297 257 31 56
50 79 72 89 45 18 108 92 122 142 7 29 9 81 5 160 -6 93 -4 122 7 140 9 14 19
78 26 163 37 426 147 1064 245 1410 18 66 46 176 61 245 19 84 34 131 47 142
43 38 53 14 123 -277 25 -104 52 -212 60 -240 63 -226 151 -735 207 -1195 17
-146 36 -271 42 -279 6 -8 11 -68 11 -150 0 -130 1 -138 28 -183 15 -26 47
-63 71 -83 24 -20 62 -67 85 -104 55 -93 162 -193 237 -221 125 -46 229 -35
295 31 103 103 68 259 -128 570 l-79 126 25 33 c24 31 26 41 26 134 0 111 -27
802 -50 1296 -16 325 -46 758 -66 937 -10 90 -10 106 5 137 22 46 19 188 -10
449 l-7 58 59 -6 c40 -4 74 -2 107 9 48 14 48 14 58 -11 10 -27 62 -141 184
-403 152 -325 162 -358 199 -623 15 -102 54 -201 115 -292 l29 -43 -9 -143
c-5 -78 -13 -188 -19 -243 -12 -124 -35 -546 -55 -1001 -8 -187 -18 -408 -21
-491 l-7 -152 32 -51 31 -52 -39 -57 c-22 -31 -69 -97 -105 -147 -131 -179
-177 -312 -147 -423 13 -48 59 -105 105 -130 46 -25 204 -22 272 5 116 46 201
131 276 278 22 44 58 99 78 123 21 23 55 67 76 97 36 53 38 59 46 172 4 64 13
122 18 128 6 7 19 118 30 246 22 269 78 824 86 855 3 12 28 48 56 80 76 90
105 151 214 457 35 98 68 185 72 194 12 21 63 -167 111 -412 67 -342 86 -491
165 -1278 9 -95 18 -143 29 -155 12 -14 14 -33 10 -99 -8 -111 9 -152 101
-252 39 -43 94 -118 121 -166 66 -117 158 -211 251 -256 63 -30 77 -33 164
-33 110 -1 160 19 207 80 23 31 28 49 31 108 6 119 -41 218 -216 455 -46 62
-86 119 -88 126 -3 7 7 30 21 51 l27 39 -6 145 c-4 80 -11 219 -16 310 -23
403 -31 605 -45 1060 -8 267 -22 580 -31 695 -9 116 -16 248 -15 295 0 47 2
148 3 225 2 77 0 184 -4 238 l-7 97 72 0 c143 0 279 39 373 105 73 52 84 48
85 -27 1 -35 1 -109 -1 -166 -2 -95 -1 -105 20 -127 22 -24 23 -28 17 -162 -4
-76 -14 -239 -22 -363 -8 -124 -19 -317 -25 -430 -6 -113 -17 -288 -25 -390
-8 -102 -22 -279 -30 -395 -8 -115 -22 -290 -31 -387 -9 -97 -14 -187 -11
-200 4 -14 18 -42 33 -63 31 -46 28 -70 -21 -195 -42 -106 -83 -256 -91 -336
-12 -115 45 -239 133 -291 43 -25 57 -28 138 -27 77 0 98 4 147 28 103 49 127
96 168 331 12 66 28 149 36 185 9 36 18 104 21 152 4 63 10 88 19 88 23 0 32
32 53 205 39 315 49 390 76 560 51 325 104 579 187 880 71 260 86 303 109 310
33 11 47 -12 84 -129 96 -311 155 -611 229 -1176 14 -101 32 -288 52 -540 3
-41 11 -84 19 -95 7 -13 14 -67 17 -141 4 -116 5 -123 37 -172 31 -49 133
-152 151 -152 4 0 33 -40 64 -89 65 -103 132 -168 214 -208 46 -22 74 -28 147
-31 79 -3 95 -1 135 20 102 54 117 175 42 333 -23 47 -84 148 -135 223 -52 75
-101 151 -110 168 -15 30 -15 33 3 49 19 17 22 17 69 -8 89 -49 179 -28 271
62 47 46 62 68 75 115 18 61 16 97 -10 211 -17 72 -114 557 -127 634 -5 30
-11 58 -13 62 -6 8 -265 1308 -265 1326 0 7 18 37 39 68 61 87 86 170 86 290
0 92 -3 105 -33 169 -18 38 -48 86 -67 107 -30 33 -46 69 -31 69 2 0 41 -19
86 -42 81 -42 83 -43 183 -43 86 0 109 4 143 22 50 27 98 75 120 121 37 79 27
299 -21 481 -17 62 -23 104 -19 138 6 51 0 74 -91 393 -53 188 -101 321 -154
430 -80 165 -243 275 -541 365 l-105 32 3 32 c1 21 17 50 41 79 21 26 46 61
54 77 28 56 57 167 57 216 0 49 -22 119 -37 119 -4 0 -8 60 -8 133 0 79 -5
145 -12 165 -10 25 -10 38 -1 52 16 24 -22 80 -117 175 -145 145 -376 212
-585 169z m410 -314 c-8 -5 -19 -10 -25 -10 -5 0 -3 5 5 10 8 5 20 10 25 10 6
0 3 -5 -5 -10z m-514 -65 c115 -33 273 -47 416 -35 62 5 129 14 147 20 24 6
37 6 41 0 7 -12 56 -343 63 -425 2 -25 7 -31 31 -33 19 -2 36 4 52 19 l24 22
0 -34 c0 -44 -43 -135 -81 -175 -31 -32 -79 -146 -79 -188 0 -26 -146 -239
-159 -232 -9 6 -48 137 -56 190 -10 59 -52 96 -110 96 -55 0 -96 -19 -114 -54
-12 -21 -11 -43 2 -143 9 -65 14 -119 12 -122 -10 -9 -132 33 -154 52 -64 59
-143 204 -166 305 -15 65 -50 122 -76 122 -4 0 -21 28 -38 63 -33 68 -50 160
-32 171 6 4 11 3 11 -3 0 -6 14 -18 31 -27 35 -18 79 -7 79 20 0 28 31 252 45
330 8 43 15 80 15 82 0 6 6 5 96 -21z m-2073 -45 c77 -68 109 -86 186 -110 72
-21 89 -45 106 -155 29 -178 14 -364 -38 -478 -41 -89 -114 -195 -147 -212
l-31 -16 -21 48 c-47 109 -105 153 -177 133 -84 -22 -124 -87 -101 -164 6 -22
18 -51 26 -64 15 -23 15 -23 -23 -17 -81 15 -103 33 -169 148 -86 150 -106
228 -106 411 1 160 18 245 58 287 14 15 55 36 90 48 105 34 158 66 213 128 28
31 51 61 51 65 0 17 17 6 83 -52z m-2279 -100 c8 -52 20 -141 26 -198 9 -70
17 -105 26 -109 8 -3 30 7 49 21 l35 27 0 -45 c0 -72 -37 -172 -77 -207 -36
-31 -47 -58 -58 -147 -12 -92 -152 -282 -207 -282 -19 0 -20 4 -13 89 6 72 4
94 -10 120 -31 61 -105 87 -164 57 -52 -27 -55 -38 -52 -173 l2 -125 -23 7
c-116 36 -186 123 -245 308 -29 88 -43 118 -70 143 -44 42 -93 163 -93 233 l0
24 22 -28 c25 -32 86 -61 100 -47 5 5 8 18 8 28 -1 10 -4 75 -6 143 l-5 124
23 -7 c65 -18 194 -28 293 -23 166 9 261 44 365 136 25 22 48 37 52 33 4 -4
14 -50 22 -102z m-308 -794 c17 -13 17 -17 5 -37 -10 -18 -12 -55 -6 -180 l7
-158 -30 11 -29 11 -5 171 c-6 168 -2 196 26 196 7 0 21 -6 32 -14z m2534 -15
c0 -43 27 -98 78 -164 99 -124 113 -144 144 -217 27 -64 32 -90 36 -178 5
-109 -13 -288 -30 -309 -6 -7 -28 -18 -49 -23 -33 -9 -47 -8 -83 8 l-43 20 5
185 c3 127 1 206 -8 249 -16 83 -74 282 -98 338 -32 73 -34 86 -17 104 9 9 27
16 41 16 20 0 24 -5 24 -29z m2016 -33 c81 -133 140 -176 267 -194 26 -3 49
-9 51 -13 2 -3 7 -36 10 -73 l7 -66 -54 -7 c-129 -16 -236 55 -310 206 -30 62
-37 86 -37 136 0 94 13 96 66 11z m431 -20 c6 -7 18 -47 28 -88 10 -41 31
-113 47 -160 16 -47 49 -182 73 -300 79 -387 113 -542 163 -750 28 -113 53
-223 57 -246 l6 -40 -116 -17 c-63 -10 -121 -20 -128 -23 -13 -5 -17 29 -47
406 -49 618 -88 1035 -99 1085 -8 34 -15 113 -12 138 2 11 17 8 28 -5z m-2818
-35 c38 -75 104 -114 214 -128 l57 -7 19 -67 c35 -115 41 -155 28 -164 -21
-14 -150 -1 -199 20 -25 12 -64 39 -85 62 -45 45 -97 139 -107 190 -10 56 17
126 51 131 2 0 11 -17 22 -37z m-1859 -22 c0 -69 -84 -169 -172 -206 l-38 -15
0 45 c0 25 -1 48 -2 51 -2 3 20 15 49 26 36 13 66 34 98 70 25 27 45 54 45 59
0 5 5 9 10 9 6 0 10 -17 10 -39z m2510 7 c0 -18 -11 -50 -23 -71 l-23 -39 -28
37 c-16 20 -26 37 -25 39 2 1 21 16 42 34 47 40 57 40 57 0z m-3084 -96 c17
-12 52 -27 78 -34 42 -11 46 -15 46 -44 0 -26 -4 -33 -27 -37 -82 -15 -190 64
-204 150 -4 26 -10 57 -14 68 -4 11 15 -3 42 -31 26 -28 62 -61 79 -72z m5550
92 c11 -16 9 -28 -11 -78 -23 -57 -71 -126 -91 -133 -5 -2 -17 23 -25 55 l-16
59 38 31 c21 18 46 46 56 62 19 33 30 34 49 4z m-5295 -347 c38 -26 46 -45 27
-69 -11 -14 -21 -15 -72 -5 -92 17 -257 -18 -272 -58 -12 -30 10 -36 77 -20
81 19 141 18 203 -3 55 -19 78 -44 59 -63 -10 -10 -31 -9 -97 1 -69 11 -96 11
-144 0 -98 -20 -179 -77 -143 -100 9 -5 22 -5 34 2 33 17 150 48 185 48 45 0
109 -27 95 -41 -5 -5 -40 -14 -77 -20 -80 -11 -170 -51 -193 -85 -27 -41 -3
-50 54 -20 l50 25 -64 -127 c-68 -134 -89 -163 -164 -217 -25 -19 -92 -88
-148 -155 -180 -210 -372 -377 -473 -409 -82 -27 -170 29 -222 139 -28 60 -31
74 -31 175 0 125 17 262 39 302 31 58 113 103 189 103 43 0 157 -28 157 -39
-1 -3 -38 -28 -83 -54 -102 -59 -191 -137 -218 -189 -37 -72 -2 -93 49 -29 21
27 109 85 293 197 146 88 281 178 305 201 29 30 51 65 70 115 15 40 47 121 71
179 l44 106 73 46 c112 71 152 87 227 87 52 0 73 -5 100 -23z m5295 -2 c27 -8
61 -27 75 -42 28 -31 132 -246 205 -425 37 -92 55 -123 97 -166 61 -63 205
-151 336 -205 84 -35 95 -37 109 -23 14 14 11 19 -29 56 -24 22 -88 63 -143
92 -85 45 -95 53 -76 60 35 13 180 20 234 11 l49 -8 29 -85 c66 -195 87 -403
49 -485 -47 -102 -138 -129 -286 -84 -68 21 -73 25 -178 138 -59 64 -142 163
-183 221 -92 128 -108 145 -161 176 -40 24 -42 28 -62 112 -11 48 -23 96 -27
107 -6 16 -1 14 19 -8 15 -15 32 -25 38 -21 18 11 0 57 -40 99 -21 22 -42 54
-45 70 -4 17 -9 38 -12 47 -4 15 -1 16 28 7 47 -13 65 -11 72 8 10 24 -32 62
-81 76 -37 9 -43 15 -51 49 l-10 38 38 0 c76 0 66 54 -13 67 -34 5 -37 8 -48
60 -11 46 -10 56 2 64 8 5 14 9 15 9 0 0 23 -7 50 -15z m-5108 -131 c19 -12
22 -24 24 -82 1 -37 1 -80 1 -97 -2 -51 43 -882 53 -994 l7 -63 -69 6 c-39 4
-84 2 -103 -3 l-34 -10 7 62 c3 34 13 105 21 157 8 52 15 131 15 175 0 44 6
145 14 225 42 431 42 530 1 530 -11 0 -15 13 -15 53 0 30 3 57 7 60 8 9 40 0
71 -19z m5497 -284 c6 -92 4 -91 -40 21 -28 73 -31 112 -14 191 l12 53 18 -90
c10 -49 21 -128 24 -175z m-6428 47 c16 -72 12 -127 -12 -147 -13 -11 -15 -2
-15 66 0 67 -12 149 -35 238 -3 12 6 -4 21 -34 14 -30 32 -85 41 -123z m1459
72 c-9 -35 -20 -107 -25 -159 l-10 -95 3 105 c2 62 10 129 21 163 22 77 29 67
11 -14z m3393 -119 c6 -55 11 -128 11 -162 0 -76 -20 -241 -29 -232 -3 3 -6
127 -6 274 0 275 5 298 24 120z m-4029 59 c-13 -31 -73 -68 -112 -69 -34 0
-18 16 38 39 35 15 60 32 66 47 16 35 23 20 8 -17z m2424 -51 c9 -46 50 -95
92 -108 24 -8 32 -15 24 -20 -7 -4 -10 -13 -6 -18 9 -15 71 -26 93 -17 17 6
17 7 1 19 -14 11 -9 14 41 24 79 16 91 15 91 -7 0 -35 -38 -51 -118 -51 -61 0
-82 5 -131 30 -83 41 -121 82 -121 129 0 59 23 72 34 19z m-2604 -278 c6 -118
13 -235 16 -259 7 -52 49 -101 88 -101 23 0 24 -3 20 -37 -9 -65 -11 -66 -54
-60 -54 7 -94 38 -121 95 -22 44 -24 61 -27 278 l-4 231 32 37 c18 20 34 35
36 34 1 -2 8 -100 14 -218z m170 166 c0 -43 -22 -66 -64 -66 -37 0 -60 19 -50
43 4 13 82 54 107 56 4 1 7 -14 7 -33z m1655 -214 c17 -126 20 -226 6 -202
-16 27 -51 287 -50 367 l1 78 14 -65 c8 -35 21 -115 29 -178z m1631 91 c-4
-76 -13 -172 -20 -213 l-14 -75 -1 65 c-1 66 30 360 38 360 2 0 1 -62 -3 -137z
m-942 -155 c-29 -112 -78 -302 -109 -423 -62 -239 -138 -528 -206 -780 -23
-88 -50 -189 -60 -225 -12 -47 -17 -57 -18 -35 -3 89 105 559 229 1000 11 39
45 167 75 285 36 140 70 244 95 298 21 45 41 82 43 82 2 0 -20 -91 -49 -202z
m161 151 c35 -16 59 -20 91 -15 27 3 46 1 52 -7 6 -7 13 -48 17 -93 7 -74 5
-87 -25 -175 -49 -143 -75 -186 -132 -215 -54 -27 -158 -68 -161 -62 -1 1 -10
12 -20 24 -25 30 -13 55 24 47 32 -6 79 18 79 41 0 8 -16 35 -35 60 -19 26
-35 55 -35 66 0 21 15 27 25 10 8 -13 61 -13 84 0 26 14 45 65 37 103 -4 17
-22 56 -42 85 -35 53 -35 55 -24 103 7 27 13 49 15 49 1 0 24 -10 50 -21z
m-2529 -84 c-5 -32 -13 -45 -32 -54 -73 -33 -73 16 1 100 26 30 30 32 33 15 2
-10 1 -38 -2 -61z m2447 -100 c19 -39 23 -85 8 -85 -16 0 -25 22 -31 72 -8 57
0 61 23 13z m-1301 -110 c41 -53 175 -95 300 -95 53 0 59 -2 53 -17 -4 -10
-16 -53 -26 -97 l-19 -78 55 -162 c30 -88 68 -217 84 -286 34 -146 76 -280
102 -331 10 -20 40 -62 67 -94 27 -31 64 -83 82 -114 18 -31 63 -103 101 -161
73 -114 83 -138 69 -160 -19 -30 -63 2 -139 103 -48 64 -80 97 -92 97 -64 0
-12 -94 143 -257 78 -82 91 -110 63 -133 -31 -26 -45 -13 -208 183 -87 105
-100 116 -111 98 -11 -18 162 -291 201 -316 32 -21 29 -35 -8 -35 -48 0 -110
74 -222 264 -28 49 -50 56 -55 18 -5 -34 83 -193 143 -260 64 -70 69 -86 23
-77 -63 12 -70 17 -102 68 -100 156 -150 298 -170 482 -16 150 -16 149 -166
470 -138 295 -215 475 -231 538 -7 29 -10 78 -6 121 5 76 37 256 45 256 2 0
13 -11 24 -25z m2647 -67 c26 -155 52 -416 46 -468 -8 -63 -40 -99 -134 -148
-134 -71 -263 -77 -561 -27 -104 18 -179 25 -201 21 -20 -3 -62 -26 -93 -51
-68 -52 -197 -105 -259 -105 -47 0 -107 17 -107 30 0 4 33 10 73 12 39 3 104
16 142 29 63 22 70 28 73 53 3 23 0 28 -13 22 -9 -3 -64 -13 -121 -22 -111
-18 -224 -13 -244 10 -20 25 15 35 156 46 76 6 153 15 170 21 35 11 71 45 60
56 -4 4 -95 6 -202 4 -177 -3 -194 -1 -201 15 -13 36 26 50 158 57 170 10 246
24 264 50 18 26 19 32 2 49 -11 10 -48 11 -186 5 -215 -10 -226 -7 -178 48 18
21 41 31 112 45 50 11 123 19 163 20 87 0 91 9 27 69 -50 47 -59 81 -21 81 26
0 132 -76 216 -155 106 -99 122 -101 397 -50 273 52 258 48 261 73 4 26 -29
42 -83 42 -32 0 -37 5 -75 69 -22 38 -40 74 -40 78 0 5 37 7 83 5 92 -5 176
12 254 51 27 14 49 25 49 26 1 0 7 -27 13 -61z m-2155 -34 c3 -9 6 -115 6
-237 l0 -222 -37 100 c-59 165 -60 177 -28 275 15 47 30 88 32 93 7 12 21 8
27 -9z m1716 -134 c9 -16 8 -20 -5 -20 -8 0 -15 9 -15 20 0 11 2 20 5 20 2 0
9 -9 15 -20z m2110 -132 c118 -35 229 -131 282 -243 27 -59 30 -73 27 -148 -3
-68 -10 -94 -36 -147 -84 -171 -244 -270 -434 -271 -237 0 -426 159 -437 369
-6 111 25 197 110 303 96 120 327 184 488 137z m-3143 -27 c13 -49 1 -74 -22
-50 -12 12 -15 26 -10 53 9 47 20 46 32 -3z m-2076 -127 c77 -23 131 -57 192
-123 110 -119 110 -238 0 -342 -79 -76 -202 -119 -338 -119 -86 0 -97 3 -164
36 -79 40 -158 110 -184 166 -23 48 -22 141 2 193 10 22 38 59 63 82 116 105
288 149 429 107z m2045 -72 c33 -5 55 -92 23 -92 -5 0 -25 15 -45 33 -33 30
-35 36 -29 70 7 37 8 38 19 15 6 -13 21 -24 32 -26z m-26 -168 c0 -25 -18 -15
-29 17 -6 18 -11 35 -11 38 1 12 40 -42 40 -55z m131 -47 c16 -22 -7 -61 -57
-98 -52 -38 -110 -122 -144 -207 l-13 -32 -21 22 c-12 13 -30 28 -40 33 -11 6
-15 16 -11 26 5 14 11 15 35 6 25 -10 34 -8 57 9 56 42 56 93 0 159 -18 22
-31 48 -29 57 3 16 6 16 38 1 43 -21 81 -10 109 33 19 30 21 30 45 15 14 -8
28 -19 31 -24z m307 -152 c34 -8 85 -26 113 -40 109 -56 217 -201 253 -341 48
-186 -22 -377 -166 -455 -61 -33 -66 -34 -178 -34 -106 0 -119 3 -175 29 -38
19 -86 56 -130 100 -178 180 -223 420 -112 605 80 134 212 179 395 136z m-535
-9 c6 -16 -2 -28 -14 -20 -12 7 -11 34 0 34 5 0 11 -6 14 -14z m3511 -321 c98
-496 225 -1125 276 -1375 34 -162 65 -315 70 -340 5 -25 18 -88 29 -141 12
-57 18 -111 15 -130 -16 -82 -87 -149 -160 -149 -71 0 -128 48 -185 154 -60
113 -65 133 -164 696 -20 113 -43 237 -50 275 -24 120 -84 447 -95 520 -13 85
-66 368 -84 447 l-13 56 41 4 c22 3 42 4 44 3 4 -3 82 -392 133 -665 27 -146
65 -350 85 -455 19 -104 48 -266 64 -360 16 -93 38 -224 50 -290 41 -224 109
-305 207 -245 58 35 60 20 -42 485 -25 116 -50 230 -55 255 -5 25 -25 122 -45
215 -78 371 -225 1118 -221 1123 9 8 71 50 73 48 1 -1 13 -60 27 -131z m-3555
87 c0 -24 -1 -25 -9 -7 -12 28 -12 47 0 40 6 -3 10 -18 9 -33z m-49 -56 c0
-22 38 -49 61 -43 21 6 21 4 17 -81 -4 -64 -11 -99 -28 -134 l-24 -48 -12 37
c-12 34 -11 39 6 56 11 10 20 27 20 39 0 24 -35 84 -57 96 -11 7 -13 19 -8 55
4 26 11 44 16 41 5 -3 9 -11 9 -18z m173 -377 c40 -70 138 -172 213 -220 l62
-41 -23 -68 c-13 -38 -52 -142 -88 -232 -36 -90 -82 -208 -102 -263 -53 -142
-76 -182 -139 -252 -73 -80 -140 -113 -230 -113 -43 0 -80 7 -112 21 -72 30
-78 38 -50 60 14 11 32 42 41 70 16 48 16 55 0 117 -13 48 -28 75 -55 102 -34
34 -67 101 -84 173 -6 24 -4 27 18 27 48 0 88 84 102 216 l6 62 52 5 c28 3 52
4 54 2 2 -1 -2 -24 -9 -49 -13 -53 -7 -143 12 -174 15 -24 70 -52 103 -52 36
0 89 41 111 85 24 49 32 163 15 205 -7 16 -23 36 -37 45 -29 20 -28 42 13 166
22 68 75 159 92 159 4 0 20 -23 35 -51z m-173 -339 c27 -50 1 -172 -39 -185
-49 -15 -78 30 -68 108 9 75 21 94 61 95 26 1 38 -4 46 -18z m-351 -54 c0 -6
-6 -40 -13 -76 l-12 -65 -18 27 c-30 46 -8 146 30 131 8 -3 14 -10 13 -17z m3
-483 c35 -41 50 -85 43 -130 -8 -57 -35 -86 -73 -77 -82 19 -95 126 -24 207 8
9 20 17 27 17 7 0 19 -8 27 -17z m4137 -557 c22 -98 23 -138 2 -74 -12 37 -52
237 -50 253 2 15 24 -68 48 -179z m-1845 -518 c27 -6 86 -8 130 -6 79 5 80 4
46 -10 -45 -19 -186 -20 -228 -3 -33 14 -47 49 -15 36 10 -3 40 -11 67 -17z
m-4825 -13 c41 -9 94 -13 120 -10 l46 5 -34 -16 c-54 -24 -155 -30 -186 -10
-14 9 -25 23 -25 31 0 8 1 15 3 15 1 0 35 -7 76 -15z m6443 -17 c-17 -17 -151
-33 -164 -20 -9 9 -6 12 13 13 13 1 53 8 89 18 61 15 84 11 62 -11z m-4827
-10 c-9 -22 -86 -30 -162 -17 -81 14 -91 28 -16 23 32 -3 83 1 113 9 58 14 75
10 65 -15z m930 -433 l50 -11 -52 -8 c-40 -6 -60 -4 -87 9 -73 35 -35 39 89
10z m1599 -10 c-5 -12 -24 -15 -88 -14 l-81 1 65 13 c94 18 110 18 104 0z"/>
<path d="M4045 5147 c-21 -33 -41 -183 -26 -201 14 -16 47 -10 55 10 3 8 13
55 21 106 13 74 14 93 3 99 -22 14 -37 10 -53 -14z"/>
<path d="M6658 4533 c-58 -19 -126 -75 -144 -120 -43 -101 25 -210 151 -244
76 -21 216 11 280 63 105 87 98 236 -14 295 -37 19 -58 23 -135 22 -55 0 -110
-7 -138 -16z"/>
<path d="M1485 4436 c-85 -27 -115 -63 -115 -139 0 -55 21 -84 84 -113 100
-46 257 -25 318 44 27 31 30 40 25 81 -4 36 -13 52 -40 78 -62 56 -181 78
-272 49z"/>
<path d="M3935 3921 c-51 -23 -111 -89 -126 -139 -20 -67 -8 -178 27 -252 97
-204 335 -272 466 -133 69 74 84 213 33 318 -39 82 -144 186 -209 208 -64 22
-141 21 -191 -2z"/>
<path d="M3350 2802 c-75 -37 -107 -179 -57 -253 19 -28 30 -35 65 -37 115 -8
177 124 118 250 -16 33 -50 58 -79 58 -7 0 -28 -8 -47 -18z m71 -89 c13 -36
11 -76 -7 -101 -46 -66 -99 30 -59 108 18 34 51 31 66 -7z"/>
</g>
</svg>
