<?xml version="1.0" standalone="no"?>
<!DOCTYPE svg PUBLIC "-//W3C//DTD SVG 20010904//EN"
 "http://www.w3.org/TR/2001/REC-SVG-20010904/DTD/svg10.dtd">
<svg version="1.0" xmlns="http://www.w3.org/2000/svg"
 width="341.516626pt" height="509.758393pt" viewBox="0 0 341.516626 509.758393"
 preserveAspectRatio="xMidYMid meet">
<metadata>Created by Svg.la</metadata>
<g transform="translate(-9.983374,577.732483) scale(0.100000,-0.100000)"
fill="#000000" stroke="none">
<path d="M258 5765 c-58 -21 -106 -65 -133 -120 l-25 -51 2 -2349 3 -2350 27
-50 c34 -65 80 -108 149 -140 l56 -25 1484 2 c1429 3 1485 4 1519 22 66 35
116 84 145 142 l30 59 0 2362 0 2361 -30 43 c-17 24 -53 57 -80 74 l-48 30
-1531 2 c-1278 1 -1537 -1 -1568 -12z m2570 -536 c120 -25 183 -124 198 -308
7 -87 -9 -214 -36 -275 -36 -83 -109 -126 -213 -126 -111 0 -167 32 -212 120
-49 96 -61 305 -25 423 32 102 80 148 173 167 59 11 61 11 115 -1z m-1112 -18
c23 -10 51 -29 64 -42 64 -67 95 -212 79 -375 -13 -144 -51 -214 -136 -254
-64 -30 -188 -25 -246 10 -82 49 -122 174 -114 365 6 178 43 258 137 299 50
22 165 20 216 -3z m-863 -84 c67 -219 100 -317 107 -317 4 0 10 14 14 32 3 18
32 110 62 205 l56 173 89 0 89 0 0 -345 0 -345 -70 0 -70 0 -2 222 -3 221 -54
-179 c-29 -98 -56 -187 -58 -196 -3 -14 -15 -18 -56 -18 l-52 0 -39 133 c-22
72 -49 161 -60 197 l-21 65 -3 -222 -2 -223 -65 0 -65 0 0 345 0 345 88 0 87
0 28 -93z m1337 -99 l105 -193 3 193 2 192 65 0 65 0 0 -253 c0 -140 3 -295 6
-345 l7 -92 -69 0 -69 0 -105 201 -105 201 -3 -201 -2 -201 -65 0 -65 0 0 345
0 345 63 0 62 0 105 -192z m246 -727 c53 -24 97 -79 120 -149 27 -82 27 -306
0 -377 -28 -72 -60 -110 -119 -140 -114 -56 -260 -16 -314 88 -39 76 -56 212
-42 336 21 185 92 261 244 261 47 0 84 -7 111 -19z m-1541 -2 c65 -16 129 -77
156 -147 19 -47 23 -78 23 -177 1 -157 -17 -221 -82 -286 -60 -59 -95 -69
-254 -69 l-128 0 0 345 0 345 121 0 c66 0 140 -5 164 -11z m405 -334 l0 -345
-65 0 -65 0 0 345 0 345 65 0 65 0 0 -345z m573 329 c130 -44 167 -199 69
-285 -23 -20 -32 -34 -24 -37 27 -9 75 -57 88 -89 36 -84 1 -190 -76 -233 -42
-24 -54 -25 -195 -25 l-150 0 -3 328 c-2 181 -1 335 2 343 8 21 226 20 289 -2z
m907 -61 c18 -43 37 -90 42 -105 6 -16 13 -28 16 -28 4 0 17 27 30 60 12 32
32 79 43 104 l20 46 69 0 c39 0 70 -2 70 -5 0 -2 -37 -77 -82 -166 l-81 -163
86 -168 c48 -92 87 -173 87 -178 0 -15 -126 -13 -137 3 -5 6 -19 35 -31 62
-11 28 -33 77 -47 110 -27 59 -27 60 -40 35 -8 -14 -33 -69 -56 -122 l-41 -98
-64 0 c-35 0 -64 4 -64 9 0 11 89 210 131 292 l28 57 -79 157 c-44 87 -80 162
-80 167 0 4 33 8 74 8 l74 0 32 -77z m488 -1644 c45 -15 100 -64 117 -107 13
-29 15 -153 15 -799 0 -823 2 -790 -52 -840 -60 -56 27 -53 -1545 -53 -1426 0
-1447 0 -1488 20 -48 23 -79 61 -95 116 -18 61 -10 1530 9 1564 17 32 60 78
86 93 28 16 655 23 1910 19 696 -1 1020 -6 1043 -13z"/>
<path d="M2722 5103 c-7 -3 -22 -23 -33 -46 -17 -33 -21 -60 -22 -151 -2 -142
8 -198 39 -236 33 -39 99 -43 132 -7 34 36 42 72 42 187 0 190 -29 261 -107
259 -21 0 -44 -3 -51 -6z"/>
<path d="M1545 5084 c-32 -35 -40 -76 -40 -214 0 -124 19 -201 55 -220 24 -13
76 -13 101 0 42 23 54 67 54 210 0 149 -11 197 -52 230 -37 29 -88 26 -118 -6z"/>
<path d="M2273 4185 c-12 -8 -29 -38 -38 -66 -23 -70 -17 -276 10 -331 40 -80
136 -76 171 8 17 41 19 260 3 318 -21 76 -91 110 -146 71z"/>
<path d="M750 3971 l0 -231 53 0 c82 1 109 30 127 144 12 78 0 208 -25 256
-19 37 -42 49 -105 57 l-50 6 0 -232z"/>
<path d="M1728 4194 c-5 -4 -8 -43 -8 -86 l0 -78 45 0 c63 0 100 35 92 88 -4
20 -15 44 -25 55 -20 19 -92 34 -104 21z"/>
<path d="M1720 3826 c0 -82 1 -84 26 -90 37 -10 90 3 111 26 12 13 18 36 18
65 0 61 -27 83 -101 83 l-54 0 0 -84z"/>
<path d="M338 2491 c-29 -26 -34 -37 -38 -93 -3 -34 -3 -382 0 -771 l5 -709
24 -19 c23 -19 56 -19 1476 -17 l1453 3 26 24 26 24 0 759 c0 837 3 794 -62
817 -22 8 -465 11 -1454 11 l-1424 0 -32 -29z m337 -206 c49 -48 22 -145 -44
-160 -89 -19 -146 91 -82 156 38 38 91 40 126 4z m510 -57 c158 -41 299 -175
356 -338 31 -90 31 -229 -1 -320 -61 -180 -208 -312 -397 -356 -236 -56 -502
101 -584 344 -35 102 -33 242 4 342 66 178 213 305 392 339 48 10 175 3 230
-11z m1645 -165 c107 -38 186 -127 216 -242 40 -159 -38 -326 -189 -401 -50
-25 -72 -30 -133 -30 -124 0 -237 56 -294 147 -94 148 -81 320 33 436 102 104
235 136 367 90z m-750 -218 l0 -75 -120 0 -120 0 0 75 0 75 120 0 120 0 0 -75z
m0 -230 l0 -75 -120 0 -120 0 0 75 0 75 120 0 120 0 0 -75z m-533 -319 c60
-52 22 -156 -58 -156 -51 0 -67 8 -84 41 -23 43 -18 77 14 110 38 37 88 39
128 5z m945 -148 l3 -83 43 -3 c34 -3 42 -7 42 -23 0 -17 -7 -19 -70 -19 l-70
0 0 105 c0 105 0 105 25 105 24 0 24 -2 27 -82z m158 -23 l0 -105 -25 0 -25 0
0 105 0 105 25 0 25 0 0 -105z m180 86 c0 -16 -8 -20 -42 -23 -35 -2 -44 -7
-46 -25 -3 -18 2 -22 30 -25 22 -2 34 -9 36 -20 3 -15 -4 -18 -32 -18 -35 0
-36 -1 -36 -40 0 -36 -2 -40 -25 -40 l-25 0 0 105 0 105 70 0 c63 0 70 -2 70
-19z m160 0 c0 -13 -8 -21 -22 -23 -21 -3 -23 -9 -26 -85 -3 -81 -3 -83 -27
-83 -25 0 -25 1 -25 85 0 84 0 85 -25 85 -18 0 -25 5 -25 20 0 18 7 20 75 20
67 0 75 -2 75 -19z"/>
<path d="M913 2111 c-64 -23 -67 -26 -122 -69 -189 -153 -188 -480 2 -636 80
-66 128 -81 252 -81 98 0 116 3 167 27 109 51 193 151 223 264 51 197 -36 392
-215 478 -57 27 -77 31 -160 34 -74 2 -107 -2 -147 -17z m-9 -332 c34 -27 35
-71 1 -104 -13 -14 -36 -25 -50 -25 -33 0 -75 42 -75 75 0 33 41 75 73 75 13
0 36 -9 51 -21z m393 -1 c38 -35 29 -89 -18 -114 -53 -27 -109 8 -109 68 0 62
80 91 127 46z m-192 -223 c49 -48 19 -119 -50 -119 -43 0 -75 30 -75 71 0 32
42 73 75 73 14 0 37 -11 50 -25z"/>
<path d="M2625 1941 c-46 -20 -101 -79 -121 -127 -19 -46 -17 -121 5 -170 22
-47 89 -109 139 -125 88 -29 195 10 249 93 38 57 45 165 15 225 -54 106 -182
152 -287 104z"/>
</g>
</svg>
