<?xml version="1.0" standalone="no"?>
<!DOCTYPE svg PUBLIC "-//W3C//DTD SVG 20010904//EN"
 "http://www.w3.org/TR/2001/REC-SVG-20010904/DTD/svg10.dtd">
<svg version="1.0" xmlns="http://www.w3.org/2000/svg"
 width="484.652834pt" height="610.500000pt" viewBox="0 0 484.652834 610.500000"
 preserveAspectRatio="xMidYMid meet">
<metadata>Created by Svg.la</metadata>
<g transform="translate(-145.847166,705.000000) scale(0.100000,-0.100000)"
fill="#000000" stroke="none">
<path d="M1830 7027 c-180 -61 -315 -216 -355 -405 -22 -103 -22 -5143 0
-5247 23 -107 68 -190 149 -271 72 -72 127 -106 226 -140 53 -18 118 -19 1935
-19 1817 0 1882 1 1935 19 100 34 154 68 227 141 130 130 168 252 162 515 -5
156 -18 196 -81 237 -28 19 -52 26 -91 26 -63 1 -106 -20 -144 -70 -27 -36
-28 -40 -34 -202 -4 -132 -9 -174 -23 -204 -21 -43 -64 -79 -115 -96 -48 -16
-3618 -16 -3676 0 -51 14 -110 73 -124 124 -8 29 -11 755 -11 2570 l0 2530 24
51 c26 56 61 86 121 103 29 9 344 11 1195 9 l1155 -3 5 -500 c5 -483 6 -502
27 -552 64 -157 160 -252 312 -307 53 -19 86 -21 581 -26 l525 -5 5 -645 c4
-466 8 -651 17 -665 6 -11 27 -35 47 -54 28 -27 45 -35 85 -39 29 -2 64 1 81
8 49 20 96 81 109 139 15 71 15 1264 0 1364 -6 42 -25 103 -46 147 -34 73 -57
96 -687 728 -358 359 -673 668 -701 686 -27 18 -78 43 -113 55 l-62 21 -1298
0 -1297 -1 -65 -22z m3642 -1359 c-5 -5 -162 -8 -348 -6 -328 3 -340 4 -380
25 -29 16 -48 36 -63 66 -20 41 -21 58 -21 386 l0 343 410 -403 c233 -229 407
-406 402 -411z"/>
<path d="M4825 4033 c-41 -21 -74 -52 -93 -88 -15 -26 -18 -81 -22 -400 l-5
-370 -435 -5 c-465 -5 -467 -6 -511 -56 -43 -50 -49 -77 -49 -244 0 -186 10
-220 82 -267 l42 -28 430 -3 c323 -2 432 -6 438 -15 4 -7 8 -171 8 -365 0
-330 1 -355 20 -391 24 -48 70 -87 118 -102 23 -7 94 -10 183 -7 138 3 148 4
186 30 22 15 51 44 64 65 24 38 24 40 29 408 l5 370 435 5 c485 6 471 4 527
77 l28 36 0 187 0 187 -28 36 c-56 73 -42 71 -527 77 l-435 5 -5 366 -5 366
-30 48 c-20 32 -45 56 -74 72 -41 21 -56 23 -195 23 -118 -1 -158 -4 -181 -17z"/>
</g>
</svg>
