<?xml version="1.0" standalone="no"?>
<!DOCTYPE svg PUBLIC "-//W3C//DTD SVG 20010904//EN"
 "http://www.w3.org/TR/2001/REC-SVG-20010904/DTD/svg10.dtd">
<svg version="1.0" xmlns="http://www.w3.org/2000/svg"
 width="653.950025pt" height="574.662732pt" viewBox="0 0 653.950025 574.662732"
 preserveAspectRatio="xMidYMid meet">
<metadata>Created by Svg.la</metadata>
<g transform="translate(-87.500000,687.745054) scale(0.100000,-0.100000)"
fill="#000000" stroke="none">
<path d="M1341 6864 c-194 -52 -372 -225 -442 -429 l-24 -70 0 -2400 0 -2400
23 -67 c56 -162 169 -276 338 -340 l59 -23 2215 -3 c2474 -3 2299 -8 2455 68
137 66 256 182 323 315 11 23 70 182 130 355 61 173 147 419 192 545 45 127
101 286 125 355 24 69 59 170 78 225 92 260 164 464 260 740 58 165 117 332
130 370 14 39 67 187 118 330 l93 260 0 100 c1 95 -1 104 -36 177 -45 94 -110
163 -193 204 l-60 29 -317 3 -316 3 -4 237 c-4 211 -7 243 -26 295 -72 196
-200 328 -389 400 l-58 22 -971 3 -970 3 -305 279 c-311 287 -404 360 -506
402 l-58 23 -905 2 c-766 2 -913 0 -959 -13z m1800 -345 c51 -17 91 -51 413
-349 226 -210 312 -283 363 -310 l66 -35 986 -5 c738 -4 993 -8 1013 -17 44
-20 110 -85 129 -128 16 -35 19 -69 19 -252 l0 -213 -1888 0 c-2080 0 -1940 4
-2064 -62 -72 -38 -174 -144 -210 -218 -14 -30 -49 -120 -76 -200 -28 -80
-128 -370 -222 -645 -95 -275 -219 -637 -277 -805 -58 -168 -118 -343 -134
-389 -16 -46 -31 -86 -34 -89 -2 -3 -2 789 1 1759 5 1526 8 1770 21 1812 17
56 85 128 135 144 48 16 1713 17 1759 2z m3879 -1668 c33 -18 40 -30 40 -66 0
-32 -40 -152 -296 -877 -19 -54 -50 -144 -70 -200 -20 -57 -60 -170 -89 -253
-29 -82 -69 -195 -88 -250 -39 -109 -188 -532 -272 -770 -29 -82 -76 -217
-105 -300 -116 -338 -161 -462 -176 -490 -27 -48 -85 -105 -139 -133 l-50 -27
-2222 0 -2222 0 -27 21 c-47 35 -67 70 -71 126 -4 47 13 104 146 503 161 486
253 756 496 1470 86 253 210 617 275 809 65 192 127 360 137 374 29 39 67 64
110 72 21 4 1064 7 2318 6 1934 -1 2284 -3 2305 -15z"/>
</g>
</svg>
