<svg width="96" height="96" viewBox="0 0 96 96" fill="none" xmlns="http://www.w3.org/2000/svg">
<path d="M24 12H60L72 24V80C72 81.0609 71.5786 82.0783 70.8284 82.8284C70.0783 83.5786 69.0609 84 68 84H24C22.9391 84 21.9217 83.5786 21.1716 82.8284C20.4214 82.0783 20 81.0609 20 80V16C20 14.9391 20.4214 13.9217 21.1716 13.1716C21.9217 12.4214 22.9391 12 24 12Z" fill="white" stroke="black" stroke-width="2"/>
<path d="M60 12V24H72" fill="#E0E0E0"/>
<path d="M60 12V24H72" stroke="black" stroke-width="2"/>
<path d="M60.875 43H30.125C27.2945 43 25 45.2945 25 48.125V61.7917C25 64.6221 27.2945 66.9167 30.125 66.9167H60.875C63.7055 66.9167 66 64.6221 66 61.7917V48.125C66 45.2945 63.7055 43 60.875 43Z" fill="#FF2B2B" stroke="black" stroke-width="2.5625"/>
<path d="M31.5297 59.7084V48.5266H35.9412C36.7893 48.5266 37.5119 48.6885 38.1088 49.0125C38.7058 49.3328 39.1607 49.7787 39.4738 50.3502C39.7904 50.918 39.9488 51.5732 39.9488 52.3157C39.9488 53.0583 39.7886 53.7134 39.4683 54.2813C39.148 54.8491 38.6839 55.2913 38.076 55.608C37.4718 55.9247 36.7402 56.083 35.8812 56.083H33.0693V54.1884H35.499C35.954 54.1884 36.3289 54.1102 36.6237 53.9537C36.9222 53.7935 37.1442 53.5733 37.2898 53.293C37.4391 53.0091 37.5137 52.6833 37.5137 52.3157C37.5137 51.9444 37.4391 51.6205 37.2898 51.3438C37.1442 51.0636 36.9222 50.847 36.6237 50.6941C36.3252 50.5376 35.9467 50.4594 35.4881 50.4594H33.8938V59.7084H31.5297ZM45.4482 59.7084H41.4844V48.5266H45.481C46.6057 48.5266 47.5739 48.7504 48.3856 49.1981C49.1973 49.6422 49.8216 50.281 50.2584 51.1145C50.6988 51.9481 50.919 52.9454 50.919 54.1065C50.919 55.2713 50.6988 56.2723 50.2584 57.1095C49.8216 57.9467 49.1937 58.5891 48.3747 59.0368C47.5594 59.4845 46.5839 59.7084 45.4482 59.7084ZM43.8485 57.6828H45.35C46.0488 57.6828 46.6367 57.559 47.1135 57.3115C47.594 57.0603 47.9543 56.6727 48.1946 56.1485C48.4384 55.6208 48.5604 54.9401 48.5604 54.1065C48.5604 53.2803 48.4384 52.6051 48.1946 52.0809C47.9543 51.5568 47.5958 51.171 47.119 50.9234C46.6421 50.6759 46.0543 50.5522 45.3554 50.5522H43.8485V57.6828ZM52.6703 59.7084V48.5266H60.0739V50.4757H55.0344V53.1401H59.5825V55.0893H55.0344V59.7084H52.6703Z" fill="white"/>
</svg>
