<svg width="800" height="794" viewBox="0 0 800 794" fill="none" xmlns="http://www.w3.org/2000/svg">
<g clip-path="url(#clip0_36_3)">
<path d="M534.676 1.80912C541.343 4.20912 540.143 3.27579 619.21 64.6091C711.877 136.476 769.877 181.409 783.743 191.942C792.277 198.476 795.477 201.809 797.61 206.342C800.677 213.542 800.143 222.476 796.277 227.809C793.077 232.076 794.143 231.142 676.543 321.276C624.41 361.142 572.276 401.276 560.543 410.342C548.81 419.409 537.076 427.809 534.543 428.876C523.876 433.542 510.01 427.276 504.41 415.542C501.21 408.609 501.21 408.342 501.21 363.542C501.21 315.142 500.81 311.409 494.276 307.676C490.276 305.409 349.876 304.476 326.41 306.476C297.476 309.142 270.143 318.876 247.21 334.609C233.743 343.942 212.81 366.209 204.943 379.409C196.677 393.142 189.877 410.076 186.277 425.542C182.677 440.742 182.143 474.876 185.077 489.942C197.077 550.209 241.343 595.409 303.61 610.876C314.81 613.676 318.676 613.809 406.543 614.476C488.543 615.142 498.41 615.542 502.81 617.542C511.476 621.409 517.076 626.609 520.81 634.342L524.543 641.942V700.609V759.276L520.81 767.276C514.41 781.142 504.143 789.142 489.876 791.809C479.61 793.676 337.61 793.809 313.076 791.942C263.076 788.076 228.01 778.742 187.21 758.609C127.877 729.409 86.8098 692.476 50.0098 635.276C24.5432 595.809 6.40983 542.342 1.0765 491.942C-1.19017 470.342 0.276496 421.676 3.8765 398.609C12.6765 341.409 35.2098 289.676 70.9432 244.876C116.943 187.009 190.276 143.276 266.943 127.942C297.876 121.676 310.143 121.142 404.81 120.876L494.41 120.609L497.476 117.542C500.543 114.609 500.543 114.342 501.21 65.4091L501.876 16.3425L505.21 11.5425C509.076 5.80912 519.743 -0.0575446 525.743 -0.0575446C528.01 0.0757887 532.01 0.875789 534.676 1.80912Z" fill="black"/>
</g>
<defs>
<clipPath id="clip0_36_3">
<rect width="799.588" height="793.276" fill="white" transform="matrix(-1 0 0 1 799.588 0)"/>
</clipPath>
</defs>
</svg>
