<?xml version="1.0" standalone="no"?>
<!DOCTYPE svg PUBLIC "-//W3C//DTD SVG 20010904//EN"
 "http://www.w3.org/TR/2001/REC-SVG-20010904/DTD/svg10.dtd">
<svg version="1.0" xmlns="http://www.w3.org/2000/svg"
 width="558.005446pt" height="576.906428pt" viewBox="0 0 558.005446 576.906428"
 preserveAspectRatio="xMidYMid meet">
<metadata>Created by Svg.la</metadata>
<g transform="translate(-120.989734,690.971042) scale(0.100000,-0.100000)"
fill="#000000" stroke="none">
<path d="M1455 6885 c-81 -33 -132 -71 -178 -130 -73 -96 -67 133 -67 -2725 0
-2377 1 -2580 17 -2626 22 -66 51 -111 106 -161 57 -53 107 -78 182 -92 91
-18 4966 -11 5017 7 65 22 154 89 192 145 71 103 66 -84 66 2356 0 2158 -1
2207 -20 2246 -12 26 -187 209 -487 512 -401 405 -474 473 -508 482 -28 8
-689 11 -2150 11 l-2110 0 -60 -25z m3840 -1070 c0 -760 0 -771 -21 -815 -26
-58 -76 -108 -134 -134 -45 -21 -49 -21 -1260 -21 l-1215 0 -55 30 c-60 33
-114 96 -130 153 -6 24 -10 305 -10 800 l0 762 1413 -2 1412 -3 0 -770z m508
-1621 c60 -20 135 -88 167 -150 l25 -49 3 -1188 c3 -1313 7 -1226 -61 -1267
-31 -20 -65 -20 -1937 -20 -1846 0 -1906 1 -1936 19 -68 41 -64 -37 -64 1253
0 761 4 1176 10 1200 24 86 119 183 204 207 18 5 767 10 1787 10 1581 1 1760
-1 1802 -15z"/>
<path d="M4305 6331 c-16 -10 -39 -28 -50 -41 -19 -21 -20 -38 -23 -554 l-3
-532 23 -35 c46 -67 60 -70 368 -67 272 3 275 3 309 27 62 44 61 39 61 598 0
566 1 553 -69 600 -33 23 -40 23 -310 23 -251 0 -279 -2 -306 -19z"/>
<path d="M3859 3775 c-95 -15 -228 -64 -315 -116 -74 -45 -204 -167 -259 -243
-258 -364 -222 -818 89 -1129 198 -199 484 -296 741 -252 326 56 584 257 698
545 87 221 80 484 -18 697 -120 260 -381 455 -670 499 -108 17 -152 16 -266
-1z m324 -442 c88 -42 187 -135 226 -215 120 -239 20 -519 -226 -636 -220
-104 -489 -8 -601 214 -52 104 -64 207 -37 322 21 88 48 137 119 210 102 107
191 143 346 139 94 -2 112 -6 173 -34z"/>
<path d="M5090 2338 c-50 -35 -62 -80 -58 -228 3 -110 6 -129 25 -156 38 -52
56 -55 331 -52 l252 3 32 33 33 32 3 146 c4 158 -3 191 -46 224 -23 19 -41 20
-282 20 -250 0 -258 -1 -290 -22z"/>
</g>
</svg>
