<?xml version="1.0" standalone="no"?>
<!DOCTYPE svg PUBLIC "-//W3C//DTD SVG 20010904//EN"
 "http://www.w3.org/TR/2001/REC-SVG-20010904/DTD/svg10.dtd">
<svg version="1.0" xmlns="http://www.w3.org/2000/svg"
 width="591.944357pt" height="484.606255pt" viewBox="0 0 591.944357 484.606255"
 preserveAspectRatio="xMidYMid meet">
<metadata>Created by Svg.la</metadata>
<g transform="translate(-106.055643,663.735438) scale(0.100000,-0.100000)"
fill="#000000" stroke="none">
<path d="M1290 6624 c-60 -19 -134 -75 -167 -127 -15 -23 -35 -71 -45 -107
-16 -61 -17 -206 -17 -2155 -1 -2273 -4 -2151 54 -2265 35 -69 75 -111 137
-146 l53 -29 1869 -3 c1782 -2 1868 -1 1860 15 -5 10 -10 163 -12 340 l-3 321
-312 4 -312 4 -58 26 c-88 41 -157 117 -191 208 l-27 75 3 395 3 395 33 67
c36 73 87 124 161 160 44 22 57 23 374 26 l327 3 0 324 c0 303 1 328 21 380
25 68 94 139 169 174 52 25 65 26 253 29 l198 4 -3 436 c-3 428 -3 438 -26
494 -12 31 -35 75 -51 98 -16 23 -196 213 -400 421 -335 340 -378 381 -439
411 l-67 33 -1670 2 c-1428 1 -1677 0 -1715 -13z m2913 -666 c10 -523 9 -770
-4 -830 -32 -152 -146 -260 -304 -289 -34 -6 -341 -9 -837 -7 l-783 3 -60 24
c-105 43 -197 154 -225 273 -6 26 -10 274 -10 616 l0 572 1108 0 1109 0 6
-362z m-913 -1829 c294 -36 530 -202 661 -464 70 -141 92 -250 86 -415 -7
-177 -42 -294 -127 -423 -113 -174 -283 -294 -505 -358 -115 -33 -314 -33
-435 0 -168 45 -340 152 -446 280 -67 80 -136 218 -164 326 -29 112 -29 308 0
420 27 102 96 242 161 323 126 158 353 285 554 311 99 12 120 12 215 0z"/>
<path d="M3383 6050 c-17 -10 -37 -28 -42 -39 -7 -13 -11 -160 -11 -433 0
-459 -2 -446 66 -474 48 -20 421 -20 469 0 68 29 66 18 63 477 -3 454 -2 444
-64 474 -25 12 -76 15 -241 15 -188 0 -211 -2 -240 -20z"/>
<path d="M3049 3677 c-105 -44 -172 -109 -223 -216 -29 -61 -31 -74 -31 -171
0 -100 2 -108 37 -182 102 -214 318 -291 537 -192 168 75 257 283 205 479 -30
117 -106 210 -216 266 -55 29 -74 33 -158 36 -82 3 -103 0 -151 -20z"/>
<path d="M5363 4420 c-59 -35 -58 -29 -61 -475 l-3 -410 -387 3 c-246 2 -400
-1 -423 -7 -19 -6 -46 -22 -60 -37 l-24 -26 -3 -266 c-4 -310 0 -362 33 -400
l23 -27 422 -5 421 -5 0 -385 c-1 -212 3 -403 8 -424 5 -22 21 -51 36 -65 l25
-26 280 -3 c315 -4 350 1 380 51 19 30 20 53 20 444 l0 412 436 3 436 3 29 33
29 32 0 315 0 314 -24 28 -24 28 -441 3 -441 3 0 405 c0 451 -1 458 -63 487
-30 15 -74 17 -314 17 -258 0 -280 -1 -310 -20z"/>
</g>
</svg>
