<svg xmlns="http://www.w3.org/2000/svg" viewBox="0 0 24 24" width="24" height="24" fill="none">
  <!-- Speaker Box -->
  <rect x="4" y="2" width="16" height="20" rx="2" ry="2" fill="#333333" stroke="#000000" stroke-width="0.7" />
  <rect x="5" y="3" width="14" height="18" rx="1" ry="1" fill="#222222" />
  
  <!-- Woofer -->
  <circle cx="12" cy="14" r="5" fill="#111111" stroke="#444444" stroke-width="0.5" />
  <circle cx="12" cy="14" r="4.2" fill="#222222" stroke="#333333" stroke-width="0.2" />
  <circle cx="12" cy="14" r="2" fill="#444444" />
  <circle cx="12" cy="14" r="0.5" fill="#555555" />
  
  <!-- Tweeter -->
  <circle cx="12" cy="6" r="2.5" fill="#111111" stroke="#444444" stroke-width="0.5" />
  <circle cx="12" cy="6" r="2" fill="#222222" stroke="#333333" stroke-width="0.2" />
  <circle cx="12" cy="6" r="1" fill="#444444" />
  <circle cx="12" cy="6" r="0.3" fill="#555555" />
  
  <!-- Ports/Decorative Elements -->
  <rect x="7" y="20" width="10" height="0.7" rx="0.3" ry="0.3" fill="#555555" />
  <rect x="18" y="5" width="0.7" height="3" rx="0.3" ry="0.3" fill="#555555" />
  <rect x="18" y="10" width="0.7" height="3" rx="0.3" ry="0.3" fill="#555555" />
  <rect x="18" y="15" width="0.7" height="3" rx="0.3" ry="0.3" fill="#555555" />
  
  <!-- Sheen/Highlights -->
  <path d="M5,3 C5,3 7,5 7,12 C7,19 5,21 5,21" stroke="#444444" stroke-width="0.2" fill="none" />
  <path d="M19,3 C19,3 17,5 17,12 C17,19 19,21 19,21" stroke="#444444" stroke-width="0.2" fill="none" />
  <path d="M12,14 C12,14 14,13 14,10" stroke="#555555" stroke-width="0.2" fill="none" />
</svg> 