<?xml version="1.0" standalone="no"?>
<!DOCTYPE svg PUBLIC "-//W3C//DTD SVG 20010904//EN"
 "http://www.w3.org/TR/2001/REC-SVG-20010904/DTD/svg10.dtd">
<svg version="1.0" xmlns="http://www.w3.org/2000/svg"
 width="388.028524pt" height="510.007147pt" viewBox="0 0 388.028524 510.007147"
 preserveAspectRatio="xMidYMid meet">
<metadata>Created by Svg.la</metadata>
<g transform="translate(-36.984692,545.984675) scale(0.100000,-0.100000)"
fill="#000000" stroke="none">
<path d="M505 5436 c-52 -24 -109 -80 -126 -123 -6 -16 -9 -900 -9 -2373 0
-2129 2 -2351 16 -2394 22 -65 97 -138 169 -165 l56 -21 1712 2 1712 3 51 27
c28 15 70 48 92 73 79 89 72 -136 72 2484 l0 2345 -21 43 c-24 49 -83 95 -144
112 -29 8 -542 11 -1785 11 l-1745 0 -50 -24z m633 -548 c51 -24 91 -80 99
-137 l6 -41 -66 0 c-62 0 -67 2 -73 24 -10 41 -37 58 -85 54 -37 -3 -45 -7
-53 -30 -18 -50 11 -89 101 -136 115 -60 193 -151 193 -227 0 -57 -56 -142
-111 -171 -48 -25 -141 -29 -201 -9 -93 30 -136 78 -153 168 l-7 37 76 0 c68
0 76 -2 76 -19 0 -11 12 -33 26 -50 47 -56 144 -35 144 32 0 49 -23 73 -112
118 -145 73 -205 161 -179 266 20 78 59 118 141 144 37 12 129 0 178 -23z
m2485 3 c81 -39 125 -136 134 -291 16 -274 -83 -415 -279 -397 -161 14 -237
150 -225 401 9 188 55 267 177 307 42 14 145 3 193 -20z m-1483 -41 l0 -59
-102 -3 -103 -3 -3 -82 -3 -83 91 0 90 0 0 -55 0 -55 -90 0 -90 0 0 -89 c0
-104 -5 -101 133 -101 l87 0 0 -55 0 -55 -175 0 -175 0 0 345 0 345 168 3 c92
1 168 4 170 5 1 1 2 -25 2 -58z m430 33 c65 -29 97 -68 115 -141 14 -52 15
-72 5 -111 -12 -51 -62 -121 -86 -121 -8 0 -14 -2 -14 -5 0 -3 31 -70 69 -150
l70 -145 -77 0 -77 0 -56 133 -55 132 -43 3 -42 3 2 -133 1 -133 -66 -3 -66
-3 0 348 0 348 137 -1 c116 -1 145 -4 183 -21z m600 -38 l0 -54 -102 -3 -103
-3 -3 -82 -3 -83 86 0 85 0 0 -55 0 -55 -85 0 -86 0 3 -92 3 -93 95 -2 c52 -1
101 -2 108 -2 8 -1 12 -19 12 -56 l0 -55 -175 0 -175 0 0 348 0 347 170 -3
170 -3 0 -54z m-1460 0 l0 -55 -70 0 -70 0 -2 -287 -3 -288 -67 -3 -68 -3 -2
288 -3 288 -67 3 -68 3 0 54 0 55 210 0 210 0 0 -55z m1216 -864 c51 -23 99
-80 121 -146 14 -39 18 -81 17 -190 0 -172 -18 -231 -91 -295 -50 -43 -94 -60
-162 -60 -159 0 -238 103 -248 326 -10 197 35 321 130 365 57 25 176 26 233 0z
m-1603 -2 c53 -14 110 -69 138 -132 19 -43 24 -74 27 -174 5 -145 -17 -238
-70 -298 -50 -58 -84 -68 -250 -73 l-148 -4 0 346 0 346 133 0 c72 0 149 -5
170 -11z m407 -334 l0 -346 -67 3 -68 3 -3 330 c-1 181 0 336 3 342 3 9 26 13
70 13 l65 0 0 -345z m637 322 c50 -27 85 -80 91 -137 6 -61 -10 -101 -53 -139
l-33 -29 36 -23 c55 -35 74 -80 70 -161 -4 -79 -23 -111 -89 -148 -42 -24 -52
-25 -194 -25 l-150 0 -3 330 c-1 181 0 336 3 343 8 22 279 13 322 -11z m944
-92 c36 -80 51 -105 55 -90 3 11 22 61 42 110 l37 90 73 3 c39 2 72 0 72 -3 0
-3 -36 -79 -81 -168 l-81 -163 86 -172 c47 -94 86 -174 86 -177 0 -3 -29 -5
-64 -5 -77 0 -77 -1 -138 144 l-42 100 -59 -122 -59 -122 -64 0 c-35 0 -64 3
-64 7 0 3 24 56 54 117 29 61 66 139 81 173 l28 63 -82 161 c-44 88 -81 163
-81 165 0 3 34 4 76 2 l76 -3 49 -110z m716 -1609 c43 -22 92 -78 103 -117 14
-47 13 -1492 0 -1541 -14 -48 -53 -94 -101 -119 -38 -19 -66 -19 -1737 -17
l-1699 3 -36 28 c-21 16 -46 46 -57 67 -19 38 -20 60 -20 800 0 812 -1 800 48
853 49 54 5 52 967 57 490 3 1253 4 1697 3 681 -2 812 -5 835 -17z"/>
<path d="M3464 4786 c-51 -22 -69 -85 -68 -228 2 -173 33 -238 115 -238 38 0
83 44 93 91 10 50 7 250 -5 291 -21 76 -76 110 -135 84z"/>
<path d="M2380 4691 l0 -101 50 0 c87 0 120 30 120 109 0 63 -25 84 -104 89
l-66 4 0 -101z"/>
<path d="M2746 3850 c-33 -40 -41 -83 -39 -214 2 -162 33 -226 108 -226 17 0
41 7 54 16 41 29 51 72 51 211 -1 186 -26 243 -106 243 -35 0 -47 -5 -68 -30z"/>
<path d="M1160 3651 l0 -231 45 0 c63 0 92 17 117 69 20 40 23 61 22 161 0
171 -26 214 -133 227 l-51 6 0 -232z"/>
<path d="M2187 3873 c-4 -3 -7 -42 -7 -85 l0 -78 45 0 c89 0 126 81 66 141
-21 21 -39 29 -64 29 -18 0 -37 -3 -40 -7z"/>
<path d="M2188 3594 c-5 -4 -8 -45 -8 -91 l0 -83 55 0 c69 0 105 29 105 84 0
53 -34 85 -95 92 -27 3 -53 3 -57 -2z"/>
<path d="M656 2190 c-24 -4 -49 -18 -63 -34 l-23 -27 0 -754 0 -754 24 -28 24
-28 1685 -3 1685 -2 31 26 31 26 0 759 0 759 -29 32 -29 33 -1649 1 c-906 1
-1666 -2 -1687 -6z m303 -215 c33 -17 41 -33 41 -85 0 -31 -6 -43 -32 -65 -90
-76 -202 53 -119 136 33 32 67 37 110 14z m1533 -87 l3 -103 48 -3 c39 -3 47
-6 47 -23 0 -17 -7 -19 -75 -19 l-75 0 0 125 0 125 25 0 c24 0 24 -1 27 -102z
m1077 91 c55 -19 69 -79 27 -118 l-25 -23 23 -37 c12 -20 26 -42 30 -48 5 -10
-2 -13 -27 -13 -30 0 -37 5 -58 45 -13 25 -30 45 -36 45 -9 0 -13 -16 -13 -45
0 -42 -2 -45 -27 -45 l-28 0 -2 117 c-1 64 0 120 3 125 7 12 95 10 133 -3z
m-2097 -60 c81 -17 185 -76 253 -144 205 -204 203 -526 -4 -734 -203 -205
-496 -213 -705 -21 -228 211 -235 545 -16 761 71 70 163 123 243 138 62 13
169 13 229 0z m1187 -344 c114 -62 176 -168 175 -300 0 -96 -44 -189 -116
-245 -63 -50 -170 -85 -231 -76 -120 19 -218 85 -267 182 -22 43 -25 62 -25
149 0 116 12 150 80 220 75 77 148 106 255 102 61 -3 86 -9 129 -32z m994 6
c60 -29 128 -97 159 -158 19 -40 23 -63 23 -143 0 -79 -4 -102 -23 -137 -107
-201 -355 -247 -521 -98 -122 110 -136 320 -30 448 32 39 95 80 157 104 55 20
177 12 235 -16z m-1788 -606 c19 -18 25 -35 25 -65 0 -30 -6 -47 -25 -65 -18
-19 -35 -25 -65 -25 -83 0 -119 84 -64 149 34 41 92 44 129 6z"/>
<path d="M3490 1910 c0 -38 2 -40 30 -40 24 0 31 5 36 27 8 29 -14 53 -48 53
-14 0 -18 -8 -18 -40z"/>
<path d="M1238 1801 c-75 -25 -116 -51 -172 -111 -70 -75 -99 -146 -104 -253
-6 -118 16 -198 75 -278 52 -71 141 -133 217 -150 75 -17 209 -7 269 20 61 27
162 122 192 181 49 99 58 244 21 350 -20 57 -79 135 -133 176 -97 74 -253 102
-365 65z m-18 -341 c46 -46 11 -124 -55 -124 -67 0 -96 64 -54 118 26 33 79
36 109 6z m387 -2 c48 -45 16 -122 -52 -122 -27 0 -43 6 -56 23 -59 73 40 163
108 99z m-192 -223 c14 -13 25 -36 25 -50 0 -33 -42 -75 -75 -75 -33 0 -75 42
-75 75 0 33 42 75 75 75 14 0 37 -11 50 -25z"/>
<path d="M2447 1480 c-143 -43 -184 -246 -71 -352 63 -58 138 -72 214 -37 56
25 77 44 101 91 44 86 33 173 -31 242 -55 59 -133 80 -213 56z"/>
<path d="M3419 1467 c-126 -67 -147 -244 -39 -341 92 -83 236 -66 307 37 22
31 28 54 31 107 4 73 -14 124 -60 167 -60 56 -164 69 -239 30z"/>
</g>
</svg>
