<?xml version="1.0" encoding="UTF-8" standalone="no"?>
<svg
   version="1.0"
   width="455.68671pt"
   height="750.75885pt"
   viewBox="0 0 455.6867 750.75885"
   preserveAspectRatio="xMidYMid"
   id="svg2"
   xmlns="http://www.w3.org/2000/svg"
   xmlns:svg="http://www.w3.org/2000/svg">
  <defs
     id="defs2" />
  <metadata
     id="metadata1">Created by Svg.la</metadata>
  <g
     transform="matrix(0.1,0,0,-0.1,-49.140214,772.75888)"
     fill="#000000"
     stroke="none"
     id="g2">
    <path
       d="m 1420,7715 c -205,-41 -376,-172 -464,-355 -38,-79 -41,-92 -44,-187 -4,-87 0,-115 22,-192 14,-50 41,-121 59,-158 21,-42 36,-89 40,-125 7,-75 33,-130 95,-205 29,-34 52,-65 52,-68 0,-4 -112,-118 -249,-253 -302,-300 -351,-362 -406,-514 -19,-52 -28,-101 -32,-170 -9,-145 19,-252 110,-427 140,-270 213,-434 272,-617 52,-158 67,-268 63,-470 l -3,-170 30,-45 c 30,-44 30,-45 31,-189 0,-115 5,-162 21,-225 40,-151 100,-523 143,-892 l 10,-91 -51,-134 c -112,-294 -141,-374 -164,-462 -43,-157 -78,-357 -77,-436 1,-41 0,-100 -1,-130 -6,-192 -2,-244 22,-290 34,-64 70,-109 101,-125 22,-11 29,-27 44,-92 41,-177 138,-311 291,-402 79,-48 149,-70 221,-71 82,0 148,24 200,75 42,40 44,44 44,99 0,111 -44,209 -193,436 -39,58 -85,137 -103,175 -31,66 -32,71 -15,85 10,8 51,110 91,225 40,116 111,302 158,415 152,370 166,417 248,830 40,206 82,426 91,489 l 18,114 69,64 c 38,35 71,61 74,58 3,-3 -15,-47 -41,-98 -26,-51 -47,-98 -47,-105 0,-19 72,-160 167,-325 l 85,-149 -6,-56 c -6,-61 -35,-702 -38,-864 -1,-79 1,-101 15,-116 14,-15 15,-27 7,-78 -22,-133 -3,-219 58,-263 17,-12 65,-37 106,-57 75,-36 101,-39 162,-19 17,5 28,-4 63,-50 76,-101 155,-173 223,-205 106,-50 216,-73 327,-68 85,3 103,7 151,34 73,41 104,86 96,139 -9,59 -59,154 -108,206 -24,24 -86,76 -138,115 -52,39 -137,106 -188,149 -84,70 -93,80 -87,104 4,14 8,145 10,291 2,147 13,383 25,528 22,285 20,335 -21,510 -46,197 -167,577 -313,980 l -55,154 21,44 22,44 -22,162 c -25,186 -48,428 -57,603 l -6,120 59,77 60,77 63,-71 c 194,-218 372,-307 502,-250 132,58 238,269 254,502 l 6,95 49,55 c 27,30 77,96 110,145 33,50 63,90 67,90 3,-1 54,-5 113,-9 105,-8 110,-8 162,18 95,47 139,126 139,251 -1,62 -7,96 -27,149 -15,38 -31,75 -37,82 -6,7 -9,17 -7,22 6,16 178,-26 253,-61 64,-31 76,-40 93,-79 52,-116 158,-200 253,-200 133,2 234,119 275,322 20,102 15,298 -11,400 -49,189 -163,326 -288,347 -99,16 -202,-67 -258,-206 l -34,-84 -63,-29 c -186,-83 -439,-128 -728,-128 -87,0 -91,1 -104,26 -18,32 -59,54 -103,54 -22,0 -37,6 -41,15 -9,25 -69,55 -109,55 -23,0 -49,8 -66,21 -32,24 -96,35 -130,22 -17,-7 -34,-4 -61,9 -33,17 -44,18 -82,8 -71,-19 -149,-115 -197,-242 l -11,-28 -127,1 c -71,1 -171,4 -223,8 l -95,6 -13,114 c -7,62 -23,148 -36,190 l -22,77 23,50 c 12,27 23,61 23,75 0,31 -39,148 -68,206 -20,38 -21,44 -7,77 21,50 18,93 -10,154 -44,94 -163,191 -304,248 -118,48 -337,66 -471,39 z m 754,-630 34,-90 -44,-84 c -24,-47 -44,-90 -44,-96 0,-6 25,-62 55,-125 30,-63 55,-120 55,-127 0,-19 -20,-27 -88,-34 -69,-7 -97,-25 -118,-76 -40,-93 19,-203 109,-203 36,0 35,-18 -6,-72 -45,-59 -107,-76 -223,-59 -157,22 -296,83 -414,183 -96,80 -119,78 -55,-4 98,-129 264,-223 448,-253 56,-9 45,-34 -36,-74 -186,-93 -454,-13 -608,181 -46,59 -47,69 -9,192 l 21,66 h 42 c 47,0 84,20 73,38 -4,7 -19,12 -34,12 -130,1 -266,223 -195,318 40,54 98,42 184,-37 71,-64 98,-81 128,-81 15,0 21,6 21,23 0,13 -5,28 -11,34 -7,7 0,26 22,62 40,64 42,114 11,215 -21,66 -30,156 -14,156 4,0 41,-10 82,-21 97,-26 297,-37 380,-19 33,7 88,27 122,45 35,18 66,30 70,26 4,-3 23,-46 42,-96 z m 2590,-199 c 87,-36 163,-163 192,-322 48,-272 -33,-544 -171,-570 -51,-9 -81,2 -131,48 -54,50 -99,138 -120,238 -23,108 -24,338 -2,410 36,115 115,210 175,210 13,0 39,-6 57,-14 z M 3010,6653 c 0,-9 -20,-46 -45,-82 -51,-74 -94,-187 -95,-243 0,-71 28,-43 93,92 72,150 167,258 206,233 20,-13 16,-40 -10,-73 -85,-108 -139,-225 -139,-301 0,-72 36,-49 59,37 10,38 120,203 174,262 38,41 97,20 78,-29 -5,-13 -31,-51 -58,-84 -26,-33 -63,-94 -82,-134 -33,-73 -53,-171 -34,-171 13,0 172,134 208,176 24,27 33,32 43,22 32,-32 11,-71 -93,-173 -98,-94 -116,-128 -157,-283 -45,-175 -71,-214 -175,-266 -48,-24 -58,-35 -135,-162 -133,-217 -370,-572 -444,-664 -105,-130 -302,-323 -359,-350 -48,-23 -50,-24 -125,-8 -107,22 -244,79 -401,165 -198,109 -194,105 -193,195 2,127 62,256 169,364 48,48 72,64 118,78 70,22 76,20 168,-63 l 63,-57 -37,-60 c -32,-52 -48,-104 -31,-104 10,0 406,312 510,402 168,145 444,456 444,501 0,49 21,295 31,361 16,112 99,323 151,386 37,45 98,65 98,33 z m 1420,-80 c 0,-37 20,-259 26,-290 l 6,-31 -60,24 c -32,13 -88,30 -123,38 -61,14 -342,53 -549,76 -87,10 -180,36 -180,51 0,4 66,9 148,13 292,13 471,43 637,104 98,36 95,36 95,15 z m -966,-39 c 21,-8 20,-52 -1,-76 -9,-10 -28,-18 -43,-18 -24,0 -28,5 -33,33 -8,51 28,80 77,61 z m -1274,-89 c 21,-25 75,-33 300,-45 118,-7 219,-15 223,-19 4,-4 5,-15 1,-24 -5,-15 -22,-17 -118,-16 -61,0 -176,4 -256,9 -135,8 -146,7 -166,-11 -11,-10 -26,-19 -32,-19 -22,0 -52,40 -52,70 0,55 69,93 100,55 z m 1601,-141 c 223,-22 275,-47 331,-161 29,-59 33,-78 33,-143 0,-123 -48,-188 -145,-198 -26,-2 -162,8 -302,23 l -256,28 -4,29 c -5,33 -18,32 172,13 362,-36 368,-36 405,-21 92,39 83,227 -14,309 -44,36 -77,44 -306,68 -110,12 -205,23 -212,24 -9,3 -9,10 0,30 14,29 -3,29 298,-1 z m -1161,-37 c 0,-1 -9,-20 -20,-42 -34,-67 -19,-156 33,-189 18,-12 23,-23 19,-41 -6,-36 -41,-32 -79,8 -41,41 -53,75 -53,145 0,75 27,122 70,122 16,0 30,-1 30,-3 z m 50,-97 -8,-35 -1,31 c -1,17 2,34 6,37 11,12 12,3 3,-33 z m 858,24 31,-6 -29,-24 c -35,-30 -64,-102 -58,-144 4,-27 2,-30 -23,-30 -26,0 -27,3 -39,81 -19,123 3,146 118,123 z m 392,-53 c 49,-23 80,-73 80,-130 0,-52 -13,-71 -47,-71 -16,0 -27,9 -37,33 -7,17 -25,43 -40,56 -14,14 -26,31 -26,39 0,9 -11,34 -25,58 l -25,42 43,-5 c 23,-3 58,-13 77,-22 z m -207,-10 c 17,-6 16,-8 -5,-27 -13,-12 -39,-26 -58,-33 -19,-6 -47,-23 -62,-38 l -28,-27 v 35 c 0,71 81,119 153,90 z m -354,-236 c 29,-194 29,-245 1,-245 -17,0 -28,36 -64,210 l -34,164 31,38 c 17,21 32,36 34,35 2,-2 16,-93 32,-202 z m 449,99 c 12,-8 22,-21 22,-30 0,-12 -11,-14 -67,-9 -104,9 -117,13 -103,30 28,34 101,38 148,9 z m -575,-179 c 4,-24 1,-49 -7,-63 l -12,-23 -22,24 -22,24 22,52 c 23,57 31,54 41,-14 z m 297,-72 c 26,-34 23,-77 -5,-81 -27,-4 -61,34 -70,76 -6,30 -5,32 23,32 21,0 37,-8 52,-27 z m 179,1 c 5,-5 -88,-144 -96,-144 -2,0 -1,10 3,22 4,12 6,48 6,80 l -1,58 42,-6 c 23,-4 44,-8 46,-10 z m -2562,-30 c 87,-29 166,-87 298,-215 98,-97 127,-130 119,-139 -21,-21 -49,-2 -181,116 -154,139 -236,199 -311,230 l -57,24 h 42 c 23,0 64,-7 90,-16 z m 2007,-123 c -10,-63 -11,-64 -49,-34 -41,33 -42,37 -14,82 l 20,33 25,-23 c 20,-19 23,-29 18,-58 z m 158,13 c 50,-13 69,-14 95,-5 26,10 38,9 62,-4 35,-17 74,-19 102,-5 16,9 19,7 19,-8 0,-44 -77,-91 -150,-92 -33,0 -54,-15 -47,-33 5,-14 49,-27 91,-27 22,0 22,-2 14,-67 -21,-184 -73,-319 -150,-389 -71,-66 -150,-68 -258,-6 -44,25 -290,264 -290,282 0,10 120,203 167,267 l 30,42 63,-57 63,-57 -12,-53 c -44,-205 46,-95 97,119 15,60 30,109 33,109 4,0 36,-7 71,-16 z M 1118,4770 c 77,-56 112,-87 112,-100 0,-11 -4,-20 -8,-20 -26,0 -242,168 -302,235 l -25,28 55,-31 c 30,-17 106,-67 168,-112 z m 247,-1225 c 159,-37 413,-37 556,0 78,20 104,18 54,-5 -130,-60 -359,-85 -504,-56 -79,16 -211,67 -211,81 0,4 8,4 18,1 9,-3 48,-13 87,-21 z m -65,-2505 c 54,-1 61,-3 40,-11 -26,-11 -97,-4 -134,12 -19,9 -19,9 4,4 14,-2 54,-5 90,-5 z"
       id="path1" />
    <path
       d="m 4657,6798 c -70,-75 -108,-253 -88,-415 15,-119 26,-156 60,-192 69,-74 103,-21 108,169 l 3,125 30,-3 c 41,-5 93,14 120,43 20,21 22,31 17,77 -13,112 -93,214 -176,225 -37,5 -44,2 -74,-29 z"
       id="path2" />
  </g>
  <path
     style="fill:#ffffff;stroke-width:1.89785"
     d="m 110.97178,177.40596 c -11.340901,-2.0181 -20.045649,-6.08424 -28.026879,-13.09186 -10.251045,-9.00054 -11.392755,-11.96138 -8.792265,-22.80142 2.001308,-8.34241 2.772038,-9.27877 8.071095,-9.80566 6.0294,-0.59952 9.860445,-5.32717 4.316873,-5.32717 -5.629185,0 -13.872893,-5.50496 -17.693918,-11.81558 -5.990572,-9.89377 -6.552315,-13.76688 -2.688712,-18.538234 3.101385,-3.830047 4.009267,-4.040966 8.109825,-1.884053 2.539612,1.335855 7.422802,4.865685 10.85154,7.844067 8.77431,7.62183 12.955312,7.13499 14.614155,-1.70171 1.975756,-10.524837 2.059826,-25.099699 0.193252,-33.502841 l -1.645365,-7.407327 6.433719,1.326625 c 3.53855,0.729644 13.266,1.806052 21.61656,2.392017 14.50566,1.017871 19.26981,0.179139 33.67971,-5.929326 2.64297,-1.120376 4.02342,0.265559 6.81756,6.844619 3.479,8.191643 3.47317,8.315024 -0.83138,17.605954 -3.99211,8.616567 -4.11852,9.8561 -1.59846,15.674015 1.50506,3.474634 3.98366,9.198154 5.508,12.718954 3.20375,7.39973 2.4193,8.7814 -4.9857,8.7814 -7.64621,0 -12.97494,6.05714 -12.93961,14.70838 0.035,8.56185 1.14525,10.44361 8.36997,14.18563 l 5.55224,2.87578 -5.24446,5.24446 c -4.88309,4.88308 -6.00838,5.1646 -16.33119,4.08566 -14.90662,-1.55805 -28.46594,-6.97089 -40.81132,-16.29174 -15.455686,-11.66915 -18.947416,-10.16882 -7.488931,3.21785 7.114771,8.312 30.321691,21.31822 38.037981,21.31822 2.4077,0 4.87898,0.81119 5.49173,1.80263 2.71907,4.39954 -16.95329,9.5407 -28.58602,7.47066 z"
     id="path3" />
  <path
     style="fill:#ffffff;stroke-width:1.89785"
     d="m 133.59714,323.78421 c -13.58863,-4.83309 -43.139436,-20.30055 -47.058974,-24.63159 -7.227285,-7.98606 4.980488,-37.14573 19.672214,-46.98933 8.46541,-5.67191 13.03652,-5.35554 21.00282,1.45359 6.56136,5.60828 6.5683,5.63155 3.32125,11.12837 -3.46842,5.87158 -4.28603,11.56519 -1.66077,11.56519 4.50436,0 62.02027,-48.96564 76.0998,-64.78683 17.733,-19.92668 20.98927,-25.98042 21.0099,-39.05981 0.0337,-21.31525 8.6631,-51.17367 17.56972,-60.79233 6.9018,-7.45363 7.00598,-4.65218 0.30495,8.20379 -6.94297,13.32023 -9.23962,28.22005 -3.63255,23.56659 1.57815,-1.30973 5.5863,-7.47884 8.907,-13.70915 6.72863,-12.62413 16.8654,-24.48394 18.03015,-21.09478 0.41303,1.20206 -2.403,7.11606 -6.25785,13.14225 -7.00455,10.94983 -11.10007,27.37395 -6.82597,27.37395 1.11832,0 4.68877,-4.98207 7.93425,-11.07125 8.11395,-15.22333 17.0316,-25.8115 19.587,-23.25614 1.39672,1.39678 0.162,4.55097 -4.11053,10.50032 -7.3401,10.22096 -11.6655,20.0886 -11.6655,26.6129 0,6.92658 2.74868,6.01071 14.05643,-4.68369 5.51842,-5.2191 10.5915,-9.48927 11.27355,-9.48927 3.23497,0 0.3777,4.76667 -8.91893,14.87905 -5.58742,6.0777 -11.49022,14.82414 -13.11742,19.43653 -1.62713,4.61239 -4.52843,13.01772 -6.4473,18.67852 -2.77508,8.18667 -5.21708,11.50636 -11.93625,16.22631 -6.20933,4.36182 -12.99743,12.98952 -25.62105,32.56453 -27.30045,42.33392 -37.38548,55.64146 -54.82481,72.34329 -18.18177,17.4129 -19.74028,17.91791 -36.69113,11.88899 z"
     id="path4" />
  <path
     style="fill:#ffffff;stroke-width:1.89785"
     d="m 417.14015,167.10276 c -9.9006,-9.90065 -11.82375,-16.88131 -11.82375,-42.91907 V 100.1622 l 5.88458,-7.293122 c 3.37552,-4.183522 7.87035,-7.533914 10.54192,-7.857869 4.80945,-0.583188 14.8881,5.872987 14.8881,9.536989 0,1.129838 -1.49452,0.707378 -3.32122,-0.938812 -6.10928,-5.505632 -12.90195,-5.948315 -17.38793,-1.133182 -11.84362,12.712616 -12.5961,55.966046 -1.10497,63.514286 6.84345,4.49531 9.37387,0.53207 10.11772,-15.84667 0.6453,-14.21103 0.8799,-14.88117 5.33738,-15.25009 8.67412,-0.71788 12.03945,-3.84937 12.2418,-11.39118 0.3513,-13.09154 3.20925,0.99672 3.41737,16.84585 0.4272,32.53524 -14.2602,51.28513 -28.791,36.75436 z"
     id="path5" />
  <path
     style="fill:#ffffff;stroke-width:0.359643"
     d="m 423.6839,173.04603 c -2.61727,-0.81798 -4.8564,-2.37712 -8.01502,-5.58114 -5.73713,-5.81951 -9.9297,-14.89383 -11.63663,-25.18604 -1.47885,-8.91727 -1.72957,-28.3053 -0.45592,-35.26423 1.8816,-10.280562 9.83842,-21.92809 16.19587,-23.708068 2.19908,-0.615697 4.89968,-0.08776 8.43923,1.64976 7.2651,3.566307 13.9065,14.108349 17.0808,27.112548 5.3694,21.99675 1.06245,48.32816 -9.41663,57.57012 -2.18107,1.92362 -4.4307,3.04902 -7.07032,3.53698 -2.61255,0.48295 -3.20865,0.46783 -5.12138,-0.12993 z m -2.87145,-16.7493 c 1.16423,-0.91579 2.25263,-3.79589 2.95905,-7.83009 0.5025,-2.86957 1.22835,-15.42794 1.2411,-21.4726 l 0.007,-2.5175 3.11588,0.11798 c 4.76197,0.18031 8.54077,-1.08974 11.39107,-3.82858 2.24393,-2.15621 2.52495,-2.98047 2.28585,-6.70474 -0.4797,-7.47289 -3.16995,-13.50981 -8.37802,-18.800487 -3.46448,-3.519396 -6.24743,-5.022058 -9.9393,-5.366816 -3.09698,-0.289196 -3.94853,-0.0338 -5.9265,1.77742 -4.4571,4.081246 -7.68818,11.486343 -9.50888,21.792643 -1.8705,10.5884 -0.50992,28.83983 2.68905,36.07183 1.56585,3.54001 5.77575,7.48842 7.9842,7.48842 0.636,0 1.57253,-0.32737 2.08118,-0.72748 z"
     id="path6" />
  <path
     style="fill:#ffffff;stroke-width:0.359643"
     d="m 391.75265,145.28342 c -10.13902,-4.09842 -19.48965,-5.78443 -59.5209,-10.73222 -12.48082,-1.54261 -18.46185,-2.59874 -22.47765,-3.96911 -2.12805,-0.72616 -3.90502,-1.60113 -3.68955,-1.81664 0.28013,-0.28009 7.5132,-0.85277 17.89545,-1.41686 20.8962,-1.13534 33.68655,-2.77418 46.57373,-5.96755 4.92345,-1.22 7.5999,-2.05774 16.15147,-5.05538 3.34478,-1.17249 6.29835,-2.04857 6.56348,-1.94684 0.30615,0.11747 0.48202,0.78788 0.48202,1.83731 0,3.60597 1.99943,25.04409 2.74103,29.38942 0.29025,1.70054 0.28365,1.70009 -4.71908,-0.32213 z"
     id="path7" />
  <path
     style="fill:#ffffff;stroke-width:0.359643"
     d="m 143.77894,327.5284 c -12.01892,-2.54417 -24.83248,-7.87835 -43.49893,-18.10826 -12.226596,-6.70063 -14.913974,-8.6445 -16.044914,-11.60582 -0.9498,-2.48701 -0.556155,-10.94292 0.74298,-15.96006 2.63433,-10.17357 8.0226,-19.10568 16.404814,-27.19421 4.53522,-4.37632 6.31868,-5.54305 10.74748,-7.03093 4.43809,-1.491 6.48568,-1.53664 8.77407,-0.19555 1.68927,0.98998 6.52596,5.04025 11.52681,9.65263 l 2.49856,2.30447 -2.75216,4.58734 c -2.92738,4.8794 -4.19611,7.75055 -4.48652,10.15297 -0.23319,1.9291 0.31223,2.2366 1.99258,1.12337 4.63275,-3.06921 40.11382,-31.15599 49.1604,-38.91533 13.99557,-12.00415 37.97892,-38.08161 43.65544,-47.46736 1.34993,-2.23188 1.27365,-1.71369 2.38358,-16.20299 0.9003,-11.75346 1.90657,-21.21473 2.70877,-25.46737 1.84755,-9.79522 8.14815,-26.25845 12.97305,-33.89808 2.2803,-3.61064 5.68635,-6.40479 8.68658,-7.12614 1.15267,-0.27712 2.42025,0.27868 2.42025,1.06121 0,0.85189 -1.6782,3.97062 -4.34498,8.07451 -7.032,10.82178 -11.61877,25.54215 -8.82825,28.33271 1.1199,1.11985 3.2136,-1.79321 7.9584,-11.07267 9.6552,-18.88288 18.48563,-28.58117 21.87345,-24.02321 0.64478,0.86742 0.67785,1.136 0.29678,2.40801 -0.23595,0.78743 -1.4256,2.77568 -2.64368,4.41833 -5.71087,7.7013 -9.45622,14.46136 -11.69077,21.1005 -1.9914,5.91687 -2.08688,12.63559 -0.17963,12.63559 1.37318,0 3.41205,-3.03069 4.49378,-6.67977 0.71137,-2.39971 1.99642,-4.9046 4.87582,-9.50415 4.58408,-7.32271 10.54448,-15.47448 13.10198,-17.91912 2.33962,-2.23636 5.3295,-2.56375 6.8256,-0.74742 1.47142,1.78641 0.48382,4.11513 -4.5522,10.73374 -2.8935,3.8029 -6.64613,9.68492 -8.4177,13.19434 -1.50855,2.98842 -3.46365,8.73553 -4.20015,12.34672 -0.66188,3.24492 -0.39098,5.47365 0.71692,5.89879 0.98535,0.37812 11.11755,-7.91495 18.93443,-15.49764 2.50215,-2.42714 4.63995,-4.41298 4.75072,-4.41298 0.11078,0 0.6126,0.4434 1.1151,0.98534 1.67273,1.80397 1.01895,4.69037 -1.8948,8.36537 -0.70575,0.89012 -3.97777,4.36966 -7.27117,7.73232 -6.60285,6.74176 -8.35575,8.83424 -10.27433,12.26507 -1.89007,3.3797 -3.10425,6.76925 -5.35575,14.95133 -2.7816,10.10866 -3.97402,13.63853 -5.8395,17.28646 -2.17357,4.25047 -5.2809,7.15599 -11.06092,10.34267 -6.04988,3.33539 -6.89685,4.35542 -16.72365,20.14 -13.71945,22.03716 -30.70448,47.51553 -39.91913,59.88052 -5.8272,7.81935 -16.59585,19.48865 -25.95127,28.12165 -7.19002,6.63482 -10.00563,8.86242 -13.07849,10.34718 -3.56569,1.72288 -4.89223,1.79614 -10.60945,0.58592 z"
     id="path8" />
  <path
     style="fill:#ffffff;stroke-width:0.359643"
     d="m 271.0925,279.8637 c -4.43722,-0.93191 -9.2439,-3.2148 -12.64575,-6.00598 -8.3181,-6.82479 -26.1957,-24.65616 -26.1957,-26.12796 0,-1.57715 18.38205,-30.28556 19.39185,-30.28556 0.2097,0 9.3219,8.10443 11.253,10.00846 l 0.97433,0.96064 -1.0611,5.21482 c -1.1595,5.6986 -1.39058,10.07331 -0.56813,10.75589 1.2867,1.06785 4.47818,-3.88399 7.16408,-11.11553 0.69795,-1.87914 2.26567,-7.13335 3.48382,-11.67603 2.0853,-7.77642 2.9865,-10.62183 3.36428,-10.62183 0.0892,0 2.5299,0.56644 5.42362,1.25876 5.7651,1.3793 8.9172,1.57899 11.35388,0.71928 2.14935,-0.75833 2.81145,-0.69098 5.99685,0.60998 2.35065,0.96005 3.28852,1.15016 5.69152,1.15377 2.03108,0.003 3.21563,-0.17634 4.02818,-0.60998 0.633,-0.33787 1.32082,-0.6143 1.52842,-0.6143 0.60323,0 0.43725,1.71043 -0.30675,3.1612 -1.8411,3.59 -7.08637,6.20552 -13.84792,6.90505 -3.59145,0.37157 -4.99455,1.07962 -5.1789,2.61345 -0.22515,1.87365 1.99365,2.93533 7.66305,3.66663 l 3.23685,0.41752 -0.0956,2.67708 c -0.0525,1.4724 -0.49072,5.21328 -0.97365,8.31305 -2.7906,17.91177 -8.3403,29.8757 -16.58865,35.76163 -3.99517,2.85087 -8.475,3.82953 -13.09155,2.85996 z"
     id="path9" />
  <path
     style="fill:#ffffff;stroke-width:0.177763"
     d="m 287.22095,207.32475 c -1.4565,-1.14567 -2.49997,-5.21448 -7.31857,-28.53801 l -1.731,-8.37876 1.84882,-2.28307 c 2.27895,-2.81417 4.2606,-4.92812 4.44503,-4.74182 0.18397,0.18578 0.79672,3.85817 2.18865,13.11664 2.47425,16.45817 2.9391,20.22354 3.0726,24.89054 0.11557,4.03855 -0.0789,5.25422 -0.95025,5.93962 -0.59048,0.46446 -0.95985,0.46324 -1.55528,-0.005 z"
     id="path10" />
  <path
     style="fill:#ffffff;stroke-width:0.0612058"
     d="m 349.0832,192.51099 c -5.05642,-0.19792 -15.4473,-1.04073 -24.83295,-2.01421 -3.8691,-0.40131 -28.1136,-3.06055 -28.13955,-3.08646 -0.0135,-0.0132 -0.1311,-0.77708 -0.26212,-1.69758 -0.13103,-0.92051 -0.26678,-1.822 -0.30165,-2.00333 -0.0907,-0.47171 -0.0782,-0.96359 0.03,-1.17229 0.051,-0.099 0.1965,-0.23273 0.32287,-0.2972 0.45128,-0.23023 0.90608,-0.27129 2.57265,-0.23222 1.92383,0.0451 2.86088,0.12504 10.90515,0.9305 22.4505,2.24796 29.07458,2.864 35.2851,3.28153 1.25273,0.0842 4.81005,0.10804 5.43203,0.0364 l 0.4131,-0.0476 v 3.18441 c 0,2.99557 -0.007,3.18384 -0.1071,3.17493 -0.0585,-0.005 -0.65168,-0.0308 -1.31723,-0.0569 z"
     id="path12" />
  <path
     style="fill:#ffffff;stroke-width:0.26557"
     d="m 342.01888,191.99414 c -9.3531,-0.72046 -45.62933,-4.4414 -45.83243,-4.70116 -0.024,-0.0303 -0.18802,-1.06511 -0.36517,-2.29962 -0.29865,-2.08163 -0.28673,-2.27152 0.16507,-2.61607 0.67883,-0.51775 3.15503,-0.3525 21.06885,1.40604 23.0142,2.25924 27.04725,2.57806 31.20458,2.46675 3.33187,-0.0892 3.8751,-0.17194 5.23132,-0.79665 2.98253,-1.37388 5.03175,-4.26434 5.95035,-8.39325 0.5895,-2.64972 0.39338,-8.06268 -0.40102,-11.06793 -1.8456,-6.98211 -6.3288,-12.43119 -11.89568,-14.45855 -4.10497,-1.49497 -6.98205,-1.92427 -30.33877,-4.52716 -11.54078,-1.28611 -16.69163,-1.95767 -16.94295,-2.20898 -0.30443,-0.30439 -0.2748,-0.59164 0.1884,-1.82972 0.30225,-0.80775 0.78975,-1.68606 1.08337,-1.9518 1.18943,-1.07641 4.122,-0.96815 22.02855,0.81319 19.968,1.98642 24.73088,2.87778 30.08138,5.62963 4.11405,2.1159 7.0992,5.67713 10.1646,12.12614 2.38035,5.00772 2.64367,6.26757 2.64367,12.64817 0,4.36828 -0.0976,5.86407 -0.4938,7.56877 -1.58542,6.8211 -4.98502,10.56409 -10.98975,12.09983 -2.37975,0.60864 -5.5458,0.63194 -12.55057,0.0924 z"
     id="path13" />
  <path
     style="fill:#ffffff;stroke-width:0.162396"
     d="m 307.97765,169.39287 c 0.0532,-1.63827 0.17078,-2.78912 0.33623,-3.2961 1.69867,-5.20341 7.63897,-8.26791 13.26847,-6.84494 1.4619,0.36952 2.58683,0.89323 2.58683,1.20425 0,0.3693 -1.95923,2.23655 -3.12593,2.97919 -1.20922,0.76972 -3.02152,1.67978 -4.31392,2.16629 -2.3883,0.89901 -4.36598,2.15016 -6.36383,4.02594 -0.75915,0.71281 -1.62547,1.51798 -1.9251,1.78926 l -0.5448,0.49324 z"
     id="path14" />
  <path
     style="fill:#ffffff;stroke-width:0.162396"
     d="m 330.5726,177.32662 c -5.42895,-0.26818 -11.80875,-1.11166 -12.66832,-1.67488 -0.58433,-0.38285 -0.48375,-0.79392 0.41385,-1.69151 0.90382,-0.9038 2.3238,-1.66169 3.90232,-2.08276 1.6332,-0.43566 5.0337,-0.39288 6.80633,0.0856 1.49895,0.40464 3.42457,1.2884 4.10062,1.88201 0.85808,0.75343 1.59758,1.88382 1.59758,2.44215 0,1.0217 -0.7434,1.20778 -4.15238,1.03937 z"
     id="path15" />
  <path
     style="fill:#ffffff;stroke-width:0.144823"
     d="m 313.20133,212.21042 c 0,-0.21359 0.12892,-0.89168 0.28657,-1.50688 0.44288,-1.72901 0.58215,-3.89301 0.5823,-9.04757 8e-5,-4.60177 0.008,-4.74293 0.28178,-4.74293 0.91762,0 7.27162,1.10679 8.08815,1.40884 0.30037,0.11111 0.29692,0.12995 -0.20415,1.10739 -1.46603,2.85992 -7.5603,11.86916 -8.72183,12.8936 -0.31132,0.2746 -0.31282,0.27408 -0.31282,-0.11245 z"
     id="path16" />
  <path
     style="fill:#ffffff;stroke-width:0.144823"
     d="m 302.41205,206.05397 c -1.5339,-0.73633 -2.90385,-2.21867 -3.92557,-4.24756 -0.82455,-1.63738 -1.53683,-4.54391 -1.29795,-5.2966 0.15795,-0.49754 0.80842,-0.64638 2.57617,-0.58949 1.44863,0.0466 1.73205,0.10036 2.50253,0.47455 1.73977,0.84486 3.50047,3.11908 4.05097,5.23247 0.92145,3.53777 -1.06597,5.79002 -3.90615,4.42663 z"
     id="path17" />
  <path
     style="fill:#ffffff;stroke-width:0.212591"
     d="m 112.20536,179.01418 c -13.496261,-1.83667 -26.591794,-9.06232 -35.813861,-19.76081 -3.529553,-4.09462 -4.856018,-6.35316 -5.061383,-8.61789 -0.21153,-2.3328 0.39153,-4.9658 3.174593,-13.86055 l 1.513275,-4.83646 h 2.151405 c 2.80689,0 5.385825,-0.33305 6.865357,-0.88661 1.505003,-0.5631 2.662448,-1.59219 2.662448,-2.36721 0,-1.23749 -1.040993,-1.79047 -3.87975,-2.06095 -4.660905,-0.4441 -8.336873,-2.38584 -12.342773,-6.51976 -3.183787,-3.28554 -5.320935,-6.51626 -6.928635,-10.47395 -2.657587,-6.54227 -2.355907,-11.886304 0.873795,-15.478512 1.934333,-2.151445 4.503383,-2.840515 7.373603,-1.977747 2.974582,0.894138 5.517645,2.594855 10.832137,7.244165 6.524813,5.708144 8.856188,7.184004 11.66598,7.385044 1.354133,0.0969 1.49799,0.065 2.007765,-0.44475 0.30201,-0.30202 0.563025,-0.81656 0.58002,-1.14342 0.09079,-1.74598 -0.241755,-3.21558 -0.926947,-4.09633 -0.692408,-0.89003 -0.237188,-2.184092 2.28291,-6.489752 1.797901,-3.07175 1.798231,-3.073077 2.028401,-8.181924 0.29904,-6.637547 0.15268,-8.52991 -0.97854,-12.652029 -1.669039,-6.081883 -2.227819,-9.217901 -2.272796,-12.755482 -0.0285,-2.241762 0.205485,-3.082575 0.85782,-3.082575 0.202957,0 2.328166,0.519596 4.722676,1.154658 6.70008,1.77696 10.38913,2.42097 17.95952,3.135242 4.62384,0.436263 19.17421,0.377366 21.79314,-0.08821 4.09967,-0.728819 8.0437,-2.095163 13.4622,-4.663749 3.85174,-1.825877 6.07341,-2.726808 6.72425,-2.726808 0.57783,0 0.89898,0.542716 2.36697,4.000003 1.53589,3.61719 5.50611,14.020507 5.50611,14.427862 0,0.156148 -1.20403,2.578826 -2.67562,5.383729 -3.3448,6.375282 -5.86899,11.797281 -5.88486,12.640773 -0.0148,0.78669 0.91691,2.978772 4.7875,11.263692 3.66881,7.85298 6.10845,13.46927 6.11018,14.06621 7.2e-4,0.24731 -0.18823,0.69062 -0.41989,0.98513 -0.78379,0.99643 -2.89259,1.57418 -7.97616,2.18525 -3.66175,0.44016 -5.70055,0.94736 -7.35693,1.8302 -3.10085,1.65273 -5.3883,5.6085 -5.96723,10.31931 -0.70487,5.73564 1.97823,11.72034 6.44326,14.37183 1.70238,1.01093 2.97719,1.38621 5.49949,1.61896 2.88629,0.26633 3.22144,0.8023 2.00781,3.21094 -1.63415,3.24323 -4.98394,6.8457 -7.65395,8.23132 -3.13149,1.62511 -4.39695,1.86688 -9.76717,1.86603 -4.80542,-7.5e-4 -6.65907,-0.18805 -11.79882,-1.19213 -8.97104,-1.75257 -17.42627,-4.87722 -25.00322,-9.24 -4.19008,-2.41265 -7.57782,-4.80132 -12.200274,-8.60232 -6.91224,-5.68389 -10.103272,-7.09516 -8.457892,-3.74059 0.645645,1.31631 3.241327,4.849 5.488095,7.4692 6.020251,7.02087 15.273381,13.50372 24.945351,17.47698 5.155,2.11768 9.72448,3.48144 15.51301,4.62985 3.77277,0.7485 4.37262,0.93155 5.08286,1.55108 0.57696,0.50327 0.44761,1.0365 -0.50108,2.06571 -1.03274,1.12038 -2.70159,2.20697 -5.70252,3.71291 -3.87395,1.94404 -7.60968,3.10892 -11.94747,3.72547 -2.73849,0.38925 -8.86511,0.3835 -11.76416,-0.011 z"
     id="path18" />
  <path
     style="fill:#ffffff;stroke-width:0.0657501"
     d="m 164.24752,140.54187 c -0.63311,-0.26634 -0.98047,-0.50488 -1.58821,-1.09065 -1.6769,-1.6163 -2.74239,-3.83985 -2.74007,-5.71821 0.003,-2.33254 1.2668,-4.54799 3.37131,-5.90938 1.74371,-1.12801 3.64795,-1.36166 5.16222,-0.6334 0.41488,0.19952 0.64865,0.38211 1.29525,1.01167 0.89139,0.8679 1.19372,1.0905 1.96506,1.44686 2.96339,1.36909 9.33843,2.11105 25.97872,3.02354 8.85165,0.4854 19.2813,1.25122 22.4208,1.64631 1.07445,0.13521 1.84508,0.27648 1.98248,0.36342 0.25477,0.16124 0.37125,0.60834 0.33667,1.29235 -0.0405,0.79583 -0.22575,1.29272 -0.63555,1.70258 -0.4797,0.47964 -1.22265,0.68952 -2.99865,0.84703 -2.64945,0.235 -14.12505,0.105 -23.14402,-0.26218 -4.20323,-0.17112 -5.55045,-0.23864 -11.80212,-0.59153 -6.46558,-0.36496 -7.8,-0.41418 -10.17037,-0.37513 -3.2768,0.054 -3.93035,0.23794 -5.44847,1.53351 -0.78768,0.67221 -1.61325,1.24644 -2.27181,1.58017 -0.6399,0.32429 -1.16223,0.36485 -1.71324,0.13304 z"
     id="path19" />
  <path
     style="fill:#ffffff;stroke-width:0.0657501"
     d="m 210.74323,173.88975 c -0.27128,-0.22059 -0.9639,-0.87847 -1.5393,-1.46195 -3.3744,-3.42179 -4.63245,-6.00703 -5.1459,-10.57459 -0.16763,-1.49115 -0.16755,-5.70402 7e-5,-6.98955 0.58538,-4.48722 2.08493,-7.34186 4.4733,-8.51542 0.88613,-0.43544 1.37198,-0.52522 2.8422,-0.52522 1.16693,0 2.18205,0.0799 2.373,0.18675 0.0994,0.0556 -0.11422,0.544 -1.24117,2.83775 -0.99413,2.02356 -1.3338,2.80226 -1.65308,3.7899 -0.53595,1.65792 -0.76335,3.04587 -0.81187,4.95487 -0.0277,1.08398 -0.0105,1.63595 0.0735,2.367 0.28065,2.44663 1.04527,4.66838 2.19667,6.38272 0.85853,1.2783 1.51178,1.93068 2.94023,2.93645 1.02967,0.72494 1.59405,1.4061 1.80052,2.17305 0.15638,0.58074 0.0285,1.93388 -0.25192,2.66049 l -0.0697,0.18081 -2.74673,-7.5e-4 -2.74665,-7.5e-4 z"
     id="path20" />
  <path
     style="fill:#ffffff;stroke-width:0.125104"
     d="m 105.35273,237.14529 c -2.23471,-0.87404 -5.33326,-3.34411 -15.244586,-12.15252 -11.610008,-10.31808 -16.691633,-14.45039 -22.366673,-18.18827 -3.612832,-2.3796 -5.652375,-3.44524 -10.574092,-5.52481 l -3.228443,-1.36412 2.290163,-0.0375 c 2.618632,-0.0429 4.026495,0.0859 6.64047,0.60744 8.41038,1.67804 16.649985,6.78547 28.223677,17.4948 4.767038,4.41102 11.496124,11.11349 14.394134,14.3372 1.87351,2.08406 2.99065,3.77219 2.80922,4.245 -0.0428,0.11155 -0.31544,0.34207 -0.60586,0.51226 -0.64224,0.37638 -1.49058,0.40197 -2.33801,0.0705 z"
     id="path21" />
  <path
     style="fill:#ffffff;stroke-width:0.125104"
     d="m 71.689516,307.14961 c -5.420152,-2.84318 -21.091635,-15.17845 -27.389152,-21.55842 -1.706625,-1.72897 -3.378413,-3.56638 -3.308513,-3.63628 0.05692,-0.0569 5.401943,2.98646 7.251045,4.12866 0.904305,0.5586 3.50199,2.25948 5.77263,3.77975 11.103555,7.43418 18.718568,13.41602 19.591733,15.38995 0.199927,0.45196 0.216877,0.63601 0.110325,1.19787 -0.15156,0.79914 -0.41829,1.24148 -0.748635,1.24148 -0.134348,0 -0.710093,-0.24436 -1.279433,-0.54301 z"
     id="path22" />
  <path
     style="fill:#ffffff;stroke-width:0.125104"
     d="m 107.72887,425.40969 c -6.65269,-0.31326 -11.190999,-1.17051 -17.996169,-3.39936 -7.048335,-2.30848 -12.979635,-4.99761 -12.726412,-5.7699 0.09556,-0.29142 0.869775,-0.21219 2.681167,0.27438 2.268885,0.60944 4.290008,1.08572 7.771005,1.83123 5.95908,1.27623 10.764885,1.92222 18.350099,2.46659 3.05323,0.21912 16.85086,0.21868 19.76642,-6.4e-4 7.61855,-0.57308 12.56582,-1.29053 17.76476,-2.57624 2.58052,-0.63817 5.13702,-1.14785 6.31776,-1.25957 1.61762,-0.15303 1.44462,0.30624 -0.48576,1.28952 -9.33482,4.75496 -27.10916,7.81893 -41.44287,7.14399 z"
     id="path23" />
  <path
     style="fill:#ffffff;stroke-width:0.075006"
     d="m 79.876651,670.32699 c -2.414085,-0.12383 -5.182252,-0.61251 -7.20057,-1.27118 -0.780292,-0.25464 -2.471047,-0.99421 -2.410747,-1.05451 0.01538,-0.0154 0.44598,0.056 0.95685,0.15878 1.670287,0.33584 4.607895,0.53424 9.517035,0.64275 3.8085,0.0842 5.07531,0.18774 5.153152,0.42126 0.057,0.17104 -1.190737,0.7052 -2.088307,0.89401 -0.283388,0.0596 -0.96234,0.14249 -1.508775,0.18417 -0.946155,0.0721 -1.40232,0.0768 -2.418638,0.0247 z"
     id="path24" />
  <path
     style="fill:#ffffff;stroke-width:0.103638"
     d="m 291.34318,128.55861 c -0.84878,-0.24353 -1.1916,-0.74943 -1.56788,-2.31381 -0.26745,-1.11208 -0.31755,-2.82702 -0.1074,-3.67916 0.33608,-1.363 1.28805,-2.64704 2.37248,-3.20031 1.30822,-0.66738 3.1308,-0.69274 4.88835,-0.068 1.15905,0.41199 1.66927,1.24432 1.74652,2.84919 0.0623,1.28871 -0.1506,2.29558 -0.72967,3.45436 -0.75788,1.51661 -2.0442,2.50187 -3.80955,2.91795 -0.7491,0.17655 -2.24205,0.19782 -2.79285,0.0397 z"
     id="path25" />
</svg>
