<?xml version="1.0" standalone="no"?>
<!DOCTYPE svg PUBLIC "-//W3C//DTD SVG 20010904//EN"
 "http://www.w3.org/TR/2001/REC-SVG-20010904/DTD/svg10.dtd">
<svg version="1.0" xmlns="http://www.w3.org/2000/svg"
 width="455.688809pt" height="750.727597pt" viewBox="0 0 455.688809 750.727597"
 preserveAspectRatio="xMidYMid meet">
<metadata>Created by Svg.la</metadata>
<g transform="translate(-49.129804,772.759649) scale(0.100000,-0.100000)"
fill="#000000" stroke="none">
<path d="M1420 7715 c-205 -41 -376 -172 -464 -355 -38 -79 -41 -92 -44 -187
-4 -87 0 -115 22 -192 14 -50 41 -121 59 -158 21 -42 36 -89 40 -125 7 -75 33
-130 95 -205 29 -34 52 -65 52 -68 0 -4 -112 -118 -249 -253 -302 -300 -351
-362 -406 -514 -19 -52 -28 -101 -32 -170 -9 -145 19 -252 110 -427 140 -270
213 -434 272 -617 52 -158 67 -268 63 -470 l-3 -170 30 -45 c30 -44 30 -45 31
-189 0 -115 5 -162 21 -225 40 -151 100 -523 143 -892 l10 -91 -51 -134 c-112
-294 -141 -374 -164 -462 -43 -157 -78 -357 -77 -436 1 -41 0 -100 -1 -130 -6
-192 -2 -244 22 -290 34 -64 70 -109 101 -125 22 -11 29 -27 44 -92 41 -177
138 -311 291 -402 79 -48 149 -70 221 -71 82 0 148 24 200 75 42 40 44 44 44
99 0 111 -44 209 -193 436 -39 58 -85 137 -103 175 -31 66 -32 71 -15 85 10 8
51 110 91 225 40 116 111 302 158 415 152 370 166 417 248 830 40 206 82 426
91 489 l18 114 69 64 c38 35 71 61 74 58 3 -3 -15 -47 -41 -98 -26 -51 -47
-98 -47 -105 0 -19 72 -160 167 -325 l85 -149 -6 -56 c-6 -61 -35 -702 -38
-864 -1 -79 1 -101 15 -116 14 -15 15 -27 7 -78 -22 -133 -3 -219 58 -263 17
-12 65 -37 106 -57 75 -36 101 -39 162 -19 17 5 28 -4 63 -50 76 -101 155
-173 223 -205 106 -50 216 -73 327 -68 85 3 103 7 151 34 73 41 104 86 96 139
-9 59 -59 154 -108 206 -24 24 -86 76 -138 115 -52 39 -137 106 -188 149 -84
70 -93 80 -87 104 4 14 8 145 10 291 2 147 13 383 25 528 22 285 20 335 -21
510 -46 197 -167 577 -313 980 l-55 154 21 44 22 44 -22 162 c-25 186 -48 428
-57 603 l-6 120 59 77 60 77 63 -71 c194 -218 372 -307 502 -250 132 58 238
269 254 502 l6 95 49 55 c27 30 77 96 110 145 33 50 63 90 67 90 3 -1 54 -5
113 -9 105 -8 110 -8 162 18 95 47 139 126 139 251 -1 62 -7 96 -27 149 -15
38 -31 75 -37 82 -6 7 -9 17 -7 22 6 16 178 -26 253 -61 64 -31 76 -40 93 -79
52 -116 158 -200 253 -200 133 2 234 119 275 322 20 102 15 298 -11 400 -49
189 -163 326 -288 347 -99 16 -202 -67 -258 -206 l-34 -84 -63 -29 c-186 -83
-439 -128 -728 -128 -87 0 -91 1 -104 26 -18 32 -59 54 -103 54 -22 0 -37 6
-41 15 -9 25 -69 55 -109 55 -23 0 -49 8 -66 21 -32 24 -96 35 -130 22 -17 -7
-34 -4 -61 9 -33 17 -44 18 -82 8 -71 -19 -149 -115 -197 -242 l-11 -28 -127
1 c-71 1 -171 4 -223 8 l-95 6 -13 114 c-7 62 -23 148 -36 190 l-22 77 23 50
c12 27 23 61 23 75 0 31 -39 148 -68 206 -20 38 -21 44 -7 77 21 50 18 93 -10
154 -44 94 -163 191 -304 248 -118 48 -337 66 -471 39z m754 -630 l34 -90 -44
-84 c-24 -47 -44 -90 -44 -96 0 -6 25 -62 55 -125 30 -63 55 -120 55 -127 0
-19 -20 -27 -88 -34 -69 -7 -97 -25 -118 -76 -40 -93 19 -203 109 -203 36 0
35 -18 -6 -72 -45 -59 -107 -76 -223 -59 -157 22 -296 83 -414 183 -96 80
-119 78 -55 -4 98 -129 264 -223 448 -253 56 -9 45 -34 -36 -74 -186 -93 -454
-13 -608 181 -46 59 -47 69 -9 192 l21 66 42 0 c47 0 84 20 73 38 -4 7 -19 12
-34 12 -130 1 -266 223 -195 318 40 54 98 42 184 -37 71 -64 98 -81 128 -81
15 0 21 6 21 23 0 13 -5 28 -11 34 -7 7 0 26 22 62 40 64 42 114 11 215 -21
66 -30 156 -14 156 4 0 41 -10 82 -21 97 -26 297 -37 380 -19 33 7 88 27 122
45 35 18 66 30 70 26 4 -3 23 -46 42 -96z m2590 -199 c87 -36 163 -163 192
-322 48 -272 -33 -544 -171 -570 -51 -9 -81 2 -131 48 -54 50 -99 138 -120
238 -23 108 -24 338 -2 410 36 115 115 210 175 210 13 0 39 -6 57 -14z m-1754
-233 c0 -9 -20 -46 -45 -82 -51 -74 -94 -187 -95 -243 0 -71 28 -43 93 92 72
150 167 258 206 233 20 -13 16 -40 -10 -73 -85 -108 -139 -225 -139 -301 0
-72 36 -49 59 37 10 38 120 203 174 262 38 41 97 20 78 -29 -5 -13 -31 -51
-58 -84 -26 -33 -63 -94 -82 -134 -33 -73 -53 -171 -34 -171 13 0 172 134 208
176 24 27 33 32 43 22 32 -32 11 -71 -93 -173 -98 -94 -116 -128 -157 -283
-45 -175 -71 -214 -175 -266 -48 -24 -58 -35 -135 -162 -133 -217 -370 -572
-444 -664 -105 -130 -302 -323 -359 -350 -48 -23 -50 -24 -125 -8 -107 22
-244 79 -401 165 -198 109 -194 105 -193 195 2 127 62 256 169 364 48 48 72
64 118 78 70 22 76 20 168 -63 l63 -57 -37 -60 c-32 -52 -48 -104 -31 -104 10
0 406 312 510 402 168 145 444 456 444 501 0 49 21 295 31 361 16 112 99 323
151 386 37 45 98 65 98 33z m1420 -80 c0 -37 20 -259 26 -290 l6 -31 -60 24
c-32 13 -88 30 -123 38 -61 14 -342 53 -549 76 -87 10 -180 36 -180 51 0 4 66
9 148 13 292 13 471 43 637 104 98 36 95 36 95 15z m-966 -39 c21 -8 20 -52
-1 -76 -9 -10 -28 -18 -43 -18 -24 0 -28 5 -33 33 -8 51 28 80 77 61z m-1274
-89 c21 -25 75 -33 300 -45 118 -7 219 -15 223 -19 4 -4 5 -15 1 -24 -5 -15
-22 -17 -118 -16 -61 0 -176 4 -256 9 -135 8 -146 7 -166 -11 -11 -10 -26 -19
-32 -19 -22 0 -52 40 -52 70 0 55 69 93 100 55z m1601 -141 c223 -22 275 -47
331 -161 29 -59 33 -78 33 -143 0 -123 -48 -188 -145 -198 -26 -2 -162 8 -302
23 l-256 28 -4 29 c-5 33 -18 32 172 13 362 -36 368 -36 405 -21 92 39 83 227
-14 309 -44 36 -77 44 -306 68 -110 12 -205 23 -212 24 -9 3 -9 10 0 30 14 29
-3 29 298 -1z m-1161 -37 c0 -1 -9 -20 -20 -42 -34 -67 -19 -156 33 -189 18
-12 23 -23 19 -41 -6 -36 -41 -32 -79 8 -41 41 -53 75 -53 145 0 75 27 122 70
122 16 0 30 -1 30 -3z m50 -97 l-8 -35 -1 31 c-1 17 2 34 6 37 11 12 12 3 3
-33z m858 24 l31 -6 -29 -24 c-35 -30 -64 -102 -58 -144 4 -27 2 -30 -23 -30
-26 0 -27 3 -39 81 -19 123 3 146 118 123z m392 -53 c49 -23 80 -73 80 -130 0
-52 -13 -71 -47 -71 -16 0 -27 9 -37 33 -7 17 -25 43 -40 56 -14 14 -26 31
-26 39 0 9 -11 34 -25 58 l-25 42 43 -5 c23 -3 58 -13 77 -22z m-207 -10 c17
-6 16 -8 -5 -27 -13 -12 -39 -26 -58 -33 -19 -6 -47 -23 -62 -38 l-28 -27 0
35 c0 71 81 119 153 90z m-354 -236 c29 -194 29 -245 1 -245 -17 0 -28 36 -64
210 l-34 164 31 38 c17 21 32 36 34 35 2 -2 16 -93 32 -202z m449 99 c12 -8
22 -21 22 -30 0 -12 -11 -14 -67 -9 -104 9 -117 13 -103 30 28 34 101 38 148
9z m-575 -179 c4 -24 1 -49 -7 -63 l-12 -23 -22 24 -22 24 22 52 c23 57 31 54
41 -14z m297 -72 c26 -34 23 -77 -5 -81 -27 -4 -61 34 -70 76 -6 30 -5 32 23
32 21 0 37 -8 52 -27z m179 1 c5 -5 -88 -144 -96 -144 -2 0 -1 10 3 22 4 12 6
48 6 80 l-1 58 42 -6 c23 -4 44 -8 46 -10z m-2562 -30 c87 -29 166 -87 298
-215 98 -97 127 -130 119 -139 -21 -21 -49 -2 -181 116 -154 139 -236 199
-311 230 l-57 24 42 0 c23 0 64 -7 90 -16z m2007 -123 c-10 -63 -11 -64 -49
-34 -41 33 -42 37 -14 82 l20 33 25 -23 c20 -19 23 -29 18 -58z m158 13 c50
-13 69 -14 95 -5 26 10 38 9 62 -4 35 -17 74 -19 102 -5 16 9 19 7 19 -8 0
-44 -77 -91 -150 -92 -33 0 -54 -15 -47 -33 5 -14 49 -27 91 -27 22 0 22 -2
14 -67 -21 -184 -73 -319 -150 -389 -71 -66 -150 -68 -258 -6 -44 25 -290 264
-290 282 0 10 120 203 167 267 l30 42 63 -57 63 -57 -12 -53 c-44 -205 46 -95
97 119 15 60 30 109 33 109 4 0 36 -7 71 -16z m-2204 -834 c77 -56 112 -87
112 -100 0 -11 -4 -20 -8 -20 -26 0 -242 168 -302 235 l-25 28 55 -31 c30 -17
106 -67 168 -112z m247 -1225 c159 -37 413 -37 556 0 78 20 104 18 54 -5 -130
-60 -359 -85 -504 -56 -79 16 -211 67 -211 81 0 4 8 4 18 1 9 -3 48 -13 87
-21z m-65 -2505 c54 -1 61 -3 40 -11 -26 -11 -97 -4 -134 12 -19 9 -19 9 4 4
14 -2 54 -5 90 -5z"/>
<path d="M4657 6798 c-70 -75 -108 -253 -88 -415 15 -119 26 -156 60 -192 69
-74 103 -21 108 169 l3 125 30 -3 c41 -5 93 14 120 43 20 21 22 31 17 77 -13
112 -93 214 -176 225 -37 5 -44 2 -74 -29z"/>
</g>
</svg>
