<?xml version="1.0" standalone="no"?>
<!DOCTYPE svg PUBLIC "-//W3C//DTD SVG 20010904//EN"
 "http://www.w3.org/TR/2001/REC-SVG-20010904/DTD/svg10.dtd">
<svg version="1.0" xmlns="http://www.w3.org/2000/svg"
 width="599.690759pt" height="594.957054pt" viewBox="0 0 599.690759 594.957054"
 preserveAspectRatio="xMidYMid meet">
<metadata>Created by Svg.la</metadata>
<g transform="translate(-81.216656,690.956833) scale(0.100000,-0.100000)"
fill="#000000" stroke="none">
<path d="M2799 6896 c-50 -18 -41 -11 -634 -471 -695 -539 -1130 -876 -1234
-955 -64 -49 -88 -74 -104 -108 -23 -54 -19 -121 10 -161 24 -32 16 -25 898
-701 391 -299 782 -600 870 -668 88 -68 176 -131 195 -139 80 -35 184 12 226
100 24 52 24 54 24 390 0 363 3 391 52 419 30 17 1083 24 1259 9 217 -20 422
-93 594 -211 101 -70 258 -237 317 -336 62 -103 113 -230 140 -346 27 -114 31
-370 9 -483 -90 -452 -422 -791 -889 -907 -84 -21 -113 -22 -772 -27 -615 -5
-689 -8 -722 -23 -65 -29 -107 -68 -135 -126 l-28 -57 0 -440 0 -440 28 -60
c48 -104 125 -164 232 -184 77 -14 1142 -15 1326 -1 375 29 638 99 944 250
445 219 753 496 1029 925 191 296 327 697 367 1075 17 162 6 527 -21 700 -66
429 -235 817 -503 1153 -345 434 -895 762 -1470 877 -232 47 -324 51 -1034 53
l-672 2 -23 23 c-23 22 -23 24 -28 391 l-5 368 -25 36 c-29 43 -109 87 -154
87 -17 -1 -47 -7 -67 -14z"/>
</g>
</svg>
