<?xml version="1.0" encoding="UTF-8" standalone="no"?>
<svg
   version="1.0"
   width="660.63776pt"
   height="1391.71pt"
   viewBox="0 0 660.63773 1391.7099"
   preserveAspectRatio="xMidYMid"
   id="svg1"
   sodipodi:docname="vocalistMale.svg"
   xmlns:inkscape="http://www.inkscape.org/namespaces/inkscape"
   xmlns:sodipodi="http://sodipodi.sourceforge.net/DTD/sodipodi-0.dtd"
   xmlns="http://www.w3.org/2000/svg"
   xmlns:svg="http://www.w3.org/2000/svg">
  <defs
     id="defs1" />
  <sodipodi:namedview
     id="namedview1"
     pagecolor="#ffffff"
     bordercolor="#000000"
     borderopacity="0.25"
     inkscape:showpageshadow="2"
     inkscape:pageopacity="0.0"
     inkscape:pagecheckerboard="0"
     inkscape:deskcolor="#d1d1d1"
     inkscape:document-units="pt">
    <inkscape:page
       x="1.1856902e-12"
       y="-6.1739761e-15"
       width="660.63776"
       height="1391.7098"
       id="page2"
       margin="0"
       bleed="0" />
  </sodipodi:namedview>
  <metadata
     id="metadata1">Created by Svg.la</metadata>
  <g
     transform="matrix(0.1,0,0,-0.1,-152.8622,1485.9425)"
     fill="#000000"
     stroke="none"
     id="g1"
     inkscape:export-filename="g1.svg"
     inkscape:export-xdpi="96"
     inkscape:export-ydpi="96">
    <path
       d="m 4666,14844 c -261,-47 -511,-245 -643,-509 -64,-127 -81,-221 -93,-488 -11,-248 -33,-433 -60,-494 -26,-58 -90,-125 -179,-184 -42,-28 -229,-126 -416,-218 -447,-220 -664,-351 -917,-552 -278,-222 -435,-525 -622,-1199 -58,-212 -126,-502 -126,-542 0,-14 12,-42 26,-63 l 25,-38 -35,-166 c -34,-158 -63,-340 -87,-536 -14,-117 -14,-282 1,-370 49,-306 176,-759 360,-1285 106,-304 102,-279 110,-600 8,-295 19,-388 62,-520 39,-123 93,-213 174,-293 51,-50 152,-107 189,-107 11,0 39,-13 61,-29 21,-16 58,-34 81,-41 l 42,-13 5,-71 c 3,-39 10,-156 16,-261 5,-104 24,-316 40,-469 17,-154 30,-292 30,-308 0,-17 -14,-47 -36,-75 -47,-62 -51,-75 -63,-187 -9,-87 -16,-108 -89,-268 -126,-276 -138,-318 -262,-872 -51,-225 -139,-598 -196,-829 -57,-231 -104,-435 -104,-454 0,-19 7,-47 15,-63 14,-27 13,-36 -5,-103 -27,-100 -48,-221 -56,-326 -10,-140 29,-265 120,-388 36,-49 44,-69 54,-135 37,-244 233,-503 472,-623 298,-150 653,-112 767,82 61,104 29,242 -138,588 -142,297 -167,355 -189,442 -28,108 -26,129 14,174 52,56 62,106 42,201 -9,42 -14,89 -11,105 6,27 140,439 383,1183 120,367 218,631 332,900 102,242 138,359 170,562 30,182 122,777 245,1588 l 65,425 147,147 c 81,81 149,145 151,143 7,-6 -64,-131 -143,-250 l -72,-110 -42,-260 c -23,-143 -41,-270 -41,-282 0,-12 24,-57 53,-100 30,-43 80,-123 112,-178 32,-55 86,-143 119,-195 126,-198 306,-513 306,-535 0,-12 -7,-42 -15,-65 -21,-59 -19,-103 7,-153 24,-49 24,-55 -36,-317 -51,-224 -90,-479 -141,-945 -52,-469 -65,-570 -106,-783 -31,-166 -35,-222 -18,-239 9,-9 8,-41 -1,-125 -7,-62 -11,-170 -8,-240 5,-151 12,-165 104,-215 59,-33 219,-89 328,-117 56,-14 96,-9 96,12 0,4 4,13 9,21 7,11 31,2 118,-43 60,-31 133,-76 163,-98 74,-56 151,-89 305,-132 172,-47 295,-66 435,-66 171,0 273,29 355,102 50,43 68,82 67,146 -1,76 -36,163 -90,223 -52,58 -127,110 -334,233 -147,86 -318,208 -370,263 -27,28 -27,29 -12,78 20,65 13,134 -21,208 -32,69 -33,60 36,412 26,138 82,430 123,650 41,220 98,508 125,640 77,376 84,433 78,630 -4,148 -10,195 -45,362 -134,635 -385,1442 -668,2147 -70,174 -101,263 -95,270 6,7 15,33 21,60 10,44 6,62 -56,283 -61,217 -65,238 -55,278 15,61 13,203 -4,309 -13,81 -13,100 5,236 32,239 100,599 141,744 l 11,39 41,-94 c 218,-499 432,-758 709,-857 110,-39 203,-37 290,6 142,70 286,237 480,556 l 48,79 V 8971 7648 l -25,-30 -25,-30 v -259 c 0,-246 1,-260 20,-279 20,-20 20,-33 20,-2429 0,-2187 -1,-2409 -16,-2415 -9,-3 -39,-6 -67,-6 -29,0 -106,-9 -172,-20 -321,-53 -558,-165 -706,-336 -142,-164 -135,-380 19,-545 349,-377 1258,-475 1841,-198 184,87 300,188 363,317 30,59 33,75 33,152 0,79 -3,92 -38,162 -118,240 -456,411 -912,461 l -105,12 v 2408 2408 l 23,30 c 22,30 22,35 19,287 l -2,256 -28,29 -27,28 3,1607 4,1607 82,85 c 108,111 145,161 201,276 31,62 50,92 58,87 7,-4 45,-29 86,-55 58,-38 82,-48 115,-48 88,1 175,84 184,179 7,79 -7,101 -134,196 l -114,85 v 78 c 0,42 -5,94 -11,116 -12,44 -77,118 -117,135 -16,7 -45,34 -64,60 -35,46 -118,111 -144,111 -6,0 -28,20 -49,45 -46,57 -103,87 -156,84 -37,-3 -42,0 -77,46 -42,56 -102,95 -147,95 -16,0 -58,-9 -91,-21 l -62,-22 -46,33 c -38,28 -46,39 -46,65 0,94 -65,187 -168,237 -64,32 -72,33 -182,33 -106,0 -119,-2 -166,-27 -66,-35 -137,-114 -166,-186 -18,-45 -22,-77 -22,-152 0,-83 3,-102 27,-151 36,-75 94,-139 154,-172 61,-33 176,-61 221,-53 33,5 34,4 25,-22 -15,-48 -9,-193 9,-249 18,-52 144,-293 180,-346 15,-21 18,-37 14,-63 -12,-62 -89,-193 -214,-363 l -55,-75 -23,45 c -12,24 -39,90 -60,147 l -37,103 22,22 c 28,30 27,70 -3,154 -14,37 -75,214 -136,393 -163,474 -214,596 -304,718 -45,60 -46,63 -32,91 12,22 25,30 56,35 56,9 116,40 136,71 23,36 28,131 15,324 -5,91 -7,170 -3,177 4,6 27,27 51,45 78,60 107,153 118,376 l 6,133 41,21 c 169,87 166,219 -9,451 -81,108 -246,275 -345,349 -310,233 -701,341 -1024,283 z m 318,-893 c 199,-137 521,-230 800,-231 h 89 l -7,-97 c -9,-131 -24,-220 -41,-253 -8,-16 -34,-39 -57,-52 -70,-38 -70,-41 -63,-319 6,-222 5,-247 -10,-259 -27,-23 -94,-14 -163,21 -70,36 -94,33 -100,-14 -2,-19 6,-33 37,-58 23,-18 41,-40 41,-48 0,-29 -29,-59 -63,-66 -71,-16 -84,-29 -111,-117 -42,-138 -85,-185 -190,-212 -89,-23 -184,1 -321,81 -231,136 -369,271 -430,421 -39,95 -59,214 -51,307 l 6,81 -56,19 c -104,35 -165,139 -172,293 -5,109 8,165 49,216 58,70 150,66 225,-10 48,-48 68,-103 79,-219 10,-102 15,-109 75,-123 97,-22 103,-17 134,120 l 17,76 77,40 c 131,68 158,93 171,152 15,69 13,197 -3,243 -8,20 -12,37 -9,37 2,0 23,-13 47,-29 z m -945,-728 c 17,-47 84,-119 136,-145 22,-11 43,-26 47,-32 4,-6 8,-50 8,-97 0,-198 93,-403 283,-623 l 51,-58 -46,-44 c -109,-103 -309,-98 -506,12 -135,76 -275,239 -334,390 -51,132 -73,282 -45,316 6,9 59,47 117,84 65,42 135,99 185,150 44,45 82,82 85,83 4,0 12,-15 19,-36 z m 2441,-857 24,-14 -36,-15 c -47,-20 -122,-89 -138,-127 -8,-19 -20,-30 -32,-30 -18,0 -20,5 -14,33 15,74 98,168 150,167 12,-1 32,-7 46,-14 z m 337,-88 c 18,-13 33,-25 33,-28 -1,-13 -158,-110 -178,-110 -32,0 -112,21 -112,29 0,14 76,80 120,105 56,32 94,33 137,4 z m 225,-129 40,-21 -79,-53 c -88,-59 -120,-92 -166,-173 -26,-48 -33,-53 -56,-49 -60,12 -81,26 -81,52 0,73 92,188 190,238 65,32 97,34 152,6 z m -462,-108 c 44,-9 80,-39 80,-67 0,-8 -10,-24 -21,-35 -18,-18 -29,-21 -71,-16 -65,8 -78,2 -78,-39 0,-35 20,-54 58,-54 13,0 28,-18 48,-57 25,-49 37,-61 89,-87 58,-30 60,-33 83,-101 21,-60 26,-96 31,-250 6,-177 6,-180 30,-190 l 23,-10 -4,-257 -5,-258 -86,-172 c -114,-230 -244,-427 -361,-544 -101,-101 -141,-124 -213,-124 -115,0 -223,51 -332,155 -127,122 -224,271 -328,505 -51,116 -133,340 -133,364 0,7 28,23 63,36 148,53 381,184 459,257 l 27,26 42,-92 c 24,-51 56,-125 73,-164 l 31,-72 -102,-100 c -122,-120 -160,-189 -170,-305 -6,-71 -6,-72 17,-68 17,2 35,23 64,73 40,67 97,128 328,350 72,69 117,125 197,245 110,165 180,300 188,361 5,32 -1,48 -34,101 -65,103 -160,288 -182,355 -26,76 -27,137 -3,183 28,57 83,72 192,51 z m 662,-30 32,-29 -34,-14 c -56,-24 -158,-114 -212,-189 -44,-60 -54,-69 -82,-69 -68,0 -74,51 -15,138 68,103 184,192 251,192 17,0 41,-12 60,-29 z m -4362,-122 c 118,-158 161,-290 161,-485 -1,-205 -57,-398 -255,-869 -54,-128 -13,92 78,420 81,293 90,350 83,523 -6,164 -37,297 -96,414 -21,43 -37,78 -35,78 2,0 31,-36 64,-81 z m 4514,-22 c 10,-7 20,-32 23,-55 6,-42 5,-43 -19,-37 -68,17 -138,-29 -237,-154 -38,-49 -70,-52 -85,-9 -23,67 52,177 161,236 62,34 126,42 157,19 z m -1924,-212 c 7,-62 9,-144 5,-190 -14,-164 -74,-396 -135,-520 l -29,-60 5,50 c 3,28 25,160 50,295 52,288 74,436 74,505 0,84 18,38 30,-80 z m 1692,-245 c 9,0 21,7 28,15 11,13 17,12 51,-7 22,-12 39,-26 39,-30 0,-5 -14,-41 -30,-80 -35,-81 -104,-189 -149,-232 l -31,-30 v 47 c 0,40 3,47 20,47 19,0 20,7 20,152 0,146 1,151 18,135 10,-10 26,-17 34,-17 z M 1955,10362 c 134,-66 306,-110 473,-119 98,-6 102,-7 96,-27 -17,-56 -78,-205 -138,-337 l -66,-146 34,-144 c 49,-205 60,-271 111,-674 51,-403 73,-546 110,-724 29,-136 76,-304 95,-341 7,-14 72,-86 145,-160 73,-74 148,-160 167,-190 23,-36 53,-113 87,-225 29,-93 63,-190 77,-214 28,-52 29,-59 7,-83 -22,-24 -53,-23 -94,5 -44,29 -68,75 -129,237 -50,136 -70,170 -100,170 -31,0 -42,-28 -47,-112 -7,-105 15,-225 56,-311 29,-60 54,-88 160,-178 36,-31 39,-61 11,-89 -28,-28 -53,-25 -125,15 -91,51 -171,141 -233,262 -52,102 -78,126 -103,97 -28,-34 34,-187 115,-287 66,-82 46,-113 -43,-67 -54,27 -90,74 -156,204 -87,168 -114,198 -145,161 -18,-22 1,-101 46,-195 19,-40 32,-75 30,-78 -12,-11 -115,110 -149,176 -77,146 -107,329 -107,652 0,256 -2,266 -120,615 -162,482 -243,765 -311,1096 -28,136 -32,174 -33,319 0,155 3,184 53,481 l 54,317 56,-38 c 31,-21 83,-51 116,-68 z M 4866,8861 c -303,-376 -989,-611 -1570,-540 -107,13 -162,32 -71,25 90,-8 333,12 481,39 406,75 813,251 1119,483 50,38 92,67 94,66 2,-2 -22,-35 -53,-73 z m 648,-5440 c -54,-83 -163,-143 -259,-144 -54,-1 -165,28 -165,42 0,4 26,5 58,3 33,-2 86,4 122,13 67,17 198,79 240,113 35,28 36,21 4,-27 z M 2587,2600 c 81,-14 177,-12 253,4 36,8 66,13 68,11 2,-2 -12,-14 -30,-28 -75,-56 -208,-64 -303,-18 -71,35 -102,56 -68,46 11,-3 47,-10 80,-15 z"
       id="path1" />
  </g>
  <path
     style="fill:#ffffff;stroke-width:2.65178"
     d="m 328.69442,250.4116 c -31.05915,-18.63499 -43.38187,-35.93024 -45.63952,-64.05618 -0.83055,-10.34645 -2.53028,-16.65158 -4.48898,-16.65158 -13.8399,0 -23.65725,-38.53729 -12.41025,-48.71565 11.09993,-10.04533 26.89583,2.60264 26.89583,21.53588 0,9.51566 4.32555,13.9209 13.66905,13.9209 6.29632,0 7.55362,-1.32659 9.10747,-9.60923 1.31093,-6.98768 3.98903,-10.78578 9.81668,-13.92181 14.7609,-7.94332 17.79045,-12.55372 17.79045,-27.07363 0,-7.413925 0.89497,-13.02118 1.98885,-12.460578 27.22747,13.954098 50.91525,20.636878 73.14945,20.636878 h 15.68497 l -1.65735,8.28679 c -0.91155,4.55774 -1.65735,11.02932 -1.65735,14.3813 0,3.35197 -3.28162,10.00359 -7.2924,14.78136 -6.83992,8.14791 -7.2924,10.25819 -7.2924,34.01357 0,28.08054 0.76658,27.17776 -19.22535,22.64159 -6.76695,-1.53543 -8.61825,-1.09959 -8.61825,2.02895 0,2.19144 1.78995,5.46996 3.97763,7.2856 5.54917,4.60536 5.0016,6.63749 -2.73855,10.16416 -3.9906,1.81824 -8.7627,7.8342 -11.7588,14.82388 -8.81145,20.5563 -24.19815,23.04925 -49.30118,7.9878 z"
     id="path2" />
  <path
     style="fill:#ffffff;stroke-width:2.65178"
     d="m 263.56982,266.91088 c -23.90962,-8.7949 -38.79607,-23.48558 -47.79352,-47.16481 -7.33373,-19.30094 -6.51008,-24.75087 5.01435,-33.17757 5.4693,-3.99917 13.60177,-10.64335 18.0723,-14.76485 l 8.12812,-7.49364 11.09723,10.2449 c 9.1227,8.42205 11.09722,11.96368 11.09722,19.90499 0,13.75708 8.47575,34.2558 21.0507,50.91113 l 10.82378,14.33599 -6.1317,4.01765 c -9.13298,5.98416 -20.58795,7.14805 -31.35848,3.18621 z"
     id="path3" />
  <path
     style="fill:#ffffff;stroke-width:2.65178"
     d="m 443.50487,498.65129 c -13.6365,-8.64799 -25.01962,-22.84476 -36.60397,-45.65142 -7.69538,-15.15025 -18.38175,-41.53667 -18.38423,-45.3936 -7.5e-4,-1.14569 5.34128,-4.3732 11.87123,-7.17224 6.52987,-2.79905 18.35265,-9.23444 26.27272,-14.30087 l 14.40023,-9.21171 5.5485,12.89787 c 3.05167,7.09383 5.5485,13.94502 5.5485,15.22488 0,1.27985 -3.6864,5.83183 -8.19203,10.1155 -4.50562,4.28368 -9.75487,10.77757 -11.66497,14.43086 -3.70118,7.07901 -6.33915,24.13035 -3.8346,24.78612 0.82515,0.21604 13.60185,-12.33177 28.3926,-27.88404 27.36862,-28.77774 44.17815,-51.83674 49.93395,-68.49865 3.00802,-8.70782 2.49637,-10.60323 -8.48033,-31.41292 -13.50105,-25.5954 -15.3027,-39.02191 -5.71507,-42.59149 6.66247,-2.4805 15.7608,-0.0461 17.32095,4.63437 0.5979,1.79373 -1.8507,3.06147 -5.91315,3.06147 -11.41193,0 -10.98983,6.86185 1.13895,18.51515 6.099,5.8599 12.0861,10.65436 13.3047,10.65436 2.98777,0 7.9587,23.99972 7.9587,38.42473 0,6.40528 1.35832,12.48546 3.01852,13.51151 2.0859,1.28916 2.56103,9.53346 1.53788,26.68351 -1.37303,23.01341 -2.3574,26.46596 -13.5378,47.48303 -20.256,38.0772 -40.06005,59.52135 -54.96908,59.52135 -3.63502,0 -12.1635,-3.52249 -18.9522,-7.82777 z"
     id="path4" />
  <path
     style="fill:#ffffff;stroke-width:0.137554"
     d="m 512.7601,271.77816 c -3.56835,-0.50833 -9.1152,-2.05619 -9.47925,-2.64523 -0.1938,-0.31356 0.42885,-1.11811 2.3067,-2.98072 3.2715,-3.24487 7.79415,-6.66324 10.83442,-8.1889 2.8452,-1.4278 4.46798,-1.84655 6.77123,-1.7473 2.33805,0.10076 4.0041,0.7988 6.62355,2.77511 1.80037,1.35841 2.28772,1.85338 2.12475,2.158 -0.57188,1.06849 -10.16085,7.24921 -14.94878,9.63547 -1.8393,0.91665 -2.09662,1.00738 -2.91855,1.02883 -0.49582,0.0129 -1.08712,-0.003 -1.31407,-0.0353 z"
     id="path5" />
  <path
     style="fill:#ffffff;stroke-width:0.137554"
     d="m 523.35167,300.13649 c -2.7339,-0.70272 -3.9609,-1.23937 -4.9863,-2.18086 -0.83535,-0.76695 -1.128,-1.44173 -1.13175,-2.60955 -0.0105,-3.33247 2.20838,-8.11711 5.91458,-12.75229 1.48455,-1.85664 4.88602,-5.25743 6.73732,-6.73592 2.87498,-2.29609 6.29025,-4.31204 9.25065,-5.46046 3.714,-1.44074 6.07958,-1.59138 9.10928,-0.58007 1.05547,0.35234 4.46535,1.97766 6.34747,3.02555 l 0.56678,0.31555 -5.04758,3.38983 c -2.77612,1.86441 -5.8803,4.00733 -6.89812,4.76206 -5.68365,4.21456 -8.50785,7.49687 -12.5586,14.59563 -1.61588,2.83184 -2.45528,4.01458 -3.14955,4.43794 -0.67478,0.41139 -2.00513,0.34497 -4.15418,-0.20741 z"
     id="path6" />
  <path
     style="fill:#ffffff;stroke-width:0.137554"
     d="m 496.37747,375.54562 c 6.30945,-10.42019 10.63598,-19.54275 11.42505,-24.08989 0.26925,-1.5518 0.27053,-3.23597 0,-4.28602 -0.27615,-1.08481 -1.30537,-3.19758 -2.54625,-5.227 -5.1879,-8.48428 -8.59605,-14.62245 -12.86602,-23.17233 -4.0965,-8.20233 -5.65185,-11.86351 -6.86648,-16.16255 -1.59427,-5.64269 -1.6188,-10.59455 -0.0713,-14.39723 2.05148,-5.0411 5.49735,-7.16281 11.62313,-7.15658 4.35075,0.005 8.94885,0.81462 11.2794,1.98741 2.5746,1.29559 4.34385,3.22082 4.68427,5.09712 0.14475,0.79812 -0.63585,2.26564 -1.94595,3.65832 -1.41787,1.50721 -2.12565,1.84799 -3.98077,1.91666 -0.76088,0.0282 -2.29403,-0.0482 -3.40688,-0.16967 -2.5782,-0.28146 -4.77735,-0.2865 -5.69805,-0.0131 -0.83257,0.24723 -1.45927,0.88879 -1.71007,1.75051 -0.0939,0.32252 -0.17385,1.23635 -0.17775,2.03072 -0.007,1.43751 -0.007,1.45007 0.60007,2.66412 0.3339,0.67089 0.75953,1.40092 0.94583,1.62229 0.63262,0.75189 2.211,1.34859 3.57532,1.35166 1.8642,0.005 2.9184,1.1238 5.42873,5.76569 1.63927,3.0312 2.30167,4.02965 3.3885,5.10725 1.1649,1.15505 2.2359,1.85356 5.3808,3.50957 5.82772,3.06869 6.1098,3.40123 8.29522,9.77772 2.31345,6.7499 2.6607,9.54908 3.25763,26.25479 0.45847,12.83279 0.64537,15.21619 1.30755,16.67477 0.3741,0.82414 0.62362,1.00365 2.57355,1.85196 l 1.3476,0.58626 v 2.9265 2.92649 h -18.76658 -18.7665 z"
     id="path7" />
  <path
     style="fill:#ffffff;stroke-width:0.137554"
     d="m 437.16827,496.67363 c -2.23215,-1.80882 -4.63815,-4.03736 -7.42177,-6.87424 -11.09603,-11.30836 -20.1204,-25.45326 -29.44418,-46.15108 -3.1767,-7.05209 -7.51777,-18.10073 -11.0121,-28.02731 l -1.08495,-3.08208 v -4.3097 -4.30971 l 0.9285,-0.46567 c 0.8967,-0.44973 1.4376,-0.6711 6.36188,-2.60375 13.04505,-5.11982 32.07517,-15.72814 40.81387,-22.75162 0.73508,-0.59078 2.09625,-1.80821 3.0249,-2.70541 l 1.6884,-1.63127 0.25965,0.59962 c 0.14288,0.32979 1.6065,3.53982 3.2526,7.13341 3.19853,6.98284 6.08153,13.48072 9.11295,20.53979 l 1.8798,4.37725 -6.67395,6.57802 c -7.7358,7.62459 -10.34077,10.42167 -13.02975,13.99052 -3.0282,4.01902 -5.26845,8.5781 -6.34177,12.90592 -0.7221,2.91167 -1.38653,8.56264 -1.38653,11.79258 0,1.5487 0.0172,1.64851 0.33765,1.96904 0.1857,0.1857 0.46103,0.33763 0.61185,0.33763 0.40485,0 2.2131,-1.55115 5.28308,-4.53186 0.9177,-0.891 1.43227,-1.54392 2.11965,-2.68971 3.73987,-6.23373 9.1176,-12.16396 24.79822,-27.34623 14.65905,-14.19319 17.07098,-16.86759 23.58878,-26.15625 7.31872,-10.43016 14.6037,-22.36152 18.5646,-30.40521 3.93577,-7.99269 5.21212,-12.53847 4.40452,-15.6866 -0.3189,-1.24319 -1.49767,-3.52798 -3.50992,-6.80341 -3.87413,-6.30607 -7.86,-13.51805 -11.63138,-21.0457 -1.8777,-3.74779 -4.31857,-8.85153 -4.31857,-9.02985 0,-0.0268 4.3176,-0.0487 9.5946,-0.0487 h 9.5946 l 0.34365,0.653 c 0.56857,1.08032 1.9086,2.76173 2.7771,3.48453 1.14787,0.95524 2.02507,1.49465 4.85692,2.98652 3.9552,2.0837 4.98053,2.82356 5.97315,4.31006 0.61238,0.91701 1.5645,3.28016 2.60708,6.47082 2.0103,6.1521 2.37255,9.43917 2.97592,27.00632 0.3846,11.19709 0.60113,13.68222 1.31385,15.07933 0.32558,0.63816 0.69585,0.88305 2.50163,1.65456 l 1.34115,0.57299 v 2.07574 c 0,2.81043 -0.3495,23.66717 -0.62963,37.83968 l -0.2283,11.5545 -5.15827,10.31652 c -6.85463,13.70902 -9.93525,19.52057 -14.0325,26.47207 -8.81933,14.96303 -16.9806,26.08603 -25.46415,34.70489 l -2.26785,2.30402 H 461.45702 438.4708 Z"
     id="path8" />
  <path
     style="fill:#ffffff;stroke-width:0.153021"
     d="m 462.72977,507.78475 c -0.25245,-0.0352 -1.11322,-0.13848 -1.91272,-0.22944 -10.0782,-1.1465 -20.12835,-6.76235 -30.22275,-16.88802 -11.46705,-11.50254 -20.65275,-25.70988 -30.03608,-46.45647 -5.34757,-11.82343 -14.2626,-35.88897 -14.2626,-38.50094 0,-0.39499 0.12308,-0.57898 0.65033,-0.97247 0.95385,-0.71177 3.966,-2.12809 6.84772,-3.2198 6.8979,-2.6132 16.08975,-7.01613 24.28658,-11.63338 l 2.70195,-1.52198 13.45567,0.0391 13.4556,0.0391 0.98655,2.21881 c 1.5939,3.58503 6.49905,14.88136 6.66518,15.34982 0.1491,0.42042 0,0.58324 -6.63683,7.13226 -7.04002,6.94938 -9.23242,9.26117 -11.7096,12.34744 -4.6914,5.84494 -7.24582,11.45315 -8.23087,18.07055 -0.33008,2.21739 -0.69743,6.53449 -0.69743,8.19643 0,1.16603 0.0532,1.51689 0.26775,1.76502 0.4338,0.50165 0.83843,0.53248 1.4142,0.10773 1.0299,-0.75988 5.44283,-4.93616 5.83485,-5.52208 0.22073,-0.32985 0.95513,-1.47545 1.632,-2.54576 3.9006,-6.1678 8.65305,-11.25678 28.42133,-30.43364 6.90427,-6.69769 9.51465,-9.40103 12.32287,-12.76164 1.8342,-2.19492 5.29598,-6.82714 7.5477,-10.0994 0.98445,-1.43076 1.9926,-2.89402 2.24018,-3.25171 l 0.45022,-0.65034 h 21.9093 21.9093 l -0.10477,6.31213 c -0.0578,3.47167 -0.20798,11.4661 -0.33398,17.7654 l -0.2292,11.45328 -6.111,12.18852 c -3.36097,6.70369 -7.05037,13.91001 -8.19862,16.01406 -8.80943,16.14221 -18.00998,29.75923 -26.5716,39.32649 -2.3838,2.66373 -8.20575,8.40009 -10.45058,10.29681 -4.07992,3.4473 -6.963,5.04643 -10.40467,5.77109 -1.17555,0.24751 -5.80155,0.4444 -6.88598,0.29307 z"
     id="path9" />
  <path
     style="fill:#ffffff;stroke-width:0.173543"
     d="m 556.8397,327.38674 c -1.42635,-0.65898 -2.37218,-2.77926 -2.3664,-5.30463 0.0165,-7.12435 7.7097,-16.51443 17.50582,-21.36696 5.62448,-2.78609 10.8129,-3.44083 13.86908,-1.75018 1.46835,0.8123 2.45512,2.90529 2.96227,6.28348 0.32318,2.15226 0.3273,2.70869 0.0233,3.12463 -0.23347,0.31929 -0.27592,0.31965 -1.69207,0.0143 -7.1817,-1.5488 -13.341,2.35284 -23.71538,15.02255 -3.01185,3.67819 -4.84162,4.78299 -6.5865,3.97686 z"
     id="path10" />
  <path
     style="fill:#ffffff;stroke-width:0.173543"
     d="m 539.67992,314.64616 c -1.52085,-0.38808 -2.40802,-1.02651 -2.94135,-2.11663 -0.42555,-0.86974 -0.46192,-1.09172 -0.3768,-2.29967 0.43448,-6.16974 9.86505,-18.15817 19.09305,-24.27167 2.04878,-1.35731 4.57793,-2.64752 6.45885,-3.29488 1.14083,-0.39265 1.6977,-0.47945 3.12375,-0.48694 1.6629,-0.009 1.79138,0.0182 3.07238,0.64432 1.36612,0.66771 2.93947,1.85163 5.06467,3.81103 l 1.19535,1.10207 -1.28212,0.49453 c -3.95715,1.52636 -7.16903,3.61685 -12.04178,7.83772 -2.4276,2.10284 -6.46335,6.11989 -8.26612,8.22792 -0.61223,0.71587 -2.19173,2.72473 -3.51,4.46416 -3.97868,5.24974 -4.81523,5.94288 -7.30523,6.05291 -0.79612,0.0352 -1.77847,-0.0357 -2.28465,-0.16487 z"
     id="path11" />
  <path
     style="fill:#ffffff;stroke-width:0.173543"
     d="m 524.16805,300.32586 c -3.57158,-0.85157 -5.47343,-1.74113 -6.33428,-2.96279 -0.49185,-0.69801 -0.51952,-0.82659 -0.5004,-2.32719 0.057,-4.46436 3.68145,-10.72673 9.46005,-16.34422 4.43145,-4.30789 8.8383,-7.12943 13.7268,-8.78861 1.3089,-0.44423 1.97115,-0.56131 3.54518,-0.62671 1.71187,-0.0712 2.11732,-0.0283 3.50835,0.37071 1.35202,0.38783 7.485,3.24807 7.485,3.49079 0,0.0438 -2.22555,1.5716 -4.94565,3.39506 -8.12265,5.44518 -11.37923,8.05543 -14.02478,11.24139 -1.94625,2.34377 -2.973,3.90559 -6.41047,9.7515 -0.53318,0.90676 -1.28505,1.95435 -1.67085,2.32798 -0.61058,0.59131 -0.82043,0.686 -1.6194,0.73088 -0.5049,0.0283 -1.50368,-0.0881 -2.21955,-0.25879 z"
     id="path12" />
  <path
     style="fill:#ffffff;stroke-width:0.173543"
     d="m 475.78825,267.5798 c -0.52283,-0.36617 -0.51195,-1.4437 0.036,-3.60464 1.75395,-6.91422 9.2313,-15.35985 14.03812,-15.85596 1.5543,-0.16043 3.888,0.55479 6.25373,1.91656 l 1.19017,0.68513 -2.1447,0.90354 c -3.0723,1.29436 -4.86157,2.40807 -7.78297,4.84455 -3.35123,2.79501 -6.09593,5.94824 -7.33845,8.43075 -0.35828,0.71586 -0.8397,1.51396 -1.06988,1.77355 -0.969,1.09291 -2.3532,1.48722 -3.18225,0.90652 z"
     id="path13" />
  <path
     style="fill:#ffffff;stroke-width:0.321176"
     d="m 378.83162,393.65204 c 0.2511,-3.04083 1.7196,-11.96049 4.82055,-29.27934 5.21655,-29.13472 7.04805,-41.33761 7.53,-50.17021 0.1626,-2.98028 0.37043,-5.49345 0.46178,-5.58481 0.5142,-0.51416 1.44202,4.1737 2.30797,11.6605 0.78098,6.7526 0.78563,18.48243 0.01,24.07348 -1.47292,10.61073 -4.33237,23.02853 -7.6332,33.14854 -2.08102,6.38034 -3.52792,10.0117 -6.05152,15.18832 l -1.64408,3.37233 z"
     id="path14" />
  <path
     style="fill:#ffffff;stroke-width:0.321176"
     d="m 123.54617,435.4851 c -0.2214,-0.3847 0.37718,-4.72069 1.25243,-9.0732 1.82925,-9.09577 3.76695,-16.78459 11.04862,-43.8404 5.8155,-21.60789 6.79658,-28.56334 6.13823,-43.5189 -0.81653,-18.55047 -3.2679,-29.18242 -9.9558,-43.17969 -1.26113,-2.6394 -2.24775,-4.9345 -2.19248,-5.10021 0.12833,-0.38514 6.50993,8.16619 9.5445,12.78972 4.58535,6.98627 8.2554,15.61198 9.90743,23.28519 1.32067,6.13438 1.74315,11.70433 1.55895,20.55521 -0.17513,8.41944 -0.48593,11.36419 -1.99178,18.87219 -2.70457,13.48445 -9.14535,32.08614 -20.87782,60.29748 -2.79008,6.70897 -3.90068,9.15349 -4.1586,9.15349 -0.0742,0 -0.19748,-0.10839 -0.27368,-0.24088 z"
     id="path15" />
  <path
     style="fill:#ffffff;stroke-width:0.321176"
     d="m 272.02975,270.42939 c -5.48333,-0.70238 -12.91043,-3.04535 -19.18215,-6.05126 -10.39815,-4.9836 -19.57418,-12.80043 -27.5214,-23.44486 -7.85025,-10.5145 -12.12128,-20.20443 -14.83868,-33.66572 -1.10025,-5.45016 -1.28235,-12.89547 -0.35685,-14.58924 0.7548,-1.38142 2.63948,-2.83603 10.55603,-8.14732 9.12487,-6.12202 13.79055,-9.92735 21.49605,-17.53209 3.63345,-3.586 6.75832,-6.52 6.94402,-6.52 0.1857,0 0.89715,1.25555 1.58093,2.79011 1.50532,3.37833 3.513,6.29961 6.2592,9.10746 2.79015,2.85275 4.43302,4.12829 7.83645,6.08418 1.58977,0.91365 3.2748,2.02535 3.74437,2.47043 1.00665,0.95408 1.1043,1.68683 1.55363,11.66533 0.17655,3.92142 0.558,8.01285 0.94312,10.11702 3.13965,17.15409 12.9504,34.78932 29.95155,53.83938 1.20323,1.34825 2.18775,2.5306 2.18775,2.62745 0,0.0969 -1.626,1.64297 -3.61327,3.43584 -2.91495,2.62981 -4.23383,3.56592 -6.82493,4.84411 -4.90365,2.41896 -7.27035,2.93236 -13.97115,3.03069 -3.09127,0.0454 -6.12637,0.0177 -6.74467,-0.0615 z"
     id="path16" />
  <path
     style="fill:#ffffff;stroke-width:0.321176"
     d="m 351.19945,261.76012 c -8.10278,-1.29692 -17.6043,-5.81199 -30.99345,-14.72788 -23.8986,-15.91422 -34.60725,-30.87194 -37.93748,-52.99054 -0.50775,-3.3724 -0.61507,-5.59574 -0.5583,-11.56231 0.063,-6.59728 0.007,-7.57173 -0.54945,-9.11474 l -0.61987,-1.72771 -2.9217,-1.03575 c -3.64748,-1.29305 -5.75115,-2.42931 -7.91115,-4.27305 -4.59855,-3.92526 -7.70663,-9.7507 -9.28958,-17.41155 -0.78915,-3.81946 -1.17255,-14.75068 -0.6375,-18.17766 0.79748,-5.1074 2.67863,-9.10829 5.71125,-12.14691 2.38785,-2.3925 4.77105,-3.47606 8.0379,-3.65452 4.77593,-0.2609 9.09113,1.7005 13.27373,6.03333 4.6572,4.82461 6.26467,9.36702 7.6971,21.75056 0.96787,8.36742 1.5396,9.94616 3.99487,11.03225 1.56893,0.694 5.95058,1.75215 8.5836,2.0729 1.452,0.17687 2.09648,0.0926 3.27323,-0.42791 2.34345,-1.03659 3.35602,-3.59916 5.86365,-14.83894 l 1.1838,-5.30573 4.68502,-2.40247 c 12.51983,-6.42005 17.01128,-9.55952 18.82995,-13.16183 2.67233,-5.2933 3.10748,-21.829363 0.75428,-28.662215 -1.0059,-2.9208 -0.78473,-2.996753 2.4642,-0.846248 10.05997,6.658785 19.06642,11.050823 30.99345,15.114133 17.56597,5.98438 35.58847,8.90001 55.19062,8.92857 l 3.96323,0.006 -0.21405,2.81029 c -1.64423,21.58772 -2.82233,29.07495 -5.10533,32.44684 -0.9972,1.47286 -3.18517,3.24965 -7.00995,5.69271 -2.28367,1.45864 -3.24262,2.71362 -4.03402,5.2792 -0.62055,2.01176 -0.6936,8.48662 -0.3954,35.02827 0.17512,15.58889 0.177,15.56992 -1.6311,16.66947 -2.9676,1.80475 -8.1711,0.89571 -16.2777,-2.84368 -3.87128,-1.78575 -6.459,-2.33091 -7.75973,-1.63478 -1.46715,0.78519 -2.13052,4.21909 -1.17285,6.07104 0.25223,0.48769 1.80878,2.12615 3.45908,3.64103 3.50137,3.21397 3.95947,3.9142 3.64785,5.57546 -0.35415,1.88771 -3.11783,4.45456 -5.51595,5.12311 -6.06923,1.692 -7.61655,2.62637 -9.216,5.5651 -0.48578,0.89247 -1.7496,4.18115 -2.8086,7.30818 -2.12828,6.28473 -3.85463,9.99826 -5.87318,12.63397 -3.79035,4.94925 -10.65037,8.02079 -18.35685,8.21922 -2.1198,0.0546 -4.28767,0.0299 -4.81762,-0.055 z"
     id="path17" />
  <path
     style="fill:#ffffff;stroke-width:0.321176"
     d="m 63.467576,759.39018 c -1.5957,-12.87578 -1.808625,-16.58063 -2.12715,-37.0154 -0.156975,-10.06884 -0.439275,-19.60774 -0.627375,-21.19756 -1.05945,-8.95451 -2.41125,-13.72937 -12.5934,-44.48276 -16.73415,-50.54232 -23.78625,-75.58696 -29.97975,-106.46955 -2.41155,-12.02422 -2.6892,-14.2072 -3.0735,-24.16371 -0.554475,-14.36541 0.04125,-23.5263 2.574075,-39.58955 1.182075,-7.49653 7.804125,-46.68593 7.9143,-46.83655 0.04275,-0.0581 1.82265,1.06387 3.9561,2.49318 18.232275,12.21483 36.152925,17.96619 61.57965,19.76307 7.083375,0.50058 8.468175,0.76938 8.468175,1.64369 0,1.69807 -7.467525,19.89151 -15.403125,37.52707 l -5.1924,11.53929 2.9454,12.54885 c 5.706525,24.3122 6.014625,26.22321 13.15605,81.60148 4.53855,35.19409 7.448174,52.60871 11.678544,69.89843 2.09543,8.56383 4.96493,18.59349 6.33953,22.15778 1.31865,3.41942 2.50785,4.82326 16.23555,19.16606 11.24115,11.74483 15.1977,16.535 17.42985,21.1019 1.92202,3.93248 3.3705,7.76333 5.98087,15.81788 l 2.0037,6.18262 h -7.7544 -7.7544 l -0.91395,-2.48565 c -1.60395,-4.3626 -4.31482,-9.5835 -5.52997,-10.65037 -0.93713,-0.82283 -1.39613,-0.98873 -2.7354,-0.98873 -2.022,0 -2.94593,0.82748 -3.6384,3.25883 -0.59078,2.07375 -1.15343,6.4731 -1.15343,9.0177 v 1.8552 H 94.464626 63.676601 Z"
     id="path18" />
  <path
     style="fill:#ffffff;stroke-width:0.321176"
     d="m 141.37877,816.96865 c -4.97835,-1.79137 -10.86757,-5.71912 -15.6627,-10.446 -5.33745,-5.26147 -8.7837,-10.12185 -13.77772,-19.43107 -3.83918,-7.1565 -6.07328,-9.95115 -7.9584,-9.95528 -0.30638,-6e-4 -1.0071,0.40095 -1.55715,0.8925 -1.30793,1.16858 -1.52993,2.98223 -0.78165,6.3846 1.43497,6.52455 5.51377,14.61653 11.22532,22.26983 4.29968,5.76142 5.2875,8.26147 3.57293,9.04275 -1.83773,0.8373 -7.96643,-1.8342 -11.24595,-4.90208 -3.4461,-3.22357 -6.043799,-7.14652 -10.929974,-16.50592 -7.605,-14.56725 -10.348575,-18.46755 -12.99075,-18.46755 -0.35925,0 -1.114425,0.41212 -1.678125,0.91582 -0.8937,0.79845 -1.043025,1.16588 -1.16625,2.86898 -0.260175,3.59677 1.283175,8.85427 5.0643,17.25217 2.30025,5.10878 3.069975,7.16138 2.790375,7.44098 -0.497475,0.49747 -4.097175,-3.17565 -8.21445,-8.38208 -6.065775,-7.67032 -9.9936,-15.90735 -12.525375,-26.2665 -2.947275,-12.05925 -3.796725,-21.6117 -4.206525,-47.30502 -0.30375,-19.03901 -0.47835,-21.81945 -1.7781,-28.31616 -1.203975,-6.01767 -3.077025,-12.12461 -11.706225,-38.16709 -11.9118,-35.94932 -17.752275,-55.27075 -22.9584,-75.95069 -3.946125,-15.67483 -7.60365,-32.62292 -8.871075,-41.10631 -0.522675,-3.49837 -1.194075,-14.54427 -1.245375,-20.48777 l -0.009,-1.04534 32.669025,0.0818 32.669025,0.0818 1.364925,5.78115 c 5.60445,23.73794 6.71835,30.16734 11.017575,63.59268 6.162825,47.9148 7.839899,59.2921 11.243619,76.27909 2.74118,13.68037 7.86075,32.71554 9.97703,37.09572 1.1379,2.35513 2.64772,4.09444 12.96442,14.93465 9.26468,9.73483 12.55485,13.35691 16.04573,17.66461 3.99202,4.92608 6.32182,10.3248 11.4261,26.47635 3.45907,10.94558 5.73667,17.16473 7.88872,21.54038 0.9675,1.96725 1.75905,3.9357 1.75905,4.3743 0,1.1223 -1.71045,3.31747 -3.09795,3.9759 -2.5143,1.1931 -6.3279,-0.25028 -9.74902,-3.69 -3.1593,-3.17633 -5.63228,-8.3253 -11.57145,-24.09233 -2.63543,-6.9963 -4.83758,-11.5494 -6.36023,-13.15005 -1.1388,-1.19707 -1.37497,-1.30282 -2.90955,-1.30282 -1.3341,0 -1.82512,0.15487 -2.43997,0.76972 -1.56473,1.56473 -2.4165,6.74565 -2.40653,14.63828 0.01,7.78372 1.15448,14.769 3.56663,21.76447 2.95237,8.5623 5.58472,12.1527 14.89642,20.31788 2.11523,1.85475 4.10318,3.66142 4.41773,4.01467 2.51527,2.82555 1.98442,6.13275 -1.3209,8.22893 -1.7208,1.09132 -3.02063,1.16055 -5.44013,0.29002 z"
     id="path19" />
  <path
     style="fill:#ffffff;stroke-width:0.193782"
     d="m 189.20552,654.81079 c -8.13652,-0.41035 -18.17407,-1.66579 -22.44405,-2.80716 -2.54407,-0.68 -1.67752,-0.83433 3.09705,-0.55161 12.00158,0.71068 36.5643,-1.54374 52.5813,-4.82603 33.8259,-6.93178 67.24613,-20.56224 94.95248,-38.72635 4.43902,-2.91023 6.85365,-4.61024 12.5958,-8.86821 5.45685,-4.04636 8.50695,-6.18303 8.63857,-6.05143 0.20078,0.20077 -4.12875,5.86555 -7.05967,9.23692 -6.61223,7.60598 -14.5194,14.46202 -24.02753,20.83346 -6.06855,4.06657 -11.63962,7.26613 -18.92377,10.86827 -24.23175,11.98295 -52.53458,19.28669 -80.7102,20.82776 -3.19215,0.1746 -15.66338,0.21753 -18.69998,0.0643 z"
     id="path20" />
  <path
     style="fill:#ffffff;stroke-width:0.0523752"
     d="m 117.29515,1231.9714 c -4.17968,-0.1223 -8.30648,-1.0243 -11.8368,-2.587 -1.4895,-0.6593 -4.9674,-2.4641 -6.782624,-3.5196 -1.0923,-0.6352 -2.0463,-1.2933 -2.146575,-1.4807 -0.11895,-0.2222 0.14595,-0.2111 1.1571,0.049 1.99335,0.5117 7.707669,1.5337 10.710669,1.9156 6.7023,0.8523 14.25353,0.7085 20.6928,-0.3943 0.66818,-0.1144 1.98803,-0.3715 2.93303,-0.5713 3.70267,-0.783 5.88202,-1.1063 5.88202,-0.8725 0,0.2976 -2.34757,2.3102 -3.8496,3.3003 -0.91095,0.6005 -1.4031,0.8813 -2.4069,1.3733 -3.33495,1.6349 -7.71712,2.6646 -11.78677,2.7699 -0.57615,0.015 -1.13003,0.032 -1.23083,0.04 -0.1008,0.01 -0.70185,0 -1.33552,-0.022 z"
     id="path21" />
  <path
     style="fill:#ffffff;stroke-width:0.112627"
     d="m 370.09052,1158.0723 c -3.25605,-0.3364 -8.38987,-1.4706 -11.1501,-2.4634 -1.72755,-0.6214 -2.90647,-1.3561 -2.62597,-1.6366 0.20955,-0.2095 2.61577,-0.3107 4.86757,-0.2047 4.1421,0.195 9.06278,-0.2992 13.10895,-1.3168 3.4821,-0.8758 9.1686,-3.158 14.72183,-5.9084 4.44832,-2.2032 7.23937,-3.8544 9.68505,-5.7298 1.2117,-0.9291 1.89112,-1.3157 2.0439,-1.163 0.2532,0.2533 -2.3115,4.4314 -3.99285,6.5046 -0.97583,1.2033 -3.26138,3.4541 -4.5834,4.5137 -4.87163,3.9046 -10.9158,6.5483 -16.70723,7.3075 -1.19835,0.1571 -4.2516,0.2122 -5.36775,0.097 z"
     id="path22" />
  <path
     style="fill:#ffffff;stroke-width:0.260577"
     d="m 554.33905,376.96922 c 0.0593,-2.78878 0.18322,-4.06133 0.41977,-4.29952 0.18488,-0.18606 0.8298,-0.4608 1.43318,-0.6105 1.8984,-0.47097 1.84755,-0.0943 2.0208,-14.97155 0.11325,-9.72526 0.2376,-13.3148 0.47632,-13.7557 l 0.3231,-0.59658 1.0047,0.7957 c 2.36708,1.87478 3.93503,1.94297 5.88435,0.25589 0.65513,-0.56707 1.43378,-1.03104 1.73018,-1.03104 0.74512,0 4.97647,2.26667 6.22267,3.33336 0.56318,0.48207 1.02398,1.0646 1.02398,1.29451 0,0.59598 -3.2529,8.65686 -4.49423,11.13704 -3.96142,7.91463 -9.28837,15.69355 -13.74007,20.06441 l -2.38853,2.34519 z"
     id="path23" />
</svg>
