<?xml version="1.0" encoding="UTF-8" standalone="no"?>
<svg
   version="1.0"
   width="610.6463pt"
   height="1404.3844pt"
   viewBox="0 0 610.64633 1404.3844"
   preserveAspectRatio="xMidYMid"
   id="svg1"
   xmlns="http://www.w3.org/2000/svg"
   xmlns:svg="http://www.w3.org/2000/svg">
  <defs
     id="defs1" />
  <metadata
     id="metadata1">Created by Svg.la</metadata>
  <g
     transform="matrix(0.1,0,0,-0.1,-162.17422,1488.609)"
     fill="#000000"
     stroke="none"
     id="g1">
    <path
       d="m 4945,14884 c -252,-36 -472,-150 -665,-344 -153,-152 -248,-301 -292,-456 -29,-104 -31,-299 -4,-460 17,-105 17,-115 1,-190 -26,-123 -30,-262 -11,-389 16,-111 136,-561 180,-678 l 24,-62 -113,-116 c -148,-152 -174,-191 -435,-679 -46,-85 -133,-243 -193,-350 -60,-107 -110,-204 -110,-215 0,-11 6,-41 13,-67 14,-47 14,-47 -25,-105 l -38,-58 -29,85 c -36,109 -66,265 -74,390 l -7,99 74,79 c 75,80 136,173 179,272 27,63 39,215 22,288 -9,39 -8,42 11,42 11,0 43,19 71,43 49,41 53,42 136,47 150,10 276,94 342,228 32,64 33,72 33,182 0,108 -2,119 -31,180 -100,207 -326,269 -541,149 -113,-64 -203,-199 -203,-304 0,-39 -4,-47 -46,-84 -53,-46 -74,-50 -111,-21 -89,69 -266,55 -319,-25 -9,-14 -26,-25 -39,-25 -33,0 -87,-41 -110,-83 -15,-28 -29,-40 -58,-48 -53,-14 -104,-63 -124,-119 -15,-42 -22,-50 -56,-60 -53,-16 -110,-76 -127,-133 -18,-66 -9,-171 21,-237 l 25,-54 -68,-59 c -45,-39 -71,-68 -74,-87 -4,-16 -16,-32 -30,-39 -14,-6 -47,-31 -73,-56 -53,-49 -65,-85 -50,-141 7,-25 4,-43 -15,-85 -44,-97 -61,-214 -60,-419 1,-237 13,-312 164,-1075 132,-666 150,-773 179,-1055 44,-422 44,-423 35,-3290 -5,-1504 -9,-2770 -9,-2812 v -77 l -65,-22 c -256,-85 -459,-247 -555,-442 -57,-116 -79,-213 -72,-327 24,-381 359,-669 882,-755 135,-23 324,-29 450,-16 467,51 808,240 954,529 47,93 64,179 58,297 -14,315 -257,578 -652,708 -89,30 -230,62 -317,72 l -58,7 v 2449 c 0,2366 1,2448 18,2461 39,27 42,49 42,309 v 252 l -40,37 -40,37 v 752 752 l 43,-34 c 142,-116 282,-106 489,34 122,83 343,316 467,494 23,33 44,59 47,58 9,-4 91,-128 114,-172 28,-56 58,-198 66,-316 10,-137 -13,-238 -127,-580 -62,-182 -102,-318 -103,-345 0,-25 7,-73 18,-106 l 18,-61 -41,-173 c -149,-612 -204,-1079 -256,-2140 -25,-503 -22,-540 51,-764 38,-118 58,-215 100,-471 14,-88 54,-295 89,-460 89,-420 90,-423 76,-519 -10,-72 -9,-89 9,-151 31,-108 28,-132 -31,-220 -74,-110 -194,-232 -358,-363 -303,-242 -421,-396 -421,-545 1,-171 153,-247 470,-234 277,12 410,75 620,295 59,61 124,119 147,131 24,12 102,37 173,56 318,85 401,177 400,445 0,87 -6,142 -25,225 -49,211 -48,199 -31,256 20,68 20,130 -1,224 -15,71 -15,82 0,173 48,276 73,581 63,767 -8,153 -45,333 -97,477 -22,62 -43,120 -45,129 -3,8 13,62 36,120 123,308 330,891 330,930 0,11 3,19 8,19 4,0 22,-66 40,-148 18,-81 60,-246 94,-367 236,-863 372,-1267 486,-1445 70,-109 108,-197 167,-390 31,-102 99,-297 150,-435 105,-281 120,-330 170,-537 30,-124 35,-164 35,-265 0,-127 16,-213 52,-290 21,-44 23,-61 22,-218 0,-149 -4,-185 -28,-288 -39,-170 -77,-268 -185,-477 -146,-284 -162,-319 -182,-399 -50,-197 6,-345 156,-413 68,-30 242,-38 336,-14 145,37 348,161 455,279 95,104 123,168 224,507 17,58 63,168 101,245 90,183 100,242 76,437 -9,73 -28,180 -43,238 -24,99 -25,109 -12,175 21,113 17,240 -11,300 -43,93 -43,99 -46,560 -2,474 -8,561 -56,783 -50,229 -173,516 -290,672 l -64,85 v 305 c 0,328 8,460 29,460 7,0 40,13 72,30 32,16 64,30 69,30 23,0 116,51 151,82 22,19 59,42 83,52 125,49 207,149 261,321 31,100 37,279 16,530 l -17,200 40,270 c 22,149 56,376 75,505 47,315 63,477 77,777 19,404 9,480 -137,1033 l -87,325 22,37 c 11,20 21,53 21,72 0,54 -232,794 -311,994 -84,211 -188,388 -295,502 l -64,67 v 69 c -1,89 -22,137 -99,217 -32,34 -62,72 -65,84 -4,13 2,44 17,80 39,94 52,161 51,278 0,95 -3,119 -27,179 -39,100 -83,167 -197,299 -55,66 -112,140 -125,167 -38,76 -63,181 -81,339 -30,285 -74,460 -159,637 -71,151 -139,246 -251,353 -146,140 -298,224 -503,278 -83,22 -120,26 -276,28 -99,2 -193,1 -210,-1 z m -595,-703 c 0,-49 54,-185 100,-254 58,-87 113,-140 215,-207 91,-59 187,-97 355,-140 159,-40 240,-79 311,-150 43,-42 62,-72 83,-126 31,-81 54,-107 95,-107 41,0 82,33 141,114 68,93 97,111 177,107 55,-4 67,-8 97,-37 70,-68 74,-200 11,-328 -41,-82 -93,-134 -182,-178 -48,-25 -70,-29 -128,-29 l -70,1 -50,-85 c -83,-141 -233,-287 -390,-379 -167,-98 -455,-164 -614,-142 -76,11 -165,51 -187,84 -47,71 -181,552 -209,745 -19,139 -19,197 5,309 15,71 20,133 20,255 0,106 5,182 15,224 28,118 87,233 158,310 35,37 47,40 47,13 z m 1268,-1599 c 6,-188 69,-310 199,-387 36,-21 35,-24 -19,-130 -81,-160 -317,-381 -494,-463 -329,-151 -669,15 -663,322 1,56 15,140 18,107 0,-8 7,-22 14,-30 8,-9 24,-43 36,-76 25,-68 46,-95 72,-95 26,0 33,38 24,128 -5,43 -9,95 -9,116 l -1,39 147,48 c 80,26 177,64 213,85 159,89 333,240 405,352 25,39 47,71 50,71 3,1 6,-38 8,-87 z m -2102,-106 c 86,-40 154,-143 154,-232 0,-30 -13,-44 -41,-44 -6,0 -23,29 -39,64 -35,79 -89,140 -152,172 -43,22 -47,27 -38,44 14,27 53,25 116,-4 z m -500,-166 c 50,-24 124,-101 153,-157 l 20,-40 -38,-25 -37,-24 -38,52 c -47,64 -121,143 -161,171 l -30,22 25,10 c 38,15 60,13 106,-9 z m -121,-115 c 64,-28 119,-75 152,-132 22,-37 25,-53 21,-104 -7,-94 -18,-93 -88,11 -70,102 -121,150 -197,188 -57,28 -66,48 -30,61 30,12 82,3 142,-24 z m -128,-130 c 80,-40 151,-109 185,-180 l 23,-47 -33,-29 c -18,-16 -37,-29 -42,-29 -5,0 -22,17 -37,37 -71,93 -128,145 -199,179 -39,19 -79,34 -88,34 -20,0 -21,19 0,48 25,36 104,31 191,-13 z m 520,-77 c 34,-39 48,-89 48,-173 0,-69 -4,-89 -32,-147 -44,-93 -84,-150 -174,-243 -48,-51 -79,-93 -83,-112 -10,-43 11,-258 36,-373 31,-147 72,-259 160,-444 98,-207 146,-331 155,-394 8,-63 19,-82 48,-82 62,0 77,118 32,252 -15,42 -51,129 -81,193 -31,65 -53,121 -51,126 3,4 42,58 85,119 44,62 84,119 89,127 7,14 13,14 57,-1 62,-20 187,-93 237,-137 l 37,-34 4,-155 c 3,-120 8,-171 25,-224 l 20,-69 -76,-111 c -162,-236 -325,-412 -466,-504 -174,-114 -251,-107 -389,35 l -48,48 v 754 l -1,754 24,26 c 44,46 47,63 47,228 v 159 l 68,56 c 37,30 82,59 100,63 19,4 36,13 39,21 3,8 0,59 -7,114 -12,89 -11,101 4,124 21,33 65,35 93,4 z m -646,-76 c 102,-49 156,-122 129,-171 -15,-29 -39,-26 -80,8 -45,36 -93,61 -120,61 -30,0 -91,-33 -124,-69 -17,-17 -33,-31 -37,-31 -10,0 -39,89 -39,119 1,38 23,72 61,93 47,25 147,21 210,-10 z m 1454,-444 c -19,-94 -166,-620 -172,-614 -7,7 18,219 38,318 10,53 32,134 49,180 37,107 93,225 98,210 2,-6 -4,-49 -13,-94 z m -1480,-151 c 5,-36 16,-59 41,-86 l 34,-38 v -533 c 0,-294 -2,-531 -4,-529 -17,17 -38,221 -46,445 -8,222 -21,440 -45,735 -2,36 -2,69 3,73 4,4 8,2 9,-6 1,-7 5,-35 8,-61 z m -120,-203 c 8,-98 19,-300 25,-449 6,-148 15,-310 21,-360 18,-159 71,-338 126,-427 l 23,-38 v -920 -921 l -40,-38 -41,-39 3,-255 3,-255 33,-41 32,-40 V 4901 l -1,-2429 -52,-7 c -29,-3 -85,-11 -125,-17 -40,-6 -74,-9 -75,-7 -1,2 0,607 3,1344 3,737 5,2051 5,2920 -1,2004 13,1820 -225,3020 -60,303 -116,600 -126,660 -41,270 -32,547 23,688 14,34 19,37 53,37 53,0 89,15 130,55 19,18 45,36 57,39 12,4 46,27 75,51 29,24 54,42 55,41 2,-2 10,-83 18,-182 z m 3874,-627 c 89,-267 143,-449 136,-456 -22,-21 -104,134 -154,293 -40,123 -91,423 -71,411 5,-3 45,-114 89,-248 z m 1082,-573 c 159,-597 154,-567 153,-899 -1,-148 -7,-340 -13,-425 -13,-166 -64,-554 -111,-840 -15,-96 -36,-242 -45,-325 -16,-140 -16,-161 -1,-311 31,-307 19,-486 -39,-607 -26,-55 -82,-128 -70,-92 4,11 14,48 22,83 24,97 -5,171 -39,100 -9,-18 -41,-85 -71,-148 -49,-102 -124,-210 -147,-210 -4,0 10,35 31,78 41,82 72,188 67,225 -2,14 -10,22 -23,22 -21,0 -32,-19 -131,-228 -26,-54 -58,-112 -72,-129 -29,-35 -134,-88 -173,-88 -50,0 -68,55 -28,88 74,59 92,81 124,145 42,85 65,198 64,310 0,98 -16,152 -43,152 -30,0 -54,-43 -82,-150 -27,-101 -70,-201 -97,-224 -26,-21 -82,-25 -100,-6 -22,22 -21,35 7,119 14,39 30,109 36,156 30,225 74,338 201,507 140,187 158,240 166,483 3,91 0,258 -6,373 -6,114 -16,300 -22,415 -9,156 -8,258 1,414 l 11,206 -35,104 c -19,56 -88,231 -154,388 l -120,285 112,7 c 197,12 425,90 531,182 22,19 41,33 43,31 1,-1 25,-87 53,-191 z m -740,-349 c 192,-454 182,-423 178,-555 -8,-223 -4,-568 9,-810 20,-392 23,-474 17,-468 -3,3 -13,52 -21,109 -24,165 -63,356 -90,440 -17,55 -22,84 -15,101 5,12 12,46 15,74 10,68 -5,123 -124,449 -148,404 -154,425 -146,517 9,112 62,395 72,386 1,-2 49,-111 105,-243 z M 4203,8222 c 156,-116 489,-286 683,-351 452,-152 917,-160 1324,-25 58,19 133,51 168,70 71,39 72,39 72,21 0,-8 -26,-33 -57,-56 -266,-197 -776,-255 -1272,-145 -317,70 -637,219 -862,400 -60,49 -129,124 -114,124 3,0 29,-17 58,-38 z m 804,-1014 c 98,-70 125,-101 152,-172 34,-92 37,-109 15,-104 -12,2 -32,29 -52,71 -28,56 -45,75 -97,112 -64,46 -235,218 -235,236 0,10 35,-13 217,-143 z M 4240,3594 c 37,-12 98,-20 185,-24 l 130,-5 -55,-20 c -80,-28 -208,-27 -275,3 -60,28 -95,59 -95,84 0,19 1,19 28,0 15,-11 52,-28 82,-38 z M 6665,2550 c 100,-40 194,-41 290,-5 72,27 83,20 31,-20 -83,-63 -194,-81 -286,-46 -60,23 -120,66 -120,87 0,18 -3,19 85,-16 z M 2690,1884 c 24,-84 98,-116 187,-79 43,18 48,16 26,-14 -32,-47 -114,-64 -178,-37 -70,29 -85,90 -68,261 l 7,70 7,-78 c 4,-43 12,-98 19,-123 z"
       id="path1" />
  </g>
  <path
     style="fill:#ffffff;stroke-width:0.411031"
     d="m 288.87275,264.39606 c -6.2673,-0.81483 -14.84617,-4.19558 -18.09532,-7.13096 -1.92353,-1.73778 -3.2313,-4.57875 -6.35483,-13.80443 -4.66972,-13.79237 -12.01057,-41.37659 -14.6577,-55.07826 -2.739,-14.17663 -3.16177,-25.59829 -1.28572,-34.73218 1.83007,-8.91015 2.09197,-11.79244 2.4648,-27.1281 0.20332,-8.3645 0.56812,-16.79812 0.81067,-18.74139 1.55963,-12.494965 8.62463,-27.467489 16.94078,-35.901954 3.65047,-3.702384 3.77782,-3.694571 4.16265,0.255394 0.58987,6.054372 6.73162,19.88806 11.9772,26.97766 4.932,6.66569 10.1055,11.4711 18.11542,16.82655 9.50558,6.35538 17.99198,9.82605 35.55428,14.54056 18.29017,4.90989 24.99697,8.15922 32.60745,15.79767 3.84945,3.86367 5.22277,5.98548 8.05665,12.44748 3.6909,8.41644 5.0067,9.93416 8.89192,10.25635 4.48043,0.37156 8.00625,-2.32732 15.27608,-11.69332 6.20497,-7.99409 8.4003,-9.66027 13.46947,-10.22286 3.46463,-0.38454 8.5995,0.40859 10.7304,1.65741 1.9872,1.16456 4.37708,3.78405 5.57715,6.11292 2.3454,4.55163 2.97818,11.21475 1.66365,17.51757 -2.72857,13.08231 -10.00455,22.63551 -21.69502,28.48496 -4.95248,2.47799 -7.0248,2.90524 -13.82933,2.8512 l -6.04417,-0.048 -3.46643,5.83234 c -1.9065,3.20778 -4.52887,7.31205 -5.82742,9.12059 -8.6187,12.00345 -22.40768,24.42578 -35.27408,31.77802 -16.33312,9.33323 -44.68447,15.98593 -59.76855,14.02479 z"
     id="path2" />
  <path
     style="fill:#ffffff;stroke-width:0.411031"
     d="m 336.65533,333.45301 c -16.93403,-2.28432 -29.93625,-13.1538 -33.49575,-28.0014 -0.94583,-3.94515 -1.11293,-11.52224 -0.3651,-16.5503 l 0.46027,-3.09469 1.61933,2.68489 c 0.89062,1.47669 2.36632,4.5693 3.27922,6.87247 2.84655,7.18096 4.63793,9.86615 6.91598,10.36649 3.7236,0.81783 4.40857,-3.0214 3.0663,-17.18675 -0.3519,-3.71399 -0.58305,-7.73167 -0.51375,-8.92818 l 0.12607,-2.17548 11.30333,-3.7835 c 19.00777,-6.36234 22.71307,-8.0064 32.14935,-14.26479 10.74742,-7.128 21.54495,-16.42993 27.98617,-24.10992 1.63095,-1.94457 4.44338,-5.72994 6.24983,-8.41194 l 3.28455,-4.87635 0.27885,2.8212 c 0.15337,1.55165 0.4722,5.59565 0.70845,8.98666 1.13872,16.34338 6.90922,27.20257 18.4344,34.69082 1.8303,1.1892 3.4305,2.42985 3.55605,2.75699 0.57307,1.4934 -3.5421,10.11318 -8.02455,16.80838 -3.89055,5.81127 -8.3607,10.99809 -15.41715,17.88912 -15.6999,15.33176 -30.28643,24.14049 -44.55165,26.90451 -4.22708,0.81903 -13.11435,1.13269 -17.0502,0.60177 z"
     id="path3" />
  <path
     style="fill:#ffffff;stroke-width:0.411031"
     d="m 200.03128,267.46864 c -0.47333,-0.60178 -1.8861,-3.12572 -3.13943,-5.60876 -4.7559,-9.42207 -8.35155,-13.32694 -16.32585,-17.72968 -3.1041,-1.71384 -3.43942,-2.50809 -1.76557,-4.18199 1.3227,-1.32264 3.60345,-1.32205 7.35532,0.002 8.12985,2.8689 14.70293,9.72241 17.36528,18.10631 1.3104,4.12653 1.33455,7.58348 0.063,8.98244 -1.43843,1.58222 -2.54108,1.71562 -3.55253,0.42978 z"
     id="path4" />
  <path
     style="fill:#ffffff;stroke-width:0.411031"
     d="m 146.54158,278.1004 c -5.62973,-7.62761 -12.8229,-15.32548 -17.37615,-18.59537 -1.06193,-0.76261 -1.9308,-1.52532 -1.9308,-1.69489 0,-0.57436 4.30402,-1.75226 6.30922,-1.72668 6.07568,0.0775 16.54853,9.00845 21.4443,18.28694 l 1.45313,2.75405 -3.0957,2.08896 c -1.70265,1.14893 -3.33158,2.17946 -3.6198,2.29007 -0.3084,0.11835 -1.61843,-1.28173 -3.1842,-3.40308 z"
     id="path5" />
  <path
     style="fill:#ffffff;stroke-width:0.411031"
     d="m 140.28553,297.20307 c -0.99548,-1.18685 -2.89695,-3.73011 -4.22558,-5.65169 -3.61012,-5.22141 -6.32842,-8.51198 -9.699,-11.74108 -3.37162,-3.23012 -5.22022,-4.55768 -9.94537,-7.14214 -5.71005,-3.1232 -6.40598,-4.32589 -3.26453,-5.64185 4.5045,-1.88698 15.59963,1.81575 22.18628,7.40411 3.14317,2.66678 5.49577,5.48215 7.43745,8.90033 l 1.5177,2.67171 -0.024,5.13789 c -0.0248,5.27319 -0.6054,8.22064 -1.62053,8.22064 -0.30412,0 -1.36732,-0.97106 -2.36272,-2.15792 z"
     id="path6" />
  <path
     style="fill:#ffffff;stroke-width:0.411031"
     d="m 126.14548,308.70344 c -0.91005,-0.9561 -2.8407,-3.21622 -4.2903,-5.02248 -3.82313,-4.76373 -8.67255,-9.3889 -12.54773,-11.96732 -3.38955,-2.25537 -9.15067,-4.99013 -12.535344,-5.95048 -2.79165,-0.79207 -2.987175,-1.12705 -1.9065,-3.26616 0.5088,-1.00723 1.572525,-2.2675 2.3637,-2.8006 1.325775,-0.89323 1.745025,-0.95378 5.343444,-0.77166 7.86578,0.39808 16.56765,4.91522 23.661,12.28236 3.43163,3.56413 4.8261,5.54316 7.1073,10.08669 l 1.69268,3.37142 -2.42145,2.13145 c -1.33185,1.17231 -2.95935,2.47204 -3.6168,2.8883 l -1.19535,0.75684 z"
     id="path7" />
  <path
     style="fill:#ffffff;stroke-width:0.411031"
     d="m 77.940431,315.86029 c -0.460875,-0.90347 -1.317525,-3.2745 -1.90365,-5.26894 -1.6785,-5.71173 -0.887025,-9.04264 2.9514,-12.42137 4.108725,-3.61667 12.48225,-4.22908 20.403975,-1.49229 5.705774,1.97122 13.030424,7.63354 14.902644,11.52048 1.08008,2.24237 1.05758,5.16266 -0.051,6.64913 -1.60762,2.15524 -2.9334,1.87727 -7.60537,-1.59461 -4.99605,-3.71266 -8.960999,-5.67107 -11.481749,-5.67107 -3.8454,0 -8.4819,2.47256 -13.482825,7.19018 l -2.89515,2.73117 z"
     id="path8" />
  <path
     style="fill:#ffffff;stroke-width:0.411031"
     d="m 130.11185,416.29596 v -47.06672 l 2.3022,-2.50419 c 1.26623,-1.3773 2.6571,-3.30661 3.09098,-4.28736 1.16115,-2.62501 1.57185,-8.3478 1.58377,-22.06765 l 0.0105,-12.21957 4.00763,-3.31208 c 5.76607,-4.76545 9.74467,-7.41316 12.81292,-8.52687 1.47645,-0.53592 2.91998,-1.16985 3.20775,-1.40871 0.71738,-0.59538 0.67778,-5.90859 -0.0899,-12.06367 -0.7746,-6.21012 -0.78908,-10.18127 -0.042,-11.61644 0.93877,-1.8043 2.52052,-3.01227 4.24762,-3.24393 1.97505,-0.2649 3.59978,0.49978 5.38718,2.53547 3.25995,3.71287 4.32142,7.84952 4.32697,16.86187 0.007,7.79265 -0.26437,8.79043 -4.71855,17.48907 -3.26295,6.37239 -7.39597,12.08568 -13.51432,18.68172 -5.62838,6.0678 -9.0078,10.30263 -9.99533,12.52546 -0.7449,1.67684 -0.79447,2.41831 -0.56347,8.42615 0.62565,16.27101 3.6804,33.52869 8.46562,47.82636 2.47688,7.40048 5.1213,13.70546 11.80388,28.14348 4.69687,10.14773 10.01317,22.19685 10.01317,22.69442 0,0.10994 -9.52567,0.1999 -21.16815,0.1999 h -21.16815 z"
     id="path9" />
  <path
     style="fill:#ffffff;stroke-width:0.411031"
     d="m 151.28,535.84377 c -4.55782,-0.97668 -9.05767,-3.99474 -15.71602,-10.54066 l -5.45213,-5.36011 v -75.40113 -75.40112 l 2.32478,-2.51104 c 1.27867,-1.38107 2.66955,-3.29047 3.09097,-4.24311 1.13685,-2.56999 1.54935,-8.38904 1.5612,-22.02105 l 0.0105,-12.22406 3.957,-3.27713 c 5.6841,-4.70747 9.78915,-7.43689 12.86355,-8.55284 1.47645,-0.53592 2.91998,-1.16985 3.20775,-1.40871 0.71738,-0.59538 0.67778,-5.90859 -0.0899,-12.06367 -0.7746,-6.21012 -0.78908,-10.18127 -0.042,-11.61644 0.93877,-1.8043 2.52052,-3.01227 4.24762,-3.24393 1.97505,-0.2649 3.59978,0.49978 5.38718,2.53547 3.21975,3.66709 4.3077,7.84311 4.33957,16.65635 0.0277,7.78111 -0.28537,8.97915 -4.51867,17.27205 -3.45938,6.77678 -7.42718,12.30486 -13.71218,19.10426 -5.73315,6.20241 -9.04342,10.34409 -10.01107,12.52546 -0.74295,1.67474 -0.79343,2.42579 -0.5658,8.42615 0.55252,14.56779 3.31695,31.31727 7.32847,44.40245 2.5884,8.44305 5.23545,14.8486 14.01293,33.91012 9.2337,20.0522 12.58455,28.89345 14.08672,37.16781 1.01918,5.61432 1.89248,6.81259 4.96485,6.81259 1.24403,0 1.81493,-0.30027 3.06053,-1.60964 1.95135,-2.05126 2.65477,-4.73115 2.59845,-9.89925 -0.0882,-8.08652 -1.96283,-14.02373 -10.31775,-32.67703 -1.92383,-4.29528 -3.92888,-8.94899 -4.45553,-10.34158 l -0.95767,-2.53199 4.29772,-6.00901 c 2.3637,-3.30495 6.43748,-9.05547 9.0528,-12.77895 2.93438,-4.17773 5.01945,-6.76994 5.44545,-6.76994 1.4454,0 7.24298,2.21327 11.38193,4.34516 7.81537,4.02549 14.77755,8.68887 18.16927,12.17014 l 1.72995,1.77562 0.44018,13.35853 c 0.48982,14.86722 0.96195,18.91043 3.0456,26.08341 l 1.42785,4.91528 -5.37128,7.82671 c -21.39705,31.17867 -39.4821,49.69192 -56.84745,58.19351 -5.82817,2.85332 -10.24207,3.80126 -13.97505,3.00132 z"
     id="path10" />
  <path
     style="fill:#ffffff;stroke-width:0.152447"
     d="m 105.9302,474.13802 c -1.62322,-5.06995 -3.22485,-22.431 -4.065,-44.06228 -0.8907,-22.93467 -2.019219,-41.67438 -4.108119,-68.22002 -0.62805,-7.98101 -0.6345,-10.948 -0.0255,-11.55742 0.485175,-0.48515 0.6588,0.0411 1.072125,3.24907 0.525525,4.0794 0.80625,5.56629 1.317074,6.97605 0.75045,2.07126 1.49287,3.1185 4.90252,6.91539 l 1.79655,2.00057 -0.008,23.61051 c -0.007,29.38876 -0.2763,80.36547 -0.42982,81.38791 l -0.11445,0.76224 z"
     id="path11" />
  <path
     style="fill:#ffffff;stroke-width:0.15259"
     d="m 230.12398,402.56567 c -0.1914,-0.49868 0.3246,-6.44808 1.1268,-12.99223 2.12407,-17.32812 4.25415,-26.91243 8.6157,-38.76729 2.75707,-7.4937 6.35265,-15.46835 7.9935,-17.72898 0.6771,-0.93278 0.82972,-0.85034 0.7065,0.38148 -0.1755,1.7538 -0.84795,5.95869 -1.3239,8.27798 -1.64318,8.00701 -12.6132,47.82313 -16.17533,58.70882 -0.41887,1.27985 -0.78457,2.32699 -0.8127,2.32699 -0.0285,0 -0.0869,-0.0931 -0.13057,-0.20677 z"
     id="path12" />
  <path
     style="fill:#ffffff;stroke-width:0.231395"
     d="m 486.73895,484.89802 c -3.23107,-2.83692 -9.1848,-15.12076 -13.12372,-27.07685 -2.6997,-8.19487 -5.52503,-21.02676 -7.28565,-33.08956 -0.687,-4.70721 -1.01498,-9.64574 -0.6246,-9.40445 1.26862,0.78403 17.9841,51.38623 21.58687,65.3492 1.29225,5.00805 1.1943,5.7557 -0.5529,4.22166 z"
     id="path13" />
  <path
     style="fill:#ffffff;stroke-width:0.231395"
     d="m 541.65508,704.77926 c 0,-10.13537 -0.26543,-16.80605 -1.85513,-46.84672 -1.96927,-37.21529 -1.97925,-38.70949 -0.44775,-67.17921 l 0.69735,-12.96274 -2.1843,-6.47448 c -4.0845,-12.10661 -9.8112,-26.42905 -24.41632,-61.06488 -2.30318,-5.46207 -4.16175,-9.9555 -4.1301,-9.98538 0.0315,-0.0299 2.7648,-0.22323 6.0738,-0.42968 12.50407,-0.78014 20.24062,-2.02633 29.63617,-4.77376 11.86913,-3.47073 21.1848,-7.95316 28.09703,-13.51952 1.59082,-1.28109 3.22215,-2.56184 3.6252,-2.84611 l 0.73275,-0.51687 0.35677,1.10117 c 1.1184,3.45187 10.92345,40.13559 14.14845,52.93377 5.7939,22.99285 6.27345,27.32144 6.04943,54.60935 -0.1815,22.11017 -0.66293,36.39398 -1.5597,46.27912 -1.43978,15.87108 -5.67743,48.18606 -9.528,72.65821 l -0.9831,6.24768 -22.15575,0.059 -22.15583,0.059 z"
     id="path14" />
  <path
     style="fill:#ffffff;stroke-width:1.10434"
     d="m 513.47848,874.60732 c -2.1852,-2.1852 -1.58498,-3.47385 4.28895,-9.2076 10.0947,-9.85388 15.47205,-24.9 15.25837,-42.6939 -0.12742,-10.61783 -0.8772,-14.02785 -3.4395,-15.6441 -3.28695,-2.07338 -6.02662,2.10547 -10.29022,15.6957 -2.22008,7.07655 -5.05898,14.70082 -6.3087,16.94287 -2.7741,4.9767 -7.26653,7.18725 -10.78245,5.3055 -2.77515,-1.48515 -2.7159,-2.6295 0.91402,-17.6646 1.2465,-5.16285 3.28043,-14.58532 4.5198,-20.9388 2.74403,-14.06685 7.89428,-25.23727 18.25913,-39.6021 9.30727,-12.89908 13.49355,-21.78784 14.9163,-31.67219 1.64655,-11.4389 1.42702,-37.54688 -0.65063,-77.38288 -1.43572,-27.52771 -1.61797,-40.32044 -0.81795,-57.42611 l 1.0293,-22.00849 -2.91435,-8.83478 c -2.82532,-8.565 -18.7767,-48.51845 -24.64852,-61.73718 -1.59285,-3.58587 -2.7654,-6.61519 -2.60565,-6.73182 0.15967,-0.11663 5.7819,-0.78983 12.49372,-1.49599 6.71183,-0.70617 15.90548,-2.309 20.43045,-3.56185 9.40845,-2.60502 24.10193,-9.32599 29.70398,-13.58702 2.09407,-1.59274 4.1508,-2.52198 4.57065,-2.06496 0.64552,0.70274 10.48747,37.051 17.26927,63.7788 1.7085,6.73339 1.95653,13.00057 1.92315,48.59133 -0.042,44.78197 -0.70192,52.25385 -9.85102,111.53919 -7.28768,47.22396 -7.6809,51.86198 -6.22673,73.43918 0.7164,10.62937 1.48763,21.22897 1.71375,23.55472 0.6999,7.19693 -1.5423,25.87763 -3.83535,31.9545 -1.2,3.18015 -3.22657,7.27298 -4.50345,9.09518 -2.18722,3.12112 -2.28112,3.15307 -1.62157,0.55215 2.4972,-9.84698 1.76295,-17.66955 -1.65855,-17.66955 -0.49658,0 -3.34298,5.09377 -6.3252,11.31952 -6.22853,13.00275 -13.6728,25.1097 -14.29388,23.24663 -0.23295,-0.69893 0.5787,-3.2352 1.8036,-5.63633 2.8182,-5.52412 6.09315,-18.40575 5.24273,-20.62185 -0.35498,-0.92505 -1.65195,-1.68187 -2.88225,-1.68187 -1.78268,0 -4.0065,3.53175 -10.9521,17.39347 -4.7934,9.5664 -9.64163,18.22388 -10.7739,19.23885 -2.94105,2.63633 -13.0398,7.54155 -15.52643,7.54155 -1.15695,0 -2.69985,-0.59632 -3.42877,-1.32517 z"
     id="path15" />
  <path
     style="fill:#ffffff;stroke-width:0.261257"
     d="m 386.3768,719.99407 c -12.24922,-0.79192 -24.87442,-2.58547 -36.70665,-5.2146 -31.01775,-6.89213 -62.93842,-21.65812 -85.16992,-39.39821 -4.90965,-3.91778 -12.64883,-11.90308 -12.08378,-12.46812 0.0782,-0.0783 1.41833,0.74376 2.97795,1.82672 5.4126,3.75838 13.30133,8.96585 16.1598,10.6673 18.43283,10.97194 41.40398,21.84416 56.6928,26.83273 39.82305,12.99375 80.55653,14.94702 117.60105,5.63927 12.711,-3.19375 21.65918,-6.49467 31.68653,-11.68896 3.79642,-1.96658 4.75027,-2.36466 5.0232,-2.09633 1.28565,1.26423 -5.57205,6.98276 -13.82363,11.52734 -14.48685,7.97866 -33.60697,12.82998 -56.7096,14.38882 -4.57875,0.30895 -20.77815,0.29887 -25.64775,-0.016 z"
     id="path16" />
  <path
     style="fill:#ffffff;stroke-width:0.261257"
     d="m 354.40123,794.71432 c -0.96,-0.75518 -2.38193,-2.93873 -4.32233,-6.63773 -2.76742,-5.27542 -4.45822,-7.28977 -8.769,-10.44645 -3.8235,-2.7999 -7.2489,-5.91075 -14.5122,-13.17952 -6.2682,-6.27296 -10.13347,-10.59837 -9.7836,-10.94823 0.33713,-0.33715 5.09393,2.82217 16.9806,11.278 15.3861,10.94528 17.04773,12.83265 20.76053,23.58105 2.02972,5.8758 2.16787,6.8997 0.93112,6.8997 -0.32445,0 -0.90277,-0.24607 -1.28512,-0.54682 z"
     id="path17" />
  <path
     style="fill:#ffffff;stroke-width:0.235084"
     d="m 112.75685,1313.8375 c -3.89797,-1.0221 -6.6951,-3.0821 -8.0508,-5.9292 -1.2399,-2.604 -1.5642,-4.8144 -1.56285,-10.6509 0,-5.1908 0.66675,-14.1037 1.08743,-14.5635 0.11917,-0.1302 0.20437,0.1384 0.20437,0.6444 0,3.4416 1.64655,14.9982 2.50238,17.5629 1.6236,4.866 4.8093,7.8089 9.32527,8.6147 2.96003,0.5281 5.40638,0.1611 9.83168,-1.4752 1.6389,-0.606 2.943,-0.9677 3.06142,-0.8492 0.28043,0.2803 -1.5465,2.9601 -2.67862,3.9292 -3.25763,2.7883 -9.06315,3.9379 -13.72028,2.7168 z"
     id="path18" />
  <path
     style="fill:#ffffff;stroke-width:0.235084"
     d="m 270.27973,1135.8582 c -3.02018,-0.233 -4.9086,-0.5691 -7.392,-1.3155 -4.90208,-1.4734 -10.56263,-5.3359 -11.65658,-7.954 -0.39877,-0.9544 -0.44272,-2.1437 -0.0874,-2.3634 0.13815,-0.085 0.96967,0.3226 1.84785,0.9065 1.88017,1.2503 3.69712,2.1892 6.3981,3.3065 4.96072,2.0519 11.3904,2.9241 25.35502,3.4396 3.81428,0.1407 7.1466,0.2785 7.4052,0.306 0.82178,0.088 -6.33262,2.4702 -8.9112,2.9678 -2.44365,0.4715 -7.83067,0.9853 -9.66045,0.9213 -0.5172,-0.018 -2.00152,-0.1148 -3.29857,-0.2148 z"
     id="path19" />
  <path
     style="fill:#ffffff;stroke-width:0.235084"
     d="m 514.89253,1242.2587 c -0.19395,-0.047 -1.14608,-0.2146 -2.11575,-0.3716 -7.37558,-1.1937 -17.7138,-7.7186 -16.79858,-10.6023 0.20483,-0.6453 0.68168,-0.5179 6.44055,1.7209 8.02358,3.1192 11.82398,3.8676 18.534,3.6496 4.77735,-0.1552 6.9474,-0.5868 12.77475,-2.5403 2.90888,-0.9752 4.49355,-1.3912 5.09438,-1.3374 l 0.87202,0.078 -1.47232,1.4506 c -3.43373,3.3832 -8.73638,6.1016 -14.39588,7.3802 -1.82062,0.4113 -7.97715,0.8055 -8.93317,0.5721 z"
     id="path20" />
</svg>
