<?xml version="1.0" standalone="no"?>
<!DOCTYPE svg PUBLIC "-//W3C//DTD SVG 20010904//EN"
 "http://www.w3.org/TR/2001/REC-SVG-20010904/DTD/svg10.dtd">
<svg version="1.0" xmlns="http://www.w3.org/2000/svg"
 width="291.420594pt" height="751.421294pt" viewBox="0 0 291.420594 751.421294"
 preserveAspectRatio="xMidYMid meet">
<metadata>Created by Svg.la</metadata>
<g transform="translate(-90.569662,772.540209) scale(0.100000,-0.100000)"
fill="#000000" stroke="none">
<path d="M3486 7710 c-74 -29 -82 -40 -67 -92 22 -72 61 -139 115 -196 51 -55
158 -132 182 -132 36 0 104 119 104 181 0 38 -32 107 -77 165 -60 80 -167 111
-257 74z"/>
<path d="M3337 7598 c-35 -47 -47 -73 -47 -101 0 -17 -20 -43 -68 -88 -84 -79
-286 -259 -360 -319 -141 -116 -293 -264 -289 -281 5 -18 -34 -59 -155 -163
-38 -32 -68 -63 -68 -68 0 -6 -62 -75 -138 -152 -189 -194 -225 -274 -169
-371 13 -22 83 -114 156 -205 162 -202 185 -239 177 -283 -12 -63 -27 -81 -71
-81 -33 -1 -43 -6 -62 -35 -28 -41 -29 -71 -4 -143 l19 -55 -74 -199 c-71
-191 -73 -200 -55 -215 18 -15 14 -30 -109 -395 -149 -442 -144 -430 -164
-437 -8 -3 -22 -28 -30 -54 -8 -26 -49 -147 -90 -268 -42 -120 -76 -227 -76
-236 0 -23 42 -56 82 -64 24 -6 35 -2 54 16 31 32 218 557 204 574 -7 8 3 48
29 121 22 60 78 219 126 354 120 343 115 332 136 337 12 3 27 27 40 64 l21 58
32 -16 c53 -28 55 -35 56 -205 0 -128 3 -159 15 -165 12 -7 15 -53 15 -287 1
-244 -1 -281 -14 -288 -23 -13 -24 -502 -1 -524 13 -14 15 -124 15 -870 l0
-854 -50 -37 c-51 -38 -102 -101 -114 -140 -9 -28 9 -24 -326 -73 -151 -22
-351 -52 -445 -66 -93 -14 -197 -30 -229 -34 -33 -5 -87 -6 -120 -3 -73 6
-244 -21 -266 -43 -10 -9 -15 -33 -14 -64 1 -67 22 -90 83 -90 75 0 210 28
240 49 20 15 80 27 242 51 118 17 352 51 520 76 169 24 314 41 323 38 8 -3 32
-28 51 -56 59 -81 127 -100 269 -76 15 2 84 -83 312 -387 162 -214 294 -397
294 -406 0 -24 144 -203 174 -217 40 -18 52 -15 91 19 37 32 44 63 24 100 -18
34 -140 183 -158 193 -9 5 -20 15 -26 22 -15 18 -494 640 -549 712 l-48 63 22
37 c25 42 27 76 9 157 l-13 57 55 51 c30 28 134 127 231 219 98 92 185 168
193 168 23 0 101 66 126 106 24 39 20 61 -18 98 -42 43 -84 36 -143 -23 -27
-27 -55 -64 -63 -83 -8 -19 -30 -47 -48 -62 -19 -16 -110 -99 -203 -185 -220
-204 -228 -209 -266 -171 -20 20 -20 32 -20 869 1 733 3 851 15 861 12 10 15
54 15 255 0 229 -1 243 -20 260 -19 17 -20 31 -20 288 0 239 2 273 17 289 14
16 16 40 14 166 -2 144 -2 147 20 157 66 30 88 136 46 228 -27 60 -60 89 -154
136 -35 17 -63 35 -63 39 0 4 16 49 35 101 25 65 33 97 26 105 -7 9 -2 35 18
87 24 62 27 76 16 88 -11 11 4 64 90 318 56 168 107 308 113 312 6 4 48 112
93 241 69 198 87 241 117 272 29 30 33 40 23 52 -10 12 27 43 225 192 236 177
238 178 300 185 62 6 135 35 141 55 2 6 -9 14 -25 17 -39 8 -123 76 -178 145
-50 62 -109 176 -100 191 4 5 2 12 -3 15 -5 4 -21 -8 -34 -26z m-607 -976 c0
-5 -23 -74 -51 -153 -41 -116 -48 -148 -39 -162 9 -15 -7 -73 -86 -310 -53
-161 -100 -295 -103 -299 -6 -7 -61 56 -258 296 -122 148 -121 166 12 286 129
115 193 160 229 160 26 0 51 17 139 95 74 65 116 95 132 95 14 0 25 -4 25 -8z"/>
</g>
</svg>
