<?xml version="1.0" standalone="no"?>
<!DOCTYPE svg PUBLIC "-//W3C//DTD SVG 20010904//EN"
 "http://www.w3.org/TR/2001/REC-SVG-20010904/DTD/svg10.dtd">
<svg version="1.0" xmlns="http://www.w3.org/2000/svg"
 width="610.658717pt" height="1404.395435pt" viewBox="0 0 610.658717 1404.395435"
 preserveAspectRatio="xMidYMid meet">
<metadata>Created by Svg.la</metadata>
<g transform="translate(-162.198538,1488.618077) scale(0.100000,-0.100000)"
fill="#000000" stroke="none">
<path d="M4945 14884 c-252 -36 -472 -150 -665 -344 -153 -152 -248 -301 -292
-456 -29 -104 -31 -299 -4 -460 17 -105 17 -115 1 -190 -26 -123 -30 -262 -11
-389 16 -111 136 -561 180 -678 l24 -62 -113 -116 c-148 -152 -174 -191 -435
-679 -46 -85 -133 -243 -193 -350 -60 -107 -110 -204 -110 -215 0 -11 6 -41
13 -67 14 -47 14 -47 -25 -105 l-38 -58 -29 85 c-36 109 -66 265 -74 390 l-7
99 74 79 c75 80 136 173 179 272 27 63 39 215 22 288 -9 39 -8 42 11 42 11 0
43 19 71 43 49 41 53 42 136 47 150 10 276 94 342 228 32 64 33 72 33 182 0
108 -2 119 -31 180 -100 207 -326 269 -541 149 -113 -64 -203 -199 -203 -304
0 -39 -4 -47 -46 -84 -53 -46 -74 -50 -111 -21 -89 69 -266 55 -319 -25 -9
-14 -26 -25 -39 -25 -33 0 -87 -41 -110 -83 -15 -28 -29 -40 -58 -48 -53 -14
-104 -63 -124 -119 -15 -42 -22 -50 -56 -60 -53 -16 -110 -76 -127 -133 -18
-66 -9 -171 21 -237 l25 -54 -68 -59 c-45 -39 -71 -68 -74 -87 -4 -16 -16 -32
-30 -39 -14 -6 -47 -31 -73 -56 -53 -49 -65 -85 -50 -141 7 -25 4 -43 -15 -85
-44 -97 -61 -214 -60 -419 1 -237 13 -312 164 -1075 132 -666 150 -773 179
-1055 44 -422 44 -423 35 -3290 -5 -1504 -9 -2770 -9 -2812 l0 -77 -65 -22
c-256 -85 -459 -247 -555 -442 -57 -116 -79 -213 -72 -327 24 -381 359 -669
882 -755 135 -23 324 -29 450 -16 467 51 808 240 954 529 47 93 64 179 58 297
-14 315 -257 578 -652 708 -89 30 -230 62 -317 72 l-58 7 0 2449 c0 2366 1
2448 18 2461 39 27 42 49 42 309 l0 252 -40 37 -40 37 0 752 0 752 43 -34
c142 -116 282 -106 489 34 122 83 343 316 467 494 23 33 44 59 47 58 9 -4 91
-128 114 -172 28 -56 58 -198 66 -316 10 -137 -13 -238 -127 -580 -62 -182
-102 -318 -103 -345 0 -25 7 -73 18 -106 l18 -61 -41 -173 c-149 -612 -204
-1079 -256 -2140 -25 -503 -22 -540 51 -764 38 -118 58 -215 100 -471 14 -88
54 -295 89 -460 89 -420 90 -423 76 -519 -10 -72 -9 -89 9 -151 31 -108 28
-132 -31 -220 -74 -110 -194 -232 -358 -363 -303 -242 -421 -396 -421 -545 1
-171 153 -247 470 -234 277 12 410 75 620 295 59 61 124 119 147 131 24 12
102 37 173 56 318 85 401 177 400 445 0 87 -6 142 -25 225 -49 211 -48 199
-31 256 20 68 20 130 -1 224 -15 71 -15 82 0 173 48 276 73 581 63 767 -8 153
-45 333 -97 477 -22 62 -43 120 -45 129 -3 8 13 62 36 120 123 308 330 891
330 930 0 11 3 19 8 19 4 0 22 -66 40 -148 18 -81 60 -246 94 -367 236 -863
372 -1267 486 -1445 70 -109 108 -197 167 -390 31 -102 99 -297 150 -435 105
-281 120 -330 170 -537 30 -124 35 -164 35 -265 0 -127 16 -213 52 -290 21
-44 23 -61 22 -218 0 -149 -4 -185 -28 -288 -39 -170 -77 -268 -185 -477 -146
-284 -162 -319 -182 -399 -50 -197 6 -345 156 -413 68 -30 242 -38 336 -14
145 37 348 161 455 279 95 104 123 168 224 507 17 58 63 168 101 245 90 183
100 242 76 437 -9 73 -28 180 -43 238 -24 99 -25 109 -12 175 21 113 17 240
-11 300 -43 93 -43 99 -46 560 -2 474 -8 561 -56 783 -50 229 -173 516 -290
672 l-64 85 0 305 c0 328 8 460 29 460 7 0 40 13 72 30 32 16 64 30 69 30 23
0 116 51 151 82 22 19 59 42 83 52 125 49 207 149 261 321 31 100 37 279 16
530 l-17 200 40 270 c22 149 56 376 75 505 47 315 63 477 77 777 19 404 9 480
-137 1033 l-87 325 22 37 c11 20 21 53 21 72 0 54 -232 794 -311 994 -84 211
-188 388 -295 502 l-64 67 0 69 c-1 89 -22 137 -99 217 -32 34 -62 72 -65 84
-4 13 2 44 17 80 39 94 52 161 51 278 0 95 -3 119 -27 179 -39 100 -83 167
-197 299 -55 66 -112 140 -125 167 -38 76 -63 181 -81 339 -30 285 -74 460
-159 637 -71 151 -139 246 -251 353 -146 140 -298 224 -503 278 -83 22 -120
26 -276 28 -99 2 -193 1 -210 -1z m-595 -703 c0 -49 54 -185 100 -254 58 -87
113 -140 215 -207 91 -59 187 -97 355 -140 159 -40 240 -79 311 -150 43 -42
62 -72 83 -126 31 -81 54 -107 95 -107 41 0 82 33 141 114 68 93 97 111 177
107 55 -4 67 -8 97 -37 70 -68 74 -200 11 -328 -41 -82 -93 -134 -182 -178
-48 -25 -70 -29 -128 -29 l-70 1 -50 -85 c-83 -141 -233 -287 -390 -379 -167
-98 -455 -164 -614 -142 -76 11 -165 51 -187 84 -47 71 -181 552 -209 745 -19
139 -19 197 5 309 15 71 20 133 20 255 0 106 5 182 15 224 28 118 87 233 158
310 35 37 47 40 47 13z m1268 -1599 c6 -188 69 -310 199 -387 36 -21 35 -24
-19 -130 -81 -160 -317 -381 -494 -463 -329 -151 -669 15 -663 322 1 56 15
140 18 107 0 -8 7 -22 14 -30 8 -9 24 -43 36 -76 25 -68 46 -95 72 -95 26 0
33 38 24 128 -5 43 -9 95 -9 116 l-1 39 147 48 c80 26 177 64 213 85 159 89
333 240 405 352 25 39 47 71 50 71 3 1 6 -38 8 -87z m-2102 -106 c86 -40 154
-143 154 -232 0 -30 -13 -44 -41 -44 -6 0 -23 29 -39 64 -35 79 -89 140 -152
172 -43 22 -47 27 -38 44 14 27 53 25 116 -4z m-500 -166 c50 -24 124 -101
153 -157 l20 -40 -38 -25 -37 -24 -38 52 c-47 64 -121 143 -161 171 l-30 22
25 10 c38 15 60 13 106 -9z m-121 -115 c64 -28 119 -75 152 -132 22 -37 25
-53 21 -104 -7 -94 -18 -93 -88 11 -70 102 -121 150 -197 188 -57 28 -66 48
-30 61 30 12 82 3 142 -24z m-128 -130 c80 -40 151 -109 185 -180 l23 -47 -33
-29 c-18 -16 -37 -29 -42 -29 -5 0 -22 17 -37 37 -71 93 -128 145 -199 179
-39 19 -79 34 -88 34 -20 0 -21 19 0 48 25 36 104 31 191 -13z m520 -77 c34
-39 48 -89 48 -173 0 -69 -4 -89 -32 -147 -44 -93 -84 -150 -174 -243 -48 -51
-79 -93 -83 -112 -10 -43 11 -258 36 -373 31 -147 72 -259 160 -444 98 -207
146 -331 155 -394 8 -63 19 -82 48 -82 62 0 77 118 32 252 -15 42 -51 129 -81
193 -31 65 -53 121 -51 126 3 4 42 58 85 119 44 62 84 119 89 127 7 14 13 14
57 -1 62 -20 187 -93 237 -137 l37 -34 4 -155 c3 -120 8 -171 25 -224 l20 -69
-76 -111 c-162 -236 -325 -412 -466 -504 -174 -114 -251 -107 -389 35 l-48 48
0 754 -1 754 24 26 c44 46 47 63 47 228 l0 159 68 56 c37 30 82 59 100 63 19
4 36 13 39 21 3 8 0 59 -7 114 -12 89 -11 101 4 124 21 33 65 35 93 4z m-646
-76 c102 -49 156 -122 129 -171 -15 -29 -39 -26 -80 8 -45 36 -93 61 -120 61
-30 0 -91 -33 -124 -69 -17 -17 -33 -31 -37 -31 -10 0 -39 89 -39 119 1 38 23
72 61 93 47 25 147 21 210 -10z m1454 -444 c-19 -94 -166 -620 -172 -614 -7 7
18 219 38 318 10 53 32 134 49 180 37 107 93 225 98 210 2 -6 -4 -49 -13 -94z
m-1480 -151 c5 -36 16 -59 41 -86 l34 -38 0 -533 c0 -294 -2 -531 -4 -529 -17
17 -38 221 -46 445 -8 222 -21 440 -45 735 -2 36 -2 69 3 73 4 4 8 2 9 -6 1
-7 5 -35 8 -61z m-120 -203 c8 -98 19 -300 25 -449 6 -148 15 -310 21 -360 18
-159 71 -338 126 -427 l23 -38 0 -920 0 -921 -40 -38 -41 -39 3 -255 3 -255
33 -41 32 -40 0 -2430 -1 -2429 -52 -7 c-29 -3 -85 -11 -125 -17 -40 -6 -74
-9 -75 -7 -1 2 0 607 3 1344 3 737 5 2051 5 2920 -1 2004 13 1820 -225 3020
-60 303 -116 600 -126 660 -41 270 -32 547 23 688 14 34 19 37 53 37 53 0 89
15 130 55 19 18 45 36 57 39 12 4 46 27 75 51 29 24 54 42 55 41 2 -2 10 -83
18 -182z m3874 -627 c89 -267 143 -449 136 -456 -22 -21 -104 134 -154 293
-40 123 -91 423 -71 411 5 -3 45 -114 89 -248z m1082 -573 c159 -597 154 -567
153 -899 -1 -148 -7 -340 -13 -425 -13 -166 -64 -554 -111 -840 -15 -96 -36
-242 -45 -325 -16 -140 -16 -161 -1 -311 31 -307 19 -486 -39 -607 -26 -55
-82 -128 -70 -92 4 11 14 48 22 83 24 97 -5 171 -39 100 -9 -18 -41 -85 -71
-148 -49 -102 -124 -210 -147 -210 -4 0 10 35 31 78 41 82 72 188 67 225 -2
14 -10 22 -23 22 -21 0 -32 -19 -131 -228 -26 -54 -58 -112 -72 -129 -29 -35
-134 -88 -173 -88 -50 0 -68 55 -28 88 74 59 92 81 124 145 42 85 65 198 64
310 0 98 -16 152 -43 152 -30 0 -54 -43 -82 -150 -27 -101 -70 -201 -97 -224
-26 -21 -82 -25 -100 -6 -22 22 -21 35 7 119 14 39 30 109 36 156 30 225 74
338 201 507 140 187 158 240 166 483 3 91 0 258 -6 373 -6 114 -16 300 -22
415 -9 156 -8 258 1 414 l11 206 -35 104 c-19 56 -88 231 -154 388 l-120 285
112 7 c197 12 425 90 531 182 22 19 41 33 43 31 1 -1 25 -87 53 -191z m-740
-349 c192 -454 182 -423 178 -555 -8 -223 -4 -568 9 -810 20 -392 23 -474 17
-468 -3 3 -13 52 -21 109 -24 165 -63 356 -90 440 -17 55 -22 84 -15 101 5 12
12 46 15 74 10 68 -5 123 -124 449 -148 404 -154 425 -146 517 9 112 62 395
72 386 1 -2 49 -111 105 -243z m-2508 -1343 c156 -116 489 -286 683 -351 452
-152 917 -160 1324 -25 58 19 133 51 168 70 71 39 72 39 72 21 0 -8 -26 -33
-57 -56 -266 -197 -776 -255 -1272 -145 -317 70 -637 219 -862 400 -60 49
-129 124 -114 124 3 0 29 -17 58 -38z m804 -1014 c98 -70 125 -101 152 -172
34 -92 37 -109 15 -104 -12 2 -32 29 -52 71 -28 56 -45 75 -97 112 -64 46
-235 218 -235 236 0 10 35 -13 217 -143z m-767 -3614 c37 -12 98 -20 185 -24
l130 -5 -55 -20 c-80 -28 -208 -27 -275 3 -60 28 -95 59 -95 84 0 19 1 19 28
0 15 -11 52 -28 82 -38z m2425 -1044 c100 -40 194 -41 290 -5 72 27 83 20 31
-20 -83 -63 -194 -81 -286 -46 -60 23 -120 66 -120 87 0 18 -3 19 85 -16z
m-3975 -666 c24 -84 98 -116 187 -79 43 18 48 16 26 -14 -32 -47 -114 -64
-178 -37 -70 29 -85 90 -68 261 l7 70 7 -78 c4 -43 12 -98 19 -123z"/>
</g>
</svg>
