<svg width="648" height="362" viewBox="0 0 648 362" fill="none" xmlns="http://www.w3.org/2000/svg">
<path d="M409.508 91.0781C411.679 92.8771 413.265 94.7731 415 97.0001C415.922 98.0701 416.849 99.1341 417.781 100.195C419.874 102.589 421.937 105.005 423.981 107.441C426.639 110.598 429.389 113.654 432.188 116.687C435.358 120.14 438.381 123.655 441.313 127.312C445.388 132.368 449.753 137.082 454.2 141.806C458.235 146.114 461.984 150.586 465.668 155.199C468.929 159.115 472.406 162.817 475.928 166.498C483.534 174.549 484.151 181.572 484.145 192.236C484.15 193.584 484.15 193.584 484.156 194.959C484.165 197.911 484.167 200.864 484.168 203.816C484.171 205.877 484.175 207.938 484.178 209.998C484.184 214.31 484.186 218.621 484.185 222.932C484.185 228.452 484.199 233.973 484.216 239.493C484.227 243.745 484.229 247.998 484.229 252.25C484.23 254.286 484.234 256.321 484.242 258.356C484.252 261.202 484.249 264.047 484.243 266.893C484.249 267.73 484.254 268.567 484.26 269.429C484.229 275.24 483.533 279.802 480.125 284.687C475.476 288.128 470.605 288.871 465 290C462.792 290.479 460.583 290.958 458.375 291.437C457.2 291.685 456.024 291.932 454.813 292.187C451.409 292.913 448.013 293.667 444.618 294.432C434.89 296.623 425.128 298.614 415.343 300.537C413.053 300.989 410.765 301.449 408.477 301.91C403.986 302.81 399.49 303.682 394.992 304.551C379.456 307.551 363.93 310.58 348.449 313.859C339.105 315.831 329.731 317.662 320.36 319.5C319.104 319.747 317.848 319.995 316.555 320.25C314.003 320.753 311.451 321.253 308.899 321.75C303.342 322.85 297.845 323.987 292.395 325.535C286.314 327.256 280.157 328.345 273.938 329.437C265.172 331.007 256.456 332.649 247.82 334.832C241.439 336.364 235.489 337.03 229.375 334.5C222.083 329.72 216.977 321.469 211.875 314.562C210.554 312.787 209.233 311.012 207.91 309.238C207.254 308.357 206.598 307.476 205.923 306.569C203.082 302.773 200.2 299.01 197.313 295.25C190.154 285.917 183.103 276.505 176.074 267.074C175.092 265.757 174.109 264.441 173.125 263.125C172.639 262.474 172.153 261.822 171.652 261.151C168.336 256.729 164.947 252.37 161.528 248.028C139.919 220.551 139.919 220.551 142 202C144.307 194.593 148.114 187.753 151.59 180.84C154.315 175.409 157 169.961 159.65 164.494C161.345 161.002 163.054 157.517 164.764 154.033C165.637 152.246 166.505 150.456 167.367 148.663C168.637 146.026 169.928 143.399 171.223 140.773C171.787 139.583 171.787 139.583 172.363 138.368C175.442 132.204 179.33 127.459 185.86 124.863C186.813 124.681 187.767 124.5 188.75 124.312C189.874 124.092 190.998 123.872 192.156 123.644C198.144 122.64 204.135 121.667 210.137 120.754C219.208 119.365 228.262 117.79 237.25 115.937C241.78 115.012 246.331 114.319 250.903 113.633C256.339 112.804 261.763 111.9 267.188 111C268.197 110.834 269.207 110.668 270.247 110.496C274.959 109.712 279.652 108.885 284.332 107.926C288.046 107.168 291.731 106.612 295.5 106.187C302.734 105.268 309.848 103.912 317 102.5C325.273 100.869 333.483 99.4051 341.856 98.3901C345.786 97.9021 349.673 97.2381 353.574 96.5621C356.304 96.1141 359.031 95.7021 361.77 95.3121C363.513 95.0631 365.257 94.8131 367 94.5621C367.875 94.4371 368.75 94.3121 369.651 94.1821C374.258 93.4971 378.65 92.6341 383.125 91.3121C391.132 89.2021 401.686 87.7151 409.508 91.0781Z" fill="#050704"/>
<path d="M473 188C473.811 190.849 474.126 193.378 474.129 196.337C474.132 197.192 474.136 198.047 474.139 198.928C474.137 199.853 474.135 200.778 474.133 201.73C474.135 203.188 474.135 203.188 474.137 204.674C474.14 207.846 474.133 211.016 474.125 214.188C474.123 215.262 474.121 216.337 474.118 217.444C474.1 224.963 474.057 232.481 474 240C473.994 240.922 473.988 241.843 473.981 242.793C473.946 247.577 473.89 252.36 473.79 257.143C473.764 258.54 473.743 259.936 473.73 261.333C473.709 263.249 473.66 265.163 473.609 267.078C473.588 268.134 473.567 269.19 473.546 270.278C472.846 273.766 471.79 274.83 469 277C463.896 280.143 458.586 281.136 452.785 282.27C451.79 282.471 450.795 282.673 449.77 282.88C446.536 283.533 443.299 284.173 440.062 284.812C437.822 285.261 435.582 285.711 433.342 286.161C426.897 287.453 420.449 288.729 414 290C412.393 290.318 410.786 290.635 409.179 290.953C397.749 293.207 386.305 295.388 374.852 297.52C374.158 297.649 373.465 297.778 372.75 297.911C369.469 298.523 366.188 299.131 362.906 299.733C355.148 301.171 347.427 302.739 339.707 304.367C325.409 307.376 311.049 310.037 296.684 312.7C293.291 313.33 289.899 313.963 286.508 314.598C284.887 314.901 284.887 314.901 283.234 315.21C275.954 316.588 268.715 318.101 261.509 319.829C257.912 320.673 254.685 321.071 251 321C249.965 310.463 249.869 300.026 249.902 289.449C249.904 287.697 249.906 285.944 249.907 284.191C249.91 279.623 249.92 275.054 249.931 270.486C249.942 265.806 249.946 261.127 249.951 256.447C249.962 247.298 249.979 238.149 250 229C252.546 228.354 255.093 227.71 257.641 227.068C258.713 226.796 258.713 226.796 259.807 226.518C265.501 225.085 271.201 223.982 277 223.062C284.731 221.776 292.401 220.333 300.062 218.688C310.365 216.491 320.702 214.525 331.062 212.625C331.856 212.479 332.65 212.334 333.467 212.184C342.988 210.439 352.514 208.727 362.043 207.031C362.944 206.871 363.845 206.71 364.774 206.545C369.144 205.766 373.515 204.99 377.887 204.221C379.461 203.942 381.035 203.662 382.609 203.383C383.331 203.257 384.054 203.131 384.798 203.002C388.509 202.358 388.509 202.358 392 201C393.889 200.672 395.785 200.383 397.684 200.113C404.511 199.099 411.281 197.865 418.06 196.57C421.54 195.906 425.022 195.252 428.504 194.598C429.21 194.465 429.916 194.332 430.644 194.195C432.762 193.796 434.881 193.398 437 193C437.678 192.872 438.357 192.745 439.056 192.613C443.535 191.773 448.017 190.946 452.5 190.125C453.643 189.91 454.787 189.695 455.965 189.473C461.745 188.424 467.125 187.758 473 188Z" fill="#282925"/>
<path d="M407.502 102.345C409.195 104.18 410.792 106.069 412.375 108C413.243 109.031 413.243 109.031 414.129 110.082C417.568 114.187 420.895 118.369 424.137 122.633C429.995 130.076 436.318 137.182 442.688 144.188C449.312 151.503 455.439 159.217 461.5 167C461.934 167.552 462.368 168.104 462.814 168.673C464.702 171.119 466.014 173.042 467 176C449.293 180.188 449.293 180.188 440.94 180.717C437.71 181.028 434.607 181.593 431.422 182.215C423.853 183.669 416.269 185.032 408.68 186.375C406.887 186.693 406.887 186.693 405.057 187.018C400.073 187.902 395.088 188.786 390.103 189.666C372.6 192.736 372.6 192.736 355.198 196.32C348.503 197.743 341.746 198.847 335 200C333.548 200.25 332.097 200.5 330.645 200.75C325.532 201.63 320.417 202.502 315.303 203.375C298.929 206.17 282.579 209.014 266.291 212.281C259.871 213.541 253.525 214.495 247 215C241.551 206.166 236.136 197.311 230.75 188.438C230.203 187.536 230.203 187.536 229.644 186.616C225.892 180.439 222.148 174.259 218.442 168.055C217.908 167.161 217.374 166.267 216.824 165.346C215.857 163.725 214.893 162.104 213.931 160.48C211.204 155.904 208.342 151.447 205.352 147.037C202.806 143.199 200.463 139.388 199 135C209.623 132.123 220.507 130.357 231.375 128.688C239.394 127.455 247.381 126.06 255.367 124.632C269.246 122.15 283.143 119.808 297.063 117.563C313.34 114.937 329.599 112.22 345.848 109.425C347.505 109.14 349.163 108.855 350.821 108.57C351.615 108.434 352.409 108.297 353.228 108.156C358.022 107.334 362.818 106.529 367.617 105.742C368.728 105.56 369.838 105.378 370.982 105.19C372.938 104.871 374.895 104.554 376.853 104.241C380.724 103.61 384.527 102.909 388.328 101.938C391.152 101.217 393.802 100.638 396.688 100.313C397.393 100.226 398.098 100.14 398.825 100.051C404.785 99.912 404.785 99.912 407.502 102.345Z" fill="#282925"/>
<path d="M412 228C413.688 230.958 414.263 233.127 414.322 236.521C414.341 237.409 414.361 238.297 414.38 239.212C414.389 240.163 414.397 241.114 414.406 242.094C414.418 243.077 414.429 244.061 414.441 245.075C414.46 247.152 414.473 249.23 414.48 251.308C414.5 254.489 414.562 257.667 414.625 260.848C414.638 262.867 414.649 264.887 414.656 266.906C414.681 267.857 414.706 268.809 414.731 269.788C414.714 272.328 414.63 274.539 414 277C410.643 280.147 407.557 281.452 403.051 282.125C402.13 282.272 401.21 282.419 400.261 282.57C399.288 282.712 398.315 282.854 397.312 283C395.238 283.331 393.164 283.664 391.09 284C389.545 284.248 389.545 284.248 387.968 284.5C383.743 285.212 379.561 286.087 375.375 287C361.314 290.034 347.192 292.697 332.991 294.99C329.21 295.606 325.477 296.299 321.75 297.188C318.328 297.929 315.481 298.34 312 298C309.51 295.51 309.744 294.742 309.725 291.307C309.716 290.332 309.706 289.358 309.696 288.354C309.697 287.299 309.698 286.243 309.699 285.156C309.695 284.076 309.691 282.996 309.686 281.883C309.68 279.597 309.68 277.31 309.684 275.024C309.687 271.514 309.664 268.006 309.639 264.496C309.636 262.279 309.636 260.061 309.637 257.844C309.628 256.789 309.618 255.733 309.609 254.646C309.615 253.672 309.621 252.697 309.628 251.693C309.627 250.833 309.626 249.973 309.626 249.087C309.749 248.398 309.873 247.71 310 247C313.496 244.67 316.734 244.056 320.777 243.266C321.957 243.028 321.957 243.028 323.16 242.785C325.751 242.266 328.344 241.757 330.938 241.25C331.825 241.074 332.712 240.899 333.626 240.717C349.991 237.478 366.409 234.63 382.882 232.004C386.462 231.429 390.032 230.82 393.598 230.167C394.361 230.028 395.123 229.889 395.909 229.745C397.364 229.478 398.818 229.207 400.271 228.93C404.235 228.203 407.972 227.866 412 228Z" fill="#050603"/>
<path d="M197 170C199.621 170.357 200.724 170.663 202.429 172.743C202.86 173.493 203.29 174.243 203.734 175.016C204.222 175.848 204.709 176.68 205.211 177.538C205.719 178.433 206.227 179.328 206.75 180.25C207.826 182.097 208.903 183.943 209.98 185.789C210.5 186.689 211.02 187.589 211.556 188.517C213.341 191.587 215.189 194.608 217.062 197.625C220.341 202.933 223.614 208.244 226.875 213.562C227.352 214.337 227.829 215.112 228.321 215.911C228.993 217.009 228.993 217.009 229.68 218.129C230.079 218.779 230.479 219.43 230.89 220.1C232.979 223.675 234.253 226.19 234.228 230.399C234.227 231.261 234.225 232.123 234.224 233.01C234.21 233.938 234.197 234.865 234.184 235.82C234.176 236.792 234.169 237.764 234.161 238.765C234.056 248.524 233.673 258.271 233.2 268.019C233.06 270.923 232.929 273.826 232.799 276.73C232.711 278.609 232.624 280.488 232.535 282.367C232.477 283.645 232.477 283.645 232.418 284.949C232.168 290.011 231.689 294.979 231 300C230.67 300 230.34 300 230 300C229.683 294.271 229.371 288.542 229.062 282.812C229.016 281.957 228.97 281.101 228.922 280.219C228.439 271.26 227.975 262.304 227.715 253.336C227.677 252.036 227.639 250.735 227.599 249.395C227.535 246.989 227.478 244.583 227.43 242.177C227.191 233.037 226.118 225.504 221.875 217.312C221.382 216.353 221.382 216.353 220.88 215.375C219.603 212.908 218.303 210.453 217 208C216.554 207.159 216.554 207.159 216.098 206.301C212.955 200.381 209.806 194.465 206.636 188.56C203.339 182.414 200.069 176.264 197 170Z" fill="#2A2A27"/>
<path d="M344 254C347.118 255.693 349.39 257.779 351 261C351.485 265.946 350.965 269.291 348.332 273.422C345.269 277.051 341.607 278.705 336.938 279.562C332.245 278.664 329.35 275.902 326.625 272.062C325.743 269.152 325.636 267.034 326 264C327.75 260.875 327.75 260.875 330 258C330.536 257.216 331.072 256.433 331.625 255.625C335.498 252.975 339.473 253.152 344 254Z" fill="#DCDAD7"/>
<path d="M390 246C393.024 247.739 395.417 249.835 397 253C397.598 259.101 396.459 262.139 393 267C389.284 270.013 385.768 270.916 381 271C376.667 268.833 373.764 266.565 372 262C371.901 255.853 373.34 252.859 377.43 248.348C380.924 245.349 385.625 245.241 390 246Z" fill="#D9D8D5"/>
<path d="M414 96C417.902 95.185 421.113 95.035 425 96C428.293 98.781 430.903 101.735 433.59 105.082C435.747 107.982 435.747 107.982 438.145 109.422C440.968 111.823 441.653 115.014 442.75 118.438C445.119 125.349 448.111 130.739 452.461 136.645C454 139 454 139 454 142C445.62 133.712 437.736 125.043 430.371 115.84C427.067 111.883 423.549 108.137 419.984 104.414C417.488 101.773 415.367 99.397 414 96Z" fill="#E4E1DE"/>
<path d="M339.312 257.625C343 258 343 258 345.5 260.063C347.484 263.949 347.28 265.858 346 270C343.222 273.186 341.631 273.911 337.437 274.5C334 274 334 274 331.562 272.375C329.502 269.243 329.323 267.685 330 264C332.437 261.187 332.437 261.187 335 259C336 258 336 258 339.312 257.625Z" fill="#0C0D0B"/>
<path d="M390 251C391.875 252.188 391.875 252.188 393 254C393.594 257.903 393.333 259.501 391.125 262.812C388.395 265.622 387.56 265.938 383.625 266.375C380 266 380 266 377.562 263.812C375.843 260.718 375.224 259.449 376 256C380.399 250.768 383.325 249.331 390 251Z" fill="#0F100E"/>
<path d="M250 237C250.33 237 250.66 237 251 237C251 241.95 251 246.9 251 252C252.98 252.66 254.96 253.32 257 254C259.375 257.125 259.375 257.125 261 260C260.67 260.66 260.34 261.32 260 262C259.34 262 258.68 262 258 262C258.99 262.99 259.98 263.98 261 265C258.69 264.34 256.38 263.68 254 263C253.67 263.99 253.34 264.98 253 266C252.67 266 252.34 266 252 266C252 263.667 252 261.333 252 259C251.67 275.17 251.34 291.34 251 308C250.67 308 250.34 308 250 308C250 284.57 250 261.14 250 237ZM261 257C262.98 257.99 264.96 258.98 267 260C266.34 261.32 265.68 262.64 265 264C264.01 263.34 263.02 262.68 262 262C262.33 261.34 262.66 260.68 263 260C262.34 260 261.68 260 261 260C261 259.01 261 258.02 261 257Z" fill="#22221F"/>
<path d="M184 226C187.881 227.525 189.909 229.387 192 233C192.479 236.619 192.377 240.17 192.25 243.812C192.232 244.792 192.214 245.771 192.195 246.779C192.148 249.187 192.083 251.593 192 254C184.431 246.972 184.431 246.972 183.686 241.833C183.607 239.418 183.65 237.039 183.75 234.625C183.768 233.794 183.786 232.962 183.805 232.105C183.851 230.07 183.923 228.035 184 226Z" fill="#2B2B28"/>
<path d="M391.891 246.766C393.563 247.875 393.563 247.875 396 251C396.195 254.453 395.721 257.628 395 261C394.01 260.67 393.02 260.34 392 260C392.083 259.072 392.165 258.144 392.25 257.188C392.286 254.027 392.286 254.027 390.563 252.063C386.76 250.486 382.89 250.626 379 252C376.918 255.13 376.504 258.311 376 262C375.67 262 375.34 262 375 262C373.298 254.416 373.298 254.416 374.942 251.102C379.272 245.802 385.495 244.176 391.891 246.766Z" fill="#DBDAD6"/>
<path d="M387 251C391 252 391 252 393 254C393.457 257.504 393.37 259.372 391.562 262.438C387.691 264.798 384.311 263.847 380 263C380.33 262.01 380.66 261.02 381 260C383.31 260 385.62 260 388 260C387.67 257.03 387.34 254.06 387 251Z" fill="#050604"/>
<path d="M338.688 253.625C342.449 253.647 344.643 253.954 347.563 256.375C351.301 260.4 351.101 262.579 351 268C350.671 268 350.34 268 350 268C349.671 266.35 349.34 264.7 349 263C348.01 263 347.02 263 346 263C345.588 262.381 345.176 261.762 344.75 261.125C342.287 258.134 339.689 257.922 336 257C335.01 256.34 334.02 255.68 333 255C334.633 253.368 336.44 253.712 338.688 253.625Z" fill="#D2D0CE"/>
<path d="M332 264C332.66 264.33 333.32 264.66 334 265C334 265.66 334 266.32 334 267C334.99 267 335.98 267 337 267C337.33 267.66 337.66 268.32 338 269C339.65 268.67 341.3 268.34 343 268C343 269.65 343 271.3 343 273C339.917 274.542 337.391 274.297 334 274C332 272.375 332 272.375 331 270C331.312 266.75 331.312 266.75 332 264Z" fill="#080907"/>
<path d="M344 263C344.99 263 345.98 263 347 263C346.688 266.375 346.688 266.375 346 270C345.01 270.66 344.02 271.32 343 272C342.34 271.67 341.68 271.34 341 271C341 270.34 341 269.68 341 269C339.68 269.33 338.36 269.66 337 270C336.67 268.35 336.34 266.7 336 265C337.65 264.67 339.3 264.34 341 264C341 264.99 341 265.98 341 267C341.99 267 342.98 267 344 267C344 265.68 344 264.36 344 263Z" fill="#555553"/>
<path d="M388 251C388 253.97 388 256.94 388 260C386.35 260 384.7 260 383 260C383.33 258.02 383.66 256.04 384 254C382.35 253.67 380.7 253.34 379 253C382.233 249.767 383.549 249.887 388 251Z" fill="#4B4B49"/>
<path d="M454 142C455.938 142.379 455.938 142.379 458 143C458.684 144.325 459.35 145.659 460 147C461.328 147.678 462.662 148.343 464 149C465.28 150.004 466.531 151.047 467.75 152.125C468.67 152.933 468.67 152.933 469.609 153.758C470.068 154.168 470.527 154.578 471 155C470.01 155.33 469.02 155.66 468 156C461.87 152.876 457.753 147.602 454 142Z" fill="#E4E2E0"/>
<path d="M395 253C395.66 253 396.32 253 397 253C397.295 258.023 396.985 260.895 394 265C393.34 264.67 392.68 264.34 392 264C391.67 264.66 391.34 265.32 391 266C389.68 265.67 388.36 265.34 387 265C391.625 261 391.625 261 395 261C395 258.36 395 255.72 395 253Z" fill="#D3D1CF"/>
<path d="M350 262C350.081 263.457 350.139 264.916 350.188 266.375C350.222 267.187 350.257 267.999 350.293 268.836C350.196 269.55 350.1 270.264 350 271C349.01 271.66 348.02 272.32 347 273C346.34 272.67 345.68 272.34 345 272C345.281 270.519 345.575 269.04 345.875 267.562C346.037 266.739 346.2 265.915 346.367 265.066C346.576 264.384 346.785 263.703 347 263C349 262 349 262 350 262Z" fill="#E9E7E4"/>
<path d="M335 255C335.33 255.66 335.66 256.32 336 257C336.66 257.33 337.32 257.66 338 258C336.879 258.839 335.753 259.671 334.625 260.5C333.999 260.964 333.372 261.428 332.727 261.906C331 263 331 263 329 263C329.188 260.688 329.188 260.688 330 258C332.562 256.188 332.562 256.188 335 255Z" fill="#E7E5E2"/>
<path d="M149 231C153.202 234.718 155.998 239.317 159 244C158.01 244 157.02 244 156 244C154.465 242.25 154.465 242.25 152.938 240C151.476 237.796 151.476 237.796 150 236C149.34 236 148.68 236 148 236C148.33 234.35 148.66 232.7 149 231Z" fill="#D8D7D4"/>
<path d="M165 154C165.66 154.99 166.32 155.98 167 157C166 160 166 160 164.562 161.312C162.745 163.036 162.745 163.036 162 166.125C161.67 167.074 161.34 168.023 161 169C160.01 169.33 159.02 169.66 158 170C159.646 164.315 162.29 159.233 165 154Z" fill="#10110F"/>
<path d="M333 260C336 263.625 336 263.625 336 267C335.34 267 334.68 267 334 267C333.67 266.34 333.34 265.68 333 265C332.67 266.65 332.34 268.3 332 270C331.34 270 330.68 270 330 270C329.631 264.585 329.631 264.585 331.5 261.625C331.995 261.089 332.49 260.553 333 260Z" fill="#171816"/>
<path d="M263 106C263.66 106 264.32 106 265 106C265.66 106.99 266.32 107.98 267 109C270.066 109.733 270.066 109.733 273 110C269.1 112.6 265.526 112.151 261 112C261.99 111.67 262.98 111.34 264 111C263.67 109.35 263.34 107.7 263 106Z" fill="#D9D7D4"/>
<path d="M387 251C389.867 251.573 390.861 251.861 393 254C393.125 257.125 393.125 257.125 393 260C392.01 260.495 392.01 260.495 391 261C391 259.02 391 257.04 391 255C390.01 255 389.02 255 388 255C387.67 253.68 387.34 252.36 387 251Z" fill="#151615"/>
<path d="M209 121C209 121.33 209 121.66 209 122C204.328 123.206 199.785 123.094 195 123C200.044 119.637 203.032 119.967 209 121Z" fill="#D1D0CE"/>
<path d="M363 310C359.366 312.326 356.229 312.163 352 312C352 311.34 352 310.68 352 310C355.818 308.626 359.073 309.32 363 310Z" fill="#1D1D1B"/>
<path d="M424 295C426.97 295.33 429.94 295.66 433 296C429.009 297.996 427.3 298.195 423 298C423.33 297.01 423.66 296.02 424 295Z" fill="#333331"/>
<path d="M383 246C384.98 246 386.96 246 389 246C389.33 247.32 389.66 248.64 390 250C388.35 250 386.7 250 385 250C384.34 248.68 383.68 247.36 383 246Z" fill="#ECEAE7"/>
<path d="M172 140C172.33 140 172.66 140 173 140C173 141.98 173 143.96 173 146C172.01 146.33 171.02 146.66 170 147C169.267 149.015 169.267 149.015 169 151C168.34 150.67 167.68 150.34 167 150C168.65 146.7 170.3 143.4 172 140Z" fill="#121211"/>
<path d="M360 257C361.98 257.99 361.98 257.99 364 259C364 260.32 364 261.64 364 263C362.68 263 361.36 263 360 263C360 261.02 360 259.04 360 257Z" fill="#636361"/>
<path d="M157 164C157.99 164.66 158.98 165.32 160 166C159.01 167.98 158.02 169.96 157 172C156.34 171.67 155.68 171.34 155 171C155.66 168.69 156.32 166.38 157 164Z" fill="#DCDBD8"/>
<path d="M375 106C374.34 107.32 373.68 108.64 373 110C370.36 109.34 367.72 108.68 365 108C368.644 105.571 370.712 105.838 375 106Z" fill="#2D2D2A"/>
<path d="M384 92C383.67 92.99 383.34 93.98 383 95C380 96 380 96 377.812 95.062C377.214 94.712 376.616 94.361 376 94C379.088 92.235 380.233 92 384 92Z" fill="#111210"/>
<path d="M396 90C396 90.66 396 91.32 396 92C389.6 93.231 389.6 93.231 386.562 92.062C386.047 91.712 385.531 91.361 385 91C388.674 89.824 392.169 89.926 396 90Z" fill="#313230"/>
<path d="M454 291C455.32 291 456.64 291 458 291C458.33 292.65 458.66 294.3 459 296C457.68 296.33 456.36 296.66 455 297C454 292.125 454 292.125 454 291Z" fill="#D9D7D3"/>
<path d="M348 272C348.66 273.32 349.32 274.64 350 276C347.646 277.429 346.52 278.087 343.75 277.625C343.173 277.419 342.595 277.212 342 277C342.619 276.732 343.238 276.464 343.875 276.188C346.3 275.044 346.3 275.044 348 272Z" fill="#1C1C1B"/>
<path d="M379 253C381.31 253.33 383.62 253.66 386 254C384.35 255.32 382.7 256.64 381 258C380.34 257.67 379.68 257.34 379 257C379.33 256.34 379.66 255.68 380 255C379.67 254.34 379.34 253.68 379 253Z" fill="#030302"/>
<path d="M210 117C211.65 117.33 213.3 117.66 215 118C215 118.99 215 119.98 215 121C212.03 120.67 209.06 120.34 206 120C207.32 119.67 208.64 119.34 210 119C210 118.34 210 117.68 210 117Z" fill="#DAD7D4"/>
<path d="M375 252C375.66 252 376.32 252 377 252C376.67 255.3 376.34 258.6 376 262C375.67 262 375.34 262 375 262C374.806 260.522 374.62 259.042 374.438 257.562C374.333 256.739 374.229 255.915 374.121 255.066C374.081 254.384 374.041 253.703 374 253C374.33 252.67 374.66 252.34 375 252Z" fill="#EBEAE7"/>
<path d="M155 174C156.062 175.812 156.062 175.812 157 178C156.67 178.99 156.34 179.98 156 181C154.68 180.67 153.36 180.34 152 180C152.99 178.02 153.98 176.04 155 174Z" fill="#171716"/>
<path d="M319 104C318.34 104.66 317.68 105.32 317 106C314.271 105.967 311.703 105.436 309 105C309 104.67 309 104.34 309 104C315.625 102.875 315.625 102.875 319 104Z" fill="#1E1F1D"/>
</svg>
