<?xml version="1.0" standalone="no"?>
<!DOCTYPE svg PUBLIC "-//W3C//DTD SVG 20010904//EN"
 "http://www.w3.org/TR/2001/REC-SVG-20010904/DTD/svg10.dtd">
<svg version="1.0" xmlns="http://www.w3.org/2000/svg"
 width="303.515855pt" height="729.580835pt" viewBox="0 0 303.515855 729.580835"
 preserveAspectRatio="xMidYMid meet">
<metadata>Created by Svg.la</metadata>
<g transform="translate(-104.155626,764.796534) scale(0.100000,-0.100000)"
fill="#000000" stroke="none">
<path d="M2968 7640 c-10 -6 -29 -49 -44 -98 -14 -48 -28 -89 -30 -91 -2 -3
-10 4 -18 14 -29 40 -91 -8 -103 -79 -3 -22 1 -38 15 -56 18 -22 23 -24 42
-12 12 7 24 12 26 10 8 -8 -42 -172 -53 -176 -8 -2 -13 5 -13 16 0 24 -23 45
-47 40 -25 -5 -63 -65 -63 -100 0 -44 17 -68 48 -68 16 0 33 5 40 12 18 18 16
-3 -9 -91 -20 -74 -39 -112 -39 -80 0 25 -36 52 -58 45 -29 -10 -55 -54 -56
-96 -1 -66 43 -91 84 -48 18 19 20 20 20 4 0 -10 -7 -43 -16 -73 -10 -33 -14
-71 -10 -92 3 -21 1 -53 -4 -72 l-9 -34 23 26 c28 32 81 173 72 191 -4 7 -13
24 -21 37 -12 22 -12 26 3 38 9 7 24 13 33 13 25 0 87 194 71 221 -20 31 -14
57 16 73 22 12 31 28 50 98 14 50 21 95 17 110 -7 27 9 68 26 68 5 0 14 -12
20 -27 8 -21 6 -30 -11 -48 -11 -12 -20 -28 -20 -36 0 -8 -11 -49 -24 -91 -13
-42 -20 -80 -15 -85 4 -4 1 -35 -6 -68 -8 -32 -26 -152 -40 -265 -14 -113 -27
-220 -29 -237 -3 -18 -2 -33 2 -33 8 0 140 244 231 428 63 125 141 312 141
336 0 7 8 20 19 30 38 34 95 -19 70 -66 -13 -24 -40 -23 -46 2 -10 38 -28 14
-75 -101 -27 -63 -48 -115 -48 -116 0 -2 8 -3 19 -3 45 0 58 -82 14 -88 -18
-3 -23 2 -23 17 0 49 -29 14 -68 -81 -23 -57 -42 -106 -42 -110 0 -5 9 -8 20
-8 26 0 44 -43 30 -71 -14 -25 -46 -25 -53 1 -3 11 -10 20 -15 20 -10 0 -92
-194 -92 -216 0 -7 11 -15 25 -18 20 -5 25 -13 25 -36 0 -32 -16 -38 -50 -20
-23 12 -20 19 -50 -149 -13 -77 -17 -118 -10 -125 13 -13 13 -29 0 -21 -11 7
-14 -5 -35 -130 -10 -59 -11 -93 -5 -99 14 -14 12 -26 -3 -21 -9 4 -17 -24
-29 -102 -15 -100 -15 -108 0 -120 16 -12 15 -13 -2 -11 -17 3 -21 -8 -34 -82
-10 -63 -11 -89 -3 -102 9 -14 8 -18 -2 -18 -20 0 -49 -180 -30 -187 7 -3 13
-10 13 -15 0 -6 -7 -8 -15 -5 -10 4 -16 -3 -20 -26 -3 -18 -9 -54 -14 -82 -8
-41 -6 -51 7 -62 16 -11 16 -12 0 -13 -18 0 -22 -10 -37 -95 -8 -40 -6 -52 5
-58 18 -11 18 -28 -1 -21 -15 6 -15 5 -34 -90 -8 -42 -7 -52 7 -64 16 -13 16
-13 0 -8 -18 5 -22 -6 -33 -86 -6 -39 -4 -49 9 -54 23 -9 20 -27 -3 -19 -16 5
-20 -2 -29 -52 -10 -54 -9 -59 11 -76 l22 -18 -24 3 c-22 3 -26 -3 -36 -49
-11 -49 -11 -54 9 -68 l21 -16 -22 4 c-19 4 -23 -1 -31 -47 -7 -45 -6 -53 12
-69 l21 -19 -22 5 c-15 3 -23 -1 -27 -17 -11 -40 -6 -75 11 -85 10 -5 15 -13
11 -17 -4 -4 -14 -1 -22 5 -12 10 -16 5 -24 -31 -8 -37 -6 -45 9 -60 24 -21
24 -32 0 -19 -15 9 -20 7 -25 -12 -10 -39 -6 -69 12 -84 16 -13 16 -14 -5 -10
-18 4 -22 -1 -28 -31 -6 -30 -3 -39 17 -55 l23 -19 -26 6 c-24 5 -27 2 -32
-27 -4 -24 -1 -35 14 -46 26 -19 24 -34 -4 -27 -21 5 -24 1 -34 -57 -6 -34
-34 -192 -62 -352 -28 -159 -53 -305 -56 -322 l-6 -33 52 0 c124 0 208 89 224
238 9 78 -15 176 -67 274 l-42 78 22 23 23 22 19 -25 c11 -14 35 -54 54 -90
91 -172 92 -385 3 -502 -62 -81 -137 -114 -243 -105 l-60 4 -28 -171 c-15 -94
-29 -178 -32 -188 -4 -12 22 -29 113 -73 239 -114 228 -107 225 -149 -4 -49
-26 -112 -38 -109 -5 1 -35 11 -67 23 -32 11 -92 25 -134 30 -57 7 -99 22
-176 59 -131 64 -264 152 -302 201 -16 21 -62 63 -101 94 l-72 55 13 66 c6 36
15 68 18 71 3 4 48 -21 100 -54 95 -62 164 -99 170 -91 2 2 20 88 41 192 l37
187 -51 78 c-123 186 -140 422 -41 567 29 43 112 105 141 105 16 0 40 -38 40
-64 0 -8 -13 -19 -29 -25 -41 -18 -97 -79 -123 -136 -46 -102 -23 -282 51
-393 27 -41 29 -42 34 -20 3 13 36 174 72 358 52 259 64 339 56 352 -14 23
-14 28 3 28 29 0 36 73 9 90 -16 10 -16 11 3 7 18 -4 23 1 28 25 9 46 7 58 -9
58 -8 0 -15 5 -15 11 0 6 8 8 19 4 16 -5 20 1 26 35 6 34 3 44 -12 56 -17 15
-17 15 4 11 20 -4 23 0 29 41 5 31 3 47 -5 50 -6 2 -11 8 -11 14 0 6 6 8 14 5
11 -4 17 7 25 41 8 39 7 48 -7 59 -16 12 -16 12 0 13 18 0 23 11 34 73 4 24 2
37 -5 37 -6 0 -11 4 -11 10 0 5 6 7 13 4 10 -3 16 11 23 50 8 44 8 56 -3 60
-7 3 -13 10 -13 15 0 6 6 8 14 5 10 -4 17 9 25 46 14 67 14 70 -6 87 -17 13
-16 14 3 8 20 -5 23 0 34 62 10 50 10 68 2 71 -16 5 -15 22 1 22 18 0 43 128
28 143 -15 15 -14 27 2 21 19 -7 45 132 28 149 -16 16 -14 27 4 21 8 -4 15 -4
15 -1 0 3 7 41 15 84 10 50 11 79 5 81 -15 5 -12 22 3 22 18 0 45 172 28 178
-6 2 -11 8 -11 14 0 6 6 8 14 5 11 -4 18 16 31 86 12 64 14 92 6 95 -16 5 -13
22 4 22 8 0 15 3 15 6 0 4 7 49 16 101 13 74 14 97 4 108 -10 12 -9 15 4 15 9
0 16 3 16 8 0 4 9 53 19 110 10 56 15 105 10 108 -5 3 -9 10 -9 15 0 6 4 8 9
4 10 -5 20 36 46 184 12 67 12 87 2 93 -14 9 -27 10 -27 2 0 -3 -11 -63 -24
-132 -14 -70 -34 -181 -46 -247 -12 -66 -35 -192 -51 -280 -16 -88 -37 -198
-45 -245 -9 -47 -22 -114 -29 -150 -8 -36 -26 -128 -40 -205 -14 -77 -30 -162
-35 -190 -6 -27 -26 -135 -46 -240 -19 -104 -37 -200 -40 -212 -4 -20 -11 -23
-57 -23 -105 0 -292 -60 -408 -131 -27 -17 -49 -31 -49 -32 0 -1 42 -3 93 -4
102 -2 213 -27 308 -69 58 -26 67 -37 51 -61 -6 -9 -28 -4 -87 22 -107 45
-229 69 -321 62 -159 -12 -252 -91 -288 -247 -20 -82 -20 -152 -1 -310 26
-217 17 -318 -34 -422 -12 -24 -67 -92 -122 -153 -284 -311 -370 -514 -356
-843 9 -223 64 -395 181 -571 152 -229 336 -372 795 -621 283 -154 386 -190
536 -190 147 0 247 38 348 130 139 127 199 296 200 565 0 191 -17 297 -98 622
-40 160 -76 315 -80 345 -11 91 15 184 109 378 105 217 124 303 97 446 -35
185 -182 382 -385 514 -50 33 -99 65 -109 72 -18 12 -16 29 42 368 66 386 156
920 202 1205 35 214 54 325 79 460 10 55 23 138 30 185 l12 85 78 75 c43 42
87 95 99 118 12 23 26 42 31 42 5 0 16 -16 24 -35 29 -67 105 -53 126 25 6 21
8 51 4 65 -11 46 -67 60 -99 25 -36 -40 -35 -2 2 94 27 68 42 96 53 94 8 -2
16 -13 18 -26 2 -12 14 -30 28 -38 48 -32 114 23 116 97 2 59 -63 91 -99 49
-23 -26 -57 -27 -49 -2 41 127 106 235 106 174 0 -41 57 -65 101 -42 44 24 64
113 32 142 -34 30 -59 30 -92 2 -43 -36 -49 -13 -18 62 28 65 36 121 21 145
-23 38 -154 145 -214 172 -57 28 -77 31 -175 34 -67 2 -117 0 -127 -7z m476
-239 c4 -5 -41 -128 -98 -273 -57 -144 -127 -326 -157 -403 -29 -77 -63 -151
-76 -165 -13 -13 -23 -19 -23 -12 0 10 199 529 295 770 35 87 47 104 59 83z"/>
<path d="M2846 6907 c-17 -51 -29 -108 -28 -127 2 -19 -4 -87 -12 -150 -8 -63
-12 -117 -10 -119 13 -13 23 32 44 199 12 102 26 207 31 234 5 27 8 50 6 52
-1 1 -15 -39 -31 -89z"/>
<path d="M2967 6699 c-80 -162 -101 -212 -90 -216 20 -8 25 0 73 122 24 61 59
142 76 180 37 79 55 125 50 125 -2 0 -51 -95 -109 -211z"/>
<path d="M2756 6618 c-25 -68 -25 -74 -9 -85 9 -7 20 -10 24 -6 9 11 27 163
19 163 -4 0 -19 -33 -34 -72z"/>
<path d="M2701 6356 c-25 -147 -25 -152 -5 -160 9 -4 18 -5 19 -4 2 2 13 59
25 128 12 69 22 129 23 133 1 5 -8 13 -19 17 -20 8 -22 3 -43 -114z"/>
<path d="M2775 6428 c-3 -13 -14 -72 -25 -133 -19 -103 -19 -111 -3 -122 9 -7
20 -13 23 -13 3 0 16 62 28 137 18 109 20 138 10 145 -21 12 -27 10 -33 -14z
m5 -142 c0 -8 -4 -18 -10 -21 -5 -3 -10 3 -10 14 0 12 5 21 10 21 6 0 10 -6
10 -14z"/>
<path d="M2834 6417 c-4 -12 -44 -243 -44 -256 0 -4 10 -13 23 -18 23 -11 23
-10 45 126 12 75 22 139 22 142 0 12 -41 17 -46 6z"/>
<path d="M2656 6097 c-9 -50 -19 -102 -21 -114 -4 -16 1 -23 16 -28 11 -4 22
-5 23 -3 4 4 36 191 36 206 0 6 -9 16 -19 21 -18 10 -20 4 -35 -82z"/>
<path d="M2712 6083 c-26 -152 -26 -149 -7 -157 10 -3 20 -4 23 -1 3 3 14 51
24 108 17 96 17 103 1 115 -9 6 -19 12 -23 12 -3 0 -11 -35 -18 -77z m23 -63
c-5 -8 -11 -8 -17 -2 -6 6 -7 16 -3 22 5 8 11 8 17 2 6 -6 7 -16 3 -22z"/>
<path d="M2765 6024 c-18 -104 -18 -107 0 -120 10 -8 22 -14 25 -14 3 0 15 50
25 111 16 95 16 112 4 120 -29 18 -36 6 -54 -97z"/>
<path d="M2625 5918 c-3 -13 -12 -59 -20 -103 -12 -72 -12 -81 2 -92 9 -7 19
-11 21 -8 3 3 13 51 23 107 14 79 15 104 6 110 -19 12 -26 9 -32 -14z"/>
<path d="M2664 5813 c-17 -103 -17 -106 1 -119 25 -19 29 -10 44 91 7 44 14
87 17 96 3 10 -5 20 -20 27 -23 10 -24 10 -42 -95z m28 -15 c-6 -6 -14 -9 -17
-6 -3 3 -3 13 1 22 5 12 10 14 17 7 8 -8 8 -14 -1 -23z"/>
<path d="M2732 5833 c-6 -32 -14 -81 -18 -109 -6 -47 -4 -53 16 -59 12 -4 23
-5 25 -3 1 1 11 48 20 103 16 94 16 100 -1 112 -28 20 -31 17 -42 -44z"/>
<path d="M2568 5618 c-16 -93 -13 -107 18 -108 6 0 18 39 27 88 14 80 14 88
-1 100 -9 6 -19 12 -22 12 -4 0 -14 -42 -22 -92z"/>
<path d="M2626 5593 c-15 -83 -15 -89 1 -100 9 -7 20 -13 23 -13 6 0 41 182
36 186 0 1 -11 4 -22 8 -20 6 -23 1 -38 -81z m26 -18 c0 -5 -5 -11 -11 -13 -6
-2 -11 4 -11 13 0 9 5 15 11 13 6 -2 11 -8 11 -13z"/>
<path d="M2691 5592 c-6 -37 -14 -79 -17 -94 -4 -20 0 -29 16 -38 12 -6 24 -9
27 -6 6 6 32 138 32 167 1 9 -10 21 -23 27 -24 11 -24 10 -35 -56z"/>
<path d="M2545 5488 c-6 -20 -25 -130 -25 -149 0 -9 9 -19 20 -22 11 -3 20 -4
20 -2 0 1 7 40 16 85 13 68 13 84 2 91 -18 12 -28 11 -33 -3z"/>
<path d="M2589 5391 l-15 -89 23 -11 c26 -12 24 -15 44 99 9 57 9 65 -7 77
-10 7 -21 13 -24 13 -3 0 -13 -40 -21 -89z"/>
<path d="M2652 5373 c-7 -43 -12 -83 -12 -90 0 -13 38 -38 46 -30 5 5 35 170
31 172 -6 5 -46 25 -50 25 -2 0 -9 -35 -15 -77z"/>
<path d="M2497 5227 c-15 -83 -14 -93 12 -99 10 -2 19 19 31 79 l17 81 -23 10
c-21 10 -22 8 -37 -71z"/>
<path d="M2565 5258 c-31 -139 -31 -142 -1 -156 24 -10 24 -10 39 71 14 75 14
83 -1 95 -23 17 -31 15 -37 -10z m11 -75 c-10 -10 -19 5 -10 18 6 11 8 11 12
0 2 -7 1 -15 -2 -18z"/>
<path d="M2625 5218 c-3 -18 -9 -55 -14 -83 -5 -27 -9 -50 -8 -50 1 -1 14 -6
29 -12 29 -13 28 -15 44 82 3 22 8 47 10 56 3 10 -5 20 -21 27 -34 16 -33 17
-40 -20z"/>
<path d="M2475 5108 c-2 -7 -9 -40 -15 -72 -8 -46 -7 -62 2 -68 26 -16 36 -7
43 40 3 26 9 57 12 69 6 25 -34 55 -42 31z"/>
<path d="M2522 5026 c-16 -83 -16 -81 12 -94 24 -11 24 -9 35 52 14 82 14 93
-5 100 -28 11 -30 7 -42 -58z"/>
<path d="M2596 5052 c-2 -9 -7 -37 -11 -62 -4 -25 -8 -52 -11 -61 -3 -10 6
-20 22 -28 15 -6 28 -10 30 -8 2 2 10 36 17 76 l14 72 -28 14 c-25 13 -28 13
-33 -3z"/>
<path d="M2431 4878 c-12 -72 -8 -87 25 -88 16 0 36 143 21 152 -26 17 -35 5
-46 -64z"/>
<path d="M2497 4902 c-3 -15 -1 -32 5 -39 7 -9 5 -17 -6 -28 -22 -23 -20 -52
5 -65 11 -7 22 -10 24 -8 5 5 25 108 25 127 0 10 -11 23 -24 29 -22 10 -24 8
-29 -16z"/>
<path d="M2555 4833 c-4 -31 -9 -62 -12 -69 -2 -7 9 -20 26 -28 l30 -16 7 37
c3 21 10 55 14 76 7 35 6 39 -17 48 -38 14 -40 12 -48 -48z"/>
<path d="M2416 4782 c-2 -4 -9 -34 -15 -66 -9 -47 -8 -62 1 -68 26 -16 36 -7
42 40 4 26 9 54 11 62 5 16 -31 45 -39 32z"/>
<path d="M2474 4721 c4 -29 2 -40 -9 -45 -25 -9 -18 -51 10 -64 23 -11 25 -9
31 26 14 76 11 104 -15 113 -23 9 -23 8 -17 -30z"/>
<path d="M2536 4722 c-2 -4 -8 -35 -11 -68 -7 -58 -6 -60 20 -72 15 -7 28 -11
29 -10 2 2 7 31 12 66 10 63 10 63 -17 78 -15 8 -30 10 -33 6z"/>
<path d="M2375 4584 c-3 -26 -9 -53 -12 -60 -3 -8 4 -17 18 -23 13 -5 25 -8
27 -6 1 1 7 28 13 60 8 46 8 60 -3 66 -26 17 -36 8 -43 -37z"/>
<path d="M2440 4585 c0 -14 5 -25 10 -25 6 0 10 -7 10 -16 0 -10 -6 -14 -15
-10 -9 3 -15 0 -15 -8 0 -8 -2 -21 -5 -28 -4 -9 5 -19 21 -27 15 -6 27 -10 29
-9 1 2 6 29 12 61 10 58 10 58 -19 73 -27 14 -28 14 -28 -11z"/>
<path d="M2900 4579 c-25 -5 -79 -26 -120 -46 l-75 -38 -22 -120 c-12 -66 -22
-126 -23 -132 0 -21 19 -15 58 17 20 16 70 47 109 69 72 39 73 39 87 19 19
-26 176 -111 176 -95 0 43 -31 260 -39 274 -27 51 -75 68 -151 52z"/>
<path d="M2506 4553 c-2 -10 -7 -37 -11 -60 -6 -35 -3 -43 14 -52 33 -18 38
-13 50 47 10 50 9 58 -6 70 -24 17 -41 15 -47 -5z"/>
<path d="M2356 4473 c-3 -10 -8 -34 -11 -55 -6 -31 -4 -38 15 -48 12 -6 23
-10 24 -8 2 2 8 27 13 56 9 47 8 54 -8 62 -24 13 -27 13 -33 -7z"/>
<path d="M2416 4443 c-3 -10 -8 -34 -11 -54 -6 -31 -3 -36 19 -47 28 -12 29
-11 40 60 6 30 3 39 -13 47 -26 14 -29 14 -35 -6z"/>
<path d="M2474 4376 c-10 -53 -9 -55 14 -66 31 -14 38 -6 46 51 6 42 5 46 -19
57 -14 7 -27 12 -29 12 -1 0 -7 -24 -12 -54z"/>
<path d="M2323 4309 c-10 -48 -9 -51 14 -60 13 -5 26 -9 27 -9 2 0 7 23 10 52
5 37 4 53 -6 59 -26 17 -36 8 -45 -42z"/>
<path d="M2390 4311 c0 -10 -3 -32 -6 -49 -5 -24 -2 -32 16 -42 27 -15 28 -14
39 44 7 40 6 48 -10 56 -27 15 -39 12 -39 -9z"/>
<path d="M2845 4308 c-16 -17 -161 -110 -185 -120 -4 -2 -10 -18 -13 -35 -6
-29 -3 -34 26 -49 83 -43 190 -125 278 -213 152 -153 223 -292 235 -465 9
-133 -12 -213 -110 -411 -91 -183 -112 -255 -103 -345 4 -30 38 -177 77 -325
39 -149 77 -308 86 -355 22 -123 28 -308 15 -431 -22 -200 -72 -329 -167 -427
-29 -31 -54 -57 -54 -58 0 -1 39 20 88 48 282 162 433 334 477 543 20 93 19
338 0 471 -9 57 -47 229 -86 381 -54 217 -70 295 -71 358 -2 94 5 118 84 288
32 70 68 162 78 204 36 140 22 327 -35 451 -75 164 -288 358 -522 476 -40 20
-74 36 -75 35 -2 -1 -12 -10 -23 -21z"/>
<path d="M2460 4293 c-1 -5 -5 -27 -9 -50 -7 -38 -6 -44 15 -58 32 -20 32 -20
39 23 4 20 9 44 11 53 3 10 -5 20 -21 27 -30 14 -35 15 -35 5z"/>
<path d="M2305 4208 c-4 -18 -8 -40 -11 -49 -3 -10 5 -20 21 -27 29 -13 29
-12 40 50 5 30 2 39 -14 47 -28 15 -29 15 -36 -21z"/>
<path d="M2370 4198 c0 -7 -3 -29 -6 -48 -5 -31 -3 -37 19 -47 25 -12 26 -11
33 34 6 38 4 49 -12 60 -22 16 -34 17 -34 1z"/>
<path d="M2436 4163 c-18 -67 -17 -78 14 -95 29 -17 30 -16 34 5 14 68 13 74
-15 91 -26 15 -28 15 -33 -1z"/>
<path d="M2280 4098 c0 -13 -3 -32 -6 -44 -4 -15 1 -23 20 -32 27 -12 26 -13
40 50 5 21 1 30 -13 38 -30 15 -41 12 -41 -12z"/>
<path d="M2350 4080 c0 -10 5 -22 10 -25 15 -10 12 -28 -4 -22 -12 5 -33 -21
-24 -28 11 -9 50 -26 53 -23 2 2 6 23 10 49 6 42 5 46 -19 57 -23 10 -26 9
-26 -8z"/>
<path d="M2410 4038 c0 -13 -3 -33 -6 -45 -5 -17 1 -25 24 -37 l31 -16 9 43
c8 36 6 44 -11 60 -27 24 -47 21 -47 -5z"/>
<path d="M2267 4012 c-2 -4 -7 -24 -11 -44 -6 -31 -3 -39 15 -48 25 -14 29
-11 39 34 7 31 5 37 -16 50 -12 9 -25 12 -27 8z"/>
<path d="M2324 3953 c-3 -16 -7 -34 -9 -40 -3 -7 9 -20 24 -28 l29 -15 7 42
c6 34 4 44 -11 55 -26 19 -33 16 -40 -14z"/>
<path d="M2390 3921 c0 -16 -2 -36 -5 -43 -7 -16 43 -44 56 -31 4 4 9 22 11
40 2 23 -3 37 -17 47 -31 23 -45 19 -45 -13z"/>
<path d="M2240 3886 c0 -13 -2 -31 -5 -38 -4 -9 4 -19 20 -26 28 -13 28 -13
39 39 5 21 1 28 -20 37 -33 16 -34 16 -34 -12z"/>
<path d="M2306 3857 c-10 -39 -6 -56 15 -68 26 -13 39 1 39 42 0 18 -8 29 -24
37 -21 9 -25 8 -30 -11z"/>
<path d="M2376 3828 c-16 -51 -14 -59 16 -74 16 -8 31 -14 33 -12 1 2 5 19 8
39 5 32 2 38 -19 48 -31 14 -34 14 -38 -1z"/>
<path d="M2222 3778 c-10 -34 5 -58 34 -58 19 0 25 63 6 78 -24 18 -31 15 -40
-20z"/>
<path d="M2286 3758 c-10 -40 -6 -53 19 -65 23 -10 26 -9 31 15 3 15 7 32 9
38 2 6 -8 17 -21 23 -32 14 -31 15 -38 -11z"/>
<path d="M2356 3734 c-13 -34 -6 -61 20 -73 31 -14 30 -15 38 26 7 28 4 34
-22 47 -27 14 -31 14 -36 0z"/>
<path d="M2205 3698 c-2 -7 -36 -173 -75 -368 l-70 -355 28 -27 28 -28 58 312
c32 172 64 345 72 383 11 62 11 71 -4 83 -9 6 -20 12 -24 12 -5 0 -11 -6 -13
-12z"/>
<path d="M2264 3643 c-3 -21 -28 -157 -56 -303 -87 -464 -81 -422 -57 -442 12
-10 24 -18 28 -18 4 0 18 57 30 128 33 184 110 603 116 628 3 15 -2 24 -21 32
-34 16 -32 17 -40 -25z"/>
<path d="M2340 3643 c0 -5 -16 -91 -35 -193 -20 -102 -51 -273 -70 -380 -33
-182 -34 -196 -18 -207 44 -33 48 -23 82 180 18 105 48 274 67 374 19 100 34
187 34 192 0 6 -13 17 -30 26 -16 9 -30 12 -30 8z"/>
<path d="M2011 2732 c-48 -238 -48 -224 -12 -244 17 -9 31 -16 31 -15 0 1 16
83 35 182 19 99 35 183 35 186 0 3 -13 15 -29 26 l-28 21 -32 -156z"/>
<path d="M2095 2738 c-9 -51 -25 -133 -35 -181 l-18 -89 31 -18 c17 -11 32
-18 33 -17 1 1 17 83 34 181 l32 179 -23 18 c-13 10 -27 19 -30 19 -4 0 -15
-42 -24 -92z"/>
<path d="M2156 2628 c-15 -90 -30 -172 -33 -183 -3 -16 4 -25 31 -37 l35 -17
5 27 c9 44 56 331 56 341 0 5 -8 11 -17 14 -10 2 -25 8 -33 11 -13 5 -20 -21
-44 -156z"/>
<path d="M1870 2500 c-33 -21 9 -55 196 -162 215 -122 222 -125 228 -107 14
41 11 54 -14 56 -47 4 -85 16 -92 28 -4 7 -19 16 -34 19 -14 4 -35 16 -47 26
-11 11 -27 20 -34 20 -8 0 -23 9 -35 20 -12 11 -28 20 -35 20 -8 0 -23 9 -35
20 -12 11 -30 20 -40 20 -10 0 -18 6 -18 14 0 21 -23 36 -40 26z"/>
<path d="M1907 2393 c-23 -22 14 -83 38 -63 16 13 26 50 14 52 -5 0 -15 1 -21
2 -7 1 -16 4 -19 9 -3 4 -8 4 -12 0z"/>
<path d="M1985 2349 c-11 -16 5 -49 24 -49 9 0 22 -5 29 -12 16 -16 37 4 28
27 -4 11 -12 14 -26 10 -14 -4 -20 -2 -20 8 0 18 -27 30 -35 16z"/>
<path d="M2105 2270 c-9 -14 18 -51 35 -48 16 3 28 47 13 49 -4 0 -16 2 -25 4
-10 2 -20 -1 -23 -5z"/>
<path d="M2190 2207 c0 -34 28 -47 46 -22 15 20 9 39 -11 31 -7 -2 -18 1 -24
7 -8 8 -11 4 -11 -16z"/>
<path d="M3851 1689 c-44 -39 -78 -76 -75 -83 6 -15 -314 -319 -326 -311 -5 3
-11 19 -14 35 -3 17 -8 43 -12 59 -5 28 -6 28 -95 -61 -84 -84 -102 -117 -59
-103 15 5 21 -2 30 -36 6 -22 10 -42 8 -44 -2 -1 -120 -111 -262 -244 -143
-133 -265 -240 -272 -239 -17 4 -141 -107 -160 -144 -10 -18 -13 -40 -9 -59
14 -63 88 -118 140 -105 28 7 186 148 196 175 11 29 953 921 982 930 26 8 147
136 152 162 8 34 -14 78 -55 113 -51 43 -78 36 -169 -45z"/>
<path d="M1238 1636 c-31 -15 -58 -72 -58 -122 0 -56 26 -138 54 -170 27 -32
89 -44 151 -32 37 8 196 95 195 107 -1 4 -38 34 -82 68 -76 57 -83 60 -103 47
-21 -14 -23 -12 -39 30 -26 68 -71 95 -118 72z"/>
<path d="M1550 1374 c-25 -18 -73 -47 -107 -65 -55 -28 -69 -31 -127 -27 -47
3 -74 10 -95 26 -25 18 -31 19 -41 7 -21 -26 -6 -106 25 -132 50 -43 108 -29
219 54 32 24 94 64 137 90 77 47 83 55 51 72 -12 6 -29 -1 -62 -25z"/>
<path d="M2770 985 c-70 -23 -66 -19 -122 -140 -33 -71 -50 -69 -83 10 -45
106 -114 145 -163 92 -37 -39 -30 -90 24 -177 81 -132 137 -174 210 -156 66
17 161 148 198 275 17 58 21 107 9 114 -5 2 -37 -6 -73 -18z"/>
</g>
</svg>
