<?xml version="1.0" standalone="no"?>
<!DOCTYPE svg PUBLIC "-//W3C//DTD SVG 20010904//EN"
 "http://www.w3.org/TR/2001/REC-SVG-20010904/DTD/svg10.dtd">
<svg version="1.0" xmlns="http://www.w3.org/2000/svg"
 width="840.267593pt" height="1419.925117pt" viewBox="0 0 840.267593 1419.925117"
 preserveAspectRatio="xMidYMid meet">
<metadata>Created by Svg.la</metadata>
<g transform="translate(-92.084705,1477.867614) scale(0.100000,-0.100000)"
fill="#000000" stroke="none">
<path d="M4925 14774 c-16 -2 -73 -9 -125 -15 -293 -33 -631 -147 -979 -330
l-115 -60 -341 7 c-368 8 -415 4 -475 -41 -55 -41 -80 -86 -110 -202 l-11 -43
-703 0 c-460 0 -723 -4 -762 -11 -92 -17 -176 -63 -243 -135 -70 -74 -103
-140 -126 -249 -16 -75 -17 -439 -11 -5545 3 -3006 9 -5575 12 -5710 6 -273
14 -317 80 -426 49 -82 99 -130 169 -165 84 -41 142 -49 341 -49 l173 0 6 -33
c4 -18 5 -48 3 -67 -2 -28 -10 -37 -48 -58 -202 -110 -310 -283 -310 -497 0
-156 51 -276 165 -391 106 -106 261 -173 402 -174 71 0 184 29 263 68 143 70
268 231 300 389 15 71 7 228 -15 297 -8 27 -15 57 -15 67 0 10 32 53 71 96 93
103 110 140 100 218 -5 33 -7 63 -4 67 6 10 5003 10 5003 1 0 -5 18 -32 41
-62 22 -29 39 -54 37 -56 -2 -1 -32 -17 -68 -36 -88 -46 -196 -155 -237 -239
-111 -227 -74 -460 101 -636 232 -232 586 -233 820 -1 81 80 136 177 156 274
17 81 8 243 -18 315 l-21 58 66 71 c72 78 93 119 93 176 0 34 -12 99 -26 145
-4 15 14 17 208 20 212 3 213 3 273 32 74 36 183 142 217 211 53 106 50 -41
57 2855 9 3532 3 8707 -11 8778 -5 29 -27 88 -49 131 -53 106 -128 182 -228
230 l-76 36 -750 3 c-836 3 -775 -3 -775 71 0 43 -38 128 -71 158 -13 12 -46
31 -72 43 -45 20 -61 21 -432 20 l-385 -2 -78 46 c-367 215 -913 360 -1331
355 -58 -1 -119 -4 -136 -5z m370 -294 c327 -30 668 -140 988 -318 l107 -60
-1272 -7 c-700 -4 -1284 -6 -1298 -4 -21 3 -16 9 40 38 36 18 92 48 125 67
223 123 540 229 805 268 186 28 328 32 505 16z m1927 -312 c23 -11 34 -56 19
-71 -14 -14 -638 -20 -647 -6 -3 5 -2 30 2 55 l6 45 302 -7 c165 -4 309 -11
318 -16z m-3612 -28 c0 -29 -5 -42 -20 -50 -12 -7 -123 -9 -317 -8 l-298 3 -3
23 c-4 26 13 50 43 62 11 5 149 9 308 9 l287 1 0 -40z m-1865 -277 c33 -82 27
-148 -18 -200 l-31 -35 -106 7 c-96 6 -108 5 -130 -13 -22 -18 -25 -29 -30
-121 -7 -136 -15 -145 -144 -149 -141 -6 -136 -11 -136 166 0 81 5 164 10 184
17 59 69 120 129 151 54 27 56 27 252 27 178 0 198 -2 204 -17z m7190 3 c56
-24 103 -65 124 -109 17 -35 22 -71 27 -209 6 -129 4 -171 -6 -183 -10 -12
-35 -15 -115 -15 -144 0 -148 4 -155 143 -7 147 -11 151 -147 142 l-102 -7
-30 29 c-36 37 -51 123 -31 184 l13 39 194 0 c146 0 202 -4 228 -14z m-508
-365 c12 -8 26 -26 32 -38 7 -16 11 -179 11 -488 l0 -464 -24 -28 -24 -28
-3296 0 -3296 0 -27 28 -28 27 -3 463 c-1 254 0 472 3 485 3 12 20 31 38 42
32 20 63 20 3312 18 2842 -3 3283 -5 3302 -17z m301 -1430 c48 -25 107 -87
125 -131 13 -30 15 -418 20 -2745 2 -1490 1 -3549 -2 -4574 -7 -1809 -8 -1864
-26 -1877 -31 -23 -92 -18 -110 9 -13 21 -15 527 -14 4535 0 4407 -1 4513 -19
4555 -20 45 -72 96 -100 98 -9 1 -1576 1 -3482 0 -3416 -3 -3466 -3 -3506 -22
-24 -11 -54 -37 -70 -61 l-29 -41 -5 -4527 c-4 -3817 -7 -4530 -19 -4543 -22
-27 -87 -22 -106 7 -20 30 -22 988 -14 5747 l6 3417 24 43 c13 23 40 55 60 71
76 61 -206 57 3672 58 3486 0 3559 0 3595 -19z m-5365 -365 c18 -7 42 -26 52
-42 19 -28 20 -55 23 -960 l2 -931 -31 -31 c-65 -64 -47 -62 -869 -57 -677 5
-746 7 -763 22 -17 17 -18 51 -11 968 7 1041 5 1003 66 1030 48 21 1482 22
1531 1z m317 -91 c0 -11 -11 -15 -39 -15 -38 0 -57 10 -44 24 3 3 24 6 45 6
27 0 38 -4 38 -15z m224 0 c4 -12 -3 -15 -34 -15 -37 0 -56 10 -43 24 13 12
71 6 77 -9z m216 0 c0 -11 -11 -15 -40 -15 -29 0 -40 4 -40 15 0 11 11 15 40
15 29 0 40 -4 40 -15z m215 -5 c0 -10 -12 -16 -37 -18 -37 -3 -51 12 -31 32
13 13 68 2 68 -14z m215 -6 c0 -10 -13 -14 -40 -14 -27 0 -40 4 -40 13 0 21 6
23 45 19 21 -3 35 -10 35 -18z m230 2 c0 -17 -30 -25 -64 -19 -40 8 -32 31 12
35 44 4 52 1 52 -16z m645 4 c0 -10 -13 -16 -42 -18 -32 -2 -43 1 -43 11 0 22
12 28 50 25 23 -2 35 -8 35 -18z m205 0 c0 -16 -7 -20 -35 -20 -22 0 -35 5
-35 13 0 20 10 27 42 27 21 0 28 -5 28 -20z m218 -2 c3 -15 -4 -18 -37 -18
-35 0 -41 3 -41 21 0 17 5 20 37 17 27 -2 39 -8 41 -20z m220 10 c21 -21 13
-28 -33 -28 -48 0 -48 0 -39 24 7 19 55 21 72 4z m222 -14 c0 -10 -13 -14 -40
-14 -27 0 -40 4 -40 13 0 21 6 23 45 19 21 -3 35 -10 35 -18z m204 9 c8 -20 6
-21 -32 -29 -29 -6 -32 -4 -32 18 0 21 5 25 29 26 18 0 32 -5 35 -15z m434 -6
c3 -13 -4 -17 -32 -17 -41 0 -51 26 -13 33 32 6 42 3 45 -16z m209 -14 c-4 -6
-16 -9 -29 -8 -28 2 -36 32 -11 37 21 5 48 -15 40 -29z m211 15 c3 -14 -3 -18
-27 -18 -29 0 -41 17 -24 34 13 13 48 1 51 -16z m217 2 c0 -10 -12 -16 -32
-18 -28 -3 -33 0 -33 18 0 18 5 21 33 18 20 -2 32 -8 32 -18z m215 0 c0 -16
-7 -20 -30 -20 -18 0 -30 5 -30 13 0 19 5 22 34 25 20 1 26 -3 26 -18z m213 0
c4 -17 0 -20 -31 -19 l-37 1 30 8 30 8 -30 2 -30 2 30 8 c17 4 31 8 31 9 1 0
4 -8 7 -19z m188 -20 c22 0 24 11 7 28 -9 9 -7 12 11 12 18 0 22 -5 19 -22 -4
-32 -63 -39 -71 -9 -2 11 -2 23 2 26 3 4 7 -3 9 -14 2 -13 11 -21 23 -21z
m236 33 c-4 -3 -2 -12 4 -20 9 -10 5 -13 -24 -13 -30 0 -34 3 -30 20 4 13 14
20 31 20 14 0 22 -3 19 -7z m-3429 -20 c-2 -12 -14 -19 -36 -21 -27 -3 -32 0
-32 17 0 17 6 21 36 21 28 0 35 -3 32 -17z m212 3 c0 -8 -14 -16 -32 -19 -39
-6 -40 -5 -32 17 8 20 64 22 64 2z m1520 -1 c0 -11 -11 -15 -40 -15 -29 0 -40
4 -40 15 0 11 11 15 40 15 29 0 40 -4 40 -15z m-3042 -207 c-2 -19 -10 -24
-40 -26 -32 -3 -38 0 -38 16 0 26 8 32 47 32 30 0 34 -3 31 -22z m220 0 c3
-15 -4 -18 -32 -18 -30 0 -36 4 -36 21 0 17 5 20 32 17 22 -2 34 -9 36 -20z
m437 -3 c0 -16 -8 -21 -37 -23 -35 -3 -38 -1 -38 23 0 24 3 26 38 23 29 -2 37
-7 37 -23z m1085 0 c0 -23 -4 -25 -45 -25 -49 0 -50 1 -35 31 8 13 21 19 45
19 31 0 35 -3 35 -25z m208 -8 c3 -25 0 -27 -32 -27 -31 0 -36 3 -36 24 0 18
7 26 23 29 35 7 42 2 45 -26z m630 27 c31 -9 27 -49 -5 -50 -32 -2 -46 11 -38
35 7 23 9 24 43 15z m237 -19 c0 -16 -8 -21 -38 -23 -38 -3 -39 -1 -28 46 1 2
16 2 34 0 24 -2 32 -8 32 -23z m220 5 c0 -10 -12 -16 -37 -18 -40 -3 -41 -3
-32 23 8 21 69 17 69 -5z m210 0 c0 -16 -28 -25 -50 -16 -9 3 -12 12 -9 21 8
21 59 16 59 -5z m212 5 c6 -21 -14 -36 -40 -29 -28 6 -36 29 -14 37 20 7 50 3
54 -8z m213 -5 c0 -15 -7 -20 -25 -20 -18 0 -25 5 -25 20 0 15 7 20 25 20 18
0 25 -5 25 -20z m220 1 c0 -13 -9 -20 -30 -23 -35 -5 -47 6 -30 27 18 22 60
19 60 -4z m210 -6 c0 -21 -5 -25 -30 -25 -25 0 -30 4 -30 25 0 21 5 25 30 25
25 0 30 -4 30 -25z m191 13 c0 -10 2 -10 6 0 8 21 23 13 23 -13 0 -21 -5 -25
-30 -25 -25 0 -30 4 -30 25 0 25 29 37 31 13z m247 -15 c3 -20 -1 -23 -27 -23
-27 0 -31 4 -31 26 0 22 4 25 28 22 19 -2 28 -9 30 -25z m-4098 -3 c0 -16 -7
-20 -35 -20 -19 0 -35 2 -35 4 0 2 -3 11 -6 20 -5 13 2 16 35 16 34 0 41 -3
41 -20z m435 0 c0 -10 -13 -16 -42 -18 -32 -2 -43 1 -43 11 0 22 12 28 50 25
23 -2 35 -8 35 -18z m221 8 c11 -17 -26 -38 -55 -31 -33 8 -35 9 -28 28 7 18
72 21 83 3z m202 -10 c-2 -17 -10 -23 -28 -23 -18 0 -26 6 -28 23 -3 19 1 22
28 22 27 0 31 -3 28 -22z m222 2 c0 -16 -7 -20 -35 -20 -38 0 -38 0 -29 24 4
10 18 16 35 16 22 0 29 -5 29 -20z m640 16 c0 -2 3 -11 6 -19 4 -11 -5 -16
-35 -19 -33 -3 -41 0 -41 13 0 8 3 19 7 22 7 8 63 10 63 3z m220 -16 c0 -16
-7 -20 -35 -20 -22 0 -35 5 -35 13 0 20 10 27 42 27 21 0 28 -5 28 -20z m2334
-2 c3 6 13 9 21 6 22 -9 8 -24 -21 -24 -18 0 -24 5 -23 23 0 20 1 20 8 3 5
-13 10 -16 15 -8z m-178 -189 c3 -6 0 -15 -7 -20 -12 -7 -12 -9 1 -9 10 0 11
-3 3 -11 -5 -5 -22 -7 -37 -3 -19 4 -26 13 -26 30 0 20 5 24 29 24 17 0 33 -5
37 -11z m184 0 c0 -6 7 -9 15 -5 11 4 15 -1 15 -19 0 -20 -4 -24 -22 -21 -13
3 -29 5 -35 5 -7 1 -13 6 -13 12 0 6 9 8 21 4 16 -5 20 -3 16 6 -2 8 -10 13
-16 11 -7 -1 -10 2 -6 8 8 13 25 13 25 -1z m-4710 -14 c0 -11 -12 -15 -45 -15
-33 0 -45 4 -45 15 0 11 12 15 45 15 33 0 45 -4 45 -15z m210 -6 c0 -17 -5
-20 -37 -17 -27 2 -39 8 -41 21 -3 14 4 17 37 17 35 0 41 -3 41 -21z m220 1
c0 -15 -7 -20 -27 -20 -16 0 -34 4 -42 9 -22 14 -3 31 35 31 27 0 34 -4 34
-20z m220 -1 c0 -17 -5 -20 -37 -17 -27 2 -39 8 -41 21 -3 14 4 17 37 17 35 0
41 -3 41 -21z m215 1 c0 -9 -11 -16 -28 -18 -39 -5 -58 4 -51 23 9 22 79 17
79 -5z m213 -2 c3 -15 -4 -18 -37 -18 -39 0 -53 14 -34 34 14 14 68 1 71 -16z
m210 0 c2 -11 -3 -18 -11 -18 -9 0 -22 -3 -30 -6 -9 -3 -16 2 -20 15 -6 25 -4
27 30 26 18 0 29 -6 31 -17z m222 2 c0 -16 -7 -20 -35 -20 -28 0 -35 4 -35 20
0 16 7 20 35 20 28 0 35 -4 35 -20z m220 0 c0 -17 -7 -20 -40 -20 -33 0 -40 3
-40 20 0 17 7 20 40 20 33 0 40 -3 40 -20z m210 0 c0 -16 -7 -20 -33 -20 -38
0 -48 6 -40 26 3 8 19 14 39 14 27 0 34 -4 34 -20z m218 -1 c2 -11 -6 -18 -24
-22 -37 -7 -54 1 -54 25 0 16 6 19 37 16 25 -2 39 -8 41 -19z m212 1 c0 -16
-7 -20 -35 -20 -28 0 -35 4 -35 20 0 16 7 20 35 20 28 0 35 -4 35 -20z m220
-2 c0 -13 -8 -18 -30 -18 -22 0 -30 5 -30 18 0 14 8 19 30 19 22 0 30 -5 30
-19z m220 2 c0 -17 -7 -20 -40 -20 -33 0 -40 3 -40 20 0 17 7 20 40 20 33 0
40 -3 40 -20z m220 0 c0 -16 -7 -20 -35 -20 -28 0 -35 4 -35 20 0 16 7 20 35
20 28 0 35 -4 35 -20z m210 5 c0 -10 -10 -15 -30 -15 -20 0 -30 5 -30 15 0 10
10 15 30 15 20 0 30 -5 30 -15z m210 -4 c0 -15 -6 -18 -30 -16 -17 1 -33 5
-36 8 -12 12 8 27 37 27 22 0 29 -5 29 -19z m208 2 c-2 -10 -13 -19 -26 -21
-17 -3 -22 2 -22 17 0 16 6 21 26 21 19 0 25 -5 22 -17z m215 3 c8 -19 -11
-35 -34 -29 -29 8 -25 43 5 43 13 0 26 -6 29 -14z m214 -6 c1 -16 -4 -20 -28
-20 -22 0 -29 5 -29 20 0 15 7 20 28 20 21 0 28 -5 29 -20z m223 -6 c0 -22 -3
-25 -22 -20 -13 3 -29 6 -35 6 -7 0 -13 5 -13 10 0 6 9 10 20 10 11 0 20 5 20
10 0 6 7 10 15 10 10 0 15 -10 15 -26z m-4312 -206 c-2 -18 -11 -24 -37 -26
-38 -4 -57 9 -48 32 4 11 19 16 47 16 37 0 41 -2 38 -22z m210 1 c-3 -23 -43
-34 -68 -19 -24 15 -3 40 35 40 32 0 36 -3 33 -21z m222 2 c0 -28 -60 -45 -75
-21 -14 22 4 40 40 40 28 0 35 -4 35 -19z m215 -1 c0 -10 -12 -16 -37 -18 -37
-3 -51 12 -31 32 13 13 68 2 68 -14z m213 -2 c3 -15 -4 -18 -37 -18 -34 0 -41
3 -41 19 0 16 7 19 37 18 27 -2 39 -7 41 -19z m220 0 c-4 -29 -64 -39 -75 -13
-7 21 12 35 50 35 24 0 28 -4 25 -22z m197 12 c13 10 15 9 15 -9 0 -14 -8 -23
-26 -27 -30 -8 -47 6 -38 30 5 13 9 14 20 5 11 -9 18 -8 29 1z m189 -4 c-10
-8 -16 -17 -13 -20 3 -4 17 3 31 14 25 19 26 19 31 0 7 -26 -12 -39 -45 -33
-21 4 -28 11 -28 29 0 18 5 24 22 24 21 0 21 0 2 -14z m685 -2 c2 -2 1 -10 -2
-19 -4 -9 -19 -15 -37 -15 -25 0 -30 4 -30 25 0 22 3 24 33 18 17 -3 34 -7 36
-9z m658 1 c7 -20 6 -21 -39 -28 -32 -5 -38 -3 -38 12 0 25 9 31 42 31 17 0
31 -6 35 -15z m433 -5 c0 -16 -7 -20 -30 -20 -23 0 -30 4 -30 20 0 16 7 20 30
20 23 0 30 -4 30 -20z m210 0 c0 -16 -7 -20 -34 -20 -29 0 -33 3 -29 20 4 14
14 20 34 20 22 0 29 -5 29 -20z m208 -2 c3 -13 -3 -18 -22 -18 -20 0 -26 5
-26 21 0 15 5 20 22 17 13 -2 24 -11 26 -20z m222 2 c10 -18 8 -20 -19 -20
-31 0 -47 13 -36 30 11 17 44 11 55 -10z m210 1 c-1 -19 -20 -32 -39 -26 -23
7 -28 31 -8 38 15 5 47 -3 47 -12z m213 0 c8 -1 10 -7 5 -23 -2 -6 -15 -8 -35
-4 -24 6 -30 11 -26 26 4 15 10 17 27 11 11 -5 24 -9 29 -10z m225 -9 c3 -22
1 -23 -30 -17 -41 9 -42 10 -34 30 10 26 60 16 64 -13z m203 21 c0 -5 2 -18 5
-30 3 -19 0 -21 -28 -19 -26 2 -31 7 -32 29 -1 23 2 27 26 27 15 0 28 -3 29
-7z m-3006 -23 c0 -10 -12 -16 -37 -18 -33 -3 -38 0 -38 18 0 18 5 21 38 18
25 -2 37 -8 37 -18z m210 0 c0 -10 -12 -16 -37 -18 -39 -3 -47 5 -26 26 17 17
63 11 63 -8z m653 3 c-3 -19 -30 -28 -53 -19 -25 9 -5 36 27 36 23 0 29 -4 26
-17z m442 2 c0 -10 -11 -15 -35 -15 -24 0 -35 5 -35 15 0 10 11 15 35 15 24 0
35 -5 35 -15z m-662 -7 c-5 -15 -78 -24 -78 -10 0 16 13 22 48 22 22 0 32 -4
30 -12z m-2373 -203 c0 -15 -7 -20 -30 -21 -43 -1 -55 5 -55 28 0 16 6 19 43
16 34 -2 42 -7 42 -23z m215 0 c0 -22 -4 -25 -40 -25 -22 0 -40 4 -40 9 0 28
14 41 46 41 30 0 34 -3 34 -25z m218 -3 c3 -19 -1 -22 -32 -22 -37 0 -49 9
-38 26 19 30 66 27 70 -4z m1722 -3 c0 -15 -7 -19 -35 -19 -28 0 -35 4 -35 19
0 14 8 21 28 23 35 5 42 1 42 -23z m652 25 c3 -3 4 -14 1 -25 -8 -28 -73 -28
-73 0 0 18 12 24 56 30 6 0 13 -2 16 -5z m223 -19 c0 -13 -8 -21 -23 -23 -36
-5 -51 4 -45 28 8 29 68 25 68 -5z m212 -9 c-4 -9 -18 -16 -32 -16 -33 0 -36
37 -2 42 28 5 41 -6 34 -26z m211 7 c3 -20 -1 -23 -27 -23 -23 0 -31 5 -31 18
0 25 10 33 35 30 12 -2 21 -12 23 -25z m210 5 c-2 -15 -11 -24 -25 -26 -19 -3
-23 1 -23 22 0 21 5 26 26 26 21 0 25 -4 22 -22z m220 -3 c0 -21 -5 -25 -29
-25 -21 0 -29 5 -29 18 0 24 9 32 35 32 17 0 23 -6 23 -25z m212 0 c0 -21 -5
-25 -30 -25 -25 0 -30 4 -30 25 0 21 5 25 30 25 25 0 30 -4 30 -25z m204 9
c25 -24 19 -34 -20 -34 -19 0 -33 3 -31 8 2 4 7 15 10 25 8 21 21 22 41 1z
m231 -11 c1 -19 -3 -23 -27 -23 -23 0 -28 4 -28 26 0 22 4 25 27 22 19 -2 27
-9 28 -25z m215 -5 c0 -24 -4 -28 -29 -28 -34 0 -45 12 -36 40 4 14 14 19 36
17 24 -2 29 -6 29 -29z m-4095 2 c0 -10 -12 -16 -37 -18 -33 -3 -38 0 -38 18
0 18 5 21 38 18 25 -2 37 -8 37 -18z m220 0 c0 -19 -65 -27 -76 -9 -13 21 1
30 39 27 25 -2 37 -8 37 -18z m215 0 c0 -17 -7 -20 -40 -20 -33 0 -40 3 -40
20 0 17 7 20 40 20 33 0 40 -3 40 -20z m208 3 c-5 -27 -54 -30 -61 -4 -4 18
-1 21 30 21 27 0 34 -4 31 -17z m228 6 c9 -15 -6 -27 -41 -31 -25 -2 -31 1
-33 20 -3 19 1 22 32 22 19 0 38 -5 42 -11z m204 -9 c0 -16 -7 -20 -35 -20
-22 0 -35 5 -35 13 0 20 10 27 42 27 21 0 28 -5 28 -20z m175 10 c3 -5 12 -10
18 -10 7 0 6 4 -3 10 -12 8 -11 10 7 10 24 0 26 -26 2 -41 -29 -18 -63 -2 -53
24 7 19 20 22 29 7z m479 -6 c9 -24 0 -30 -38 -26 -27 3 -36 9 -36 23 0 15 7
19 34 19 22 0 36 -6 40 -16z m216 -4 c0 -16 -7 -20 -35 -20 -28 0 -35 4 -35
20 0 16 7 20 35 20 28 0 35 -4 35 -20z m-2595 -215 c0 -15 -8 -21 -28 -23 -38
-5 -58 4 -51 22 12 31 79 32 79 1z m220 0 c0 -17 -6 -20 -35 -17 -19 1 -39 7
-43 11 -17 17 5 32 41 29 29 -3 37 -8 37 -23z m206 14 c16 -8 18 -13 8 -25
-13 -16 -65 -19 -74 -4 -20 32 25 52 66 29z m439 -14 c0 -22 -4 -25 -34 -25
-19 0 -38 5 -42 12 -9 14 23 38 53 38 18 0 23 -6 23 -25z m225 0 c0 -14 -10
-19 -42 -22 -38 -4 -43 -1 -43 16 0 15 8 21 33 24 45 5 52 3 52 -18z m205 -1
c0 -23 -3 -25 -32 -22 -37 3 -51 33 -21 41 42 11 53 7 53 -19z m210 1 c0 -22
-4 -25 -35 -25 -28 0 -35 4 -35 19 0 14 8 21 28 24 15 2 30 5 35 6 4 0 7 -10
7 -24z m225 0 c0 -16 -8 -21 -42 -23 -24 -2 -43 0 -43 5 1 39 85 57 85 18z
m421 12 c15 -14 -7 -37 -35 -37 -33 0 -44 10 -36 32 6 14 58 18 71 5z m224
-12 c0 -22 -4 -25 -40 -25 -26 0 -40 5 -40 13 0 21 22 37 52 37 23 0 28 -4 28
-25z m220 5 c0 -23 -45 -39 -62 -22 -18 18 -1 42 32 42 23 0 30 -4 30 -20z
m223 14 c15 -16 -8 -34 -44 -34 -37 0 -51 15 -32 33 8 9 68 9 76 1z m207 -14
c0 -16 -7 -20 -30 -20 -23 0 -30 4 -30 20 0 16 7 20 30 20 23 0 30 -4 30 -20z
m215 0 c0 -9 -11 -16 -27 -18 -23 -3 -28 1 -28 18 0 17 5 21 28 18 16 -2 27
-9 27 -18z m215 0 c0 -16 -7 -20 -30 -20 -23 0 -30 4 -30 20 0 16 7 20 30 20
23 0 30 -4 30 -20z m213 14 c12 -12 -6 -34 -29 -34 -17 0 -24 6 -24 20 0 14 7
20 23 20 13 0 26 -3 30 -6z m217 -13 c0 -20 -32 -37 -50 -26 -16 10 -12 33 8
38 34 9 42 7 42 -12z m210 -1 c0 -15 -7 -20 -25 -20 -18 0 -25 5 -25 20 0 15
7 20 25 20 18 0 25 -5 25 -20z m215 -4 c0 -13 -8 -20 -23 -21 -26 -2 -36 9
-28 31 9 22 51 14 51 -10z m198 16 c3 10 7 10 17 1 21 -20 5 -43 -24 -35 -14
4 -26 10 -26 15 -1 28 0 29 14 18 11 -9 15 -9 19 1z m213 -9 c9 15 10 15 21
-2 10 -16 8 -20 -13 -24 -27 -5 -50 16 -38 34 5 9 9 7 14 -6 6 -18 8 -18 16
-2z m-4076 -12 c0 -14 -7 -18 -27 -16 -41 3 -43 4 -43 20 0 10 11 15 35 15 27
0 35 -4 35 -19z m1300 1 c0 -15 -8 -19 -40 -20 -27 -1 -40 2 -40 11 0 21 11
27 47 27 25 0 33 -4 33 -18z m-1730 -214 c0 -16 -6 -19 -37 -16 -48 4 -60 35
-16 40 39 5 53 -1 53 -24z m218 4 c3 -20 -1 -22 -37 -22 -34 0 -41 3 -41 19 0
14 8 21 28 24 40 6 47 3 50 -21z m190 22 c34 -9 29 -43 -6 -40 -40 3 -56 15
-41 32 13 16 15 16 47 8z m241 -10 c11 -10 -15 -24 -45 -24 -32 0 -45 16 -27
34 6 6 62 -1 72 -10z m219 3 c21 -16 13 -25 -29 -29 -44 -4 -57 5 -39 27 13
15 48 16 68 2z m210 -11 c3 -12 -5 -16 -32 -16 -29 0 -36 4 -36 20 0 16 6 19
33 16 20 -2 33 -9 35 -20z m1950 2 c3 -14 -3 -18 -27 -18 -29 0 -41 17 -24 34
13 13 48 1 51 -16z m212 2 c0 -16 -7 -20 -30 -20 -18 0 -30 5 -30 13 0 20 10
27 37 27 16 0 23 -6 23 -20z m425 -6 c0 -28 -49 -27 -53 1 -2 17 2 20 25 19
20 0 28 -6 28 -20z m620 16 c3 -5 12 -10 18 -10 7 0 6 4 -3 10 -10 7 -11 10
-2 10 16 0 28 -29 16 -40 -5 -5 -21 -6 -35 -3 -20 4 -25 10 -22 24 6 21 18 25
28 9z m250 -1 c4 -5 -6 -9 -20 -9 -16 0 -24 -4 -20 -10 4 -6 15 -8 26 -5 11 4
19 2 19 -5 0 -7 -13 -10 -32 -8 -25 2 -34 8 -36 24 -2 17 2 21 27 22 17 0 33
-4 36 -9z m-4755 -20 c0 -17 -5 -20 -37 -17 -27 2 -39 8 -41 21 -3 14 4 17 37
17 35 0 41 -3 41 -21z m1510 6 c0 -10 -11 -15 -35 -15 -24 0 -35 5 -35 15 0
10 11 15 35 15 24 0 35 -5 35 -15z m220 0 c0 -11 -11 -15 -40 -15 -31 0 -38 3
-34 15 4 9 19 15 40 15 24 0 34 -5 34 -15z m215 -5 c0 -10 -12 -16 -37 -18
-37 -3 -51 12 -31 32 13 13 68 2 68 -14z m215 5 c0 -9 -9 -15 -25 -15 -14 0
-28 0 -32 -1 -5 0 -9 7 -11 15 -3 12 5 16 32 16 25 0 36 -4 36 -15z m220 1 c0
-8 -14 -16 -32 -19 -39 -6 -49 -1 -41 18 7 20 73 20 73 1z m225 -1 c0 -5 -17
-11 -37 -13 -30 -3 -38 0 -38 13 0 13 8 16 38 13 20 -2 37 -7 37 -13z m213 -2
c-2 -13 -14 -19 -41 -21 -32 -3 -37 0 -37 17 0 18 6 21 41 21 33 0 40 -3 37
-17z m212 2 c0 -8 -3 -15 -7 -15 -5 0 -18 -3 -30 -6 -19 -5 -23 -2 -23 15 0
17 6 21 30 21 20 0 30 -5 30 -15z m638 -2 c-3 -19 -44 -27 -54 -12 -9 15 6 29
32 29 19 0 25 -5 22 -17z m427 -3 c0 -23 -49 -20 -53 3 -3 15 2 18 25 15 17
-2 28 -9 28 -18z m223 -4 c3 -14 -2 -17 -24 -14 -32 4 -43 24 -17 31 27 7 38
2 41 -17z m-4313 -211 c0 -17 -7 -20 -40 -20 -34 0 -40 3 -43 23 -3 22 0 23
40 20 35 -2 43 -7 43 -23z m213 -2 c3 -20 -1 -23 -32 -23 -37 0 -51 12 -42 36
4 10 16 14 38 12 25 -2 34 -8 36 -25z m211 18 c20 -13 6 -41 -21 -41 -33 0
-50 14 -42 33 7 18 40 22 63 8z m219 -19 c3 -21 0 -22 -32 -19 -42 4 -51 11
-42 32 4 11 16 15 38 13 26 -2 34 -8 36 -26z m217 3 c0 -15 -7 -20 -33 -21
-35 -1 -47 8 -38 32 9 24 71 15 71 -11z m225 0 c0 -16 -60 -29 -73 -16 -5 5
-7 16 -4 23 6 18 77 11 77 -7z m210 6 c0 -13 -24 -31 -41 -31 -21 0 -33 16
-26 34 5 13 67 10 67 -3z m208 -9 c3 -19 -1 -22 -32 -22 -28 0 -36 4 -36 18 0
25 4 28 37 27 21 -1 29 -7 31 -23z m872 3 c0 -15 -54 -30 -70 -20 -6 4 -7 12
-1 24 12 21 71 17 71 -4z m653 0 c-7 -19 -77 -21 -71 -2 5 12 56 27 70 20 4
-2 5 -10 1 -18z m201 19 c28 -11 18 -34 -14 -34 -23 0 -30 4 -30 20 0 20 15
25 44 14z m226 -9 c0 -17 -22 -35 -42 -35 -12 0 -18 8 -18 24 0 21 5 25 30 24
17 -1 30 -6 30 -13z m210 -3 c0 -25 -6 -30 -34 -25 -17 4 -22 10 -19 24 7 26
53 26 53 1z m218 -4 c3 -14 -3 -18 -27 -18 -34 0 -34 0 -25 25 8 21 48 16 52
-7z m203 12 c5 0 9 -6 9 -14 0 -18 -38 -32 -51 -19 -14 14 1 45 18 39 8 -3 19
-6 24 -6z m-2363 -17 c-2 -13 -13 -18 -38 -18 -25 0 -36 5 -38 18 -3 14 4 17
38 17 34 0 41 -3 38 -17z m220 0 c-2 -13 -14 -19 -41 -21 -32 -3 -37 0 -37 17
0 18 6 21 41 21 33 0 40 -3 37 -17z m210 0 c-2 -12 -14 -19 -36 -21 -27 -3
-32 0 -32 17 0 17 6 21 36 21 28 0 35 -3 32 -17z m442 -4 c0 -17 -5 -20 -32
-17 -22 2 -34 9 -36 21 -3 14 4 17 32 17 30 0 36 -4 36 -21z m220 7 c0 -7 -10
-16 -22 -20 -42 -11 -58 -7 -58 14 0 17 7 20 40 20 27 0 40 -4 40 -14z m1500
-6 c0 -16 -7 -20 -30 -20 -23 0 -30 4 -30 20 0 16 7 20 30 20 23 0 30 -4 30
-20z m210 16 c0 -2 3 -11 6 -20 5 -13 -1 -16 -25 -16 -24 0 -31 4 -31 20 0 15
7 20 25 20 14 0 25 -2 25 -4z m230 -21 c0 -10 -10 -15 -30 -15 -20 0 -30 5
-30 15 0 10 10 15 30 15 20 0 30 -5 30 -15z m-4752 -197 c3 -15 -4 -18 -42
-18 -32 0 -46 4 -46 13 0 22 12 28 50 25 24 -2 36 -9 38 -20z m216 14 c17 -27
-53 -53 -74 -27 -12 14 -12 18 1 26 17 11 66 12 73 1z m216 -11 c0 -16 -26
-31 -52 -31 -36 0 -41 37 -5 42 26 4 57 -2 57 -11z m208 2 c-4 -20 -54 -31
-70 -15 -17 17 1 32 38 32 28 0 35 -4 32 -17z m217 -8 c0 -15 -8 -21 -29 -23
-33 -4 -51 10 -42 33 9 25 71 16 71 -10z m433 3 c3 -14 -4 -18 -31 -18 -40 0
-51 8 -35 27 16 19 62 12 66 -9z m206 7 c6 -18 -26 -37 -48 -29 -9 3 -16 15
-16 25 0 14 7 19 29 19 16 0 31 -6 35 -15z m221 -10 c0 -15 -8 -21 -29 -23
-33 -4 -51 10 -42 33 9 25 71 16 71 -10z m435 0 c0 -22 -4 -25 -34 -25 -61 0
-63 44 -2 48 33 2 36 0 36 -23z m655 -6 c0 -21 -69 -19 -73 3 -2 9 4 18 15 20
26 6 58 -7 58 -23z m214 16 c2 -2 1 -11 -3 -20 -8 -21 -61 -16 -62 5 -1 26 7
32 35 25 14 -4 28 -8 30 -10z m218 -1 c8 -22 -11 -37 -36 -29 -23 7 -28 30 -8
38 23 10 38 7 44 -9z m-2159 -11 c-2 -13 -14 -19 -41 -21 -32 -3 -37 0 -37 17
0 18 6 21 41 21 33 0 40 -3 37 -17z m857 -3 c0 -10 -12 -16 -37 -18 -33 -3
-38 0 -38 18 0 18 5 21 38 18 25 -2 37 -8 37 -18z m433 3 c-3 -18 -38 -29 -64
-19 -26 10 -3 36 33 36 27 0 34 -4 31 -17z m225 3 c8 -20 -2 -26 -40 -26 -26
0 -33 4 -33 20 0 16 7 20 34 20 20 0 36 -6 39 -14z m857 0 c0 -17 -24 -28 -45
-20 -27 11 -17 34 15 34 19 0 30 -5 30 -14z m210 -7 c0 -16 -5 -20 -27 -17
-17 2 -29 10 -31 21 -3 13 3 17 27 17 25 0 31 -4 31 -21z m223 7 c7 -18 -1
-26 -29 -26 -25 0 -39 14 -29 30 9 15 52 12 58 -4z m210 0 c7 -19 -1 -26 -30
-26 -16 0 -23 6 -23 20 0 14 7 20 24 20 13 0 26 -6 29 -14z m195 -6 c15 0 15
2 2 10 -13 8 -12 10 3 10 10 0 17 -8 17 -20 0 -16 -7 -20 -30 -20 -18 0 -30 5
-30 13 0 18 14 31 18 18 2 -6 11 -11 20 -11z m237 0 c0 -9 -11 -16 -27 -18
-23 -3 -28 1 -28 18 0 17 5 21 28 18 16 -2 27 -9 27 -18z m220 10 c3 -5 0 -10
-7 -10 -9 0 -9 -3 2 -10 11 -7 7 -10 -17 -10 -31 0 -44 16 -26 33 10 10 41 8
48 -3z m-4981 -211 c-8 -14 -24 -10 -24 6 0 9 6 12 15 9 8 -4 12 -10 9 -15z
m874 6 c13 -13 -11 -35 -38 -35 -26 0 -30 4 -30 26 0 24 3 26 32 20 17 -3 34
-8 36 -11z m1509 -12 c18 -23 9 -30 -31 -25 -34 4 -49 26 -29 45 10 10 46 -2
60 -20z m-2437 -4 c0 -6 -4 -7 -10 -4 -5 3 -10 11 -10 16 0 6 5 7 10 4 6 -3
10 -11 10 -16z m285 1 c0 -24 -79 -21 -83 3 -3 16 2 18 40 15 30 -2 43 -7 43
-18z m215 0 c0 -17 -7 -20 -40 -20 -33 0 -40 3 -40 20 0 17 7 20 40 20 33 0
40 -3 40 -20z m220 0 c0 -17 -7 -20 -40 -20 -33 0 -40 3 -40 20 0 17 7 20 40
20 33 0 40 -3 40 -20z m428 3 c-2 -13 -14 -19 -41 -21 -32 -3 -37 0 -37 17 0
18 6 21 41 21 33 0 40 -3 37 -17z m222 -3 c0 -16 -7 -20 -30 -20 -16 0 -33 -1
-37 -2 -5 -2 -9 7 -11 20 -3 20 1 22 37 22 34 0 41 -3 41 -20z m210 0 c0 -16
-7 -20 -35 -20 -28 0 -35 4 -35 20 0 16 7 20 35 20 28 0 35 -4 35 -20z m210
-1 c0 -17 -5 -20 -37 -17 -27 2 -39 8 -41 21 -3 14 4 17 37 17 35 0 41 -3 41
-21z m220 1 c0 -17 -7 -20 -40 -20 -27 0 -40 4 -40 13 0 21 11 27 47 27 26 0
33 -4 33 -20z m215 -5 c0 -15 -8 -21 -32 -23 -30 -3 -33 -1 -33 23 0 24 3 26
33 23 24 -2 32 -8 32 -23z m419 19 c30 -12 18 -34 -19 -34 -22 0 -35 5 -35 13
0 26 21 34 54 21z m231 -19 c0 -16 -6 -19 -30 -17 -16 2 -34 7 -39 12 -15 15
5 31 37 28 24 -2 32 -8 32 -23z m223 3 c3 -15 -4 -18 -37 -18 -39 0 -53 14
-34 34 14 14 68 1 71 -16z m210 0 c3 -15 -4 -18 -32 -18 -38 0 -44 8 -24 28
17 17 52 11 56 -10z m430 0 c3 -14 -3 -18 -27 -18 -25 0 -31 4 -31 21 0 16 5
20 27 17 17 -2 29 -10 31 -20z m215 5 c15 -9 -14 -31 -34 -26 -25 7 -35 23
-19 33 12 7 31 5 53 -7z m421 11 c24 -9 19 -31 -9 -36 -29 -6 -35 -2 -35 24 0
18 16 23 44 12z m224 -13 c6 -17 -15 -30 -39 -24 -18 5 -25 23 -14 35 10 9 49
1 53 -11z m197 2 c12 1 20 -4 20 -13 0 -13 -10 -16 -45 -11 -5 0 -10 11 -10
24 0 13 3 17 8 10 4 -6 16 -11 27 -10z m245 -2 c15 -29 13 -31 -25 -31 -31 0
-35 3 -35 25 0 20 5 25 25 25 14 0 29 -8 35 -19z m-1520 -6 c0 -9 -9 -15 -25
-15 -16 0 -25 6 -25 15 0 9 9 15 25 15 16 0 25 -6 25 -15z m650 1 c0 -16 -33
-27 -50 -16 -7 4 -9 13 -6 19 10 16 56 14 56 -3z m-5222 -178 c24 -24 13 -38
-28 -38 -26 0 -40 5 -40 13 0 18 21 37 40 37 9 0 21 -5 28 -12z m428 2 c19 0
18 -36 -2 -44 -34 -13 -54 -7 -54 17 0 29 9 39 28 32 7 -3 20 -5 28 -5z m248
-9 c13 -21 -7 -41 -39 -41 -36 0 -50 12 -41 35 6 17 71 21 80 6z m216 -16 c0
-22 -4 -25 -40 -25 -36 0 -40 3 -40 25 0 23 4 25 40 25 36 0 40 -2 40 -25z
m218 -2 c3 -21 -1 -23 -37 -23 -42 0 -57 11 -47 36 4 11 17 14 43 12 31 -2 39
-7 41 -25z m222 -4 c0 -15 -7 -19 -40 -19 -33 0 -40 3 -40 19 0 21 21 29 58
23 13 -3 22 -12 22 -23z m208 22 c19 -12 11 -46 -11 -45 -9 1 -26 2 -37 3 -25
1 -27 38 -2 44 28 8 36 7 50 -2z m430 -1 c6 0 12 -9 12 -20 0 -16 -7 -20 -34
-20 -22 0 -36 6 -40 16 -9 23 3 37 28 30 11 -3 27 -6 34 -6z m452 -19 c0 -22
-27 -31 -58 -20 -34 13 -27 37 11 41 40 4 47 1 47 -21z m209 13 c13 -11 -13
-34 -39 -34 -23 0 -30 4 -30 19 0 11 6 22 13 24 11 5 47 -1 56 -9z m415 10 c9
-3 16 -15 16 -25 0 -15 -7 -19 -40 -19 -32 0 -40 4 -40 18 0 31 25 41 64 26z
m430 0 c9 -3 16 -15 16 -25 0 -15 -7 -19 -35 -19 -28 0 -35 4 -35 19 0 25 24
36 54 25z m-3944 -24 c0 -17 -7 -20 -45 -20 -32 0 -45 4 -45 14 0 18 15 24 58
25 26 1 32 -3 32 -19z m250 5 c0 -11 -12 -15 -45 -15 -33 0 -45 4 -45 15 0 11
12 15 45 15 33 0 45 -4 45 -15z m460 0 c0 -11 -12 -15 -45 -15 -33 0 -45 4
-45 15 0 11 12 15 45 15 33 0 45 -4 45 -15z m1530 -4 c0 -14 -9 -20 -36 -23
-37 -4 -49 4 -40 27 3 9 19 15 41 15 28 0 35 -4 35 -19z m425 -1 c0 -18 -52
-27 -67 -12 -17 17 2 33 35 30 20 -2 32 -8 32 -18z m645 0 c0 -13 -7 -20 -19
-20 -11 0 -26 -3 -35 -6 -12 -5 -16 0 -16 20 0 23 4 26 35 26 28 0 35 -4 35
-20z m440 0 c0 -17 -7 -20 -40 -20 -33 0 -40 3 -40 20 0 17 7 20 40 20 33 0
40 -3 40 -20z m430 1 c0 -13 -9 -20 -30 -23 -17 -3 -33 -1 -36 4 -12 19 6 38
36 38 23 0 30 -5 30 -19z m220 -1 c0 -16 -7 -20 -30 -20 -23 0 -30 4 -30 20 0
16 7 20 30 20 23 0 30 -4 30 -20z m210 0 c0 -16 -7 -20 -35 -20 -22 0 -35 5
-35 13 0 20 10 27 42 27 21 0 28 -5 28 -20z m220 1 c0 -11 -9 -21 -22 -25 -35
-9 -38 -8 -38 19 0 21 5 25 30 25 23 0 30 -5 30 -19z m220 -6 c0 -22 -4 -25
-27 -22 -20 2 -29 10 -31 25 -3 19 1 22 27 22 26 0 31 -4 31 -25z m208 3 c3
-14 -3 -18 -27 -18 -29 0 -41 17 -24 34 13 13 48 1 51 -16z m217 3 c0 -8 -12
-18 -27 -22 -25 -6 -28 -5 -28 18 0 21 4 24 28 21 15 -2 27 -9 27 -17z m218 5
c8 -19 -1 -26 -34 -26 -22 0 -26 4 -22 20 6 23 48 28 56 6z m210 0 c7 -19 -1
-26 -30 -26 -16 0 -23 6 -23 20 0 14 7 20 24 20 13 0 26 -6 29 -14z m183 2
c-9 15 6 16 22 0 19 -19 14 -28 -18 -28 -24 0 -30 4 -30 21 0 19 2 20 17 8 11
-10 14 -10 9 -1z m254 -14 c0 -9 -12 -14 -35 -14 -39 0 -43 7 -18 25 20 15 53
8 53 -11z m216 9 c17 -17 16 -18 -15 -21 -38 -4 -46 1 -38 23 8 20 31 19 53
-2z m-6306 -209 c0 -20 -86 -20 -93 0 -5 11 4 16 36 18 50 4 57 1 57 -18z
m448 10 c26 -8 0 -24 -39 -24 -32 0 -39 3 -39 20 0 17 5 19 33 14 17 -3 38 -8
45 -10z m190 10 c33 -9 28 -34 -7 -34 -31 0 -47 13 -36 30 7 12 12 12 43 4z
m470 -15 c2 -13 -7 -18 -38 -21 -44 -4 -56 3 -46 28 8 21 80 15 84 -7z m1083
11 c5 0 9 -9 9 -20 0 -16 -7 -20 -35 -20 -28 0 -35 4 -35 19 0 21 17 32 38 25
8 -2 18 -4 23 -4z m3463 -6 c9 -23 8 -24 -24 -24 -48 0 -39 30 11 39 4 0 10
-6 13 -15z m-5914 -3 c38 -11 8 -22 -39 -15 -22 4 -38 10 -35 15 6 10 38 10
74 0z m490 -6 c0 -16 -64 -22 -74 -6 -9 14 5 21 41 21 23 0 33 -5 33 -15z
m660 0 c0 -11 -11 -15 -40 -15 -29 0 -40 4 -40 15 0 11 11 15 40 15 29 0 40
-4 40 -15z m430 -1 c0 -11 -9 -14 -37 -12 -52 4 -56 28 -4 28 30 0 41 -4 41
-16z m235 -4 c0 -24 -79 -21 -83 3 -3 16 2 18 40 15 30 -2 43 -7 43 -18z m213
3 c-2 -13 -14 -19 -41 -21 -32 -3 -37 0 -37 17 0 18 6 21 41 21 33 0 40 -3 37
-17z m222 -3 c0 -17 -7 -20 -40 -20 -33 0 -40 3 -40 20 0 17 7 20 40 20 33 0
40 -3 40 -20z m420 0 c0 -16 -7 -20 -34 -20 -19 0 -38 5 -41 10 -11 18 5 30
41 30 27 0 34 -4 34 -20z m230 1 c0 -23 -17 -31 -53 -24 -18 4 -27 12 -27 24
0 15 7 19 40 19 33 0 40 -4 40 -19z m208 -3 c3 -14 -4 -18 -32 -18 -36 0 -52
12 -41 31 11 17 69 6 73 -13z m222 12 c0 -13 -34 -30 -59 -30 -14 0 -21 6 -21
20 0 17 7 20 40 20 22 0 40 -4 40 -10z m210 -11 c0 -17 -5 -20 -37 -17 -27 2
-39 8 -41 21 -3 14 4 17 37 17 35 0 41 -3 41 -21z m220 6 c0 -15 -37 -35 -66
-35 -8 0 -14 10 -14 25 0 23 4 25 40 25 29 0 40 -4 40 -15z m210 -5 c0 -16 -7
-20 -35 -20 -28 0 -35 4 -35 20 0 16 7 20 35 20 28 0 35 -4 35 -20z m218 3
c-2 -12 -14 -19 -36 -21 -27 -3 -32 0 -32 17 0 17 6 21 36 21 28 0 35 -3 32
-17z m225 3 c8 -20 -2 -26 -40 -26 -26 0 -33 4 -33 20 0 16 7 20 34 20 20 0
36 -6 39 -14z m217 -6 c0 -15 -7 -20 -28 -20 -27 0 -52 15 -52 32 0 4 18 8 40
8 33 0 40 -3 40 -20z m209 7 c14 -18 4 -27 -30 -27 -29 0 -44 13 -34 30 9 15
51 12 64 -3z m221 -2 c0 -10 -10 -15 -30 -15 -20 0 -30 5 -30 15 0 10 10 15
30 15 20 0 30 -5 30 -15z m194 9 c26 -10 18 -24 -14 -24 -20 0 -30 5 -30 15 0
16 17 19 44 9z m236 -9 c0 -10 -10 -15 -30 -15 -20 0 -30 5 -30 15 0 10 10 15
30 15 20 0 30 -5 30 -15z m210 0 c0 -10 -10 -15 -30 -15 -29 0 -38 9 -23 23
13 13 53 7 53 -8z m428 -2 c2 -9 -7 -13 -27 -13 -30 0 -39 9 -24 24 11 10 46
3 51 -11z m222 -4 c0 -5 -13 -9 -30 -9 -18 0 -30 5 -30 13 0 9 10 12 30 9 17
-2 30 -8 30 -13z m229 12 c9 -6 3 -10 -20 -14 -38 -5 -44 -3 -34 12 7 13 35
14 54 2z m-5662 -225 c-2 -6 -16 -12 -30 -14 -21 -3 -27 1 -27 16 0 15 6 18
30 14 17 -2 29 -9 27 -16z m448 4 c0 -10 -12 -16 -37 -18 -28 -2 -38 1 -38 12
0 14 29 25 60 22 8 -1 15 -8 15 -16z m1094 4 c12 -11 -29 -35 -48 -29 -23 7
-28 30 -8 38 11 5 47 -1 56 -9z m209 -5 c2 -11 -6 -19 -23 -23 -30 -8 -45 -1
-45 19 0 27 63 30 68 4z m420 15 c35 -10 27 -34 -11 -34 -40 0 -51 8 -36 27
13 15 15 15 47 7z m-3078 -19 c0 -11 -11 -15 -39 -15 -25 0 -41 5 -45 15 -4
12 4 15 39 15 33 0 45 -4 45 -15z m250 -7 c0 -12 -82 -6 -87 7 -2 6 15 9 42 7
25 -2 45 -8 45 -14z m225 2 c0 -11 -9 -14 -35 -12 -41 4 -44 7 -35 22 10 17
70 8 70 -10z m225 8 c0 -19 -77 -21 -84 -3 -4 12 4 15 39 15 29 0 45 -4 45
-12z m440 -3 c0 -11 -11 -15 -40 -15 -29 0 -40 4 -40 15 0 11 11 15 40 15 29
0 40 -4 40 -15z m430 0 c0 -11 -11 -15 -40 -15 -29 0 -40 4 -40 15 0 11 11 15
40 15 29 0 40 -4 40 -15z m230 7 c0 -15 -24 -32 -46 -32 -25 0 -39 14 -29 30
7 12 75 14 75 2z m218 -9 c-4 -23 -78 -32 -78 -10 0 21 10 27 47 27 27 0 34
-4 31 -17z m220 0 c-4 -20 -29 -27 -63 -19 -40 10 -20 36 27 36 32 0 39 -3 36
-17z m650 0 c-4 -20 -54 -31 -70 -15 -17 17 1 32 38 32 28 0 35 -4 32 -17z
m427 -2 c0 -8 -11 -15 -25 -16 -34 -3 -50 4 -50 22 0 10 10 13 38 11 24 -2 37
-8 37 -17z m213 2 c2 -9 -9 -13 -37 -13 -32 0 -39 3 -34 16 7 18 64 16 71 -3z
m218 6 c9 -15 -14 -29 -48 -29 -26 0 -37 17 -21 33 11 11 61 8 69 -4z m209 -8
c0 -9 -13 -16 -32 -18 -28 -4 -33 -1 -33 17 0 18 5 21 33 18 20 -2 32 -8 32
-17z m225 -1 c0 -16 -7 -20 -35 -20 -22 0 -35 5 -35 13 0 20 10 27 42 27 21 0
28 -5 28 -20z m218 3 c-4 -21 -45 -30 -62 -13 -14 14 8 30 42 30 17 0 23 -5
20 -17z m225 2 c-4 -15 -76 -12 -81 3 -3 10 7 12 39 10 24 -2 43 -7 42 -13z
m212 0 c0 -5 -15 -11 -32 -13 -25 -3 -33 1 -33 13 0 12 8 16 33 13 17 -2 32
-7 32 -13z m215 0 c0 -10 -10 -15 -30 -15 -20 0 -30 5 -30 15 0 10 10 15 30
15 20 0 30 -5 30 -15z m210 1 c0 -14 -37 -29 -52 -20 -20 13 -7 34 22 34 19 0
30 -5 30 -14z m220 0 c0 -14 -21 -26 -46 -26 -8 0 -14 9 -14 20 0 16 7 20 30
20 19 0 30 -5 30 -14z m208 2 c-5 -15 -58 -24 -58 -10 0 15 12 22 38 22 14 0
22 -5 20 -12z m220 0 c-7 -20 -58 -23 -58 -4 0 11 10 16 31 16 20 0 29 -4 27
-12z m210 -10 c-3 -7 -15 -13 -28 -13 -13 0 -25 6 -27 13 -3 8 6 12 27 12 21
0 30 -4 28 -12z m222 -3 c12 -14 9 -16 -23 -13 -22 1 -37 7 -37 15 0 18 45 16
60 -2z m215 5 c16 -7 13 -9 -17 -9 -21 -1 -38 4 -38 9 0 12 27 12 55 0z
m-6545 -204 c0 -13 -29 -26 -61 -26 -9 0 -19 9 -22 20 -5 18 0 20 39 20 31 0
44 -4 44 -14z m240 -6 c0 -17 -7 -20 -45 -20 -38 0 -45 3 -45 20 0 17 7 20 45
20 38 0 45 -3 45 -20z m226 -2 c2 -15 -5 -18 -37 -18 -33 0 -39 3 -39 21 0 17
5 20 37 17 25 -2 37 -8 39 -20z m224 8 c0 -16 -21 -26 -55 -26 -26 0 -40 14
-30 30 10 16 85 13 85 -4z m205 -11 c0 -13 -8 -21 -24 -23 -28 -4 -46 11 -37
33 9 25 61 16 61 -10z m233 3 c-2 -19 -9 -23 -38 -22 -28 0 -36 5 -38 22 -3
20 1 22 38 22 37 0 41 -2 38 -22z m222 2 c0 -25 -21 -34 -55 -26 -16 4 -25 13
-25 26 0 17 7 20 40 20 34 0 40 -3 40 -20z m215 0 c0 -24 -79 -21 -83 3 -3 16
2 18 40 15 30 -2 43 -7 43 -18z m228 6 c8 -20 -2 -26 -45 -26 -31 0 -38 3 -38
20 0 17 7 20 39 20 24 0 41 -5 44 -14z m207 -6 c-13 -23 -65 -28 -73 -6 -8 20
2 26 45 26 36 0 38 -2 28 -20z m230 0 c0 -17 -7 -20 -40 -20 -33 0 -40 3 -40
20 0 17 7 20 40 20 33 0 40 -3 40 -20z m208 3 c-2 -12 -14 -19 -36 -21 -27 -3
-32 0 -32 17 0 17 6 21 36 21 28 0 35 -3 32 -17z m219 1 c2 -6 -4 -14 -14 -16
-25 -7 -66 9 -58 22 9 14 67 9 72 -6z m221 -6 c3 -15 -4 -18 -37 -18 -35 0
-41 3 -41 21 0 17 5 20 37 17 27 -2 39 -8 41 -20z m212 8 c0 -14 -55 -30 -71
-21 -4 3 -6 12 -2 20 7 20 73 21 73 1z m210 -1 c0 -10 -11 -15 -35 -15 -24 0
-35 5 -35 15 0 10 11 15 35 15 24 0 35 -5 35 -15z m215 -5 c0 -16 -36 -25 -61
-16 -8 3 -11 12 -8 21 9 21 69 17 69 -5z m1312 -14 c-4 -10 -18 -16 -37 -16
-23 0 -30 4 -30 19 0 14 8 21 28 23 33 4 47 -5 39 -26z m218 14 c0 -16 -62
-33 -71 -18 -3 5 -3 16 0 24 8 20 71 15 71 -6z m208 14 c12 -13 -14 -44 -37
-44 -18 0 -23 5 -21 23 1 12 3 23 4 25 2 5 48 2 54 -4z m217 -14 c0 -14 -7
-20 -24 -20 -15 0 -26 7 -29 20 -4 17 0 20 24 20 22 0 29 -5 29 -20z m205 -5
c0 -30 -39 -27 -43 3 -3 20 0 23 20 20 15 -2 23 -10 23 -23z m218 0 c-6 -17
-39 -20 -48 -5 -6 10 35 31 47 24 4 -3 5 -11 1 -19z m217 -1 c0 -9 -11 -14
-30 -14 -27 0 -40 17 -25 32 10 10 55 -5 55 -18z m208 18 c20 -13 3 -42 -24
-42 -17 0 -24 6 -24 18 0 31 21 41 48 24z m-2580 -25 c3 -16 -2 -18 -35 -15
-27 2 -39 8 -41 21 -3 16 2 18 35 15 27 -2 39 -8 41 -21z m212 3 c0 -16 -7
-20 -35 -20 -28 0 -35 4 -35 20 0 16 7 20 35 20 28 0 35 -4 35 -20z m220 0 c0
-16 -7 -20 -35 -20 -28 0 -35 4 -35 20 0 16 7 20 35 20 28 0 35 -4 35 -20z
m225 0 c0 -19 -55 -26 -66 -9 -12 21 0 30 34 27 20 -2 32 -8 32 -18z m215 0
c0 -15 -7 -20 -29 -20 -29 0 -57 21 -44 33 3 4 21 7 40 7 26 0 33 -4 33 -20z
m1950 10 c0 -5 -11 -10 -25 -10 -14 0 -25 -4 -25 -10 0 -5 -4 -10 -10 -10 -5
0 -10 9 -10 20 0 16 7 20 35 20 19 0 35 -4 35 -10z m-1099 -201 c26 -14 15
-29 -22 -29 -31 0 -36 9 -17 28 15 15 15 15 39 1z m-4991 -14 c0 -16 -64 -22
-74 -6 -9 14 5 21 41 21 23 0 33 -5 33 -15z m218 -2 c2 -9 -9 -13 -37 -13 -30
0 -41 4 -41 16 0 11 9 14 37 12 20 -2 38 -9 41 -15z m212 8 c3 -1 -2 -6 -10
-11 -18 -12 -60 -13 -60 -2 0 21 15 23 70 13z m228 -3 c-5 -15 -88 -24 -88
-10 0 16 13 22 53 22 26 0 37 -4 35 -12z m217 -3 c0 -12 -50 -19 -71 -11 -9 3
-12 11 -9 16 8 14 80 9 80 -5z m215 1 c0 -17 -51 -28 -67 -14 -20 16 -5 28 33
28 22 0 34 -5 34 -14z m230 -2 c0 -11 -8 -14 -32 -12 -46 4 -49 28 -4 28 26 0
36 -4 36 -16z m220 8 c0 -15 -24 -32 -45 -32 -29 0 -37 10 -24 27 12 14 69 18
69 5z m218 -4 c-3 -7 -21 -14 -41 -16 -28 -2 -37 1 -37 12 0 12 11 16 41 16
28 0 39 -4 37 -12z m212 -3 c0 -10 -11 -15 -35 -15 -24 0 -35 5 -35 15 0 10
11 15 35 15 24 0 35 -5 35 -15z m215 0 c0 -5 -17 -11 -37 -13 -30 -3 -38 0
-38 13 0 13 8 16 38 13 20 -2 37 -7 37 -13z m218 0 c-2 -12 -43 -23 -60 -17
-7 2 -13 11 -13 19 0 10 10 13 38 11 20 -2 36 -7 35 -13z m212 0 c0 -12 -40
-19 -61 -11 -9 3 -12 11 -9 16 8 14 70 9 70 -5z m215 0 c0 -10 -11 -15 -35
-15 -24 0 -35 5 -35 15 0 10 11 15 35 15 24 0 35 -5 35 -15z m220 0 c0 -11
-11 -15 -40 -15 -38 0 -49 8 -33 23 3 4 21 7 40 7 23 0 33 -5 33 -15z m215 4
c9 -14 7 -15 -37 -23 -34 -6 -38 -5 -38 14 0 16 6 20 34 20 19 0 38 -5 41 -11z
m219 -4 c4 -12 -3 -15 -34 -15 -29 0 -40 4 -40 15 0 10 10 15 34 15 21 0 36
-6 40 -15z m216 0 c0 -10 -11 -15 -35 -15 -24 0 -35 5 -35 15 0 10 11 15 35
15 24 0 35 -5 35 -15z m439 2 c15 -19 4 -27 -35 -27 -34 0 -50 12 -39 30 9 15
61 12 74 -3z m211 -1 c0 -14 -21 -26 -46 -26 -8 0 -14 9 -14 20 0 16 7 20 30
20 19 0 30 -5 30 -14z m220 -6 c0 -17 -4 -19 -27 -14 -35 8 -37 10 -28 23 3 6
17 11 31 11 17 0 24 -5 24 -20z m215 0 c0 -16 -37 -25 -62 -16 -11 5 -13 10
-4 20 15 18 66 15 66 -4z m419 14 c25 -10 19 -22 -15 -29 -38 -9 -50 2 -25 21
23 16 20 16 40 8z m217 -9 c0 -6 -10 -12 -23 -13 -19 -4 -20 -2 -9 12 15 17
33 18 32 1z m-5891 -5 c0 -13 -60 -13 -80 0 -11 7 -2 10 33 10 26 0 47 -4 47
-10z m240 0 c0 -5 -20 -10 -45 -10 -25 0 -45 5 -45 10 0 6 20 10 45 10 25 0
45 -4 45 -10z m4158 -2 c-3 -7 -21 -14 -41 -16 -28 -2 -37 1 -37 12 0 12 11
16 41 16 28 0 39 -4 37 -12z m1717 -3 c0 -12 -40 -19 -61 -11 -9 3 -12 11 -9
16 8 14 70 9 70 -5z m218 0 c-2 -11 -59 -26 -67 -18 -3 3 -2 12 1 20 6 16 69
15 66 -2z m227 -5 c0 -5 -13 -10 -30 -10 -16 0 -30 5 -30 10 0 6 14 10 30 10
17 0 30 -4 30 -10z m-6586 -186 c29 -11 16 -24 -24 -24 -38 0 -54 13 -27 23
18 8 33 8 51 1z m271 -5 c10 -15 6 -17 -50 -21 -41 -2 -50 0 -53 15 -3 14 4
17 47 17 27 0 53 -5 56 -11z m215 -7 c0 -15 -7 -19 -35 -17 -20 1 -38 5 -41 8
-13 13 9 27 42 27 26 0 34 -4 34 -18z m225 -2 c0 -24 -79 -21 -83 3 -3 16 2
18 40 15 30 -2 43 -7 43 -18z m215 10 c0 -9 -59 -45 -65 -38 -1 2 -6 13 -9 26
-7 20 -4 22 33 22 23 0 41 -4 41 -10z m230 -5 c0 -11 -11 -15 -39 -15 -38 0
-57 10 -44 24 3 3 24 6 45 6 27 0 38 -4 38 -15z m218 -2 c2 -9 -9 -13 -37 -13
-39 0 -50 8 -34 24 11 11 66 2 71 -11z m217 -3 c0 -18 -62 -27 -77 -12 -18 18
3 33 40 30 25 -2 37 -8 37 -18z m220 0 c0 -18 -52 -27 -67 -12 -17 17 2 33 35
30 20 -2 32 -8 32 -18z m213 -1 c2 -9 -5 -19 -14 -23 -26 -10 -54 3 -54 25 0
17 6 20 32 17 21 -2 34 -9 36 -19z m221 5 c10 -9 -14 -24 -40 -24 -23 0 -29 4
-29 21 0 18 4 20 33 14 17 -4 34 -9 36 -11z m221 1 c0 -16 -43 -31 -59 -20
-25 15 -11 35 24 35 24 0 35 -5 35 -15z m213 8 c13 -12 -15 -33 -44 -33 -27 0
-39 17 -22 33 8 9 58 9 66 0z m222 -13 c0 -10 -12 -16 -37 -18 -33 -3 -38 0
-38 18 0 18 5 21 38 18 25 -2 37 -8 37 -18z m204 11 c21 -13 4 -31 -30 -31
-27 0 -39 17 -22 33 9 10 35 8 52 -2z m221 -1 c0 -15 -39 -32 -60 -25 -21 7
-25 17 -13 28 10 11 73 8 73 -3z m223 -7 c16 -10 -6 -23 -38 -23 -35 0 -51 12
-40 31 6 9 57 4 78 -8z m865 0 c-3 -16 -51 -36 -62 -25 -3 3 -6 14 -6 24 0 14
8 18 36 18 28 0 35 -4 32 -17z m-648 -8 c0 -11 -11 -15 -40 -15 -29 0 -40 4
-40 15 0 11 11 15 40 15 29 0 40 -4 40 -15z m210 0 c0 -16 -43 -31 -59 -20
-25 15 -11 35 24 35 24 0 35 -5 35 -15z m220 0 c0 -11 -11 -15 -40 -15 -38 0
-49 8 -33 23 3 4 21 7 40 7 23 0 33 -5 33 -15z m396 -1 c-5 -14 -4 -15 9 -4
17 14 50 6 40 -10 -3 -5 -22 -10 -41 -10 -27 0 -34 4 -34 20 0 12 7 20 16 20
11 0 14 -5 10 -16z m252 -1 c-2 -11 -14 -19 -31 -21 -22 -3 -27 1 -27 17 0 17
6 21 31 21 24 0 30 -4 27 -17z m212 -4 c0 -16 -5 -20 -27 -17 -17 2 -29 10
-31 21 -3 13 3 17 27 17 25 0 31 -4 31 -21z m220 1 c0 -16 -7 -20 -30 -20 -23
0 -30 4 -30 20 0 16 7 20 30 20 23 0 30 -4 30 -20z m210 10 c13 -9 13 -11 0
-20 -22 -14 -50 -12 -50 3 0 27 23 35 50 17z m439 -16 c-6 -8 -22 -14 -35 -14
-34 0 -31 28 4 32 36 5 46 -1 31 -18z m-221 4 c-5 -15 -58 -24 -58 -10 0 15
12 22 38 22 14 0 22 -5 20 -12z m430 0 c-7 -20 -58 -23 -58 -4 0 11 10 16 31
16 20 0 29 -4 27 -12z m232 3 c0 -10 -58 -23 -71 -15 -5 3 -7 10 -4 15 8 11
75 12 75 0z m220 -6 c0 -8 -6 -15 -14 -15 -8 0 -21 -3 -30 -6 -12 -4 -16 0
-16 15 0 17 6 21 30 21 20 0 30 -5 30 -15z m-4572 -181 c13 -4 22 -14 22 -25
0 -26 -55 -26 -69 0 -16 29 0 37 47 25z m240 -15 c4 -20 -16 -29 -51 -22 -28
6 -37 27 -14 37 23 10 62 1 65 -15z m212 1 c0 -17 -7 -20 -40 -20 -27 0 -40 4
-40 13 0 21 11 27 47 27 26 0 33 -4 33 -20z m210 0 c0 -16 -7 -20 -35 -20 -28
0 -35 4 -35 20 0 16 7 20 35 20 28 0 35 -4 35 -20z m230 -5 c0 -27 -2 -28 -49
-19 -21 5 -31 12 -31 25 0 15 8 19 40 19 36 0 40 -2 40 -25z m205 0 c0 -16 -7
-20 -30 -20 -24 0 -31 5 -33 23 -3 21 0 23 30 20 25 -2 33 -8 33 -23z m215 4
c0 -17 -5 -20 -32 -17 -22 2 -34 9 -36 21 -3 14 4 17 32 17 30 0 36 -4 36 -21z
m220 2 c0 -23 -55 -40 -72 -23 -20 20 0 42 37 42 28 0 35 -4 35 -19z m218 -9
c3 -20 -1 -22 -37 -22 -33 0 -41 4 -41 18 0 26 9 32 44 29 23 -2 32 -8 34 -25z
m212 8 c0 -13 -10 -24 -26 -30 -32 -13 -44 -6 -44 26 0 21 5 24 35 24 28 0 35
-4 35 -20z m218 -6 c4 -28 -44 -43 -66 -20 -13 13 -13 18 -2 31 19 23 64 16
68 -11z m640 17 c23 -14 10 -44 -20 -47 -23 -2 -28 1 -28 20 0 35 19 46 48 27z
m-4568 -16 c0 -11 -12 -15 -45 -15 -33 0 -45 4 -45 15 0 11 12 15 45 15 33 0
45 -4 45 -15z m230 8 c-1 -21 -18 -30 -47 -26 -49 8 -43 33 7 33 22 0 40 -3
40 -7z m215 -13 c0 -18 -62 -27 -77 -12 -18 18 3 33 40 30 25 -2 37 -8 37 -18z
m205 -1 c0 -16 -5 -20 -27 -17 -17 2 -29 10 -31 21 -3 13 3 17 27 17 25 0 31
-4 31 -21z m238 4 c-3 -13 -13 -18 -37 -16 -18 0 -35 3 -38 6 -12 13 11 27 43
27 28 0 35 -3 32 -17z m217 6 c10 -15 1 -20 -39 -24 -36 -4 -52 7 -41 25 8 13
72 13 80 -1z m213 -6 c-4 -22 -44 -29 -63 -13 -22 18 -9 30 31 30 28 0 35 -4
32 -17z m230 0 c-4 -20 -54 -31 -70 -15 -17 17 1 32 38 32 28 0 35 -4 32 -17z
m2602 -3 c0 -16 -7 -20 -35 -20 -28 0 -35 4 -35 20 0 16 7 20 35 20 28 0 35
-4 35 -20z m220 0 c0 -16 -7 -20 -35 -20 -28 0 -35 4 -35 20 0 16 7 20 35 20
28 0 35 -4 35 -20z m430 0 c0 -16 -7 -20 -35 -20 -28 0 -35 4 -35 20 0 16 7
20 35 20 28 0 35 -4 35 -20z m-5040 0 c0 -5 -18 -10 -39 -10 -22 0 -43 5 -46
10 -4 6 12 10 39 10 25 0 46 -4 46 -10z m5250 -4 c0 -8 -7 -17 -16 -20 -25
-10 -54 3 -47 20 7 18 63 19 63 0z m218 -3 c-2 -11 -14 -19 -31 -21 -22 -3
-27 1 -27 17 0 17 6 21 31 21 24 0 30 -4 27 -17z m212 -3 c0 -16 -7 -20 -30
-20 -18 0 -30 5 -30 13 0 20 10 27 37 27 16 0 23 -6 23 -20z m204 14 c26 -10
18 -24 -14 -24 -29 0 -38 9 -23 23 8 9 17 9 37 1z m226 -4 c21 -13 -1 -33 -31
-28 -32 4 -39 38 -7 38 13 0 30 -5 38 -10z m225 -10 c3 -6 -5 -11 -19 -11 -14
-1 -31 -2 -38 -3 -6 -1 -13 5 -15 12 -6 15 63 17 72 2z m225 0 c0 -5 -13 -10
-30 -10 -16 0 -30 5 -30 10 0 6 14 10 30 10 17 0 30 -4 30 -10z m-3917 -189
c-4 -4 -20 -12 -35 -19 -25 -10 -28 -9 -28 8 0 13 8 20 28 22 31 4 48 -1 35
-11z m1525 -8 c3 -20 -1 -23 -32 -23 -32 0 -36 3 -36 26 0 23 3 25 33 22 24
-2 33 -8 35 -25z m-3928 2 c0 -11 -12 -15 -45 -15 -42 0 -54 7 -38 23 3 4 24
7 45 7 27 0 38 -4 38 -15z m215 -5 c0 -23 -59 -20 -63 3 -3 15 2 18 30 15 21
-2 33 -8 33 -18z m435 0 c0 -16 -7 -20 -30 -20 -23 0 -30 4 -30 20 0 16 7 20
30 20 23 0 30 -4 30 -20z m240 5 c0 -11 -11 -15 -40 -15 -29 0 -40 4 -40 15 0
11 11 15 40 15 29 0 40 -4 40 -15z m220 0 c0 -11 -11 -15 -39 -15 -38 0 -57
10 -44 24 3 3 24 6 45 6 27 0 38 -4 38 -15z m208 -7 c3 -14 -4 -18 -31 -18
-33 0 -54 19 -39 34 13 14 67 1 70 -16z m232 1 c0 -9 -42 -29 -61 -29 -5 0 -9
10 -9 23 0 20 4 23 35 19 19 -2 35 -8 35 -13z m215 -4 c0 -14 -8 -21 -25 -23
-33 -3 -55 12 -47 33 10 25 72 17 72 -10z m223 3 c3 -15 -4 -18 -37 -18 -35 0
-41 3 -41 21 0 17 5 20 37 17 27 -2 39 -8 41 -20z m212 3 c0 -10 -8 -21 -17
-23 -30 -7 -53 3 -53 23 0 15 7 19 35 19 28 0 35 -4 35 -19z m1515 4 c0 -15
-54 -13 -67 3 -10 11 -5 13 28 10 21 -2 39 -7 39 -13z m439 -1 c7 -18 -53 -48
-68 -34 -14 14 1 38 26 43 13 2 26 5 29 6 4 0 10 -6 13 -15z m226 -9 c0 -15
-70 -27 -84 -14 -5 4 -6 14 -3 21 6 18 87 11 87 -7z m205 16 c9 -15 -24 -41
-48 -37 -30 4 -28 28 3 37 36 10 38 10 45 0z m-4837 -13 c-3 -7 -20 -13 -38
-13 -18 0 -35 6 -37 13 -3 8 8 12 37 12 29 0 40 -4 38 -12z m700 0 c-3 -7 -20
-13 -38 -13 -18 0 -35 6 -37 13 -3 8 8 12 37 12 29 0 40 -4 38 -12z m4352 -3
c0 -10 -11 -15 -35 -15 -24 0 -35 5 -35 15 0 10 11 15 35 15 24 0 35 -5 35
-15z m210 1 c0 -18 -32 -26 -54 -14 -23 13 -10 28 25 28 18 0 29 -5 29 -14z
m220 -3 c0 -7 -3 -13 -7 -13 -5 0 -18 -3 -30 -6 -18 -5 -23 -2 -23 14 0 16 6
20 30 20 18 -1 30 -6 30 -15z m210 3 c0 -17 -18 -25 -42 -18 -30 8 -21 32 12
32 19 0 30 -5 30 -14z m211 -1 c0 -5 -12 -11 -26 -13 -18 -2 -25 1 -25 13 0
12 7 15 25 13 14 -2 26 -7 26 -13z m224 0 c0 -5 -15 -11 -32 -13 -25 -3 -33 1
-33 13 0 12 8 16 33 13 17 -2 32 -7 32 -13z m223 -3 c3 -10 -6 -12 -34 -10
-20 2 -39 9 -42 16 -3 10 6 12 34 10 20 -2 39 -9 42 -16z m217 8 c-3 -5 -17
-10 -31 -10 -13 0 -24 5 -24 10 0 6 14 10 31 10 17 0 28 -4 24 -10z m-6346
-196 c46 -10 38 -24 -14 -24 -42 0 -54 7 -38 23 8 9 13 9 52 1z m258 -10 c2
-7 -11 -11 -37 -11 -28 0 -40 4 -40 14 0 17 71 14 77 -3z m218 -4 c0 -10 -12
-16 -37 -18 -37 -3 -51 12 -31 32 13 13 68 2 68 -14z m205 10 c13 -9 13 -11 0
-20 -27 -17 -60 -12 -60 10 0 22 33 27 60 10z m243 -10 c-4 -15 -14 -20 -39
-20 -27 0 -34 4 -34 20 0 17 7 20 39 20 34 0 38 -3 34 -20z m217 -1 c0 -15
-71 -23 -80 -8 -5 7 -7 16 -5 19 5 9 85 -1 85 -11z m208 4 c-4 -22 -44 -29
-64 -13 -24 21 -16 30 27 30 33 0 40 -3 37 -17z m213 7 c30 -16 23 -30 -15
-30 -40 0 -54 14 -29 29 22 13 21 13 44 1z m427 -2 c-7 -20 -48 -23 -48 -4 0
11 9 16 26 16 16 0 24 -5 22 -12z m-2198 -8 c0 -5 -20 -10 -45 -10 -25 0 -45
5 -45 10 0 6 20 10 45 10 25 0 45 -4 45 -10z m2010 -10 c0 -21 -30 -27 -64
-14 -33 13 -17 34 24 34 33 0 40 -3 40 -20z m2387 4 c7 -22 -41 -24 -62 -3
l-20 20 39 -3 c22 -2 41 -8 43 -14z m643 6 c0 -12 -33 -30 -54 -30 -19 0 -21
26 -3 33 21 9 57 7 57 -3z m208 -12 c3 -13 -3 -18 -22 -18 -27 0 -41 14 -31
31 10 16 49 6 53 -13z m222 8 c0 -17 -27 -28 -51 -21 -34 11 -22 35 16 35 23
0 35 -5 35 -14z m200 -5 c0 -14 -6 -17 -25 -13 -31 5 -32 19 -2 25 12 2 23 5
25 6 1 0 2 -7 2 -18z m228 7 c-7 -20 -58 -23 -58 -4 0 11 10 16 31 16 20 0 29
-4 27 -12z m210 0 c-7 -20 -58 -23 -58 -4 0 11 10 16 31 16 20 0 29 -4 27 -12z
m226 3 c7 -11 -17 -21 -50 -21 -23 0 -31 10 -17 23 10 10 61 8 67 -2z m221 -1
c-28 -12 -55 -12 -55 0 0 6 17 10 38 9 30 0 33 -2 17 -9z m-1935 -9 c0 -11
-55 -22 -75 -15 -30 12 -14 24 30 24 25 0 45 -4 45 -9z m204 -1 c-13 -13 -54
-21 -66 -14 -17 11 4 24 40 24 24 0 33 -3 26 -10z m-4364 -195 c0 -10 -11 -15
-35 -15 -54 0 -43 27 13 29 13 1 22 -5 22 -14z m228 -2 c2 -9 -10 -13 -42 -13
-43 0 -55 7 -39 24 12 11 76 2 81 -11z m205 2 c-1 -5 -16 -13 -32 -16 -26 -5
-31 -3 -31 13 0 16 6 19 33 16 17 -2 31 -7 30 -13z m-903 -16 c0 -12 -67 -12
-74 0 -4 5 -1 11 6 13 18 6 68 -3 68 -13z m253 15 c13 -14 -3 -20 -42 -16 -23
2 -41 8 -41 13 0 10 73 12 83 3z m887 -9 c0 -10 -11 -15 -35 -15 -24 0 -35 5
-35 15 0 10 11 15 35 15 24 0 35 -5 35 -15z m218 -2 c2 -7 -3 -16 -12 -19 -24
-9 -66 4 -66 22 0 11 9 14 37 12 20 -2 38 -9 41 -15z m210 0 c-2 -12 -14 -19
-36 -21 -27 -3 -32 0 -32 17 0 17 6 21 36 21 28 0 35 -3 32 -17z m232 3 c0
-15 -21 -26 -51 -26 -12 0 -19 7 -19 20 0 16 7 20 35 20 23 0 35 -5 35 -14z
m2816 4 c8 0 14 -7 14 -15 0 -22 -24 -18 -46 7 -18 20 -18 21 -1 15 10 -4 25
-7 33 -7z m436 -22 c-13 -13 -64 -6 -69 9 -5 15 36 22 61 10 12 -6 15 -12 8
-19z m638 11 c0 -10 -49 -24 -57 -16 -3 4 -3 13 0 20 6 16 57 12 57 -4z m214
-6 c-24 -17 -54 -17 -54 1 0 15 35 25 59 17 11 -3 10 -7 -5 -18z m-1066 5 c-3
-7 -19 -15 -36 -19 -27 -5 -32 -3 -32 12 0 15 7 19 36 19 24 0 34 -4 32 -12z
m422 -3 c0 -10 -11 -15 -35 -15 -24 0 -35 5 -35 15 0 10 11 15 35 15 24 0 35
-5 35 -15z m220 0 c0 -10 -10 -15 -29 -15 -32 0 -50 15 -29 23 27 11 58 7 58
-8z m645 0 c0 -5 -15 -11 -32 -13 -25 -3 -33 1 -33 13 0 12 8 16 33 13 17 -2
32 -7 32 -13z m220 5 c4 -6 -7 -10 -24 -10 -17 0 -34 0 -38 -1 -4 0 -9 4 -11
10 -5 14 65 15 73 1z m225 1 c0 -10 -24 -21 -46 -21 -8 0 -14 7 -14 15 0 10
10 15 30 15 17 0 30 -4 30 -9z m-6312 -208 c2 -9 -11 -13 -47 -13 -48 0 -61 7
-44 24 12 11 86 2 91 -11z m212 3 c0 -15 -21 -26 -51 -26 -12 0 -19 7 -19 20
0 16 7 20 35 20 23 0 35 -5 35 -14z m202 4 c17 0 18 -3 8 -15 -14 -17 -56 -20
-65 -5 -9 15 5 32 22 26 8 -3 24 -6 35 -6z m233 -1 c9 -14 5 -17 -30 -21 -21
-2 -30 2 -33 15 -3 13 3 17 27 17 16 0 33 -5 36 -11z m230 2 c7 -12 -26 -31
-54 -31 -20 0 -28 19 -14 33 10 10 61 8 68 -2z m430 -11 c0 -23 -59 -20 -63 3
-3 15 2 18 30 15 21 -2 33 -8 33 -18z m215 5 c0 -10 -10 -15 -30 -15 -20 0
-30 5 -30 15 0 10 10 15 30 15 20 0 30 -5 30 -15z m-1770 -5 c0 -5 -21 -10
-46 -10 -27 0 -43 4 -39 10 3 6 24 10 46 10 21 0 39 -4 39 -10z m1350 0 c0 -5
-4 -10 -9 -10 -5 0 -23 -3 -40 -6 -24 -5 -31 -3 -31 10 0 12 10 16 40 16 22 0
40 -4 40 -10z m3483 -5 c2 -12 -49 -19 -71 -9 -13 6 -11 9 13 14 37 10 55 8
58 -5z m212 0 c0 -5 -17 -11 -37 -13 -30 -3 -38 0 -38 13 0 13 8 16 38 13 20
-2 37 -7 37 -13z m205 0 c0 -16 -55 -22 -64 -6 -8 13 5 21 36 21 18 0 28 -5
28 -15z m220 0 c0 -10 -11 -15 -35 -15 -24 0 -35 5 -35 15 0 10 11 15 35 15
24 0 35 -5 35 -15z m210 0 c0 -10 -10 -15 -30 -15 -29 0 -38 9 -23 23 13 13
53 7 53 -8z m220 0 c0 -10 -10 -15 -30 -15 -20 0 -30 5 -30 15 0 10 10 15 30
15 20 0 30 -5 30 -15z m225 0 c0 -5 -17 -11 -37 -13 -36 -3 -47 5 -31 22 11
10 68 3 68 -9z m220 -1 c0 -5 -17 -10 -37 -12 -29 -2 -38 1 -38 12 0 11 9 14
38 12 20 -2 37 -8 37 -12z m215 1 c0 -10 -10 -15 -30 -15 -47 0 -35 27 13 29
9 1 17 -6 17 -14z m-6116 -191 c29 -11 16 -24 -24 -24 -38 0 -49 8 -33 23 8 9
36 9 57 1z m242 -8 c18 -14 18 -15 1 -22 -22 -8 -71 12 -62 26 9 14 38 12 61
-4z m211 1 c7 -12 -17 -27 -44 -27 -16 0 -23 6 -23 20 0 17 6 20 31 18 17 -1
33 -6 36 -11z m-897 -7 c0 -5 -18 -10 -41 -10 -24 0 -38 4 -34 10 3 6 22 10
41 10 19 0 34 -4 34 -10z m244 1 c7 -11 -39 -20 -65 -14 -10 3 -19 9 -19 14 0
12 77 12 84 0z m886 0 c0 -9 -33 -21 -57 -21 -7 0 -13 7 -13 15 0 10 11 15 35
15 19 0 35 -4 35 -9z m210 -2 c0 -10 -49 -21 -60 -14 -22 13 -8 25 25 23 19
-1 35 -5 35 -9z m214 -4 c-4 -9 -19 -15 -35 -15 -19 0 -29 5 -29 15 0 10 11
15 35 15 26 0 33 -3 29 -15z m3485 1 c9 -11 6 -15 -19 -18 -34 -5 -56 5 -46
21 10 15 51 14 65 -3z m211 -1 c0 -10 -11 -15 -35 -15 -24 0 -35 5 -35 15 0
10 11 15 35 15 24 0 35 -5 35 -15z m211 5 c5 0 9 -4 9 -10 0 -5 -16 -10 -35
-10 -19 0 -35 4 -35 9 0 12 21 21 38 15 8 -2 18 -4 23 -4z m212 -5 c-3 -13
-53 -20 -53 -7 0 15 13 23 35 20 11 -2 19 -7 18 -13z m231 6 c7 -11 -17 -21
-51 -21 -21 0 -24 2 -13 15 14 16 56 20 64 6z m211 -2 c9 -14 4 -18 -33 -25
-28 -6 -32 -4 -32 15 0 17 6 21 29 21 17 0 33 -5 36 -11z m230 2 c7 -12 -59
-26 -75 -16 -5 3 -8 11 -5 16 8 12 72 12 80 0z m213 -12 c-18 -12 -58 -11 -58
0 0 11 38 19 58 13 11 -4 11 -6 0 -13z m-6308 -206 c11 -10 -28 -23 -54 -18
-35 6 -40 10 -32 24 6 9 74 4 86 -6z m-250 -6 c0 -9 -12 -11 -40 -9 -22 2 -40
8 -40 13 0 5 18 9 40 9 26 0 40 -5 40 -13z m465 -2 c0 -12 -50 -19 -71 -11 -9
3 -12 11 -9 16 8 14 80 9 80 -5z m225 -1 c0 -11 -9 -14 -37 -12 -52 4 -56 28
-4 28 30 0 41 -4 41 -16z m210 1 c0 -10 -11 -15 -35 -15 -24 0 -35 5 -35 15 0
10 11 15 35 15 24 0 35 -5 35 -15z m225 6 c-16 -15 -68 -17 -72 -3 -3 8 8 12
38 12 26 0 39 -4 34 -9z m215 -7 c0 -11 -8 -14 -32 -12 -46 4 -49 28 -4 28 26
0 36 -4 36 -16z m170 12 c0 -11 -19 -15 -25 -6 -3 5 1 10 9 10 9 0 16 -2 16
-4z m3540 -5 c0 -19 -42 -23 -58 -7 -15 15 -13 16 21 16 20 0 37 -4 37 -9z
m200 -6 c0 -10 -11 -15 -35 -15 -24 0 -35 5 -35 15 0 10 11 15 35 15 24 0 35
-5 35 -15z m220 -1 c0 -11 -8 -14 -32 -12 -46 4 -49 28 -4 28 26 0 36 -4 36
-16z m200 1 c0 -15 -43 -12 -48 3 -3 10 4 13 22 10 15 -2 26 -7 26 -13z m228
3 c-7 -20 -58 -23 -58 -4 0 11 10 16 31 16 20 0 29 -4 27 -12z m220 -5 c2 -9
-7 -13 -27 -13 -30 0 -46 11 -34 24 11 11 56 2 61 -11z m222 8 c0 -5 -7 -12
-16 -15 -28 -11 -54 -6 -54 9 0 10 11 15 35 15 19 0 35 -4 35 -9z m225 -1 c3
-5 0 -10 -7 -10 -7 0 -23 -3 -35 -6 -17 -5 -23 -2 -23 10 0 18 54 23 65 6z
m-6105 -216 c0 -16 -46 -19 -70 -4 -13 8 -13 10 0 14 49 16 70 13 70 -10z
m225 6 c0 -10 -10 -15 -34 -15 -37 0 -54 20 -24 28 31 9 58 3 58 -13z m421 10
c8 0 14 -7 14 -15 0 -17 -55 -21 -65 -5 -9 15 5 32 22 26 8 -3 21 -6 29 -6z
m-1106 -10 c0 -5 -21 -10 -46 -10 -27 0 -43 4 -39 10 3 6 24 10 46 10 21 0 39
-4 39 -10z m250 1 c0 -12 -44 -19 -75 -13 -43 8 -27 22 25 22 28 0 50 -4 50
-9z m648 -3 c-7 -20 -68 -23 -68 -4 0 12 10 16 36 16 24 0 34 -4 32 -12z m440
0 c-7 -20 -68 -23 -68 -4 0 12 10 16 36 16 24 0 34 -4 32 -12z m3920 -5 c2 -9
-9 -13 -37 -13 -39 0 -50 8 -34 24 11 11 66 2 71 -11z m210 0 c2 -9 -8 -13
-32 -13 -26 0 -36 4 -36 16 0 19 61 16 68 -3z m210 5 c-7 -20 -58 -23 -58 -4
0 11 10 16 31 16 20 0 29 -4 27 -12z m222 -3 c0 -10 -10 -15 -30 -15 -20 0
-30 5 -30 15 0 10 10 15 30 15 20 0 30 -5 30 -15z m218 3 c-7 -20 -68 -23 -68
-4 0 12 10 16 36 16 24 0 34 -4 32 -12z m222 3 c0 -5 -7 -12 -16 -15 -28 -11
-54 -6 -54 9 0 10 11 15 35 15 19 0 35 -4 35 -9z m225 -1 c3 -5 0 -10 -7 -10
-7 0 -23 -3 -35 -6 -17 -5 -23 -2 -23 10 0 18 54 23 65 6z m-5877 -218 c2 -8
-8 -12 -30 -12 -40 0 -52 8 -37 26 12 14 61 4 67 -14z m-683 3 c0 -12 -50 -19
-73 -10 -14 5 -14 7 -2 16 19 12 75 7 75 -6z m243 -3 c3 -10 -7 -12 -39 -10
-24 2 -44 9 -47 16 -3 10 7 12 39 10 24 -2 44 -9 47 -16z m212 3 c0 -10 -11
-15 -35 -15 -24 0 -35 5 -35 15 0 10 11 15 35 15 24 0 35 -5 35 -15z m440 0
c0 -10 -11 -15 -35 -15 -24 0 -35 5 -35 15 0 10 11 15 35 15 24 0 35 -5 35
-15z m225 0 c0 -5 -15 -11 -32 -13 -25 -3 -33 1 -33 13 0 12 8 16 33 13 17 -2
32 -7 32 -13z m220 0 c0 -5 -17 -11 -37 -13 -30 -3 -38 0 -38 13 0 13 8 16 38
13 20 -2 37 -7 37 -13z m4335 -6 c0 -5 -13 -9 -30 -9 -30 0 -41 15 -17 23 17
5 47 -3 47 -14z m225 6 c0 -5 -15 -11 -32 -13 -25 -3 -33 1 -33 13 0 12 8 16
33 13 17 -2 32 -7 32 -13z m213 -2 c2 -9 -8 -13 -32 -13 -34 0 -44 8 -29 24
11 11 56 2 61 -11z m217 2 c0 -5 -15 -11 -32 -13 -25 -3 -33 1 -33 13 0 12 8
16 33 13 17 -2 32 -7 32 -13z m219 9 c28 -11 17 -24 -19 -24 -33 0 -43 8 -28
23 8 9 27 9 47 1z m-1304 -13 c0 -11 -48 -24 -60 -16 -21 13 -8 25 25 25 19 0
35 -4 35 -9z m220 -1 c0 -5 -16 -10 -35 -10 -19 0 -35 5 -35 10 0 6 16 10 35
10 19 0 35 -4 35 -10z m-5224 -201 c9 -16 -15 -29 -53 -29 -25 0 -33 4 -33 18
0 13 10 18 40 19 21 1 42 -2 46 -8z m200 1 c8 0 14 -7 14 -15 0 -18 -65 -21
-76 -4 -8 14 16 31 34 24 8 -3 20 -5 28 -5z m452 -7 c-2 -12 -14 -19 -36 -21
-27 -3 -32 0 -32 17 0 17 6 21 36 21 28 0 35 -3 32 -17z m222 -3 c0 -15 -7
-20 -29 -20 -17 0 -33 5 -36 10 -11 17 5 30 36 30 22 0 29 -5 29 -20z m227 3
c6 -18 -60 -33 -70 -16 -4 7 -5 18 -2 24 9 14 67 7 72 -8z m-1347 -3 c0 -5
-18 -10 -39 -10 -22 0 -43 5 -46 10 -4 6 12 10 39 10 25 0 46 -4 46 -10z m688
-2 c-5 -15 -42 -22 -64 -14 -25 10 -5 26 32 26 24 0 34 -4 32 -12z m4562 -3
c0 -10 -11 -15 -35 -15 -24 0 -35 5 -35 15 0 10 11 15 35 15 24 0 35 -5 35
-15z m220 0 c0 -10 -11 -15 -35 -15 -33 0 -43 8 -28 23 13 14 63 7 63 -8z
m210 0 c0 -10 -11 -15 -35 -15 -33 0 -43 8 -28 23 13 14 63 7 63 -8z m224 0
c-7 -16 -59 -21 -68 -6 -9 14 5 21 40 21 26 0 32 -4 28 -15z m214 3 c-3 -7
-17 -13 -33 -13 -16 0 -30 6 -32 13 -3 8 7 12 32 12 25 0 35 -4 33 -12z m220
0 c-5 -15 -42 -22 -64 -14 -25 10 -5 26 32 26 24 0 34 -4 32 -12z m232 2 c0
-5 -6 -10 -12 -10 -7 0 -23 -3 -35 -6 -17 -5 -23 -2 -23 10 0 12 9 16 35 16
19 0 35 -4 35 -10z m-6570 -200 c0 -5 -11 -11 -25 -11 -14 -1 -30 -2 -37 -3
-6 -1 -13 5 -15 12 -3 8 8 12 36 12 23 0 41 -4 41 -10z m250 -5 c0 -11 -12
-15 -45 -15 -33 0 -45 4 -45 15 0 11 12 15 45 15 33 0 45 -4 45 -15z m214 0
c-7 -16 -69 -21 -78 -6 -9 14 6 21 45 21 30 0 37 -3 33 -15z m216 0 c-13 -16
-55 -20 -64 -6 -9 14 5 21 42 21 29 0 33 -2 22 -15z m220 0 c0 -10 -11 -15
-35 -15 -24 0 -35 5 -35 15 0 10 11 15 35 15 24 0 35 -5 35 -15z m230 0 c0
-11 -11 -15 -40 -15 -29 0 -40 4 -40 15 0 11 11 15 40 15 29 0 40 -4 40 -15z
m210 0 c0 -10 -11 -15 -35 -15 -33 0 -43 8 -28 23 13 14 63 7 63 -8z m3905 -6
c0 -8 -13 -15 -32 -17 -27 -3 -33 0 -33 16 0 16 6 19 33 17 19 -1 32 -8 32
-16z m228 -4 c-4 -15 -66 -12 -71 3 -3 10 6 13 34 10 22 -2 38 -7 37 -13z
m207 0 c0 -10 -10 -15 -30 -15 -20 0 -30 5 -30 15 0 10 10 15 30 15 20 0 30
-5 30 -15z m228 -3 c3 -10 -6 -12 -34 -10 -20 2 -39 9 -42 16 -3 10 6 12 34
10 20 -2 39 -9 42 -16z m210 6 c-7 -20 -68 -23 -68 -4 0 12 10 16 36 16 24 0
34 -4 32 -12z m225 -3 c-4 -15 -66 -12 -71 3 -3 10 6 13 34 10 22 -2 38 -7 37
-13z m227 4 c0 -5 -6 -9 -12 -9 -7 0 -23 -3 -35 -6 -16 -4 -23 -2 -23 8 0 9
12 14 35 15 19 1 35 -3 35 -8z m-6112 -206 c-3 -13 -13 -18 -37 -16 -18 0 -35
3 -38 6 -12 13 11 27 43 27 28 0 35 -3 32 -17z m231 1 c8 -8 -21 -24 -46 -24
-25 0 -38 15 -27 31 6 10 61 6 73 -7z m201 6 c23 -14 -2 -32 -34 -24 -14 3
-26 9 -26 13 0 21 34 28 60 11z m228 -7 c-4 -20 -45 -30 -60 -15 -16 16 1 32
33 32 24 0 30 -4 27 -17z m217 -4 c0 -8 -13 -15 -32 -17 -27 -3 -33 0 -33 16
0 16 6 19 33 17 19 -1 32 -8 32 -16z m-1335 -5 c0 -12 -9 -14 -42 -12 -59 4
-63 28 -4 28 35 0 46 -4 46 -16z m245 7 c-6 -4 -27 -11 -47 -14 -29 -4 -38 -2
-38 9 0 10 13 14 47 14 27 0 43 -4 38 -9z m5003 -3 c-7 -20 -68 -23 -68 -4 0
12 10 16 36 16 24 0 34 -4 32 -12z m222 -3 c0 -10 -11 -15 -35 -15 -24 0 -35
5 -35 15 0 10 11 15 35 15 24 0 35 -5 35 -15z m208 3 c-7 -20 -58 -23 -58 -4
0 11 10 16 31 16 20 0 29 -4 27 -12z m227 -3 c0 -5 -15 -11 -32 -13 -25 -3
-33 1 -33 13 0 12 8 16 33 13 17 -2 32 -7 32 -13z m213 3 c-3 -7 -17 -13 -33
-13 -16 0 -30 6 -32 13 -3 8 7 12 32 12 25 0 35 -4 33 -12z m222 -3 c0 -10
-11 -15 -35 -15 -24 0 -35 5 -35 15 0 10 11 15 35 15 24 0 35 -5 35 -15z m230
0 c0 -10 -11 -15 -35 -15 -24 0 -35 5 -35 15 0 10 11 15 35 15 24 0 35 -5 35
-15z m-6575 -206 c0 -9 -11 -14 -34 -14 -42 0 -53 22 -14 28 38 5 48 3 48 -14z
m1125 -5 c0 -9 -11 -14 -36 -14 -41 0 -43 21 -3 31 29 7 39 3 39 -17z m-872
-1 c6 -19 -72 -17 -89 3 -11 13 -7 15 36 12 27 -2 50 -8 53 -15z m222 2 c0
-11 -11 -15 -39 -15 -25 0 -41 5 -45 15 -4 12 4 15 39 15 33 0 45 -4 45 -15z
m220 0 c0 -11 -11 -15 -40 -15 -31 0 -38 3 -34 15 4 9 19 15 40 15 24 0 34 -5
34 -15z m208 3 c-7 -20 -68 -23 -68 -4 0 12 10 16 36 16 24 0 34 -4 32 -12z
m442 -3 c0 -10 -11 -15 -35 -15 -24 0 -35 5 -35 15 0 10 11 15 35 15 24 0 35
-5 35 -15z m3910 0 c0 -10 -11 -15 -35 -15 -24 0 -35 5 -35 15 0 10 11 15 35
15 24 0 35 -5 35 -15z m218 3 c-7 -20 -68 -23 -68 -4 0 12 10 16 36 16 24 0
34 -4 32 -12z m212 -3 c0 -10 -10 -15 -30 -15 -20 0 -30 5 -30 15 0 10 10 15
30 15 20 0 30 -5 30 -15z m228 -2 c2 -9 -8 -13 -32 -13 -26 0 -36 4 -36 16 0
19 61 16 68 -3z m212 2 c0 -10 -11 -15 -35 -15 -33 0 -43 8 -28 23 13 14 63 7
63 -8z m230 0 c0 -11 -11 -15 -40 -15 -29 0 -40 4 -40 15 0 11 11 15 40 15 29
0 40 -4 40 -15z m220 0 c0 -16 -64 -22 -74 -6 -9 14 5 21 41 21 23 0 33 -5 33
-15z m-6580 -195 c19 -12 11 -19 -29 -22 -36 -3 -55 17 -24 25 29 8 37 7 53
-3z m700 -20 c0 -6 -15 -10 -34 -10 -39 0 -58 27 -23 32 25 5 57 -8 57 -22z
m-440 10 c0 -11 -65 -24 -85 -16 -32 12 -13 26 35 26 28 0 50 -4 50 -10z m215
-5 c0 -12 -50 -19 -71 -11 -9 3 -12 11 -9 16 8 14 80 9 80 -5z m435 0 c0 -10
-11 -15 -35 -15 -24 0 -35 5 -35 15 0 10 11 15 35 15 24 0 35 -5 35 -15z m220
0 c0 -10 -11 -15 -35 -15 -24 0 -35 5 -35 15 0 10 11 15 35 15 24 0 35 -5 35
-15z m220 0 c0 -10 -11 -15 -35 -15 -24 0 -35 5 -35 15 0 10 11 15 35 15 24 0
35 -5 35 -15z m180 -16 c0 -5 -9 -9 -20 -9 -19 0 -27 20 -13 33 7 8 33 -11 33
-24z m3515 21 c8 -13 -20 -24 -41 -16 -20 8 -9 26 16 26 10 0 22 -5 25 -10z
m213 -7 c-4 -22 -57 -30 -69 -12 -12 20 -1 29 37 29 28 0 35 -4 32 -17z m222
13 c0 -22 -17 -36 -41 -36 -22 0 -29 5 -29 20 0 16 7 20 35 20 19 0 35 -2 35
-4z m205 -16 c0 -9 -11 -16 -27 -18 -27 -3 -38 14 -21 32 12 12 48 2 48 -14z
m235 6 c0 -18 -32 -26 -54 -14 -27 15 -18 28 19 28 23 0 35 -5 35 -14z m207
-2 c5 -16 -59 -27 -68 -12 -4 7 -5 16 -2 21 7 12 66 4 70 -9z m228 7 c8 -14
-32 -33 -55 -26 -11 4 -20 13 -20 21 0 16 65 20 75 5z m228 2 c13 -12 -15 -33
-44 -33 -22 0 -29 5 -29 20 0 16 7 20 33 20 19 0 37 -3 40 -7z m-6328 -214 c0
-17 -73 -25 -87 -11 -18 18 0 28 44 26 29 -1 43 -6 43 -15z m215 6 c18 -11 0
-25 -35 -25 -30 0 -52 19 -38 33 6 7 58 1 73 -8z m5879 -1 c10 -9 -14 -24 -40
-24 -30 0 -41 23 -16 33 11 5 47 -1 56 -9z m229 -1 c-4 -19 -30 -28 -55 -19
-23 9 3 36 34 36 18 0 24 -5 21 -17z m-6568 -8 c0 -11 -11 -15 -40 -15 -29 0
-40 4 -40 15 0 11 11 15 40 15 29 0 40 -4 40 -15z m690 0 c0 -11 -11 -15 -40
-15 -29 0 -40 4 -40 15 0 11 11 15 40 15 29 0 40 -4 40 -15z m208 3 c-7 -20
-68 -23 -68 -4 0 12 10 16 36 16 24 0 34 -4 32 -12z m220 0 c-7 -20 -68 -23
-68 -4 0 12 10 16 36 16 24 0 34 -4 32 -12z m222 -3 c0 -10 -11 -15 -35 -15
-24 0 -35 5 -35 15 0 10 11 15 35 15 24 0 35 -5 35 -15z m218 -3 c3 -10 -6
-12 -34 -10 -20 2 -39 9 -42 16 -3 10 6 12 34 10 20 -2 39 -9 42 -16z m3480 1
c2 -9 -8 -13 -32 -13 -26 0 -36 4 -36 16 0 19 61 16 68 -3z m220 5 c-5 -14
-51 -23 -74 -14 -27 10 -4 26 37 26 28 0 39 -4 37 -12z m212 -3 c0 -10 -11
-15 -35 -15 -24 0 -35 5 -35 15 0 10 11 15 35 15 24 0 35 -5 35 -15z m210 0
c0 -16 -55 -22 -64 -6 -8 13 5 21 36 21 18 0 28 -5 28 -15z m228 -3 c3 -10 -6
-12 -34 -10 -20 2 -39 9 -42 16 -3 10 6 12 34 10 20 -2 39 -9 42 -16z m212 3
c0 -10 -10 -15 -34 -15 -21 0 -36 6 -40 15 -4 12 3 15 34 15 29 0 40 -4 40
-15z m-4342 -217 c3 -15 -4 -18 -37 -18 -39 0 -53 14 -34 34 14 14 68 1 71
-16z m3050 -6 c2 -8 -10 -12 -42 -12 -46 0 -55 7 -35 27 13 13 71 2 77 -15z
m-4828 9 c0 -5 -18 -11 -40 -13 -38 -3 -48 1 -33 15 10 10 73 8 73 -2z m240 0
c0 -11 -25 -21 -56 -21 -15 0 -24 6 -24 15 0 11 11 15 40 15 22 0 40 -4 40 -9z
m227 -7 c5 -15 -70 -24 -79 -10 -4 6 -8 15 -8 19 0 13 83 4 87 -9z m221 -1
c-2 -13 -14 -19 -41 -21 -32 -3 -37 0 -37 17 0 18 6 21 41 21 33 0 40 -3 37
-17z m205 10 c12 -11 -14 -33 -39 -33 -17 0 -24 6 -24 20 0 15 7 20 28 20 16
0 32 -3 35 -7z m225 -15 c3 -15 -4 -18 -32 -18 -30 0 -36 4 -36 21 0 17 5 20
32 17 22 -2 34 -9 36 -20z m222 1 c0 -17 -5 -20 -32 -17 -22 2 -34 9 -36 21
-3 14 4 17 32 17 30 0 36 -4 36 -21z m220 6 c0 -11 -11 -15 -40 -15 -29 0 -40
4 -40 15 0 11 11 15 40 15 29 0 40 -4 40 -15z m3476 4 c3 -6 0 -15 -7 -20 -21
-14 -53 -6 -57 14 -3 13 3 17 27 17 16 0 33 -5 37 -11z m212 -11 c3 -15 -4
-18 -32 -18 -30 0 -36 4 -36 21 0 17 5 20 32 17 22 -2 34 -9 36 -20z m220 5
c-4 -23 -68 -32 -68 -9 0 16 15 24 48 25 17 1 23 -4 20 -16z m210 0 c-2 -11
-14 -19 -31 -21 -22 -3 -27 1 -27 17 0 17 6 21 31 21 24 0 30 -4 27 -17z m212
-2 c0 -20 -17 -31 -37 -24 -7 3 -13 13 -13 24 0 14 7 19 25 19 18 0 25 -5 25
-19z m225 4 c0 -5 -15 -11 -32 -13 -25 -3 -33 1 -33 13 0 12 8 16 33 13 17 -2
32 -7 32 -13z m223 -7 c3 -15 -4 -18 -32 -18 -30 0 -36 4 -36 21 0 17 5 20 32
17 22 -2 34 -9 36 -20z m232 -5 c0 -10 -10 -13 -37 -11 -42 3 -48 20 -11 29
30 7 48 1 48 -18z m-5671 -199 c10 -9 -14 -24 -40 -24 -23 0 -29 4 -29 21 0
18 4 20 33 14 17 -4 34 -9 36 -11z m439 -6 c3 -15 -4 -18 -32 -18 -30 0 -36 4
-36 21 0 17 5 20 32 17 22 -2 34 -9 36 -20z m225 8 c8 -20 -1 -26 -39 -26 -30
0 -51 20 -37 34 12 12 71 6 76 -8z m215 -8 c3 -15 -4 -18 -32 -18 -30 0 -36 4
-36 21 0 17 5 20 32 17 22 -2 34 -9 36 -20z m194 5 c26 -23 22 -33 -12 -33
-25 0 -30 4 -30 25 0 29 16 32 42 8z m2842 1 c23 -22 9 -36 -27 -29 -38 8 -52
19 -43 34 10 16 52 13 70 -5z m440 8 c9 -15 -9 -30 -39 -33 -25 -3 -31 0 -33
19 -3 19 1 22 32 22 19 0 37 -4 40 -8z m-5254 -11 c0 -12 -56 -25 -70 -16 -22
13 -8 25 30 25 22 0 40 -4 40 -9z m240 0 c0 -11 -25 -21 -56 -21 -15 0 -24 6
-24 15 0 11 11 15 40 15 22 0 40 -4 40 -9z m228 -3 c-3 -7 -21 -14 -41 -16
-28 -2 -37 1 -37 12 0 12 11 16 41 16 28 0 39 -4 37 -12z m222 -3 c0 -11 -11
-15 -40 -15 -29 0 -40 4 -40 15 0 11 11 15 40 15 29 0 40 -4 40 -15z m435 0
c0 -5 -17 -11 -37 -13 -30 -3 -38 0 -38 13 0 13 8 16 38 13 20 -2 37 -7 37
-13z m3492 -2 c6 -16 -65 -29 -79 -15 -6 6 -7 15 -3 22 9 14 77 9 82 -7z m421
0 c-4 -20 -54 -31 -70 -15 -17 17 1 32 38 32 28 0 35 -4 32 -17z m426 8 c9
-14 -18 -31 -42 -24 -33 8 -28 33 7 33 17 0 32 -4 35 -9z m214 -3 c-5 -15 -58
-24 -58 -10 0 15 12 22 38 22 14 0 22 -5 20 -12z m222 -3 c0 -10 -10 -15 -30
-15 -20 0 -30 5 -30 15 0 10 10 15 30 15 20 0 30 -5 30 -15z m220 0 c0 -11
-11 -15 -40 -15 -31 0 -38 3 -34 15 4 9 19 15 40 15 24 0 34 -5 34 -15z m218
-2 c2 -9 -8 -13 -32 -13 -26 0 -36 4 -36 16 0 19 61 16 68 -3z m227 2 c0 -5
-15 -11 -32 -13 -25 -3 -33 1 -33 13 0 12 8 16 33 13 17 -2 32 -7 32 -13z
m-2177 -203 c16 -21 1 -34 -34 -30 -23 2 -30 9 -32 31 -3 26 -1 27 25 21 15
-3 34 -13 41 -22z m854 4 c4 -6 8 -14 8 -17 0 -7 -36 -19 -57 -19 -14 0 -18
42 -6 53 9 9 46 -2 55 -17z m-4772 10 c0 -25 -16 -36 -54 -36 l-41 1 24 19
c20 17 71 28 71 16z m200 0 c0 -2 3 -11 6 -20 5 -13 -1 -16 -30 -16 -34 0 -47
15 -29 33 7 8 53 10 53 3z m230 -11 c0 -18 -48 -31 -62 -17 -16 16 0 32 33 32
19 0 29 -5 29 -15z m225 -5 c0 -10 -12 -16 -37 -18 -33 -3 -38 0 -38 18 0 18
5 21 38 18 25 -2 37 -8 37 -18z m215 0 c0 -16 -7 -20 -34 -20 -20 0 -36 6 -39
14 -8 20 2 26 40 26 26 0 33 -4 33 -20z m218 -2 c3 -15 -4 -18 -32 -18 -30 0
-36 4 -36 21 0 17 5 20 32 17 22 -2 34 -9 36 -20z m222 1 c0 -17 -5 -20 -37
-17 -27 2 -39 8 -41 21 -3 14 4 17 37 17 35 0 41 -3 41 -21z m220 1 c0 -16 -7
-20 -35 -20 -28 0 -35 4 -35 20 0 16 7 20 35 20 28 0 35 -4 35 -20z m201 0
l24 -19 -37 -1 c-31 0 -38 3 -38 20 0 25 21 26 51 0z m2407 8 c24 -24 13 -38
-27 -38 -42 0 -57 11 -47 35 7 18 57 20 74 3z m217 -13 c0 -16 -8 -21 -37 -23
-21 -2 -38 1 -38 7 0 5 -3 17 -6 26 -6 14 0 16 37 13 36 -2 44 -7 44 -23z
m215 -1 c0 -25 -2 -26 -36 -21 -20 3 -39 9 -42 12 -9 9 31 34 56 35 17 0 22
-6 22 -26z m414 20 c24 -9 19 -33 -8 -40 -31 -7 -46 1 -46 27 0 19 23 25 54
13z m215 -3 c19 -12 6 -41 -19 -41 -25 0 -38 29 -19 41 8 5 16 9 19 9 3 0 11
-4 19 -9z m-5674 -16 c0 -5 -17 -11 -37 -13 -30 -3 -38 0 -38 13 0 13 8 16 38
13 20 -2 37 -7 37 -13z m243 3 c-6 -17 -58 -18 -58 -1 0 8 12 13 31 13 20 0
29 -4 27 -12z m5665 5 c10 -10 -13 -33 -34 -33 -21 0 -33 15 -24 30 7 11 48
14 58 3z m205 -3 c7 0 10 -4 7 -10 -11 -17 -65 -12 -65 6 0 12 6 15 23 10 12
-3 28 -6 35 -6z m223 0 c5 0 9 -4 9 -10 0 -5 -19 -10 -42 -10 -40 1 -42 2 -23
16 11 8 26 12 33 9 8 -3 18 -5 23 -5z m238 -16 c2 -2 -12 -4 -32 -4 -26 0 -37
4 -37 14 0 12 6 13 33 4 17 -6 34 -13 36 -14z m-4571 -196 c3 -15 -4 -18 -32
-18 -30 0 -36 4 -36 21 0 17 5 20 32 17 22 -2 34 -9 36 -20z m433 12 c5 0 9
-9 9 -20 0 -16 -7 -20 -35 -20 -28 0 -35 4 -35 19 0 21 17 32 38 25 8 -2 18
-4 23 -4z m1513 4 c9 -3 16 -15 16 -25 0 -15 -7 -19 -40 -19 -36 0 -40 3 -40
25 0 20 5 25 24 25 13 0 31 -3 40 -6z m878 -18 c14 -21 8 -26 -32 -26 -33 0
-40 3 -40 19 0 30 53 35 72 7z m-4362 -2 c0 -9 -11 -14 -35 -14 -47 0 -47 24
0 27 25 1 35 -3 35 -13z m223 1 c-2 -10 -64 -27 -72 -20 -2 2 -1 11 3 20 7 18
73 18 69 0z m212 0 c0 -5 -15 -11 -32 -13 -25 -3 -33 1 -33 13 0 12 8 16 33
13 17 -2 32 -7 32 -13z m230 0 c0 -5 -17 -11 -37 -13 -30 -3 -38 0 -38 13 0
13 8 16 38 13 20 -2 37 -7 37 -13z m223 -2 c2 -9 -9 -13 -37 -13 -30 0 -41 4
-41 16 0 11 9 14 37 12 20 -2 38 -9 41 -15z m212 2 c0 -10 -11 -15 -35 -15
-24 0 -35 5 -35 15 0 10 11 15 35 15 24 0 35 -5 35 -15z m220 0 c0 -10 -11
-15 -35 -15 -24 0 -35 5 -35 15 0 10 11 15 35 15 24 0 35 -5 35 -15z m450 0
c0 -10 -10 -15 -30 -15 -16 0 -33 0 -37 -1 -5 0 -9 7 -11 15 -3 12 6 16 37 16
30 0 41 -4 41 -15z m420 -5 c0 -16 -7 -20 -35 -20 -28 0 -35 4 -35 20 0 16 7
20 35 20 28 0 35 -4 35 -20z m1526 3 c-2 -14 -12 -18 -42 -18 -29 0 -40 4 -42
18 -3 14 4 17 41 17 37 0 45 -3 43 -17z m222 -5 c3 -15 -4 -18 -37 -18 -35 0
-41 3 -41 21 0 17 5 20 37 17 27 -2 39 -8 41 -20z m210 10 c21 -21 13 -28 -33
-28 -43 0 -58 14 -38 33 11 11 58 8 71 -5z m432 -8 c0 -16 -7 -20 -35 -20 -22
0 -35 5 -35 13 0 20 10 27 42 27 21 0 28 -5 28 -20z m208 8 c21 -21 13 -28
-28 -28 -33 0 -40 3 -40 20 0 15 7 20 28 20 15 0 33 -5 40 -12z m220 -10 c3
-15 -4 -18 -32 -18 -30 0 -36 4 -36 21 0 17 5 20 32 17 22 -2 34 -9 36 -20z
m222 2 c0 -10 -26 -20 -51 -20 -27 0 -24 28 4 32 26 5 47 -1 47 -12z m-5690 0
c0 -5 -18 -10 -40 -10 -22 0 -40 5 -40 10 0 6 18 10 40 10 22 0 40 -4 40 -10z
m238 -2 c-3 -7 -20 -13 -38 -13 -18 0 -35 6 -37 13 -3 8 8 12 37 12 29 0 40
-4 38 -12z m2607 0 c14 -6 25 -14 25 -18 0 -12 -63 5 -68 18 -5 15 10 15 43 0z
m905 3 c0 -7 -51 -31 -66 -31 -14 0 0 22 19 30 29 12 47 12 47 1z m2158 -3
c-7 -20 -68 -23 -68 -4 0 12 10 16 36 16 24 0 34 -4 32 -12z m210 0 c-3 -7
-17 -13 -33 -13 -16 0 -30 6 -32 13 -3 8 7 12 32 12 25 0 35 -4 33 -12z m220
0 c-3 -7 -20 -13 -38 -13 -18 0 -35 6 -37 13 -3 8 8 12 37 12 29 0 40 -4 38
-12z m242 2 c0 -5 -18 -10 -40 -10 -22 0 -40 5 -40 10 0 6 18 10 40 10 22 0
40 -4 40 -10z m-5699 -190 c30 -16 23 -30 -16 -30 -44 0 -49 29 -7 39 2 1 12
-4 23 -9z m246 -14 c-5 -16 -58 -20 -68 -5 -12 20 -3 25 36 21 21 -3 34 -9 32
-16z m2174 -3 c8 -21 6 -23 -31 -23 -36 0 -40 2 -40 26 0 22 4 25 31 22 22 -2
34 -10 40 -25z m217 -1 c3 -20 -1 -22 -37 -22 -34 0 -41 3 -41 19 0 36 73 38
78 3z m-3542 8 c13 0 24 -5 24 -11 0 -15 -73 -6 -78 10 -3 10 0 12 12 8 10 -4
29 -7 42 -7z m264 -6 c0 -10 -12 -14 -40 -14 -22 0 -40 4 -40 8 0 14 7 17 44
19 25 1 36 -3 36 -13z m220 0 c3 -5 -14 -10 -37 -12 -40 -3 -53 5 -36 21 9 10
67 3 73 -9z m228 -1 c2 -9 -8 -13 -32 -13 -34 0 -52 11 -39 24 11 11 66 2 71
-11z m660 0 c2 -9 -9 -13 -37 -13 -30 0 -41 4 -41 16 0 11 9 14 37 12 20 -2
38 -9 41 -15z m219 2 c8 -23 -1 -27 -41 -20 -48 9 -49 35 -1 35 23 0 38 -6 42
-15z m221 -2 c2 -9 -9 -13 -37 -13 -30 0 -41 4 -41 16 0 11 9 14 37 12 20 -2
38 -9 41 -15z m217 -3 c0 -10 -12 -15 -38 -17 -38 -1 -53 9 -42 28 11 16 80 7
80 -11z m225 5 c0 -11 -11 -15 -40 -15 -29 0 -40 4 -40 15 0 11 11 15 40 15
29 0 40 -4 40 -15z m208 -2 c-2 -12 -13 -18 -33 -18 -20 0 -31 6 -33 18 -3 14
4 17 33 17 29 0 36 -3 33 -17z m222 13 c0 -23 -17 -36 -46 -36 -27 0 -34 4
-34 20 0 17 7 20 40 20 22 0 40 -2 40 -4z m208 -18 c3 -15 -4 -18 -32 -18 -30
0 -36 4 -36 21 0 17 5 20 32 17 22 -2 34 -9 36 -20z m222 2 c0 -16 -7 -20 -33
-20 -38 0 -48 6 -40 26 3 8 19 14 39 14 27 0 34 -4 34 -20z m650 -1 c0 -17 -5
-20 -37 -17 -27 2 -39 8 -41 21 -3 14 4 17 37 17 35 0 41 -3 41 -21z m220 1
c0 -17 -7 -20 -40 -20 -33 0 -40 3 -40 20 0 17 7 20 40 20 33 0 40 -3 40 -20z
m213 6 c8 -20 -2 -26 -40 -26 -26 0 -33 4 -33 20 0 16 7 20 34 20 20 0 36 -6
39 -14z m445 -8 c3 -15 -4 -18 -36 -18 -25 0 -42 5 -45 14 -8 21 3 27 43 24
24 -2 36 -9 38 -20z m210 0 c3 -15 -4 -18 -37 -18 -35 0 -41 3 -41 21 0 17 5
20 37 17 27 -2 39 -8 41 -20z m-440 0 c-5 -15 -33 -22 -54 -14 -24 9 -6 26 27
26 20 0 29 -4 27 -12z m650 0 c-7 -20 -58 -23 -58 -4 0 11 10 16 31 16 20 0
29 -4 27 -12z m220 -5 c2 -9 -9 -13 -37 -13 -30 0 -41 4 -41 16 0 11 9 14 37
12 20 -2 38 -9 41 -15z m212 2 c0 -10 -11 -15 -35 -15 -24 0 -35 5 -35 15 0
10 11 15 35 15 24 0 35 -5 35 -15z m215 0 c0 -5 -15 -11 -32 -13 -25 -3 -33 1
-33 13 0 12 8 16 33 13 17 -2 32 -7 32 -13z m220 0 c0 -12 -40 -19 -61 -11 -9
3 -12 11 -9 16 8 14 70 9 70 -5z m208 0 c1 -5 -13 -11 -30 -13 -31 -3 -42 6
-26 22 10 10 53 3 56 -9z m225 -2 c2 -9 -8 -13 -32 -13 -26 0 -36 4 -36 16 0
19 61 16 68 -3z m227 8 c7 -13 -30 -24 -55 -16 -28 9 -15 25 20 25 16 0 31 -4
35 -9z m-6565 -206 c0 -10 -11 -15 -35 -15 -24 0 -35 5 -35 15 0 10 11 15 35
15 24 0 35 -5 35 -15z m680 -6 c0 -5 -16 -9 -35 -9 -41 0 -47 17 -7 22 31 4
42 1 42 -13z m218 4 c2 -9 -8 -13 -32 -13 -26 0 -36 4 -36 16 0 19 61 16 68
-3z m230 -1 c2 -8 -10 -12 -37 -12 -31 0 -41 4 -41 16 0 12 9 15 37 12 20 -2
38 -9 41 -16z m212 3 c0 -10 -11 -15 -35 -15 -24 0 -35 5 -35 15 0 10 11 15
35 15 24 0 35 -5 35 -15z m225 0 c0 -12 -40 -19 -61 -11 -9 3 -12 11 -9 16 8
14 70 9 70 -5z m213 -2 c2 -9 -8 -13 -32 -13 -26 0 -36 4 -36 16 0 19 61 16
68 -3z m227 -3 c0 -10 -12 -16 -37 -18 -33 -3 -38 0 -38 18 0 18 5 21 38 18
25 -2 37 -8 37 -18z m213 8 c21 -21 13 -28 -28 -28 -38 0 -52 14 -33 33 11 11
48 8 61 -5z m430 -9 c4 -20 -37 -33 -55 -17 -18 14 -16 26 5 31 28 8 47 3 50
-14z m225 -20 c-16 -16 -67 -7 -71 13 -2 12 5 18 25 20 34 4 63 -16 46 -33z
m213 30 c9 -15 -6 -27 -41 -31 -38 -4 -42 23 -5 33 36 10 38 10 46 -2z m212
-11 c3 -14 -4 -18 -31 -18 -33 0 -54 19 -39 34 13 14 67 1 70 -16z m222 -4 c0
-10 -12 -14 -40 -14 -32 0 -40 4 -40 18 0 14 7 17 40 14 26 -3 40 -9 40 -18z
m648 17 c6 -1 12 -8 12 -16 0 -8 -6 -16 -12 -16 -7 -1 -23 -3 -36 -4 -12 -1
-25 2 -28 7 -11 17 4 35 28 32 12 -1 29 -3 36 -3z m-3933 -11 c4 -6 -10 -10
-34 -10 -23 0 -41 5 -41 10 0 6 15 10 34 10 19 0 38 -4 41 -10z m225 0 c0 -5
-15 -10 -34 -10 -19 0 -38 5 -41 10 -4 6 10 10 34 10 23 0 41 -4 41 -10z
m1980 -5 c0 -10 -11 -15 -35 -15 -24 0 -35 5 -35 15 0 10 11 15 35 15 24 0 35
-5 35 -15z m1300 0 c0 -11 -11 -15 -40 -15 -29 0 -40 4 -40 15 0 11 11 15 40
15 29 0 40 -4 40 -15z m220 0 c0 -10 -10 -15 -30 -15 -16 0 -33 0 -37 -1 -5 0
-9 7 -11 15 -3 12 6 16 37 16 30 0 41 -4 41 -15z m438 -3 c3 -10 -7 -12 -39
-10 -24 2 -44 9 -47 16 -3 10 7 12 39 10 24 -2 44 -9 47 -16z m222 3 c0 -8 -6
-15 -12 -15 -7 0 -23 -3 -35 -6 -15 -4 -24 0 -32 15 -11 20 -9 21 34 21 33 0
45 -4 45 -15z m210 0 c0 -11 -11 -15 -40 -15 -29 0 -40 4 -40 15 0 11 11 15
40 15 29 0 40 -4 40 -15z m208 -2 c2 -9 -8 -13 -32 -13 -26 0 -36 4 -36 16 0
19 61 16 68 -3z m217 2 c0 -5 -17 -11 -37 -13 -36 -3 -47 5 -31 22 11 10 68 3
68 -9z m192 9 c31 -8 19 -24 -18 -24 -19 0 -29 5 -29 15 0 16 12 18 47 9z
m231 -6 c-5 -15 -68 -24 -68 -9 0 12 18 19 48 20 15 1 22 -4 20 -11z m230 -5
c2 -9 -8 -13 -32 -13 -26 0 -36 4 -36 16 0 19 61 16 68 -3z m210 5 c-3 -7 -17
-13 -33 -13 -16 0 -30 6 -32 13 -3 8 7 12 32 12 25 0 35 -4 33 -12z m220 -5
c2 -9 -9 -13 -37 -13 -30 0 -41 4 -41 16 0 11 9 14 37 12 20 -2 38 -9 41 -15z
m229 3 c-4 -13 -42 -20 -63 -12 -9 3 -13 10 -9 16 8 13 76 10 72 -4z m-5442
-206 c0 -10 -12 -16 -32 -18 -24 -2 -33 1 -33 12 0 8 6 17 13 20 22 9 52 1 52
-14z m-1125 0 c0 -5 -6 -10 -12 -10 -7 0 -23 -3 -35 -6 -17 -5 -23 -2 -23 10
0 12 9 16 35 16 19 0 35 -4 35 -10z m235 -5 c0 -5 -17 -11 -37 -13 -30 -3 -38
0 -38 13 0 13 8 16 38 13 20 -2 37 -7 37 -13z m225 0 c6 -11 -44 -19 -66 -11
-9 3 -13 10 -10 14 7 12 70 9 76 -3z m225 0 c0 -12 -40 -19 -61 -11 -9 3 -12
11 -9 16 8 14 70 9 70 -5z m213 -2 c2 -9 -8 -13 -32 -13 -26 0 -36 4 -36 16 0
19 61 16 68 -3z m450 5 c-3 -7 -21 -14 -41 -16 -28 -2 -37 1 -37 12 0 12 11
16 41 16 28 0 39 -4 37 -12z m220 -6 c3 -10 -6 -12 -34 -10 -20 2 -39 9 -42
16 -3 10 6 12 34 10 20 -2 39 -9 42 -16z m217 3 c0 -5 -17 -11 -37 -13 -30 -3
-38 0 -38 13 0 13 8 16 38 13 20 -2 37 -7 37 -13z m219 0 c-6 -16 -74 -22 -74
-7 0 16 13 22 46 22 26 0 32 -4 28 -15z m226 0 c0 -8 -14 -17 -35 -21 -40 -7
-50 -2 -42 21 8 20 77 21 77 0z m210 0 c0 -8 -9 -15 -19 -15 -11 0 -26 -3 -35
-6 -12 -4 -16 0 -16 15 0 17 6 21 35 21 24 0 35 -5 35 -15z m210 0 c0 -10 -11
-15 -35 -15 -24 0 -35 5 -35 15 0 10 11 15 35 15 24 0 35 -5 35 -15z m440 0
c0 -9 -9 -15 -25 -15 -14 0 -28 0 -32 -1 -5 0 -9 7 -11 15 -3 12 5 16 32 16
25 0 36 -4 36 -15z m210 0 c0 -10 -11 -15 -35 -15 -24 0 -35 5 -35 15 0 10 11
15 35 15 24 0 35 -5 35 -15z m220 -5 c0 -21 -30 -27 -64 -14 -33 13 -17 34 24
34 33 0 40 -3 40 -20z m215 0 c0 -10 -12 -16 -37 -18 -37 -3 -51 12 -31 32 13
13 68 2 68 -14z m220 1 c0 -9 -14 -15 -37 -18 -28 -3 -38 0 -38 11 0 8 8 17
18 19 30 8 57 3 57 -12z m215 -1 c0 -16 -7 -20 -35 -20 -28 0 -35 4 -35 20 0
16 7 20 35 20 28 0 35 -4 35 -20z m225 0 c0 -10 -12 -16 -37 -18 -37 -3 -51
12 -31 32 13 13 68 2 68 -14z m430 0 c0 -10 -10 -15 -34 -15 -37 0 -54 20 -24
28 31 9 58 3 58 -13z m428 6 c8 -20 -2 -26 -40 -26 -31 0 -44 16 -26 33 12 13
61 7 66 -7z m215 -3 c-4 -20 -45 -30 -60 -15 -16 16 1 32 33 32 24 0 30 -4 27
-17z m-2595 -8 c-4 -15 -66 -12 -71 3 -3 10 6 13 34 10 22 -2 38 -7 37 -13z
m1747 6 c0 -17 -21 -23 -56 -17 -49 10 -42 26 11 26 25 0 45 -4 45 -9z m420
-6 c0 -10 -11 -15 -35 -15 -24 0 -35 5 -35 15 0 10 11 15 35 15 24 0 35 -5 35
-15z m640 5 c0 -5 -16 -10 -35 -10 -19 0 -35 5 -35 10 0 6 16 10 35 10 19 0
35 -4 35 -10z m230 0 c0 -5 -16 -10 -35 -10 -19 0 -35 5 -35 10 0 6 16 10 35
10 19 0 35 -4 35 -10z m210 0 c0 -5 -16 -10 -35 -10 -19 0 -35 5 -35 10 0 6
16 10 35 10 19 0 35 -4 35 -10z m215 0 c4 -6 -8 -10 -29 -10 -20 0 -36 5 -36
10 0 6 13 10 29 10 17 0 33 -4 36 -10z m235 0 c0 -5 -18 -10 -40 -10 -22 0
-40 5 -40 10 0 6 18 10 40 10 22 0 40 -4 40 -10z m-6562 -207 c2 -9 -9 -13
-37 -13 -30 0 -41 4 -41 16 0 11 9 14 37 12 20 -2 38 -9 41 -15z m230 0 c2 -9
-9 -13 -37 -13 -29 0 -41 4 -41 14 0 18 72 17 78 -1z m222 2 c0 -10 -11 -15
-35 -15 -24 0 -35 5 -35 15 0 10 11 15 35 15 24 0 35 -5 35 -15z m215 4 c9
-13 7 -15 -32 -22 -28 -6 -33 -4 -33 13 0 15 7 20 29 20 17 0 33 -5 36 -11z
m220 -9 c0 -19 -41 -25 -60 -10 -22 18 -8 32 28 28 20 -2 32 -8 32 -18z m233
3 c2 -9 -9 -13 -37 -13 -30 0 -41 4 -41 16 0 11 9 14 37 12 20 -2 38 -9 41
-15z m219 1 c4 -12 -64 -30 -74 -20 -3 3 -3 12 1 21 7 19 67 17 73 -1z m221
-1 c2 -9 -9 -13 -37 -13 -30 0 -41 4 -41 16 0 11 9 14 37 12 20 -2 38 -9 41
-15z m215 3 c8 -20 -2 -26 -40 -26 -26 0 -33 4 -33 20 0 16 7 20 34 20 20 0
36 -6 39 -14z m224 -3 c5 -15 -31 -26 -57 -18 -11 3 -20 13 -20 21 0 11 9 14
37 12 20 -2 38 -8 40 -15z m221 -5 c3 -15 -4 -18 -37 -18 -35 0 -41 3 -41 21
0 17 5 20 37 17 27 -2 39 -8 41 -20z m207 2 c0 -10 -12 -16 -32 -18 -28 -3
-33 0 -33 18 0 18 5 21 33 18 20 -2 32 -8 32 -18z m215 0 c0 -16 -7 -20 -34
-20 -20 0 -36 6 -39 14 -8 20 2 26 40 26 26 0 33 -4 33 -20z m225 1 c0 -17
-56 -34 -69 -21 -5 5 -6 16 -2 25 8 21 71 17 71 -4z m215 -1 c0 -16 -7 -20
-35 -20 -28 0 -35 4 -35 20 0 16 7 20 35 20 28 0 35 -4 35 -20z m210 0 c0 -16
-7 -20 -35 -20 -28 0 -35 4 -35 20 0 16 7 20 35 20 28 0 35 -4 35 -20z m220
-1 c0 -17 -5 -20 -37 -17 -27 2 -39 8 -41 21 -3 14 4 17 37 17 35 0 41 -3 41
-21z m220 1 c0 -17 -7 -20 -40 -20 -27 0 -40 4 -40 13 0 21 11 27 47 27 26 0
33 -4 33 -20z m218 -2 c3 -15 -4 -18 -37 -18 -35 0 -41 3 -41 21 0 17 5 20 37
17 27 -2 39 -8 41 -20z m212 2 c0 -16 -7 -20 -35 -20 -22 0 -35 5 -35 13 0 20
10 27 42 27 21 0 28 -5 28 -20z m225 -5 c0 -5 -17 -11 -37 -13 -30 -3 -38 0
-38 13 0 13 8 16 38 13 20 -2 37 -7 37 -13z m225 0 c0 -11 -12 -15 -45 -15
-33 0 -45 4 -45 15 0 11 12 15 45 15 33 0 45 -4 45 -15z m208 -2 c2 -9 -9 -13
-37 -13 -30 0 -41 4 -41 16 0 11 9 14 37 12 20 -2 38 -9 41 -15z m212 2 c0
-16 -64 -22 -74 -6 -9 14 5 21 41 21 23 0 33 -5 33 -15z m210 1 c0 -17 -27
-28 -51 -21 -34 11 -22 35 16 35 23 0 35 -5 35 -14z m218 2 c-5 -15 -68 -24
-68 -10 0 15 13 22 43 22 18 0 27 -4 25 -12z m212 -3 c0 -10 -11 -15 -35 -15
-54 0 -43 27 13 29 13 1 22 -5 22 -14z m230 0 c0 -10 -11 -15 -35 -15 -24 0
-35 5 -35 15 0 10 11 15 35 15 24 0 35 -5 35 -15z m210 0 c0 -11 -11 -15 -40
-15 -29 0 -40 4 -40 15 0 11 11 15 40 15 29 0 40 -4 40 -15z m215 0 c0 -5 -17
-11 -37 -13 -30 -3 -38 0 -38 13 0 13 8 16 38 13 20 -2 37 -7 37 -13z m233 -3
c3 -10 -6 -12 -34 -10 -20 2 -39 9 -42 16 -3 10 6 12 34 10 20 -2 39 -9 42
-16z m-6573 -202 c0 -23 -59 -20 -63 3 -3 15 2 18 30 15 21 -2 33 -8 33 -18z
m1133 -4 c3 -12 -4 -16 -32 -16 -37 0 -57 17 -36 30 21 13 65 4 68 -14z m-890
2 c-3 -7 -21 -14 -41 -16 -28 -2 -37 1 -37 12 0 12 11 16 41 16 28 0 39 -4 37
-12z m222 -3 c0 -10 -11 -15 -35 -15 -24 0 -35 5 -35 15 0 10 11 15 35 15 24
0 35 -5 35 -15z m228 3 c-5 -14 -51 -23 -74 -14 -27 10 -4 26 37 26 28 0 39
-4 37 -12z m212 -3 c0 -10 -11 -15 -35 -15 -24 0 -35 5 -35 15 0 10 11 15 35
15 24 0 35 -5 35 -15z m448 3 c-3 -7 -20 -13 -38 -13 -18 0 -35 6 -37 13 -3 8
8 12 37 12 29 0 40 -4 38 -12z m212 -3 c0 -10 -11 -15 -35 -15 -24 0 -35 5
-35 15 0 10 11 15 35 15 24 0 35 -5 35 -15z m220 0 c0 -10 -11 -15 -35 -15
-24 0 -35 5 -35 15 0 10 11 15 35 15 24 0 35 -5 35 -15z m228 0 c13 -13 -48
-27 -67 -16 -24 15 -1 34 32 27 17 -3 33 -8 35 -11z m210 -8 c3 -15 -2 -18
-30 -15 -22 2 -34 9 -36 21 -3 15 2 18 30 15 22 -2 34 -9 36 -21z m222 2 c0
-17 -5 -20 -32 -17 -22 2 -34 9 -36 21 -3 14 4 17 32 17 30 0 36 -4 36 -21z
m210 0 c0 -17 -5 -20 -37 -17 -27 2 -39 8 -41 21 -3 14 4 17 37 17 35 0 41 -3
41 -21z m220 6 c20 -24 4 -45 -35 -45 -30 0 -35 3 -35 23 0 13 3 27 7 30 12
12 50 7 63 -8z m216 3 c9 -15 -25 -40 -51 -36 -12 2 -21 12 -23 26 -3 19 1 22
32 22 19 0 38 -5 42 -12z m222 -10 c3 -15 -4 -18 -37 -18 -35 0 -41 3 -41 21
0 17 5 20 37 17 27 -2 39 -8 41 -20z m212 2 c0 -16 -7 -20 -34 -20 -38 0 -57
17 -35 31 8 5 26 9 42 9 20 0 27 -5 27 -20z m215 0 c0 -18 -52 -27 -67 -12
-17 17 2 33 35 30 20 -2 32 -8 32 -18z m225 0 c0 -17 -7 -20 -40 -20 -33 0
-40 3 -40 20 0 17 7 20 40 20 33 0 40 -3 40 -20z m210 0 c0 -16 -7 -20 -30
-20 -16 0 -30 2 -30 4 0 2 -3 11 -6 20 -5 13 1 16 30 16 29 0 36 -4 36 -20z
m223 14 c14 -15 -8 -34 -38 -34 -35 0 -51 12 -40 30 7 11 68 14 78 4z m222
-14 c0 -24 -79 -21 -83 3 -3 16 2 18 40 15 30 -2 43 -7 43 -18z m215 5 c0 -16
-42 -30 -65 -21 -8 3 -15 12 -15 21 0 11 11 15 40 15 29 0 40 -4 40 -15z m207
-2 c2 -6 -5 -14 -16 -18 -22 -7 -61 10 -61 26 0 14 73 7 77 -8z m221 0 c-4
-20 -54 -31 -70 -15 -17 17 1 32 38 32 28 0 35 -4 32 -17z m212 3 c0 -15 -21
-26 -51 -26 -12 0 -19 7 -19 20 0 16 7 20 35 20 23 0 35 -5 35 -14z m208 -3
c-4 -21 -45 -30 -61 -14 -7 7 -3 13 14 20 37 15 51 13 47 -6z m220 0 c-2 -13
-11 -17 -28 -15 -30 5 -34 8 -25 21 3 6 17 11 31 11 19 0 25 -5 22 -17z m222
-2 c0 -16 -17 -21 -49 -15 -44 9 -38 24 9 24 22 0 40 -4 40 -9z m220 -1 c0 -5
-16 -10 -35 -10 -19 0 -35 5 -35 10 0 6 16 10 35 10 19 0 35 -4 35 -10z m230
1 c0 -4 -11 -6 -25 -3 -14 2 -25 0 -25 -7 0 -5 -7 -8 -15 -5 -28 11 -15 24 25
24 22 0 40 -4 40 -9z m-6337 -190 c4 -1 7 -8 7 -16 0 -11 -11 -15 -40 -15 -31
0 -40 4 -40 18 0 16 15 19 73 13z m235 -15 c3 -13 -5 -16 -42 -16 -44 0 -59
13 -39 33 13 14 78 0 81 -17z m220 7 c-4 -24 -78 -32 -78 -9 0 14 20 21 63 25
13 1 17 -5 15 -16z m207 -3 c0 -19 -55 -26 -66 -9 -12 21 0 30 34 27 20 -2 32
-8 32 -18z m233 -2 c-2 -13 -6 -22 -10 -20 -5 1 -21 2 -38 2 -39 0 -41 27 -2
33 52 8 53 8 50 -15z m219 6 c8 -21 -16 -35 -47 -27 -32 8 -34 9 -27 28 8 21
66 20 74 -1z m207 10 c9 -3 16 -15 16 -25 0 -15 -7 -19 -40 -19 -32 0 -40 4
-40 18 0 31 25 41 64 26z m233 -9 c7 -21 2 -25 -41 -32 -31 -5 -36 -3 -36 14
0 27 8 33 42 33 17 0 31 -6 35 -15z m213 -10 c0 -21 -5 -25 -28 -25 -35 0 -41
6 -35 31 4 13 14 19 34 19 24 0 29 -4 29 -25z m440 -7 c0 -16 -6 -19 -37 -16
-42 4 -55 24 -22 37 32 11 59 2 59 -21z m419 13 c12 -22 5 -31 -25 -31 -26 0
-38 14 -30 35 8 21 43 18 55 -4z m229 -8 c3 -21 -1 -23 -37 -23 -37 0 -41 2
-41 26 0 23 3 25 38 22 30 -2 38 -7 40 -25z m220 0 c3 -21 -1 -23 -37 -23 -33
0 -41 4 -41 18 0 27 10 33 45 30 22 -2 31 -9 33 -25z m212 2 c0 -22 -4 -25
-35 -25 -28 0 -35 4 -35 19 0 15 8 21 33 24 17 2 33 5 35 5 1 1 2 -9 2 -23z
m220 0 c0 -22 -4 -25 -34 -25 -37 0 -51 12 -42 35 3 9 19 15 41 15 31 0 35 -3
35 -25z m424 9 c26 -25 19 -34 -29 -34 -38 0 -45 3 -45 19 0 32 48 42 74 15z
m-4164 -6 c0 -16 -62 -16 -68 0 -2 8 10 12 32 12 22 0 36 -5 36 -12z m2224 -3
c3 -9 -1 -18 -8 -21 -26 -10 -61 1 -64 19 -3 13 4 17 31 17 22 0 37 -6 41 -15z
m426 -5 c0 -16 -7 -20 -33 -20 -38 0 -48 6 -40 26 3 8 19 14 39 14 27 0 34 -4
34 -20z m1308 -2 c3 -15 -4 -18 -42 -18 -49 0 -49 0 -40 25 9 23 78 17 82 -7z
m435 8 c8 -20 -2 -26 -45 -26 -31 0 -38 3 -38 20 0 17 7 20 39 20 24 0 41 -5
44 -14z m225 -8 c3 -15 -4 -18 -42 -18 -40 0 -46 3 -46 21 0 18 5 20 42 17 31
-2 44 -8 46 -20z m212 1 c0 -17 -5 -20 -37 -17 -27 2 -39 8 -41 21 -3 14 4 17
37 17 35 0 41 -3 41 -21z m220 1 c0 -17 -7 -20 -39 -20 -22 0 -43 5 -46 10
-11 19 6 30 46 30 32 0 39 -3 39 -20z m210 0 c0 -17 -7 -20 -40 -20 -33 0 -40
3 -40 20 0 17 7 20 40 20 33 0 40 -3 40 -20z m215 0 c0 -20 -65 -27 -76 -8
-16 24 -9 29 34 26 29 -2 42 -8 42 -18z m203 3 c-4 -23 -68 -32 -68 -10 0 20
10 27 42 27 23 0 29 -4 26 -17z m440 -5 c3 -14 -4 -18 -31 -18 -39 0 -48 6
-40 27 8 21 67 13 71 -9z m222 18 c0 -23 -17 -36 -46 -36 -32 0 -45 16 -27 33
7 8 73 10 73 3z m212 -16 c-11 -11 -28 -17 -36 -14 -33 13 -15 34 28 34 l30 0
-22 -20z m-642 1 c0 -12 -56 -25 -70 -16 -22 13 -8 25 30 25 22 0 40 -4 40 -9z
m-5462 -187 c13 -4 22 -14 22 -25 0 -15 -7 -19 -40 -19 -43 0 -66 24 -39 41
17 10 26 11 57 3z m-441 -21 c3 -9 -8 -13 -36 -13 -27 0 -41 4 -41 13 0 17 72
16 77 0z m236 -3 c5 -18 0 -20 -39 -20 -37 0 -44 3 -44 20 0 17 7 20 39 20 30
0 40 -4 44 -20z m445 -2 c-3 -20 -8 -23 -37 -20 -41 3 -45 6 -38 27 4 10 19
15 42 15 32 0 36 -3 33 -22z m210 0 c3 -15 -4 -18 -32 -18 -34 0 -47 15 -29
34 13 13 58 1 61 -16z m230 0 c3 -15 -4 -18 -37 -18 -39 0 -53 14 -34 34 14
14 68 1 71 -16z m220 0 c3 -15 -4 -18 -37 -18 -29 0 -41 4 -41 14 0 30 73 33
78 4z m222 2 c0 -17 -7 -20 -40 -20 -28 0 -40 4 -40 14 0 17 15 24 53 25 21 1
27 -4 27 -19z m220 1 c0 -30 -57 -43 -79 -18 -16 20 6 37 46 37 26 0 33 -4 33
-19z m220 -11 c0 -17 -7 -20 -40 -20 -33 0 -40 3 -40 20 0 17 7 20 40 20 33 0
40 -3 40 -20z m220 0 c0 -17 -7 -20 -40 -20 -33 0 -40 3 -40 20 0 17 7 20 40
20 33 0 40 -3 40 -20z m215 0 c0 -10 -13 -16 -42 -18 -46 -3 -47 -3 -37 23 9
21 79 17 79 -5z m205 0 c0 -16 -7 -20 -35 -20 -28 0 -35 4 -35 20 0 16 7 20
35 20 28 0 35 -4 35 -20z m220 0 c0 -16 -7 -20 -35 -20 -28 0 -35 4 -35 20 0
16 7 20 35 20 28 0 35 -4 35 -20z m220 0 c0 -16 -7 -20 -35 -20 -28 0 -35 4
-35 20 0 16 7 20 35 20 28 0 35 -4 35 -20z m218 -2 c3 -15 -4 -18 -37 -18 -35
0 -41 3 -41 21 0 17 5 20 37 17 27 -2 39 -8 41 -20z m220 0 c3 -15 -4 -18 -37
-18 -39 0 -53 14 -34 34 14 14 68 1 71 -16z m212 2 c0 -17 -7 -20 -40 -20 -33
0 -40 3 -40 20 0 17 7 20 40 20 33 0 40 -3 40 -20z m218 -2 c3 -15 -4 -18 -37
-18 -35 0 -41 3 -41 21 0 17 5 20 37 17 27 -2 39 -8 41 -20z m212 2 c0 -16 -7
-20 -35 -20 -28 0 -35 4 -35 20 0 16 7 20 35 20 28 0 35 -4 35 -20z m223 14
c15 -16 -8 -34 -44 -34 -32 0 -39 3 -39 20 0 17 7 20 38 20 21 0 41 -3 45 -6z
m217 -14 c0 -17 -7 -20 -40 -20 -27 0 -40 4 -40 13 0 21 11 27 47 27 26 0 33
-4 33 -20z m218 -2 c3 -15 -4 -18 -37 -18 -40 0 -58 11 -46 31 11 17 79 7 83
-13z m222 2 c0 -17 -7 -20 -39 -20 -22 0 -43 5 -46 10 -11 19 6 30 46 30 32 0
39 -3 39 -20z m210 0 c0 -16 -7 -20 -34 -20 -19 0 -38 5 -41 10 -11 18 5 30
41 30 27 0 34 -4 34 -20z m866 9 c9 -15 -14 -29 -48 -29 -33 0 -29 26 5 33 12
2 25 5 29 6 4 0 10 -4 14 -10z m-636 -8 c0 -24 -85 -29 -94 -6 -4 12 4 15 44
15 28 0 50 -4 50 -9z m190 -6 c0 -10 -9 -14 -30 -12 -39 3 -39 27 0 27 20 0
30 -5 30 -15z m238 3 c-3 -8 -21 -13 -43 -13 -22 0 -40 5 -42 13 -3 8 9 12 42
12 33 0 45 -4 43 -12z m417 3 c8 -14 -6 -19 -42 -14 -18 3 -30 9 -27 14 7 12
61 12 69 0z m240 -1 c4 -6 -10 -9 -37 -9 l-43 2 35 7 c19 4 36 8 37 9 1 0 5
-3 8 -9z m-6107 -200 c-2 -10 -15 -15 -43 -15 -36 0 -40 3 -43 26 -3 25 -3 26
43 15 32 -8 45 -15 43 -26z m-468 10 c0 -17 -7 -20 -40 -20 -27 0 -40 4 -40
13 0 21 11 27 47 27 26 0 33 -4 33 -20z m240 -5 c0 -22 -4 -25 -40 -25 -36 0
-40 3 -40 25 0 23 4 25 40 25 36 0 40 -2 40 -25z m448 -3 c3 -21 0 -23 -35
-20 -31 2 -39 7 -41 26 -3 21 0 23 35 20 31 -2 39 -7 41 -26z m212 3 c0 -22
-4 -25 -35 -25 -28 0 -35 4 -35 19 0 21 13 29 48 30 17 1 22 -5 22 -24z m230
0 c0 -22 -4 -25 -34 -25 -38 0 -49 10 -40 34 4 10 18 16 40 16 30 0 34 -3 34
-25z m230 0 c0 -22 -4 -25 -40 -25 -22 0 -40 2 -40 4 0 2 -3 11 -6 19 -6 15
12 23 64 26 17 1 22 -4 22 -24z m218 3 c-3 -20 -9 -23 -41 -22 -43 2 -52 7
-44 29 4 10 20 15 47 15 37 0 41 -2 38 -22z m212 -3 c0 -23 -4 -25 -45 -25
-37 0 -45 3 -45 18 0 27 9 32 52 32 34 0 38 -3 38 -25z m198 19 c44 -12 19
-53 -28 -46 -20 3 -30 10 -30 21 0 30 14 36 58 25z m240 -21 c-2 -13 -15 -19
-46 -21 -44 -3 -45 -3 -36 22 4 11 19 16 46 16 32 0 39 -3 36 -17z m215 11
c15 -16 -8 -34 -44 -34 -37 0 -51 15 -32 33 8 9 68 9 76 1z m207 -14 c0 -16
-7 -20 -35 -20 -28 0 -35 4 -35 20 0 16 7 20 35 20 28 0 35 -4 35 -20z m228
-2 c3 -15 -4 -18 -37 -18 -39 0 -53 14 -34 34 14 14 68 1 71 -16z m217 2 c0
-24 -79 -21 -83 3 -3 16 2 18 40 15 30 -2 43 -7 43 -18z m215 -1 c0 -17 -5
-20 -37 -17 -27 2 -39 8 -41 21 -3 14 4 17 37 17 35 0 41 -3 41 -21z m210 1
c0 -16 -7 -20 -35 -20 -28 0 -35 4 -35 20 0 16 7 20 35 20 28 0 35 -4 35 -20z
m218 -2 c-2 -17 -11 -24 -32 -26 -34 -4 -49 8 -40 31 4 11 18 17 41 17 30 0
34 -3 31 -22z m217 -3 c0 -16 -8 -21 -37 -23 -35 -3 -38 -1 -38 23 0 24 3 26
38 23 29 -2 37 -7 37 -23z m200 0 c0 -25 -37 -32 -54 -11 -18 21 -4 38 27 34
19 -2 27 -9 27 -23z m233 -4 c3 -20 0 -22 -35 -19 -31 2 -39 7 -41 26 -3 21 0
22 35 19 30 -3 39 -9 41 -26z m220 2 c-2 -13 -13 -18 -38 -18 -25 0 -36 5 -38
18 -3 14 4 17 38 17 34 0 41 -3 38 -17z m211 4 c15 -19 4 -27 -36 -27 -26 0
-33 4 -33 20 0 15 7 20 29 20 16 0 34 -6 40 -13z m230 -2 c11 -11 -16 -25 -50
-25 -37 0 -51 15 -32 34 7 7 73 -1 82 -9z m1291 -11 c0 -9 -11 -14 -29 -14
-30 0 -47 13 -37 28 8 14 66 1 66 -14z m-1080 0 c0 -11 -9 -14 -37 -12 -52 4
-56 28 -4 28 30 0 41 -4 41 -16z m220 1 c0 -11 -12 -15 -44 -15 -43 0 -63 10
-49 24 3 3 26 6 50 6 32 0 43 -4 43 -15z m208 3 c-3 -7 -21 -14 -41 -16 -28
-2 -37 1 -37 12 0 12 11 16 41 16 28 0 39 -4 37 -12z m222 -3 c0 -11 -11 -15
-40 -15 -29 0 -40 4 -40 15 0 11 11 15 40 15 29 0 40 -4 40 -15z m210 0 c0 -8
-9 -15 -20 -15 -11 0 -23 0 -27 -1 -5 0 -9 7 -11 15 -3 12 5 16 27 16 21 0 31
-5 31 -15z m455 -6 c-8 -12 -55 -12 -55 0 0 10 39 20 53 13 4 -2 5 -8 2 -13z
m-65 1 c0 -5 -4 -10 -10 -10 -5 0 -10 5 -10 10 0 6 5 10 10 10 6 0 10 -4 10
-10z m-6928 -168 c-3 -124 -2 -140 16 -161 18 -24 20 -24 121 -15 113 10 142
2 176 -49 39 -60 28 -123 -33 -180 l-29 -28 -214 3 c-214 3 -214 3 -256 30
-23 15 -54 49 -70 75 l-28 48 0 190 c0 105 4 198 8 208 7 15 25 17 161 17
l152 0 -4 -138z m7602 122 c3 -9 6 -93 6 -189 0 -194 -9 -237 -63 -294 -60
-63 -90 -71 -295 -71 -106 0 -191 4 -202 10 -11 6 -31 30 -45 54 -41 70 -30
130 34 173 31 21 41 22 122 16 129 -9 129 -8 129 167 0 75 3 140 7 143 3 4 73
7 154 7 125 0 148 -2 153 -16z m-812 -336 l3 -81 -2985 6 c-1642 4 -3074 10
-3182 14 l-198 6 0 69 0 68 3179 0 3179 0 4 -82z m-5827 -519 c4 -6 1 -32 -6
-57 -11 -42 -38 -73 -233 -269 -217 -219 -222 -223 -262 -223 -25 0 -47 6 -54
15 -9 11 -11 76 -8 267 2 139 7 259 11 266 11 16 542 18 552 1z m5975 -29 c0
-75 -23 -107 -223 -305 -215 -215 -282 -262 -316 -221 -16 19 -16 533 0 553 9
10 66 13 275 13 l264 0 0 -40z m-6687 -489 c11 -135 78 -211 184 -211 78 0
119 17 182 75 63 59 71 63 71 40 0 -62 -102 -166 -181 -185 -142 -34 -272 43
-310 183 -15 56 16 188 40 173 4 -3 11 -37 14 -75z m5983 3 c1 -78 23 -130 73
-179 27 -25 41 -30 95 -33 86 -6 152 17 216 75 28 25 53 43 56 40 11 -10 -46
-105 -82 -137 -52 -45 -98 -62 -170 -62 -98 1 -181 52 -220 136 -28 59 -30
112 -8 185 21 73 39 62 40 -25z"/>
<path d="M2022 13385 c-17 -8 -36 -24 -41 -37 -5 -13 -9 -174 -10 -359 l-2
-337 23 -25 23 -26 501 -3 c461 -2 502 -1 527 15 39 25 51 82 43 212 -3 61 -6
201 -6 312 0 192 -1 203 -21 222 -27 25 -91 29 -604 35 -334 5 -405 3 -433 -9z
m901 -173 c12 -11 17 -30 17 -71 0 -107 -22 -376 -32 -388 -8 -10 -97 -13
-382 -13 -324 0 -374 2 -394 16 l-23 16 7 226 c3 125 8 230 11 235 2 4 179 5
391 1 328 -5 390 -9 405 -22z"/>
<path d="M2274 13126 c-17 -8 -43 -29 -58 -48 -22 -29 -26 -45 -26 -97 0 -55
3 -66 28 -91 65 -64 162 -62 221 5 27 31 31 43 31 91 0 70 -21 108 -75 134
-48 23 -78 25 -121 6z"/>
<path d="M2695 13131 c-74 -18 -115 -67 -115 -138 0 -58 13 -87 54 -118 71
-54 165 -39 213 34 46 68 14 178 -61 212 -45 20 -47 20 -91 10z"/>
<path d="M5128 13239 c-187 -67 -239 -327 -94 -472 166 -166 466 -39 466 198
0 33 -5 76 -10 95 -12 45 -100 145 -149 170 -59 29 -145 33 -213 9z"/>
<path d="M4354 13231 c-206 -94 -225 -375 -33 -494 126 -77 316 -21 383 115
37 75 37 173 -1 249 -31 60 -100 119 -163 138 -56 17 -139 13 -186 -8z"/>
<path d="M5879 13237 c-124 -47 -189 -139 -189 -266 0 -147 92 -258 233 -281
60 -9 138 7 191 39 71 44 136 159 136 241 0 93 -65 192 -159 244 -61 33 -158
43 -212 23z"/>
<path d="M6638 13237 c-122 -35 -212 -169 -194 -290 42 -280 401 -349 522
-100 106 215 -96 455 -328 390z"/>
<path d="M7365 13237 c-60 -24 -104 -58 -134 -104 -82 -123 -62 -278 46 -374
54 -47 98 -62 183 -63 65 -1 82 3 128 28 57 32 103 82 127 140 18 42 20 134 4
186 -19 63 -78 131 -141 163 -64 33 -164 45 -213 24z"/>
<path d="M3607 13226 c-62 -23 -104 -62 -138 -131 -29 -60 -31 -71 -27 -139 6
-88 33 -143 102 -203 71 -62 152 -78 252 -48 107 32 194 151 194 266 0 105
-84 218 -187 253 -56 19 -144 20 -196 2z"/>
<path d="M1866 11609 l-26 -31 0 -637 c0 -351 -3 -665 -6 -698 -6 -52 -4 -61
12 -68 24 -10 1350 -20 1451 -10 l73 7 0 693 c0 418 -4 704 -10 719 -21 57 -6
56 -769 56 l-699 0 -26 -31z m882 -148 c98 -28 115 -35 198 -92 126 -84 206
-171 256 -275 l43 -89 5 -340 c3 -187 5 -342 3 -344 -9 -13 -363 -28 -363 -15
0 3 19 38 43 77 101 168 134 318 106 473 -14 78 -86 227 -139 287 -51 58 -152
118 -245 147 -88 27 -274 42 -358 29 -70 -11 -180 -61 -249 -114 -26 -19 -50
-35 -54 -35 -12 0 8 75 32 116 48 81 157 161 251 183 21 5 120 9 221 10 151 1
194 -2 250 -18z m-207 -265 c172 -37 308 -164 361 -339 87 -287 -152 -597
-460 -597 -206 0 -400 158 -466 379 -50 169 27 370 184 480 119 84 237 107
381 77z"/>
<path d="M2305 11016 c-97 -45 -175 -163 -175 -266 0 -112 89 -244 197 -292
67 -29 184 -29 241 1 102 53 163 138 178 249 10 81 -26 183 -88 245 -68 68
-114 87 -218 87 -68 0 -95 -5 -135 -24z m212 -135 c26 -12 52 -35 70 -62 94
-142 -57 -320 -215 -253 -80 33 -119 101 -106 184 19 118 140 181 251 131z"/>
<path d="M1989 10001 c-22 -33 -42 -51 -58 -53 -14 -2 -27 -10 -29 -18 -5 -13
-3 -13 11 -1 24 19 21 0 -8 -50 -14 -24 -25 -46 -25 -49 0 -3 23 -6 50 -7 l51
-2 35 54 c20 29 43 56 51 59 8 3 12 10 8 15 -8 14 26 51 47 51 26 0 23 -11
-15 -56 -26 -31 -77 -108 -77 -117 0 -4 121 0 124 4 3 2 31 44 64 93 78 115
75 120 -83 124 l-111 4 -35 -51z"/>
<path d="M2287 9942 c-41 -4 -78 -41 -83 -85 l-2 -24 211 -7 c116 -4 213 -9
216 -11 2 -3 -6 -17 -20 -31 l-24 -27 33 6 c18 4 49 18 70 32 l37 25 306 0
c337 0 324 -2 364 63 21 32 12 34 -34 6 -19 -11 -46 -19 -63 -17 l-30 3 21 27
c12 14 21 29 21 32 0 11 -494 4 -507 -7 -7 -5 -13 -20 -13 -33 0 -13 -4 -24
-10 -24 -5 0 -10 14 -10 30 0 47 -27 52 -250 48 -107 -1 -212 -4 -233 -6z m71
-56 c-10 -7 -18 -18 -18 -25 0 -6 -10 -11 -21 -11 -17 0 -20 4 -15 23 3 12 6
25 6 29 0 11 44 15 55 5 6 -5 4 -13 -7 -21z m320 7 c-2 -11 -18 -22 -41 -27
-43 -11 -53 -5 -37 23 14 28 83 31 78 4z m282 10 c0 -14 -34 -43 -52 -43 -19
0 -22 8 -12 34 6 15 64 24 64 9z m200 -2 c0 -16 -28 -32 -64 -38 -39 -6 -42
-3 -26 28 8 14 21 19 50 19 22 0 40 -4 40 -9z"/>
<path d="M7738 11603 c7 -3 16 -2 19 1 4 3 -2 6 -13 5 -11 0 -14 -3 -6 -6z"/>
<path d="M8380 11610 c0 -5 5 -10 10 -10 6 0 10 5 10 10 0 6 -4 10 -10 10 -5
0 -10 -4 -10 -10z"/>
<path d="M8165 11180 c4 -6 11 -8 16 -5 14 9 11 15 -7 15 -8 0 -12 -5 -9 -10z"/>
<path d="M7738 11183 c7 -3 16 -2 19 1 4 3 -2 6 -13 5 -11 0 -14 -3 -6 -6z"/>
<path d="M8390 10965 c0 -8 4 -15 10 -15 5 0 7 7 4 15 -4 8 -8 15 -10 15 -2 0
-4 -7 -4 -15z"/>
<path d="M8175 10760 c-3 -5 -1 -10 4 -10 6 0 11 5 11 10 0 6 -2 10 -4 10 -3
0 -8 -4 -11 -10z"/>
<path d="M5145 10751 c-3 -6 4 -9 15 -8 11 1 20 5 20 9 0 11 -28 10 -35 -1z"/>
<path d="M8178 10103 c7 -3 16 -2 19 1 4 3 -2 6 -13 5 -11 0 -14 -3 -6 -6z"/>
<path d="M1828 9463 c7 -3 16 -2 19 1 4 3 -2 6 -13 5 -11 0 -14 -3 -6 -6z"/>
<path d="M8400 9470 c0 -5 5 -10 11 -10 5 0 7 5 4 10 -3 6 -8 10 -11 10 -2 0
-4 -4 -4 -10z"/>
</g>
</svg>
