<?xml version="1.0" encoding="UTF-8" standalone="no"?>
<svg
   version="1.0"
   width="964.77722pt"
   height="1435.786pt"
   viewBox="0 0 964.7772 1435.7859"
   preserveAspectRatio="xMidYMid"
   id="svg1"
   sodipodi:docname="bassPlayerFemale.svg"
   xmlns:inkscape="http://www.inkscape.org/namespaces/inkscape"
   xmlns:sodipodi="http://sodipodi.sourceforge.net/DTD/sodipodi-0.dtd"
   xmlns="http://www.w3.org/2000/svg"
   xmlns:svg="http://www.w3.org/2000/svg">
  <defs
     id="defs1" />
  <sodipodi:namedview
     id="namedview1"
     pagecolor="#ffffff"
     bordercolor="#000000"
     borderopacity="0.25"
     inkscape:showpageshadow="2"
     inkscape:pageopacity="0.0"
     inkscape:pagecheckerboard="0"
     inkscape:deskcolor="#d1d1d1"
     inkscape:document-units="pt"
     inkscape:export-bgcolor="#ffffff00">
    <inkscape:page
       x="0"
       y="5.3126419e-15"
       width="964.77722"
       height="1435.7859"
       id="page2"
       margin="0"
       bleed="0" />
  </sodipodi:namedview>
  <metadata
     id="metadata1">Created by Svg.la</metadata>
  <g
     id="g52"
     transform="translate(-1424.8806,20.550838)">
    <g
       transform="matrix(0.1,0,0,-0.1,1384.6579,1474.3666)"
       fill="#000000"
       stroke="none"
       id="g1">
      <path
         d="m 3985,14940 c -330,-44 -632,-219 -839,-489 -142,-184 -233,-372 -357,-731 -126,-363 -194,-452 -534,-685 -147,-101 -253,-211 -303,-316 -67,-140 -77,-277 -31,-424 10,-33 30,-77 44,-98 21,-30 24,-41 15,-52 -22,-27 -112,-50 -196,-50 -72,0 -85,3 -130,30 -53,33 -106,98 -145,175 -13,27 -28,45 -32,41 -5,-5 -11,-60 -14,-122 -8,-177 31,-307 119,-397 113,-116 239,-125 476,-32 69,27 119,43 111,35 -8,-7 -70,-44 -139,-81 -174,-93 -230,-133 -351,-251 -114,-111 -122,-115 -203,-92 -53,15 -129,89 -166,161 l -30,60 -12,-28 c -6,-16 -12,-74 -12,-129 -1,-94 1,-105 31,-166 20,-40 53,-85 82,-112 49,-46 49,-47 32,-69 -31,-39 -165,-269 -213,-363 -84,-166 -365,-700 -386,-735 -30,-48 -28,-91 5,-130 24,-29 25,-34 13,-54 -63,-100 -279,-559 -340,-720 -66,-177 -84,-259 -76,-357 8,-115 47,-219 172,-466 191,-376 346,-616 721,-1115 57,-76 103,-140 103,-143 0,-3 -27,-37 -59,-75 -237,-275 -341,-575 -328,-950 8,-240 52,-429 158,-672 162,-374 333,-623 677,-981 100,-103 113,-121 108,-145 -3,-15 -8,-47 -12,-72 -3,-25 -26,-106 -49,-180 -24,-74 -51,-169 -60,-210 -22,-100 -31,-420 -16,-560 34,-302 37,-347 29,-440 -11,-120 -5,-160 34,-236 l 31,-62 -42,-148 c -24,-81 -76,-258 -116,-393 -101,-340 -113,-414 -95,-582 21,-194 75,-317 185,-425 54,-54 87,-77 131,-94 120,-46 278,-35 384,27 72,42 171,149 213,230 111,214 136,402 137,1047 v 289 l 43,76 42,76 2,130 c 2,150 -1,140 116,400 86,192 145,360 167,470 6,33 13,67 16,76 4,13 26,17 122,22 269,14 434,90 638,292 217,217 317,395 469,835 109,317 178,426 354,556 l 84,62 63,-91 c 58,-85 320,-493 384,-597 91,-148 196,-342 313,-573 l 134,-264 6,-114 c 14,-262 98,-579 257,-964 87,-210 100,-255 110,-375 8,-100 23,-162 52,-212 9,-16 13,-76 13,-208 v -186 l 35,-68 c 37,-73 70,-110 251,-277 126,-117 180,-188 284,-374 85,-153 119,-198 209,-282 161,-150 362,-230 556,-221 73,3 98,9 153,36 242,119 270,440 66,744 -23,35 -102,137 -174,228 -272,340 -471,629 -459,664 4,12 9,53 11,92 4,58 -2,94 -27,189 -32,120 -33,129 -60,555 -28,447 -95,846 -197,1179 -74,244 -95,324 -154,601 -241,1135 -438,1736 -722,2208 l -86,143 15,62 c 22,82 15,119 -44,240 -46,95 -92,230 -92,271 0,18 109,141 310,351 52,55 112,119 132,142 l 38,43 27,-27 c 131,-123 399,-86 777,106 263,134 469,270 611,402 112,106 206,266 280,479 49,141 65,223 72,360 4,99 2,133 -21,245 -15,71 -38,157 -52,190 -14,33 -28,67 -30,76 -8,24 49,90 696,793 226,246 233,250 460,281 96,14 151,36 194,78 39,39 125,180 330,542 38,66 78,129 90,141 11,11 62,35 111,54 120,43 162,69 227,138 97,102 138,209 138,361 0,114 -15,174 -65,271 -100,188 -292,238 -506,129 -34,-16 -62,-29 -64,-27 -1,2 -12,22 -23,45 l -20,42 24,22 c 43,40 67,104 62,165 -8,92 -60,142 -155,151 -77,7 -124,-9 -181,-61 -61,-56 -92,-124 -92,-203 0,-58 3,-66 36,-103 43,-47 93,-65 144,-50 19,6 38,10 42,10 8,0 62,-100 56,-104 -2,-1 -61,-45 -133,-97 -71,-53 -144,-105 -160,-117 l -31,-20 -27,47 -27,48 22,19 c 52,47 66,165 25,225 -119,176 -397,51 -397,-179 0,-107 59,-168 154,-158 26,3 54,10 60,16 10,7 19,-5 38,-49 l 26,-59 -47,-33 c -25,-18 -97,-70 -159,-116 -61,-46 -116,-83 -120,-83 -5,0 -18,17 -29,38 l -21,37 28,32 c 31,35 50,88 50,143 0,83 -80,160 -174,168 -73,6 -116,-11 -180,-69 -57,-52 -80,-95 -91,-171 -9,-60 6,-106 51,-149 32,-31 40,-34 97,-34 34,0 68,2 76,5 8,3 24,-13 42,-43 l 29,-47 -68,-48 c -100,-70 -156,-130 -170,-183 -8,-28 -11,-103 -10,-210 l 3,-166 -35,-56 c -19,-31 -112,-138 -206,-239 -94,-101 -238,-255 -320,-343 -82,-88 -179,-192 -215,-230 -37,-39 -88,-95 -115,-126 -27,-30 -152,-167 -279,-303 -126,-137 -249,-274 -273,-305 -40,-52 -156,-171 -167,-171 -3,0 -5,7 -5,15 0,8 -27,78 -61,156 l -61,142 35,36 c 82,87 84,107 21,263 -25,62 -111,310 -191,552 -151,456 -199,570 -275,663 -49,59 -149,141 -190,155 -16,6 -28,14 -28,19 0,5 16,33 36,63 46,69 64,132 64,221 0,117 -27,188 -147,388 -84,140 -133,247 -139,305 -4,31 2,72 16,122 55,201 62,255 57,435 -9,251 -64,485 -170,716 -129,280 -353,500 -581,569 -52,16 -83,33 -116,64 -196,183 -527,276 -835,236 z m 993,-865 c 58,-169 66,-356 22,-515 -81,-292 -366,-523 -673,-546 l -82,-6 80,42 c 131,68 214,129 329,240 158,152 211,236 253,399 39,155 42,346 7,521 -9,47 32,-40 64,-135 z m -709,-522 c -82,-121 -242,-292 -377,-402 -96,-78 -191,-140 -354,-229 -183,-100 -228,-130 -303,-206 -59,-60 -135,-190 -135,-232 0,-13 -3,-15 -11,-7 -21,21 -6,171 23,233 48,106 177,217 363,315 283,149 654,403 780,534 21,22 41,41 43,41 1,0 -12,-21 -29,-47 z m 987,-213 c 12,-47 15,-90 11,-155 -5,-101 -20,-146 -82,-250 -24,-38 -45,-80 -49,-92 -4,-12 -9,-84 -10,-160 -4,-118 -8,-150 -32,-222 -57,-172 -221,-421 -437,-660 -125,-139 -154,-157 -258,-155 -129,3 -283,80 -458,230 -301,257 -377,393 -369,655 3,110 7,132 29,175 31,60 95,107 230,165 l 97,41 63,-21 c 260,-85 468,-71 721,47 131,62 216,121 301,211 70,75 144,206 168,301 l 14,53 22,-49 c 12,-27 30,-79 39,-114 z m -1991,26 c 32,-14 73,-61 62,-72 -3,-3 -15,0 -27,6 -23,12 -90,6 -124,-12 -70,-37 -161,-155 -228,-294 -22,-46 -42,-83 -44,-82 -9,9 39,199 64,251 36,77 110,161 171,192 54,28 79,30 126,11 z m -871,-627 c -31,-52 -67,-109 -81,-127 -32,-43 -203,-333 -204,-347 -2,-31 -18,38 -18,80 -2,122 53,238 159,339 58,54 191,156 198,151 1,-1 -23,-44 -54,-96 z m 7349,77 c 101,-42 165,-235 122,-367 -43,-129 -113,-190 -296,-254 -49,-17 -86,-38 -112,-63 -37,-35 -139,-199 -258,-414 -131,-237 -141,-252 -189,-275 -43,-21 -139,-44 -245,-58 l -50,-7 36,38 c 34,36 516,615 652,783 40,48 73,79 105,94 57,27 83,62 89,119 13,111 -99,185 -188,125 -78,-52 -91,-151 -29,-222 17,-19 14,-24 -112,-175 -459,-551 -662,-790 -701,-828 -44,-44 -45,-44 -71,-27 -14,10 -26,20 -26,24 0,3 57,69 128,146 70,78 198,224 285,326 116,136 167,189 192,198 44,16 91,70 99,115 10,53 -23,119 -71,141 -90,43 -193,-27 -193,-130 0,-41 22,-89 46,-103 11,-6 14,-14 8,-24 -21,-36 -537,-618 -554,-626 -3,-1 -17,9 -29,22 l -24,25 124,130 c 71,75 132,131 143,131 31,0 83,61 90,106 27,157 -175,207 -225,56 -13,-39 0,-100 28,-127 15,-15 11,-22 -48,-83 -36,-37 -86,-90 -111,-118 -45,-50 -47,-51 -64,-33 -16,18 -15,22 15,78 32,60 32,61 34,223 l 2,163 118,85 c 65,47 249,179 410,294 161,115 361,261 445,324 244,182 339,224 425,188 z m -4286,-582 c 45,-109 55,-208 28,-300 -20,-72 -47,-119 -120,-209 -76,-95 -104,-148 -121,-226 -30,-144 30,-283 149,-344 46,-24 48,-26 18,-21 -96,17 -204,94 -244,172 -45,91 -48,223 -7,304 13,25 55,92 95,150 40,58 82,124 93,146 51,100 81,281 64,382 -12,70 0,56 45,-54 z m -2777,-187 c 0,-130 -22,-226 -82,-360 -58,-131 -77,-207 -77,-313 -1,-114 23,-201 85,-300 49,-79 111,-142 173,-173 48,-25 53,-33 11,-21 -116,33 -266,161 -319,274 -50,103 -64,176 -58,291 6,116 25,177 97,315 114,216 150,308 150,390 0,26 3,31 10,20 5,-8 10,-64 10,-123 z m 1310,-404 c 166,-125 288,-173 437,-173 88,0 167,19 206,50 14,11 27,20 30,20 7,0 -21,-142 -37,-187 -47,-131 -194,-273 -338,-327 -274,-102 -560,-22 -860,241 -78,68 -165,170 -193,224 -15,28 -14,29 17,45 90,45 201,172 245,279 24,57 43,150 43,210 v 41 l 178,-176 c 97,-97 220,-208 272,-247 z m 4250,-268 c 10,-11 -13,-43 -131,-177 -78,-90 -263,-295 -412,-456 -248,-270 -272,-293 -296,-287 -14,4 -28,9 -30,11 -6,5 -15,-6 300,339 46,50 217,235 428,463 62,67 117,122 121,122 4,0 13,-7 20,-15 z m 102,-119 c -138,-158 -248,-282 -252,-286 -3,-3 -43,-48 -90,-100 -222,-247 -444,-485 -454,-487 -6,-2 -22,5 -35,16 l -23,18 93,99 c 142,150 554,607 642,711 l 78,93 30,-22 c 28,-21 29,-22 11,-42 z m 100,-49 27,-22 -55,-70 c -60,-76 -517,-585 -650,-724 l -82,-86 -37,18 -37,17 74,82 c 40,45 105,116 143,158 161,173 438,481 506,562 41,48 76,87 79,87 3,0 17,-10 32,-22 z m -2757,-777 c -20,-168 -90,-476 -114,-502 -11,-13 37,387 64,532 14,74 33,185 43,245 l 17,110 3,-125 c 2,-71 -4,-183 -13,-260 z m -3415,-141 c -28,-110 -59,-173 -126,-259 -30,-38 -57,-70 -59,-70 -3,0 -1,10 4,23 34,87 56,139 87,205 46,97 103,240 106,261 1,9 3,-5 5,-30 2,-27 -5,-82 -17,-130 z m 5150,3 c 159,-89 258,-213 301,-379 58,-226 21,-459 -116,-738 -91,-188 -177,-274 -427,-429 -309,-194 -646,-336 -793,-336 -38,0 -83,19 -103,42 -17,21 104,175 301,380 l 167,173 84,3 85,4 48,-45 c 60,-56 87,-67 168,-67 66,0 93,13 50,24 -63,16 -120,95 -164,226 -14,43 -39,88 -76,132 -62,78 -124,197 -132,254 -4,32 -1,43 20,62 l 25,24 58,-74 c 82,-103 217,-236 247,-243 64,-17 62,32 -5,129 -29,41 -94,129 -144,194 -148,193 -172,244 -133,281 13,11 33,21 45,21 32,0 121,-85 240,-230 56,-69 118,-140 137,-158 64,-62 94,-24 63,82 -18,61 -95,174 -195,286 -90,100 -151,179 -151,194 0,24 40,50 76,49 74,-2 274,-187 389,-361 72,-108 94,-122 106,-66 10,50 -8,159 -36,219 -34,70 -106,149 -198,216 -92,67 -137,109 -137,128 0,29 32,51 74,51 30,0 63,-12 126,-48 z M 6345,9943 c 3,-15 28,-76 54,-135 l 49,-108 -166,-177 c -91,-98 -216,-231 -279,-295 l -113,-117 -16,37 c -33,77 -98,241 -139,352 -24,63 -51,131 -59,151 l -15,36 92,18 c 197,37 337,97 491,207 45,32 84,58 87,58 4,0 10,-12 14,-27 z M 2216,9160 c 28,-183 32,-284 13,-381 -7,-35 -55,-181 -107,-324 -52,-143 -108,-316 -125,-385 -16,-69 -40,-159 -52,-200 l -22,-75 -42,90 c -48,103 -103,231 -151,355 -18,47 -89,200 -157,341 l -125,257 44,54 c 24,29 99,135 166,233 67,99 163,239 213,310 51,72 126,179 168,239 l 76,109 37,-229 c 21,-126 50,-303 64,-394 z m 4510,523 c -14,-21 -66,-81 -115,-133 l -89,-95 -26,24 -25,24 132,140 132,139 9,-31 c 7,-26 5,-37 -18,-68 z M 1143,9541 c 94,-67 236,-142 362,-192 33,-12 64,-26 69,-31 10,-8 -42,-91 -159,-253 -39,-55 -84,-121 -98,-146 -45,-77 -40,-101 73,-333 99,-205 141,-299 240,-536 89,-214 110,-260 195,-430 148,-298 247,-455 332,-530 27,-23 98,-67 158,-97 193,-97 283,-172 384,-318 57,-82 243,-429 283,-528 28,-68 37,-150 19,-162 -10,-5 -99,97 -230,265 -106,136 -148,177 -162,163 -33,-33 58,-196 255,-457 106,-141 136,-192 136,-231 0,-31 -8,-31 -69,0 -72,36 -158,117 -351,328 -158,173 -198,208 -201,175 -9,-101 95,-275 281,-472 l 65,-69 -43,7 c -63,9 -162,61 -231,120 -33,28 -103,101 -155,162 -92,108 -118,130 -137,118 -33,-20 44,-164 176,-330 30,-38 52,-70 50,-72 -2,-2 -32,11 -67,29 -42,23 -96,67 -163,134 -179,178 -243,291 -320,565 -142,505 -133,487 -455,926 -372,507 -504,711 -650,1004 -120,239 -152,328 -158,431 -4,80 -2,96 32,198 52,160 188,463 284,638 l 57,102 50,-54 c 28,-30 94,-86 148,-124 z m 4371,92 c 12,-46 71,-201 152,-395 117,-279 111,-243 47,-313 -31,-33 -106,-113 -169,-178 l -113,-117 -11,41 c -28,102 -41,194 -46,329 -5,124 -3,160 15,245 33,160 103,425 111,420 4,-3 11,-17 14,-32 z m 1180,-155 c 6,-38 4,-45 -26,-75 l -33,-33 -28,23 -28,22 46,53 c 26,28 50,52 54,52 5,0 11,-19 15,-42 z m -235,-49 24,-19 -59,-63 c -33,-34 -109,-114 -169,-178 l -111,-117 -28,23 -29,23 168,176 c 92,97 170,176 173,176 4,-1 18,-10 31,-21 z m 109,-92 22,-24 -160,-176 c -89,-98 -164,-177 -168,-177 -4,0 -20,12 -35,25 l -28,25 163,175 c 90,96 168,174 174,175 6,0 20,-11 32,-23 z m 177,-17 c 24,-54 9,-71 -29,-31 -24,26 -26,31 -14,50 18,29 22,27 43,-19 z m -66,-84 23,-24 -105,-120 c -58,-65 -130,-145 -160,-177 l -54,-59 -31,23 c -18,12 -32,26 -32,31 0,13 313,350 325,350 6,0 22,-11 34,-24 z m 201,-108 c 0,-5 -12,-8 -27,-8 -26,0 -26,0 -8,20 14,16 20,17 27,8 4,-7 8,-16 8,-20 z m -2271,-3 c 58,-49 63,-133 15,-225 -13,-25 -69,-106 -124,-180 -115,-154 -190,-299 -221,-421 -17,-67 -21,-104 -17,-199 3,-102 7,-124 32,-173 33,-68 110,-155 171,-194 25,-15 45,-34 45,-41 0,-21 -156,-175 -169,-168 -6,4 -11,16 -11,26 0,40 -43,133 -79,171 -30,31 -45,39 -73,39 -47,0 -86,-40 -165,-166 -161,-259 -328,-392 -693,-554 -137,-60 -245,-134 -349,-237 -46,-45 -85,-83 -86,-83 -1,0 -15,19 -30,43 -89,133 -265,272 -490,385 -70,35 -162,108 -151,119 2,3 85,26 184,53 427,116 664,240 847,445 117,130 171,211 305,465 113,214 223,396 287,477 212,268 473,439 675,442 57,1 71,-2 97,-24 z m 1467,-104 25,-19 -152,-161 c -83,-89 -154,-161 -158,-161 -3,0 -18,10 -33,23 l -28,22 151,158 c 83,86 155,157 161,157 5,0 21,-9 34,-19 z m 126,-135 c -57,-65 -286,-311 -292,-314 -3,-1 -19,11 -35,28 l -28,29 49,53 c 26,29 95,103 153,165 l 104,112 34,-26 c 33,-26 33,-26 15,-47 z m 102,-55 28,-30 -100,-114 c -55,-63 -123,-138 -150,-168 l -49,-53 -37,27 -36,28 137,150 c 76,83 145,159 153,169 20,25 22,25 54,-9 z m -584,-186 23,-25 -103,-107 c -57,-60 -115,-120 -130,-136 l -26,-27 -28,29 -28,29 127,131 c 70,72 131,131 135,131 3,0 17,-11 30,-25 z m 115,-96 35,-31 -99,-106 c -54,-59 -112,-122 -128,-141 l -30,-34 -37,28 c -20,15 -35,32 -34,36 3,9 249,279 254,279 2,0 19,-14 39,-31 z m 119,-108 28,-30 -128,-141 -128,-141 -30,30 -29,29 28,34 c 68,81 219,248 225,248 3,0 19,-13 34,-29 z m -532,-165 c -10,-12 -66,-73 -125,-137 l -106,-117 -36,32 -35,31 127,136 128,137 32,-31 c 32,-30 32,-31 15,-51 z m 108,-65 34,-28 -124,-136 -125,-136 -32,31 c -19,18 -29,36 -25,43 10,18 226,254 232,254 3,1 21,-12 40,-28 z m 124,-105 30,-23 -125,-135 -124,-135 -32,25 c -29,21 -31,26 -20,43 22,30 228,249 235,249 4,0 20,-11 36,-24 z m -614,-245 -102,-111 -28,20 c -62,44 -63,42 56,161 l 109,109 34,-34 34,-35 z m 202,30 32,-28 -104,-112 c -57,-61 -106,-111 -109,-111 -3,1 -21,14 -40,30 l -34,29 104,110 c 57,61 107,111 111,111 4,0 22,-13 40,-29 z m 52,-233 c -49,-56 -94,-109 -101,-117 -10,-14 -15,-12 -42,14 -17,16 -30,32 -29,37 2,4 47,56 101,116 l 98,109 31,-29 30,-28 z m -436,73 32,-28 -86,-94 c -48,-52 -91,-96 -96,-98 -5,-2 -25,12 -44,30 l -34,33 92,93 c 51,51 95,93 98,93 3,-1 20,-13 38,-29 z m 69,-243 c -50,-54 -93,-98 -96,-98 -3,0 -21,14 -39,31 -40,36 -43,28 71,146 l 80,82 37,-32 38,-31 z m 178,18 29,-23 -51,-59 c -28,-33 -70,-77 -92,-98 l -41,-40 -27,20 c -15,11 -28,25 -30,30 -4,11 163,194 175,194 4,0 20,-11 37,-24 z m -485,-21 34,-35 -25,-27 c -13,-16 -50,-55 -81,-89 l -56,-60 -41,35 -42,36 82,88 c 45,48 84,87 88,87 4,0 22,-16 41,-35 z m 85,-239 c -43,-47 -81,-86 -84,-86 -9,1 -71,59 -71,66 0,4 37,44 82,91 l 82,84 35,-35 34,-34 z m -290,5 29,-31 -79,-80 c -44,-44 -82,-80 -86,-80 -3,0 -23,16 -43,36 l -37,36 78,82 c 85,90 87,90 138,37 z m 460,9 28,-29 -60,-68 c -98,-110 -96,-109 -132,-82 -17,13 -30,26 -29,31 4,11 152,176 159,177 3,1 18,-12 34,-29 z m -305,-150 c 0,-4 -37,-46 -81,-94 l -82,-87 -39,38 -38,37 87,88 87,88 33,-32 c 18,-18 33,-35 33,-38 z m -377,-68 38,-38 -60,-57 c -33,-31 -63,-57 -68,-57 -4,0 -25,17 -47,36 l -38,36 58,59 c 32,33 63,59 69,59 6,0 28,-17 48,-38 z m 472,-12 c 20,-21 25,-33 18,-42 -5,-7 -40,-50 -78,-96 l -68,-83 -38,37 -38,38 82,87 c 45,48 85,87 88,88 3,1 18,-12 34,-29 z m -342,-118 37,-38 -59,-58 c -64,-64 -71,-64 -120,-12 l -25,26 59,60 c 33,33 62,60 65,60 3,0 23,-17 43,-38 z m -2786,-90 c 34,-74 58,-145 98,-297 64,-241 145,-445 216,-546 66,-94 185,-232 252,-296 88,-81 206,-145 302,-163 l 60,-11 -147,-151 -147,-152 -50,47 c -84,79 -86,79 -223,-61 -94,-95 -118,-126 -118,-148 0,-32 37,-70 364,-377 158,-148 206,-187 227,-187 34,0 100,52 202,158 95,101 98,117 29,185 l -48,47 335,334 c 250,250 338,332 348,325 17,-15 23,-10 237,208 l 188,192 -61,58 -61,58 -113,-115 c -274,-279 -300,-313 -267,-346 6,-6 -110,-128 -320,-338 l -329,-328 -55,48 c -31,26 -55,51 -54,55 2,3 116,122 254,263 l 251,256 51,-11 c 40,-10 57,-9 82,1 40,16 83,75 99,133 11,37 40,71 192,223 98,98 179,182 179,186 0,4 -26,32 -57,62 l -58,56 -112,-112 c -62,-62 -119,-126 -128,-143 l -15,-30 v 36 c 0,35 35,96 74,128 9,8 44,45 77,82 l 61,69 -47,68 c -39,57 -46,75 -43,107 2,27 11,44 29,57 33,25 57,16 132,-53 l 58,-52 259,264 c 237,242 259,263 274,248 15,-14 -5,-37 -246,-277 l -263,-261 58,-56 c 48,-47 60,-54 76,-46 10,6 130,124 265,263 190,194 249,249 258,240 9,-9 -15,-40 -108,-134 -65,-68 -179,-187 -252,-265 l -133,-142 47,-60 c 26,-34 51,-61 55,-61 4,0 125,120 268,267 232,237 263,265 276,252 13,-13 -15,-45 -252,-281 l -266,-266 42,-48 c 64,-73 66,-105 9,-147 -22,-17 -31,-18 -58,-9 -17,7 -45,23 -61,37 -23,18 -35,22 -47,16 -9,-6 -104,-97 -211,-205 l -195,-195 28,-42 c 97,-145 100,-386 9,-672 -43,-138 -66,-183 -159,-320 -74,-109 -114,-204 -114,-271 0,-132 93,-226 225,-226 170,0 393,155 536,373 96,146 207,381 273,577 61,183 121,315 188,413 96,142 253,271 426,353 483,227 584,301 683,499 49,98 62,184 34,215 -10,11 -24,20 -31,20 -7,0 -59,-24 -116,-53 -120,-62 -199,-82 -318,-81 -144,1 -246,41 -349,138 -53,51 -101,115 -101,137 0,12 89,104 94,98 2,-2 14,-26 27,-53 13,-26 47,-70 76,-96 136,-124 324,-126 565,-4 47,24 91,38 128,41 50,5 59,3 89,-23 75,-63 91,-179 46,-321 -45,-142 -171,-299 -319,-397 -83,-56 -221,-126 -384,-195 -150,-64 -249,-127 -338,-215 -133,-132 -196,-243 -284,-500 -153,-447 -319,-734 -511,-882 -147,-113 -285,-162 -480,-171 -235,-11 -414,41 -676,196 -349,208 -801,672 -1040,1071 -165,275 -270,583 -292,855 -27,341 57,627 264,893 22,28 42,51 45,52 3,0 19,-30 37,-68 z m 2892,-114 c -28,-32 -55,-61 -61,-64 -5,-4 -25,9 -44,27 l -34,33 62,63 62,63 33,-32 32,-31 z M 2850,5582 c 0,-4 -114,-121 -254,-261 l -254,-254 -39,30 c -21,17 -47,40 -57,52 l -20,22 174,174 174,174 62,-1 c 55,-1 68,3 120,36 55,34 94,46 94,28 z m -685,-492 c 0,-30 -4,-35 -26,-38 -36,-4 -55,21 -40,54 9,20 17,25 39,22 24,-3 27,-7 27,-38 z m 141,-98 c 20,-13 35,-52 29,-72 -13,-41 -85,-16 -85,28 0,42 28,63 56,44 z m 169,-197 c 0,-46 -21,-57 -60,-31 -45,30 -25,79 30,74 28,-3 30,-6 30,-43 z m 1208,-114 c 78,-77 15,-204 -92,-187 -102,16 -120,149 -29,206 42,26 83,20 121,-19 z m -265,-371 c 61,-37 69,-105 18,-156 -43,-43 -90,-46 -135,-8 -58,49 -46,140 22,169 43,19 56,18 95,-5 z M 2257,2355 c 63,-7 169,12 223,40 58,30 29,-5 -33,-39 -109,-61 -211,-59 -295,6 -55,42 -53,51 3,23 24,-13 71,-26 102,-30 z m 4602,-222 c -64,-81 -182,-104 -320,-62 -77,23 -102,42 -36,27 23,-5 89,-8 147,-5 85,4 115,9 160,30 67,31 66,31 49,10 z"
         id="path1" />
    </g>
  </g>
  <path
     style="fill:#ffffff;stroke-width:1.73746"
     d="m 215.01955,918.86476 c -4.94363,-2.83537 -15.0177,-11.76577 -22.52123,-19.96447 -13.75845,-15.03308 -18.05145,-17.71403 -18.05145,-11.27303 0,4.77188 4.16843,12.74063 12.52103,23.9367 3.7974,5.08995 6.56542,9.5934 6.15127,10.00755 -1.55272,1.55273 -16.8027,-11.6439 -25.6605,-22.2054 -11.77905,-14.0445 -17.2008,-25.8675 -26.13862,-56.99895 -3.97808,-13.85617 -9.7641,-30.66607 -12.85778,-37.35532 -3.09375,-6.68918 -16.43625,-27.0174 -29.650042,-45.17381 -33.529725,-46.07144 -51.299325,-73.50011 -64.38195,-99.37828 -18.7437,-37.07589 -19.8738,-45.084 -10.076475,-71.40256 7.18005,-19.28775 27.977775,-62.90688 29.99415,-62.90688 0.7404,0 3.241725,2.02429 5.5584,4.49842 6.668925,7.12221 27.318375,20.24881 42.001797,26.70006 7.40587,3.25383 13.46527,6.49731 13.46527,7.20774 0,0.71043 -6.03517,10.14686 -13.4115,20.96984 -10.504942,15.4136 -13.402192,20.99601 -13.368742,25.75924 0.027,3.7962 4.33245,15.22067 11.459622,30.40547 6.2793,13.3784 15.9117,34.87941 21.4053,47.78002 11.6802,27.42846 30.03472,64.57731 38.63002,78.18548 9.07665,14.37038 15.50423,20.31638 31.60853,29.24056 26.85187,14.87992 38.30407,28.7589 59.20642,71.75265 5.16405,10.62187 8.72903,20.19015 8.39355,22.5279 -0.49042,3.41722 -3.31237,0.68722 -17.73892,-17.16105 -9.43568,-11.6736 -18.23153,-21.22478 -19.54635,-21.22478 -6.96998,0 0.49725,15.74663 20.46787,43.16153 13.0041,17.85172 17.92433,26.09452 16.45373,27.56512 -2.13705,2.13705 -13.95218,-7.7658 -35.53965,-29.78775 -12.7047,-12.96037 -23.93588,-23.56432 -24.95828,-23.56432 -3.46162,0 -0.0946,13.88865 5.67503,23.40847 3.10357,5.12093 9.8802,14.06768 15.05917,19.88168 10.41383,11.69077 9.3108,13.1283 -4.14967,5.40817 z"
     id="path2" />
  <path
     style="fill:#ffffff;stroke-width:1.73746"
     d="m 243.86297,814.95219 c -5.9949,-8.76083 -23.07382,-22.41068 -40.13145,-32.07375 -15.40372,-8.72618 -21.68272,-13.04601 -20.4705,-14.08346 0.408,-0.34923 10.90598,-3.50629 23.32875,-7.01569 12.52403,-3.53796 30.71468,-10.32111 40.83023,-15.22521 16.13317,-7.82153 20.05192,-10.67967 33.88035,-24.71084 12.51525,-12.69866 17.85667,-19.8554 26.75445,-35.84705 31.7352,-57.03626 40.52535,-69.45413 60.27217,-85.14619 14.48858,-11.51352 24.46088,-16.71139 36.30765,-18.92461 9.77408,-1.82599 15.447,-0.23586 18.32175,5.13563 3.37508,6.30638 0.38618,14.33539 -12.00352,32.24502 -20.73968,29.97962 -27.2931,46.83614 -25.87718,66.5599 1.0236,14.25894 5.62928,23.55422 16.34393,32.98561 l 8.19862,7.21674 -7.67812,7.82346 -7.67813,7.82347 -1.46242,-5.64349 c -1.75365,-6.76765 -7.13415,-14.67627 -11.61705,-17.07542 -5.31045,-2.84207 -10.8168,1.02829 -19.18988,13.48846 -18.27345,27.19293 -30.01807,37.02246 -66.03067,55.26357 -18.8013,9.5232 -28.2963,15.52575 -36.6111,23.14477 l -11.2263,10.28685 z"
     id="path3" />
  <path
     style="fill:#ffffff;stroke-width:1.73746"
     d="m 250.8949,1108.9502 c -14.34188,-3.7428 -38.99828,-16.5034 -55.59855,-28.7745 -8.12258,-6.0042 -23.83815,-20.0418 -34.92345,-31.1946 C 83.099578,971.23734 59.153578,886.54959 97.102903,825.21954 c 3.329317,-5.38065 7.577547,-11.72798 9.440397,-14.10525 l 3.38707,-4.3224 3.34185,7.7973 c 1.83795,4.2885 6.1488,17.5704 9.57968,29.51542 11.5122,40.08165 18.39787,53.19728 39.7041,75.62715 11.19832,11.78895 28.59742,23.4078 35.05282,23.4078 6.19238,0 4.2084,4.28768 -7.6365,16.5033 l -12.53887,12.93143 -5.1015,-4.29263 c -7.7214,-6.49717 -11.5611,-5.52487 -22.5006,5.69775 -17.03498,17.47575 -17.61653,14.92778 9.43275,41.32819 29.36475,28.6604 34.66477,32.7992 40.21687,31.4057 6.19463,-1.5548 25.3521,-21.3239 25.3521,-26.1617 0,-2.1837 -1.7037,-6.1362 -3.78592,-8.7834 l -3.786,-4.8131 32.28052,-31.90776 c 17.75438,-17.54925 33.34815,-31.90778 34.653,-31.90778 1.30485,0 11.5392,-9.1908 22.74315,-20.42392 l 20.37068,-20.424 -13.90748,-13.81568 -13.90755,-13.81575 -11.26837,11.16818 c -6.19763,6.1425 -11.26838,10.37625 -11.26838,9.40837 0,-0.96795 3.57848,-5.24557 7.95225,-9.50587 11.2983,-11.0052 11.7123,-12.20723 6.7296,-19.53998 -4.8687,-7.1649 -5.53935,-14.27265 -1.49317,-15.8253 2.77792,-1.06605 10.31257,3.3285 14.63355,8.535 2.0538,2.47463 5.08087,0.0405 26.34187,-21.17947 13.21178,-13.1865 24.02138,-23.21453 24.02138,-22.28453 0,0.92993 -10.32915,12.04133 -22.95368,24.69188 l -22.95367,23.00107 5.03542,5.25585 c 2.76953,2.8908 6.29018,5.25593 7.82363,5.25593 1.53345,0 6.225,-3.50198 10.42567,-7.78208 4.20068,-4.28017 8.0301,-7.3896 8.50988,-6.90982 0.47977,0.47977 -2.88705,4.68915 -7.48185,9.35415 l -8.35433,8.48175 4.98413,6.24652 c 2.74125,3.43553 5.96137,6.24653 7.1559,6.24653 1.19452,0 2.17185,0.83407 2.17185,1.85347 0,1.01933 2.08245,4.58363 4.62765,7.92053 l 4.62772,6.06727 -3.52672,3.52665 -3.52665,3.52665 -6.8889,-3.51442 -6.8889,-3.51443 -20.61503,20.66888 -20.61502,20.66887 4.2504,8.31923 c 3.8103,7.458 4.23727,10.38765 4.12447,28.29997 -0.14685,23.31464 -4.80855,40.52224 -15.7683,58.20474 -16.3941,26.4505 -18.83685,34.7476 -13.7877,46.8319 10.06005,24.0771 50.60183,11.0599 74.31653,-23.8616 8.7555,-12.8931 20.22787,-36.9301 28.39702,-59.4976 16.01445,-44.24066 28.61918,-58.71619 68.79923,-79.01036 29.6067,-14.9538 46.40152,-25.69245 52.30147,-33.44168 11.26755,-14.7993 15.9354,-32.56177 9.63098,-36.64845 -2.38845,-1.54822 -5.37435,-0.74917 -14.76833,3.95228 -9.97147,4.9905 -14.10022,6.01485 -26.9613,6.68887 -13.8342,0.72503 -16.03507,0.38078 -24.714,-3.86542 -9.0777,-4.44135 -21.77895,-16.68758 -21.77895,-20.9988 0,-1.11323 1.6779,-3.51353 3.7287,-5.33393 3.15435,-2.79997 3.86348,-2.90835 4.60328,-0.70365 0.48097,1.4334 4.09402,5.84993 8.02897,9.81443 12.58088,12.67567 29.95358,14.06865 53.02358,4.25145 18.48885,-7.86765 21.85837,-8.20388 26.96782,-2.6907 8.81678,9.51352 7.23248,26.24835 -4.1454,43.78702 -11.21257,17.28383 -25.19452,27.51458 -57.45652,42.04133 -20.87168,9.39802 -31.97093,16.6221 -41.82173,27.22027 -11.26402,12.11843 -16.28647,21.4947 -27.61245,51.54874 -20.8539,55.3368 -37.0923,78.8807 -63.48247,92.0429 -16.6656,8.312 -42.21383,10.5974 -61.6797,5.5174 z"
     id="path4" />
  <path
     style="fill:#ffffff;stroke-width:0.383297"
     d="m 266.03057,1112.3371 c -9.8286,-1.1492 -16.25767,-2.5053 -23.57272,-4.9724 -10.71803,-3.6148 -25.44668,-11.1328 -37.37138,-19.0758 -28.32225,-18.865 -62.40652,-52.8918 -85.46572,-85.3213 C 110.93597,990.75369 104.95397,980.74674 98.887003,968.28324 77.103028,923.53186 72.743578,880.01109 86.474128,844.36366 91.190653,832.11864 100.60697,816.36301 108.16817,808.06479 l 1.7172,-1.88453 1.76498,3.41775 c 3.9435,7.63613 6.68565,15.4998 11.24295,32.24115 6.26835,23.02695 13.54665,42.09923 20.09452,52.6566 5.46255,8.80748 21.738,27.92543 28.94355,33.99848 9.28553,7.8261 19.93208,13.14525 29.81693,14.89665 2.05597,0.36427 3.6912,0.79447 3.6339,0.95602 -0.10418,0.29393 -25.81073,26.93175 -27.64485,28.64633 l -0.9729,0.90952 -4.2543,-3.9759 c -4.96425,-4.63935 -6.54923,-5.6961 -8.54745,-5.6988 -2.7177,0 -4.36635,1.2849 -13.8957,10.86068 -9.17198,9.2166 -12.4407,13.19032 -12.4407,15.12412 0,2.14358 1.72027,4.52138 7.64595,10.56874 9.51615,9.7113 37.22962,35.7621 44.39017,41.727 5.97593,4.9779 7.09223,5.3179 10.86285,3.3082 3.38153,-1.8023 8.64623,-6.3698 15.4851,-13.4345 6.771,-6.9945 8.8368,-9.9053 8.78048,-12.3719 -0.0525,-2.304 -1.00148,-3.7741 -5.26335,-8.1546 l -3.8622,-3.9696 21.63712,-21.67294 c 22.92675,-22.96462 38.72835,-38.36572 42.86025,-41.77395 2.15025,-1.77367 2.6715,-2.03542 3.67665,-1.84687 0.91373,0.17137 1.5495,-0.0457 2.8926,-0.98813 1.69035,-1.18597 38.39685,-37.9284 39.08693,-39.1251 0.28012,-0.48585 -0.90803,-1.81485 -5.7918,-6.47835 l -6.14415,-5.86717 -3.45473,3.41197 c -6.63945,6.5574 -25.46152,26.06033 -29.0019,30.051 -6.13927,6.92018 -7.77532,10.0206 -6.46147,12.24473 0.6051,1.02442 0.59925,1.03432 -3.08198,5.21895 -3.54457,4.02937 -60.58732,61.49536 -61.04235,61.49536 -0.3942,0 -8.98867,-7.62226 -9.70957,-8.61114 -0.6144,-0.84292 -0.6324,-1.04985 -0.1515,-1.7364 0.30022,-0.4287 7.94467,-8.37615 16.98757,-17.66092 9.0429,-9.28478 20.06505,-20.6055 24.49365,-25.15718 l 8.05208,-8.27587 3.74512,0.82365 c 5.10525,1.12282 7.65413,1.08202 10.15118,-0.1623 3.62497,-1.80645 7.08555,-6.38048 9.11497,-12.04785 1.8513,-5.1699 3.26625,-6.8013 25.17465,-29.02388 6.69765,-6.7938 12.1776,-12.6468 12.1776,-13.0068 0,-0.36 -2.5896,-3.25312 -5.75467,-6.42922 l -5.75468,-5.77478 -8.92882,9.0075 c -9.39968,9.48233 -14.39955,14.9922 -15.64335,17.23898 l -0.7479,1.35082 0.15982,-2.535 c 0.2454,-3.89265 2.15753,-7.19017 7.1982,-12.41355 6.84878,-7.09695 13.36688,-14.5287 13.36995,-15.24412 0,-0.37335 -1.44195,-2.78813 -3.20797,-5.3661 -4.36883,-6.37748 -5.34075,-8.3802 -5.3442,-11.01165 -0.007,-3.87218 1.35517,-6.17273 4.40205,-7.44548 2.48587,-1.03837 4.35645,0 11.61915,6.43973 2.52525,2.23965 4.7811,4.07212 5.013,4.07212 1.32007,0 5.79997,-4.26525 23.94967,-22.80195 20.46503,-20.9013 27.05918,-27.26407 28.6758,-27.6699 1.21118,-0.30397 1.67513,0.51488 1.01505,1.79138 -0.96022,1.85685 -9.59002,10.8222 -30.24397,31.4199 l -20.55008,20.49412 2.78205,2.8335 c 1.53015,1.55843 4.05893,3.93555 5.61945,5.28255 4.7559,4.10498 1.84973,6.21398 28.78268,-20.88735 24.13492,-24.2859 28.7559,-28.62127 28.74765,-26.97127 -0.007,1.20045 -2.98178,4.59172 -14.75543,16.81567 -10.23577,10.62713 -32.08687,33.76545 -33.70282,35.68808 -0.62663,0.74557 -0.9252,1.43152 -0.75068,1.72485 0.51165,0.86002 7.26383,9.25912 8.4801,10.54845 0.64628,0.6852 1.32728,1.24575 1.51335,1.24575 0.49238,0 13.46513,-12.78683 28.38743,-27.98063 15.6735,-15.95857 22.66147,-22.75387 24.23692,-23.5686 1.131,-0.58485 1.92443,-0.5139 1.92443,0.1722 0,1.1994 -6.54698,8.14155 -27.89588,29.57963 l -24.2883,24.38985 2.94915,3.39915 c 5.09483,5.87205 6.76733,8.98252 6.1509,11.43885 -0.531,2.11552 -5.1126,5.9544 -7.09755,5.9469 -1.40977,-0.008 -4.428,-1.49723 -8.05627,-3.98205 -1.74278,-1.19355 -3.55898,-2.14695 -4.08975,-2.14695 -1.2441,0 -6.91515,5.34982 -26.68215,25.17082 l -15.22538,15.26693 2.13308,3.258 c 2.72512,4.16242 3.6177,5.93137 5.0673,10.04242 5.32515,15.10283 3.76057,36.08535 -4.58153,61.44234 -2.96857,9.0233 -6.29685,15.7012 -12.6084,25.2976 -7.87717,11.9767 -10.45335,16.8956 -12.44077,23.7537 -1.1493,3.966 -1.29585,8.9377 -0.3783,12.8307 1.86907,7.9298 7.85047,13.9411 15.888,15.9674 3.69172,0.9307 11.33722,0.5729 15.71512,-0.7354 14.35838,-4.291 28.73018,-15.2353 40.52198,-30.8578 10.08022,-13.3549 22.8351,-39.3462 31.16407,-63.5046 10.83105,-31.41559 19.8471,-46.12219 37.05773,-60.44659 8.35327,-6.95242 14.88645,-10.86795 31.35097,-18.78922 29.1306,-14.01525 40.83345,-21.00885 49.31768,-29.47245 6.06532,-6.05063 12.20662,-16.34183 15.0723,-25.25738 1.2273,-3.8181 1.7052,-9.43507 0.98775,-11.60887 -0.61125,-1.85228 -2.77335,-3.71933 -4.30688,-3.71933 -0.73155,0 -4.68742,1.69268 -10.29262,4.40415 -14.14868,6.8442 -18.84893,8.18265 -29.8935,8.51228 -9.82995,0.2934 -15.52883,-0.5511 -22.46738,-3.3294 -8.31097,-3.3279 -17.90857,-11.37668 -23.3154,-19.55273 -2.43997,-3.68962 -2.45977,-3.90232 -0.58927,-6.32677 0.87937,-1.13985 2.89762,-3.30615 4.48507,-4.81403 l 2.88615,-2.74162 1.88873,3.57562 c 4.3746,8.28218 9.939,13.76438 17.61997,17.35973 5.03963,2.35897 7.66013,2.95567 14.01135,3.19027 10.34813,0.38235 18.4842,-1.64632 31.93313,-7.96215 7.87215,-3.6969 10.82302,-4.60642 15.71512,-4.8438 l 4.02465,-0.1953 1.81875,1.22228 c 5.63723,3.78832 8.48385,10.02367 8.48813,18.5925 0.007,7.58197 -1.56623,13.82482 -5.49458,21.84787 -6.79837,13.8846 -18.74152,26.3934 -33.71017,35.30685 -6.76718,4.02968 -18.03008,9.6372 -29.87138,14.87243 -11.78047,5.20822 -14.70487,6.6456 -20.4084,10.03117 -6.5922,3.91305 -11.56935,7.8594 -17.80627,14.11853 -12.41025,12.45435 -18.16155,22.4793 -26.625,46.40936 -5.95988,16.8514 -8.78048,24.1784 -13.1322,34.1133 -9.24435,21.1049 -19.38585,37.4528 -30.14393,48.5916 -13.1847,13.6512 -29.04067,21.7979 -47.18587,24.2437 -4.16535,0.5615 -20.09948,1.0635 -22.99778,0.7246 z"
     id="path5" />
  <path
     style="fill:#ffffff;stroke-width:0.383297"
     d="m 189.56297,984.41326 c -2.10817,-1.75282 -4.4997,-3.92977 -5.31457,-4.83772 l -1.48155,-1.6509 17.3868,-17.38988 17.3868,-17.38995 5.55937,-0.0165 c 6.43065,-0.0195 6.96323,-0.16087 12.05978,-3.20227 1.98525,-1.1847 4.4106,-2.49743 5.3898,-2.91713 1.9161,-0.82132 4.01655,-1.01182 4.01655,-0.36427 0,0.5388 -50.21768,50.96377 -50.7498,50.95927 -0.23115,0 -2.14508,-1.4376 -4.25318,-3.19035 z"
     id="path6" />
  <path
     style="fill:#ffffff;stroke-width:0.383297"
     d="m 366.80012,803.10279 c -1.56052,-1.3413 -3.26827,-2.90723 -3.79492,-3.47985 l -0.95753,-1.04108 5.8182,-5.71927 c 3.20003,-3.14565 6.08445,-5.71935 6.4098,-5.71935 0.32535,0 2.3181,1.6572 4.42838,3.68272 l 3.83685,3.68265 -3.73133,3.54615 c -4.76422,4.5279 -8.21535,7.47893 -8.75145,7.48328 -0.2313,0 -1.6974,-1.09395 -3.258,-2.43525 z"
     id="path7" />
  <path
     style="fill:#ffffff;stroke-width:0.383297"
     d="m 381.5944,817.46476 c -0.63248,-0.39735 -2.23358,-1.83 -3.558,-3.18367 l -2.4081,-2.46105 5.94675,-5.8395 c 4.95697,-4.86758 6.05947,-5.77725 6.6243,-5.46548 0.37275,0.2058 2.14035,1.8525 3.92812,3.65948 l 3.25058,3.28537 -4.20878,4.2339 c -3.94995,3.97358 -7.06417,6.4983 -8.01165,6.495 -0.22732,0 -0.93082,-0.32662 -1.56322,-0.72405 z"
     id="path8" />
  <path
     style="fill:#ffffff;stroke-width:0.383297"
     d="m 394.96397,829.71159 c -0.60727,-0.37485 -2.1927,-1.69755 -3.5232,-2.93925 l -2.41912,-2.25773 6.15367,-6.1257 6.15368,-6.1257 2.8773,2.8581 c 1.5825,1.57193 2.87722,3.0054 2.87722,3.18548 0,0.57232 -9.7659,11.607 -10.533,11.9013 -0.26535,0.10185 -0.97927,-0.12158 -1.58655,-0.4965 z"
     id="path9" />
  <path
     style="fill:#ffffff;stroke-width:0.383297"
     d="m 409.8244,810.00736 -3.56228,-3.57712 3.93068,-4.18155 c 6.82965,-7.26548 12.3861,-12.80565 12.84315,-12.80565 0.6795,0 5.12985,4.92487 5.12152,5.6676 -0.007,0.50797 -12.08415,15.69937 -14.30977,17.99782 -0.36375,0.37568 -1.21245,-0.27847 -4.0233,-3.1011 z"
     id="path10" />
  <path
     style="fill:#ffffff;stroke-width:0.132862"
     d="m 396.78377,798.29874 c -2.04885,-1.99433 -3.73717,-3.68588 -3.7518,-3.75893 -0.0143,-0.0735 3.83513,-4.03425 8.55503,-8.8026 l 8.58157,-8.66962 1.88438,1.78717 c 1.85145,1.75598 4.0551,4.11735 4.4508,4.76948 0.192,0.31657 0.17505,0.36562 -0.38295,1.1061 -1.32833,1.76257 -5.42513,6.3108 -11.28075,12.52357 -2.23343,2.36963 -4.12155,4.38998 -4.19595,4.48973 -0.10515,0.141 -0.9615,-0.6231 -3.86033,-3.4449 z"
     id="path11" />
  <path
     style="fill:#ffffff;stroke-width:0.132862"
     d="m 386.43887,787.96149 c -0.99015,-0.78683 -6.58537,-6.08385 -6.58537,-6.23438 0,-0.1854 11.93452,-12.58554 13.04827,-13.55727 3.00315,-2.62033 4.10678,-2.51892 7.27965,0.66893 0.91343,0.91774 2.16495,2.22297 2.78115,2.90052 l 1.12035,1.23195 -6.56775,6.5415 c -6.81615,6.789 -9.43072,9.24757 -9.8346,9.24757 -0.13005,0 -0.6888,-0.35947 -1.2417,-0.79882 z"
     id="path12" />
  <path
     style="fill:#ffffff;stroke-width:0.132862"
     d="m 405.1171,764.12256 c -2.07173,-1.77714 -3.8838,-3.34823 -4.0269,-3.49131 -0.2583,-0.25828 -0.22575,-0.29711 4.55325,-5.43023 5.83912,-6.27172 11.65545,-12.14535 12.027,-12.14535 0.4284,0 1.9422,1.32994 4.73385,4.15891 2.31187,2.34272 2.60572,2.68807 2.45797,2.88906 -0.60675,0.82564 -15.67852,17.16949 -15.88402,17.22474 -0.0517,0.0139 -1.78943,-1.42868 -3.86115,-3.20582 z"
     id="path13" />
  <path
     style="fill:#ffffff;stroke-width:0.132862"
     d="m 420.77507,778.12426 c -1.88722,-1.46197 -4.76587,-4.2285 -5.82082,-5.5941 -0.14685,-0.19012 -0.036,-0.38047 0.81292,-1.395 1.68713,-2.01643 5.3118,-5.85169 12.08888,-12.79126 l 3.29977,-3.37892 3.39255,3.39252 3.39248,3.39253 -4.08578,4.5037 c -7.02937,7.74831 -11.63032,12.54328 -12.03322,12.54066 -0.10073,-6e-4 -0.5718,-0.30218 -1.04678,-0.67013 z"
     id="path14" />
  <path
     style="fill:#ffffff;stroke-width:0.132862"
     d="m 432.66625,787.93741 c -1.43828,-0.75682 -4.58378,-3.53737 -4.58378,-4.05187 0,-0.14003 0.4335,-0.79703 0.9633,-1.45995 2.23133,-2.79218 10.16865,-11.66505 13.2696,-14.83363 1.32083,-1.34968 1.58063,-1.55886 1.79363,-1.44443 0.45247,0.24306 1.96312,1.65844 3.92745,3.67988 l 1.93657,1.99295 -2.46292,2.79008 c -5.52563,6.25965 -8.8494,9.91357 -10.34858,11.3766 -2.24295,2.1888 -3.22912,2.61667 -4.49527,1.95037 z"
     id="path15" />
  <path
     style="fill:#ffffff;stroke-width:0.132862"
     d="m 452.761,764.71442 c -1.93853,-1.46685 -3.55343,-3.03468 -3.55343,-3.44983 0,-0.71938 3.95693,-5.52705 9.51923,-11.56581 2.79105,-3.03012 6.5919,-6.84707 7.3194,-7.35031 0.53407,-0.36949 0.5487,-0.3717 0.98602,-0.14934 0.95115,0.4836 5.9577,4.21463 5.9577,4.43983 0,0.12418 -6.54727,7.64639 -8.56095,9.83579 -1.82347,1.98255 -9.396,9.59371 -9.62032,9.66942 -0.06,0.0203 -0.9816,-0.6231 -2.04765,-1.42975 z"
     id="path16" />
  <path
     style="fill:#ffffff;stroke-width:0.132862"
     d="m 442.15262,755.3925 c -1.3815,-0.98766 -5.10285,-4.38451 -5.3706,-4.90222 -0.6399,-1.23748 0.13658,-2.56247 3.7338,-6.37172 2.26605,-2.39951 13.50323,-13.95053 13.57155,-13.95053 0.03,0 0.90195,0.73535 1.9383,1.63411 1.03643,0.89876 2.679,2.28347 3.65025,3.07713 l 1.76588,1.44302 -0.38265,0.41051 c -0.21038,0.22577 -2.73848,2.95149 -5.61795,6.05715 -7.746,8.35437 -12.25358,13.02049 -12.5781,13.02049 -0.069,0 -0.38895,-0.18808 -0.71048,-0.41794 z"
     id="path17" />
  <path
     style="fill:#ffffff;stroke-width:0.132862"
     d="m 429.54842,743.37758 c -0.8952,-0.51166 -2.7801,-2.10245 -4.83885,-4.08383 l -1.84507,-1.77567 7.69102,-7.70436 c 6.90323,-6.91531 10.94715,-10.80612 11.23133,-10.80612 0.21097,0 2.62912,1.91202 4.71937,3.73155 l 2.17898,1.89676 -0.58223,0.60705 c -0.32017,0.33388 -2.21737,2.40069 -4.21597,4.59292 -7.3383,8.04931 -13.0044,13.88534 -13.47825,13.8825 -0.14678,-7.5e-4 -0.53393,-0.15424 -0.86033,-0.3408 z"
     id="path18" />
  <path
     style="fill:#ffffff;stroke-width:0.132862"
     d="m 451.15442,718.09138 c -2.9085,-2.09084 -3.82912,-2.89004 -4.19145,-3.63851 -0.37372,-0.77198 -0.3528,-1.20538 0.10395,-2.15481 0.8553,-1.77785 2.54078,-3.60641 12.4293,-13.48461 l 7.77968,-7.77154 2.40097,2.39062 c 1.32053,1.31484 2.81745,2.84917 3.32648,3.40961 l 0.9255,1.019 -5.08643,5.42759 c -2.7975,2.98518 -7.37955,7.9225 -10.1823,10.97182 -2.80275,3.04932 -5.10457,5.54226 -5.11522,5.53985 -0.0105,-0.002 -1.0863,-0.77147 -2.39048,-1.70902 z"
     id="path19" />
  <path
     style="fill:#ffffff;stroke-width:0.132862"
     d="m 464.79902,730.08594 c -1.71247,-1.22403 -6.0918,-4.88077 -6.0918,-5.0867 0,-0.0562 2.98335,-3.26587 6.62955,-7.13248 7.86263,-8.33776 14.26493,-14.80263 14.65935,-14.80263 0.35025,0 1.55048,0.80496 2.89208,1.93963 2.02867,1.71583 4.05225,3.53535 4.05225,3.64364 0,0.11329 -9.33248,10.19506 -13.4028,14.47893 -3.26633,3.43767 -6.92528,7.15046 -7.34355,7.45164 l -0.35205,0.25347 z"
     id="path20" />
  <path
     style="fill:#ffffff;stroke-width:0.132862"
     d="m 477.03505,741.18019 c -0.92153,-0.58057 -4.3107,-4.03063 -4.70745,-4.79197 l -0.32423,-0.62223 0.58725,-0.7064 c 2.71193,-3.26215 18.9762,-21.50542 19.26278,-21.60673 0.0637,-0.0225 1.43775,1.19613 3.0534,2.70813 2.598,2.43129 2.91667,2.77392 2.75662,2.96393 -0.62602,0.74313 -8.29117,9.63607 -11.12175,12.90318 -1.86757,2.15569 -4.48717,5.18993 -5.82127,6.74276 -1.83248,2.13294 -2.4993,2.82332 -2.72693,2.82332 -0.16575,0 -0.597,-0.18629 -0.95842,-0.41399 z"
     id="path21" />
  <path
     style="fill:#ffffff;stroke-width:0.132862"
     d="m 500.80907,711.58863 c -1.3113,-1.0155 -2.57662,-2.06559 -2.8119,-2.33352 -0.84502,-0.96244 -0.5592,-1.64101 1.85835,-4.41181 3.85808,-4.42189 14.34788,-15.60411 19.02435,-20.28023 1.64168,-1.6415 2.586,-2.49117 2.7687,-2.49117 0.15255,0 0.70118,0.28824 1.21928,0.64053 1.0647,0.72404 4.95022,3.6981 5.05687,3.87069 0.0383,0.062 -2.60767,3.00341 -5.88,6.53646 -3.27232,3.53304 -8.80627,9.53268 -12.29775,13.33254 -3.49147,3.79986 -6.39435,6.9255 -6.4509,6.94586 -0.0562,0.0204 -1.1757,-0.79385 -2.487,-1.80935 z"
     id="path22" />
  <path
     style="fill:#ffffff;stroke-width:0.132862"
     d="m 488.85677,701.30715 c -1.7697,-1.79988 -2.4984,-2.63926 -2.81617,-3.24395 -0.64275,-1.22299 -0.6012,-1.42382 0.5931,-2.86611 3.53715,-4.2716 15.56325,-17.46804 20.21662,-22.18416 l 1.92495,-1.95084 0.4755,0.24487 c 0.2616,0.13467 0.90173,0.56414 1.4226,0.95437 1.545,1.1575 5.34795,4.28975 5.3217,4.38316 -0.033,0.11663 -22.63485,24.86435 -24.52657,26.85489 -0.21293,0.22398 -0.34545,0.11271 -2.61173,-2.19223 z"
     id="path23" />
  <path
     style="fill:#ffffff;stroke-width:0.132862"
     d="m 475.55215,689.66799 c -1.76955,-1.58388 -3.30938,-2.9718 -3.4218,-3.08426 -0.2205,-0.22047 -1.18643,0.83555 18.61267,-20.34769 l 6.54308,-7.00054 2.6727,2.60229 c 2.67487,2.60441 3.05797,3.06458 3.05797,3.67282 0,0.58687 -0.924,1.66131 -8.71545,10.13452 -2.36047,2.56698 -6.77797,7.40981 -9.81675,10.76185 -3.03877,3.35203 -5.56785,6.10501 -5.62012,6.11772 -0.0525,0.0127 -1.54283,-1.27281 -3.3123,-2.85671 z"
     id="path24" />
  <path
     style="fill:#ffffff;stroke-width:0.132862"
     d="m 505.423,656.95333 -2.70705,-2.79771 0.38295,-0.41704 c 1.20585,-1.31321 17.76367,-18.29676 19.46887,-19.96942 2.76825,-2.71544 4.8372,-4.67174 5.59553,-5.29087 l 0.63097,-0.51515 0.56355,0.36529 c 0.68655,0.44498 4.48305,4.3045 4.48305,4.5574 0,0.0995 -2.28885,2.55272 -5.08627,5.45166 -7.25888,7.52229 -19.62495,20.44363 -20.0676,20.96869 -0.20625,0.24468 -0.41595,0.44487 -0.46598,0.44487 -0.0503,0 -1.30912,-1.25897 -2.79802,-2.79772 z"
     id="path25" />
  <path
     style="fill:#ffffff;stroke-width:0.132862"
     d="m 518.94932,669.50412 c -1.12665,-0.85114 -2.40202,-1.85372 -2.83425,-2.22795 -0.80407,-0.69628 -2.07067,-2.12975 -2.07067,-2.3435 0,-0.52299 20.79945,-23.51362 24.6864,-27.28706 l 0.66765,-0.64819 0.43215,0.3077 c 1.3254,0.94377 6.79117,5.69694 6.73462,5.85657 -0.0195,0.0559 -2.3127,2.54083 -5.0952,5.52215 -7.26517,7.78413 -14.63047,15.84394 -18.24817,19.96897 -1.12148,1.27881 -2.08073,2.34168 -2.13165,2.36196 -0.051,0.0203 -1.01423,-0.65952 -2.14088,-1.51065 z"
     id="path26" />
  <path
     style="fill:#ffffff;stroke-width:0.132862"
     d="m 529.465,678.95827 c -2.61083,-2.61295 -2.82998,-2.8678 -2.6568,-3.08905 4.2468,-5.42394 22.8309,-26.23722 24.5853,-27.53427 0.35407,-0.26181 0.456,-0.28202 0.71707,-0.14229 0.57773,0.30918 2.23275,1.86096 3.99885,3.74937 l 1.77173,1.89447 -0.50978,0.53253 c -0.28042,0.2929 -4.0902,4.48092 -8.46615,9.30672 -15.0186,16.56252 -16.44727,18.13043 -16.52085,18.13043 -0.0405,0 -1.35427,-1.28156 -2.91937,-2.84791 z"
     id="path27" />
  <path
     style="fill:#ffffff;stroke-width:0.132862"
     d="m 561.32507,646.94618 c -0.92347,-0.67856 -2.51842,-1.88365 -3.54427,-2.678 l -1.86525,-1.44426 0.39735,-0.45258 c 0.34627,-0.39438 9.10282,-9.99244 20.62935,-22.61183 1.96905,-2.15569 4.63072,-5.1131 5.91495,-6.57204 3.27052,-3.71553 3.48067,-3.92407 3.95392,-3.92407 0.21885,0 0.67073,0.18279 1.01393,0.41011 0.59227,0.39228 4.94017,4.92506 4.94017,5.15019 0,0.37983 -29.32905,33.31979 -29.69467,33.35061 -0.0367,0.003 -0.822,-0.54958 -1.74548,-1.22813 z"
     id="path28" />
  <path
     style="fill:#ffffff;stroke-width:0.132862"
     d="m 550.11647,637.31874 c -0.68737,-0.41964 -1.98052,-1.61648 -3.7812,-3.4996 l -1.7379,-1.81742 2.62673,-2.83881 c 1.44465,-1.56134 3.942,-4.27014 5.54962,-6.01955 1.60763,-1.7494 5.43405,-5.87233 8.5032,-9.16204 3.06908,-3.28971 7.42515,-7.96853 9.68003,-10.39736 2.4477,-2.63648 4.161,-4.38047 4.2516,-4.32776 0.33022,0.19213 3.53557,2.66505 4.5489,3.50945 0.5916,0.49296 1.15117,1.07886 1.24365,1.30201 0.15067,0.36373 0.13335,0.46493 -0.16733,0.97798 -0.38767,0.66151 -4.57665,5.33544 -11.5779,12.9183 -11.74507,12.72071 -18.27585,19.59984 -18.60622,19.59861 -0.0743,-2.7e-4 -0.31395,-0.10998 -0.53318,-0.24381 z"
     id="path29" />
  <path
     style="fill:#ffffff;stroke-width:0.132862"
     d="m 537.91607,626.30298 c -0.40402,-0.27403 -1.70197,-1.26792 -2.88427,-2.20863 l -2.14973,-1.71041 1.25558,-1.279 c 0.69052,-0.70344 4.47495,-4.65702 8.40975,-8.78571 7.4802,-7.84884 18.01185,-18.48333 20.05515,-20.25099 1.3731,-1.18782 1.50885,-1.21029 2.81062,-0.46546 1.27463,0.72924 4.30995,3.05583 4.20615,3.22405 -0.0525,0.0846 -3.65055,3.92052 -7.99635,8.5242 -4.3458,4.60368 -9.36825,9.92481 -11.16097,11.82474 -4.50413,4.77353 -11.33978,11.62545 -11.59785,11.62545 -0.11738,0 -0.54405,-0.22421 -0.94808,-0.49824 z"
     id="path30" />
  <path
     style="fill:#ffffff;stroke-width:0.132862"
     d="m 573.62792,589.15803 c -0.28942,-0.24687 -1.51282,-1.24272 -2.71852,-2.21297 -1.2057,-0.97026 -2.19225,-1.8076 -2.19225,-1.86076 0,-0.12027 20.01705,-21.10687 25.72672,-26.97283 5.95845,-6.12156 8.04465,-8.1492 8.28848,-8.05564 0.49762,0.19094 4.8597,3.45165 5.11822,3.82589 0.0697,0.10128 -3.0735,3.48011 -9.37222,10.07413 -2.41148,2.52449 -6.357,6.68149 -8.76788,9.2378 -5.7381,6.08428 -14.15497,14.97485 -14.93797,15.7786 l -0.61823,0.63466 z"
     id="path31" />
  <path
     style="fill:#ffffff;stroke-width:0.132862"
     d="m 585.1861,598.4225 c -0.96698,-0.65622 -1.7292,-1.27399 -3.54968,-2.87692 l -1.82842,-1.60995 0.31177,-0.34107 c 1.1748,-1.28528 15.18068,-16.33454 16.94843,-18.21103 8.62627,-9.15682 15.85747,-16.34205 16.44645,-16.34205 0.1611,0 0.7614,0.353 1.33395,0.78444 1.2951,0.97587 3.82162,3.65555 3.6735,3.89611 -0.16403,0.26635 -19.6389,21.65393 -23.5548,25.86821 -4.63118,4.98405 -8.7648,9.17704 -9.04718,9.17704 -0.12427,0 -0.45457,-0.15515 -0.73402,-0.34478 z"
     id="path32" />
  <path
     style="fill:#ffffff;stroke-width:0.132862"
     d="m 595.8211,607.56279 c -2.23733,-1.63569 -3.91943,-3.16137 -3.91943,-3.55485 0,-0.41586 1.46723,-2.22455 5.43705,-6.70215 9.47175,-10.68333 25.84448,-27.91596 26.81445,-28.22276 0.65273,-0.20644 1.99965,0.79435 4.36973,3.24668 l 1.34625,1.39304 -5.59785,6.38813 c -8.736,9.9692 -25.97288,29.0323 -26.2335,29.01288 -0.0503,-0.004 -1.04753,-0.70616 -2.2167,-1.56097 z"
     id="path33" />
  <path
     style="fill:#ffffff;stroke-width:0.132862"
     d="m 634.12885,568.01651 c -0.72653,-0.24979 -1.7106,-1.02525 -2.84415,-2.24129 -2.2569,-2.42109 -2.36033,-2.94082 -1.00905,-5.07 0.48517,-0.76444 1.2351,-1.53088 1.49782,-1.53088 0.40328,0 1.08315,0.96204 1.92435,2.72319 2.01863,4.22636 2.19473,6.72529 0.43103,6.11898 z"
     id="path34" />
  <path
     style="fill:#ffffff;stroke-width:0.132862"
     d="m 621.88525,556.66238 c -0.69908,-0.57776 -1.90283,-1.54369 -2.6751,-2.14652 -1.23645,-0.96519 -1.38248,-1.12133 -1.22348,-1.30783 4.01828,-4.71359 7.67078,-8.6453 9.05205,-9.74414 l 0.65925,-0.52449 0.23573,0.29103 c 0.62452,0.77126 1.51102,5.02416 1.40347,6.73293 -0.1014,1.61014 -0.438,2.1171 -3.40297,5.12546 -1.42245,1.44322 -2.62935,2.62403 -2.68208,2.62403 -0.0525,0 -0.6678,-0.47271 -1.36687,-1.05047 z"
     id="path35" />
  <path
     style="fill:#ffffff;stroke-width:0.132862"
     d="m 609.82322,547.30042 c -1.12447,-1.05009 -2.21595,-2.09197 -2.42542,-2.3153 l -0.38085,-0.40605 6.6252,-7.01828 c 10.17352,-10.77708 19.48665,-20.57022 19.56195,-20.57022 0.0375,0 0.30465,0.77725 0.59407,1.72722 0.46148,1.51489 0.52778,1.89869 0.53955,3.12225 0.0135,1.39227 0.012,1.39707 -0.5319,2.39907 -1.20262,2.21414 -4.10332,5.84414 -9.07162,11.35218 -2.82623,3.13323 -12.65828,13.61838 -12.77018,13.61838 -0.0533,0 -1.01632,-0.85917 -2.1408,-1.90925 z"
     id="path36" />
  <path
     style="fill:#ffffff;stroke-width:0.495046"
     d="m 593.74622,652.76851 c -3.23092,-1.11575 -5.2215,-2.53294 -5.42025,-3.85894 -0.0863,-0.57596 1.0917,-2.84532 2.80103,-5.39585 5.29785,-7.90495 17.22052,-21.39008 36.00667,-40.72533 l 7.87568,-8.10583 8.16825,-0.34479 8.16832,-0.34479 4.70295,4.19663 c 2.5866,2.30815 5.92815,4.7726 7.42568,5.47657 2.4969,1.17374 3.26542,1.28024 9.264,1.2837 5.49607,0.003 6.6756,-0.13051 7.3821,-0.83664 0.7911,-0.79064 0.75547,-0.87437 -0.60068,-1.41366 -3.88965,-1.54674 -4.83307,-2.09353 -6.90165,-4.00033 -1.2279,-1.13182 -3.2115,-3.64055 -4.40797,-5.57495 -2.06003,-3.33046 -3.1842,-5.81922 -6.67643,-14.78039 -1.67685,-4.30292 -3.36442,-7.08485 -8.06737,-13.29891 -6.04958,-7.99348 -11.58008,-19.15187 -12.12915,-24.47204 -0.2655,-2.57213 -0.2304,-2.65979 2.00265,-5.00952 l 2.27287,-2.39158 0.80235,1.13066 c 5.25158,7.40024 20.72985,24.05828 26.1195,28.11026 6.57278,4.94155 10.35023,2.4831 7.056,-4.59227 -1.70272,-3.65725 -3.9825,-6.93167 -16.1274,-23.16351 -11.3943,-15.22881 -13.71705,-18.60287 -15.62062,-22.69127 -1.75103,-3.76083 -1.6068,-5.80904 0.54195,-7.69567 2.36902,-2.08002 3.93285,-2.39995 6.12982,-1.25404 2.84813,1.48555 14.09723,13.04095 22.3686,22.97767 12.24908,14.71527 15.47025,17.82168 18.47993,17.82168 1.6611,0 2.271,-1.29156 2.26387,-4.79416 -0.018,-8.64776 -5.71777,-18.24539 -21.84967,-36.78977 -7.3587,-8.45924 -11.0379,-13.04071 -12.65213,-15.75498 -1.26862,-2.13306 -1.26982,-2.14601 -0.32235,-3.41511 1.30013,-1.74137 4.00515,-3.10702 6.15428,-3.10702 3.93097,0 11.13967,4.85802 20.20117,13.61378 6.957,6.72224 12.4938,13.27952 18.732,22.18442 4.44638,6.34709 7.88348,10.24116 9.03938,10.24116 2.59012,0 3.04845,-10.53553 0.82627,-18.9927 -2.7696,-10.54038 -9.23925,-18.63918 -23.5884,-29.52846 -8.61435,-6.53718 -11.88112,-9.76275 -11.88112,-11.73108 0,-3.24249 4.92975,-5.34493 9.71017,-4.1412 6.0561,1.52495 18.11378,9.19436 24.35573,15.49179 8.32177,8.39574 13.22197,17.50327 15.92317,29.59482 4.66823,20.89703 0.88838,43.11508 -11.8329,69.55408 -8.96422,18.63066 -17.17065,27.30126 -39.14632,41.36033 -27.00893,17.27919 -57.3945,31.38806 -75.5724,35.09039 -6.13425,1.24938 -8.53755,1.2648 -11.97758,0.0769 z"
     id="path37" />
  <path
     style="fill:#ffffff;stroke-width:0.495046"
     d="m 724.4839,462.47148 c -1.70453,-0.85001 -3.04118,-1.70958 -2.9703,-1.91016 0.15862,-0.44871 12.8004,-14.47221 27.36397,-30.35479 13.96965,-15.23495 30.81353,-33.95716 41.86965,-46.53882 4.78523,-5.44552 9.0696,-10.20495 9.52073,-10.57652 0.7149,-0.58875 1.1391,-0.4325 3.30022,1.21558 1.36395,1.04014 2.47988,1.9986 2.47988,2.12992 0,0.40639 -4.44015,6.00256 -8.87948,11.19139 -15.72007,18.374 -60.32347,67.54108 -67.43317,74.33285 l -2.15228,2.05601 z"
     id="path38" />
  <path
     style="fill:#ffffff;stroke-width:0.137877"
     d="m 712.67665,456.0704 c -0.90428,-0.45936 -3.83888,-2.66538 -3.83888,-2.88578 0,-0.0675 2.90055,-3.20843 6.44573,-6.97989 16.70985,-17.77644 50.7897,-55.39952 64.78102,-71.51634 1.29728,-1.49435 9.42338,-11.14834 9.78788,-11.62825 0.0195,-0.0256 1.125,0.76644 2.4567,1.76011 1.49857,1.11817 2.50432,1.96716 2.6391,2.22777 0.2013,0.38928 0.19882,0.45652 -0.0322,0.89037 -0.35288,0.66303 -17.97848,20.75787 -27.80888,31.70491 -23.0664,25.68638 -41.78377,46.01694 -49.79182,54.08319 -3.17858,3.20174 -3.06405,3.14384 -4.63875,2.34391 z"
     id="path39" />
  <path
     style="fill:#ffffff;stroke-width:0.137877"
     d="m 699.25532,449.13975 c -1.49422,-0.4355 -2.4129,-0.84483 -2.4129,-1.07511 0,-0.57165 1.57688,-2.34604 20.60715,-23.18852 5.60858,-6.14266 13.92263,-15.2013 18.47558,-20.1303 20.64345,-22.34838 34.27372,-37.06595 37.03072,-39.98458 3.69255,-3.90899 8.59583,-8.7552 8.8584,-8.7552 0.24398,0 1.1415,0.65448 1.67063,1.21825 0.26932,0.28697 0.39645,0.56231 0.3885,0.84159 -0.0173,0.61803 -0.85493,2.10353 -2.1855,3.87728 -4.7958,6.39312 -25.6347,29.7946 -52.78313,59.274 -18.40432,19.98447 -23.12047,24.89086 -25.99275,27.04125 -1.5852,1.1868 -2.14545,1.32182 -3.6567,0.88134 z"
     id="path40" />
  <path
     style="fill:#ffffff;stroke-width:0.230608"
     d="m 810.15835,366.71277 c -0.64028,-0.36729 -1.65923,-1.11867 -2.26418,-1.66974 l -1.10002,-1.00197 3.39915,-3.92033 c 1.86952,-2.15618 4.86457,-5.52882 6.65557,-7.49475 6.77325,-7.43449 20.05823,-22.56886 30.56678,-34.82177 8.04397,-9.37925 12.45112,-14.2685 15.513,-17.20994 2.2851,-2.19521 2.98417,-2.7195 4.83427,-3.62545 4.40895,-2.15905 8.0268,-6.23708 9.32063,-10.50626 0.41145,-1.35749 0.39067,-4.4421 -0.0412,-6.14131 -0.47153,-1.85493 -1.72028,-4.32588 -2.97945,-5.89541 -2.04848,-2.55345 -5.14845,-4.08299 -8.7126,-4.2988 -2.59883,-0.15737 -4.4298,0.2054 -6.8163,1.35049 -5.63108,2.70187 -8.8914,9.44987 -7.5642,15.65585 0.72082,3.37036 2.289,6.23567 4.1406,7.56538 1.33957,0.96204 1.49032,1.458 0.77257,2.54254 -3.3039,4.99255 -54.1719,62.30291 -55.2993,62.30291 -0.34425,0 -2.3217,-1.74239 -3.53092,-3.11127 l -1.32848,-1.5038 7.52805,-7.89685 c 11.97143,-12.55794 17.1411,-17.39455 19.26743,-18.026 1.62682,-0.48312 2.4855,-0.99303 3.86452,-2.29485 2.37555,-2.2426 4.22573,-5.31868 4.7844,-7.95457 1.28048,-6.04122 -1.07977,-11.56801 -5.97292,-13.98635 -6.5856,-3.2548 -14.02073,0.20198 -16.56353,7.70081 -0.40087,1.18227 -0.51442,2.02339 -0.5019,3.71862 0.027,3.69936 1.01265,6.63916 3.05295,9.10823 0.52058,0.62995 0.9465,1.31746 0.9465,1.52779 0,0.71798 -1.99837,3.08292 -7.1862,8.50443 -2.8521,2.9806 -6.9282,7.3167 -9.05797,9.63578 -2.1297,2.31907 -4.15433,4.36237 -4.49903,4.54066 -0.55672,0.28788 -0.70477,0.27675 -1.32345,-0.0995 -0.92017,-0.55961 -1.686,-1.83486 -1.686,-2.80766 0,-0.53344 0.70275,-2.16528 2.2038,-5.11779 1.39208,-2.73801 2.37263,-4.98779 2.66205,-6.10786 0.6042,-2.33816 0.8721,-7.94195 1.04918,-21.95141 l 0.13845,-10.95387 9.94012,-7.14883 c 5.46698,-3.93187 15.6498,-11.23976 22.62833,-16.23978 35.29515,-25.28829 44.89012,-32.23172 61.69245,-44.64391 15.52455,-11.46823 21.02407,-15.15078 27.60457,-18.48418 7.26998,-3.68267 11.60625,-4.45842 16.4415,-2.94136 4.94055,1.55008 9.00593,6.06284 11.90138,13.21111 2.454,6.05831 3.40492,13.33118 2.51505,19.23491 -0.41093,2.72599 -0.81563,4.17609 -2.00985,7.20077 -4.26398,10.79973 -11.41695,16.5154 -28.1778,22.51593 -5.46735,1.95735 -9.16935,4.07735 -11.7864,6.74961 -4.34025,4.43186 -12.81053,18.13806 -27.4473,44.41364 -10.91468,19.59379 -12.47453,21.84906 -16.5222,23.88741 -4.38203,2.20675 -13.09748,4.35774 -24.2541,5.98596 -5.53988,0.80849 -5.3199,0.85984 -3.74633,-0.87445 5.80463,-6.39741 38.31255,-45.26759 61.37175,-73.3829 9.99698,-12.18905 11.7732,-13.91596 17.43638,-16.95189 3.81495,-2.04517 6.42862,-5.35809 7.23712,-9.17343 0.43328,-2.04444 0.42728,-5.60388 -0.0127,-7.33002 -1.22332,-4.80355 -5.16412,-8.54902 -9.82117,-9.33454 -4.12538,-0.69583 -8.0106,0.71591 -11.39738,4.14131 -5.3598,5.42101 -5.67705,13.34753 -0.78757,19.6811 1.04722,1.35651 1.17907,1.64494 1.0512,2.2993 -0.34118,1.74547 -1.33013,2.9805 -27.02505,33.74836 -48.25035,57.77647 -57.4764,68.36209 -59.5713,68.3498 -0.20295,-0.001 -0.89288,-0.30267 -1.53323,-0.66994 z"
     id="path41" />
  <path
     style="fill:#ffffff;stroke-width:1.09674"
     d="m 391.32175,328.64176 c -12.89408,-3.18377 -32.3067,-16.42036 -50.4543,-34.40255 -18.5403,-18.37124 -23.01668,-28.29625 -23.02455,-51.05029 -0.007,-12.90682 0.1677,-14.00262 2.94195,-18.72154 1.62067,-2.75677 4.82865,-6.31242 7.12875,-7.90147 4.52715,-3.12749 22.39762,-11.76287 24.34267,-11.76287 0.65603,0 5.51865,1.32439 10.80578,2.94309 8.62365,2.64017 11.36265,2.94759 26.61255,2.98699 15.79417,0.0408 17.6604,-0.17601 26.3217,-3.05803 20.57962,-6.84778 39.91695,-19.28282 49.21425,-31.64771 5.0031,-6.65374 11.9265,-20.01689 12.90465,-24.90766 0.36817,-1.84092 1.01002,-3.34712 1.42627,-3.34712 1.48613,0 5.81505,14.42297 6.3432,21.13391 0.29573,3.75811 -0.0113,9.79413 -0.68197,13.41338 -1.17503,6.33971 -2.48123,9.44427 -9.44595,22.45072 -2.95005,5.50908 -3.27698,7.25769 -3.99915,21.38641 -0.85973,16.81971 -2.1021,21.67034 -9.13793,35.67647 -9.89175,19.69136 -37.86202,55.76324 -49.67887,64.06844 -5.16173,3.62782 -13.66065,4.70489 -21.61905,2.73983 z"
     id="path42" />
  <path
     style="fill:#ffffff;stroke-width:1.09674"
     d="m 347.76722,393.5184 c -15.3504,-4.14068 -32.0586,-14.1953 -47.14785,-28.37251 -7.13002,-6.69903 -17.32852,-19.0556 -17.32852,-20.99531 0,-0.43658 2.7642,-2.69756 6.14265,-5.02439 14.01157,-9.65014 24.56602,-28.71489 24.56602,-44.37412 v -4.60232 l 17.43503,16.61051 c 28.64715,27.29256 41.71582,36.37683 57.7632,40.15245 10.56307,2.48525 23.8938,1.64064 31.20375,-1.977 l 5.4171,-2.68089 -0.6216,2.83635 c -3.95175,18.03342 -6.309,22.66657 -16.78755,32.99669 -12.40425,12.22852 -25.8294,17.56243 -43.9599,17.46563 -5.39723,-0.0288 -12.42113,-0.88568 -16.68233,-2.03509 z"
     id="path43" />
  <path
     style="fill:#ffffff;stroke-width:0.259351"
     d="m 237.81685,406.443 c -9.86385,-3.33459 -21.56678,-12.67162 -28.1961,-22.49588 -2.57528,-3.81637 -5.82143,-11.32046 -7.0542,-16.30691 -1.18238,-4.78248 -1.31828,-6.13038 -1.31573,-13.04564 0,-8.97091 0.60653,-13.48948 2.6484,-19.84033 1.38315,-4.30226 2.91473,-7.62716 9.78795,-21.24938 3.45945,-6.85642 6.90173,-13.92507 7.6494,-15.7081 2.9202,-6.96354 4.23443,-11.94623 4.56615,-17.31167 0.0992,-1.60473 0.27068,-2.91769 0.381,-2.91769 1.37588,0 1.7313,17.07172 0.52035,24.99335 -1.10887,7.25372 -3.0606,13.48924 -7.40992,23.674 -6.24593,14.62593 -7.93065,22.15642 -7.5633,33.80618 0.27997,8.87916 1.75935,14.89175 5.49817,22.34561 5.0643,10.09644 12.38948,18.29254 20.0496,22.4335 1.23953,0.67007 2.66003,1.48931 3.15675,1.82052 0.85493,0.57008 0.86873,0.60192 0.25935,0.59687 -0.35407,-0.003 -1.6941,-0.36043 -2.97787,-0.79443 z"
     id="path44" />
  <path
     style="fill:#ffffff;stroke-width:0.259351"
     d="m 268.67612,246.86554 c -1.77997,-2.7166 -0.46807,-15.86725 2.2293,-22.34659 3.19725,-7.68022 11.4162,-16.19793 23.3202,-24.16789 4.11555,-2.75545 6.9045,-4.39521 14.75063,-8.67267 17.46802,-9.52297 34.45665,-20.14424 50.34637,-31.47643 11.83043,-8.43715 18.8274,-14.0723 25.26405,-20.34676 2.2698,-2.21263 4.05413,-3.82099 3.96518,-3.57413 -0.26513,0.7356 -3.2208,5.04638 -5.64923,8.23941 -8.51655,11.19776 -21.34312,24.54972 -32.71012,34.0499 -9.77573,8.17018 -19.24395,14.34041 -37.6827,24.55683 -16.98945,9.41345 -20.92763,12.02548 -27.56978,18.28602 -4.29052,4.044 -9.57367,11.42211 -12.63127,17.63997 -1.82873,3.7189 -2.42745,5.34674 -2.64735,7.1976 -0.16373,1.37836 -0.39173,1.52059 -0.98528,0.61474 z"
     id="path45" />
  <path
     style="fill:#ffffff;stroke-width:0.259351"
     d="m 250.2697,202.35569 c 0.72945,-5.46566 4.0335,-17.85951 6.07785,-22.79873 2.31907,-5.6031 8.09745,-13.09092 13.3497,-17.29899 2.23395,-1.78984 6.9306,-4.26213 9.01732,-4.74669 2.4369,-0.56586 5.10518,-0.17109 7.81628,1.15641 2.60587,1.27595 5.87932,4.75932 5.87932,6.25629 0,0.76262 -0.52492,0.77317 -2.0748,0.0417 -1.48732,-0.70194 -5.22165,-0.92538 -7.9977,-0.47854 -4.24807,0.68377 -6.80257,2.12305 -11.03032,6.21471 -5.97908,5.78669 -11.00505,13.17685 -16.866,24.79959 -1.64918,3.27058 -3.29753,6.41333 -3.663,6.98391 l -0.66443,1.0374 z"
     id="path46" />
  <path
     style="fill:#ffffff;stroke-width:0.172534"
     d="m 500.41157,381.32134 c -9.4635,-1.89563 -20.13465,-9.62542 -23.95395,-17.35136 -3.2634,-6.60159 -4.33672,-16.28688 -2.65642,-23.97121 0.44595,-2.03948 1.20165,-4.27395 1.94385,-5.74783 1.32172,-2.62445 4.75372,-8.04902 10.6836,-16.88601 7.84125,-11.68551 9.08077,-13.94461 11.139,-20.3016 3.348,-10.34016 4.72837,-22.73049 3.46942,-31.1406 -0.18952,-1.26589 -0.342,-2.70225 -0.33885,-3.19189 l 0.007,-0.89027 0.3666,0.43134 c 0.84563,0.99496 4.44855,9.26205 5.86508,13.4577 2.97225,8.80381 3.49612,16.82855 1.59367,24.41365 -1.22287,4.8756 -3.1785,9.40421 -5.76705,13.35501 -1.73047,2.64115 -2.95717,4.2968 -6.51712,8.7961 -7.203,9.10364 -9.933,13.96139 -11.68118,20.7853 -0.89062,3.47659 -1.16437,5.62716 -1.16707,9.16906 -0.007,5.50146 0.9216,9.70952 3.15075,14.32038 2.88787,5.97332 6.70537,9.81555 13.28212,13.36817 1.28108,0.69201 2.48243,1.36404 2.66955,1.4934 0.32783,0.22656 0.32468,0.23468 -0.0863,0.22067 -0.2346,-0.008 -1.13527,-0.1565 -2.00152,-0.33001 z"
     id="path47" />
  <path
     style="fill:#ffffff;stroke-width:1.20041"
     d="m 546.19165,576.04308 c -5.47943,-13.49717 -18.59655,-47.94399 -18.59655,-48.83634 0,-0.55462 2.54227,-1.38964 5.6496,-1.85561 16.0878,-2.41252 35.16172,-10.04834 49.611,-19.86064 9.4812,-6.43856 10.37737,-6.70295 11.38837,-3.35977 0.46365,1.53326 2.74043,7.25149 5.05943,12.70716 l 4.21642,9.91941 -5.75467,6.2862 c -14.87873,16.25298 -47.66723,50.10136 -48.53265,50.10136 -0.5334,0 -1.90178,-2.29579 -3.04095,-5.10177 z"
     id="path48" />
  <path
     style="fill:#ffffff;stroke-width:0.0938902"
     d="m 624.89012,1289.7928 c -2.01577,-0.091 -4.6812,-0.4486 -6.90217,-0.9247 -4.3287,-0.9278 -10.07685,-2.8813 -11.39768,-3.8732 -0.31582,-0.2372 -0.31717,-0.2412 -0.10537,-0.3196 0.2688,-0.099 1.296,0.027 3.13605,0.386 2.61307,0.51 5.14777,0.678 10.24605,0.6797 6.2277,0 11.84557,-0.4063 15.17002,-1.1024 2.13728,-0.4474 3.47573,-0.9301 6.77678,-2.4436 3.91552,-1.7953 4.76505,-2.1422 4.76505,-1.9462 0,0.255 -1.6599,2.2376 -2.78483,3.3263 -4.52857,4.3828 -11.17417,6.5686 -18.9039,6.2177 z"
     id="path49" />
  <path
     style="fill:#ffffff;stroke-width:0.0938902"
     d="m 186.65612,1263.5519 c -3.04515,-0.3438 -6.4764,-1.5421 -9.19402,-3.2109 -1.33275,-0.8185 -1.9695,-1.276 -3.62205,-2.6025 -2.70128,-2.1684 -3.47468,-3.1602 -2.18805,-2.8061 0.65347,0.1799 2.0466,0.7698 3.30217,1.3983 3.31853,1.6611 8.07435,2.9666 11.73563,3.2213 4.10617,0.2856 10.54912,-0.553 15.693,-2.0427 2.24362,-0.6497 3.44475,-1.1018 5.3514,-2.0143 1.8708,-0.8953 2.4546,-1.1289 2.82052,-1.1289 0.45323,0 0.34118,0.2517 -0.456,1.0249 -2.39827,2.3259 -8.2875,5.5689 -12.60262,6.9397 -2.9877,0.9492 -5.45535,1.3388 -8.35133,1.3183 -0.95565,-0.01 -2.07555,-0.05 -2.48865,-0.097 z"
     id="path50" />
  <path
     style="fill:#ffffff;stroke-width:0.0928725"
     d="m 516.78872,500.58554 c 0.29258,-6.94822 3.33353,-31.94315 5.64113,-46.3666 0.25335,-1.58347 0.83422,-4.92688 1.29082,-7.4298 1.89945,-10.41172 3.58298,-20.25983 4.69035,-27.4372 0.43688,-2.83129 0.80633,-5.15985 0.82103,-5.17456 0.0937,-0.0937 0.3609,15.34522 0.30645,17.70365 -0.1524,6.59646 -0.6504,14.30249 -1.27253,19.69105 -1.78072,15.42242 -8.37832,45.13436 -11.10585,50.01447 -0.38737,0.69308 -0.4371,0.55903 -0.3714,-1.00101 z"
     id="path51" />
  <path
     style="fill:#ffffff;stroke-width:0.136139"
     d="m 168.24587,498.70884 c -0.1398,-0.22621 0.255,-1.40781 1.65585,-4.95552 2.65223,-6.71699 4.61153,-11.28348 7.6149,-17.74785 4.12973,-8.88872 9.06285,-20.86632 10.31693,-25.04967 l 0.24495,-0.81684 0.1284,0.6807 c 0.0705,0.37439 0.1317,1.90596 0.13567,3.40349 0.007,2.2933 -0.051,3.108 -0.36112,5.16481 -1.28813,8.53591 -4.1298,17.18313 -7.69965,23.43013 -2.26778,3.96848 -6.45555,9.67632 -10.68345,14.56127 -1.30935,1.51284 -1.26563,1.46992 -1.35248,1.32948 z"
     id="path52" />
  <path
     style="fill:#ffffff;stroke-width:0.289945"
     d="m 317.81185,1045.1261 c -2.89478,-0.8176 -5.15415,-2.6854 -6.55568,-5.4194 -0.73612,-1.4362 -0.81742,-1.8836 -0.81742,-4.5003 0,-2.7029 0.0668,-3.0415 0.95985,-4.8552 1.21612,-2.4703 3.2172,-4.5309 5.5914,-5.7577 1.5729,-0.8127 2.1678,-0.961 3.8868,-0.9692 2.77867,-0.013 4.6854,0.9403 7.18957,3.5948 2.40878,2.5535 3.19485,4.4338 3.22028,7.7035 0.0158,2.0208 -0.0999,2.5697 -0.8973,4.2624 -1.80008,3.8207 -5.04653,6.056 -9.03743,6.2228 -1.2339,0.052 -2.80177,-0.073 -3.54007,-0.2817 z"
     id="path53" />
  <path
     style="fill:#ffffff;stroke-width:0.289945"
     d="m 294.32635,1082.523 c -3.01298,-0.8374 -5.79248,-3.2528 -7.17218,-6.2325 -0.61867,-1.3362 -0.75967,-2.0633 -0.7503,-3.8688 0.021,-4.0403 2.18775,-7.2056 6.16823,-9.0105 1.08442,-0.4917 2.63602,-0.9319 3.58875,-1.0183 1.51845,-0.1377 1.89187,-0.047 3.9189,0.9539 7.27087,3.5896 8.5407,10.5534 2.94487,16.1492 -2.6934,2.6935 -5.89267,3.8068 -8.69827,3.027 z"
     id="path54" />
</svg>
