<svg version="1.0" xmlns="http://www.w3.org/2000/svg"
 width="969.459453pt" height="1421.155479pt" viewBox="0 0 969.459453 1421.155479"
 preserveAspectRatio="xMidYMid meet">
<metadata>Created by Svg.la</metadata>
<g transform="translate(-37.131182,1468.745518) scale(0.100000,-0.100000)"
fill="#000000" stroke="none">
<path d="M4176 14675 c-279 -45 -502 -158 -674 -339 -266 -282 -391 -650 -354
-1043 7 -71 19 -157 26 -193 l14 -65 -25 -19 c-53 -40 -102 -195 -103 -321 0
-38 -2 -41 -38 -52 -52 -16 -418 -189 -581 -274 -148 -77 -437 -249 -576 -342
-391 -262 -595 -507 -789 -947 -35 -80 -107 -261 -159 -401 -53 -140 -136
-356 -185 -480 -49 -123 -113 -286 -142 -362 -52 -138 -52 -139 -37 -178 15
-39 15 -41 -44 -217 -118 -350 -145 -491 -136 -691 7 -144 16 -178 101 -355
168 -356 437 -745 889 -1290 79 -96 79 -93 10 -188 -251 -346 -348 -653 -313
-986 23 -217 91 -435 207 -664 114 -226 336 -538 519 -730 41 -43 74 -82 74
-88 0 -6 -7 -27 -15 -47 -22 -51 -72 -225 -90 -313 -26 -125 -44 -260 -60
-452 -8 -101 -22 -250 -31 -333 -16 -140 -20 -240 -16 -425 2 -60 -3 -91 -26
-155 -108 -302 -158 -463 -198 -646 -25 -111 -28 -143 -27 -309 0 -174 2 -192
30 -300 74 -279 194 -419 413 -479 218 -61 414 -21 533 109 66 71 99 133 131
244 52 178 59 285 52 783 l-6 451 42 49 c52 60 81 125 75 167 -3 21 4 49 24
89 81 160 273 636 335 828 l28 87 105 6 c58 4 135 13 171 21 225 46 451 198
625 420 168 215 255 394 392 805 70 210 119 297 233 407 l95 93 68 -68 c87
-84 241 -259 462 -522 95 -113 201 -236 235 -275 81 -90 122 -154 161 -252 27
-65 32 -92 33 -163 1 -82 3 -89 52 -185 46 -91 52 -109 58 -190 8 -97 19 -159
102 -605 98 -523 138 -689 210 -874 78 -199 75 -181 89 -464 13 -256 14 -264
41 -320 57 -113 194 -229 420 -353 122 -68 143 -87 278 -242 137 -160 307
-326 398 -390 152 -108 331 -170 498 -171 172 -1 299 43 384 134 158 169 138
421 -52 660 -23 29 -142 158 -264 288 -123 130 -274 290 -337 357 -133 141
-159 183 -140 227 22 54 15 136 -18 208 -37 80 -74 230 -113 460 -42 245 -155
1024 -185 1270 -58 490 -124 702 -498 1625 -295 726 -289 714 -621 1319 l-137
249 16 39 c8 21 15 53 15 70 0 31 -84 237 -182 447 l-48 105 28 30 c15 17 40
50 54 72 15 23 52 64 82 90 31 27 107 105 169 174 186 207 358 394 382 416 22
20 37 22 237 27 228 5 316 20 503 82 44 15 109 31 145 36 123 17 284 120 388
250 28 34 84 118 126 188 190 318 229 474 186 741 -25 161 -39 207 -84 279
l-34 54 91 106 c210 243 677 752 756 824 l41 37 144 0 c152 0 178 5 239 47 60
42 99 104 248 398 216 430 237 455 364 455 139 0 252 86 335 256 73 149 83
233 43 359 -25 79 -51 124 -106 183 -65 68 -118 99 -192 113 -74 13 -174 -7
-263 -55 l-63 -34 -19 39 c-26 49 -25 55 7 93 35 41 73 124 73 159 0 69 -60
115 -162 124 -72 7 -134 -15 -191 -66 -46 -41 -87 -121 -87 -169 0 -66 66
-153 128 -169 14 -3 43 -1 64 4 l39 10 26 -50 c14 -28 21 -53 17 -54 -5 -2
-81 -54 -169 -117 -96 -69 -164 -111 -170 -106 -5 5 -19 25 -29 44 -19 36 -19
36 2 59 26 27 62 128 62 171 0 38 -30 89 -66 113 -35 22 -124 22 -177 -1 -90
-39 -167 -145 -167 -230 0 -78 76 -146 164 -146 47 0 67 -13 104 -69 19 -28
29 -19 -191 -177 l-148 -106 -33 38 c-33 38 -33 38 -14 59 59 62 75 157 36
215 -74 107 -254 87 -342 -38 -35 -49 -47 -141 -26 -192 29 -70 121 -114 185
-90 26 10 32 8 64 -24 19 -20 33 -37 31 -39 -3 -2 -36 -25 -75 -52 -102 -71
-173 -133 -193 -168 -14 -26 -18 -68 -22 -217 -5 -161 -8 -191 -27 -232 -14
-31 -98 -128 -259 -300 -417 -444 -937 -978 -1015 -1044 -42 -34 -90 -81 -105
-103 -16 -22 -33 -39 -39 -38 -14 4 -97 116 -152 205 l-45 73 37 74 c35 69 38
82 39 162 1 84 -3 100 -76 323 -42 129 -118 368 -169 530 -114 367 -141 445
-191 545 -126 249 -330 445 -538 516 -67 22 -71 26 -65 49 14 62 17 192 5 253
l-12 66 68 68 c131 130 189 267 189 443 0 98 -2 110 -32 170 -37 74 -110 151
-180 189 -44 24 -52 35 -103 136 -73 145 -126 221 -230 329 -148 153 -360 276
-578 333 -123 32 -348 40 -486 18z m1294 -1301 c-33 -99 -188 -195 -313 -193
-87 1 -100 15 -22 22 120 11 272 102 320 191 23 43 32 31 15 -20z m-1205 -312
c207 -104 442 -169 698 -192 133 -13 244 -3 362 29 38 11 72 18 74 15 2 -2 6
-36 8 -76 6 -85 -15 -195 -51 -273 -21 -47 -33 -58 -97 -96 -60 -34 -126 -77
-202 -130 -5 -3 1 -78 12 -165 11 -87 23 -241 27 -341 l7 -183 -74 0 c-65 0
-84 5 -148 35 -120 58 -124 48 -38 -93 l50 -82 -19 -36 c-29 -55 -104 -145
-151 -180 -96 -73 -236 -95 -347 -53 -77 28 -185 101 -307 206 -248 215 -407
431 -493 672 -39 109 -53 128 -134 178 -92 57 -155 128 -201 223 -34 71 -36
81 -35 170 1 109 24 204 54 220 54 29 128 -1 185 -76 30 -39 104 -194 171
-358 28 -70 37 -81 59 -84 32 -4 86 31 109 69 9 15 16 43 16 63 0 35 4 39 99
101 114 76 175 137 190 191 25 89 4 220 -51 327 -18 34 -34 65 -36 69 -2 4 30
-15 70 -42 40 -27 127 -75 193 -108z m5489 -82 c43 -16 103 -78 127 -133 35
-77 33 -202 -3 -273 -74 -141 -153 -197 -251 -177 -75 15 -112 1 -177 -65 -82
-84 -120 -148 -278 -462 -78 -156 -151 -294 -162 -305 -41 -43 -102 -65 -181
-64 -41 0 -90 3 -110 7 l-36 7 179 215 c150 181 370 460 541 688 33 43 45 52
71 52 39 0 69 20 107 73 36 50 37 92 4 141 -31 45 -31 49 -2 41 21 -6 21 -6 3
9 -42 34 -120 16 -178 -41 -62 -60 -73 -138 -29 -194 l18 -24 -113 -145 c-63
-80 -149 -190 -192 -244 -118 -153 -413 -503 -480 -573 -59 -60 -61 -61 -104
-56 -24 3 -45 7 -47 9 -2 2 36 49 85 105 49 56 157 181 239 279 225 265 205
245 249 246 34 1 46 7 78 43 82 93 54 221 -49 223 -122 1 -195 -128 -137 -244
16 -30 46 10 -263 -344 -67 -76 -155 -175 -196 -219 -71 -75 -76 -79 -93 -63
-16 16 -15 19 13 55 17 21 49 68 72 105 51 81 111 138 147 138 18 0 42 16 80
55 45 46 54 62 54 91 0 43 -13 70 -54 109 -44 42 -99 31 -158 -32 -49 -52 -60
-116 -33 -192 13 -37 12 -45 -6 -43 -4 1 -15 -9 -25 -21 l-19 -22 23 19 c30
26 28 5 -3 -24 -14 -13 -25 -19 -25 -15 0 5 -31 -22 -69 -59 -62 -62 -72 -68
-87 -55 -14 12 -15 25 -9 89 4 41 10 132 14 202 9 187 -33 146 671 643 157
110 341 242 410 293 200 148 296 186 384 152z m-6611 -560 c39 -83 121 -177
230 -264 42 -33 57 -57 107 -163 129 -271 324 -514 576 -715 103 -82 105 -85
48 -94 -74 -11 -231 3 -339 31 -292 74 -530 277 -684 582 -80 160 -118 361
-101 533 5 47 9 93 9 103 1 31 47 67 83 67 31 -1 35 -5 71 -80z m5316 -729
c-42 -56 -143 -171 -147 -166 -3 3 1 13 9 22 93 112 183 207 138 144z m-259
-196 c0 -7 -55 -71 -122 -142 -68 -71 -249 -263 -404 -428 -314 -335 -355
-375 -386 -375 -18 0 -10 11 43 68 35 37 188 197 339 357 151 159 329 346 395
416 66 69 123 124 128 122 4 -2 7 -10 7 -18z m-2475 -468 c-30 -203 -111 -436
-203 -582 -17 -27 -32 -48 -32 -45 0 3 14 41 30 83 92 240 202 717 212 927 1
25 4 -27 6 -115 2 -109 -2 -195 -13 -268z m2515 417 c0 -6 -71 -83 -430 -464
-91 -97 -221 -235 -288 -308 -68 -73 -128 -132 -133 -132 -5 0 147 168 338
372 192 205 382 409 423 454 70 76 90 93 90 78z m22 -118 c-44 -46 -604 -653
-710 -769 -40 -45 -65 -57 -76 -39 -6 9 15 33 349 397 121 132 271 298 334
368 110 123 114 127 133 111 18 -17 17 -19 -30 -68z m134 13 c24 -6 44 -13 44
-16 0 -3 -40 -48 -89 -101 -390 -427 -585 -641 -645 -712 l-49 -57 -48 15 -48
15 27 32 c15 18 103 115 196 216 390 424 456 497 506 557 29 34 55 62 57 62 2
0 24 -5 49 -11z m-6470 -221 c105 -108 183 -252 232 -425 25 -91 27 -112 27
-288 0 -153 -4 -204 -19 -263 -10 -40 -20 -71 -22 -69 -2 2 1 56 8 120 32 339
-73 690 -285 955 -59 73 -63 81 -30 54 21 -17 61 -54 89 -84z m3124 -174 c-35
-538 -86 -908 -175 -1264 -24 -96 -49 -201 -56 -232 -7 -36 -17 -58 -26 -58
-20 0 -17 39 27 298 144 846 230 1378 230 1423 0 7 3 10 6 7 3 -3 0 -82 -6
-174z m2150 -477 c0 -8 32 -19 88 -31 137 -28 233 -62 303 -107 82 -52 107
-75 129 -120 49 -95 69 -364 36 -489 -24 -92 -92 -226 -185 -365 -153 -230
-201 -276 -334 -316 -116 -36 -152 -15 -243 136 -52 88 -97 149 -199 270 -37
44 -76 98 -87 120 -22 42 -27 110 -10 127 18 18 42 2 233 -168 63 -56 136
-121 162 -144 46 -41 48 -42 67 -25 29 26 25 40 -26 111 -50 71 -119 143 -273
283 -117 107 -150 159 -135 212 18 62 29 60 185 -43 136 -90 273 -203 334
-275 14 -18 40 -42 56 -54 29 -20 31 -20 50 -4 10 10 19 28 19 39 0 67 -236
316 -398 420 -57 37 -105 73 -109 81 -7 19 31 96 62 125 19 18 28 21 37 12 8
-8 8 -15 0 -24 -8 -11 15 -27 111 -75 149 -76 320 -201 376 -276 23 -29 52
-59 66 -65 21 -10 26 -9 37 11 16 30 15 162 -3 211 -12 34 -39 58 -182 167
-206 155 -219 167 -211 192 4 11 1 23 -7 28 -11 8 -9 13 10 29 27 23 41 25 41
7z m-723 -288 l81 -147 -96 -103 c-138 -148 -485 -499 -494 -499 -4 0 -8 4 -8
9 0 5 -34 67 -76 137 -97 163 -227 434 -211 438 7 2 41 11 77 20 152 40 416
165 560 268 48 34 68 43 76 35 6 -7 47 -78 91 -158z m-795 -527 l169 -344 -25
-36 c-14 -21 -102 -113 -196 -207 -158 -158 -170 -168 -170 -140 0 17 -7 120
-15 230 -21 289 -20 391 11 844 l6 83 25 -43 c14 -24 101 -199 195 -387z m885
173 c-11 -65 -65 -161 -132 -231 l-65 -69 -20 24 c-11 13 -19 28 -18 33 4 11
231 278 237 278 2 0 1 -16 -2 -35z m-4553 -265 c-8 -107 -21 -296 -29 -420 -9
-124 -27 -322 -41 -440 -14 -118 -28 -298 -31 -399 -5 -160 -8 -181 -20 -165
-14 18 -324 577 -357 641 -9 18 -16 42 -16 55 0 35 118 238 164 283 40 40 180
303 294 554 24 51 44 92 46 90 2 -2 -3 -92 -10 -199z m4546 -14 c0 -11 -22
-43 -49 -71 l-50 -52 -25 26 -25 26 57 67 57 67 17 -22 c10 -12 18 -31 18 -41z
m-266 -93 c3 -7 -45 -67 -107 -133 l-112 -120 -28 31 -28 31 113 117 c109 112
114 116 135 101 12 -8 24 -21 27 -27z m-5542 -38 c86 -92 204 -172 349 -237
123 -55 204 -76 302 -79 37 -1 67 -5 67 -9 0 -3 -29 -60 -65 -126 -82 -152
-83 -162 -10 -279 31 -49 111 -192 179 -319 176 -329 446 -802 530 -931 96
-147 172 -225 341 -355 153 -118 281 -242 313 -305 11 -22 38 -60 59 -85 22
-25 52 -67 68 -95 82 -144 132 -225 166 -267 32 -39 41 -58 49 -115 5 -37 10
-100 10 -140 0 -63 -3 -74 -21 -83 -29 -16 -52 7 -94 94 -18 39 -46 89 -63
111 -39 54 -172 195 -183 195 -18 0 -8 -54 27 -149 35 -93 136 -347 169 -424
l16 -38 -39 -40 c-54 -53 -79 -52 -132 8 -23 26 -82 111 -130 188 -89 140
-192 275 -210 275 -22 0 -19 -7 119 -310 33 -74 61 -140 61 -146 0 -16 -62
-44 -96 -44 -23 0 -43 15 -92 68 -62 65 -95 112 -211 297 -29 47 -55 84 -58
81 -10 -10 28 -128 85 -263 33 -77 63 -155 67 -173 6 -29 5 -31 -16 -28 -39 5
-276 296 -374 459 -54 90 -70 139 -149 466 -40 167 -65 252 -90 302 -22 42
-109 161 -222 303 -465 578 -736 984 -869 1298 -46 109 -75 239 -75 334 0 91
28 237 75 401 26 88 52 177 57 198 6 20 13 37 15 37 3 0 36 -34 75 -75z m5866
12 c-6 -12 -23 -36 -38 -53 l-28 -32 -26 26 -26 26 48 49 47 48 17 -21 c14
-18 15 -26 6 -43z m-240 -40 l21 -23 -273 -289 c-150 -159 -277 -290 -282
-292 -5 -1 -17 9 -27 23 -19 25 -18 25 16 67 19 23 75 85 125 137 l90 95 21
-19 c21 -19 21 -19 46 4 22 21 23 25 10 40 -8 9 -15 23 -15 31 0 13 228 249
241 249 3 0 15 -10 27 -23z m319 -17 c2 -8 -12 -33 -31 -55 -32 -38 -36 -39
-52 -23 -16 16 -15 19 16 58 32 41 62 50 67 20z m-1892 -93 c18 -30 22 -125 7
-166 -5 -15 -8 3 -7 52 0 64 -4 79 -27 115 -16 23 -28 44 -28 47 0 13 39 -21
55 -48z m1663 30 l21 -22 -117 -127 c-64 -69 -122 -127 -128 -127 -6 -1 -19 8
-28 18 -17 19 -14 24 101 150 65 72 121 131 124 131 3 0 15 -10 27 -23z
m-1869 -82 c66 -34 93 -163 51 -246 -12 -22 -36 -57 -54 -77 -18 -20 -85 -110
-148 -199 -164 -230 -205 -336 -196 -512 7 -127 31 -188 113 -287 36 -43 65
-81 65 -84 0 -4 -28 -36 -61 -71 -34 -35 -56 -56 -49 -47 10 15 8 24 -15 53
-43 57 -66 74 -121 92 l-52 16 -25 -29 c-14 -16 -58 -83 -98 -149 -189 -309
-327 -433 -714 -638 -200 -105 -312 -171 -346 -203 l-26 -25 -28 38 c-62 82
-177 191 -325 307 -85 66 -179 144 -210 173 l-55 52 46 1 c58 0 265 52 368 91
181 69 308 148 435 269 164 157 245 285 419 657 160 341 269 498 440 637 196
159 467 243 586 181z m1874 -122 c-143 -154 -139 -150 -163 -128 -19 17 -17
20 102 147 121 129 122 129 141 109 20 -20 20 -20 -80 -128z m-487 63 l28 -23
-31 -39 c-18 -22 -76 -82 -130 -135 l-98 -97 -29 35 -29 34 124 124 c68 69
126 125 130 125 5 0 20 -11 35 -24z m821 2 c39 -43 126 -189 117 -198 -37 -35
-287 -71 -353 -51 -24 7 -41 18 -41 26 0 21 219 245 240 245 9 0 26 -10 37
-22z m-636 -177 l23 -19 -46 -53 c-26 -30 -83 -92 -126 -139 l-80 -85 -26 24
c-15 14 -25 28 -24 32 5 14 240 259 248 259 4 0 18 -8 31 -19z m93 -80 c11
-12 14 -21 7 -26 -6 -3 -43 -43 -83 -88 -39 -45 -91 -104 -116 -130 l-45 -49
-20 21 -21 21 30 32 c17 18 72 79 123 136 51 56 97 102 101 102 4 0 15 -9 24
-19z m-598 -75 l28 -23 -93 -102 c-52 -55 -97 -101 -101 -101 -13 0 -60 41
-60 53 0 12 180 197 192 197 4 0 19 -11 34 -24z m95 -90 l29 -25 -44 -50 c-25
-28 -135 -140 -245 -250 l-200 -201 -21 22 c-11 12 -20 25 -20 30 0 4 50 62
112 127 107 114 112 118 127 99 16 -19 17 -18 45 11 27 28 28 32 13 48 -14 17
-9 25 75 116 49 53 92 97 95 97 3 0 18 -11 34 -24z m96 -90 l28 -24 -100 -101
-99 -101 -27 26 -28 27 92 98 c50 55 95 99 99 99 4 0 19 -11 35 -24z m-456
-77 c16 -11 29 -26 29 -34 0 -7 -49 -64 -109 -126 l-109 -114 -33 32 -33 33
109 113 c61 63 112 115 113 116 2 0 17 -8 33 -20z m552 -20 c9 -14 -6 -35 -78
-113 -48 -53 -93 -96 -100 -96 -7 0 -19 8 -28 18 -15 17 -11 24 75 115 89 97
110 109 131 76z m-353 -228 c-16 -20 -65 -74 -108 -121 l-79 -84 -34 32 -34
32 115 115 114 115 28 -27 27 -26 -29 -36z m120 -43 c0 -9 -67 -86 -153 -176
l-60 -63 -25 24 -25 25 108 115 c107 115 108 115 131 99 13 -9 24 -20 24 -24z
m-597 -16 l26 -28 -98 -104 -98 -104 -27 17 c-15 10 -30 25 -33 32 -5 15 173
215 193 215 5 0 22 -12 37 -28z m30 -218 c-54 -56 -102 -102 -107 -103 -6 0
-20 9 -33 21 l-23 21 95 98 c52 54 95 106 95 115 0 14 8 10 35 -16 l35 -34
-97 -102z m171 42 l29 -24 -31 -39 c-17 -21 -62 -69 -100 -107 l-70 -69 -31
24 c-16 13 -30 27 -30 31 -1 9 189 208 198 208 3 -1 19 -11 35 -24z m-449 -90
c23 -34 14 -46 -107 -159 l-103 -96 -25 24 -24 25 44 47 c124 132 176 183 187
183 7 0 20 -11 28 -24z m550 8 c14 -9 25 -21 25 -28 0 -6 -42 -56 -94 -111
l-93 -100 -28 15 c-15 8 -30 20 -32 27 -5 13 172 213 188 213 6 0 21 -7 34
-16z m-446 -108 c11 -14 -2 -33 -94 -131 -59 -63 -110 -115 -113 -115 -3 0
-16 10 -29 22 l-23 22 105 106 c58 59 105 112 105 119 0 14 30 0 49 -23z m73
-163 c-22 -26 -71 -78 -109 -115 l-68 -66 -28 27 -27 26 106 119 107 118 30
-30 30 -31 -41 -48z m125 -16 l22 -19 -107 -119 c-59 -65 -109 -119 -112 -119
-3 0 -18 12 -33 26 l-29 25 34 37 c151 169 182 201 192 195 6 -3 21 -15 33
-26z m-593 -19 l25 -23 -81 -93 -81 -93 -30 30 -30 30 78 85 c42 47 81 86 86
86 4 0 19 -10 33 -22z m114 -102 c16 -16 14 -20 -105 -149 -46 -49 -60 -51
-93 -12 -12 14 -6 24 46 76 32 33 58 63 57 67 -2 4 0 15 3 26 5 15 13 17 42
12 20 -3 42 -12 50 -20z m100 -110 c3 -15 -132 -166 -148 -166 -4 0 -20 10
-35 21 l-27 22 83 83 c77 77 85 83 104 70 11 -7 21 -21 23 -30z m-398 -53 c0
-6 -111 -130 -221 -248 -47 -51 -106 -119 -129 -151 -62 -84 -202 -245 -417
-477 l-83 -89 23 -37 c12 -20 30 -48 40 -61 l17 -25 44 45 c23 25 148 155 277
290 129 135 242 251 251 258 10 7 18 20 18 28 0 8 21 34 48 59 42 39 49 43 66
31 44 -28 43 -42 -6 -94 -42 -45 -48 -48 -62 -34 -17 17 -46 -10 -331 -310
-38 -40 -118 -124 -178 -186 l-107 -113 52 -60 c48 -54 54 -58 66 -42 28 38
535 543 541 538 3 -4 0 -10 -8 -14 -7 -5 -13 -12 -13 -17 -1 -5 -117 -128
-259 -273 l-258 -264 20 -29 c17 -23 24 -26 35 -17 10 8 14 8 14 0 0 -6 7 -11
15 -11 8 0 15 -4 15 -8 0 -12 -126 -132 -138 -132 -6 0 -19 -3 -29 -7 -13 -4
-10 2 10 24 l29 31 -23 35 -23 35 -161 -161 c-88 -88 -225 -212 -305 -276 -80
-63 -251 -203 -380 -310 -129 -107 -257 -212 -283 -234 -26 -22 -50 -38 -52
-36 -2 3 66 62 151 133 85 71 154 131 154 133 0 6 -118 -86 -222 -174 -47 -40
-93 -73 -100 -73 -8 0 -29 15 -47 34 l-33 34 177 181 178 181 85 0 c109 0 156
15 209 66 42 40 43 42 43 106 0 50 5 72 19 89 l19 23 43 -39 c24 -21 47 -43
51 -49 4 -7 15 -3 30 10 13 11 66 58 118 103 52 46 138 128 191 184 l96 101
-45 58 -45 57 -166 -171 c-121 -125 -167 -166 -170 -153 -2 12 49 69 160 181
l163 163 -48 55 c-26 31 -51 56 -56 56 -4 0 -63 -61 -131 -135 -68 -74 -125
-132 -128 -130 -6 6 66 99 140 180 100 110 96 95 47 159 -24 31 -49 56 -56 56
-15 0 -7 44 14 75 34 52 81 98 93 91 9 -6 8 -13 -5 -27 -9 -10 -12 -19 -6 -19
6 0 14 5 17 10 11 18 25 0 19 -25 -5 -22 31 -94 54 -109 12 -7 94 79 262 274
240 279 281 325 304 340 13 8 45 39 73 69 l49 54 -35 33 -36 33 90 93 90 93
38 -29 c20 -16 37 -31 37 -33z m494 -15 l25 -23 -70 -80 c-39 -44 -76 -81 -82
-83 -7 -1 -25 8 -42 22 l-29 23 74 81 c41 45 80 82 87 82 7 0 23 -10 37 -22z
m-435 -52 c29 -31 24 -39 -74 -136 -73 -71 -77 -74 -91 -56 -8 11 -14 26 -14
34 0 8 32 47 70 86 39 40 70 78 70 84 0 19 15 14 39 -12z m111 -91 l23 -24
-83 -91 -83 -91 -29 28 -28 27 27 30 c58 65 138 146 143 146 4 0 17 -11 30
-25z m-426 -41 l29 -25 -29 -31 c-16 -16 -42 -39 -57 -50 l-28 -20 -25 23
c-13 12 -24 28 -24 34 0 13 84 95 97 95 5 0 21 -12 37 -26z m540 -50 l29 -25
-54 -56 c-30 -30 -70 -67 -90 -83 l-35 -29 -29 23 -29 23 79 87 c44 47 84 86
90 86 5 0 23 -12 39 -26z m-442 -101 c-11 -15 -31 -38 -44 -50 l-24 -22 -27
22 -28 22 47 53 48 53 24 -25 25 -24 -21 -29z m219 -132 l23 -19 -48 -56 c-26
-31 -51 -56 -55 -56 -4 0 -18 11 -31 25 -23 24 -23 25 -4 47 71 86 78 90 115
59z m-2884 -153 c12 -25 38 -124 58 -219 67 -329 130 -495 243 -637 31 -39 94
-118 140 -176 103 -130 132 -155 255 -216 l98 -48 -76 -62 -76 -62 -51 56
c-27 31 -59 61 -70 67 -24 13 -45 -2 -186 -133 -55 -51 -114 -105 -131 -119
-60 -52 -58 -55 235 -349 146 -147 276 -273 289 -280 23 -12 31 -7 144 100
126 117 181 187 181 227 0 13 -14 42 -32 64 l-32 40 60 60 c32 33 113 102 179
154 66 51 147 117 181 146 120 107 227 195 270 222 l43 29 26 -29 c76 -84 137
-280 137 -442 0 -150 -44 -272 -176 -496 -122 -205 -146 -265 -146 -362 0 -62
5 -86 23 -117 52 -93 180 -112 292 -46 137 82 364 335 452 505 48 94 157 349
238 560 73 191 100 244 175 343 118 158 281 277 433 317 89 24 233 92 337 160
131 84 249 226 292 349 34 100 17 196 -35 196 -13 0 -59 -23 -102 -50 -155
-98 -279 -126 -423 -96 -109 22 -158 43 -212 92 -101 91 -125 172 -68 231 l31
32 44 -74 c27 -47 57 -84 81 -100 95 -63 303 -71 419 -16 32 16 85 49 117 76
69 56 106 69 157 55 54 -15 93 -51 119 -112 52 -120 -4 -328 -135 -504 -109
-145 -239 -232 -495 -328 -252 -95 -333 -148 -449 -292 -83 -102 -144 -225
-212 -424 -105 -312 -175 -461 -312 -664 -165 -247 -352 -390 -583 -448 -135
-33 -314 -31 -456 5 -173 45 -292 100 -469 218 -369 246 -742 663 -938 1049
-165 323 -239 616 -228 895 5 138 19 203 67 319 56 135 219 391 243 384 7 -2
22 -25 34 -50z m1174 -1215 c-28 -39 -385 -393 -397 -393 -5 0 86 95 201 210
115 116 211 210 213 210 2 0 -6 -12 -17 -27z m-236 -204 l-160 -160 -52 56
c-29 31 -53 59 -53 63 0 4 37 34 82 67 45 33 98 74 118 92 37 32 47 35 185 41
l40 2 -160 -161z m-155 90 c-50 -43 -114 -91 -90 -66 25 25 123 107 129 107 3
0 -14 -19 -39 -41z m1465 -163 c48 -20 73 -72 54 -111 -8 -14 -30 -36 -50 -47
-30 -17 -41 -18 -76 -9 -42 12 -65 36 -77 84 -6 24 -1 34 28 63 38 38 66 42
121 20z m-1734 -18 c37 -46 14 -88 -26 -47 -18 19 -21 29 -14 47 4 12 11 22
15 22 3 0 14 -10 25 -22z m114 -148 c15 -16 16 -23 6 -33 -10 -9 -15 -8 -25 6
-7 9 -19 17 -26 17 -10 0 -10 3 0 15 16 20 23 19 45 -5z m110 -151 c4 -11 4
-23 1 -27 -10 -9 -39 25 -32 37 11 17 24 13 31 -10z m115 -99 c0 -5 -4 -10
-10 -10 -5 0 -10 -4 -10 -10 0 -5 7 -7 15 -4 9 4 15 0 15 -8 0 -25 -11 -27
-32 -6 -15 15 -17 22 -7 34 13 16 29 19 29 4z m1302 -50 c44 -55 -2 -150 -72
-150 -77 0 -121 114 -62 160 35 29 107 23 134 -10z m-217 -345 c50 -49 14
-138 -55 -138 -40 0 -90 49 -90 89 0 64 97 98 145 49z m-1491 -1816 c65 -34
165 -58 241 -59 42 -1 47 -2 30 -12 -10 -6 -58 -11 -105 -12 -101 0 -171 26
-244 94 -53 49 -61 72 -13 41 17 -12 58 -35 91 -52z m5070 -620 c-83 -88 -197
-133 -317 -127 -101 6 -129 28 -36 28 36 0 92 7 124 15 68 18 209 81 226 102
6 7 16 13 22 13 6 0 -2 -14 -19 -31z m-5363 -734 c120 -114 234 -162 364 -152
38 3 78 8 88 12 9 4 17 3 17 -3 0 -23 -94 -47 -175 -46 -89 2 -144 18 -218 66
-72 46 -195 198 -161 198 4 0 42 -34 85 -75z"/>
<path d="M9138 12353 c7 -3 16 -2 19 1 4 3 -2 6 -13 5 -11 0 -14 -3 -6 -6z"/>
<path d="M4298 7363 c-18 -21 -31 -43 -25 -43 2 0 13 14 25 30 25 33 24 41 0
13z"/>
<path d="M2859 5403 c-13 -16 -12 -17 4 -4 9 7 17 15 17 17 0 8 -8 3 -21 -13z"/>
</g>
</svg>
