<?xml version="1.0" standalone="no"?>
<!DOCTYPE svg PUBLIC "-//W3C//DTD SVG 20010904//EN"
 "http://www.w3.org/TR/2001/REC-SVG-20010904/DTD/svg10.dtd">
<svg version="1.0" xmlns="http://www.w3.org/2000/svg"
 width="316.589937pt" height="779.550974pt" viewBox="0 0 316.589937 779.550974"
 preserveAspectRatio="xMidYMid meet">
<metadata>Created by Svg.la</metadata>
<g transform="translate(-93.000000,791.707079) scale(0.100000,-0.100000)"
fill="#000000" stroke="none">
<path d="M3796 7906 c-51 -19 -91 -59 -118 -118 -25 -57 -48 -63 -48 -14 0
101 -127 119 -175 26 -23 -45 -19 -94 11 -129 32 -39 71 -41 112 -6 28 24 52
32 52 19 0 -4 -23 -58 -52 -120 -53 -117 -78 -142 -78 -79 0 98 -128 116 -175
25 -54 -105 40 -205 125 -134 54 46 53 16 -3 -106 -56 -122 -79 -143 -84 -76
-4 68 -62 102 -122 71 -64 -33 -84 -140 -35 -189 33 -33 61 -33 108 -1 42 29
46 30 46 12 0 -26 -100 -232 -112 -232 -8 0 -14 16 -16 40 -4 54 -35 85 -82
85 -61 0 -117 -72 -106 -138 12 -78 85 -107 145 -56 25 21 32 23 37 11 3 -9 0
-26 -7 -38 -34 -65 -30 -117 16 -171 14 -16 25 -42 25 -58 0 -16 -45 -190
-101 -387 -118 -419 -621 -2177 -642 -2243 l-14 -45 -13 30 c-21 52 -23 173
-6 303 18 133 15 198 -14 248 -10 18 -16 42 -13 57 4 21 -1 28 -27 42 -37 19
-60 14 -60 -13 0 -16 -10 -20 -60 -25 -33 -4 -77 -15 -98 -26 -118 -60 -216
-258 -252 -507 -6 -44 -15 -196 -20 -339 -9 -278 -20 -346 -73 -467 -34 -76
-70 -128 -168 -239 -88 -99 -177 -229 -209 -304 -105 -244 -96 -581 21 -805
69 -133 256 -311 426 -406 56 -32 62 -38 47 -48 -15 -11 -14 -15 11 -34 29
-23 69 -29 80 -13 3 5 60 -17 128 -49 155 -75 274 -110 397 -117 116 -7 187 7
278 52 168 85 259 209 320 435 23 86 25 113 26 295 0 139 -5 245 -18 349 -16
125 -17 158 -7 214 17 92 51 170 122 280 142 218 184 338 177 495 -7 151 -57
217 -164 217 -104 0 -165 -38 -219 -137 -47 -86 -81 -123 -115 -123 -79 0 -85
59 -31 288 51 214 51 226 9 241 -17 6 -33 10 -35 8 -2 -2 -8 -30 -14 -63 -27
-150 -92 -374 -105 -362 -2 3 18 88 45 189 27 101 84 326 126 499 88 366 518
2057 576 2270 22 80 51 164 65 187 31 54 95 108 153 129 25 10 52 22 59 29 18
16 31 155 40 430 5 144 13 248 20 261 6 11 36 40 66 62 30 23 66 61 80 85 46
79 56 219 21 302 -43 106 -177 169 -279 131z m122 -76 c49 -30 72 -88 72 -185
0 -107 -27 -167 -102 -225 -95 -74 -92 -63 -99 -324 -8 -263 -18 -408 -27
-423 -4 -6 -29 -21 -57 -34 -66 -31 -131 -97 -162 -165 -23 -51 -43 -70 -43
-41 0 7 25 112 56 233 83 323 171 689 185 767 8 41 17 67 25 67 19 0 44 41 44
71 0 30 -40 69 -70 69 -57 0 -86 -85 -40 -122 25 -20 25 -16 -6 -154 l-15 -72
-24 24 c-31 31 -60 30 -91 -2 -30 -29 -27 -67 7 -96 19 -17 19 -17 -8 -124
-14 -60 -29 -102 -31 -94 -12 40 -71 53 -104 23 -22 -20 -23 -56 -1 -93 15
-27 15 -32 -6 -108 l-23 -80 -25 13 c-32 17 -63 6 -83 -29 -13 -23 -13 -29 0
-53 10 -18 26 -29 43 -31 24 -3 26 -6 21 -30 -4 -15 -11 -35 -15 -44 -5 -9 -9
-29 -9 -43 0 -15 -169 -619 -375 -1343 -387 -1356 -453 -1582 -598 -2052 -47
-151 -95 -311 -107 -355 -12 -44 -43 -152 -70 -240 -170 -563 -260 -883 -260
-926 0 -18 -3 -20 -12 -11 -9 9 -8 25 1 68 12 53 12 57 -8 70 -29 21 -26 36 6
32 20 -2 29 2 31 15 3 15 0 18 -17 12 -21 -6 -21 -5 -8 27 9 21 20 32 30 30
11 -2 19 8 25 30 5 18 35 120 67 227 32 107 54 196 49 198 -5 2 -34 19 -64 37
-92 54 -124 143 -100 276 13 75 46 143 137 289 150 239 223 435 237 635 9 119
24 156 65 156 30 0 54 -21 69 -61 8 -20 1 -55 -34 -170 -45 -147 -51 -183 -34
-209 11 -18 -1 -55 110 325 51 171 110 371 132 445 298 1013 708 2462 708
2507 0 30 -8 50 -30 78 -16 21 -30 48 -30 61 0 14 49 133 109 267 61 133 172
381 248 552 121 270 143 313 172 332 42 29 95 29 139 3z m-287 -746 c-44 -187
-160 -647 -165 -651 -2 -2 -15 1 -29 6 -24 9 -26 13 -17 37 16 42 146 497 175
614 22 90 48 141 62 126 2 -2 -10 -62 -26 -132z m-152 -301 c-84 -301 -94
-328 -115 -325 -10 2 -20 5 -21 6 -1 1 25 86 57 189 33 104 62 204 66 222 5
30 14 38 45 44 4 0 -11 -61 -32 -136z m-116 -359 c9 -3 12 -14 9 -30 -3 -17
-9 -23 -19 -20 -8 3 -19 6 -24 6 -10 0 -12 33 -2 43 8 8 17 9 36 1z m83 -20
c22 -6 22 -6 4 -72 -59 -224 -215 -810 -299 -1122 -54 -201 -115 -435 -135
-520 -20 -85 -62 -247 -95 -360 -32 -113 -89 -315 -126 -450 -133 -487 -158
-579 -225 -810 -73 -251 -177 -629 -285 -1035 -37 -137 -75 -279 -85 -315 -10
-36 -21 -87 -25 -115 -11 -82 -27 -137 -37 -127 -5 5 -2 34 8 71 17 61 17 62
-4 77 -31 22 -29 48 3 40 41 -10 30 19 -14 39 -37 16 -39 19 -29 46 12 34 10
34 49 13 17 -8 33 -13 36 -10 4 4 122 430 123 444 0 1 -18 9 -41 18 -27 11
-38 21 -35 31 3 7 13 38 21 68 l16 55 38 -20 38 -19 47 172 c25 95 46 175 46
179 0 4 -13 14 -30 23 -16 9 -30 21 -30 28 0 6 20 79 44 162 25 82 52 176 61
207 l16 58 35 -15 c19 -8 34 -13 34 -12 0 1 7 24 15 50 l14 48 -34 16 c-19 9
-35 20 -35 25 0 11 7 10 41 -8 17 -8 32 -14 34 -12 2 2 6 19 10 38 6 34 4 37
-32 54 -21 10 -33 21 -26 23 6 2 25 -3 42 -11 l30 -16 11 37 c8 32 8 40 -6 48
-39 24 -48 34 -42 41 4 3 19 -1 34 -10 30 -20 28 -21 43 23 15 46 15 47 -19
61 -16 7 -30 19 -30 26 0 12 5 12 30 -1 39 -20 38 -20 49 23 15 54 14 58 -19
72 -16 7 -30 16 -30 21 0 12 6 11 40 -6 l28 -15 13 52 c11 47 10 53 -5 63 -38
23 -51 34 -44 40 3 4 20 -1 37 -10 25 -12 32 -13 35 -3 30 93 30 108 2 108 -8
0 -20 8 -27 17 -12 15 -12 16 6 11 11 -3 28 -9 37 -13 13 -5 19 2 28 37 6 23
13 51 16 60 3 12 -5 22 -25 33 -17 8 -31 20 -31 26 0 5 14 2 31 -6 17 -9 32
-15 34 -13 2 2 10 30 19 63 15 55 15 61 0 70 -9 6 -23 16 -32 23 -15 12 -15
13 3 9 11 -3 27 -8 36 -11 13 -6 19 5 33 52 20 74 21 69 -14 87 -41 21 -38 37
4 20 l35 -15 24 78 23 77 -35 19 c-20 11 -31 21 -24 23 7 2 21 0 32 -6 33 -18
37 -14 50 47 7 31 15 65 17 75 4 13 -3 20 -25 28 -17 6 -31 16 -31 21 0 10 17
8 50 -6 12 -5 19 11 33 81 17 82 17 88 1 100 -9 7 -22 14 -28 16 -6 2 -8 7 -4
11 3 4 16 2 28 -4 12 -6 24 -10 26 -7 9 9 53 171 48 179 -3 4 -11 8 -19 8 -8
0 -17 5 -21 12 -5 8 1 9 22 5 l30 -6 26 100 26 100 -24 9 c-33 13 -30 23 4 15
28 -6 28 -6 52 87 13 51 25 98 28 105 2 7 -8 15 -22 19 -36 9 -33 27 3 19 l28
-6 26 104 c15 57 29 110 32 119 4 11 -2 17 -19 22 -36 9 -33 27 3 20 l28 -6
26 104 c15 58 29 111 32 120 4 11 -2 17 -20 22 -14 4 -23 11 -20 16 4 7 13 6
26 0 14 -8 20 -8 24 2 2 7 19 71 38 142 33 122 34 129 16 133 -12 3 -19 14
-19 29 0 25 9 28 46 18z m64 -38 c0 -28 -10 -38 -27 -28 -13 8 1 52 17 52 5 0
10 -11 10 -24z m-144 -33 c-4 -16 -42 -156 -86 -313 -81 -294 -314 -1140 -425
-1545 -84 -305 -226 -802 -346 -1210 -34 -115 -82 -280 -106 -365 -25 -85 -71
-245 -104 -355 -104 -356 -218 -767 -246 -887 -15 -65 -31 -118 -36 -118 -5 0
-6 8 -3 18 3 9 8 39 12 65 5 39 3 50 -10 60 -23 17 -11 46 15 40 32 -9 21 12
-17 30 -29 14 -34 21 -29 40 11 34 19 39 50 27 16 -6 31 -7 35 -3 9 10 120
403 120 424 0 9 -14 22 -30 29 -25 10 -29 17 -23 34 3 11 23 78 42 148 l36
126 25 -13 c14 -8 30 -14 35 -15 6 0 21 37 34 82 13 46 26 88 28 95 3 6 -9 19
-26 28 -17 8 -31 22 -31 29 0 15 119 418 126 425 2 2 15 -4 30 -13 14 -10 27
-16 28 -14 2 2 10 24 19 51 l16 47 -30 15 c-31 17 -41 42 -11 30 45 -19 50
-17 57 16 5 21 4 34 -4 37 -6 2 -21 12 -33 22 -25 21 -10 27 24 9 23 -12 33
-5 42 33 5 22 1 30 -23 44 -38 22 -30 39 9 19 27 -14 28 -14 34 13 4 15 9 35
12 44 3 12 -5 22 -28 34 -26 14 -29 19 -15 22 10 2 25 -2 33 -9 17 -14 18 -14
33 30 16 48 14 56 -14 69 -28 13 -35 38 -7 27 36 -15 44 -10 58 35 8 25 14 46
14 46 0 1 -13 7 -30 14 -16 7 -30 17 -30 22 0 10 17 8 51 -6 13 -6 19 4 31 46
l15 53 -28 14 c-31 16 -41 38 -11 26 45 -19 47 -18 63 43 l16 60 -36 17 c-20
10 -31 20 -24 22 7 2 21 0 32 -6 32 -18 37 -14 51 42 7 28 15 57 17 62 2 6
-10 16 -27 22 -16 6 -30 16 -30 22 0 8 11 6 30 -4 29 -15 31 -15 40 10 13 34
13 35 -4 29 -18 -7 -31 15 -18 28 8 8 16 7 27 -2 12 -10 15 -10 15 1 0 8 3 24
6 37 5 18 1 24 -25 33 -17 6 -29 15 -26 20 3 4 17 3 30 -3 14 -6 28 -9 31 -6
4 5 42 138 44 155 0 0 -14 6 -32 12 -17 6 -28 14 -25 17 3 4 19 2 34 -4 l29
-10 21 75 21 75 -29 10 c-34 12 -40 33 -6 23 12 -4 26 -8 31 -9 6 -1 55 142
56 166 0 3 -13 11 -30 17 -40 14 -38 23 4 16 l33 -7 22 79 c26 99 26 99 -4
107 -14 4 -23 11 -20 16 4 6 15 6 30 0 23 -9 25 -7 40 48 9 31 21 70 26 86 14
44 11 56 -16 66 -34 13 -31 21 6 18 l31 -3 28 98 27 98 -31 14 -31 14 34 -2
34 -2 28 105 c34 125 34 127 9 135 -29 9 -25 24 7 22 25 -2 27 2 58 116 l32
117 -23 6 c-34 9 -30 25 4 18 l28 -6 33 131 c19 72 38 131 43 131 6 0 7 -12 4
-27z m54 -283 c0 -5 -7 -10 -15 -10 -8 0 -15 5 -15 10 0 6 7 10 15 10 8 0 15
-4 15 -10z m-70 -262 c0 -13 -23 -5 -28 10 -2 7 2 10 12 6 9 -3 16 -11 16 -16z
m-114 -89 c10 -17 -13 -36 -27 -22 -12 12 -4 33 11 33 5 0 12 -5 16 -11z m49
-169 c3 -5 -1 -10 -9 -10 -8 0 -18 5 -21 10 -3 6 1 10 9 10 8 0 18 -4 21 -10z
m-59 -237 c-8 -8 -36 5 -36 17 0 7 6 7 21 0 11 -7 18 -14 15 -17z m-120 -64
c10 -17 -13 -36 -27 -22 -12 12 -4 33 11 33 5 0 12 -5 16 -11z m59 -149 c3 -5
-1 -10 -9 -10 -8 0 -18 5 -21 10 -3 6 1 10 9 10 8 0 18 -4 21 -10z m-57 -208
c2 -7 -2 -10 -12 -6 -9 3 -16 11 -16 16 0 13 23 5 28 -10z m-110 -65 c2 -10
-3 -17 -12 -17 -18 0 -29 16 -21 31 9 14 29 6 33 -14z m67 -128 c4 -6 5 -12 2
-15 -7 -7 -37 7 -37 17 0 13 27 11 35 -2z m-649 -182 c18 -19 20 -25 9 -40
-26 -35 -67 -10 -49 31 4 9 6 20 6 25 -3 14 13 6 34 -16z m604 13 c8 -5 12
-12 8 -15 -10 -10 -49 5 -43 16 8 11 16 11 35 -1z m-690 -146 c15 -38 12 -122
-6 -210 -11 -51 -15 -110 -12 -174 3 -83 7 -102 32 -145 27 -46 27 -48 6 -30
-59 52 -81 171 -55 305 28 143 30 219 7 262 -19 37 -19 37 0 27 10 -6 23 -21
28 -35z m640 -34 c8 -5 12 -12 9 -15 -8 -8 -39 5 -39 16 0 11 11 11 30 -1z
m-24 -81 c10 -17 -13 -36 -27 -22 -12 12 -4 33 11 33 5 0 12 -5 16 -11z m-6
-89 c0 -6 -10 -5 -25 2 -13 6 -22 15 -19 19 6 11 44 -8 44 -21z m-50 -130 c8
-5 11 -12 8 -16 -10 -9 -38 3 -38 16 0 12 10 13 30 0z m-20 -162 c0 -10 -12
-10 -34 -2 -9 3 -16 12 -16 20 0 11 5 11 25 2 14 -6 25 -15 25 -20z m-132 -11
c2 -10 -3 -17 -12 -17 -18 0 -29 16 -21 31 9 14 29 6 33 -14z m83 -107 c14
-11 18 -19 11 -20 -19 0 -52 19 -52 30 0 16 16 12 41 -10z m-35 -124 c10 -8
16 -17 12 -21 -8 -8 -48 13 -48 25 0 14 13 12 36 -4z m-116 -12 c0 -9 -7 -14
-17 -12 -25 5 -28 28 -4 28 12 0 21 -6 21 -16z m100 -116 c0 -11 -17 -10 -41
3 -28 15 -13 31 16 17 14 -6 25 -15 25 -20z m-162 -95 c2 -8 -5 -13 -17 -13
-12 0 -21 6 -21 16 0 18 31 15 38 -3z m118 3 c10 -8 16 -18 12 -22 -10 -9 -58
12 -58 26 0 14 23 12 46 -4z m595 -79 c7 -25 9 -82 7 -137 -4 -76 -12 -112
-38 -178 -17 -46 -34 -82 -36 -80 -1 2 9 35 23 73 35 95 43 248 18 326 -28 84
-28 85 -6 61 11 -13 26 -43 32 -65z m-70 -24 c19 -57 6 -175 -30 -272 -37
-101 -75 -169 -153 -278 -129 -180 -140 -235 -109 -557 47 -470 13 -695 -126
-834 -73 -74 -147 -107 -240 -107 -62 0 -75 3 -97 24 -14 14 -26 33 -26 44 0
12 41 62 98 121 112 116 137 159 152 271 13 97 2 165 -37 237 -38 69 -76 99
-214 168 -65 33 -119 66 -119 73 0 19 30 117 36 117 2 0 32 -14 65 -31 104
-52 107 -53 124 -19 9 17 22 30 30 30 17 0 21 45 5 55 -6 4 -7 23 -4 45 l6 39
-73 36 c-41 21 -76 39 -78 41 -3 2 5 14 17 27 22 23 28 48 15 60 -17 18 0 120
52 312 32 116 58 211 59 212 1 1 18 -2 39 -7 33 -7 39 -5 56 16 16 20 20 22
31 9 6 -8 35 -25 63 -40 133 -66 286 0 357 154 33 70 49 91 69 91 13 0 23 -12
32 -37z m-556 4 c12 -10 14 -16 7 -21 -13 -8 -52 10 -52 24 0 14 23 12 45 -3z
m-26 -90 c6 -8 8 -17 5 -20 -9 -8 -44 11 -44 23 0 15 26 12 39 -3z m121 -22
c16 -29 47 -51 81 -58 19 -3 17 -5 -9 -6 -26 -1 -42 7 -68 33 -33 33 -43 56
-26 56 5 0 15 -11 22 -25z m-510 -541 c0 -9 -7 -14 -17 -12 -25 5 -28 28 -4
28 12 0 21 -6 21 -16z m780 -81 c-42 -116 -44 -163 -20 -373 12 -102 22 -241
22 -310 -1 -117 -22 -294 -38 -309 -4 -3 -4 13 0 36 31 202 30 267 -5 588 -24
217 -17 290 43 408 29 59 29 43 -2 -40z m-694 36 c10 -17 -13 -36 -27 -22 -12
12 -4 33 11 33 5 0 12 -5 16 -11z m0 -160 c10 -17 -13 -36 -27 -22 -12 12 -4
33 11 33 5 0 12 -5 16 -11z m82 -52 c2 -10 -3 -17 -12 -17 -18 0 -29 16 -21
31 9 14 29 6 33 -14z m62 -30 c0 -8 -3 -17 -7 -20 -9 -9 -34 13 -27 24 8 14
34 11 34 -4z m-510 -636 c0 -3 -5 -13 -10 -21 -12 -19 -35 2 -27 24 6 15 37
12 37 -3z m316 -85 c-4 -18 -20 -76 -36 -129 l-31 -96 -35 16 c-33 16 -35 20
-29 51 12 64 22 81 45 75 22 -6 60 21 60 43 0 8 -15 21 -32 30 -54 27 -58 32
-46 64 l10 29 50 -25 c48 -24 50 -27 44 -58z m-414 69 c8 -8 -13 -85 -23 -85
-15 0 -18 17 -8 53 9 35 19 44 31 32z m208 -46 c0 -10 -6 -19 -14 -19 -19 0
-28 14 -20 33 8 21 34 10 34 -14z m-95 -42 c-14 -70 -13 -69 -46 -52 -33 18
-32 13 -18 70 l11 44 30 -15 c26 -13 29 -19 23 -47z m210 -1 c11 -8 16 -19 12
-30 -9 -23 -47 -3 -47 24 0 23 9 25 35 6z m-105 -14 c20 -16 21 -21 10 -65 -7
-26 -14 -47 -16 -47 -12 0 -54 25 -54 32 0 23 23 98 30 98 4 0 18 -8 30 -18z
m-108 -89 c84 -49 165 -94 181 -102 28 -15 34 -26 18 -36 -17 -10 -370 188
-379 213 -8 26 31 9 180 -75z m1005 25 c-3 -8 -6 -5 -6 6 -1 11 2 17 5 13 3
-3 4 -12 1 -19z"/>
<path d="M2346 3663 c-12 -12 -6 -33 9 -33 8 0 15 6 15 14 0 17 -14 28 -24 19z"/>
<path d="M2144 2999 c-8 -14 11 -33 25 -25 6 4 11 11 11 16 0 13 -29 20 -36 9z"/>
<path d="M2134 2805 c-3 -14 -15 -30 -26 -36 -15 -8 -18 -17 -13 -37 3 -15 6
-41 5 -58 0 -26 6 -36 35 -53 20 -11 38 -21 40 -21 5 0 55 161 55 178 0 10
-68 52 -84 52 -3 0 -8 -11 -12 -25z m66 -111 c0 -9 -7 -14 -17 -12 -25 5 -28
28 -4 28 12 0 21 -6 21 -16z"/>
<path d="M1946 2543 c-12 -12 -6 -33 9 -33 8 0 15 6 15 14 0 17 -14 28 -24 19z"/>
<path d="M2246 2497 c-18 -13 -19 -46 -2 -50 9 -2 29 53 22 60 -1 1 -10 -3
-20 -10z"/>
<path d="M3170 3226 c0 -21 21 -31 30 -15 5 7 6 17 4 21 -9 14 -34 9 -34 -6z"/>
<path d="M2707 3084 c-9 -10 2 -24 19 -24 8 0 14 7 14 15 0 15 -21 21 -33 9z"/>
<path d="M2870 2395 c0 -8 7 -15 15 -15 8 0 15 7 15 15 0 8 -7 15 -15 15 -8 0
-15 -7 -15 -15z"/>
<path d="M2597 2103 c-13 -12 -7 -23 13 -23 11 0 20 7 20 15 0 15 -21 21 -33
8z"/>
<path d="M2783 1910 c-76 -46 -35 -142 53 -125 41 7 67 43 66 88 -1 56 -59 74
-119 37z m32 -40 c10 -11 15 -26 11 -36 -5 -14 -10 -13 -31 10 -14 15 -23 32
-20 37 9 14 20 11 40 -11z"/>
<path d="M2743 1615 c-81 -35 -64 -135 22 -135 78 0 119 102 55 135 -35 18
-36 18 -77 0z m28 -56 c18 -34 -5 -48 -30 -18 -26 30 -26 39 -1 39 10 0 24 -9
31 -21z"/>
<path d="M2545 1380 c-35 -39 9 -104 55 -80 28 15 27 64 -2 84 -29 20 -31 20
-53 -4z"/>
<path d="M3210 2425 c0 -28 7 -93 15 -145 8 -52 15 -112 15 -133 0 -31 20 -73
101 -209 55 -93 99 -173 97 -177 -2 -5 -54 -50 -116 -101 -78 -63 -117 -102
-125 -124 -36 -104 -92 -192 -176 -274 l-85 -85 23 -251 c34 -384 32 -365 51
-371 14 -4 19 -22 24 -87 4 -52 3 -85 -4 -92 -24 -24 -3 -221 26 -243 26 -20
123 -13 159 11 l28 18 -7 102 c-6 78 -12 106 -26 121 -27 29 -39 171 -16 188
14 11 12 46 -24 402 -22 214 -36 392 -32 395 5 3 88 70 186 148 98 79 179 142
180 140 28 -35 116 -201 116 -219 0 -37 80 -162 111 -173 67 -23 163 33 163
95 0 42 -70 170 -96 177 -10 2 -56 66 -107 151 -267 443 -465 767 -472 776 -5
5 -9 -12 -9 -40z m559 -991 c-12 -13 -34 -24 -48 -24 -24 0 -24 1 9 18 19 9
40 27 45 40 8 18 11 20 13 7 2 -9 -6 -28 -19 -41z m-609 -1099 c-13 -16 -85
-21 -94 -7 -2 4 10 6 29 4 18 -2 42 1 52 7 25 14 28 14 13 -4z"/>
<path d="M1373 1557 c-95 -84 -175 -162 -179 -174 -9 -31 -79 -93 -107 -93
-13 0 -49 -25 -89 -64 -63 -59 -68 -66 -68 -106 0 -34 6 -48 34 -76 52 -52 90
-48 168 19 40 34 65 63 70 83 8 31 84 104 108 104 7 0 92 71 191 157 l179 157
-67 70 c-37 39 -67 72 -68 73 0 1 -78 -67 -172 -150z m-268 -408 l30 -31 -32
16 c-36 18 -53 44 -52 78 1 22 1 22 13 -4 6 -15 25 -42 41 -59z"/>
</g>
</svg>
