<svg version="1.0" xmlns="http://www.w3.org/2000/svg"
 width="964.780985pt" height="1435.777898pt" viewBox="0 0 964.780985 1435.777898"
 preserveAspectRatio="xMidYMid meet">
<metadata>Created by Svg.la</metadata>
<rect x="0" y="0" width="964.780985" height="1435.777898" fill="white"/>
<g transform="translate(-40.207211,1494.889349) scale(0.100000,-0.100000)"
fill="#000000" stroke="none">
<path d="M3985 14940 c-330 -44 -632 -219 -839 -489 -142 -184 -233 -372 -357
-731 -126 -363 -194 -452 -534 -685 -147 -101 -253 -211 -303 -316 -67 -140
-77 -277 -31 -424 10 -33 30 -77 44 -98 21 -30 24 -41 15 -52 -22 -27 -112
-50 -196 -50 -72 0 -85 3 -130 30 -53 33 -106 98 -145 175 -13 27 -28 45 -32
41 -5 -5 -11 -60 -14 -122 -8 -177 31 -307 119 -397 113 -116 239 -125 476
-32 69 27 119 43 111 35 -8 -7 -70 -44 -139 -81 -174 -93 -230 -133 -351 -251
-114 -111 -122 -115 -203 -92 -53 15 -129 89 -166 161 l-30 60 -12 -28 c-6
-16 -12 -74 -12 -129 -1 -94 1 -105 31 -166 20 -40 53 -85 82 -112 49 -46 49
-47 32 -69 -31 -39 -165 -269 -213 -363 -84 -166 -365 -700 -386 -735 -30 -48
-28 -91 5 -130 24 -29 25 -34 13 -54 -63 -100 -279 -559 -340 -720 -66 -177
-84 -259 -76 -357 8 -115 47 -219 172 -466 191 -376 346 -616 721 -1115 57
-76 103 -140 103 -143 0 -3 -27 -37 -59 -75 -237 -275 -341 -575 -328 -950 8
-240 52 -429 158 -672 162 -374 333 -623 677 -981 100 -103 113 -121 108 -145
-3 -15 -8 -47 -12 -72 -3 -25 -26 -106 -49 -180 -24 -74 -51 -169 -60 -210
-22 -100 -31 -420 -16 -560 34 -302 37 -347 29 -440 -11 -120 -5 -160 34 -236
l31 -62 -42 -148 c-24 -81 -76 -258 -116 -393 -101 -340 -113 -414 -95 -582
21 -194 75 -317 185 -425 54 -54 87 -77 131 -94 120 -46 278 -35 384 27 72 42
171 149 213 230 111 214 136 402 137 1047 l0 289 43 76 42 76 2 130 c2 150 -1
140 116 400 86 192 145 360 167 470 6 33 13 67 16 76 4 13 26 17 122 22 269
14 434 90 638 292 217 217 317 395 469 835 109 317 178 426 354 556 l84 62 63
-91 c58 -85 320 -493 384 -597 91 -148 196 -342 313 -573 l134 -264 6 -114
c14 -262 98 -579 257 -964 87 -210 100 -255 110 -375 8 -100 23 -162 52 -212
9 -16 13 -76 13 -208 l0 -186 35 -68 c37 -73 70 -110 251 -277 126 -117 180
-188 284 -374 85 -153 119 -198 209 -282 161 -150 362 -230 556 -221 73 3 98
9 153 36 242 119 270 440 66 744 -23 35 -102 137 -174 228 -272 340 -471 629
-459 664 4 12 9 53 11 92 4 58 -2 94 -27 189 -32 120 -33 129 -60 555 -28 447
-95 846 -197 1179 -74 244 -95 324 -154 601 -241 1135 -438 1736 -722 2208
l-86 143 15 62 c22 82 15 119 -44 240 -46 95 -92 230 -92 271 0 18 109 141
310 351 52 55 112 119 132 142 l38 43 27 -27 c131 -123 399 -86 777 106 263
134 469 270 611 402 112 106 206 266 280 479 49 141 65 223 72 360 4 99 2 133
-21 245 -15 71 -38 157 -52 190 -14 33 -28 67 -30 76 -8 24 49 90 696 793 226
246 233 250 460 281 96 14 151 36 194 78 39 39 125 180 330 542 38 66 78 129
90 141 11 11 62 35 111 54 120 43 162 69 227 138 97 102 138 209 138 361 0
114 -15 174 -65 271 -100 188 -292 238 -506 129 -34 -16 -62 -29 -64 -27 -1 2
-12 22 -23 45 l-20 42 24 22 c43 40 67 104 62 165 -8 92 -60 142 -155 151 -77
7 -124 -9 -181 -61 -61 -56 -92 -124 -92 -203 0 -58 3 -66 36 -103 43 -47 93
-65 144 -50 19 6 38 10 42 10 8 0 62 -100 56 -104 -2 -1 -61 -45 -133 -97 -71
-53 -144 -105 -160 -117 l-31 -20 -27 47 -27 48 22 19 c52 47 66 165 25 225
-119 176 -397 51 -397 -179 0 -107 59 -168 154 -158 26 3 54 10 60 16 10 7 19
-5 38 -49 l26 -59 -47 -33 c-25 -18 -97 -70 -159 -116 -61 -46 -116 -83 -120
-83 -5 0 -18 17 -29 38 l-21 37 28 32 c31 35 50 88 50 143 0 83 -80 160 -174
168 -73 6 -116 -11 -180 -69 -57 -52 -80 -95 -91 -171 -9 -60 6 -106 51 -149
32 -31 40 -34 97 -34 34 0 68 2 76 5 8 3 24 -13 42 -43 l29 -47 -68 -48 c-100
-70 -156 -130 -170 -183 -8 -28 -11 -103 -10 -210 l3 -166 -35 -56 c-19 -31
-112 -138 -206 -239 -94 -101 -238 -255 -320 -343 -82 -88 -179 -192 -215
-230 -37 -39 -88 -95 -115 -126 -27 -30 -152 -167 -279 -303 -126 -137 -249
-274 -273 -305 -40 -52 -156 -171 -167 -171 -3 0 -5 7 -5 15 0 8 -27 78 -61
156 l-61 142 35 36 c82 87 84 107 21 263 -25 62 -111 310 -191 552 -151 456
-199 570 -275 663 -49 59 -149 141 -190 155 -16 6 -28 14 -28 19 0 5 16 33 36
63 46 69 64 132 64 221 0 117 -27 188 -147 388 -84 140 -133 247 -139 305 -4
31 2 72 16 122 55 201 62 255 57 435 -9 251 -64 485 -170 716 -129 280 -353
500 -581 569 -52 16 -83 33 -116 64 -196 183 -527 276 -835 236z m993 -865
c58 -169 66 -356 22 -515 -81 -292 -366 -523 -673 -546 l-82 -6 80 42 c131 68
214 129 329 240 158 152 211 236 253 399 39 155 42 346 7 521 -9 47 32 -40 64
-135z m-709 -522 c-82 -121 -242 -292 -377 -402 -96 -78 -191 -140 -354 -229
-183 -100 -228 -130 -303 -206 -59 -60 -135 -190 -135 -232 0 -13 -3 -15 -11
-7 -21 21 -6 171 23 233 48 106 177 217 363 315 283 149 654 403 780 534 21
22 41 41 43 41 1 0 -12 -21 -29 -47z m987 -213 c12 -47 15 -90 11 -155 -5
-101 -20 -146 -82 -250 -24 -38 -45 -80 -49 -92 -4 -12 -9 -84 -10 -160 -4
-118 -8 -150 -32 -222 -57 -172 -221 -421 -437 -660 -125 -139 -154 -157 -258
-155 -129 3 -283 80 -458 230 -301 257 -377 393 -369 655 3 110 7 132 29 175
31 60 95 107 230 165 l97 41 63 -21 c260 -85 468 -71 721 47 131 62 216 121
301 211 70 75 144 206 168 301 l14 53 22 -49 c12 -27 30 -79 39 -114z m-1991
26 c32 -14 73 -61 62 -72 -3 -3 -15 0 -27 6 -23 12 -90 6 -124 -12 -70 -37
-161 -155 -228 -294 -22 -46 -42 -83 -44 -82 -9 9 39 199 64 251 36 77 110
161 171 192 54 28 79 30 126 11z m-871 -627 c-31 -52 -67 -109 -81 -127 -32
-43 -203 -333 -204 -347 -2 -31 -18 38 -18 80 -2 122 53 238 159 339 58 54
191 156 198 151 1 -1 -23 -44 -54 -96z m7349 77 c101 -42 165 -235 122 -367
-43 -129 -113 -190 -296 -254 -49 -17 -86 -38 -112 -63 -37 -35 -139 -199
-258 -414 -131 -237 -141 -252 -189 -275 -43 -21 -139 -44 -245 -58 l-50 -7
36 38 c34 36 516 615 652 783 40 48 73 79 105 94 57 27 83 62 89 119 13 111
-99 185 -188 125 -78 -52 -91 -151 -29 -222 17 -19 14 -24 -112 -175 -459
-551 -662 -790 -701 -828 -44 -44 -45 -44 -71 -27 -14 10 -26 20 -26 24 0 3
57 69 128 146 70 78 198 224 285 326 116 136 167 189 192 198 44 16 91 70 99
115 10 53 -23 119 -71 141 -90 43 -193 -27 -193 -130 0 -41 22 -89 46 -103 11
-6 14 -14 8 -24 -21 -36 -537 -618 -554 -626 -3 -1 -17 9 -29 22 l-24 25 124
130 c71 75 132 131 143 131 31 0 83 61 90 106 27 157 -175 207 -225 56 -13
-39 0 -100 28 -127 15 -15 11 -22 -48 -83 -36 -37 -86 -90 -111 -118 -45 -50
-47 -51 -64 -33 -16 18 -15 22 15 78 32 60 32 61 34 223 l2 163 118 85 c65 47
249 179 410 294 161 115 361 261 445 324 244 182 339 224 425 188z m-4286
-582 c45 -109 55 -208 28 -300 -20 -72 -47 -119 -120 -209 -76 -95 -104 -148
-121 -226 -30 -144 30 -283 149 -344 46 -24 48 -26 18 -21 -96 17 -204 94
-244 172 -45 91 -48 223 -7 304 13 25 55 92 95 150 40 58 82 124 93 146 51
100 81 281 64 382 -12 70 0 56 45 -54z m-2777 -187 c0 -130 -22 -226 -82 -360
-58 -131 -77 -207 -77 -313 -1 -114 23 -201 85 -300 49 -79 111 -142 173 -173
48 -25 53 -33 11 -21 -116 33 -266 161 -319 274 -50 103 -64 176 -58 291 6
116 25 177 97 315 114 216 150 308 150 390 0 26 3 31 10 20 5 -8 10 -64 10
-123z m1310 -404 c166 -125 288 -173 437 -173 88 0 167 19 206 50 14 11 27 20
30 20 7 0 -21 -142 -37 -187 -47 -131 -194 -273 -338 -327 -274 -102 -560 -22
-860 241 -78 68 -165 170 -193 224 -15 28 -14 29 17 45 90 45 201 172 245 279
24 57 43 150 43 210 l0 41 178 -176 c97 -97 220 -208 272 -247z m4250 -268
c10 -11 -13 -43 -131 -177 -78 -90 -263 -295 -412 -456 -248 -270 -272 -293
-296 -287 -14 4 -28 9 -30 11 -6 5 -15 -6 300 339 46 50 217 235 428 463 62
67 117 122 121 122 4 0 13 -7 20 -15z m102 -119 c-138 -158 -248 -282 -252
-286 -3 -3 -43 -48 -90 -100 -222 -247 -444 -485 -454 -487 -6 -2 -22 5 -35
16 l-23 18 93 99 c142 150 554 607 642 711 l78 93 30 -22 c28 -21 29 -22 11
-42z m100 -49 l27 -22 -55 -70 c-60 -76 -517 -585 -650 -724 l-82 -86 -37 18
-37 17 74 82 c40 45 105 116 143 158 161 173 438 481 506 562 41 48 76 87 79
87 3 0 17 -10 32 -22z m-2757 -777 c-20 -168 -90 -476 -114 -502 -11 -13 37
387 64 532 14 74 33 185 43 245 l17 110 3 -125 c2 -71 -4 -183 -13 -260z
m-3415 -141 c-28 -110 -59 -173 -126 -259 -30 -38 -57 -70 -59 -70 -3 0 -1 10
4 23 34 87 56 139 87 205 46 97 103 240 106 261 1 9 3 -5 5 -30 2 -27 -5 -82
-17 -130z m5150 3 c159 -89 258 -213 301 -379 58 -226 21 -459 -116 -738 -91
-188 -177 -274 -427 -429 -309 -194 -646 -336 -793 -336 -38 0 -83 19 -103 42
-17 21 104 175 301 380 l167 173 84 3 85 4 48 -45 c60 -56 87 -67 168 -67 66
0 93 13 50 24 -63 16 -120 95 -164 226 -14 43 -39 88 -76 132 -62 78 -124 197
-132 254 -4 32 -1 43 20 62 l25 24 58 -74 c82 -103 217 -236 247 -243 64 -17
62 32 -5 129 -29 41 -94 129 -144 194 -148 193 -172 244 -133 281 13 11 33 21
45 21 32 0 121 -85 240 -230 56 -69 118 -140 137 -158 64 -62 94 -24 63 82
-18 61 -95 174 -195 286 -90 100 -151 179 -151 194 0 24 40 50 76 49 74 -2
274 -187 389 -361 72 -108 94 -122 106 -66 10 50 -8 159 -36 219 -34 70 -106
149 -198 216 -92 67 -137 109 -137 128 0 29 32 51 74 51 30 0 63 -12 126 -48z
m-1075 -349 c3 -15 28 -76 54 -135 l49 -108 -166 -177 c-91 -98 -216 -231
-279 -295 l-113 -117 -16 37 c-33 77 -98 241 -139 352 -24 63 -51 131 -59 151
l-15 36 92 18 c197 37 337 97 491 207 45 32 84 58 87 58 4 0 10 -12 14 -27z
m-4129 -783 c28 -183 32 -284 13 -381 -7 -35 -55 -181 -107 -324 -52 -143
-108 -316 -125 -385 -16 -69 -40 -159 -52 -200 l-22 -75 -42 90 c-48 103 -103
231 -151 355 -18 47 -89 200 -157 341 l-125 257 44 54 c24 29 99 135 166 233
67 99 163 239 213 310 51 72 126 179 168 239 l76 109 37 -229 c21 -126 50
-303 64 -394z m4510 523 c-14 -21 -66 -81 -115 -133 l-89 -95 -26 24 -25 24
132 140 132 139 9 -31 c7 -26 5 -37 -18 -68z m-5583 -142 c94 -67 236 -142
362 -192 33 -12 64 -26 69 -31 10 -8 -42 -91 -159 -253 -39 -55 -84 -121 -98
-146 -45 -77 -40 -101 73 -333 99 -205 141 -299 240 -536 89 -214 110 -260
195 -430 148 -298 247 -455 332 -530 27 -23 98 -67 158 -97 193 -97 283 -172
384 -318 57 -82 243 -429 283 -528 28 -68 37 -150 19 -162 -10 -5 -99 97 -230
265 -106 136 -148 177 -162 163 -33 -33 58 -196 255 -457 106 -141 136 -192
136 -231 0 -31 -8 -31 -69 0 -72 36 -158 117 -351 328 -158 173 -198 208 -201
175 -9 -101 95 -275 281 -472 l65 -69 -43 7 c-63 9 -162 61 -231 120 -33 28
-103 101 -155 162 -92 108 -118 130 -137 118 -33 -20 44 -164 176 -330 30 -38
52 -70 50 -72 -2 -2 -32 11 -67 29 -42 23 -96 67 -163 134 -179 178 -243 291
-320 565 -142 505 -133 487 -455 926 -372 507 -504 711 -650 1004 -120 239
-152 328 -158 431 -4 80 -2 96 32 198 52 160 188 463 284 638 l57 102 50 -54
c28 -30 94 -86 148 -124z m4371 92 c12 -46 71 -201 152 -395 117 -279 111
-243 47 -313 -31 -33 -106 -113 -169 -178 l-113 -117 -11 41 c-28 102 -41 194
-46 329 -5 124 -3 160 15 245 33 160 103 425 111 420 4 -3 11 -17 14 -32z
m1180 -155 c6 -38 4 -45 -26 -75 l-33 -33 -28 23 -28 22 46 53 c26 28 50 52
54 52 5 0 11 -19 15 -42z m-235 -49 l24 -19 -59 -63 c-33 -34 -109 -114 -169
-178 l-111 -117 -28 23 -29 23 168 176 c92 97 170 176 173 176 4 -1 18 -10 31
-21z m109 -92 l22 -24 -160 -176 c-89 -98 -164 -177 -168 -177 -4 0 -20 12
-35 25 l-28 25 163 175 c90 96 168 174 174 175 6 0 20 -11 32 -23z m177 -17
c24 -54 9 -71 -29 -31 -24 26 -26 31 -14 50 18 29 22 27 43 -19z m-66 -84 l23
-24 -105 -120 c-58 -65 -130 -145 -160 -177 l-54 -59 -31 23 c-18 12 -32 26
-32 31 0 13 313 350 325 350 6 0 22 -11 34 -24z m201 -108 c0 -5 -12 -8 -27
-8 -26 0 -26 0 -8 20 14 16 20 17 27 8 4 -7 8 -16 8 -20z m-2271 -3 c58 -49
63 -133 15 -225 -13 -25 -69 -106 -124 -180 -115 -154 -190 -299 -221 -421
-17 -67 -21 -104 -17 -199 3 -102 7 -124 32 -173 33 -68 110 -155 171 -194 25
-15 45 -34 45 -41 0 -21 -156 -175 -169 -168 -6 4 -11 16 -11 26 0 40 -43 133
-79 171 -30 31 -45 39 -73 39 -47 0 -86 -40 -165 -166 -161 -259 -328 -392
-693 -554 -137 -60 -245 -134 -349 -237 -46 -45 -85 -83 -86 -83 -1 0 -15 19
-30 43 -89 133 -265 272 -490 385 -70 35 -162 108 -151 119 2 3 85 26 184 53
427 116 664 240 847 445 117 130 171 211 305 465 113 214 223 396 287 477 212
268 473 439 675 442 57 1 71 -2 97 -24z m1467 -104 l25 -19 -152 -161 c-83
-89 -154 -161 -158 -161 -3 0 -18 10 -33 23 l-28 22 151 158 c83 86 155 157
161 157 5 0 21 -9 34 -19z m126 -135 c-57 -65 -286 -311 -292 -314 -3 -1 -19
11 -35 28 l-28 29 49 53 c26 29 95 103 153 165 l104 112 34 -26 c33 -26 33
-26 15 -47z m102 -55 l28 -30 -100 -114 c-55 -63 -123 -138 -150 -168 l-49
-53 -37 27 -36 28 137 150 c76 83 145 159 153 169 20 25 22 25 54 -9z m-584
-186 l23 -25 -103 -107 c-57 -60 -115 -120 -130 -136 l-26 -27 -28 29 -28 29
127 131 c70 72 131 131 135 131 3 0 17 -11 30 -25z m115 -96 l35 -31 -99 -106
c-54 -59 -112 -122 -128 -141 l-30 -34 -37 28 c-20 15 -35 32 -34 36 3 9 249
279 254 279 2 0 19 -14 39 -31z m119 -108 l28 -30 -128 -141 -128 -141 -30 30
-29 29 28 34 c68 81 219 248 225 248 3 0 19 -13 34 -29z m-532 -165 c-10 -12
-66 -73 -125 -137 l-106 -117 -36 32 -35 31 127 136 128 137 32 -31 c32 -30
32 -31 15 -51z m108 -65 l34 -28 -124 -136 -125 -136 -32 31 c-19 18 -29 36
-25 43 10 18 226 254 232 254 3 1 21 -12 40 -28z m124 -105 l30 -23 -125 -135
-124 -135 -32 25 c-29 21 -31 26 -20 43 22 30 228 249 235 249 4 0 20 -11 36
-24z m-614 -245 l-102 -111 -28 20 c-62 44 -63 42 56 161 l109 109 34 -34 34
-35 -103 -110z m202 30 l32 -28 -104 -112 c-57 -61 -106 -111 -109 -111 -3 1
-21 14 -40 30 l-34 29 104 110 c57 61 107 111 111 111 4 0 22 -13 40 -29z m52
-233 c-49 -56 -94 -109 -101 -117 -10 -14 -15 -12 -42 14 -17 16 -30 32 -29
37 2 4 47 56 101 116 l98 109 31 -29 30 -28 -88 -102z m-436 73 l32 -28 -86
-94 c-48 -52 -91 -96 -96 -98 -5 -2 -25 12 -44 30 l-34 33 92 93 c51 51 95 93
98 93 3 -1 20 -13 38 -29z m69 -243 c-50 -54 -93 -98 -96 -98 -3 0 -21 14 -39
31 -40 36 -43 28 71 146 l80 82 37 -32 38 -31 -91 -98z m178 18 l29 -23 -51
-59 c-28 -33 -70 -77 -92 -98 l-41 -40 -27 20 c-15 11 -28 25 -30 30 -4 11
163 194 175 194 4 0 20 -11 37 -24z m-485 -21 l34 -35 -25 -27 c-13 -16 -50
-55 -81 -89 l-56 -60 -41 35 -42 36 82 88 c45 48 84 87 88 87 4 0 22 -16 41
-35z m85 -239 c-43 -47 -81 -86 -84 -86 -9 1 -71 59 -71 66 0 4 37 44 82 91
l82 84 35 -35 34 -34 -78 -86z m-290 5 l29 -31 -79 -80 c-44 -44 -82 -80 -86
-80 -3 0 -23 16 -43 36 l-37 36 78 82 c85 90 87 90 138 37z m460 9 l28 -29
-60 -68 c-98 -110 -96 -109 -132 -82 -17 13 -30 26 -29 31 4 11 152 176 159
177 3 1 18 -12 34 -29z m-305 -150 c0 -4 -37 -46 -81 -94 l-82 -87 -39 38 -38
37 87 88 87 88 33 -32 c18 -18 33 -35 33 -38z m-377 -68 l38 -38 -60 -57 c-33
-31 -63 -57 -68 -57 -4 0 -25 17 -47 36 l-38 36 58 59 c32 33 63 59 69 59 6 0
28 -17 48 -38z m472 -12 c20 -21 25 -33 18 -42 -5 -7 -40 -50 -78 -96 l-68
-83 -38 37 -38 38 82 87 c45 48 85 87 88 88 3 1 18 -12 34 -29z m-342 -118
l37 -38 -59 -58 c-64 -64 -71 -64 -120 -12 l-25 26 59 60 c33 33 62 60 65 60
3 0 23 -17 43 -38z m-2786 -90 c34 -74 58 -145 98 -297 64 -241 145 -445 216
-546 66 -94 185 -232 252 -296 88 -81 206 -145 302 -163 l60 -11 -147 -151
-147 -152 -50 47 c-84 79 -86 79 -223 -61 -94 -95 -118 -126 -118 -148 0 -32
37 -70 364 -377 158 -148 206 -187 227 -187 34 0 100 52 202 158 95 101 98
117 29 185 l-48 47 335 334 c250 250 338 332 348 325 17 -15 23 -10 237 208
l188 192 -61 58 -61 58 -113 -115 c-274 -279 -300 -313 -267 -346 6 -6 -110
-128 -320 -338 l-329 -328 -55 48 c-31 26 -55 51 -54 55 2 3 116 122 254 263
l251 256 51 -11 c40 -10 57 -9 82 1 40 16 83 75 99 133 11 37 40 71 192 223
98 98 179 182 179 186 0 4 -26 32 -57 62 l-58 56 -112 -112 c-62 -62 -119
-126 -128 -143 l-15 -30 0 36 c0 35 35 96 74 128 9 8 44 45 77 82 l61 69 -47
68 c-39 57 -46 75 -43 107 2 27 11 44 29 57 33 25 57 16 132 -53 l58 -52 259
264 c237 242 259 263 274 248 15 -14 -5 -37 -246 -277 l-263 -261 58 -56 c48
-47 60 -54 76 -46 10 6 130 124 265 263 190 194 249 249 258 240 9 -9 -15 -40
-108 -134 -65 -68 -179 -187 -252 -265 l-133 -142 47 -60 c26 -34 51 -61 55
-61 4 0 125 120 268 267 232 237 263 265 276 252 13 -13 -15 -45 -252 -281
l-266 -266 42 -48 c64 -73 66 -105 9 -147 -22 -17 -31 -18 -58 -9 -17 7 -45
23 -61 37 -23 18 -35 22 -47 16 -9 -6 -104 -97 -211 -205 l-195 -195 28 -42
c97 -145 100 -386 9 -672 -43 -138 -66 -183 -159 -320 -74 -109 -114 -204
-114 -271 0 -132 93 -226 225 -226 170 0 393 155 536 373 96 146 207 381 273
577 61 183 121 315 188 413 96 142 253 271 426 353 483 227 584 301 683 499
49 98 62 184 34 215 -10 11 -24 20 -31 20 -7 0 -59 -24 -116 -53 -120 -62
-199 -82 -318 -81 -144 1 -246 41 -349 138 -53 51 -101 115 -101 137 0 12 89
104 94 98 2 -2 14 -26 27 -53 13 -26 47 -70 76 -96 136 -124 324 -126 565 -4
47 24 91 38 128 41 50 5 59 3 89 -23 75 -63 91 -179 46 -321 -45 -142 -171
-299 -319 -397 -83 -56 -221 -126 -384 -195 -150 -64 -249 -127 -338 -215
-133 -132 -196 -243 -284 -500 -153 -447 -319 -734 -511 -882 -147 -113 -285
-162 -480 -171 -235 -11 -414 41 -676 196 -349 208 -801 672 -1040 1071 -165
275 -270 583 -292 855 -27 341 57 627 264 893 22 28 42 51 45 52 3 0 19 -30
37 -68z m2892 -114 c-28 -32 -55 -61 -61 -64 -5 -4 -25 9 -44 27 l-34 33 62
63 62 63 33 -32 32 -31 -50 -59z m-1579 -1126 c0 -4 -114 -121 -254 -261
l-254 -254 -39 30 c-21 17 -47 40 -57 52 l-20 22 174 174 174 174 62 -1 c55
-1 68 3 120 36 55 34 94 46 94 28z m-685 -492 c0 -30 -4 -35 -26 -38 -36 -4
-55 21 -40 54 9 20 17 25 39 22 24 -3 27 -7 27 -38z m141 -98 c20 -13 35 -52
29 -72 -13 -41 -85 -16 -85 28 0 42 28 63 56 44z m169 -197 c0 -46 -21 -57
-60 -31 -45 30 -25 79 30 74 28 -3 30 -6 30 -43z m1208 -114 c78 -77 15 -204
-92 -187 -102 16 -120 149 -29 206 42 26 83 20 121 -19z m-265 -371 c61 -37
69 -105 18 -156 -43 -43 -90 -46 -135 -8 -58 49 -46 140 22 169 43 19 56 18
95 -5z m-1161 -1955 c63 -7 169 12 223 40 58 30 29 -5 -33 -39 -109 -61 -211
-59 -295 6 -55 42 -53 51 3 23 24 -13 71 -26 102 -30z m4602 -222 c-64 -81
-182 -104 -320 -62 -77 23 -102 42 -36 27 23 -5 89 -8 147 -5 85 4 115 9 160
30 67 31 66 31 49 10z"/>
</g>
</svg>
