<?xml version="1.0" standalone="no"?>
<!DOCTYPE svg PUBLIC "-//W3C//DTD SVG 20010904//EN"
 "http://www.w3.org/TR/2001/REC-SVG-20010904/DTD/svg10.dtd">
<svg version="1.0" xmlns="http://www.w3.org/2000/svg"
 width="371.351259pt" height="720.742666pt" viewBox="0 0 371.351259 720.742666"
 preserveAspectRatio="xMidYMid meet">
<metadata>Created by Svg.la</metadata>
<g transform="translate(-81.371447,758.955470) scale(0.100000,-0.100000)"
fill="#000000" stroke="none">
<path d="M2771 7574 c-122 -26 -250 -98 -378 -211 -133 -118 -164 -197 -103
-267 30 -33 31 -38 33 -143 2 -101 4 -113 36 -178 l35 -70 -17 -81 c-9 -45
-17 -104 -17 -132 0 -44 4 -54 31 -76 17 -14 37 -26 45 -26 8 0 14 -4 14 -10
0 -33 -151 -369 -213 -473 -33 -56 -47 -89 -47 -116 0 -40 -11 -59 -79 -139
-24 -29 -102 -133 -173 -230 l-128 -177 -138 -12 c-145 -12 -249 -41 -373
-103 -69 -35 -80 -49 -86 -104 -5 -41 -8 -45 -38 -50 -111 -21 -267 -142 -318
-247 -35 -71 -53 -200 -38 -266 24 -104 40 -153 61 -181 32 -43 75 -338 60
-404 -32 -131 72 -261 268 -335 185 -69 380 -69 575 0 52 18 62 26 61 45 -3
118 -4 119 -35 151 -53 56 -63 93 -61 221 1 96 4 117 19 127 9 7 20 13 24 13
4 0 9 -63 11 -139 3 -128 5 -141 25 -163 13 -14 23 -32 23 -41 0 -9 10 -27 23
-39 20 -21 23 -35 27 -143 4 -99 2 -127 -12 -160 -58 -134 40 -277 256 -375
263 -120 612 -79 786 90 71 69 84 99 85 205 2 110 41 325 62 342 9 7 22 34 29
60 7 26 22 73 33 104 27 74 37 201 21 259 -6 25 -23 67 -36 94 -42 83 -19 62
32 -31 l49 -88 -1 -120 c-1 -127 -10 -162 -58 -235 -29 -43 -66 -228 -76 -380
-5 -80 -12 -116 -30 -150 -53 -103 -198 -203 -334 -230 -48 -10 -66 -18 -66
-29 0 -9 9 -68 20 -132 10 -64 27 -196 36 -292 15 -152 15 -178 3 -193 -10
-13 -139 -119 -218 -181 -2 -1 44 -51 103 -110 59 -58 135 -137 168 -175 34
-37 66 -68 72 -68 6 1 42 27 80 59 66 56 69 57 105 48 31 -8 51 -5 121 18 139
46 176 98 160 227 -5 46 -4 68 6 82 9 13 11 39 8 80 -2 34 -11 151 -20 261 -8
110 -25 281 -37 380 -29 235 -27 280 18 450 20 77 52 198 70 268 19 71 36 131
39 134 12 13 15 -39 19 -387 6 -465 5 -461 126 -850 47 -152 160 -697 191
-925 12 -82 26 -165 32 -184 9 -31 6 -41 -42 -133 -28 -55 -89 -155 -135 -223
-46 -68 -89 -143 -95 -166 -25 -93 6 -161 95 -204 49 -24 63 -27 143 -24 78 4
97 8 164 42 126 62 228 177 289 328 21 50 41 83 68 105 48 41 64 93 66 209 1
50 8 108 15 129 14 43 9 110 -36 516 -48 434 -86 636 -149 794 l-27 69 21 206
c31 291 67 538 97 666 86 372 103 487 104 702 l0 73 36 15 c59 24 111 72 138
127 25 49 26 60 26 213 0 89 -5 210 -11 269 -10 97 -9 110 6 126 22 25 22 27
-69 346 -87 305 -118 390 -188 510 -104 176 -250 290 -596 464 -195 98 -204
104 -242 158 -45 62 -47 75 -24 153 21 71 21 206 0 289 -27 103 -61 166 -126
234 -129 135 -302 183 -499 140z m51 -513 c-5 -100 11 -137 87 -195 31 -24 69
-58 85 -75 17 -17 36 -31 43 -31 22 0 51 37 63 81 26 96 122 142 170 82 18
-23 21 -36 16 -78 -13 -113 -61 -195 -112 -195 -14 0 -24 -6 -24 -14 0 -20 39
-46 67 -46 28 0 87 51 103 90 7 16 14 30 16 30 2 0 29 -26 60 -57 l56 -58 -5
-70 c-7 -103 -40 -177 -114 -255 -76 -81 -144 -120 -222 -127 -51 -5 -60 -3
-88 21 -17 14 -36 39 -41 56 -9 25 -8 30 8 35 27 9 99 91 121 138 10 23 19 56
19 72 0 29 -2 28 -68 -41 -160 -168 -290 -229 -378 -175 -49 30 -106 102 -130
166 -22 58 -23 60 -56 57 -84 -7 -90 6 -58 128 28 106 26 144 -9 199 -32 49
-48 105 -54 187 l-4 51 62 -5 c79 -6 147 9 243 54 74 35 116 51 137 53 6 1 9
-29 7 -78z m-122 -1481 c65 -195 174 -574 186 -651 l6 -37 -43 9 c-86 16 -175
11 -245 -16 -48 -18 -71 -22 -84 -15 -24 13 -26 13 -44 -6 -9 -8 -16 -30 -16
-47 0 -25 -7 -37 -34 -54 -51 -33 -88 -87 -93 -136 -4 -36 -1 -46 21 -66 14
-14 26 -34 26 -46 0 -18 -9 -22 -77 -33 -43 -7 -90 -15 -105 -18 l-26 -6 10
43 c17 77 2 158 -46 242 l-43 75 34 69 c18 37 36 91 39 118 l6 50 121 90 c145
107 237 193 292 268 22 31 48 58 58 60 9 3 23 19 30 37 13 29 10 41 -25 146
-28 82 -41 137 -44 192 l-4 77 16 -70 c8 -38 46 -162 84 -275z m1044 142 c7
-52 24 -115 99 -352 83 -266 79 -250 53 -250 -24 0 -29 13 -122 320 -51 167
-76 355 -44 335 4 -2 10 -26 14 -53z m-1448 -83 c47 -65 110 -105 186 -120 32
-6 58 -16 58 -22 0 -26 -149 -171 -277 -270 -148 -115 -154 -122 -173 -219
-12 -63 -51 -124 -102 -158 -18 -13 -53 -42 -78 -66 -92 -87 -113 -54 -46 71
25 47 46 86 46 88 0 2 -22 0 -50 -4 -59 -9 -118 -34 -193 -83 -94 -60 -152
-86 -168 -75 -16 11 -10 16 115 113 80 62 105 91 89 107 -10 10 -161 -76 -203
-116 -31 -28 -91 -65 -107 -65 -27 0 -10 20 69 81 45 35 100 81 123 101 38 36
39 38 15 38 -36 0 -136 -51 -204 -104 -56 -44 -80 -51 -74 -19 2 8 52 45 112
82 61 37 112 73 114 81 9 26 -88 4 -170 -39 -70 -36 -78 -38 -78 -21 0 27 29
44 161 92 112 41 117 41 269 46 162 4 187 11 168 42 -10 15 8 44 112 191 124
174 224 299 240 299 5 0 25 -23 46 -51z m2130 -526 c4 -43 8 -141 8 -218 1
-150 -6 -178 -57 -226 -97 -92 -431 -160 -858 -175 l-191 -7 -61 -41 -62 -41
-190 -6 c-143 -4 -213 -11 -284 -28 -168 -39 -137 6 57 84 64 26 119 49 122
52 3 3 -29 3 -70 0 -47 -3 -114 -19 -180 -41 -57 -20 -115 -36 -127 -36 -33 0
-28 25 10 48 44 27 252 117 305 133 54 16 54 29 -1 29 -59 0 -179 -32 -285
-75 -100 -40 -122 -43 -122 -15 0 23 121 85 277 141 51 19 93 37 93 41 0 3
-13 9 -28 13 -48 10 -171 -22 -274 -72 -54 -25 -100 -44 -103 -41 -22 21 61
83 202 151 130 62 181 63 393 3 106 -30 183 -46 220 -46 82 0 377 77 642 167
206 71 258 93 213 93 -16 0 -54 71 -55 102 0 13 7 15 38 11 50 -7 207 21 284
51 35 14 66 25 70 25 3 1 10 -34 14 -76z m-3149 -281 c11 -9 28 -31 37 -48 16
-33 64 -58 92 -47 8 3 25 -4 37 -15 12 -11 32 -23 43 -26 27 -8 97 19 189 73
38 23 72 41 75 41 3 0 4 -19 2 -43 -3 -37 1 -48 26 -75 24 -26 38 -32 72 -32
36 0 48 6 95 51 62 58 78 59 102 2 24 -57 22 -149 -5 -201 -69 -131 -230 -218
-448 -243 -413 -46 -762 213 -618 458 35 61 120 126 211 162 l48 19 10 -30 c6
-16 20 -37 32 -46z m-193 -567 c169 -95 379 -127 590 -90 47 8 110 24 139 35
28 11 53 20 54 20 2 0 -5 -16 -14 -35 -20 -42 -59 -59 -186 -81 -121 -21 -302
-14 -407 16 -164 46 -340 161 -340 222 0 15 -3 34 -6 42 -4 9 19 -8 50 -38 31
-30 85 -71 120 -91z m1375 121 c10 -25 30 -36 66 -36 13 0 37 -13 53 -30 26
-26 38 -30 84 -30 29 0 85 7 125 16 87 21 110 14 182 -57 160 -158 107 -351
-130 -468 -120 -59 -202 -74 -379 -68 -160 5 -255 28 -355 86 -156 91 -224
230 -172 352 50 120 225 228 405 249 110 12 112 12 121 -14z m-406 -674 c203
-122 526 -146 761 -58 80 30 186 97 225 142 17 18 32 34 34 34 3 0 1 -19 -3
-42 -11 -56 -65 -103 -185 -162 -118 -58 -194 -76 -343 -83 -247 -11 -445 52
-598 191 -45 40 -54 54 -54 81 l0 33 53 -51 c30 -29 79 -67 110 -85z"/>
<path d="M1960 2917 c0 -159 0 -162 -22 -172 -21 -9 -23 -17 -26 -112 -2 -93
-1 -104 18 -120 17 -15 20 -29 20 -95 l0 -78 -42 0 c-24 -1 -53 -6 -64 -13
-12 -7 -168 -138 -348 -292 -211 -181 -334 -280 -349 -281 -33 -1 -46 -10
-136 -92 -78 -70 -81 -75 -81 -117 0 -79 79 -137 141 -104 24 12 157 125 171
144 4 5 8 20 8 31 0 16 41 58 136 140 75 66 139 120 144 122 4 2 70 -82 146
-185 76 -103 158 -209 181 -234 l43 -46 -42 -338 c-36 -293 -44 -340 -62 -356
-14 -14 -24 -47 -37 -126 -23 -139 -23 -136 7 -172 33 -39 83 -50 131 -27 43
21 57 54 73 179 12 93 12 99 -7 120 l-21 22 34 275 c18 151 33 275 33 276 1 0
15 -1 31 -4 26 -4 36 2 68 38 28 32 422 361 497 414 10 7 55 -32 172 -153 130
-135 157 -168 155 -190 -2 -21 16 -46 86 -121 88 -93 90 -95 135 -95 73 0 127
64 108 130 -3 12 -45 64 -93 115 -74 78 -91 91 -111 86 -25 -6 -10 -21 -640
643 -80 84 -155 160 -167 168 -11 8 -45 17 -75 20 l-55 6 0 86 c0 75 3 88 20
99 18 11 20 23 20 107 0 83 -3 97 -20 112 -18 16 -20 30 -20 139 0 103 -3 123
-17 136 -19 15 -129 78 -138 78 -3 0 -5 -73 -5 -163z m-10 -1004 c-1 -283 -2
-299 -21 -322 -11 -14 -23 -20 -28 -15 -5 5 -50 68 -101 139 -52 72 -110 150
-130 175 -55 67 -55 67 -13 102 20 18 83 75 140 126 72 64 111 92 128 92 l25
0 0 -297z m345 145 c77 -79 164 -168 193 -198 l52 -56 -210 -172 -210 -172 0
370 c0 347 1 370 18 370 9 0 80 -64 157 -142z"/>
<path d="M2217 1931 c-33 -34 -57 -69 -57 -81 0 -56 84 -140 141 -140 26 0
101 51 143 98 19 21 18 22 -59 102 -43 44 -86 80 -95 80 -9 0 -42 -27 -73 -59z"/>
</g>
</svg>
