<?xml version="1.0" standalone="no"?>
<!DOCTYPE svg PUBLIC "-//W3C//DTD SVG 20010904//EN"
 "http://www.w3.org/TR/2001/REC-SVG-20010904/DTD/svg10.dtd">
<svg version="1.0" xmlns="http://www.w3.org/2000/svg"
 width="392.115819pt" height="746.952585pt" viewBox="0 0 392.115819 746.952585"
 preserveAspectRatio="xMidYMid meet">
<metadata>Created by Svg.la</metadata>
<g transform="translate(-47.080243,774.886837) scale(0.100000,-0.100000)"
fill="#000000" stroke="none">
<path d="M2772 7739 c-184 -36 -402 -254 -403 -401 0 -72 8 -388 13 -486 l5
-92 -26 -6 c-263 -58 -415 -224 -560 -614 -32 -84 -46 -110 -75 -133 l-36 -29
-49 103 c-107 228 -121 257 -147 282 -49 49 -113 48 -138 -2 -11 -20 -26 -31
-50 -35 -37 -7 -72 -42 -82 -83 -4 -13 -16 -26 -30 -29 -32 -8 -64 -50 -64
-83 0 -19 -10 -32 -35 -49 -52 -33 -51 -82 5 -197 21 -44 50 -116 64 -161 31
-98 85 -178 152 -224 42 -29 54 -45 71 -90 l20 -56 -146 -1 c-247 -1 -360 -44
-517 -196 -144 -140 -173 -212 -155 -392 5 -47 -43 -187 -66 -196 -14 -5 -25
-26 -36 -66 -21 -74 -21 -112 -2 -133 14 -15 14 -27 3 -91 -17 -96 -16 -466 0
-584 35 -252 98 -532 195 -865 65 -225 75 -245 141 -308 135 -128 372 -183
569 -133 92 24 127 41 169 84 l33 33 103 -45 104 -44 -424 -424 c-232 -233
-430 -423 -438 -423 -9 0 -51 -36 -94 -79 -66 -67 -78 -83 -73 -103 7 -27 39
-45 95 -54 35 -5 40 -2 106 64 51 52 67 75 64 90 -4 15 36 61 177 202 117 117
188 181 197 177 8 -3 129 -124 268 -269 140 -144 260 -264 267 -266 10 -3 13
-75 13 -343 0 -187 -4 -348 -9 -357 -5 -9 -11 -84 -13 -166 -5 -136 -4 -150
13 -167 33 -33 181 -21 191 15 2 6 0 81 -4 166 -5 85 -12 313 -16 505 -8 326
-7 353 9 386 12 25 92 100 240 227 l222 191 61 -4 61 -4 232 -182 c176 -139
232 -189 236 -209 4 -17 30 -48 72 -83 72 -62 81 -63 155 -28 61 28 54 55 -36
138 -44 40 -87 73 -97 73 -17 0 -398 287 -412 311 -4 5 1 9 10 9 31 0 162 67
202 103 62 56 95 131 201 451 l99 296 51 -93 c83 -151 130 -283 238 -672 87
-314 110 -387 134 -418 l20 -25 -41 -138 c-22 -76 -66 -194 -99 -263 -69 -148
-84 -202 -78 -276 17 -202 332 -206 532 -8 63 63 91 112 136 241 21 59 57 144
80 190 38 73 43 90 42 146 -1 35 -9 97 -18 137 -9 41 -18 108 -19 149 -3 85
-14 146 -80 445 -84 383 -145 564 -246 737 -70 119 -88 164 -99 235 -11 82 0
314 30 596 27 254 60 670 67 830 6 127 6 127 32 134 51 12 120 53 150 90 56
68 66 116 65 318 -1 99 -6 216 -12 259 -9 66 -8 83 4 102 17 25 11 71 -52 379
-61 299 -103 421 -188 538 -104 147 -340 322 -601 449 -44 21 -80 42 -79 46 0
4 11 30 24 57 20 41 24 66 25 143 0 85 -2 95 -22 112 -21 17 -23 27 -23 122 0
203 -34 311 -126 398 -108 103 -292 151 -452 119z m232 -511 c3 -13 7 -54 11
-93 9 -111 22 -145 75 -197 26 -27 52 -48 59 -48 6 0 22 25 36 55 37 85 62
115 94 115 43 0 55 -21 48 -87 -9 -86 -52 -163 -104 -188 -35 -16 -45 -27 -54
-60 -44 -164 -218 -331 -378 -366 -93 -20 -182 22 -224 106 -8 17 -33 84 -57
150 -35 102 -43 138 -51 240 -5 66 -12 146 -15 177 -4 31 -3 77 0 102 l7 45
32 -14 c99 -41 241 -27 392 40 55 24 106 44 112 44 7 1 15 -9 17 -21z m302
-545 c11 -41 -3 -118 -31 -177 -34 -73 -127 -166 -200 -202 -66 -32 -161 -43
-210 -24 l-30 11 55 23 c143 57 289 212 341 358 18 53 63 60 75 11z m-1856
-377 c6 -8 49 -96 94 -195 96 -209 109 -231 137 -231 12 0 49 25 84 58 64 61
114 88 140 78 26 -10 16 -39 -33 -99 -26 -32 -72 -109 -102 -170 -49 -100 -61
-116 -105 -145 -27 -19 -50 -39 -50 -45 0 -7 20 -13 46 -15 38 -2 52 2 78 24
l32 27 30 -29 c17 -16 42 -48 56 -72 28 -48 43 -47 43 4 0 40 -21 87 -57 126
l-26 27 28 65 27 65 48 -38 c26 -21 89 -59 139 -85 l91 -47 -89 -133 c-99
-146 -170 -224 -230 -250 l-39 -18 -89 45 c-49 24 -112 50 -140 57 -54 14 -62
24 -107 130 -13 31 -13 37 1 52 13 15 9 19 -46 44 -93 41 -155 120 -182 230
-6 27 -32 90 -57 140 -31 63 -43 97 -38 110 7 18 9 18 28 -6 11 -14 34 -47 52
-75 20 -33 38 -50 51 -50 33 0 29 38 -14 124 -39 77 -50 124 -33 135 15 9 29
-9 70 -96 40 -83 70 -116 92 -103 17 10 12 32 -31 127 -23 51 -44 112 -47 136
-5 41 -4 44 19 40 20 -2 31 -21 70 -116 52 -125 64 -143 85 -135 23 9 16 53
-26 172 -22 61 -40 121 -40 131 0 23 22 26 40 6z m775 -314 c32 -112 55 -205
53 -208 -3 -2 -21 31 -41 73 -34 74 -68 210 -80 328 -8 72 3 40 68 -193z
m1398 -164 c-5 -107 8 -319 23 -398 4 -19 3 -21 -4 -10 -6 8 -20 62 -33 120
-29 134 -32 282 -6 358 10 28 20 52 22 52 2 0 1 -55 -2 -122z m-1241 -418 c74
-239 78 -257 78 -332 0 -66 -1 -68 -26 -68 -52 0 -115 -23 -131 -47 -19 -29
-19 -79 0 -102 8 -9 15 -31 15 -49 0 -18 6 -39 12 -47 8 -10 2 -14 -27 -20
-61 -11 -157 -61 -212 -111 -50 -45 -50 -45 -40 -15 6 17 9 70 7 119 -3 83 -6
93 -61 206 -33 66 -76 138 -99 162 -23 25 -39 46 -37 47 2 2 21 14 41 26 56
34 133 124 233 274 50 75 98 138 107 140 10 3 28 22 40 43 l23 38 13 -49 c7
-28 36 -124 64 -215z m1808 -220 c16 -134 17 -313 2 -367 -17 -56 -56 -101
-108 -123 -108 -47 -381 -86 -669 -96 -169 -6 -195 -10 -240 -30 -87 -41 -172
-30 -339 43 -75 34 -90 37 -213 42 -106 5 -136 10 -150 24 -30 30 -2 38 163
44 170 6 204 14 183 40 -11 12 -43 14 -206 11 -172 -2 -194 -1 -210 15 -34 33
-4 42 174 47 111 3 168 9 170 16 7 21 -31 27 -204 32 -131 3 -173 8 -177 18
-8 20 6 24 96 31 110 7 290 -11 408 -42 52 -14 131 -35 174 -46 l80 -21 100
27 c56 16 187 57 293 92 203 68 302 93 370 93 47 0 73 8 73 22 0 17 -69 38
-129 38 l-59 0 -7 53 c-3 28 -9 59 -11 68 -4 15 10 17 118 21 104 4 136 9 208
34 47 16 88 27 91 24 3 -3 12 -52 19 -110z m-2767 75 c346 -60 568 -283 478
-480 -37 -82 -162 -166 -286 -193 -194 -42 -436 -7 -619 91 -81 43 -169 126
-200 189 -62 124 -5 268 132 337 133 66 316 87 495 56z m-688 -451 c85 -145
268 -255 506 -304 86 -18 126 -21 229 -17 137 6 210 22 307 68 70 33 159 115
186 169 l17 35 0 -55 c0 -73 -26 -126 -86 -179 -86 -76 -176 -110 -368 -142
-134 -22 -330 5 -485 67 -81 32 -241 135 -281 180 -41 47 -89 145 -96 197 -3
23 0 62 6 87 l13 45 12 -51 c6 -28 24 -73 40 -100z m1666 -162 c27 -48 78 -64
223 -72 122 -7 136 -10 208 -44 140 -66 241 -81 333 -49 l49 16 31 -36 c59
-68 70 -159 31 -243 -67 -145 -308 -243 -566 -231 -280 13 -527 129 -615 288
-38 69 -41 161 -8 225 37 70 117 131 208 160 65 20 88 17 106 -14z m-1720 -58
l25 -36 -20 -87 c-16 -70 -20 -123 -20 -283 -1 -189 0 -198 21 -219 26 -26 69
-28 93 -3 36 39 140 226 140 253 0 32 -33 71 -60 71 -15 0 -20 7 -20 29 0 37
41 96 66 95 10 -1 58 -18 106 -38 86 -36 210 -67 337 -83 71 -9 93 -28 106
-90 6 -30 4 -33 -18 -33 -77 0 -108 -40 -87 -110 6 -19 24 -84 40 -144 33
-122 55 -156 105 -156 47 0 66 28 140 199 59 140 65 158 54 183 -7 18 -19 28
-32 28 -18 0 -19 5 -14 56 8 76 26 99 90 118 29 8 79 29 111 47 48 25 57 27
50 12 -5 -10 -9 -83 -10 -163 0 -80 -6 -166 -12 -191 -43 -174 -66 -467 -52
-669 l8 -132 -125 -307 c-160 -391 -147 -367 -207 -407 -68 -44 -149 -64 -266
-64 -186 0 -338 69 -405 185 -27 46 -114 340 -176 592 -110 452 -132 811 -68
1138 21 111 59 245 68 245 3 0 18 -17 32 -36z m115 -109 c4 -8 -1 -52 -9 -98
-9 -45 -19 -101 -22 -123 -5 -35 -9 -41 -26 -37 -17 5 -19 11 -14 52 12 84 47
221 56 221 5 0 12 -7 15 -15z m1230 -245 c69 -127 242 -244 442 -298 87 -23
115 -26 277 -26 158 -1 189 2 258 22 190 55 342 175 363 288 3 19 11 34 16 34
16 0 4 -150 -15 -186 -9 -18 -40 -57 -68 -88 -118 -129 -405 -209 -664 -185
-145 14 -245 42 -374 106 -226 111 -324 253 -296 430 l8 48 12 -46 c7 -25 25
-70 41 -99z m-459 -2 c-3 -29 -9 -92 -13 -140 -6 -73 -10 -88 -24 -88 -9 0
-19 2 -21 5 -4 3 24 253 30 273 1 1 8 2 17 2 14 0 16 -8 11 -52z m448 -380
c-10 -72 -18 -101 -34 -117 -24 -24 -24 -11 10 -231 21 -130 34 -164 74 -182
40 -18 68 11 139 145 61 115 65 127 55 156 -12 34 -35 51 -69 51 -20 0 -22 4
-15 37 4 21 13 50 22 66 18 35 36 34 166 -12 106 -37 243 -61 353 -61 87 0
114 -14 135 -67 17 -45 12 -60 -26 -67 -42 -8 -65 -30 -65 -61 0 -33 106 -274
132 -302 28 -30 89 -31 115 -4 10 11 42 92 71 180 43 129 51 164 42 180 -11
21 -45 35 -71 29 -23 -5 -23 65 0 117 11 25 26 45 33 45 7 0 53 20 103 44 49
24 94 42 101 39 6 -2 19 -19 29 -37 14 -26 15 -37 6 -54 -17 -31 -13 -73 9
-112 11 -19 29 -55 41 -80 11 -25 32 -57 46 -72 l26 -27 -12 -103 c-41 -347
-109 -626 -257 -1060 -77 -225 -89 -251 -141 -300 -173 -167 -582 -152 -718
26 -77 101 -292 651 -356 911 -81 331 -93 685 -33 1000 8 44 17 86 19 93 3 7
20 -5 44 -31 l40 -43 -14 -96z m1396 80 c0 -13 4 -49 8 -81 5 -43 4 -61 -6
-69 -19 -16 -22 -9 -32 73 -7 50 -6 78 1 86 16 20 28 16 29 -9z m-1285 -85
c-4 -8 -12 -69 -18 -134 -10 -103 -14 -119 -30 -119 -21 0 -22 10 -8 135 17
150 19 156 42 144 12 -6 17 -17 14 -26z m839 -155 c2 -7 5 -66 7 -131 3 -113
2 -117 -18 -117 -20 0 -21 7 -27 116 -3 64 -3 123 0 130 6 17 32 18 38 2z
m-1159 -1165 c-5 -6 -157 70 -154 77 2 3 37 88 78 189 l75 183 3 -223 c1 -122
1 -224 -2 -226z m-38 -389 c-62 -61 -143 -139 -180 -174 -67 -62 -68 -63 -88
-45 -21 19 -20 20 177 217 l198 198 3 -43 c3 -43 3 -43 -110 -153z m292 -654
l0 -830 -27 0 -26 0 6 187 c4 104 7 482 7 841 0 650 0 653 20 642 20 -11 20
-21 20 -840z m228 439 c24 -26 74 -63 112 -84 39 -20 70 -38 70 -39 0 -3 -279
-241 -322 -275 -17 -13 -18 -2 -18 193 l0 206 42 46 42 46 16 -23 c8 -13 34
-45 58 -70z m-408 -276 c0 -62 -1 -113 -3 -113 -1 0 -53 51 -115 113 l-112
112 115 0 115 0 0 -112z"/>
<path d="M1515 5794 c-23 -36 -30 -87 -14 -115 12 -23 13 -22 25 31 6 30 15
67 19 83 9 35 -7 36 -30 1z"/>
</g>
</svg>
