<?xml version="1.0" standalone="no"?>
<!DOCTYPE svg PUBLIC "-//W3C//DTD SVG 20010904//EN"
 "http://www.w3.org/TR/2001/REC-SVG-20010904/DTD/svg10.dtd">
<svg version="1.0" xmlns="http://www.w3.org/2000/svg"
 width="465.951473pt" height="769.693580pt" viewBox="0 0 465.951473 769.693580"
 preserveAspectRatio="xMidYMid meet">
<metadata>Created by Svg.la</metadata>
<g transform="translate(-53.021489,786.693580) scale(0.100000,-0.100000)"
fill="#000000" stroke="none">
<path d="M1995 7858 c-122 -23 -257 -120 -312 -225 -28 -52 -38 -82 -57 -175
-4 -19 -19 -33 -50 -49 -59 -29 -128 -102 -162 -169 -54 -108 -40 -262 32
-357 l26 -35 -25 -26 c-74 -78 -90 -214 -36 -320 46 -94 146 -164 254 -179 37
-5 63 -17 105 -50 30 -23 61 -43 68 -43 22 0 13 -31 -19 -61 -17 -16 -78 -51
-135 -79 -243 -116 -527 -301 -644 -419 -142 -143 -206 -293 -217 -506 -6
-113 -8 -123 -40 -178 -74 -125 -159 -351 -214 -565 -34 -131 -39 -167 -39
-260 0 -82 5 -116 19 -147 41 -90 186 -182 387 -244 116 -36 224 -51 378 -51
l109 0 -6 -29 c-20 -101 -28 -298 -18 -440 20 -269 19 -271 -55 -491 -36 -107
-97 -270 -135 -362 -113 -273 -132 -338 -127 -433 5 -87 42 -185 79 -208 17
-11 19 -25 19 -162 0 -213 -13 -286 -60 -345 -34 -43 -39 -96 -18 -195 10 -50
25 -175 33 -280 8 -104 17 -210 20 -235 19 -139 276 -370 412 -370 158 0 191
177 96 505 -61 210 -84 324 -90 450 -6 128 7 207 48 287 l19 38 93 -1 c104 0
183 14 242 44 22 11 95 57 162 102 159 108 193 120 355 120 69 0 130 -3 134
-7 4 -5 0 -16 -9 -26 -26 -29 -47 -100 -47 -162 0 -46 7 -70 35 -124 20 -36
40 -92 46 -124 5 -31 12 -67 14 -79 12 -52 68 -70 106 -32 17 17 20 31 17 71
l-3 50 31 -36 c17 -20 51 -72 75 -116 24 -45 52 -92 63 -106 70 -94 390 -193
530 -164 142 29 126 118 -61 336 -203 238 -334 452 -350 575 -5 37 -4 38 60
79 37 23 76 57 88 77 22 36 22 36 8 207 -8 97 -14 299 -14 466 0 282 1 303 30
470 26 152 30 199 29 355 0 274 -46 522 -133 730 -80 191 -78 169 -37 292 58
179 76 249 89 344 l12 91 33 -51 c58 -89 153 -149 271 -171 71 -13 128 -8 243
21 79 20 331 113 471 175 l79 34 77 -26 c65 -24 93 -27 196 -28 116 -1 122 0
190 33 39 18 97 44 130 57 33 14 71 36 85 49 14 14 52 43 86 64 43 27 64 48
73 72 7 19 22 50 32 70 27 53 25 93 -7 118 -31 25 -60 26 -134 6 -121 -33
-264 -13 -313 43 -19 20 -18 21 22 41 90 46 152 135 137 194 -12 50 -38 45
-138 -28 -35 -27 -90 -54 -140 -71 -164 -53 -275 -130 -313 -213 l-18 -41 -71
0 c-39 1 -158 9 -264 19 -106 10 -203 16 -215 14 -20 -4 -24 2 -40 65 -22 86
-63 172 -114 239 l-40 53 -6 122 c-9 201 -53 321 -158 432 -76 82 -216 155
-319 168 -24 3 -25 6 -25 69 -1 50 -7 78 -27 119 l-27 53 83 81 c97 95 109
125 112 266 1 87 4 99 31 142 34 54 58 154 47 201 -9 43 -37 98 -62 120 -19
17 -19 17 -25 -24 -6 -45 -35 -92 -59 -97 -10 -2 -17 16 -25 72 -22 153 -111
278 -244 343 -95 46 -161 57 -269 43 l-90 -12 -43 36 c-112 92 -276 132 -422
104z m797 -504 c25 -8 63 -31 85 -50 l38 -34 -37 21 c-48 26 -142 36 -194 19
-86 -28 -133 -90 -174 -230 -38 -129 -83 -192 -162 -224 -69 -29 -192 -17
-240 24 l-23 20 28 -10 c16 -5 54 -10 86 -10 136 0 212 61 256 204 15 48 35
107 47 132 24 56 83 123 123 140 41 18 112 17 167 -2z m86 -407 c32 -26 72
-140 72 -208 0 -38 -32 -90 -89 -143 -43 -41 -40 -68 21 -186 58 -112 58 -128
-3 -143 -19 -4 -39 -15 -45 -23 -9 -11 -18 -12 -38 -4 -39 14 -66 13 -60 -4 3
-9 -10 -19 -38 -31 -62 -24 -105 -60 -129 -106 -19 -38 -22 -40 -52 -34 -44 9
-101 44 -168 102 -62 53 -141 140 -160 175 -7 13 -15 84 -19 158 -4 74 -12
148 -18 163 -7 16 -12 30 -12 31 0 2 46 3 103 2 125 -1 159 13 262 114 80 78
103 91 200 114 39 10 81 24 95 31 25 14 54 11 78 -8z m-952 -356 c76 -34 106
-95 119 -239 l6 -72 -35 -15 c-55 -23 -71 -19 -129 38 -60 59 -87 120 -87 199
0 57 13 86 43 98 31 12 37 12 83 -9z m1184 -352 c104 -36 208 -126 258 -224
45 -90 62 -171 62 -300 l0 -124 40 -46 c69 -79 140 -245 140 -325 0 -13 -18
-43 -41 -67 -61 -66 -81 -121 -87 -233 -2 -52 0 -112 6 -133 10 -36 10 -38
-11 -31 -75 22 -158 97 -201 182 l-25 49 31 94 c69 216 41 452 -87 726 -41 87
-137 246 -195 323 -25 32 -26 38 -14 65 7 17 13 40 14 53 0 25 11 25 110 -9z
m-1003 -159 c27 -60 121 -168 208 -237 64 -51 193 -123 221 -123 6 0 17 -6 23
-13 8 -10 4 -22 -15 -48 -18 -24 -24 -42 -20 -61 4 -21 1 -28 -14 -33 -11 -3
-28 -17 -39 -31 -11 -15 -29 -24 -46 -24 -14 0 -34 -4 -44 -10 -14 -7 -24 -3
-42 16 -18 19 -32 25 -59 23 -28 -2 -41 4 -67 29 -22 22 -41 32 -62 32 -24 0
-31 4 -31 19 0 23 -45 61 -71 61 -11 0 -19 7 -19 15 0 30 -31 75 -55 81 -21 5
-25 12 -25 43 0 30 -7 44 -36 72 -36 34 -36 35 -31 99 7 78 30 150 54 168 10
7 41 27 68 45 l50 32 16 -55 c8 -30 24 -75 36 -100z m760 -16 c-15 -12 -52
-28 -84 -34 -83 -16 -92 -20 -68 -30 11 -5 33 -11 48 -15 39 -8 21 -29 -38
-44 -37 -9 -51 -9 -75 4 -78 41 -52 82 73 114 45 11 100 26 122 34 49 17 59 3
22 -29z m-1072 -58 c1 -45 6 -71 20 -92 13 -20 19 -42 17 -69 -3 -42 24 -85
53 -85 9 0 15 -10 15 -25 0 -52 32 -89 79 -90 8 0 15 -10 16 -23 2 -32 44 -72
75 -72 19 0 30 -7 38 -24 16 -37 57 -60 92 -53 22 5 30 2 35 -12 8 -27 60 -46
88 -34 19 9 28 6 50 -13 42 -36 91 -30 108 13 5 13 13 22 18 19 14 -9 71 15
81 34 6 10 10 31 10 45 0 17 10 35 26 48 24 18 26 25 21 66 l-6 47 40 12 c21
7 49 12 62 12 13 0 47 12 75 26 60 30 94 79 110 159 6 28 15 61 20 75 9 23 11
20 30 -40 41 -135 37 -261 -14 -437 -36 -124 -69 -187 -136 -259 -154 -165
-369 -183 -628 -54 -152 76 -260 178 -515 485 -209 250 -190 224 -174 240 18
18 270 164 284 165 6 0 10 -28 10 -64z m-462 -290 c125 -45 230 -183 303 -398
29 -87 34 -115 34 -195 0 -148 -37 -230 -122 -274 -44 -23 -58 -47 -87 -152
-12 -43 -30 -95 -40 -115 -30 -58 -107 -157 -147 -187 l-35 -27 -62 28 c-55
26 -73 29 -162 29 -88 0 -107 -3 -149 -25 -27 -14 -51 -30 -53 -35 -2 -6 46
-10 125 -10 155 0 188 -11 310 -102 93 -70 177 -116 230 -128 31 -6 32 -9 26
-40 -3 -18 -2 -41 4 -50 8 -14 19 -2 66 69 31 48 97 129 146 180 82 85 96 95
151 110 45 13 68 15 89 7 25 -8 31 -6 43 13 30 45 47 117 47 199 0 73 4 88 30
134 82 142 265 177 384 72 149 -131 107 -373 -80 -461 -33 -15 -55 -35 -76
-70 -20 -31 -36 -48 -47 -46 -27 5 -23 30 14 89 28 46 46 62 90 83 30 14 55
27 55 28 0 2 -22 1 -50 0 -93 -7 -203 48 -256 128 -15 22 -28 39 -30 38 -1 -2
3 -24 8 -50 14 -58 -8 -148 -50 -215 -23 -37 -32 -43 -60 -43 -57 0 -36 -30
50 -74 69 -34 87 -39 170 -43 99 -5 118 -15 118 -58 0 -59 -92 -79 -238 -50
-49 9 -100 15 -113 13 -24 -4 -24 -4 6 -20 34 -18 170 -48 219 -48 48 0 62
-13 48 -44 -6 -14 -23 -33 -37 -42 -26 -17 -77 -17 -265 1 l-55 5 44 -21 c25
-12 83 -28 130 -36 47 -8 90 -19 95 -24 6 -5 -6 -23 -29 -45 l-39 -37 -96 7
c-52 4 -106 8 -120 9 -14 1 -27 -2 -30 -7 -5 -8 139 -55 173 -56 31 0 14 -24
-37 -49 -71 -35 -122 -33 -244 13 -56 21 -117 49 -135 62 -56 41 -78 45 -282
54 -251 12 -369 40 -537 127 -158 82 -186 166 -137 406 42 205 200 620 229
602 6 -3 10 -11 10 -17 0 -13 81 -128 91 -128 9 0 4 21 -27 122 -45 149 -41
332 10 460 49 121 143 246 236 314 49 37 82 41 143 20z m3707 -539 c-55 -27
-79 -32 -152 -35 -93 -4 -119 10 -50 26 89 22 190 39 227 40 l40 0 -65 -31z
m-135 -137 c3 -5 -11 -14 -32 -19 -21 -6 -68 -19 -106 -30 -72 -21 -80 -13
-16 19 62 32 143 48 154 30z m-3375 -592 c21 -46 44 -103 50 -128 12 -44 12
-44 -25 -78 -32 -30 -42 -33 -73 -28 -19 3 -65 25 -102 50 l-67 44 66 69 c36
38 75 88 86 111 11 23 21 42 23 42 2 0 21 -37 42 -82z m171 -859 c-10 -31 -10
-48 -1 -69 10 -24 46 -50 70 -50 21 0 71 55 81 91 9 27 18 39 31 39 25 0 23
-25 -10 -95 -35 -73 -54 -90 -101 -90 -36 0 -37 0 -80 -94 -67 -147 -85 -237
-149 -741 l-19 -145 -8 70 c-13 110 2 434 25 561 24 136 59 259 98 343 26 57
28 67 16 90 -15 28 -10 58 18 115 14 28 23 35 30 28 8 -8 8 -23 -1 -53z m1289
-1857 c0 -34 87 -196 180 -336 100 -152 113 -187 82 -226 -16 -20 -28 -24 -71
-23 -68 1 -128 38 -199 123 -30 36 -91 108 -137 160 -101 116 -115 143 -115
215 l0 55 63 1 c41 0 82 8 122 24 74 29 75 29 75 7z m-1630 -183 c42 -30 101
-63 133 -74 32 -11 55 -24 53 -30 -3 -5 -19 -46 -37 -90 -30 -77 -31 -84 -26
-190 3 -68 19 -174 41 -280 44 -207 46 -256 11 -290 -42 -43 -106 -31 -173 30
-53 47 -76 105 -112 281 -35 173 -40 317 -14 399 9 28 18 106 21 178 4 89 9
127 17 124 6 -3 45 -29 86 -58z"/>
<path d="M2225 4811 c-54 -24 -105 -83 -105 -122 0 -104 123 -199 259 -199 51
0 61 3 86 30 54 56 45 175 -18 247 -56 64 -142 81 -222 44z"/>
</g>
</svg>
