<?xml version="1.0" standalone="no"?>
<!DOCTYPE svg PUBLIC "-//W3C//DTD SVG 20010904//EN"
 "http://www.w3.org/TR/2001/REC-SVG-20010904/DTD/svg10.dtd">
<svg version="1.0" xmlns="http://www.w3.org/2000/svg"
 width="355.288274pt" height="564.549877pt" viewBox="0 0 355.288274 564.549877"
 preserveAspectRatio="xMidYMid meet">
<metadata>Created by Svg.la</metadata>
<g transform="translate(-31.711726,580.573066) scale(0.100000,-0.100000)"
fill="#000000" stroke="none">
<path d="M1539 5792 c-135 -45 -203 -121 -333 -371 -70 -134 -130 -195 -226
-231 -111 -41 -209 -153 -210 -237 l0 -32 48 48 c33 33 71 57 126 80 86 36
108 36 49 0 -68 -41 -124 -91 -148 -133 -28 -50 -49 -145 -40 -186 l7 -30 37
57 c33 51 108 130 116 121 1 -2 -3 -33 -9 -70 -10 -62 -14 -69 -58 -102 -60
-46 -277 -305 -278 -331 0 -11 -25 -52 -55 -90 -115 -147 -204 -273 -226 -317
l-22 -46 21 -43 c12 -24 60 -89 106 -144 l84 -99 -49 -54 c-170 -186 -170
-455 1 -818 117 -249 242 -377 410 -420 129 -33 259 -6 388 80 92 62 168 149
242 281 30 53 74 114 97 135 45 42 120 70 187 70 54 0 157 25 204 49 52 27 86
66 118 134 24 53 26 68 22 145 -3 58 -13 111 -30 159 -22 62 -23 73 -10 78 19
7 16 11 41 -63 66 -202 45 -333 -70 -436 -62 -55 -117 -74 -255 -85 -56 -5
-112 -14 -125 -21 -50 -26 -102 -89 -162 -195 -79 -139 -197 -265 -297 -313
-72 -35 -167 -62 -216 -62 -32 0 -32 0 -38 -62 -37 -387 -36 -382 -95 -511
-17 -37 -35 -85 -41 -107 -6 -22 -17 -40 -25 -40 -17 0 -19 -5 -49 -170 -29
-156 -50 -300 -67 -455 -6 -60 -18 -122 -26 -137 -7 -15 -13 -40 -12 -55 2
-36 -32 -157 -77 -280 -57 -154 -66 -192 -60 -227 17 -88 142 -123 253 -72 61
29 80 55 93 127 5 30 13 70 19 89 5 19 12 78 16 130 4 52 13 107 21 123 8 15
12 36 9 46 -3 10 1 24 10 31 8 7 15 25 15 41 0 25 112 320 225 592 21 50 35
98 32 109 -8 28 28 138 68 211 19 34 59 130 89 212 61 168 257 658 286 715 23
45 67 62 84 34 110 -180 258 -481 335 -683 38 -97 81 -200 95 -230 28 -55 71
-242 62 -274 -7 -30 71 -277 163 -516 29 -73 50 -139 47 -146 -2 -7 4 -26 14
-43 17 -28 18 -35 4 -103 -12 -56 -13 -82 -5 -115 6 -24 11 -63 11 -88 0 -41
3 -47 32 -62 18 -10 48 -21 67 -25 28 -6 34 -4 38 12 7 25 19 16 44 -34 34
-67 67 -96 137 -117 85 -26 177 -26 220 0 63 39 55 77 -32 169 -35 36 -79 91
-98 121 -43 67 -96 187 -104 232 -3 18 -9 42 -14 53 -10 25 -19 80 -70 435
-49 339 -47 330 -63 330 -22 0 -103 306 -142 535 -64 379 -130 680 -194 883
l-29 92 24 6 c13 4 24 14 24 23 0 20 -76 248 -115 344 -15 37 -26 69 -24 70 2
2 30 20 62 42 l58 39 45 -22 c59 -29 136 -29 258 2 132 34 333 138 420 218 87
79 107 113 104 174 l-3 49 75 43 c41 23 74 46 73 50 -1 5 -12 32 -25 61 l-23
52 -94 -46 c-51 -25 -95 -44 -97 -42 -2 2 38 23 90 48 55 26 96 51 99 62 3 10
11 15 19 12 15 -6 260 123 386 203 14 9 22 10 22 3 0 -6 -28 -25 -62 -42 -35
-17 -65 -35 -68 -38 -3 -4 -62 -44 -132 -90 -71 -46 -126 -87 -123 -91 3 -5
36 0 73 11 37 11 103 29 147 40 44 11 115 36 159 55 43 19 81 32 85 29 3 -3
-1 -10 -9 -15 -22 -14 -241 -84 -347 -111 -51 -13 -93 -27 -93 -32 0 -5 15 -6
33 -3 32 6 32 6 5 -5 -16 -6 -28 -16 -28 -22 0 -22 17 -40 30 -32 7 4 43 9 80
9 63 2 66 1 62 -20 -5 -27 9 -37 42 -28 33 8 40 30 15 52 -19 19 -18 19 43 45
35 14 86 35 115 46 l52 20 3 -27 c4 -32 33 -40 63 -18 17 12 18 17 7 40 -11
25 -10 27 28 42 22 9 40 20 40 24 0 6 -129 281 -135 288 -2 2 -21 -6 -44 -17
-47 -25 -52 -25 -45 -8 9 24 -20 39 -50 25 -34 -15 -33 -53 2 -52 29 1 28 -12
-1 -23 -13 -4 -87 -42 -164 -83 -127 -67 -142 -79 -159 -115 -18 -37 -28 -44
-149 -98 l-130 -59 -47 17 c-26 9 -52 14 -58 10 -6 -4 -10 -23 -8 -43 l3 -36
-199 -93 c-110 -50 -203 -90 -208 -87 -4 3 -8 12 -8 20 0 7 -16 55 -36 105
-30 75 -34 93 -23 100 11 7 4 38 -40 170 -70 209 -106 283 -164 336 -45 42
-144 99 -154 89 -3 -3 0 -159 6 -348 13 -397 24 -630 28 -573 1 22 8 71 14
109 l11 69 54 -103 c30 -57 53 -104 52 -105 -7 -6 -128 -65 -133 -65 -3 0 -13
17 -22 37 -12 30 -18 118 -29 403 -18 490 -18 589 0 596 21 8 37 54 50 145
l12 81 23 -46 c23 -47 29 -113 16 -158 l-7 -23 24 23 c60 55 56 136 -12 290
-31 70 -48 128 -66 230 -44 242 -98 370 -181 422 -26 17 -63 32 -82 36 -20 3
-50 12 -68 20 -53 24 -141 26 -204 6z m326 -382 c31 -44 58 -93 61 -110 9 -41
-22 -168 -57 -238 -64 -129 -164 -202 -249 -183 -84 19 -175 105 -210 198 -21
57 -27 152 -10 182 5 10 57 42 115 71 120 59 207 132 246 204 l24 45 13 -44
c7 -25 37 -81 67 -125z m-292 -569 c47 -18 110 -13 160 13 l47 23 17 -34 c11
-23 31 -42 65 -59 55 -28 56 -37 11 -132 -27 -57 -79 -99 -151 -123 -50 -17
-159 -6 -210 20 -99 51 -172 150 -172 237 0 36 3 42 35 57 20 9 45 33 56 52
l21 35 46 -40 c26 -21 60 -44 75 -49z m-827 -582 c52 -44 94 -84 94 -88 0 -4
-26 -32 -58 -62 -32 -30 -72 -71 -90 -92 -26 -31 -36 -36 -47 -27 -10 8 -15 8
-20 -1 -13 -21 185 -288 310 -418 90 -93 132 -121 239 -161 30 -12 73 -34 95
-51 23 -16 55 -32 71 -36 17 -3 30 -9 30 -14 0 -18 -52 -21 -97 -6 -26 9 -50
14 -52 11 -19 -19 75 -84 121 -84 34 0 45 -16 15 -24 -40 -11 -82 -6 -120 13
-48 24 -48 9 0 -24 26 -17 51 -25 81 -25 53 0 48 -13 -11 -30 -42 -11 -48 -10
-106 19 -33 17 -61 28 -61 23 0 -15 54 -59 85 -70 l30 -10 -27 -7 c-55 -14
-185 79 -258 185 -44 64 -76 95 -392 371 -54 47 -180 195 -200 234 l-21 40 27
50 c14 27 44 73 66 100 72 89 159 205 177 236 9 16 19 29 21 29 2 0 46 -36 98
-81z m324 -164 c34 -175 43 -303 22 -328 -10 -12 -6 -15 25 -21 110 -18 163 2
276 104 120 108 158 125 272 125 69 0 99 -5 130 -19 86 -42 247 -236 214 -257
-10 -6 -24 10 -52 53 -45 72 -132 159 -185 184 -51 25 -142 23 -213 -5 -35
-13 -86 -47 -134 -89 -119 -103 -151 -122 -210 -122 -27 0 -88 7 -134 15 -46
8 -122 17 -170 21 l-86 7 -72 97 -72 98 94 93 c52 51 108 99 125 107 17 8 52
38 78 67 26 29 50 50 53 46 3 -3 20 -82 39 -176z m2160 90 c0 -6 -157 -85
-167 -84 -6 0 154 86 165 88 1 1 2 -1 2 -4z m9 -39 c-10 -9 -149 -76 -149 -71
0 6 131 74 144 75 5 0 7 -2 5 -4z m-244 -57 c52 -35 82 -77 91 -126 5 -28 0
-41 -45 -97 -28 -35 -75 -80 -104 -98 -94 -62 -259 -136 -352 -158 -99 -23
-210 -25 -210 -2 0 7 88 60 195 117 l195 105 35 -35 c57 -56 66 -42 26 41 -46
95 -42 107 14 49 32 -33 60 -45 60 -26 0 5 -16 32 -35 61 -55 82 -49 89 29 30
29 -22 56 -40 59 -40 17 0 4 32 -28 70 -35 42 -39 76 -6 46 10 -9 22 -16 27
-16 5 0 20 -9 34 -20 33 -26 40 -25 40 5 0 16 -15 42 -40 69 -60 65 -55 72 15
25z m195 -4 c-36 -19 -72 -34 -80 -34 -16 0 118 67 135 68 6 0 -19 -15 -55
-34z m-798 -41 c17 -36 33 -85 35 -108 l5 -42 -82 -37 c-45 -20 -86 -37 -91
-37 -5 0 -25 33 -45 73 -20 39 -45 84 -56 99 l-19 27 48 21 c26 11 71 31 98
44 28 14 56 25 63 25 7 1 27 -29 44 -65z m283 -89 c-237 -117 -420 -202 -425
-197 -3 2 0 7 5 9 6 2 123 57 260 122 138 66 255 119 260 119 6 1 -39 -24
-100 -53z m85 0 c0 -7 -641 -322 -670 -329 -25 -6 -25 -6 -2 5 12 7 22 16 22
20 0 5 6 6 13 4 6 -2 40 10 75 28 34 18 117 59 185 92 67 33 178 88 247 122
140 69 130 65 130 58z m-170 -135 c-144 -73 -150 -76 -150 -59 0 5 3 8 8 6 4
-3 63 24 132 59 69 34 130 63 135 63 6 0 -51 -31 -125 -69z m140 35 c0 -3 -54
-32 -120 -65 -66 -33 -120 -58 -120 -55 0 4 226 122 238 124 1 1 2 -1 2 -4z
m-566 -145 c-79 -37 -134 -58 -124 -47 9 9 185 87 195 86 6 0 -27 -18 -71 -39z
m241 20 c-3 -5 -12 -10 -18 -10 -7 0 -6 4 3 10 19 12 23 12 15 0z m-70 -32
c-11 -6 -28 -18 -37 -26 -10 -8 -18 -11 -18 -6 0 10 50 43 65 43 6 0 1 -5 -10
-11z m-66 -35 c-1 -5 -114 -65 -252 -134 -161 -80 -253 -132 -255 -143 -3 -12
38 4 152 61 85 42 153 80 151 83 -2 3 4 6 13 6 9 1 26 5 37 9 48 20 -2 -8
-160 -89 -93 -48 -175 -93 -181 -101 -6 -8 -13 -12 -16 -9 -3 3 -74 -29 -157
-70 -83 -42 -151 -74 -151 -71 0 3 55 32 122 66 149 75 172 89 160 101 -6 6
-68 -20 -161 -66 -83 -42 -154 -76 -158 -75 -5 0 68 39 161 86 136 68 166 87
153 95 -10 5 -15 13 -12 18 6 10 -59 68 -92 81 -73 28 -169 -2 -223 -70 -36
-45 -85 -63 -74 -27 39 129 189 192 310 131 27 -14 52 -25 57 -25 4 0 64 25
134 55 70 30 129 53 131 50 2 -2 -11 -10 -29 -18 -160 -67 -215 -91 -223 -98
-4 -4 2 -20 14 -37 l22 -29 61 33 c63 34 96 45 62 21 -12 -9 -14 -16 -7 -21 6
-4 98 38 204 92 200 103 209 107 207 95z m77 -8 c-11 -8 -25 -15 -30 -15 -6 1
0 7 14 15 32 19 40 18 16 0z m-293 -39 c15 -4 18 -9 11 -16 -12 -12 -174 -91
-174 -85 0 3 39 25 88 50 48 25 77 44 65 41 -12 -2 -22 -1 -21 3 3 26 -4 33
-29 27 l-28 -6 25 14 c23 13 26 13 34 -4 4 -10 18 -21 29 -24z m158 -31 c-36
-19 -66 -33 -69 -31 -2 3 9 11 25 19 15 9 42 22 58 31 17 9 35 16 40 16 6 0
-19 -16 -54 -35z m-425 -90 c-11 -8 -25 -15 -30 -15 -6 1 0 7 14 15 32 19 40
18 16 0z m-151 -13 c-14 -12 -272 -132 -282 -131 -9 1 267 137 282 138 6 1 6
-2 0 -7z m-45 -82 c-19 -11 -39 -19 -45 -19 -5 0 6 8 25 19 19 11 40 19 45 19
6 0 -6 -8 -25 -19z m80 2 c-19 -9 -100 -47 -179 -84 -79 -37 -146 -66 -149
-64 -2 3 11 12 30 22 57 30 312 143 323 143 6 0 -6 -8 -25 -17z m-180 -47
c-25 -13 -49 -24 -55 -24 -5 0 10 11 35 24 25 13 50 24 55 24 6 0 -10 -11 -35
-24z m280 -52 c0 -42 -43 -125 -79 -156 -35 -29 -116 -57 -166 -57 -33 0 -117
38 -122 55 -2 6 3 19 10 29 12 17 16 17 43 3 52 -27 101 -31 149 -12 53 20
112 84 121 132 8 43 44 48 44 6z m-797 -105 c30 -46 67 -108 82 -137 23 -45
95 -211 95 -217 0 -6 -63 -23 -70 -19 -4 2 -15 25 -25 50 -16 43 -16 47 -1 58
16 11 15 18 -6 77 -13 36 -26 67 -29 70 -3 3 -16 27 -30 54 -13 26 -34 56 -46
66 -12 10 -27 30 -33 44 -12 33 -12 36 -1 36 6 0 34 -37 64 -82z m14 -129 c50
-101 63 -139 44 -139 -12 0 -36 39 -45 73 -3 15 -11 27 -16 27 -5 0 -6 7 -3
17 4 11 3 14 -5 9 -8 -5 -10 -1 -5 10 5 13 3 15 -7 9 -10 -6 -12 -4 -7 8 3 10
2 17 -4 17 -6 0 -7 5 -4 10 3 6 2 10 -3 10 -5 0 -9 6 -9 13 0 6 -4 20 -8 31
-6 14 -4 18 6 14 8 -2 37 -51 66 -109z"/>
<path d="M1788 3459 c-21 -11 -38 -26 -38 -34 0 -8 3 -15 6 -15 17 0 103 54
98 61 -8 13 -25 10 -66 -12z"/>
<path d="M3459 4512 c-14 -12 -20 -25 -16 -35 8 -22 29 -21 58 2 20 16 21 21
10 35 -17 20 -24 20 -52 -2z"/>
<path d="M3324 4446 c-15 -12 -17 -18 -8 -33 20 -31 84 -3 71 31 -8 20 -37 21
-63 2z"/>
<path d="M3320 4273 c-77 -43 -75 -41 -67 -49 6 -6 137 73 137 82 0 6 -2 5
-70 -33z"/>
<path d="M3608 4179 c-45 -25 -2 -67 44 -43 31 16 34 24 16 42 -15 15 -37 15
-60 1z"/>
</g>
</svg>
