<?xml version="1.0" standalone="no"?>
<!DOCTYPE svg PUBLIC "-//W3C//DTD SVG 20010904//EN"
 "http://www.w3.org/TR/2001/REC-SVG-20010904/DTD/svg10.dtd">
<svg version="1.0" xmlns="http://www.w3.org/2000/svg"
 width="380.655120pt" height="754.329424pt" viewBox="0 0 380.655120 754.329424"
 preserveAspectRatio="xMidYMid meet">
<metadata>Created by Svg.la</metadata>
<g transform="translate(-61.694341,781.480104) scale(0.100000,-0.100000)"
fill="#000000" stroke="none">
<path d="M2740 7810 c-10 -6 -2 -21 35 -64 26 -31 46 -58 43 -61 -2 -2 -26 3
-53 11 -78 24 -294 30 -380 10 -69 -17 -115 -38 -115 -55 0 -5 30 -23 68 -41
l67 -32 -64 -23 c-78 -29 -155 -80 -215 -145 -70 -74 -64 -94 22 -74 84 20 86
19 43 -38 -42 -58 -72 -113 -90 -170 -16 -49 -7 -64 26 -43 14 9 26 15 27 13
1 -2 -1 -75 -5 -163 -10 -227 1 -293 80 -488 l40 -98 -42 -19 c-49 -21 -105
-77 -212 -215 -43 -55 -98 -124 -123 -153 l-45 -54 -13 39 c-13 37 -13 39 14
58 89 65 151 147 166 221 5 24 14 33 34 37 42 9 95 49 114 87 38 75 11 195
-54 241 -39 28 -101 34 -162 15 -47 -14 -50 -14 -85 10 -42 28 -125 33 -157 9
-10 -8 -32 -15 -47 -15 -15 0 -41 -7 -57 -15 -16 -8 -52 -20 -79 -26 -28 -6
-62 -20 -77 -32 -15 -12 -46 -31 -68 -42 -55 -29 -78 -63 -80 -120 l-1 -47
-72 -19 c-87 -22 -110 -33 -118 -58 -3 -11 -16 -23 -28 -26 -45 -14 -100 -61
-128 -110 -24 -41 -29 -62 -29 -115 0 -108 54 -200 218 -372 l75 -79 1 -147
c1 -131 4 -153 25 -199 26 -59 93 -126 149 -150 20 -9 65 -16 99 -16 51 -1 74
5 135 36 85 42 211 139 354 272 l102 94 6 -52 c4 -29 20 -90 36 -137 36 -106
57 -188 66 -263 6 -51 3 -64 -19 -105 -14 -26 -33 -73 -42 -106 -14 -48 -15
-65 -5 -100 l12 -43 -59 -84 c-60 -85 -221 -332 -396 -605 -63 -97 -97 -161
-97 -178 0 -20 16 -44 58 -88 l59 -61 -52 -131 c-62 -157 -134 -360 -169 -476
-23 -76 -96 -515 -126 -758 -10 -79 -16 -96 -39 -120 -23 -23 -30 -43 -45
-137 -10 -60 -31 -177 -47 -259 -29 -144 -32 -151 -77 -209 -50 -63 -159 -150
-272 -218 -95 -56 -154 -110 -182 -167 -13 -26 -32 -59 -42 -74 -25 -39 -38
-153 -21 -193 34 -80 149 -144 275 -152 103 -7 184 9 288 58 72 33 100 55 198
150 l115 112 22 -22 c33 -30 64 -26 158 22 115 58 132 84 126 192 -6 100 -23
229 -37 275 -18 62 -11 98 56 297 53 155 65 203 61 234 -4 33 3 57 38 132 24
51 53 128 64 172 25 97 51 270 51 345 0 74 35 144 145 295 129 177 165 217
184 209 9 -4 90 -10 181 -15 126 -6 187 -14 260 -33 52 -14 115 -26 140 -26
l45 0 68 -221 c99 -321 127 -389 204 -494 92 -124 333 -589 326 -627 -4 -20
12 -64 60 -165 98 -208 140 -327 131 -376 -17 -103 -77 -238 -164 -367 -84
-125 -130 -258 -130 -377 0 -78 2 -84 32 -118 63 -72 181 -111 310 -102 161
11 298 108 377 269 40 80 70 190 71 253 0 60 18 100 50 112 45 17 70 79 70
175 0 43 -6 97 -14 120 -8 24 -17 57 -21 73 -3 17 -29 80 -57 140 -41 91 -57
143 -89 295 -47 224 -54 245 -84 268 -18 15 -30 47 -55 148 -68 275 -99 349
-213 501 -41 54 -79 107 -85 118 -5 11 -17 128 -26 260 -30 452 -29 419 -7
439 20 18 21 18 51 -13 18 -17 36 -31 41 -31 5 0 9 -16 9 -35 0 -21 8 -43 20
-55 27 -27 123 -53 163 -44 17 4 50 6 72 5 27 -1 57 7 88 24 27 14 58 25 71
25 40 0 102 54 132 117 28 55 29 64 27 177 -1 65 -7 152 -13 194 -8 56 -7 78
1 89 14 16 5 671 -12 868 -13 159 -18 178 -100 405 -147 405 -279 714 -353
830 -70 107 -173 177 -471 316 -106 50 -111 53 -144 109 -19 32 -58 83 -87
113 l-53 55 41 46 c49 55 78 118 85 186 3 28 13 79 23 115 10 36 21 82 25 104
l6 38 23 -21 c12 -11 25 -21 29 -21 12 0 7 82 -8 145 -8 33 -14 63 -15 68 0 4
18 7 40 7 26 0 40 5 40 13 0 28 -66 100 -103 113 -15 5 -17 13 -13 42 16 108
17 148 4 165 -13 17 -16 16 -60 -17 l-46 -36 -17 49 c-20 61 -86 166 -114 180
-37 20 -41 14 -41 -66 l0 -76 -47 48 c-57 58 -111 92 -178 115 -69 24 -108 30
-125 20z m-436 -685 c-15 -48 -21 -82 -15 -88 5 -5 33 9 72 38 60 44 195 114
248 130 23 7 23 7 -9 -50 -21 -37 -29 -60 -22 -67 6 -6 51 11 132 52 92 46
121 57 116 43 -4 -10 -10 -31 -13 -47 -6 -26 -4 -28 18 -21 13 4 37 14 53 22
27 14 28 14 21 -3 -4 -11 -10 -44 -12 -75 -4 -47 0 -67 26 -127 17 -38 31 -77
31 -84 0 -8 6 -23 14 -34 14 -18 17 -17 73 37 73 70 101 89 133 89 103 0 102
-148 -3 -255 -36 -36 -68 -59 -103 -71 -44 -15 -56 -26 -83 -70 -79 -132 -240
-237 -415 -270 -161 -30 -180 -16 -268 188 -62 144 -70 183 -74 383 -4 226 4
276 57 329 22 21 41 37 44 34 2 -2 -7 -39 -21 -83z m-466 -578 c28 -25 56 -83
47 -97 -4 -6 -17 -10 -30 -10 -19 0 -28 10 -43 43 -11 23 -29 51 -41 61 -11
11 -21 23 -21 29 0 16 62 -2 88 -26z m-123 -19 c15 -7 35 -29 46 -50 l19 -37
-29 -16 c-39 -20 -38 -20 -46 15 -4 16 -20 44 -36 61 -16 17 -29 33 -29 35 0
9 51 3 75 -8z m1382 -120 c-14 -303 -99 -509 -334 -811 -48 -61 -104 -137
-123 -166 l-34 -55 -13 44 c-59 204 -89 429 -73 556 13 103 47 217 63 212 7
-2 30 -41 52 -86 22 -44 45 -80 50 -78 16 5 7 107 -14 149 l-20 39 22 6 c51
13 196 95 245 137 29 26 73 75 98 110 24 35 53 66 62 68 9 3 19 5 21 6 2 0 1
-59 -2 -131z m-1479 75 c31 -19 52 -71 52 -129 0 -60 -16 -55 -52 17 -15 30
-44 69 -63 87 -40 37 -41 39 -17 45 22 6 51 -1 80 -20z m-91 -58 c29 -19 53
-71 53 -115 0 -44 -27 -39 -80 16 -46 47 -54 49 -117 29 -51 -16 -16 68 37 88
23 10 79 0 107 -18z m372 -46 c30 -11 61 -52 61 -82 0 -7 -7 -36 -15 -64 -19
-66 -84 -137 -163 -183 -53 -30 -62 -40 -68 -70 -16 -94 -48 -120 -144 -119
-49 0 -141 26 -143 39 0 3 3 24 6 46 6 37 9 41 32 36 31 -6 34 17 5 43 -12 10
-30 34 -42 53 -26 42 -23 44 91 66 47 10 94 20 105 23 17 5 18 1 12 -31 -9
-45 9 -41 42 10 16 25 41 43 80 60 31 14 72 32 90 40 44 19 32 34 -27 34 -87
0 -104 56 -29 93 39 20 64 21 107 6z m1401 -60 c23 -41 -38 -68 -63 -27 -8 12
-7 21 2 32 19 22 48 20 61 -5z m-976 -76 c4 -10 -4 -27 -22 -47 -16 -17 -41
-47 -55 -67 l-27 -35 33 -24 c49 -36 137 -113 137 -120 0 -4 -57 -41 -126 -84
-98 -61 -128 -75 -135 -65 -10 17 -15 13 99 88 50 34 92 63 92 66 0 2 -34 29
-75 60 -41 30 -75 59 -75 63 0 20 124 182 140 182 4 0 11 -8 14 -17z m1234
-75 c30 -30 0 -75 -42 -64 -29 7 -40 31 -26 57 12 21 50 25 68 7z m-229 -12
c9 -11 10 -20 1 -36 -13 -25 -47 -24 -63 2 -22 34 36 66 62 34z m-926 -17 c16
-26 1 -49 -33 -49 -35 0 -47 19 -30 50 13 24 47 24 63 -1z m-1156 -45 c41 4
80 9 87 12 8 3 16 -5 20 -21 5 -20 0 -31 -27 -55 -33 -29 -35 -34 -63 -200
-16 -93 -32 -170 -35 -170 -14 0 -153 157 -190 213 -48 73 -57 124 -32 174 10
21 33 48 52 60 l33 22 41 -21 c35 -17 51 -19 114 -14z m2464 -4 c21 -12 25
-50 7 -68 -39 -39 -100 17 -63 58 21 23 29 24 56 10z m-360 -116 c9 -11 10
-20 2 -32 -15 -24 -44 -27 -59 -7 -28 38 27 75 57 39z m519 10 c0 -3 -29 -34
-64 -68 -74 -73 -137 -189 -162 -301 -9 -38 -22 -90 -29 -115 l-13 -45 -1 58
c-2 120 57 293 130 381 50 60 139 118 139 90z m-470 -153 c25 -3 43 -11 40
-16 -3 -6 -56 -9 -132 -8 l-127 3 18 -43 c10 -23 44 -86 75 -141 31 -54 56
-102 56 -107 0 -5 -8 -9 -18 -9 -13 0 -43 46 -105 160 -48 88 -85 165 -82 170
6 10 179 4 275 -9z m-2006 -27 c20 -19 20 -28 1 -44 -30 -25 -70 15 -45 45 16
19 25 19 44 -1z m894 -26 c7 -7 12 -22 12 -35 0 -27 -42 -42 -65 -23 -28 23
-11 70 25 70 9 0 21 -5 28 -12z m-16 -255 c229 -318 212 -291 201 -315 -8 -18
-31 9 -179 211 -93 127 -182 249 -198 271 -28 37 -28 60 -1 60 7 0 87 -102
177 -227z m-472 77 c0 -101 -28 -235 -46 -218 -4 5 12 211 22 271 10 62 24 31
24 -53z m-420 51 c7 -15 6 -24 -6 -36 -9 -9 -21 -14 -27 -12 -18 6 -31 33 -24
51 9 22 44 20 57 -3z m1014 -57 c9 -8 16 -19 16 -23 0 -14 -25 -31 -46 -31
-27 0 -41 34 -24 55 16 19 35 19 54 -1z m786 -53 c0 -28 -28 -47 -48 -34 -24
15 -27 44 -7 59 22 17 55 1 55 -25z m-1825 -41 c0 -18 -6 -26 -23 -28 -13 -2
-25 3 -28 12 -10 26 4 48 28 44 17 -2 23 -10 23 -28z m1656 -36 c9 -11 10 -20
2 -32 -15 -24 -44 -27 -59 -7 -28 38 27 75 57 39z m266 -25 c2 -9 -61 -48
-178 -109 -100 -52 -250 -136 -333 -185 l-151 -91 -3 -49 c-1 -28 15 -171 37
-320 21 -148 35 -274 31 -279 -18 -18 -39 4 -44 46 -3 24 -21 158 -41 298 -19
141 -35 270 -35 287 0 29 8 36 113 98 61 37 180 104 262 150 343 189 337 186
342 154z m-767 -20 c23 -41 -38 -68 -63 -27 -8 12 -7 21 2 32 19 22 48 20 61
-5z m340 -44 c18 -21 3 -55 -24 -55 -33 0 -50 23 -36 49 12 24 42 27 60 6z
m-154 -106 c21 -24 10 -52 -24 -57 -32 -5 -49 34 -26 59 22 24 27 24 50 -2z
m1193 -454 c1 -22 9 -56 20 -75 19 -37 22 -80 37 -590 5 -154 10 -219 20 -230
11 -13 5 -23 -38 -68 -28 -29 -51 -52 -53 -50 -1 2 -16 50 -33 108 -17 58 -69
220 -115 359 l-84 255 24 35 c28 42 28 54 -14 224 l-26 108 22 127 c12 70 27
149 33 177 l11 50 98 -195 c74 -147 98 -205 98 -235z m-614 50 l84 -150 -21
-18 c-12 -10 -25 -16 -31 -14 -5 1 -48 72 -94 155 -70 127 -82 156 -72 168 27
33 49 10 134 -141z m876 -16 c-37 -31 -104 -52 -147 -47 -25 3 -15 9 66 45
101 45 133 46 81 2z m-1882 -118 c14 -26 -8 -54 -40 -49 -16 2 -25 10 -27 27
-6 40 48 58 67 22z m132 -87 c19 -23 -1 -49 -37 -49 -20 0 -30 6 -32 18 -8 40
43 63 69 31z m1156 -50 c8 -21 -9 -48 -32 -53 -26 -5 -47 26 -34 50 12 23 57
25 66 3z m-227 -69 c18 -21 3 -55 -24 -55 -33 0 -50 23 -36 49 12 24 42 27 60
6z m-224 -36 c20 -23 11 -51 -20 -57 -39 -8 -63 47 -28 67 24 14 26 14 48 -10z
m-229 -15 c8 -21 -9 -48 -32 -53 -26 -5 -47 26 -34 50 12 23 57 25 66 3z
m1464 -164 c25 -14 24 -46 -2 -60 -16 -9 -25 -8 -40 6 -23 21 -24 28 -3 48 18
19 20 19 45 6z m-2136 -179 c-8 -23 -46 -113 -84 -199 -38 -86 -93 -213 -121
-282 -28 -69 -55 -129 -61 -135 -6 -6 -16 -2 -29 10 -19 20 -18 22 114 290
132 271 185 369 192 362 2 -2 -2 -23 -11 -46z m2143 17 c30 -30 -4 -77 -41
-57 -29 17 -15 69 18 69 6 0 16 -5 23 -12z m-914 -389 c74 -304 100 -429 90
-439 -5 -4 -18 -11 -29 -14 -19 -6 -22 4 -48 157 -15 89 -40 232 -56 317 -15
85 -31 178 -34 205 -13 101 21 4 77 -226z m907 241 c10 -6 19 -19 19 -30 0
-16 -26 -40 -44 -40 -8 0 -36 31 -36 40 0 9 28 40 36 40 3 0 14 -5 25 -10z
m-1367 -381 c9 -167 17 -326 19 -354 2 -50 2 -50 -30 -53 l-33 -3 0 299 c0
315 8 471 21 435 4 -11 15 -157 23 -324z m-418 283 c-3 -26 -33 -173 -66 -326
-33 -154 -60 -283 -60 -288 0 -12 -24 -10 -43 5 -16 11 -13 29 43 237 60 222
120 420 128 420 3 0 2 -21 -2 -48z m1671 -60 c120 4 108 19 124 -156 15 -159
3 -222 -52 -277 -28 -28 -41 -24 -37 13 5 48 -13 43 -52 -15 -33 -48 -80 -80
-96 -64 -4 4 -2 24 4 44 8 27 9 40 1 48 -8 7 -13 6 -16 -2 -11 -29 -50 -79
-73 -91 -20 -11 -33 -12 -67 -3 -24 7 -43 17 -43 22 0 6 14 24 30 39 27 25 30
34 30 92 0 40 -5 72 -14 84 -17 23 -21 16 -33 -61 -7 -42 -12 -51 -31 -53 -38
-6 -52 15 -52 73 0 113 16 150 107 246 l83 87 43 -15 c30 -11 72 -14 144 -11z
m-2424 -327 c56 -67 133 -121 208 -145 57 -18 226 -105 252 -130 5 -4 -33 -66
-85 -136 -128 -175 -177 -248 -195 -292 -9 -22 -19 -92 -24 -173 -4 -76 -15
-168 -23 -207 -16 -78 -150 -429 -172 -452 -12 -12 -41 -15 -132 -15 -108 0
-122 2 -179 29 -39 18 -63 35 -63 45 0 9 11 90 25 181 14 91 41 271 60 401 38
259 53 322 118 514 55 162 158 425 166 425 4 0 24 -20 44 -45z m1868 -322 c4
-59 13 -180 19 -268 6 -88 16 -176 22 -195 6 -19 41 -75 78 -125 96 -128 124
-176 164 -292 35 -103 106 -398 106 -444 0 -59 -119 -132 -232 -144 -97 -11
-99 -9 -194 175 -47 91 -119 230 -161 310 -41 80 -103 183 -138 230 -74 99
-86 126 -148 316 -74 227 -116 374 -107 379 23 14 184 45 237 45 34 0 86 5
115 11 59 12 177 70 204 100 9 10 19 17 22 15 2 -3 8 -53 13 -113z m-2218
-1375 c22 2 37 8 37 16 0 8 7 19 15 26 20 17 45 -3 45 -35 0 -19 -9 -26 -50
-40 -27 -9 -50 -18 -50 -21 0 -2 16 -22 36 -44 32 -35 34 -41 18 -47 -13 -5
-29 6 -61 42 -40 43 -48 48 -90 49 -54 1 -69 21 -24 33 l31 8 -26 37 c-41 57
-20 67 35 16 40 -38 51 -43 84 -40z m-27 -176 c47 2 59 0 59 -12 0 -9 -16 -18
-44 -23 l-43 -9 37 -38 c33 -34 36 -40 21 -46 -13 -5 -31 6 -65 40 -39 39 -52
46 -81 43 -53 -3 -54 14 -2 40 2 0 -3 14 -11 30 -27 52 -7 61 33 14 36 -42 37
-42 96 -39z m2562 6 c21 -21 13 -48 -25 -83 -41 -37 -39 -40 31 -54 36 -8 42
-34 8 -39 -12 -2 -45 3 -73 11 -49 15 -50 14 -79 -10 -43 -35 -70 -12 -33 29
9 10 14 19 12 21 -2 1 -25 12 -51 25 -34 15 -48 28 -48 42 0 24 17 26 46 6 11
-8 40 -22 63 -32 l42 -17 30 29 c16 15 29 37 29 49 0 35 24 47 48 23z m-2685
-143 c16 -22 25 -25 73 -25 67 0 71 -23 5 -28 -23 -2 -41 -6 -39 -10 2 -4 10
-19 18 -35 11 -22 11 -30 1 -40 -14 -13 -21 -6 -53 52 -16 28 -21 31 -68 31
-58 0 -67 23 -12 28 34 3 38 12 22 42 -5 10 -7 26 -3 36 7 18 8 18 56 -51z
m393 -37 c-7 -30 -102 -135 -112 -125 -11 10 11 47 63 106 47 54 60 59 49 19z
m-486 -99 c0 -4 19 -10 43 -14 65 -10 77 -15 77 -32 0 -13 -8 -14 -46 -8 -43
6 -46 5 -39 -12 17 -41 17 -53 1 -53 -8 0 -25 17 -35 39 -19 36 -24 39 -75 45
-81 11 -94 42 -16 38 39 -3 40 -2 30 23 -17 44 1 52 32 15 15 -19 28 -37 28
-41z m2772 30 c37 24 54 29 62 21 8 -8 4 -18 -16 -35 -15 -12 -33 -25 -40 -28
-15 -5 -15 -6 37 -33 39 -21 60 -54 34 -54 -7 0 -37 12 -67 26 l-55 26 -37
-21 c-21 -12 -43 -21 -49 -21 -20 0 -11 27 15 44 l25 17 -40 30 c-23 16 -41
33 -41 37 0 21 16 19 67 -10 l54 -30 51 31z m-81 -176 c39 -26 43 -26 97 -15
30 6 58 10 60 7 12 -11 -11 -36 -38 -41 -16 -4 -30 -8 -30 -10 0 -3 15 -17 33
-33 25 -23 29 -32 20 -42 -9 -9 -20 -5 -50 18 -54 42 -59 44 -85 35 -55 -21
-78 -23 -78 -7 0 8 12 21 28 27 15 7 29 13 31 15 2 2 -8 14 -23 28 -15 14 -24
30 -21 35 9 14 10 13 56 -17z m-32 -162 c35 -28 40 -29 81 -20 24 5 49 8 57 5
20 -8 3 -36 -22 -36 -35 0 -38 -14 -10 -40 26 -25 33 -50 14 -50 -6 0 -29 16
-51 35 -35 32 -43 35 -76 29 -58 -12 -77 -10 -77 5 0 8 15 19 33 23 37 10 40
18 12 36 -21 13 -27 42 -9 42 6 0 28 -13 48 -29z m-3097 -119 c100 -47 237
-53 351 -14 74 25 57 1 -21 -29 -119 -46 -309 -22 -373 47 -13 15 -19 25 -14
22 6 -2 31 -14 57 -26z m3364 -316 c-33 -67 -99 -129 -174 -164 -44 -20 -77
-27 -147 -30 -99 -5 -155 6 -205 40 -53 36 -46 48 12 19 48 -23 64 -26 168
-26 107 0 119 2 168 28 66 35 132 95 169 152 37 59 42 48 9 -19z"/>
</g>
</svg>
