<?xml version="1.0" standalone="no"?>
<!DOCTYPE svg PUBLIC "-//W3C//DTD SVG 20010904//EN"
 "http://www.w3.org/TR/2001/REC-SVG-20010904/DTD/svg10.dtd">
<svg version="1.0" xmlns="http://www.w3.org/2000/svg"
 width="865.379326pt" height="1373.724855pt" viewBox="0 0 865.379326 1373.724855"
 preserveAspectRatio="xMidYMid meet">
<metadata>Created by Svg.la</metadata>
<g transform="translate(-90.120674,1454.792717) scale(0.100000,-0.100000)"
fill="#000000" stroke="none">
<path d="M2480 14543 c-86 -15 -490 -124 -659 -177 -279 -89 -342 -129 -409
-264 l-37 -76 -3 -1310 c-3 -1448 -6 -1370 61 -1458 18 -24 57 -60 87 -80 57
-39 242 -114 314 -127 39 -7 37 -8 -34 -14 -41 -3 -154 -9 -250 -12 -409 -12
-551 -85 -617 -318 -12 -41 -16 -168 -23 -627 -12 -778 -12 -7171 0 -7535 9
-303 25 -433 60 -513 25 -55 178 -211 237 -241 23 -11 47 -29 52 -39 5 -9 12
-71 16 -137 4 -67 14 -132 21 -147 32 -63 126 -98 267 -98 161 0 288 44 295
103 2 15 5 27 8 27 3 0 29 -16 59 -35 131 -83 280 -142 330 -129 50 12 66 -32
90 -246 18 -159 29 -212 48 -228 6 -6 40 -20 74 -31 106 -36 331 -23 423 24
60 31 76 76 110 311 27 192 31 202 83 209 126 16 1285 93 2052 135 105 6 336
19 515 30 332 20 677 38 1220 65 168 9 467 24 665 35 660 36 887 43 895 30 4
-6 15 -55 24 -108 47 -270 48 -275 72 -297 39 -36 127 -55 255 -55 129 0 226
14 251 37 10 9 20 45 28 101 22 163 61 377 71 388 5 6 37 17 72 24 172 33 289
154 331 342 12 54 15 432 18 2518 l3 2455 -33 465 c-17 256 -43 641 -57 855
-30 460 -91 1337 -106 1515 -46 565 -54 627 -97 745 -44 118 -79 158 -186 210
-89 44 -145 51 -439 60 -125 4 -226 9 -223 12 2 2 61 20 131 39 69 19 145 44
168 55 51 26 145 121 163 165 11 26 14 268 14 1366 0 846 -3 1345 -9 1366 -28
93 -131 204 -236 253 -68 32 -16 27 -660 59 -220 11 -483 25 -585 30 -102 5
-279 14 -395 20 -115 6 -372 22 -570 35 -476 33 -890 57 -1420 85 -110 6 -317
17 -460 25 -143 8 -433 24 -645 35 -410 21 -758 42 -1115 65 -221 15 -268 16
-315 8z m75 -280 c31 -46 31 -47 -1 -61 -56 -26 -54 30 -61 -1385 -4 -975 -3
-1313 6 -1344 13 -48 54 -101 87 -113 l23 -9 -25 -46 c-14 -25 -32 -45 -40
-45 -27 0 -101 80 -124 133 l-23 52 1 1350 c0 1173 2 1355 15 1386 16 39 87
119 105 119 6 0 23 -17 37 -37z m449 -103 c281 -20 1472 -83 1891 -100 275
-11 690 -35 885 -50 69 -6 283 -19 475 -30 193 -11 510 -31 705 -44 195 -14
486 -29 645 -35 632 -24 768 -32 805 -51 52 -27 100 -82 111 -126 10 -47 12
-2384 1 -2401 -4 -7 -27 -15 -50 -19 l-42 -7 0 804 c0 442 -3 983 -7 1203 -8
486 8 443 -168 456 -116 9 -608 33 -925 45 -85 3 -240 12 -345 20 -234 18
-633 42 -820 50 -77 4 -223 13 -325 21 -370 29 -439 33 -685 44 -137 6 -466
20 -730 31 -264 11 -732 35 -1040 53 -344 21 -564 30 -570 24 -7 -6 -9 -429
-8 -1241 2 -677 0 -1239 -3 -1249 -4 -14 -16 -18 -53 -18 l-49 0 -7 543 c-10
741 -1 1937 15 1999 15 62 48 88 107 88 25 0 109 -5 187 -10z m1655 -556 c41
-8 40 -26 -4 -123 -53 -119 -103 -341 -75 -341 5 0 35 41 67 91 32 50 102 146
156 215 l97 124 65 0 c59 0 65 -2 65 -20 0 -33 -23 -79 -92 -182 -103 -152
-155 -301 -165 -469 l-6 -96 37 -7 c20 -4 40 -14 43 -22 10 -27 20 -14 25 34
11 105 111 247 210 296 65 33 89 33 127 0 l31 -26 26 21 c32 25 47 26 64 6 23
-28 12 -71 -44 -173 -53 -96 -72 -159 -43 -150 14 5 61 66 153 197 l65 94 -24
36 c-34 50 -39 81 -22 138 11 36 22 53 40 61 38 17 50 15 85 -15 30 -24 32
-30 27 -72 -3 -25 -8 -55 -12 -66 -5 -16 8 -36 54 -87 54 -59 61 -71 61 -107
0 -51 -19 -99 -65 -161 -19 -26 -35 -51 -35 -54 0 -4 15 -6 32 -4 27 2 36 10
52 43 10 22 37 64 61 95 23 30 63 88 89 128 l46 73 58 -3 c51 -3 57 -5 60 -27
2 -13 -6 -37 -18 -53 -19 -26 -21 -38 -16 -80 8 -60 22 -98 36 -98 5 0 38 35
72 79 56 71 67 95 124 255 34 97 69 187 78 200 14 22 70 40 89 29 12 -7 8 -52
-7 -81 -8 -15 -28 -67 -45 -116 -35 -100 -35 -103 34 -136 48 -23 74 -56 82
-104 4 -25 -6 -52 -47 -130 -28 -54 -49 -100 -46 -103 11 -11 62 15 73 38 6
13 22 44 33 69 32 66 106 166 145 196 19 14 53 28 75 31 35 5 45 2 69 -21 28
-26 28 -26 46 -6 25 27 51 25 71 -5 23 -35 14 -79 -34 -157 -36 -59 -72 -143
-72 -168 0 -18 36 -10 57 13 12 12 33 51 48 87 39 95 241 422 303 491 47 52
58 59 91 59 68 0 93 -54 66 -146 -26 -91 -60 -149 -138 -237 -40 -45 -94 -109
-122 -142 -27 -33 -64 -76 -83 -97 -37 -39 -36 -58 4 -58 31 0 140 93 149 127
7 30 121 198 254 376 119 160 152 185 199 150 64 -47 65 -114 2 -211 -63 -98
-172 -241 -258 -341 -45 -52 -82 -100 -82 -108 0 -27 32 -12 78 37 38 39 55
50 79 50 42 0 47 -11 28 -57 -34 -82 -130 -152 -209 -153 -33 0 -46 7 -83 44
l-44 45 -47 -30 c-68 -43 -115 -40 -160 10 l-35 39 -40 -29 c-48 -34 -93 -38
-130 -9 l-26 20 -33 -20 c-63 -38 -128 -21 -165 44 -9 17 -14 15 -57 -18 -60
-46 -96 -47 -138 -6 -26 27 -30 36 -24 68 3 21 16 64 30 97 13 33 26 76 28 95
3 30 0 35 -17 32 -34 -5 -61 -47 -104 -159 -59 -154 -61 -157 -100 -161 -49
-5 -55 7 -32 69 24 63 25 69 9 69 -20 -1 -50 -30 -86 -82 -26 -38 -39 -47 -73
-53 -68 -12 -126 2 -163 39 -33 33 -33 33 -57 15 -64 -49 -179 5 -179 84 0 37
14 62 66 119 50 54 57 93 23 124 -13 11 -24 15 -26 9 -13 -38 -220 -323 -243
-335 -10 -6 -37 -10 -59 -10 -39 0 -60 13 -80 48 -8 14 -13 15 -28 4 -59 -41
-81 -52 -103 -52 -40 0 -92 34 -113 73 -23 44 -37 47 -37 9 0 -15 -7 -38 -16
-51 -15 -22 -21 -23 -83 -16 -36 4 -76 13 -88 21 -31 20 -43 73 -43 197 0 104
-1 107 -20 97 -17 -9 -128 -222 -145 -277 -6 -20 -13 -23 -61 -23 -30 0 -54 4
-54 9 0 5 18 60 40 121 38 107 51 180 30 180 -5 0 -42 -42 -83 -92 -96 -121
-177 -195 -223 -204 -54 -10 -144 2 -173 24 -39 28 -72 95 -77 154 -4 43 -1
61 18 93 31 53 83 87 128 83 34 -3 35 -4 38 -50 2 -40 -2 -52 -29 -82 -40 -46
-38 -86 6 -98 76 -21 139 21 243 165 73 101 95 145 162 322 47 123 91 218 137
293 14 23 43 28 102 16z m-1344 -1354 c386 -20 630 -30 1050 -45 505 -18 846
-32 1075 -45 91 -5 323 -14 515 -20 579 -18 919 -29 1140 -40 387 -18 949 -40
1066 -41 64 0 121 -4 128 -8 9 -6 11 -95 9 -358 -2 -193 -6 -355 -11 -359 -6
-7 -320 5 -687 26 -85 5 -387 14 -670 20 -1154 24 -2581 63 -3490 95 -234 8
-442 15 -462 15 l-38 0 0 385 0 385 93 0 c50 0 178 -5 282 -10z m-145 -1300
c278 -6 703 -14 945 -20 242 -5 665 -14 940 -20 275 -6 689 -14 920 -20 231
-5 726 -17 1100 -25 374 -8 826 -20 1005 -25 179 -6 380 -10 446 -10 l122 0
-11 -41 -10 -41 -96 6 c-53 3 -269 8 -481 11 -371 6 -970 19 -2195 50 -319 8
-733 17 -920 20 -187 3 -439 8 -560 11 -1170 28 -2061 39 -2112 25 -70 -19
-125 -68 -152 -136 -22 -55 -24 -73 -23 -200 1 -77 15 -354 32 -615 16 -261
36 -603 45 -760 20 -376 91 -1492 140 -2225 13 -185 15 -617 15 -2747 0 -2465
0 -2528 -19 -2528 -10 0 -33 3 -51 7 l-33 6 6 1861 c6 1844 -2 3087 -22 3386
-6 85 -15 247 -21 360 -6 113 -24 401 -40 640 -16 239 -34 512 -40 605 -28
470 -39 673 -45 810 -3 83 -10 222 -16 310 -5 88 -19 302 -29 475 -24 385 -26
577 -5 646 22 71 94 148 170 180 59 24 62 25 275 19 118 -3 442 -10 720 -15z
m335 -500 c402 -5 856 -14 1010 -19 310 -11 1251 -27 2050 -36 1172 -12 2164
-26 2223 -31 88 -8 110 -29 123 -117 29 -211 86 -910 119 -1472 22 -378 30
-484 54 -750 14 -148 40 -461 57 -695 l31 -425 -1 -2265 c-1 -1246 -4 -2286
-8 -2312 -3 -26 -12 -53 -19 -59 -37 -30 -890 -87 -2084 -139 -576 -25 -1198
-56 -1515 -75 -270 -16 -1077 -61 -1260 -70 -66 -3 -203 -12 -305 -20 -227
-18 -871 -45 -1076 -45 -138 0 -154 2 -178 21 l-26 20 0 2377 c0 2008 -2 2419
-15 2647 -22 391 -42 702 -65 1015 -22 307 -54 904 -70 1285 -6 138 -17 378
-25 535 -33 641 -35 593 27 623 39 20 -6 19 953 7z"/>
<path d="M7141 13180 c-110 -139 -200 -284 -186 -298 15 -16 172 172 215 259
51 99 35 120 -29 39z"/>
<path d="M5480 13206 c0 -8 5 -18 10 -21 6 -3 10 3 10 14 0 12 -4 21 -10 21
-5 0 -10 -6 -10 -14z"/>
<path d="M7464 13188 c-11 -13 -46 -57 -77 -98 -31 -41 -77 -101 -102 -133
-40 -52 -59 -107 -37 -107 22 0 262 321 262 352 0 16 -27 8 -46 -14z"/>
<path d="M5097 13003 c-16 -3 -48 -24 -73 -47 -41 -39 -44 -46 -44 -93 0 -35
6 -58 19 -74 19 -23 21 -23 47 -9 45 25 124 136 124 174 0 33 -15 57 -34 55
-6 -1 -24 -4 -39 -6z"/>
<path d="M6589 12901 c-70 -44 -109 -123 -88 -177 16 -44 91 -21 128 40 36 58
47 166 17 166 -6 0 -32 -13 -57 -29z"/>
<path d="M5775 12810 c-45 -61 -43 -84 7 -88 43 -4 68 24 68 74 0 79 -24 83
-75 14z"/>
<path d="M3260 11990 c-86 -31 -108 -68 -95 -167 9 -74 40 -106 118 -123 53
-11 60 -10 99 12 23 13 53 39 66 58 31 45 26 104 -14 161 -51 74 -93 88 -174
59z"/>
<path d="M3745 11993 c-104 -22 -149 -66 -149 -148 0 -91 66 -165 146 -165
146 0 208 168 102 274 -20 20 -40 36 -44 36 -5 0 -14 2 -22 4 -7 2 -22 2 -33
-1z"/>
<path d="M4795 11959 c-65 -27 -108 -60 -135 -104 -32 -52 -26 -148 14 -200
123 -161 355 -69 359 143 2 66 -23 125 -65 155 -39 29 -112 31 -173 6z"/>
<path d="M5386 11946 c-70 -30 -103 -58 -127 -111 -25 -54 -24 -82 7 -143 61
-124 203 -157 293 -70 44 43 62 80 68 142 4 42 0 63 -20 107 -43 94 -116 119
-221 75z"/>
<path d="M5984 11922 c-103 -50 -150 -129 -125 -211 36 -120 144 -179 249
-135 114 47 164 176 109 283 -47 92 -128 113 -233 63z"/>
<path d="M6574 11881 c-129 -61 -162 -178 -77 -272 47 -52 81 -69 138 -69 56
0 92 18 133 64 77 88 62 243 -28 288 -50 25 -96 22 -166 -11z"/>
<path d="M7154 11866 c-154 -73 -166 -237 -24 -333 43 -30 131 -32 176 -4 113
69 134 243 40 330 -38 36 -123 39 -192 7z"/>
<path d="M7790 11871 c-128 -41 -188 -128 -161 -229 39 -145 174 -189 296 -97
39 30 75 98 75 141 0 40 -41 123 -78 157 -32 31 -88 42 -132 28z"/>
<path d="M2614 10244 c16 -247 46 -854 56 -1099 13 -340 25 -559 55 -1050 14
-214 32 -502 41 -640 8 -137 20 -306 25 -375 12 -160 31 -3861 23 -4539 l-7
-514 134 7 c74 3 316 13 539 21 223 9 470 20 550 25 277 19 1729 94 3365 175
630 31 1099 60 1400 85 127 11 237 20 246 20 14 0 16 81 23 827 4 456 9 1438
12 2183 l5 1355 -30 410 c-17 226 -42 536 -56 690 -37 411 -53 617 -65 835
-31 561 -69 1035 -112 1403 l-22 187 -105 0 c-58 0 -551 9 -1096 20 -2197 45
-3134 60 -4038 66 l-949 7 6 -99z m1556 -74 c404 -6 1007 -15 1340 -20 333 -5
934 -14 1335 -20 874 -12 1828 -30 1832 -34 7 -6 54 -669 83 -1146 36 -603 41
-683 85 -1270 73 -975 68 -718 61 -3059 -3 -1163 -7 -2115 -8 -2117 -6 -5
-697 -46 -1268 -74 -190 -10 -488 -26 -935 -50 -99 -6 -400 -21 -670 -35 -269
-14 -706 -36 -970 -50 -264 -14 -703 -36 -975 -50 -272 -14 -569 -30 -660 -35
-91 -5 -232 -13 -313 -16 l-149 -7 6 64 c3 35 7 1059 8 2274 2 1697 0 2252
-10 2390 -23 333 -98 1666 -122 2165 -12 259 -36 697 -50 910 -5 85 -10 165
-10 178 l0 23 328 -6 c180 -3 658 -10 1062 -15z"/>
</g>
</svg>
