
<svg version="1.0" xmlns="http://www.w3.org/2000/svg"
 width="956.207586pt" height="1342.857025pt" viewBox="0 0 956.207586 1342.857025"
 preserveAspectRatio="xMidYMid meet">
<metadata>Created by Svg.la</metadata>
<g transform="translate(-50.417194,1424.962303) scale(0.100000,-0.100000)"
fill="#000000" stroke="none">
<path d="M4068 14230 c-111 -23 -175 -44 -266 -87 -179 -84 -359 -240 -454
-393 -26 -41 -72 -138 -103 -214 -92 -227 -160 -328 -277 -405 -33 -23 -78
-44 -99 -47 -22 -4 -39 -10 -39 -13 0 -4 15 -21 33 -38 39 -38 126 -80 184
-89 24 -3 43 -9 43 -11 0 -3 -16 -23 -35 -44 -46 -51 -71 -102 -86 -177 -23
-112 19 -263 106 -382 l35 -47 -73 -26 c-39 -15 -144 -51 -231 -82 -246 -87
-397 -149 -561 -232 -237 -119 -344 -200 -470 -357 -121 -152 -320 -465 -480
-756 -38 -69 -109 -197 -159 -285 -173 -307 -159 -275 -151 -371 l7 -84 -38
-67 c-21 -38 -64 -122 -95 -188 -31 -66 -79 -165 -106 -220 -83 -165 -158
-342 -203 -480 -74 -223 -61 -342 60 -580 68 -134 196 -322 354 -520 75 -93
141 -180 147 -192 10 -19 6 -28 -31 -70 -59 -67 -174 -241 -221 -335 -49 -97
-102 -252 -131 -385 -20 -85 -22 -128 -22 -328 -1 -196 3 -249 22 -358 77
-427 302 -928 560 -1248 144 -179 337 -333 547 -437 357 -177 679 -221 983
-133 317 92 537 234 684 441 77 109 193 344 248 505 75 218 114 309 154 364
54 73 154 162 216 193 106 51 158 59 430 68 262 8 304 14 420 60 243 96 393
314 336 487 -16 48 -54 94 -87 106 -9 3 -54 -2 -100 -10 -46 -9 -124 -16 -174
-17 -80 -1 -96 2 -149 28 -77 38 -156 118 -197 201 -26 53 -33 82 -37 146 l-5
80 58 55 c31 30 59 53 61 51 3 -2 -1 -28 -7 -57 -16 -76 -7 -185 20 -238 49
-96 141 -163 241 -177 29 -4 83 1 150 14 130 26 175 26 220 2 46 -24 76 -69
101 -153 69 -226 -64 -450 -346 -584 -146 -69 -263 -92 -505 -99 -113 -4 -231
-10 -262 -15 -123 -19 -242 -107 -311 -232 -20 -35 -70 -151 -111 -258 -42
-107 -88 -224 -102 -260 -58 -150 -176 -332 -292 -452 -125 -130 -217 -189
-421 -273 -367 -150 -711 -156 -1078 -19 -103 38 -220 94 -264 125 l-26 18 -7
-52 c-10 -86 -36 -149 -184 -438 -187 -363 -235 -477 -333 -785 -60 -188 -90
-267 -109 -290 -52 -60 -95 -273 -88 -432 4 -76 1 -113 -8 -131 -34 -65 -148
-323 -189 -428 -104 -262 -134 -384 -142 -579 -6 -157 4 -237 43 -342 91 -246
343 -347 582 -235 89 41 199 158 250 263 62 128 80 220 97 489 8 128 22 290
30 360 8 69 15 143 15 164 0 56 22 91 136 208 105 110 131 154 112 193 -8 14
-17 17 -45 13 l-35 -6 64 67 c87 90 142 167 363 507 471 725 718 1101 734
1117 9 9 52 30 96 48 333 131 652 421 815 741 12 23 60 150 107 283 95 268
101 284 149 343 52 64 107 86 207 82 139 -6 163 -24 391 -272 251 -274 355
-396 655 -767 135 -168 290 -355 343 -417 l98 -111 25 -279 c54 -596 82 -788
147 -1040 37 -144 41 -168 39 -268 -2 -125 12 -192 60 -287 l31 -61 -26 -101
c-36 -142 -35 -188 10 -262 48 -81 95 -128 260 -259 159 -128 216 -195 335
-397 146 -247 330 -383 606 -449 115 -28 258 -23 348 11 79 31 156 106 174
173 37 130 -26 331 -170 547 -39 58 -131 164 -255 294 -107 113 -223 239 -258
281 l-64 76 -5 187 c-4 168 -8 200 -36 311 l-31 123 11 187 c17 277 -3 821
-47 1261 -24 244 -77 413 -326 1035 -301 751 -426 1004 -940 1899 l-80 138 18
47 c9 25 16 69 16 96 -2 38 -27 210 -45 308 -3 13 356 235 541 335 51 27 72
33 102 29 63 -8 107 -35 140 -88 85 -131 257 -209 435 -196 182 14 310 71 436
197 139 138 197 276 206 486 6 136 -9 229 -52 322 -14 30 -25 59 -25 65 1 27
346 244 855 537 178 103 397 207 456 218 64 12 124 3 174 -27 l37 -22 79 76
c43 41 85 75 93 75 23 0 28 -36 11 -71 -20 -37 -13 -88 14 -113 51 -46 139
-36 202 24 32 30 39 44 39 74 0 43 -44 96 -78 96 -13 0 -24 11 -33 33 -7 17
-14 35 -16 38 -4 6 162 109 176 109 4 0 15 -16 24 -35 15 -32 16 -39 2 -65
-23 -44 -18 -69 19 -106 26 -26 42 -34 70 -34 119 0 211 126 141 195 -16 17
-35 25 -59 25 -28 0 -36 5 -44 28 -5 15 -13 35 -17 44 -6 15 5 24 61 49 38 16
71 34 74 38 8 12 47 31 64 31 20 0 29 -50 16 -86 -41 -107 86 -175 185 -100
52 40 70 80 56 127 -13 44 -38 61 -100 69 -25 3 -46 10 -48 17 -4 10 30 23
184 68 28 9 26 75 -6 203 -40 159 -118 424 -141 477 -21 46 -80 106 -165 165
-33 22 -73 60 -88 83 -72 107 -96 105 -229 -21 -49 -47 -60 -53 -73 -42 -14
12 -14 15 3 34 28 30 42 61 42 91 0 107 -135 156 -220 79 -78 -70 -74 -167 8
-202 22 -9 49 -32 62 -51 l23 -35 -43 -35 c-62 -51 -194 -151 -200 -151 -3 0
-13 13 -23 29 -17 29 -17 30 10 62 40 47 39 111 0 145 -38 32 -96 32 -152 -1
-40 -23 -75 -73 -75 -107 0 -28 40 -76 72 -88 31 -10 71 -51 83 -81 3 -9 -29
-33 -92 -69 -53 -30 -103 -56 -109 -58 -7 -2 -20 11 -30 29 -15 30 -15 35 0
60 25 43 21 105 -10 136 -22 22 -32 25 -79 21 -107 -9 -177 -90 -145 -168 15
-37 55 -70 84 -70 14 0 28 -13 42 -39 l21 -38 -83 -41 -82 -41 5 -38 c14 -105
-53 -189 -267 -334 -69 -47 -161 -110 -205 -141 -44 -30 -123 -79 -175 -108
-52 -29 -113 -65 -135 -80 -22 -15 -125 -78 -230 -141 -104 -62 -251 -152
-326 -200 -156 -100 -196 -122 -208 -115 -5 3 -14 27 -21 53 -8 27 -33 94 -57
150 -41 96 -113 359 -113 411 0 14 15 41 35 63 51 57 78 115 72 158 -3 20 -23
95 -46 166 -23 72 -62 213 -87 315 -74 301 -213 700 -320 912 -128 256 -332
411 -770 586 -82 33 -168 66 -191 72 -24 7 -43 18 -43 23 0 5 13 37 30 71 89
182 103 457 31 607 -12 23 -19 44 -17 46 8 8 61 -25 88 -54 15 -15 44 -65 66
-110 l39 -82 6 52 c8 63 -7 210 -35 336 -59 276 -212 559 -396 733 -52 48 -96
78 -173 116 -57 28 -141 73 -187 101 -86 51 -223 102 -326 120 -96 17 -328 12
-428 -9z m939 -1247 c-8 -133 -28 -217 -72 -308 -35 -73 -122 -196 -152 -215
-15 -9 -14 -10 7 -4 69 17 205 144 263 244 20 36 50 95 65 132 15 37 31 68 35
68 18 0 66 -126 77 -204 20 -133 8 -389 -23 -501 -40 -143 -195 -551 -280
-737 -73 -159 -158 -255 -280 -314 -84 -40 -151 -50 -246 -35 -155 24 -301
108 -452 260 -209 209 -313 398 -335 609 l-7 67 -71 34 c-93 45 -176 127 -219
218 -29 61 -32 78 -32 157 0 101 8 113 68 102 36 -7 37 -8 37 -50 0 -95 63
-232 155 -334 64 -71 75 -69 75 16 1 71 13 143 31 178 10 19 22 22 98 26 76 5
102 12 221 60 74 31 148 58 163 62 26 6 27 5 18 -13 -6 -11 -47 -58 -92 -105
-93 -99 -92 -102 29 -93 156 12 404 106 528 200 77 59 180 167 234 248 49 71
110 198 136 282 10 31 20 57 22 57 3 0 2 -48 -1 -107z m-1615 -961 c42 -31 58
-50 63 -74 32 -149 114 -341 205 -476 108 -162 256 -304 436 -418 l89 -56 -92
6 c-188 13 -352 78 -518 204 -111 84 -173 159 -230 278 -74 153 -104 255 -116
404 -6 72 -8 161 -4 196 l7 64 51 -43 c29 -24 77 -62 109 -85z m2122 76 c17
-41 36 -344 36 -568 0 -217 -16 -468 -41 -649 -11 -80 -28 -214 -39 -297 -27
-203 -149 -641 -266 -956 -44 -118 -267 -615 -284 -632 -17 -17 12 67 70 209
100 240 282 867 350 1205 53 263 105 704 115 983 3 78 7 185 10 237 4 110 -10
457 -20 483 -6 14 -2 17 24 17 27 0 34 -6 45 -32z m-493 -965 c-6 -98 -16
-209 -22 -248 -5 -38 -23 -169 -40 -290 -36 -260 -103 -608 -160 -825 -101
-385 -192 -696 -219 -748 -31 -61 -39 -64 -15 -5 28 67 8 44 -23 -27 -17 -38
-35 -70 -40 -70 -5 0 -17 9 -27 20 -18 20 -17 25 47 218 163 485 256 884 353
1527 31 204 62 402 71 440 15 74 70 203 81 191 3 -3 1 -86 -6 -183z m4442
-185 c23 -27 22 -60 -5 -93 -18 -23 -26 -26 -57 -21 -32 5 -47 -2 -136 -60
-82 -54 -99 -70 -97 -88 4 -34 -34 -76 -69 -76 -16 0 -38 5 -48 12 -16 10 -30
2 -104 -58 -76 -61 -86 -73 -87 -102 0 -21 -8 -40 -22 -53 -218 -193 -313
-268 -431 -343 -53 -34 -56 -39 -46 -59 9 -16 75 -122 84 -134 1 -2 31 13 67
32 85 45 370 166 563 239 162 61 195 78 195 101 0 25 43 39 80 26 26 -9 38 -7
68 8 21 10 68 29 106 42 70 24 111 64 99 94 -13 35 97 28 122 -8 47 -67 -36
-151 -101 -102 -27 20 -36 19 -146 -21 l-98 -36 5 -32 c8 -40 -25 -86 -61 -86
-29 0 -84 26 -84 40 0 16 -21 12 -121 -28 l-97 -38 19 -23 c25 -30 24 -62 -2
-95 -23 -29 -47 -33 -88 -12 -30 16 -15 24 -411 -196 -168 -94 -185 -101 -186
-78 0 8 -8 30 -17 48 l-18 32 -116 -61 c-64 -34 -140 -76 -169 -94 l-52 -32
29 -49 c50 -85 31 -106 -22 -24 -18 28 -37 50 -42 50 -6 0 -60 -29 -121 -64
-61 -35 -130 -73 -153 -85 -24 -12 -43 -23 -43 -26 0 -2 14 -26 30 -52 29 -46
38 -73 23 -73 -5 0 -21 20 -36 44 -49 79 -42 80 -195 -24 -75 -51 -141 -96
-146 -101 -4 -4 4 -28 19 -53 15 -25 25 -51 23 -58 -3 -7 -17 11 -33 40 -15
29 -33 52 -39 52 -6 0 -22 -9 -36 -20 -27 -21 -50 -26 -50 -10 0 6 3 10 8 10
4 0 22 9 40 20 l32 20 -20 40 c-11 22 -23 40 -26 40 -3 0 -30 -16 -60 -35 -57
-37 -64 -40 -64 -27 0 4 25 23 55 41 30 18 55 37 55 42 0 7 -19 56 -26 67 -1
2 -27 -13 -58 -33 -66 -42 -86 -51 -86 -37 0 5 28 26 63 47 34 21 64 40 66 41
2 2 -4 15 -13 28 -21 33 0 48 24 16 l18 -24 113 71 c63 38 128 78 146 88 31
18 31 18 15 51 -21 46 -6 56 26 18 l27 -32 150 89 c83 49 154 95 159 103 6 9
2 25 -13 49 -15 24 -18 38 -11 42 6 4 12 5 14 4 1 -2 13 -21 25 -42 l23 -37
31 19 c18 10 90 51 162 91 71 39 132 73 134 76 2 2 -8 21 -23 42 -14 21 -26
41 -26 44 0 4 30 23 68 44 79 44 180 104 352 212 l125 78 1 50 c0 28 4 56 8
62 10 17 78 15 101 -2 18 -13 24 -10 70 27 107 87 125 108 125 148 0 49 27 70
76 59 19 -4 41 -13 48 -19 10 -9 35 3 107 50 52 34 96 63 98 65 2 2 -1 15 -8
28 -16 29 -6 82 17 96 25 15 84 2 105 -22z m-3576 -195 c-9 -32 -28 -126 -42
-210 -14 -83 -40 -202 -56 -265 -16 -62 -42 -174 -56 -248 -30 -157 -38 -108
80 -485 41 -132 112 -330 156 -440 49 -121 77 -203 72 -208 -23 -23 -487 -294
-492 -289 -13 13 -29 240 -29 403 0 216 27 466 76 709 23 112 135 591 206 877
62 250 63 253 82 234 18 -19 18 -22 3 -78z m-3545 -70 c20 -78 22 -114 22
-308 0 -289 -18 -370 -115 -511 -15 -22 -31 -52 -34 -65 -3 -14 1 -126 9 -249
15 -216 35 -777 39 -1099 l2 -155 70 -12 c39 -6 120 -25 180 -42 163 -46 202
-53 290 -53 142 0 261 54 364 166 27 30 92 117 145 193 109 158 178 240 262
313 123 108 224 159 359 180 165 25 329 -37 495 -185 52 -47 101 -98 108 -114
13 -26 12 -32 -16 -78 -19 -29 -59 -71 -102 -103 -161 -122 -215 -210 -214
-348 0 -62 5 -81 34 -140 35 -69 54 -85 134 -113 l31 -11 -45 -39 c-47 -41
-78 -52 -103 -39 -21 12 -106 151 -130 213 -14 37 -20 75 -20 136 0 96 21 164
76 246 41 62 163 183 210 209 21 11 37 25 37 33 0 22 -93 108 -173 160 -132
86 -249 102 -398 52 -173 -57 -319 -189 -474 -425 -198 -302 -347 -405 -585
-405 -67 0 -125 10 -270 45 -229 56 -323 69 -466 63 l-112 -4 -12 55 c-14 65
-33 103 -145 301 -117 206 -202 368 -220 419 -15 43 -15 45 10 83 23 35 46 55
29 26 -22 -39 24 23 105 142 148 218 204 293 235 310 28 15 52 52 252 400 91
157 110 276 101 615 -4 121 -9 234 -12 250 l-6 30 16 -27 c8 -15 25 -67 37
-115z m6288 -3 c17 -42 6 -49 -14 -9 -19 37 -19 39 -7 39 5 0 14 -14 21 -30z
m1220 -491 c0 -6 -4 -7 -10 -4 -5 3 -10 11 -10 16 0 6 5 7 10 4 6 -3 10 -11
10 -16z m-301 -164 c11 -19 16 -37 12 -39 -6 -4 -41 54 -41 69 0 12 10 2 29
-30z m-70 -26 c13 -39 14 -49 2 -49 -8 0 -31 52 -31 71 0 21 19 6 29 -22z
m-8302 -119 c165 -154 288 -235 476 -311 35 -14 56 -28 53 -35 -3 -7 -53 -93
-113 -190 -83 -137 -126 -197 -185 -257 l-78 -79 60 -66 c53 -57 82 -109 241
-424 176 -352 279 -537 384 -688 206 -299 243 -342 321 -381 23 -11 86 -28
140 -39 301 -58 353 -76 466 -161 118 -88 231 -144 342 -168 48 -11 90 -22 93
-25 12 -12 -9 -74 -33 -97 -22 -21 -35 -24 -97 -23 -88 0 -182 27 -336 97
l-113 51 -36 -39 -35 -38 100 -98 c114 -110 180 -154 215 -144 13 4 80 25 150
47 70 22 135 38 143 34 21 -8 19 -45 -5 -84 -24 -39 -133 -111 -231 -153 l-71
-30 -82 26 c-44 15 -121 43 -170 62 -67 27 -91 32 -100 23 -18 -19 99 -122
188 -164 123 -59 150 -63 231 -36 39 12 107 42 152 66 78 40 84 42 93 24 20
-37 12 -94 -18 -123 -28 -27 -141 -83 -225 -111 -95 -32 -149 -18 -371 90
-131 64 -146 70 -146 52 0 -40 187 -159 283 -180 29 -6 53 -12 55 -13 9 -7
-24 -55 -38 -55 -38 0 -180 43 -246 74 -139 66 -260 208 -555 652 -132 197
-165 240 -292 371 -78 81 -181 191 -227 243 -47 52 -132 147 -190 210 -294
324 -623 800 -690 1000 -50 149 -6 345 145 655 79 160 265 505 272 505 3 0 39
-32 80 -70z m5500 -210 c114 -300 112 -295 86 -322 -20 -20 -25 -20 -83 -9
-83 17 -154 -3 -200 -56 -39 -43 -62 -96 -58 -128 2 -19 -14 -36 -94 -94 -54
-39 -106 -71 -116 -71 -56 0 -108 112 -258 554 -60 177 -62 188 -41 182 127
-37 338 8 558 118 57 29 108 52 112 51 5 0 47 -102 94 -225z m2566 191 c19
-32 21 -41 9 -41 -5 0 -16 16 -25 35 -20 42 -8 47 16 6z m-78 -42 c4 -11 4
-23 0 -27 -7 -7 -25 17 -25 36 0 20 18 14 25 -9z m-2534 -561 c38 -25 98 -135
99 -179 0 -14 10 -34 21 -45 12 -10 50 -76 85 -146 50 -99 72 -133 99 -150 19
-13 57 -58 85 -100 28 -43 57 -78 65 -78 23 0 48 47 49 93 1 25 -8 58 -20 83
-24 44 -159 237 -229 325 -112 141 -106 232 14 199 53 -14 144 -99 263 -244
138 -169 178 -262 178 -417 0 -199 -95 -399 -230 -484 -99 -62 -259 -90 -382
-65 -93 18 -132 42 -164 99 -22 42 -37 55 -98 87 -151 78 -180 120 -180 254 1
74 5 94 33 153 23 49 37 67 48 65 19 -3 27 -28 49 -152 22 -128 37 -151 138
-214 47 -30 93 -52 103 -50 33 6 26 43 -19 98 -132 162 -134 166 -159 269 -10
42 -29 106 -43 144 -32 84 -33 128 -3 161 25 30 66 38 77 16 4 -8 13 -40 20
-70 8 -33 43 -108 89 -190 62 -110 92 -150 162 -222 89 -89 99 -93 99 -33 0
12 -46 92 -101 176 -112 170 -149 242 -203 400 -40 117 -47 197 -20 223 21 21
35 20 75 -6z m-524 -448 c6 -33 19 -37 49 -15 23 17 34 19 34 5 0 -6 -11 -16
-25 -22 -31 -14 -31 -32 -4 -78 l21 -34 -22 -16 c-48 -33 -201 -129 -213 -133
-9 -3 -6 -17 11 -51 25 -54 18 -55 132 24 67 46 91 56 76 32 -3 -5 -41 -33
-86 -62 -44 -30 -80 -56 -80 -57 0 -9 34 -70 51 -92 21 -27 24 -41 9 -41 -15
0 -57 49 -71 83 -6 15 -15 27 -19 27 -14 0 -200 -113 -200 -122 0 -4 14 -27
30 -50 32 -43 37 -58 20 -58 -6 0 -24 23 -41 50 -17 28 -33 50 -35 50 -15 0
-118 -57 -149 -82 l-36 -30 31 -55 c43 -75 32 -91 -14 -20 l-37 58 -37 -29
c-20 -15 -61 -43 -89 -61 -59 -37 -59 -30 -2 -119 29 -46 38 -82 19 -82 -5 0
-21 24 -35 53 -14 28 -34 63 -44 76 l-18 23 -74 -48 c-41 -27 -76 -50 -78 -51
-2 -1 11 -37 29 -78 32 -72 34 -105 6 -74 -7 8 -23 40 -36 72 -12 31 -25 57
-29 57 -3 0 -19 -9 -36 -21 -16 -11 -52 -31 -78 -45 l-48 -25 36 -63 c20 -36
32 -67 26 -70 -11 -7 -48 37 -66 82 -8 17 -20 32 -28 32 -13 0 -137 -85 -137
-94 0 -9 52 -96 61 -101 12 -8 12 -35 0 -35 -8 0 -41 45 -77 106 -10 17 -13
16 -55 -8 -91 -54 -88 -48 -45 -117 34 -56 39 -81 15 -81 -5 0 -23 29 -40 64
l-31 65 -54 -36 c-30 -20 -54 -37 -54 -39 0 -2 16 -35 36 -75 24 -48 33 -74
26 -81 -7 -7 -23 14 -49 65 l-38 76 -57 -35 c-50 -31 -56 -38 -48 -54 6 -10
15 -22 20 -25 12 -7 50 -79 50 -95 0 -25 -21 -5 -59 55 -22 36 -44 65 -48 65
-5 0 -39 -18 -77 -40 -37 -22 -72 -40 -77 -40 -11 0 -3 -18 50 -118 25 -45 50
-82 57 -82 7 0 17 -14 23 -31 9 -27 8 -37 -11 -67 -12 -19 -37 -41 -57 -49
-20 -8 -73 -38 -119 -65 -80 -49 -85 -50 -137 -43 -38 4 -55 11 -55 21 0 8 -8
17 -17 21 -22 7 -52 43 -53 61 0 6 9 12 20 12 11 0 20 6 20 14 0 23 29 30 145
36 l110 5 -72 9 c-80 9 -98 26 -30 27 37 0 39 2 20 11 -31 15 -78 4 -172 -42
-85 -41 -430 -236 -491 -277 -36 -24 -50 -28 -50 -15 0 8 37 30 327 203 126
75 141 87 136 107 -4 18 -1 22 21 22 26 0 272 158 262 168 -3 2 -27 -9 -53
-26 -142 -91 -177 -108 -223 -107 -51 2 -81 -11 -278 -122 -122 -69 -155 -82
-138 -54 4 6 84 54 179 108 95 53 177 101 182 105 6 5 19 15 30 23 18 13 18
14 3 15 -10 0 -18 4 -18 10 0 11 34 34 290 188 14 9 20 17 12 20 -12 4 -577
-281 -644 -325 -20 -14 -45 -23 -54 -21 -11 2 54 42 155 97 121 66 171 97 167
107 -3 8 -8 20 -11 27 -5 14 99 89 214 155 42 24 87 53 99 65 l24 22 18 -23
c10 -12 20 -27 22 -33 3 -10 91 36 143 74 19 14 19 16 -8 56 -15 22 -31 41
-35 41 -4 0 -45 -25 -92 -56 -47 -31 -102 -65 -124 -76 -21 -11 -70 -40 -110
-66 -104 -67 -539 -282 -550 -272 -5 5 34 30 95 59 155 75 259 134 259 149 0
7 27 38 60 70 42 40 68 77 90 125 36 81 44 82 135 27 l66 -40 79 51 c44 28 80
55 80 61 0 5 -5 18 -11 30 -16 29 -2 35 24 10 13 -12 26 -22 30 -22 6 0 64 35
96 57 2 2 -1 15 -8 29 -16 36 -6 42 23 15 23 -21 26 -22 50 -7 14 9 37 23 51
31 24 15 24 16 9 41 -22 33 -10 43 19 16 13 -12 26 -22 30 -22 4 0 32 16 62
36 53 36 66 56 45 69 -6 4 -8 11 -4 16 4 6 15 2 28 -10 l21 -20 65 41 c36 22
67 42 69 44 2 2 -1 15 -7 29 -10 21 -9 25 4 25 9 0 18 -9 21 -20 3 -11 7 -20
9 -20 3 0 41 21 85 47 52 30 78 51 74 60 -3 7 -8 20 -11 28 -4 10 0 15 10 15
9 0 16 -3 16 -7 0 -5 4 -14 9 -21 7 -11 17 -8 52 14 24 15 61 38 82 51 33 21
36 26 26 44 -15 28 -3 36 21 14 19 -17 22 -16 109 41 69 45 87 62 79 72 -15
17 -1 29 20 15 19 -12 31 -7 145 59 50 29 66 43 58 51 -14 14 -14 37 0 37 7 0
17 -7 24 -16 10 -14 22 -10 106 37 52 29 95 54 97 55 2 1 -4 13 -13 27 -9 14
-12 28 -8 30 11 7 27 -3 39 -25 9 -16 21 -11 118 47 60 35 111 66 113 69 3 3
1 18 -5 35 -6 16 -8 32 -5 35 13 13 24 4 30 -24z m-2146 -1031 c39 -31 54 -64
23 -52 -13 5 -15 2 -9 -17 4 -13 16 -37 26 -54 11 -17 19 -37 19 -43 0 -21
-38 -15 -85 13 -29 17 -55 24 -77 22 -28 -3 -33 -8 -39 -38 -4 -19 -4 -37 1
-40 19 -12 -4 -62 -43 -93 -22 -18 -53 -45 -68 -60 l-29 -29 -36 79 c-27 57
-37 93 -38 136 l-2 58 58 39 c51 34 89 54 188 98 42 18 70 13 111 -19z m-1735
-1294 c93 -143 203 -321 245 -395 l77 -134 -30 -38 c-32 -41 -44 -44 -132 -32
l-46 7 -92 161 c-113 198 -318 607 -318 635 0 26 99 83 116 67 7 -6 88 -128
180 -271z m492 -332 c45 -16 82 -32 82 -36 1 -11 -70 -67 -85 -67 -6 0 -19 8
-27 18 -25 29 -70 112 -61 112 5 0 46 -12 91 -27z m131 -549 c54 -38 62 -128
16 -178 -31 -34 -68 -41 -113 -24 -77 29 -93 128 -32 190 33 33 91 38 129 12z
m-549 -259 c47 -42 49 -131 5 -179 -31 -33 -99 -36 -138 -6 -63 50 -54 157 15
197 29 17 94 10 118 -12z m996 -9 c28 -28 34 -42 34 -76 0 -98 -77 -148 -160
-105 -38 20 -50 43 -50 97 1 75 40 117 109 118 25 0 42 -9 67 -34z m-564 -285
c30 -27 33 -35 33 -86 0 -51 -3 -59 -33 -86 -37 -33 -77 -37 -122 -14 -16 8
-34 24 -40 34 -14 27 -12 101 4 130 31 57 107 67 158 22z"/>
<path d="M8700 10369 c-32 -28 -299 -192 -378 -233 -34 -17 -34 -24 0 -70 14
-17 18 -16 89 30 82 52 162 113 287 217 62 51 80 72 70 78 -21 14 -31 10 -68
-22z"/>
<path d="M8895 10050 c-22 -11 -105 -46 -185 -80 -80 -33 -169 -74 -198 -90
l-52 -31 15 -30 c9 -16 22 -32 29 -35 12 -5 81 31 270 140 53 31 100 56 105
56 12 0 48 43 56 68 3 12 5 22 3 21 -2 0 -21 -9 -43 -19z"/>
<path d="M8080 9884 c-80 -46 -151 -88 -159 -92 -14 -10 -10 -43 9 -72 8 -13
12 -13 32 -1 12 7 85 50 163 94 77 44 142 82 145 84 5 5 -31 73 -39 72 -3 0
-71 -39 -151 -85z"/>
<path d="M8165 9822 c-123 -72 -215 -131 -215 -139 0 -3 9 -21 21 -40 l21 -34
47 28 c25 15 91 52 146 83 157 86 142 71 120 119 -10 23 -23 41 -29 41 -6 0
-56 -26 -111 -58z"/>
<path d="M7708 9663 l-157 -95 16 -32 c8 -17 17 -33 19 -35 2 -2 77 41 167 95
l164 99 -15 32 c-9 18 -20 32 -26 32 -6 -1 -82 -44 -168 -96z"/>
<path d="M7815 9607 c-55 -35 -126 -78 -158 -96 l-57 -33 17 -29 c10 -16 20
-29 24 -29 8 0 308 165 317 174 6 7 -27 76 -36 76 -4 0 -52 -28 -107 -63z"/>
<path d="M7395 9479 c-60 -38 -125 -78 -142 -89 -31 -18 -32 -21 -21 -47 6
-15 15 -32 19 -37 4 -5 76 33 159 84 l151 92 -18 31 c-10 17 -23 32 -28 33 -6
1 -59 -29 -120 -67z"/>
<path d="M7425 9375 c-77 -47 -144 -86 -150 -88 -9 -3 22 -87 33 -87 2 0 67
43 143 95 76 52 143 95 149 95 5 0 10 6 10 13 0 15 -28 57 -38 57 -4 0 -70
-38 -147 -85z"/>
<path d="M1590 9040 c-6 -11 -8 -20 -6 -20 3 0 10 9 16 20 6 11 8 20 6 20 -3
0 -10 -9 -16 -20z"/>
<path d="M5988 8682 c-53 -32 -99 -60 -103 -64 -7 -7 20 -64 35 -73 11 -7 230
112 230 124 0 16 -41 71 -52 70 -7 0 -57 -26 -110 -57z"/>
<path d="M5773 8557 c-39 -23 -82 -49 -95 -58 l-23 -17 23 -46 22 -47 33 25
c17 13 62 42 99 63 l67 39 -25 42 c-14 23 -26 42 -27 41 -1 0 -34 -19 -74 -42z"/>
<path d="M5849 8467 c-84 -51 -139 -89 -139 -96 1 -3 11 -25 23 -48 l22 -43
80 45 c44 25 90 54 103 63 l23 18 -26 47 c-15 26 -28 47 -29 47 -1 0 -27 -15
-57 -33z"/>
<path d="M5540 8422 c-47 -26 -90 -50 -97 -55 -8 -5 -4 -20 14 -53 14 -25 28
-44 32 -42 64 30 181 103 181 113 0 11 -38 86 -43 85 -1 -1 -40 -22 -87 -48z"/>
<path d="M5665 8351 c-6 -6 -47 -32 -92 -59 l-81 -49 26 -41 c15 -23 30 -42
33 -42 3 0 37 20 74 45 38 25 77 47 87 51 23 7 23 18 -4 65 -23 41 -28 45 -43
30z"/>
<path d="M5313 8287 c-45 -28 -82 -57 -82 -62 -1 -6 10 -27 24 -47 l25 -37 83
56 c45 30 83 57 85 58 5 4 -42 85 -48 85 -3 0 -42 -24 -87 -53z"/>
<path d="M5373 8184 c-37 -26 -72 -50 -76 -54 -4 -4 7 -32 25 -63 l34 -55 74
49 c108 72 104 66 69 122 -17 26 -37 47 -45 47 -7 0 -43 -21 -81 -46z"/>
<path d="M5120 8164 c-41 -26 -77 -48 -78 -50 -2 -1 12 -27 31 -56 19 -29 47
-75 62 -103 16 -27 30 -52 31 -54 6 -7 154 91 154 101 0 22 -51 98 -66 98 -8
0 -33 -9 -54 -20 -54 -28 -51 -17 5 16 25 14 45 28 45 30 0 12 -41 84 -48 84
-4 0 -41 -21 -82 -46z"/>
<path d="M4923 8047 c-40 -24 -76 -46 -79 -50 -8 -8 42 -87 55 -87 9 0 117 59
150 82 18 13 18 15 -6 56 -14 23 -30 42 -37 42 -6 0 -44 -20 -83 -43z"/>
<path d="M4758 7951 c-31 -20 -60 -40 -64 -44 -6 -5 22 -70 41 -95 2 -2 56 29
143 84 4 2 -52 93 -58 93 -3 0 -31 -17 -62 -38z"/>
<path d="M5000 7939 c-36 -21 -69 -40 -75 -42 -6 -2 1 -24 14 -48 39 -72 37
-71 89 -42 38 21 85 50 110 69 8 6 -52 104 -62 103 -6 0 -40 -18 -76 -40z"/>
<path d="M4593 7849 c-35 -23 -63 -44 -63 -48 0 -3 13 -25 28 -48 l28 -42 59
39 c33 22 60 43 60 47 0 8 -44 93 -48 93 -1 0 -30 -19 -64 -41z"/>
<path d="M4825 7844 c-27 -19 -56 -39 -63 -43 -11 -6 -8 -20 14 -64 16 -31 32
-57 36 -57 4 0 32 18 63 39 31 22 61 41 66 43 10 3 -48 118 -59 117 -4 0 -29
-16 -57 -35z"/>
<path d="M4445 7764 c-22 -13 -44 -25 -50 -27 -7 -3 32 -83 51 -106 2 -2 28
12 59 32 l55 37 -32 45 c-18 25 -34 45 -37 44 -3 0 -24 -12 -46 -25z"/>
<path d="M4660 7743 c-30 -20 -57 -38 -59 -40 -7 -5 51 -123 60 -123 4 0 10 4
14 9 3 6 30 24 60 41 l54 31 -30 52 c-17 29 -34 55 -38 59 -4 4 -31 -9 -61
-29z"/>
<path d="M4315 7684 c-22 -15 -44 -30 -48 -34 -7 -6 24 -69 48 -98 3 -4 94 49
101 59 6 10 -42 99 -54 99 -4 0 -25 -12 -47 -26z"/>
<path d="M4520 7653 c-19 -13 -41 -28 -49 -33 -12 -6 -8 -19 19 -66 18 -33 34
-61 36 -63 4 -5 104 69 104 77 0 13 -61 112 -68 111 -4 0 -23 -12 -42 -26z"/>
<path d="M4378 7566 c-21 -12 -41 -25 -44 -29 -9 -8 47 -126 60 -126 11 -1
106 59 106 66 0 14 -66 113 -75 112 -5 0 -27 -11 -47 -23z"/>
<path d="M4220 7473 c-85 -49 -87 -56 -44 -129 l26 -45 77 42 c42 23 78 43 79
44 5 4 -33 90 -50 114 -13 18 -17 16 -88 -26z"/>
</g>
</svg>
