<?xml version="1.0" standalone="no"?>
<!DOCTYPE svg PUBLIC "-//W3C//DTD SVG 20010904//EN"
 "http://www.w3.org/TR/2001/REC-SVG-20010904/DTD/svg10.dtd">
<svg version="1.0" xmlns="http://www.w3.org/2000/svg"
 width="798.453470pt" height="736.060929pt" viewBox="0 0 798.453470 736.060929"
 preserveAspectRatio="xMidYMid meet">
<metadata>Created by Svg.la</metadata>
<g transform="translate(-1.546530,775.560929) scale(0.100000,-0.100000)"
fill="#000000" stroke="none">
<path d="M5894 7746 c-86 -20 -154 -57 -212 -116 -56 -56 -123 -177 -142 -257
l-13 -51 -52 39 c-85 64 -139 84 -230 84 -72 0 -86 -3 -142 -34 -129 -70 -183
-203 -134 -332 26 -69 62 -103 298 -289 95 -74 172 -137 173 -141 0 -3 -64
-49 -143 -102 -228 -154 -302 -231 -347 -362 l-20 -58 54 -57 c29 -31 65 -78
79 -106 64 -126 130 -359 174 -614 26 -155 28 -182 28 -450 0 -271 -1 -289
-23 -360 -13 -41 -37 -100 -53 -132 -34 -67 -36 -101 -10 -143 15 -26 18 -54
20 -188 0 -100 6 -181 16 -220 8 -34 32 -136 54 -227 22 -91 56 -239 76 -330
48 -224 63 -293 82 -375 24 -105 21 -139 -27 -240 -83 -180 -134 -314 -204
-545 -61 -202 -108 -393 -112 -461 -2 -36 -10 -81 -18 -100 -21 -52 -39 -177
-33 -231 11 -91 64 -177 138 -223 20 -13 62 -59 92 -102 65 -92 112 -138 187
-185 165 -104 373 -116 474 -27 94 82 66 186 -104 400 -49 63 -101 137 -115
166 -23 47 -24 53 -10 80 8 15 15 50 15 76 0 34 16 91 51 185 67 180 186 473
261 642 91 204 97 233 108 475 5 116 14 278 20 360 5 83 10 215 10 295 0 80 4
150 8 155 4 6 30 25 57 44 28 19 62 46 78 59 23 22 27 23 27 8 0 -10 -26 -45
-57 -78 l-58 -60 -3 -109 -4 -109 75 -128 c87 -148 197 -363 197 -386 0 -9
-11 -57 -24 -108 -13 -51 -47 -199 -75 -328 -27 -129 -64 -293 -81 -363 -16
-71 -30 -145 -30 -166 0 -21 -9 -64 -20 -96 -24 -69 -26 -174 -6 -214 33 -64
190 -161 260 -161 29 0 48 -12 113 -70 178 -159 412 -219 594 -151 110 42 146
126 98 231 -28 62 -49 83 -159 155 -52 34 -122 86 -155 115 -64 57 -68 65 -81
195 -7 67 -16 33 145 590 91 315 101 358 101 430 -1 180 -144 683 -364 1278
-65 177 -65 177 -49 212 15 31 15 50 5 182 -7 82 -17 271 -22 420 l-10 273 44
54 c24 30 48 62 53 71 10 17 4 23 239 -225 44 -47 168 -179 276 -295 369 -396
396 -420 497 -432 54 -6 107 8 145 38 26 20 26 22 26 169 l0 148 -41 52 c-22
28 -107 121 -187 206 -81 85 -182 193 -225 239 l-78 83 50 17 c216 71 431 360
431 577 0 221 -155 317 -392 242 -207 -66 -278 -35 -805 353 l-223 164 0 59
c0 44 7 71 28 111 24 48 27 65 30 175 3 89 -1 139 -13 186 -53 209 -199 368
-394 428 -85 27 -210 33 -287 16z m317 -426 c112 -24 163 -25 218 -5 47 16 41
25 60 -96 18 -112 14 -189 -13 -245 -18 -38 -25 -72 -29 -149 -6 -98 -28 -198
-47 -210 -5 -3 -27 6 -47 20 -49 33 -128 35 -167 4 -36 -29 -56 -70 -56 -119
0 -51 21 -84 75 -115 48 -28 80 -61 68 -68 -23 -14 -125 -29 -156 -23 -72 13
-154 65 -225 141 -50 54 -72 71 -83 65 -35 -22 89 -170 188 -226 29 -16 53
-32 53 -35 0 -17 -44 -42 -82 -46 -134 -15 -300 136 -358 326 -24 77 -25 110
-3 155 14 30 20 35 40 30 24 -7 53 10 53 31 0 6 -17 23 -37 36 -80 51 -118
194 -75 279 31 63 85 53 139 -25 21 -30 44 -57 52 -60 20 -8 73 46 106 107 21
39 28 65 29 117 2 75 6 85 50 112 41 25 125 25 247 -1z m-917 -11 c37 -10 106
-48 106 -59 0 -11 -280 -161 -289 -156 -5 4 -15 22 -21 40 -16 51 2 109 45
143 53 43 93 50 159 32z m226 -175 c0 -9 -7 -41 -16 -71 -20 -68 -13 -138 21
-212 29 -61 33 -106 10 -98 -8 4 -80 59 -160 123 l-145 117 137 79 c76 43 141
78 146 78 4 0 7 -7 7 -16z m1220 -752 c324 -276 440 -428 440 -580 l0 -57
-109 109 c-86 85 -111 117 -116 144 -15 78 -55 135 -194 272 -75 74 -173 166
-218 204 -81 67 -82 69 -66 92 l15 24 62 -51 c33 -28 117 -99 186 -157z m-194
-83 c135 -145 408 -441 607 -657 199 -216 413 -448 476 -515 274 -295 321
-358 321 -438 0 -96 -102 -133 -194 -70 -36 25 -303 302 -526 545 -35 39 -124
135 -197 212 -126 134 -132 142 -114 158 9 9 22 16 27 16 12 0 226 -217 535
-544 313 -332 375 -384 396 -329 18 47 -79 165 -531 647 -149 160 -309 331
-356 381 -47 50 -112 122 -145 160 -32 39 -95 108 -140 155 -44 47 -156 167
-248 268 -108 117 -181 188 -203 197 -22 9 -34 21 -34 34 0 26 48 63 67 53 8
-5 124 -127 259 -273z m-46 -180 c7 -12 -3 -24 -45 -52 l-54 -36 -25 30 c-30
35 -32 58 -11 99 26 51 45 54 88 12 21 -20 42 -44 47 -53z m1179 6 c43 -22 65
-76 57 -144 -19 -166 -204 -371 -336 -371 -47 0 -101 30 -123 69 -102 172 227
537 402 446z m-1059 -132 l21 -26 -46 -30 c-33 -21 -45 -36 -45 -53 0 -31 12
-30 65 6 24 17 48 30 52 30 5 0 22 -14 39 -31 l29 -31 -25 -16 c-41 -27 -80
-69 -80 -86 0 -25 16 -19 81 26 l59 42 30 -34 c16 -19 29 -37 29 -40 0 -3 -26
-23 -59 -45 -100 -67 -72 -88 44 -34 l67 31 25 -23 c13 -12 24 -25 24 -28 0
-7 -63 -50 -100 -68 -14 -7 -45 -43 -70 -79 -58 -86 -115 -137 -192 -172 -53
-24 -68 -37 -97 -83 -43 -68 -361 -385 -464 -462 -114 -86 -239 -156 -300
-169 -49 -10 -58 -9 -103 12 -64 31 -197 164 -263 263 l-52 78 16 49 c38 115
180 215 321 227 46 4 74 2 78 -5 4 -6 -17 -29 -48 -52 -53 -40 -76 -66 -89
-103 -14 -37 24 -27 120 31 54 32 166 96 248 141 177 98 264 154 334 217 83
75 100 113 123 277 21 157 36 191 106 241 49 35 94 35 122 -1z m-1087 -95 c73
-125 245 -551 234 -581 -8 -24 -88 118 -138 247 -44 113 -129 357 -129 371 0
13 10 1 33 -37z m1292 -4148 c-36 -40 -165 -57 -216 -29 -22 13 -18 14 56 21
44 4 94 12 110 17 17 5 39 10 49 10 18 1 18 0 1 -19z m-1333 -322 c61 -3 67
-12 15 -22 -44 -8 -125 9 -157 34 l-25 19 55 -14 c30 -8 80 -15 112 -17z"/>
<path d="M7521 6047 c-60 -30 -152 -122 -178 -177 -33 -72 -37 -119 -13 -157
17 -29 25 -33 63 -33 110 0 267 178 267 304 0 44 -33 86 -68 86 -15 0 -47 -10
-71 -23z"/>
<path d="M1245 7575 c-241 -52 -407 -221 -451 -456 -26 -143 -40 -180 -99
-254 -30 -38 -73 -93 -95 -121 -109 -139 -102 -300 20 -437 23 -26 40 -54 37
-61 -3 -8 -50 -46 -105 -85 -135 -95 -190 -160 -262 -306 -77 -156 -198 -533
-186 -578 3 -11 -6 -61 -18 -111 -53 -204 -70 -308 -70 -436 -1 -125 -1 -125
36 -195 49 -95 139 -213 269 -355 l108 -118 -9 -58 c-18 -109 -12 -269 15
-394 29 -138 47 -198 110 -355 68 -173 171 -481 207 -619 37 -143 35 -160 -40
-341 -53 -129 -100 -306 -155 -585 -66 -331 -70 -360 -60 -383 8 -17 6 -41 -8
-92 -22 -87 -24 -198 -4 -256 9 -23 34 -67 56 -96 24 -33 46 -76 55 -111 8
-31 27 -82 42 -112 39 -77 146 -181 229 -222 63 -30 75 -33 168 -33 93 0 103
2 145 29 72 45 85 69 85 156 0 82 2 76 -156 380 -63 121 -65 130 -35 205 8 22
15 65 16 95 0 61 76 296 227 700 113 303 123 339 123 437 0 79 1 83 23 83 12
1 46 9 75 19 52 18 52 18 52 -3 0 -26 -30 -239 -76 -545 -20 -129 -34 -250
-30 -269 3 -19 -2 -68 -11 -110 -19 -94 -14 -183 14 -220 25 -34 130 -87 211
-106 45 -10 75 -25 108 -53 146 -123 206 -147 369 -148 106 0 125 3 163 23 62
33 84 73 79 145 -4 76 -40 126 -137 195 -41 29 -110 81 -152 115 l-77 62 -1
108 c0 116 16 197 131 661 32 130 49 220 49 260 0 61 -23 218 -80 545 -16 96
-30 185 -30 197 0 28 64 109 124 159 l46 38 63 -28 c156 -71 282 -24 327 122
63 205 -30 495 -219 683 -102 101 -213 139 -318 110 -64 -19 -137 -89 -153
-150 -7 -25 -16 -54 -20 -65 -8 -20 -8 -20 -16 -1 -13 33 22 143 66 204 l40
57 73 0 c119 1 209 59 222 143 4 20 15 54 26 74 14 27 19 54 18 95 -1 39 4 69
15 91 23 44 23 100 0 143 -11 22 -18 57 -18 96 -1 58 -4 65 -38 100 l-37 38
38 105 c21 58 50 127 65 154 14 27 26 59 26 71 0 12 6 40 14 61 21 61 27 133
17 211 -24 189 -146 308 -330 320 -42 3 -90 9 -106 14 -29 8 -31 14 -44 82
-24 136 -24 141 4 223 36 103 31 184 -16 294 -29 67 -33 90 -39 205 -6 115
-11 139 -40 208 -72 172 -203 292 -373 341 -84 24 -208 29 -292 11z m502 -523
c49 -74 56 -93 54 -146 -1 -28 -2 -67 -3 -86 0 -19 3 -71 7 -115 8 -83 -1
-149 -29 -216 l-15 -36 -48 10 c-57 12 -115 3 -139 -20 -25 -25 -11 -76 40
-145 26 -34 46 -68 46 -75 0 -24 -46 -61 -84 -68 -58 -11 -126 12 -252 86 -65
38 -125 69 -132 69 -20 0 0 -30 55 -81 106 -99 218 -154 300 -147 l43 3 0 -45
c0 -57 -27 -115 -74 -160 -34 -32 -42 -35 -99 -34 -117 1 -211 80 -267 225
-47 122 -47 131 -11 186 18 26 39 72 48 102 13 48 14 66 3 135 -30 189 -24
243 34 294 34 30 144 78 154 67 3 -3 -12 -30 -32 -60 -44 -63 -40 -80 16 -72
62 8 148 57 210 120 62 63 128 181 128 228 0 40 10 36 47 -19z m130 -698 c18
-14 33 -34 33 -45 0 -10 -2 -19 -5 -19 -2 0 -25 20 -49 45 -50 50 -36 63 21
19z m38 -153 c32 -37 106 -68 192 -81 172 -24 251 -87 283 -228 15 -65 10
-120 -20 -231 l-23 -83 -48 5 c-26 3 -62 13 -78 22 l-31 16 31 61 c42 84 49
158 20 223 -12 27 -29 58 -39 68 -25 28 -80 54 -132 62 -85 13 -181 67 -217
121 -15 23 -15 26 7 49 13 14 25 25 27 25 3 0 15 -13 28 -29z m-120 -56 c24
-19 26 -24 12 -25 -21 0 -67 28 -67 41 0 16 25 9 55 -16z m-998 -640 c-5 -99
-30 -201 -76 -314 -30 -73 -46 -99 -55 -90 -3 3 19 99 49 214 30 115 58 236
61 269 6 52 8 57 16 36 6 -14 8 -65 5 -115z m1303 100 c0 -9 -30 -89 -66 -178
-37 -89 -92 -225 -124 -302 -31 -77 -110 -264 -174 -415 -65 -151 -172 -402
-238 -558 l-121 -283 -20 20 -21 20 248 578 c137 318 298 693 358 833 61 140
114 265 119 278 10 25 39 30 39 7z m163 -101 c20 -4 37 -10 37 -15 0 -20 -80
-253 -94 -275 -9 -13 -35 -33 -59 -45 -23 -12 -61 -35 -84 -50 -23 -16 -44
-29 -47 -29 -12 0 -5 32 21 95 l27 65 42 0 c68 0 90 54 29 74 -17 6 -32 11
-33 12 -2 2 13 47 33 102 l36 100 27 -14 c15 -8 44 -17 65 -20z m67 -323 c30
-57 -5 -111 -98 -153 -77 -35 -139 -41 -156 -15 -18 28 3 49 101 97 58 28 96
53 102 68 13 27 37 29 51 3z m-2038 -66 c70 -36 168 -65 226 -65 17 0 32 -4
32 -9 0 -12 -89 -270 -101 -292 -8 -15 3 -35 59 -106 38 -49 105 -140 148
-203 90 -132 158 -222 233 -308 53 -61 127 -107 232 -147 37 -13 70 -42 164
-143 128 -139 170 -200 160 -232 -11 -36 -37 -21 -123 71 -69 74 -89 90 -110
87 -14 -2 -27 -9 -30 -16 -2 -7 39 -57 91 -110 101 -104 117 -126 117 -167 0
-51 -27 -40 -127 55 -122 115 -138 127 -158 110 -8 -7 -15 -16 -15 -21 0 -5
38 -48 84 -96 86 -88 106 -124 85 -149 -20 -24 -37 -16 -111 59 -82 82 -122
112 -138 102 -20 -12 -9 -44 33 -95 82 -102 100 -129 94 -144 -17 -43 -85 8
-175 129 -74 101 -119 186 -161 309 l-41 117 -214 222 c-118 122 -235 247
-261 277 -78 92 -164 228 -181 288 -16 53 -16 64 0 177 15 110 57 310 72 349
6 15 8 15 28 1 11 -8 51 -31 88 -50z m1710 -120 c10 -21 7 -28 -21 -54 -22
-20 -31 -38 -31 -60 0 -32 -16 -42 -26 -16 -7 17 44 155 57 155 5 0 14 -11 21
-25z m368 6 c15 -30 13 -38 -26 -81 -47 -52 -124 -81 -236 -87 -75 -5 -88 -3
-94 11 -12 30 21 62 83 80 32 9 81 23 108 31 28 8 68 26 90 39 50 30 62 31 75
7z m-25 -192 c5 -14 0 -28 -17 -46 -63 -68 -209 -98 -320 -67 -26 8 -22 43 5
53 13 5 50 12 83 16 74 9 171 32 204 50 34 19 38 18 45 -6z m-1749 -50 c23
-88 14 -105 -27 -48 -20 28 -21 34 -9 70 7 21 15 37 17 35 2 -2 11 -28 19 -57z
m1324 31 c10 -6 15 -27 15 -67 1 -32 5 -66 9 -75 6 -13 4 -18 -8 -18 -25 0
-96 39 -96 53 0 23 44 117 54 117 6 0 18 -5 26 -10z m365 -161 c-29 -55 -161
-91 -209 -56 -34 25 -10 44 63 50 37 3 83 12 102 20 54 24 62 22 44 -14z
m-429 -60 c27 -12 50 -23 52 -24 1 -1 -9 -27 -23 -58 -13 -31 -31 -72 -39 -91
l-15 -35 -45 15 c-72 25 -73 31 -27 128 22 47 42 86 44 86 2 0 26 -10 53 -21z
m451 -225 c62 -30 158 -129 205 -211 80 -137 119 -291 99 -390 -12 -62 -31
-95 -75 -127 -39 -30 -91 -26 -169 12 -82 41 -178 141 -231 242 -51 96 -89
248 -81 320 17 155 122 219 252 154z m-567 -33 c63 -21 63 -21 21 -115 -29
-63 -29 -63 -77 -69 -57 -6 -94 -41 -94 -88 0 -42 15 -65 49 -77 l30 -11 -17
-39 c-15 -36 -18 -38 -43 -29 -20 8 -35 6 -65 -9 -84 -41 -79 -129 10 -179 16
-9 17 -14 4 -44 l-14 -34 -47 75 c-29 48 -47 87 -47 106 0 18 37 111 84 214
67 147 149 319 151 318 0 0 25 -9 55 -19z m269 -354 c29 -94 82 -195 140 -264
28 -34 51 -63 51 -66 0 -3 -25 -32 -56 -64 -30 -32 -75 -88 -100 -125 -42 -62
-171 -313 -227 -440 -23 -52 -29 -58 -68 -68 -54 -15 -109 -7 -175 26 -56 26
-91 57 -56 47 30 -8 87 22 117 61 36 47 47 154 21 204 -16 31 -16 32 5 32 41
0 89 32 116 77 20 35 26 58 27 111 1 79 -16 111 -80 152 l-42 26 75 123 c40
68 106 166 146 218 l72 94 7 -40 c4 -21 16 -68 27 -104z m-213 81 c-9 -36 -48
-95 -53 -80 -7 20 39 124 50 113 5 -5 7 -20 3 -33z m-96 -475 c44 -56 9 -184
-53 -191 -67 -8 -80 130 -19 201 22 25 47 21 72 -10z m-250 -205 c-13 -35 -49
-129 -81 -209 -33 -80 -59 -158 -59 -172 0 -30 40 -63 65 -53 8 3 20 17 25 31
l10 26 42 -36 c75 -63 142 -90 229 -90 l77 0 -23 -46 c-99 -194 -298 -291
-432 -209 l-32 19 24 43 c14 24 25 55 25 69 0 63 -60 153 -110 164 -38 8 -96
-10 -115 -37 -14 -21 -14 -21 -25 8 -37 95 -33 172 14 279 21 47 29 55 52 55
30 0 64 25 64 47 0 23 18 14 24 -12 7 -27 52 -55 88 -55 51 0 98 60 98 124 0
27 -7 40 -32 60 l-33 26 30 0 c17 0 44 8 60 19 17 10 32 17 33 15 2 -1 -6 -31
-18 -66z m109 -87 c43 -43 35 -155 -14 -187 -34 -22 -57 -14 -77 26 -17 35
-17 38 3 90 21 55 44 90 61 90 4 0 17 -9 27 -19z m-546 -58 c-4 -10 -13 -29
-20 -43 -7 -14 -18 -51 -25 -82 -12 -59 -25 -70 -48 -43 -17 20 -2 73 39 138
30 45 68 67 54 30z m177 -401 c27 -22 37 -89 17 -116 -19 -26 -57 -15 -80 23
-22 38 -22 66 3 91 24 24 32 25 60 2z m-425 -1693 c39 -10 93 -21 120 -25 l50
-7 -30 -13 c-16 -7 -42 -13 -56 -14 -47 0 -129 31 -162 61 -22 22 -26 29 -12
23 11 -4 52 -15 90 -25z"/>
<path d="M2151 4194 c-27 -35 -28 -110 -1 -195 52 -169 192 -311 275 -279 34
13 45 40 45 107 0 212 -232 478 -319 367z"/>
<path d="M3714 7496 c-131 -42 -233 -131 -282 -246 -24 -57 -42 -161 -45 -262
-2 -68 -5 -80 -29 -105 -36 -38 -48 -73 -48 -142 0 -113 44 -221 107 -262 21
-14 35 -38 54 -94 l26 -76 -26 -13 c-14 -8 -82 -35 -151 -60 -69 -26 -184 -76
-255 -111 -115 -55 -138 -71 -195 -131 -106 -112 -135 -185 -236 -589 -54
-219 -55 -221 -60 -411 -8 -267 19 -399 97 -487 75 -87 217 -102 341 -38 l60
31 -6 -43 c-3 -23 -11 -112 -17 -197 -6 -85 -14 -193 -18 -240 -6 -65 -5 -96
7 -129 16 -50 15 -60 -22 -276 -14 -82 -30 -186 -35 -230 -6 -44 -21 -170 -35
-280 -54 -424 -120 -1142 -157 -1709 -12 -172 -12 -192 4 -237 21 -58 26 -46
-106 -267 -132 -221 -156 -322 -98 -413 43 -68 83 -84 211 -84 96 0 110 3 165
29 96 47 182 141 239 260 26 54 67 122 92 150 65 74 85 137 83 255 -1 53 4
114 9 136 6 22 16 78 22 125 26 204 124 767 156 900 62 260 196 690 275 884
16 39 29 77 29 84 0 8 9 12 21 10 17 -2 27 -19 46 -78 37 -116 127 -449 162
-605 18 -77 46 -193 62 -258 16 -65 34 -151 39 -190 9 -76 36 -279 70 -532 11
-82 25 -190 31 -240 5 -49 15 -105 21 -124 6 -19 11 -82 12 -140 1 -99 3 -109
30 -150 16 -25 48 -65 72 -91 25 -27 61 -84 88 -143 56 -122 129 -202 225
-250 60 -29 74 -32 161 -32 83 0 102 3 145 26 68 35 95 76 95 149 0 89 -36
178 -171 420 l-58 106 -5 324 c-12 782 -87 1812 -174 2375 -6 36 -4 59 6 81
12 26 13 70 6 263 -7 177 -6 231 3 231 6 0 15 -4 18 -10 3 -5 37 -19 75 -31
60 -18 76 -19 122 -10 94 20 128 47 171 131 50 100 67 185 74 362 14 352 -83
879 -204 1111 -65 124 -142 185 -323 255 -30 12 -126 49 -213 83 -131 50 -157
64 -152 77 4 10 14 42 23 72 9 34 28 69 48 90 44 46 74 118 85 199 11 91 3
133 -37 180 -33 38 -34 42 -34 128 0 246 -129 435 -339 497 -86 25 -267 21
-357 -8z m73 -448 c37 -6 118 -8 178 -6 93 4 122 10 189 37 44 17 85 30 92 27
25 -10 45 -81 54 -191 6 -60 10 -120 10 -133 0 -39 30 -39 63 -1 l29 34 -5
-78 c-6 -92 -36 -161 -77 -182 -24 -12 -31 -26 -45 -87 -25 -110 -70 -193
-148 -273 -62 -64 -69 -68 -79 -51 -7 12 -9 51 -5 105 6 75 4 91 -13 118 -26
44 -63 66 -110 66 -47 0 -84 -22 -110 -66 -24 -38 -25 -75 -6 -122 15 -35 15
-35 -12 -35 -15 0 -45 -9 -67 -20 l-39 -20 -26 25 c-39 37 -96 150 -122 242
-21 71 -29 86 -59 105 -51 34 -81 102 -82 187 -1 39 2 73 5 77 4 3 28 -10 54
-30 26 -20 50 -36 54 -36 14 0 20 31 20 103 0 89 23 198 50 242 l20 33 60 -30
c33 -16 90 -34 127 -40z m170 -700 c4 -7 9 -50 10 -94 l1 -82 -39 16 c-27 10
-39 21 -39 35 0 11 -5 35 -12 53 -9 27 -9 37 6 58 18 28 59 35 73 14z m319
-192 c-21 -89 -45 -134 -100 -184 l-46 -42 20 -243 c11 -133 27 -294 35 -357
8 -63 15 -139 15 -169 l0 -54 -24 22 c-35 33 -43 75 -65 341 -12 135 -24 272
-27 305 -4 33 -9 94 -10 135 -2 41 -6 89 -10 107 -6 29 -3 33 32 51 52 27 123
91 160 143 35 52 41 37 20 -55z m-683 -9 c29 -37 29 -38 11 -58 l-19 -21 -17
22 c-22 27 -41 97 -33 119 6 14 8 14 17 -4 6 -11 24 -37 41 -58z m344 -32 c73
-36 95 -57 77 -75 -5 -5 -35 -3 -69 5 -83 20 -174 19 -205 -1 -42 -28 -140
-128 -140 -142 0 -7 33 14 73 47 91 75 106 81 194 71 79 -8 146 -36 151 -62 5
-24 -30 -32 -128 -30 -66 1 -94 -3 -125 -18 -45 -22 -133 -106 -122 -116 4 -4
31 -1 60 5 30 8 91 12 140 10 72 -3 90 -8 108 -25 l21 -22 -23 -15 c-13 -8
-57 -17 -97 -20 -40 -3 -90 -14 -110 -24 l-37 -18 -5 -150 c-6 -170 -10 -184
-83 -233 -32 -23 -62 -62 -124 -163 -115 -189 -220 -328 -343 -450 -155 -154
-258 -197 -363 -151 -54 24 -78 58 -108 152 -17 56 -20 91 -20 243 0 240 1
243 65 273 40 19 68 24 128 24 79 0 108 -6 108 -21 0 -5 -31 -29 -68 -53 -79
-50 -122 -97 -122 -133 0 -32 5 -31 135 57 131 88 322 242 436 352 l86 83 28
105 c15 58 40 149 55 202 l27 97 99 106 c54 59 110 113 124 121 36 21 92 11
177 -31z m-124 -262 c-7 -2 -19 -2 -25 0 -7 3 -2 5 12 5 14 0 19 -2 13 -5z
m135 -3 c10 0 13 -3 6 -10 -11 -11 -54 -2 -54 12 0 6 7 7 16 4 9 -3 23 -6 32
-6z m71 -187 c1 -22 0 -22 -33 -6 l-35 16 25 19 c13 11 25 27 25 36 2 20 16
-34 18 -65z m-849 -83 c25 -139 25 -176 4 -184 -9 -4 -18 -5 -19 -4 -5 7 -15
311 -10 306 3 -3 15 -56 25 -118z m1164 -45 c18 -27 46 -88 61 -135 45 -137
135 -238 330 -367 223 -148 248 -163 266 -163 58 0 -15 85 -153 178 -43 29
-78 57 -78 62 0 5 21 12 48 15 26 3 54 7 63 9 34 7 141 -15 192 -40 l55 -26 7
-84 c23 -275 -28 -500 -125 -558 -94 -55 -260 33 -432 227 -54 62 -68 86 -77
128 -20 94 -92 193 -188 259 -19 13 -22 30 -32 150 -7 74 -22 213 -34 308
l-23 172 44 -42 c24 -24 58 -65 76 -93z m-501 30 c11 -119 3 -401 -13 -442
-20 -54 -30 -38 -30 50 0 45 -5 167 -10 271 -11 196 -8 221 29 214 12 -3 18
-23 24 -93z m879 -148 l-17 -237 -23 16 c-24 17 -24 18 -1 189 11 82 50 277
55 272 2 -1 -5 -109 -14 -240z m-719 166 c23 -12 27 -19 27 -58 l0 -45 -32 20
c-18 11 -43 20 -55 20 -21 0 -23 5 -23 45 0 44 1 45 28 39 15 -4 39 -13 55
-21z m23 -178 c17 -11 24 -25 24 -48 0 -37 26 -215 35 -237 4 -13 -9 -15 -85
-15 -87 -1 -91 0 -86 20 3 11 8 85 12 164 l7 143 35 -5 c19 -4 45 -13 58 -22z
m91 -384 c125 -24 245 -116 283 -218 27 -72 27 -174 -1 -248 -60 -160 -271
-274 -459 -246 -286 41 -433 268 -321 496 83 168 285 256 498 216z m-1152
-3996 c22 -8 74 -14 115 -15 78 -1 80 -12 4 -25 -49 -8 -108 7 -144 35 -30 23
-27 24 25 5z m1870 -5 c-11 -18 -70 -40 -107 -40 -18 0 -51 5 -73 12 l-40 12
86 8 c47 4 96 11 110 16 27 11 34 8 24 -8z"/>
<path d="M3889 4914 c-62 -19 -133 -83 -155 -139 -37 -97 4 -193 103 -242 50
-24 70 -28 143 -28 70 0 95 5 140 26 30 14 68 39 84 55 30 30 65 97 66 124 1
76 -71 168 -156 200 -64 24 -157 26 -225 4z"/>
</g>
</svg>
