<?xml version="1.0" standalone="no"?>
<!DOCTYPE svg PUBLIC "-//W3C//DTD SVG 20010904//EN"
 "http://www.w3.org/TR/2001/REC-SVG-20010904/DTD/svg10.dtd">
<svg version="1.0" xmlns="http://www.w3.org/2000/svg"
 width="412.091991pt" height="716.552863pt" viewBox="0 0 412.091991 716.552863"
 preserveAspectRatio="xMidYMid meet">
<metadata>Created by Svg.la</metadata>
<g transform="translate(-42.134451,768.625183) scale(0.100000,-0.100000)"
fill="#000000" stroke="none">
<path d="M3943 7676 c-56 -25 -63 -54 -63 -250 0 -172 0 -175 25 -204 l25 -30
0 -1316 0 -1316 -25 -12 c-32 -14 -40 -40 -60 -199 -10 -74 -19 -139 -20 -145
-3 -10 -217 40 -420 97 l-50 15 -2 54 c-5 117 -14 160 -36 181 -20 19 -21 21
-4 30 25 14 23 79 -4 113 -19 25 -20 28 -5 44 24 27 10 87 -25 113 -22 15 -29
29 -29 52 0 51 -28 153 -56 209 -15 29 -51 77 -80 108 -96 101 -206 144 -369
144 -296 1 -510 -186 -605 -525 -27 -100 -46 -210 -70 -423 -11 -99 -21 -181
-23 -182 -1 0 -13 -7 -25 -13 -13 -7 -30 -28 -38 -47 -19 -45 -31 -280 -40
-761 l-7 -383 49 -21 c237 -100 387 -199 580 -381 193 -182 318 -255 481 -280
102 -16 190 -2 380 62 196 65 260 71 439 40 83 -15 144 -20 168 -16 22 4 91
44 172 98 105 71 137 89 147 79 19 -19 0 -38 -129 -125 l-119 -81 -7 -440 c-7
-499 -26 -1194 -34 -1243 -5 -32 -45 -64 -60 -49 -4 3 -1 138 5 299 11 276 31
1113 31 1316 l0 92 -52 0 c-29 0 -80 7 -113 14 -164 38 -248 30 -465 -45 -126
-44 -159 -51 -247 -56 -217 -12 -381 60 -593 262 -138 131 -217 197 -318 262
-96 63 -259 143 -292 143 l-23 0 6 -412 c9 -609 51 -1228 88 -1304 28 -59 41
-68 173 -118 65 -25 120 -47 123 -50 9 -9 -65 -102 -131 -163 -81 -76 -160
-124 -261 -159 -69 -24 -95 -28 -195 -28 -100 0 -126 4 -195 28 -198 69 -345
212 -406 397 -21 64 -24 92 -23 204 0 149 15 217 109 495 104 309 144 514 152
787 7 214 -5 322 -52 509 -67 261 -187 513 -355 749 -57 78 -58 82 -65 165
-13 156 22 351 90 498 81 175 200 317 444 531 171 151 238 220 296 311 48 75
70 126 80 190 5 30 15 52 32 66 25 19 27 29 45 220 10 109 20 205 23 212 2 7
22 12 47 12 67 0 152 17 215 42 53 21 61 22 98 10 31 -11 51 -11 89 -3 96 22
216 108 264 189 25 43 27 55 27 152 0 94 -3 111 -28 165 -34 73 -67 109 -130
141 -47 24 -161 45 -208 38 -86 -12 -103 -18 -136 -47 -33 -29 -42 -32 -107
-32 -165 -1 -347 -133 -392 -285 -15 -49 -16 -93 -8 -412 9 -353 9 -357 33
-389 22 -29 23 -35 12 -83 -24 -108 -116 -225 -306 -391 -71 -62 -176 -160
-232 -218 -221 -227 -345 -488 -360 -755 -4 -67 -10 -101 -17 -99 -20 7 -116
142 -150 212 -123 248 -119 584 10 907 20 51 96 210 169 353 72 143 146 301
164 350 36 99 71 249 71 308 0 28 7 44 25 60 25 22 25 25 34 232 5 116 12 217
15 225 5 12 26 15 99 15 74 1 102 6 144 24 50 22 54 23 87 7 42 -20 85 -20
156 -1 117 31 250 118 286 186 54 105 28 315 -49 397 -54 58 -208 112 -322
112 -83 0 -129 -15 -169 -54 -32 -33 -35 -34 -79 -23 -36 8 -60 7 -114 -7
-136 -33 -245 -109 -293 -202 -24 -47 -25 -55 -23 -223 1 -96 9 -280 18 -408
8 -129 15 -238 15 -243 0 -5 12 -22 26 -40 25 -29 26 -35 19 -98 -13 -122 -68
-264 -228 -588 -228 -461 -275 -623 -264 -913 10 -277 95 -481 292 -701 90
-100 89 -98 125 -230 17 -63 63 -211 101 -328 97 -297 134 -428 173 -620 50
-242 60 -337 60 -527 1 -200 -9 -255 -88 -502 -79 -245 -91 -306 -91 -458 0
-148 19 -226 83 -350 44 -85 187 -233 275 -284 82 -48 201 -88 300 -101 285
-38 595 121 778 400 15 22 19 23 50 13 19 -6 300 -105 624 -221 882 -314 816
-294 885 -268 19 7 126 84 238 171 251 196 251 196 263 390 43 710 58 1378 48
2186 -8 668 -7 663 -58 716 -31 33 -67 49 -162 73 -46 12 -101 26 -121 31
l-38 10 0 57 c0 58 -34 314 -45 343 -3 8 -19 23 -35 33 l-30 17 0 1316 0 1315
31 35 30 35 -3 179 -3 179 -30 30 c-37 36 -87 46 -132 26z m-2455 -280 c37
-32 87 -127 101 -194 25 -120 5 -245 -49 -305 -27 -30 -30 -31 -46 -15 -15 15
-15 18 -1 32 28 29 42 89 41 181 -1 116 -28 192 -91 253 -36 35 -42 46 -33 58
18 21 45 17 78 -10z m791 -661 c45 -23 108 -101 132 -164 34 -84 32 -206 -3
-283 -20 -43 -33 -59 -53 -64 -38 -9 -52 9 -27 34 12 12 25 38 31 59 16 56 13
173 -5 226 -19 55 -94 143 -137 160 -28 12 -29 14 -13 30 21 21 38 21 75 2z
m563 -1496 c133 -28 230 -115 269 -240 25 -82 24 -115 -6 -151 -30 -35 -36
-112 -9 -122 13 -5 12 -9 -5 -28 -23 -24 -30 -102 -10 -113 7 -5 3 -15 -11
-30 -17 -18 -24 -40 -27 -89 -4 -39 -10 -66 -17 -66 -6 0 -81 19 -166 41 -107
29 -176 42 -221 42 -63 0 -75 -5 -257 -92 -104 -50 -193 -91 -196 -91 -10 0
-7 52 15 221 27 210 58 332 114 445 104 213 310 319 527 273z m-11 -904 c96
-25 182 -48 192 -51 29 -9 20 -50 -17 -86 -46 -44 -54 -84 -24 -128 32 -48 79
-77 146 -91 186 -38 357 82 268 188 l-25 29 197 -51 c108 -29 209 -55 223 -58
25 -6 27 -11 31 -82 7 -111 48 -145 173 -145 106 0 165 34 165 96 0 39 -3 38
63 20 29 -8 72 -20 96 -26 l44 -12 -174 -99 c-135 -77 -182 -99 -212 -99 -21
0 -147 29 -280 64 -133 36 -480 128 -772 206 -291 77 -566 150 -609 162 l-79
21 159 80 c164 83 217 106 245 107 10 0 95 -20 190 -45z m332 -242 c61 -7 114
4 139 29 16 16 22 18 29 7 13 -20 12 -23 -16 -49 -48 -45 -206 -38 -250 10
-10 11 -15 26 -11 35 5 14 9 13 35 -6 16 -12 49 -24 74 -26z m-478 -146 c116
-31 320 -85 455 -121 793 -210 813 -217 782 -248 -14 -14 -8 -16 -462 107
-396 106 -717 191 -1080 286 -151 40 -281 77 -287 82 -7 5 -13 19 -13 32 0 24
-46 35 605 -138z m1733 -154 c-3 -24 -23 -38 -166 -117 l-162 -90 6 -521 7
-522 -21 -21 c-12 -12 -26 -22 -31 -22 -12 0 -19 218 -20 691 l-2 416 188 105
c103 58 192 106 196 107 5 0 7 -11 5 -26z m-1533 -188 c543 -146 579 -157 598
-173 15 -14 17 -42 17 -318 0 -291 -1 -303 -20 -309 -22 -7 -18 -8 -365 90
-143 40 -340 96 -439 124 -98 28 -187 58 -197 67 -18 16 -19 37 -19 303 0 157
4 291 8 297 11 17 34 22 67 13 17 -4 174 -47 350 -94z m-1750 -244 c77 -189
121 -383 130 -584 l5 -112 -33 160 c-44 208 -64 276 -223 772 -17 52 82 -141
121 -236z"/>
</g>
</svg>
