<?xml version="1.0" standalone="no"?>
<!DOCTYPE svg PUBLIC "-//W3C//DTD SVG 20010904//EN"
 "http://www.w3.org/TR/2001/REC-SVG-20010904/DTD/svg10.dtd">
<svg version="1.0" xmlns="http://www.w3.org/2000/svg"
 width="897.732778pt" height="1447.194649pt" viewBox="0 0 897.732778 1447.194649"
 preserveAspectRatio="xMidYMid meet">
<metadata>Created by Svg.la</metadata>
<g transform="translate(-96.148566,1483.397368) scale(0.100000,-0.100000)"
fill="#000000" stroke="none">
<path d="M4173 14829 c-515 -47 -931 -443 -1002 -953 -20 -144 -7 -388 29
-541 7 -30 5 -54 -7 -95 -19 -66 -13 -263 11 -350 9 -30 12 -57 8 -60 -4 -4
-61 -37 -127 -75 -549 -313 -1078 -696 -1297 -940 -298 -333 -383 -526 -684
-1559 -71 -242 -103 -368 -99 -385 3 -13 24 -41 46 -61 l39 -36 -24 -109 c-53
-245 -92 -509 -103 -695 -7 -135 5 -188 64 -290 47 -80 243 -279 398 -404 100
-80 297 -216 374 -258 l31 -17 0 -126 c0 -300 54 -573 264 -1329 101 -362 133
-493 125 -500 -2 -2 -146 -94 -319 -206 -173 -112 -323 -210 -332 -218 -12
-10 -29 -13 -53 -9 -49 8 -70 -1 -191 -86 -67 -47 -109 -83 -119 -104 -12 -25
-15 -74 -15 -240 0 -178 3 -213 18 -243 19 -39 119 -121 725 -590 l147 -115
-5 -45 c-25 -192 -162 -896 -190 -970 -77 -206 -86 -252 -61 -327 15 -47 15
-52 -4 -109 -54 -157 -75 -287 -60 -382 11 -67 30 -110 151 -342 30 -58 79
-157 109 -220 168 -353 433 -608 700 -676 80 -21 236 -23 310 -5 176 43 297
161 316 306 8 68 -18 215 -57 312 -40 101 -95 202 -214 393 -114 184 -186 327
-214 430 -27 97 -26 120 5 182 28 55 32 91 20 173 -7 43 -2 68 30 170 20 66
51 172 68 236 l31 117 34 -28 c48 -40 144 -90 174 -90 15 0 60 24 106 55 91
62 499 349 772 543 102 73 189 132 192 132 3 0 0 -15 -8 -33 -34 -81 -58 -204
-59 -297 -1 -87 1 -99 29 -148 55 -100 162 -177 386 -277 144 -64 191 -95 314
-206 266 -240 385 -305 635 -344 58 -9 110 -17 117 -18 6 -1 -29 -72 -79 -157
-49 -85 -263 -459 -475 -830 -212 -371 -396 -694 -409 -717 l-24 -42 -113 74
c-350 230 -476 309 -508 318 -100 25 -187 -100 -133 -192 9 -16 120 -95 275
-196 142 -94 429 -282 636 -418 374 -245 379 -248 424 -244 49 4 90 28 110 64
18 33 16 96 -4 126 -10 15 -120 95 -245 178 -125 83 -228 152 -230 154 -3 3
81 153 551 980 93 165 265 464 382 665 392 674 501 863 685 1185 100 176 194
335 207 353 24 32 28 33 67 28 23 -4 65 -2 94 5 l52 11 497 -253 c556 -281
899 -458 1329 -685 308 -163 332 -171 394 -139 37 19 60 63 60 115 0 32 -7 47
-32 74 -31 33 -843 458 -1836 962 -280 143 -333 173 -339 194 -3 14 -14 42
-25 63 -16 33 -17 43 -7 75 7 20 109 208 227 417 118 209 256 454 307 545 51
91 138 244 192 341 55 96 216 385 358 642 l260 467 110 79 c192 137 459 320
825 566 493 331 617 421 635 456 14 25 15 79 13 364 l-3 335 -30 29 c-16 16
-142 90 -280 164 -137 74 -520 280 -850 458 -330 178 -620 333 -644 346 -93
49 -80 55 -557 -260 -236 -156 -447 -294 -469 -307 l-40 -23 -99 55 c-120 67
-196 131 -248 212 -21 33 -111 203 -199 378 -143 282 -227 432 -394 701 -30
48 -66 129 -95 211 l-46 135 44 37 c52 43 102 118 102 152 0 28 -328 1027
-398 1212 -26 69 -68 161 -92 204 -51 88 -144 182 -218 220 l-47 24 -1 113 0
114 40 30 c23 17 49 46 58 66 26 52 48 216 48 358 l0 123 68 63 c127 117 166
235 122 364 -29 87 -71 143 -155 208 -38 29 -106 95 -151 146 -207 237 -484
428 -739 512 -149 48 -334 69 -492 54z m154 -1225 c130 -83 327 -165 465 -194
227 -47 398 -50 515 -11 32 11 60 17 63 14 3 -2 7 -53 8 -112 4 -121 -9 -214
-36 -250 -10 -13 -62 -50 -117 -81 -54 -32 -108 -70 -119 -86 -32 -44 -27
-151 19 -379 40 -199 41 -229 5 -265 -27 -27 -87 -26 -191 4 -130 37 -139 38
-139 23 0 -17 64 -78 118 -111 23 -14 42 -30 42 -34 0 -16 -82 -167 -116 -213
-19 -26 -59 -70 -89 -97 -95 -87 -190 -103 -332 -53 -100 34 -216 102 -334
192 -160 124 -347 327 -389 423 -29 65 -50 168 -50 251 l0 71 -40 -4 c-57 -6
-91 11 -155 79 -105 110 -158 267 -136 402 20 119 57 156 146 144 122 -17 202
-106 264 -292 l30 -90 67 -17 c76 -20 101 -13 109 30 23 110 30 127 64 147
111 66 176 167 189 293 8 67 1 207 -13 291 l-8 44 54 -43 c30 -23 78 -58 106
-76z m913 -802 c0 -39 -20 -126 -41 -177 -12 -29 -12 -28 -25 45 -20 119 -18
137 14 154 43 24 52 20 52 -22z m-1895 -133 c22 -22 70 -61 108 -85 57 -39 67
-50 67 -75 0 -66 75 -238 153 -354 84 -123 275 -300 418 -386 l60 -37 -38 -31
c-21 -18 -68 -41 -107 -53 -151 -46 -351 8 -536 145 -248 184 -370 381 -370
599 0 98 22 169 68 220 32 35 116 97 132 98 3 0 24 -18 45 -41z m2115 -1206
c-15 -162 -34 -289 -66 -431 -26 -118 -98 -350 -112 -364 -5 -5 2 34 15 84 37
152 100 501 135 754 31 224 33 232 36 158 2 -44 -2 -134 -8 -201z m-3270 151
c144 -95 247 -216 335 -398 180 -369 161 -825 -53 -1279 -30 -64 -57 -116 -59
-114 -2 2 11 35 28 73 39 87 94 276 113 391 66 394 -22 857 -217 1142 -40 59
-131 156 -181 192 -56 41 -31 36 34 -7z m3742 -1069 c33 -82 72 -158 105 -205
100 -141 174 -275 346 -620 264 -529 260 -524 697 -755 102 -53 217 -118 255
-144 94 -62 208 -173 279 -270 67 -94 140 -231 129 -242 -4 -4 -20 -10 -34
-14 -25 -6 -30 -1 -74 77 -101 177 -204 285 -300 313 -71 22 -66 9 55 -136 62
-74 130 -200 183 -334 51 -130 53 -147 24 -181 -22 -25 -27 -27 -50 -17 -18 8
-30 27 -42 65 -41 125 -129 273 -219 367 -58 60 -190 150 -203 138 -14 -15 13
-63 67 -123 111 -119 192 -268 246 -453 23 -79 23 -85 8 -103 -40 -43 -85 -10
-137 101 -78 168 -165 279 -307 396 -81 66 -317 208 -332 199 -21 -13 -1 -153
38 -274 47 -145 52 -225 15 -264 -51 -54 -98 -19 -126 92 -10 41 -51 141 -96
232 -96 194 -113 244 -134 385 -34 233 -43 246 -359 560 -409 405 -465 491
-585 895 -38 129 -69 235 -68 235 1 1 49 13 107 27 135 33 237 75 352 148 63
39 95 54 100 47 4 -7 31 -70 60 -142z m-712 -341 c88 -307 172 -469 348 -674
31 -36 171 -182 313 -325 141 -143 265 -276 275 -295 13 -26 19 -68 24 -165 4
-71 8 -136 11 -143 3 -9 -150 -113 -431 -293 -239 -153 -438 -279 -442 -279
-5 0 -8 5 -8 11 0 12 -33 90 -205 479 l-108 244 6 281 c6 316 25 503 87 870
40 239 80 438 86 432 2 -2 22 -66 44 -143z m-3842 -638 c164 -82 382 -136 555
-136 42 0 77 -2 77 -4 0 -7 -77 -218 -94 -258 -14 -33 -20 -38 -51 -38 -46 0
-135 -20 -135 -30 0 -5 48 -34 106 -64 194 -103 225 -129 599 -496 271 -266
412 -388 625 -540 124 -88 200 -129 447 -241 297 -134 321 -146 374 -196 60
-56 197 -259 262 -388 52 -104 127 -322 127 -369 0 -17 -5 -38 -10 -46 -18
-29 -44 5 -80 106 -64 180 -143 305 -287 454 -71 73 -72 74 -73 45 0 -35 38
-118 107 -237 101 -172 182 -391 190 -514 5 -69 4 -73 -20 -89 -14 -9 -36 -15
-49 -13 -24 3 -25 5 -52 121 -27 116 -127 317 -231 462 -48 67 -153 168 -166
159 -11 -6 21 -86 84 -209 28 -55 68 -134 88 -175 43 -87 107 -273 116 -335 5
-37 2 -44 -18 -59 -54 -37 -80 -16 -123 99 -43 117 -136 301 -196 390 -71 105
-169 190 -193 166 -15 -15 8 -88 76 -236 151 -329 162 -362 132 -395 -24 -26
-47 -25 -72 3 -27 30 -45 63 -148 262 -112 217 -146 267 -270 395 -114 117
-152 171 -219 313 -58 121 -75 135 -349 298 -117 69 -329 194 -472 279 -407
240 -552 347 -751 553 -85 87 -131 143 -150 184 -27 54 -29 65 -28 173 1 119
22 269 75 547 l31 162 46 -34 c26 -18 80 -49 120 -69z m6718 -41 c45 -33 269
-195 497 -360 229 -165 416 -302 416 -305 1 -5 -178 -120 -191 -123 -3 -1
-142 106 -308 238 -166 132 -307 242 -313 244 -5 2 -25 -4 -43 -14 -29 -15
-36 -16 -51 -4 -10 8 -74 61 -143 119 -69 58 -136 112 -149 120 -22 15 -21 16
80 87 57 39 108 69 113 65 6 -3 48 -33 92 -67z m-181 -232 l163 -136 -24 -19
c-13 -11 -24 -26 -24 -34 0 -13 188 -174 478 -408 111 -89 121 -100 105 -112
-10 -7 -23 -14 -30 -14 -14 0 -112 72 -400 296 -292 227 -261 209 -306 178
l-37 -25 -159 127 -159 128 112 77 c61 43 113 78 115 78 2 1 77 -61 166 -136z
m-364 -106 c36 -28 100 -80 143 -114 42 -34 84 -66 93 -72 16 -8 15 -11 -7
-29 -19 -16 -22 -24 -15 -35 6 -8 138 -117 295 -242 157 -125 293 -235 303
-244 16 -16 13 -20 -58 -70 l-76 -53 -47 41 c-26 23 -119 98 -207 168 -88 69
-230 182 -315 250 -112 90 -194 147 -294 202 -77 42 -141 81 -143 87 -3 10
234 164 252 164 6 0 40 -24 76 -53z m389 -685 c197 -155 249 -202 232 -209 -8
-3 -47 -27 -87 -54 -40 -27 -76 -49 -80 -49 -4 0 -36 25 -71 56 -43 38 -64 64
-64 79 0 50 -74 225 -126 298 -19 26 -34 50 -34 53 0 6 4 3 230 -174z m1865
127 c0 -19 -35 -48 -210 -167 -115 -80 -352 -242 -525 -362 -173 -119 -481
-331 -685 -470 -512 -351 -1847 -1273 -2375 -1640 -124 -86 -373 -259 -555
-385 -181 -125 -431 -299 -555 -385 -670 -467 -1152 -802 -1370 -953 -135 -93
-254 -178 -265 -188 -17 -17 -20 -42 -30 -286 -6 -148 -13 -259 -17 -248 -14
42 -18 87 -29 295 -6 118 -15 222 -19 231 -5 9 -188 139 -407 290 -703 483
-1092 752 -1298 899 -106 75 -122 90 -109 101 12 10 20 9 42 -2 58 -30 1012
-676 1620 -1096 106 -73 197 -133 203 -133 5 0 76 47 157 103 81 57 464 324
852 594 388 269 912 634 1165 811 253 176 494 344 535 373 41 29 332 230 645
447 314 218 597 414 630 437 1045 725 2575 1766 2590 1761 6 -1 10 -13 10 -27z
m-3530 -206 c10 -27 31 -74 47 -106 16 -32 28 -62 26 -67 -3 -8 -181 135 -185
149 -2 6 77 69 88 70 4 1 14 -20 24 -46z m-55 -140 c58 -49 117 -97 131 -108
14 -11 37 -45 51 -75 14 -31 40 -73 59 -95 37 -42 118 -85 161 -85 15 0 30 -5
33 -11 7 -10 243 -208 341 -285 l51 -40 -85 -58 c-84 -56 -85 -57 -106 -38
-100 89 -532 459 -544 466 -9 5 -22 4 -34 -3 -16 -10 -26 -5 -71 32 -29 24
-97 78 -152 120 -152 115 -163 125 -145 137 8 5 56 36 105 69 50 33 92 60 95
60 3 1 52 -38 110 -86z m637 38 c96 -68 172 -156 268 -311 10 -17 -77 50 -214
165 -52 44 -103 94 -112 110 -22 38 -34 85 -22 85 6 0 41 -22 80 -49z m-2292
-112 c-155 -165 -332 -270 -556 -329 -62 -16 -114 -28 -115 -27 -1 1 82 42
185 90 221 103 390 201 463 268 70 63 83 62 23 -2z m1346 -56 c30 -25 107 -86
171 -134 64 -49 119 -93 123 -98 3 -6 -8 -20 -25 -32 -60 -45 -64 -40 355
-393 83 -70 151 -130 153 -135 1 -4 -8 -15 -22 -24 -24 -16 -26 -15 -228 148
-111 91 -248 201 -302 246 -86 70 -103 80 -128 75 -25 -5 -48 10 -191 122 -89
70 -162 133 -162 140 0 10 179 131 196 132 3 0 30 -21 60 -47z m1914 -83 c-3
-4 -21 -17 -40 -29 l-35 -20 0 42 c0 23 -3 53 -7 67 -6 22 -3 22 40 -14 26
-21 45 -42 42 -46z m-2122 -112 c56 -46 135 -107 174 -137 l70 -54 -33 -29
c-19 -17 -34 -38 -34 -48 0 -18 83 -90 393 -339 97 -78 177 -146 177 -151 0
-8 -116 -80 -129 -80 -4 0 -20 14 -37 31 -29 32 -515 439 -719 603 -60 49
-127 105 -147 124 l-37 35 102 63 c56 35 105 64 110 64 4 0 53 -37 110 -82z
m1216 -50 c166 -134 269 -222 270 -229 1 -5 -86 -69 -94 -69 -3 0 -91 70 -196
156 l-191 157 25 21 c14 11 30 31 36 44 7 12 15 22 18 22 4 0 63 -46 132 -102z
m-1553 -49 c10 -12 62 -56 114 -97 377 -303 790 -654 790 -673 0 -8 -134 -109
-144 -109 -3 0 -71 57 -149 128 -171 152 -407 356 -424 366 -7 4 -26 0 -42
-10 l-28 -17 -153 124 c-216 175 -206 166 -195 177 14 14 198 132 206 132 3 0
14 -10 25 -21z m-79 -317 c62 -50 122 -97 134 -106 l22 -15 -32 -26 c-17 -15
-31 -33 -31 -41 0 -12 327 -299 483 -424 l68 -54 -38 -23 c-21 -13 -41 -23
-45 -23 -10 0 -137 103 -351 284 -204 173 -238 196 -264 180 -16 -10 -36 3
-134 85 -63 53 -141 119 -173 147 l-58 50 109 71 108 70 45 -42 c25 -23 95
-83 157 -133z m2309 28 c49 -27 95 -50 102 -50 23 0 11 -15 -34 -42 -55 -34
-64 -34 -112 -4 -20 13 -61 35 -90 50 l-53 27 48 33 c26 19 48 34 49 35 0 1
41 -21 90 -49z m-2569 -193 l140 -118 -34 -34 c-18 -18 -33 -38 -33 -44 0 -6
107 -100 238 -209 130 -110 257 -217 281 -239 l45 -40 -63 -42 -63 -43 -56 51
c-66 59 -416 350 -631 525 -80 65 -170 140 -200 166 l-54 47 113 75 114 76 31
-26 c18 -15 95 -80 172 -145z m2335 11 c48 -29 87 -55 88 -58 0 -6 -97 -70
-106 -70 -10 0 -184 104 -184 110 0 7 92 69 104 69 5 1 49 -23 98 -51z m-2559
-227 c571 -469 696 -575 687 -583 -3 -2 -35 -25 -71 -50 l-66 -45 -104 90
c-175 150 -463 393 -476 401 -7 4 -26 -3 -42 -15 l-30 -22 -68 56 c-148 121
-139 111 -125 141 23 52 32 114 23 158 -8 35 -7 44 7 55 9 7 18 13 20 13 1 0
111 -90 245 -199z m-523 158 c98 -29 129 -72 89 -123 -16 -20 -29 -26 -51 -24
-25 3 -35 14 -74 86 -24 45 -42 82 -38 82 3 0 37 -9 74 -21z m2820 -103 l101
-53 -66 -43 -65 -43 -60 32 c-33 18 -79 43 -101 56 l-41 23 58 40 c33 23 62
41 66 41 4 1 52 -23 108 -53z m-274 -178 l103 -53 -60 -37 c-33 -21 -64 -38
-69 -38 -5 0 -54 22 -109 49 l-101 49 63 41 c34 22 64 40 66 40 2 1 50 -23
107 -51z m-2263 -50 l97 -81 -30 -21 c-33 -23 -37 -38 -17 -58 8 -7 121 -103
252 -213 131 -110 254 -213 272 -230 l34 -30 -54 -29 -55 -29 -118 100 c-66
55 -191 162 -279 237 -181 156 -206 172 -235 156 -30 -16 -37 -7 -45 64 -3 36
-13 89 -21 118 -18 68 -18 68 5 68 10 0 34 7 52 15 19 8 36 14 39 15 3 0 49
-37 103 -82z m1898 -184 c68 -31 139 -62 158 -70 l34 -14 -244 -166 c-134 -92
-297 -204 -361 -250 -65 -46 -126 -88 -137 -94 -17 -9 -46 2 -172 65 -83 42
-149 78 -147 81 3 2 171 116 374 253 203 138 369 250 370 250 0 1 56 -24 125
-55z m-1861 -399 l281 -224 -56 -37 -56 -37 -47 45 c-26 25 -88 81 -138 124
-238 207 -334 297 -334 316 0 17 28 36 57 37 6 1 138 -100 293 -224z m3293
193 c-6 -7 -88 -152 -183 -323 -95 -170 -226 -402 -290 -515 -65 -113 -173
-304 -240 -425 -133 -237 -450 -798 -455 -803 -3 -4 -93 40 -600 288 -275 135
-436 221 -432 232 3 8 67 55 512 368 839 591 1623 1145 1655 1171 35 27 52 31
33 7z m-4554 -30 c12 -31 4 -36 -19 -11 -10 12 -16 24 -13 27 12 12 24 6 32
-16z m-39 -60 c21 -24 94 -88 164 -143 l126 -100 -25 -20 c-14 -12 -25 -28
-25 -36 0 -20 68 -84 245 -230 191 -157 345 -290 345 -299 0 -3 -18 -16 -39
-28 l-40 -23 -133 107 c-73 59 -213 174 -310 256 -97 81 -183 148 -191 148 -7
0 -17 -4 -23 -10 -9 -9 -186 122 -318 236 l-47 40 113 72 c62 39 115 72 117
72 2 0 20 -19 41 -42z m1146 -173 c93 -82 195 -174 226 -204 l58 -54 -71 -44
-70 -44 -52 46 c-29 25 -131 114 -228 198 l-177 151 29 18 c17 10 42 38 57 62
23 38 29 43 43 33 10 -7 93 -79 185 -162z m-654 -8 c20 -9 50 -17 67 -17 24 0
55 -22 158 -112 71 -62 186 -162 256 -223 70 -60 127 -112 127 -115 0 -9 -57
-40 -72 -40 -8 0 -138 104 -289 231 -151 127 -289 238 -307 247 -27 13 -38 14
-64 4 -27 -10 -35 -9 -61 10 -28 20 -29 23 -12 32 10 6 34 25 53 42 l35 31 36
-36 c20 -20 53 -44 73 -54z m-759 14 c23 -21 102 -86 174 -144 l133 -105 -25
-16 c-13 -9 -29 -25 -35 -36 -15 -28 19 -63 288 -289 128 -108 247 -207 264
-221 l30 -26 -61 -42 c-34 -23 -64 -42 -67 -42 -3 0 -53 42 -112 94 -125 109
-555 467 -731 609 -67 54 -121 103 -119 108 2 7 207 149 216 149 1 0 21 -17
45 -39z m2557 -191 c0 -3 -26 -20 -57 -38 -63 -37 -67 -36 -161 16 l-44 25 59
37 58 37 72 -36 c40 -20 73 -38 73 -41z m-2310 -411 c162 -135 321 -269 352
-298 l57 -52 -81 -55 -81 -54 -86 72 c-93 77 -177 151 -366 321 -66 59 -131
111 -144 114 -14 3 -37 1 -52 -4 -26 -10 -36 -4 -156 92 -70 57 -148 121 -173
143 l-45 39 108 71 107 71 132 -107 c73 -59 265 -218 428 -353z m2024 240 c4
-4 -17 -23 -48 -43 l-57 -36 -65 36 -65 36 58 38 58 39 55 -31 c30 -17 59 -34
64 -39z m-2729 -45 c39 -33 107 -90 153 -127 l83 -66 -31 -16 c-17 -9 -30 -24
-30 -34 0 -11 51 -62 128 -129 292 -253 468 -412 460 -416 -2 -1 -19 -13 -38
-27 -19 -14 -40 -29 -47 -32 -7 -5 -48 24 -101 70 -226 198 -486 419 -520 441
-17 11 -28 12 -46 4 -20 -9 -32 -3 -99 52 -115 93 -256 220 -254 228 1 4 54
39 117 77 111 68 115 70 135 53 11 -10 52 -45 90 -78z m2429 -94 c36 -17 66
-32 66 -34 0 -2 -45 -32 -100 -66 l-99 -61 -78 36 -77 36 100 59 c54 33 104
60 110 60 6 0 41 -14 78 -30z m-2720 -73 c50 -46 124 -111 164 -145 l72 -61
-25 -17 c-14 -9 -31 -26 -37 -38 -10 -18 -3 -28 68 -93 43 -40 181 -157 306
-260 125 -104 227 -190 227 -193 1 -6 -107 -76 -129 -84 -17 -7 -79 45 -957
799 l-35 31 118 72 c66 40 123 72 128 72 4 0 49 -37 100 -83z m-88 -348 c131
-113 318 -272 414 -353 96 -82 195 -167 219 -189 l44 -40 -23 -17 c-13 -10
-36 -25 -50 -33 -26 -16 -30 -14 -521 316 -272 183 -522 350 -557 371 -34 22
-61 43 -59 49 1 5 54 42 117 82 l115 72 31 -26 c17 -14 139 -118 270 -232z
m2446 182 l68 -38 -66 -41 c-36 -23 -69 -42 -74 -42 -15 0 -140 71 -140 80 0
9 120 79 135 79 6 0 40 -17 77 -38z m-202 -212 c0 -3 -27 -23 -60 -43 l-60
-37 -70 37 c-39 20 -67 40 -63 44 4 4 32 23 62 43 l55 36 68 -37 c37 -20 68
-40 68 -43z m-309 -125 l70 -37 -58 -38 c-32 -22 -64 -39 -71 -39 -14 0 -97
41 -126 63 -18 13 -15 16 40 50 32 21 62 37 67 37 5 0 40 -16 78 -36z m1699
-582 c601 -294 761 -376 758 -389 -4 -18 -562 -992 -569 -993 -3 0 -15 20 -26
44 -33 67 -72 106 -291 289 -111 93 -250 212 -307 264 l-105 95 0 57 c0 32 -5
83 -11 114 -13 66 -13 68 88 427 66 236 77 270 91 270 4 0 172 -80 372 -178z
m1068 -324 c17 -17 15 -68 -5 -90 -23 -25 -79 -24 -93 2 -31 57 54 132 98 88z
m-2253 -496 c79 -22 110 -26 250 -26 131 -1 167 2 199 17 46 21 52 21 37 3 -6
-7 -39 -26 -74 -42 -80 -36 -210 -45 -306 -20 -65 17 -231 89 -231 101 0 4 8
4 18 -1 9 -4 58 -19 107 -32z m-2519 -1226 c106 -44 181 -59 294 -58 59 1 129
8 160 16 30 8 56 13 58 11 7 -7 -81 -48 -133 -61 -73 -20 -182 -17 -257 6 -57
17 -175 83 -203 112 -11 12 -12 12 81 -26z"/>
<path d="M3420 13180 c-25 -25 -26 -40 -1 -33 35 9 66 -36 85 -120 20 -88 55
-142 78 -119 23 23 17 159 -10 214 -35 71 -110 100 -152 58z"/>
</g>
</svg>
