<?xml version="1.0" standalone="no"?>
<!DOCTYPE svg PUBLIC "-//W3C//DTD SVG 20010904//EN"
 "http://www.w3.org/TR/2001/REC-SVG-20010904/DTD/svg10.dtd">
<svg version="1.0" xmlns="http://www.w3.org/2000/svg"
 width="859.834613pt" height="1440.762950pt" viewBox="0 0 859.834613 1440.762950"
 preserveAspectRatio="xMidYMid meet">
<metadata>Created by Svg.la</metadata>
<g transform="translate(-114.134681,1482.779454) scale(0.100000,-0.100000)"
fill="#000000" stroke="none">
<path d="M3500 14811 c-202 -45 -339 -120 -490 -271 -115 -115 -169 -196 -238
-360 -85 -201 -193 -423 -228 -471 -39 -53 -112 -113 -180 -147 -22 -11 -105
-39 -184 -62 -196 -56 -284 -102 -385 -204 -94 -94 -143 -183 -175 -316 -21
-90 -28 -250 -10 -250 6 0 10 5 10 10 0 25 86 143 138 192 54 49 133 96 192
113 19 5 16 0 -16 -24 -99 -74 -186 -211 -248 -388 -43 -126 -56 -150 -98
-190 -81 -78 -218 -112 -321 -80 -26 8 -47 12 -47 8 0 -4 13 -27 28 -52 40
-62 114 -126 180 -157 49 -23 73 -27 175 -30 l117 -4 123 127 c181 189 266
249 409 286 101 26 103 24 22 -17 -95 -47 -210 -141 -333 -270 -238 -252 -351
-493 -415 -889 -33 -208 -95 -678 -102 -780 l-6 -80 34 -32 34 -33 -17 -157
c-45 -417 -51 -662 -19 -824 21 -109 47 -165 111 -234 l37 -40 -24 -100 c-28
-117 -43 -265 -31 -321 5 -27 1 -86 -15 -189 -29 -196 -32 -570 -5 -765 20
-144 71 -378 129 -589 21 -80 59 -226 82 -323 l43 -177 -289 -192 c-343 -227
-341 -225 -346 -363 -2 -50 1 -164 6 -254 13 -236 -29 -194 495 -500 252 -147
236 -118 157 -285 -127 -269 -171 -466 -225 -1009 -27 -276 -40 -359 -85 -562
-69 -311 -77 -438 -36 -521 l25 -48 -20 -111 c-44 -240 -42 -341 5 -434 13
-27 58 -91 100 -143 68 -85 108 -154 190 -329 72 -156 235 -291 429 -354 286
-93 558 -18 613 170 34 120 -2 228 -165 494 -151 244 -236 395 -262 462 l-21
57 29 30 c47 47 64 144 73 416 7 202 11 248 39 375 32 151 140 517 258 872
l68 206 164 -91 c143 -79 171 -91 222 -95 77 -6 127 13 239 88 50 34 93 60 96
58 2 -2 -6 -58 -18 -124 -29 -160 -32 -406 -5 -447 16 -25 17 -38 6 -160 -18
-208 4 -277 112 -347 74 -47 146 -72 309 -104 172 -34 223 -55 353 -148 61
-45 141 -99 177 -121 36 -21 66 -40 68 -42 1 -1 -49 -107 -112 -236 -451 -927
-537 -1103 -540 -1107 -4 -4 -238 127 -629 351 -179 103 -223 115 -293 79 -99
-51 -138 -153 -95 -249 23 -49 -14 -26 841 -513 322 -183 848 -484 1170 -668
745 -427 699 -402 740 -402 79 0 169 72 191 153 14 54 -4 114 -50 156 -28 26
-883 520 -924 534 -4 1 76 176 179 387 102 212 251 518 329 680 692 1431 839
1730 846 1728 11 -4 368 -342 365 -345 -2 -2 -47 20 -100 48 -78 41 -107 51
-145 51 -163 0 -244 -202 -123 -304 17 -14 114 -70 214 -124 160 -85 455 -244
1048 -567 685 -371 1044 -559 1079 -564 88 -12 180 52 207 143 30 105 -4 167
-127 235 -46 26 -270 147 -496 270 l-413 224 -665 665 -666 666 152 309 c83
171 189 389 234 485 45 96 157 330 247 520 241 504 386 812 566 1200 87 190
210 454 271 586 l113 241 145 102 c79 57 150 100 157 98 7 -3 100 -45 205 -92
177 -81 196 -87 242 -83 96 10 176 106 165 202 -10 88 -52 122 -264 211 -20 9
11 34 315 250 185 132 416 295 512 363 266 186 261 182 287 237 23 49 24 57
24 335 0 318 -3 332 -71 397 -37 35 -31 32 -789 305 -1071 384 -1207 432
-1250 436 -27 2 -60 -2 -80 -11 -19 -8 -264 -166 -544 -351 l-508 -337 -54 21
c-38 16 -108 69 -241 183 -103 88 -343 290 -533 448 -190 158 -351 297 -358
309 -18 29 -45 99 -118 300 l-63 174 30 45 c48 73 47 79 -16 240 -31 80 -83
218 -115 306 -151 416 -250 612 -382 751 l-51 54 56 24 c75 34 120 76 147 138
27 64 25 104 -21 293 l-32 134 48 58 c49 59 129 214 162 313 28 85 25 254 -6
345 -46 136 -88 203 -201 316 -65 66 -124 116 -155 132 -27 14 -85 54 -129 88
-195 158 -315 227 -471 269 -116 32 -375 37 -495 11z m1215 -998 c30 -142 17
-260 -49 -430 -20 -52 -36 -110 -36 -133 0 -23 14 -105 32 -182 29 -128 30
-143 17 -167 -16 -28 -59 -53 -128 -73 -44 -13 -45 -15 -77 -95 -71 -183 -185
-346 -269 -384 -120 -55 -370 17 -597 173 -117 80 -191 149 -275 254 -36 46
-70 84 -74 84 -23 0 103 -253 178 -358 71 -100 222 -204 379 -261 l79 -29 -3
-39 c-8 -89 -81 -196 -165 -241 -48 -25 -61 -27 -167 -27 -99 1 -126 5 -195
29 -114 39 -225 109 -322 200 -124 117 -191 216 -238 356 l-23 66 65 40 c149
90 292 308 293 446 0 25 2 26 58 25 139 -2 237 71 316 236 l46 97 136 0 c359
0 655 113 810 309 43 53 122 198 138 251 7 24 9 22 32 -27 14 -28 31 -82 39
-120z m-148 -2238 c25 -124 28 -162 27 -335 0 -143 -4 -214 -16 -265 -23 -103
-39 -158 -43 -153 -2 2 1 55 7 118 13 146 4 429 -22 680 -11 107 -20 206 -19
220 1 32 31 -85 66 -265z m-2121 113 c103 -108 161 -208 196 -336 50 -187 11
-578 -87 -878 -19 -57 -41 -116 -49 -131 l-15 -28 5 35 c2 19 23 163 46 320
37 256 42 305 42 480 1 158 -3 207 -17 260 -27 97 -94 225 -149 286 -69 75
-45 68 28 -8z m2639 -679 c33 -89 76 -191 95 -227 40 -73 -30 -11 791 -704
163 -137 321 -266 350 -285 63 -43 194 -91 360 -133 221 -56 294 -98 471 -270
89 -86 111 -120 79 -120 -5 0 -50 39 -101 86 -126 115 -235 184 -235 147 0 -6
80 -93 178 -192 109 -112 177 -189 177 -201 0 -28 -43 -37 -78 -15 -15 10 -98
89 -185 176 -140 141 -195 184 -213 166 -11 -11 27 -65 123 -177 213 -250 234
-286 179 -311 -33 -15 -48 -5 -110 77 -139 183 -374 320 -533 312 l-58 -3 -3
-49 c-4 -68 19 -124 79 -186 59 -61 102 -167 79 -195 -22 -26 -121 36 -225
140 -113 114 -170 212 -215 375 -18 63 -38 124 -45 135 -7 11 -52 38 -101 59
-122 54 -615 300 -689 343 -262 155 -415 280 -503 410 -23 34 -65 108 -92 164
l-49 101 23 46 c30 60 70 177 91 267 l17 70 97 48 c54 26 113 61 132 77 19 16
39 29 44 30 6 0 37 -72 70 -161z m-550 -541 c123 -250 276 -404 593 -596 59
-35 263 -141 454 -236 191 -94 347 -173 347 -176 1 -6 -1404 -940 -1413 -940
-3 0 -6 7 -6 16 0 20 -78 295 -118 414 -28 85 -28 85 -9 120 26 50 19 131 -43
510 -66 399 -70 506 -23 643 27 77 160 328 173 327 3 -1 23 -37 45 -82z
m-2691 -183 c142 -35 265 -48 374 -40 l93 7 -6 -34 c-86 -496 -94 -553 -82
-563 174 -136 933 -681 1203 -863 68 -46 215 -98 369 -131 364 -79 392 -91
547 -239 95 -91 161 -179 245 -325 64 -113 76 -159 47 -175 -34 -19 -57 3
-148 142 -68 103 -116 163 -179 223 -85 82 -139 119 -157 108 -13 -8 3 -38
113 -207 119 -181 218 -363 224 -408 6 -43 -11 -62 -44 -49 -13 5 -58 64 -109
141 -115 177 -214 308 -271 357 -46 41 -83 53 -83 27 0 -7 64 -103 141 -212
207 -289 227 -326 195 -353 -24 -20 -48 1 -137 112 -96 119 -312 342 -351 363
-87 46 -63 -9 111 -249 99 -138 111 -157 111 -186 0 -15 -6 -21 -22 -21 -22 0
-46 23 -250 242 -101 108 -132 135 -235 199 -133 82 -205 146 -269 235 l-43
60 -213 93 c-117 52 -334 154 -483 227 -572 281 -859 473 -932 622 l-28 57 1
265 c1 228 23 588 39 637 3 8 22 5 66 -12 34 -14 107 -36 163 -50z m5751 -40
c90 -35 315 -121 500 -190 185 -68 347 -131 360 -137 24 -13 23 -14 -39 -55
l-63 -42 -279 115 c-338 140 -347 143 -371 122 -17 -15 -33 -10 -221 65 -111
44 -201 84 -200 89 4 9 129 97 141 97 5 1 82 -28 172 -64z m-166 -144 c111
-44 206 -82 209 -85 3 -3 -3 -15 -13 -26 -9 -10 -15 -25 -12 -33 5 -14 183
-93 445 -198 l132 -53 -29 -18 -29 -19 -178 74 c-99 41 -237 101 -308 133
l-128 58 -40 -22 -40 -22 -187 76 c-102 42 -192 79 -199 83 -9 5 18 28 80 69
51 34 93 62 93 62 0 0 92 -36 204 -79z m-336 -117 c51 -19 141 -56 200 -81 93
-39 105 -47 91 -58 -10 -7 -15 -19 -11 -28 7 -18 26 -27 302 -143 110 -47 219
-93 243 -103 l43 -18 -25 -16 c-14 -10 -31 -17 -38 -17 -7 0 -74 28 -148 61
-74 34 -209 94 -300 133 l-166 73 -36 -25 -37 -24 -98 42 c-168 72 -286 130
-280 137 12 12 152 101 160 102 4 1 49 -15 100 -35z m-226 -140 c49 -20 136
-59 196 -87 l107 -50 -20 -22 c-38 -41 -57 -29 284 -177 126 -54 240 -105 254
-112 l25 -13 -62 -42 -63 -43 -141 59 c-133 55 -145 62 -222 135 -103 98 -145
131 -225 178 -66 39 -193 87 -287 110 -29 6 -53 15 -53 18 1 5 104 76 117 81
2 1 42 -15 90 -35z m2727 -170 c17 -45 6 -63 -67 -118 -40 -29 -608 -428
-1262 -886 -1404 -983 -2271 -1592 -2875 -2020 -129 -92 -518 -367 -865 -612
-630 -444 -918 -650 -1135 -809 -63 -46 -134 -93 -158 -103 l-42 -19 0 -224
c0 -183 -2 -223 -14 -223 -35 0 -41 29 -44 240 l-4 207 -58 17 c-36 11 -237
120 -512 278 -464 267 -821 468 -1103 623 -88 48 -163 92 -167 99 -10 15 -10
54 0 60 11 6 477 -252 1172 -649 604 -345 612 -349 685 -343 66 6 70 8 397
249 223 164 566 407 1333 948 121 85 326 229 455 321 364 258 1227 867 1510
1065 140 98 404 282 585 409 182 128 454 318 605 423 151 106 561 393 910 637
349 245 638 445 641 446 4 0 10 -7 13 -16z m-2075 -399 c22 -7 18 -11 -50 -56
-41 -26 -77 -48 -81 -49 -3 0 -2 15 4 33 9 30 4 58 -26 128 -6 13 10 9 61 -16
37 -18 79 -36 92 -40z m-1530 -20 c10 -28 26 -65 35 -83 10 -19 16 -35 14 -37
-5 -4 -198 87 -198 94 0 9 114 81 123 78 5 -1 17 -25 26 -52z m-41 -129 c126
-57 155 -75 176 -105 56 -81 116 -124 319 -229 48 -25 49 -25 102 -8 l54 17
67 -34 66 -33 -65 -43 c-47 -30 -72 -41 -86 -36 -22 7 -300 139 -460 219 -82
41 -98 46 -121 36 -22 -9 -37 -5 -106 28 -43 22 -125 61 -181 87 -57 27 -103
51 -103 54 0 8 173 121 181 118 3 -1 74 -33 157 -71z m-201 -166 l187 -90 -29
-30 c-15 -16 -25 -35 -22 -42 6 -16 214 -128 401 -217 109 -52 127 -63 116
-76 -6 -8 -20 -17 -30 -20 -20 -6 -163 63 -443 212 l-158 84 -27 -19 -27 -20
-140 65 c-77 36 -157 72 -177 81 -21 10 -38 19 -38 22 1 4 190 138 198 139 2
1 87 -40 189 -89z m1047 -34 c69 -33 126 -62 126 -65 0 -3 -32 -27 -71 -53
l-72 -47 -67 34 -68 34 16 46 c11 36 12 54 4 81 -6 19 -7 34 -3 32 5 -2 65
-30 135 -62z m-2551 -51 c-5 -8 -37 -46 -71 -85 -49 -54 -69 -69 -87 -68 -22
2 -37 18 -17 18 4 0 45 34 92 75 47 41 86 74 88 75 2 0 -1 -7 -5 -15z m1093
-4 c8 -8 122 -62 302 -143 38 -17 41 -21 27 -34 -25 -25 -38 -55 -28 -65 5 -5
124 -68 264 -140 140 -71 258 -134 262 -138 4 -4 -16 -25 -46 -45 l-55 -38
-348 181 c-192 99 -404 205 -471 237 -68 31 -123 60 -123 63 1 8 182 130 196
130 5 1 14 -3 20 -8z m30 -295 c159 -80 369 -188 467 -242 l178 -96 -64 -44
-65 -43 -128 68 c-71 37 -202 105 -292 151 -152 77 -164 81 -181 66 -9 -9 -22
-16 -27 -16 -13 0 -364 173 -364 179 1 6 170 119 181 120 3 1 136 -64 295
-143z m-3401 -86 c218 -103 515 -166 920 -194 l180 -12 -120 -8 c-335 -24
-642 25 -892 139 -77 35 -204 116 -225 143 -8 10 1 7 22 -7 19 -12 71 -40 115
-61z m3062 -15 l181 -90 -20 -28 c-11 -15 -18 -33 -15 -40 4 -11 195 -115 429
-233 l97 -49 -27 -22 c-15 -12 -31 -22 -35 -23 -8 0 -269 138 -447 237 -58 32
-113 59 -122 61 -9 2 -28 -4 -41 -13 -24 -16 -29 -14 -159 51 -73 36 -152 77
-175 91 l-42 24 92 63 c51 35 94 63 97 62 3 -1 87 -42 187 -91z m-255 -151
c90 -48 167 -90 172 -95 6 -5 0 -19 -14 -34 -19 -20 -22 -30 -14 -42 13 -20
139 -93 349 -202 88 -46 164 -86 168 -91 9 -8 -73 -70 -91 -70 -6 0 -84 40
-174 89 -89 49 -226 122 -302 163 l-140 75 -82 131 c-81 130 -82 131 -60 146
11 8 22 15 23 15 2 1 76 -38 165 -85z m238 -412 c80 -44 176 -98 213 -120 l68
-40 -43 -30 c-88 -59 -67 -63 -276 53 l-190 106 -4 67 c-3 37 -9 76 -13 86 -7
17 0 15 46 -11 30 -17 119 -67 199 -111z m-1715 -213 c-3 -4 -21 -16 -40 -28
-35 -20 -35 -20 -35 0 0 23 38 217 47 239 3 8 12 -34 19 -94 7 -60 11 -113 9
-117z m514 26 c109 -113 185 -165 240 -165 25 0 42 9 72 38 l38 39 23 -25 c35
-38 101 -64 143 -56 31 6 53 -4 210 -92 96 -54 175 -101 175 -104 0 -9 -171
-125 -181 -123 -11 4 -387 214 -493 277 -69 41 -83 46 -101 36 -19 -10 -32 -7
-86 20 -129 64 -289 155 -287 162 3 8 129 96 139 97 3 1 51 -46 108 -104z
m998 -77 c95 -51 173 -95 173 -98 0 -3 -15 -14 -33 -26 l-32 -21 -150 84 c-88
49 -148 89 -146 96 3 7 5 22 5 35 1 12 3 22 6 22 2 0 82 -41 177 -92z m-1244
23 c28 -15 107 -59 175 -96 l122 -67 -30 -35 c-17 -19 -28 -38 -25 -42 6 -10
230 -142 413 -243 73 -40 133 -77 134 -82 0 -6 -15 -19 -34 -29 l-33 -20 -275
158 c-151 86 -279 161 -284 166 -14 13 -50 11 -63 -2 -9 -9 -51 10 -165 74
-220 123 -209 103 -92 181 54 36 100 66 102 66 1 0 26 -13 55 -29z m-174 -213
c69 -39 143 -82 165 -95 l38 -25 -31 -32 c-17 -17 -31 -36 -31 -41 0 -6 40
-33 88 -61 48 -28 174 -101 280 -163 l193 -113 -31 -23 -32 -23 -136 81 c-75
44 -206 123 -291 175 l-154 94 -27 -21 -28 -20 -88 47 c-126 67 -254 146 -251
154 2 10 189 137 201 137 4 1 65 -31 135 -71z m4012 -99 c-16 -35 -86 -188
-154 -339 -69 -151 -158 -342 -197 -425 -40 -82 -132 -276 -205 -430 -364
-768 -691 -1445 -705 -1459 -7 -7 -61 40 -166 145 l-156 156 172 354 c180 371
240 496 557 1164 135 286 202 416 220 430 101 78 657 475 660 472 2 -2 -10
-33 -26 -68z m-4290 -65 c62 -36 140 -79 172 -96 31 -17 57 -34 57 -38 0 -4
-9 -15 -20 -25 -31 -28 -24 -51 23 -83 47 -33 329 -200 424 -253 35 -19 63
-36 63 -39 -1 -8 -113 -83 -124 -83 -6 0 -153 83 -326 185 -173 102 -379 222
-458 268 -92 53 -140 86 -134 92 13 13 195 137 203 137 3 1 57 -29 120 -65z
m-165 -230 c120 -70 316 -185 434 -257 118 -71 227 -137 242 -146 16 -9 28
-18 28 -22 0 -6 -116 -89 -126 -89 -10 0 -400 238 -545 333 -25 17 -27 16 -68
-14 l-43 -31 -81 48 c-45 26 -124 73 -175 105 l-94 57 103 70 c57 39 104 71
105 71 1 1 100 -56 220 -125z m-184 -218 l68 -38 -16 -29 c-8 -16 -12 -34 -9
-39 3 -5 120 -82 261 -171 l255 -162 -35 -23 c-19 -13 -38 -24 -41 -24 -10 0
-314 183 -443 267 -62 40 -118 73 -123 73 -6 0 -25 -10 -42 -22 l-31 -22 -50
28 c-103 57 -296 181 -294 188 2 5 50 39 107 77 l103 69 112 -67 c61 -37 141
-84 178 -105z m-521 -24 c13 -10 89 -58 169 -106 80 -49 147 -90 148 -91 2 -2
-7 -18 -20 -35 l-23 -32 31 -24 c41 -32 236 -157 379 -243 128 -77 125 -67 33
-130 l-48 -32 -330 196 c-397 235 -590 354 -590 363 0 7 210 150 221 151 4 1
17 -7 30 -17z m39 -372 c280 -168 518 -314 563 -345 16 -11 7 -21 -93 -89
l-112 -77 -117 66 c-311 177 -831 480 -831 485 0 3 56 42 123 86 108 72 124
80 142 70 11 -7 157 -95 325 -196z m3914 50 c-19 -39 -34 -73 -34 -75 0 -6
-221 -466 -387 -805 -69 -140 -138 -283 -154 -318 l-30 -63 -255 252 c-204
203 -252 255 -242 265 7 7 254 184 548 394 294 210 544 390 555 401 34 33 34
21 -1 -51z m-1134 -1320 c129 -125 255 -245 280 -267 l44 -41 -94 -198 c-51
-110 -161 -338 -244 -507 l-151 -308 -114 68 c-108 64 -285 215 -311 264 -7
12 -6 59 1 136 7 75 8 149 3 203 -17 167 8 372 82 682 l45 186 66 46 66 46 46
-42 c25 -23 152 -144 281 -268z m890 -877 c0 -2 -32 -70 -71 -151 -39 -81
-106 -221 -149 -312 -75 -160 -444 -922 -705 -1455 -70 -143 -201 -413 -292
-600 -91 -187 -169 -344 -173 -349 -6 -5 -14 -5 -22 1 -7 6 -96 59 -198 118
-102 59 -186 108 -188 110 -2 2 157 324 353 717 l356 713 89 2 c102 2 156 14
224 51 99 54 156 150 156 263 0 91 -42 180 -127 270 l-34 36 226 452 226 452
164 -157 c91 -86 165 -159 165 -161z m-1669 -87 c-12 -13 -45 -36 -74 -52 -44
-24 -63 -28 -127 -28 -48 0 -89 7 -114 17 -50 22 -43 28 17 16 65 -14 177 4
247 40 69 35 79 37 51 7z m-2372 -1232 c84 -18 222 -18 289 0 29 7 52 10 52 6
0 -15 -120 -60 -177 -66 -100 -11 -212 24 -284 87 l-34 30 44 -21 c24 -12 73
-28 110 -36z"/>
</g>
</svg>
