<?xml version="1.0" standalone="no"?>
<!DOCTYPE svg PUBLIC "-//W3C//DTD SVG 20010904//EN"
 "http://www.w3.org/TR/2001/REC-SVG-20010904/DTD/svg10.dtd">
<svg version="1.0" xmlns="http://www.w3.org/2000/svg"
 width="408.567252pt" height="721.812268pt" viewBox="0 0 408.567252 721.812268"
 preserveAspectRatio="xMidYMid meet">
<metadata>Created by Svg.la</metadata>
<g transform="translate(-63.000000,761.977047) scale(0.100000,-0.100000)"
fill="#000000" stroke="none">
<path d="M2310 7599 c-57 -33 -77 -72 -99 -194 -52 -287 -126 -685 -172 -923
l-52 -262 -201 -134 c-110 -73 -289 -188 -396 -256 -440 -276 -460 -292 -460
-360 0 -58 36 -95 118 -120 37 -12 473 -122 969 -245 948 -237 980 -243 1060
-210 20 9 93 57 162 109 69 51 259 190 421 308 162 118 327 238 367 267 78 57
98 90 83 140 -6 21 -5 31 4 34 35 14 53 97 231 1053 l68 362 -23 47 c-26 54
-76 90 -135 99 -22 3 -449 73 -949 156 -500 82 -920 150 -935 150 -14 0 -42
-10 -61 -21z m260 -160 c96 -16 512 -86 925 -155 412 -68 753 -128 757 -132 7
-7 -53 -334 -203 -1125 -12 -66 -28 -121 -34 -123 -7 -3 -97 11 -201 31 -242
46 -1328 266 -1502 305 -73 17 -142 30 -152 30 -11 0 -20 4 -20 9 0 10 49 261
160 829 39 194 70 355 70 357 0 8 21 6 200 -26z m-150 -1419 c151 -33 409 -89
572 -124 346 -76 690 -146 836 -171 152 -27 152 -28 41 -112 -76 -56 -601
-435 -787 -567 -80 -57 -78 -57 -1052 187 -965 242 -940 235 -940 245 0 4 33
27 73 52 165 100 504 315 677 427 102 66 194 123 205 126 32 9 82 0 375 -63z"/>
<path d="M2046 6018 c-45 -23 -40 -29 40 -47 49 -12 55 -11 105 15 l54 28 -40
12 c-59 18 -115 16 -159 -8z"/>
<path d="M2231 5979 c-41 -25 -34 -33 42 -52 56 -15 58 -15 103 10 25 14 42
29 37 33 -11 10 -96 30 -125 30 -13 0 -38 -9 -57 -21z"/>
<path d="M1925 5946 l-40 -25 25 -9 c14 -5 58 -18 98 -28 l73 -19 45 24 c31
17 41 27 32 32 -14 8 -170 49 -185 49 -4 0 -26 -11 -48 -24z m142 -42 c-3 -3
-12 -4 -19 -1 -8 3 -5 6 6 6 11 1 17 -2 13 -5z"/>
<path d="M2417 5933 c-20 -14 -35 -28 -33 -30 2 -2 30 -10 62 -18 57 -13 60
-13 107 13 48 26 48 26 24 38 -13 7 -46 15 -73 18 -42 5 -54 2 -87 -21z"/>
<path d="M2595 5894 l-40 -28 45 -14 c70 -21 101 -19 144 11 l39 26 -26 10
c-14 6 -48 13 -74 16 -42 5 -53 3 -88 -21z m75 -25 c0 -4 -9 -7 -19 -6 -11 0
-18 4 -16 7 6 9 35 8 35 -1z"/>
<path d="M2177 5888 c-20 -12 -36 -26 -34 -32 2 -5 27 -15 56 -23 52 -13 55
-12 100 14 l46 27 -30 12 c-62 25 -98 26 -138 2z m63 -18 c0 -5 -5 -10 -11
-10 -5 0 -7 5 -4 10 3 6 8 10 11 10 2 0 4 -4 4 -10z"/>
<path d="M1787 5872 c-15 -9 -26 -21 -24 -26 4 -11 68 -31 168 -52 74 -15 77
-15 112 6 21 12 37 25 37 29 0 11 -197 61 -235 61 -16 0 -42 -8 -58 -18z"/>
<path d="M2776 5854 c-44 -30 -40 -35 42 -53 50 -10 56 -9 98 15 24 14 42 30
39 34 -5 9 -93 30 -123 30 -10 0 -35 -12 -56 -26z m59 -24 c3 -5 -1 -10 -10
-10 -9 0 -13 5 -10 10 3 6 8 10 10 10 2 0 7 -4 10 -10z"/>
<path d="M2353 5848 c-24 -12 -43 -25 -43 -30 0 -4 19 -12 43 -18 23 -6 50
-13 59 -16 10 -3 39 7 65 22 l47 28 -30 12 c-61 24 -97 25 -141 2z"/>
<path d="M2968 5818 c-21 -12 -38 -25 -38 -30 0 -7 25 -15 101 -33 19 -5 38 1
68 20 23 14 39 30 36 35 -5 8 -92 30 -118 30 -7 0 -29 -10 -49 -22z"/>
<path d="M2528 5808 c-21 -12 -38 -25 -38 -30 0 -4 19 -12 43 -18 23 -6 50
-14 60 -16 10 -3 39 7 65 22 l47 28 -32 13 c-62 25 -105 25 -145 1z"/>
<path d="M1658 5793 c-27 -14 -48 -30 -48 -33 0 -4 29 -15 65 -24 l65 -16 50
27 c27 16 50 31 50 34 0 6 -107 39 -126 39 -5 0 -30 -12 -56 -27z"/>
<path d="M2120 5813 c-8 -3 -28 -15 -44 -26 l-30 -21 69 -17 c68 -17 69 -17
107 4 21 12 36 26 35 32 -2 5 -26 15 -53 22 -53 14 -61 14 -84 6z"/>
<path d="M3151 5774 c-49 -30 -46 -34 36 -54 50 -11 55 -11 99 15 25 15 42 31
37 35 -7 7 -102 30 -121 30 -4 0 -27 -12 -51 -26z"/>
<path d="M2295 5766 c-16 -8 -39 -21 -49 -29 -23 -17 -26 -15 71 -37 48 -11
56 -10 88 10 19 12 35 26 35 30 0 5 -19 14 -42 20 -24 6 -50 13 -58 15 -8 2
-28 -2 -45 -9z"/>
<path d="M2702 5760 c-18 -11 -31 -24 -28 -29 3 -4 32 -14 64 -21 56 -11 62
-11 101 11 22 13 41 27 41 31 0 10 -69 28 -110 28 -19 0 -50 -9 -68 -20z m85
-16 c-3 -3 -12 -4 -19 -1 -8 3 -5 6 6 6 11 1 17 -2 13 -5z"/>
<path d="M1838 5748 c-21 -12 -38 -26 -38 -30 0 -14 65 -38 100 -38 17 0 52
12 78 27 l46 27 -30 12 c-61 25 -116 26 -156 2z"/>
<path d="M3336 5734 c-21 -14 -34 -29 -29 -34 4 -4 35 -13 69 -20 60 -12 62
-11 102 15 23 15 39 31 37 35 -5 9 -94 30 -123 30 -10 0 -35 -12 -56 -26z"/>
<path d="M2473 5723 c-15 -8 -34 -20 -42 -28 -12 -11 -8 -15 26 -24 88 -24
101 -24 137 -1 33 20 47 39 29 40 -5 1 -34 7 -65 14 -49 12 -61 12 -85 -1z"/>
<path d="M2887 5722 c-15 -9 -26 -21 -24 -27 2 -5 30 -16 63 -24 56 -13 61
-12 97 9 20 12 37 26 37 31 0 11 -67 29 -110 29 -19 0 -47 -8 -63 -18z"/>
<path d="M2012 5694 c-26 -15 -40 -30 -35 -35 8 -8 646 -159 671 -159 11 0 92
62 92 71 0 10 -52 26 -145 43 -44 8 -163 34 -265 57 -250 55 -265 56 -318 23z"/>
<path d="M3533 5695 c-24 -15 -43 -30 -43 -34 0 -9 116 -41 145 -41 18 0 85
48 85 61 0 8 -48 23 -110 34 -27 4 -45 0 -77 -20z"/>
<path d="M3072 5679 c-18 -12 -30 -25 -25 -30 4 -4 33 -14 65 -22 55 -14 57
-14 97 10 63 37 53 49 -48 59 -46 4 -62 1 -89 -17z"/>
<path d="M2643 5669 c-18 -11 -33 -24 -33 -29 0 -9 79 -30 115 -30 28 0 85 28
85 42 0 12 -46 28 -94 34 -31 4 -49 0 -73 -17z m87 -17 c0 -4 -9 -8 -19 -8
-11 0 -17 4 -15 8 3 4 12 8 20 8 8 0 14 -4 14 -8z"/>
<path d="M3263 5637 c-18 -12 -33 -25 -33 -28 0 -4 29 -14 65 -23 64 -16 66
-16 105 6 22 13 40 28 40 34 0 13 -75 34 -117 33 -15 0 -43 -10 -60 -22z"/>
<path d="M2833 5629 c-18 -12 -33 -24 -33 -29 0 -4 30 -15 66 -24 l67 -17 39
26 c21 14 36 30 34 34 -7 10 -86 31 -118 31 -13 0 -38 -10 -55 -21z"/>
<path d="M3463 5598 c-18 -13 -31 -27 -30 -32 3 -10 81 -36 109 -36 17 0 78
46 78 60 0 11 -22 18 -77 25 -40 5 -53 2 -80 -17z"/>
<path d="M3028 5586 c-22 -12 -40 -26 -40 -31 0 -6 28 -16 60 -24 57 -13 61
-13 96 9 20 12 35 27 33 34 -2 6 -27 16 -56 22 -47 11 -56 10 -93 -10z"/>
<path d="M1858 5473 c-81 -60 -147 -111 -148 -114 0 -3 30 -11 68 -19 37 -7
181 -42 320 -76 140 -35 261 -64 269 -64 17 0 303 210 303 222 0 5 -10 13 -22
18 -32 13 -594 140 -621 140 -13 0 -86 -46 -169 -107z"/>
<path d="M3197 5545 c-20 -14 -37 -30 -37 -35 0 -7 241 -70 270 -70 13 0 80
52 80 62 0 5 -247 68 -269 68 -3 0 -23 -11 -44 -25z m238 -73 c-3 -3 -11 0
-18 7 -9 10 -8 11 6 5 10 -3 15 -9 12 -12z"/>
<path d="M2736 5527 c-22 -19 -35 -36 -30 -40 6 -3 39 -13 74 -21 l65 -15 40
28 c22 16 40 35 40 42 0 16 -65 37 -115 38 -26 1 -45 -8 -74 -32z m84 -37 c0
-5 -2 -10 -4 -10 -3 0 -8 5 -11 10 -3 6 -1 10 4 10 6 0 11 -4 11 -10z"/>
<path d="M2937 5483 c-20 -16 -35 -32 -33 -38 3 -11 89 -35 128 -35 26 0 88
43 88 61 0 10 -93 39 -125 39 -12 0 -38 -12 -58 -27z"/>
<path d="M3125 5426 l-40 -34 45 -12 c25 -6 61 -15 80 -21 19 -5 48 -9 64 -9
32 0 130 50 119 61 -10 8 -183 49 -209 49 -11 0 -37 -16 -59 -34z m122 -42
c-3 -3 -12 -4 -19 -1 -8 3 -5 6 6 6 11 1 17 -2 13 -5z"/>
<path d="M4136 5674 c-3 -9 -6 -29 -6 -46 0 -23 -10 -41 -41 -70 -111 -106
-974 -723 -1033 -739 -77 -21 -170 -4 -611 110 -236 61 -647 165 -913 231
-265 66 -497 126 -515 134 -35 14 -87 60 -104 90 -9 17 -18 13 -116 -48 -125
-79 -167 -122 -167 -171 0 -25 6 -39 23 -49 12 -9 142 -48 289 -87 l266 -72
46 -166 c26 -91 46 -170 46 -174 0 -5 -16 -23 -35 -41 l-35 -33 -1 -179 c-1
-360 0 -386 22 -420 11 -18 34 -39 52 -47 28 -14 779 -245 850 -263 38 -9 70
-54 200 -284 l108 -188 -57 -88 c-31 -48 -106 -168 -166 -268 -61 -100 -161
-262 -224 -361 -63 -99 -180 -285 -261 -412 -138 -221 -149 -236 -217 -287
-39 -30 -120 -93 -181 -140 -67 -52 -119 -86 -133 -86 -27 0 -49 -15 -174
-112 -55 -43 -90 -79 -96 -98 -25 -71 41 -159 126 -168 48 -4 50 -3 153 75 61
47 110 92 119 110 15 33 107 107 465 378 108 83 279 212 378 287 99 76 187
138 195 138 15 0 96 60 120 89 6 8 12 30 12 48 0 106 -114 171 -193 110 -58
-44 -97 -85 -97 -101 0 -8 -21 -31 -46 -51 -28 -21 -70 -70 -104 -124 -54 -82
-98 -131 -152 -170 l-23 -15 21 34 c53 89 439 693 540 845 62 94 134 211 160
260 27 50 84 146 127 215 44 68 95 153 113 188 36 68 57 87 259 239 66 50 130
101 143 115 18 20 30 70 72 298 27 150 49 275 47 276 -1 2 -22 -1 -45 -7 -27
-6 -58 -5 -89 1 -110 24 -443 111 -986 256 -317 85 -584 154 -592 154 -7 0
-62 -25 -120 -56 -58 -31 -108 -54 -110 -52 -7 6 -85 219 -85 230 0 5 4 7 8 4
8 -5 382 -101 1450 -371 248 -63 472 -115 496 -115 55 0 88 12 136 50 21 17
40 30 42 30 3 0 -10 -78 -28 -172 -19 -95 -48 -252 -66 -348 -37 -201 -25
-182 -185 -303 -51 -38 -93 -74 -93 -80 0 -23 82 2 133 41 139 108 249 207
272 246 18 31 42 124 90 352 36 170 72 337 79 372 10 46 20 68 37 80 26 18
728 580 869 695 112 92 121 103 114 136 -13 53 -7 51 -384 126 -96 19 -178 35
-181 35 -4 0 -10 -7 -13 -16z m-2299 -1310 c252 -69 559 -153 683 -186 124
-33 233 -64 242 -69 44 -23 49 -58 46 -284 -3 -185 -5 -217 -20 -231 -16 -16
-29 -14 -220 41 -112 31 -428 124 -703 206 -385 114 -504 153 -517 170 -16 19
-18 46 -18 232 0 182 2 213 17 229 9 10 20 18 24 18 4 0 214 -57 466 -126z
m1308 -98 c0 -13 -36 -41 -117 -92 -115 -71 -118 -72 -129 -52 -14 26 3 42
130 117 89 53 116 59 116 27z m-486 -783 c2 -1 -14 -30 -36 -64 l-41 -61 -51
87 c-28 48 -51 88 -51 90 0 3 172 -46 179 -52z m-151 -446 c2 -10 -3 -17 -12
-17 -10 0 -16 9 -16 21 0 24 23 21 28 -4z"/>
<path d="M1410 4390 c0 -43 22 -64 63 -58 18 2 23 11 25 42 4 44 -7 56 -55 56
-32 0 -33 -2 -33 -40z"/>
<path d="M1534 4344 c-152 -52 -102 -305 69 -353 42 -12 50 -11 90 8 53 26 77
70 77 145 0 132 -125 238 -236 200z m126 -73 c63 -46 84 -149 40 -196 -18 -19
-34 -25 -65 -25 -34 0 -47 6 -78 38 -65 67 -71 140 -14 188 35 29 73 28 117
-5z"/>
<path d="M1537 4252 c-38 -41 -5 -172 38 -156 8 4 31 -4 51 -15 34 -21 38 -21
55 -5 25 23 25 89 -1 131 -35 57 -111 81 -143 45z"/>
<path d="M1855 4286 c-3 -9 -7 -23 -10 -31 -6 -20 22 -45 50 -45 43 0 62 71
20 75 -11 2 -28 6 -37 10 -12 5 -19 2 -23 -9z"/>
<path d="M1961 4212 c-57 -29 -76 -64 -76 -141 0 -57 4 -74 27 -108 44 -67 90
-96 159 -101 57 -4 60 -3 98 34 46 47 60 102 41 170 -23 81 -118 163 -190 164
-14 0 -40 -8 -59 -18z m146 -74 c31 -28 62 -93 63 -130 0 -14 -12 -40 -26 -57
-20 -24 -34 -31 -62 -31 -112 0 -179 146 -105 226 21 23 30 26 65 21 22 -3 51
-16 65 -29z"/>
<path d="M1982 4124 c-18 -12 -22 -25 -22 -63 0 -54 31 -107 57 -97 8 3 27 -1
43 -9 41 -21 57 -19 76 10 24 37 11 91 -36 137 -42 42 -80 49 -118 22z"/>
<path d="M2510 3985 l-42 -35 25 -11 c29 -13 53 -52 62 -101 6 -34 10 -38 37
-38 21 0 41 11 65 35 32 32 35 39 30 78 -4 31 -15 50 -41 74 -47 44 -82 43
-136 -2z"/>
<path d="M1730 3995 c-17 -20 -7 -41 30 -60 33 -17 50 -13 50 11 0 18 -16 36
-47 52 -16 9 -23 8 -33 -3z"/>
<path d="M2344 3905 c-22 -23 -26 -32 -21 -67 10 -72 85 -125 139 -97 30 16
38 28 38 62 0 56 -44 112 -97 123 -26 5 -37 1 -59 -21z"/>
<path d="M2161 3858 c-12 -31 13 -59 51 -56 21 2 28 7 28 24 0 18 -9 26 -63
52 -4 2 -11 -7 -16 -20z"/>
<path d="M2670 3027 c-25 -45 -49 -88 -53 -97 -6 -12 34 -91 144 -286 83 -148
200 -354 259 -459 59 -104 192 -338 294 -519 l187 -329 -33 -34 c-18 -19 -140
-134 -271 -256 -188 -175 -245 -223 -272 -228 -50 -8 -233 -175 -254 -231 -15
-39 4 -93 48 -140 30 -32 45 -41 82 -45 29 -3 56 0 72 9 48 25 199 171 216
208 10 23 80 97 186 197 597 562 864 807 902 824 51 25 149 127 159 165 5 20
1 40 -17 73 -33 62 -69 86 -128 86 -44 0 -53 -4 -120 -64 -45 -40 -74 -74 -77
-91 -4 -18 -57 -74 -166 -176 -88 -82 -163 -150 -167 -151 -3 -1 -72 113 -152
255 -265 465 -779 1356 -787 1363 -4 5 -27 -29 -52 -74z"/>
</g>
</svg>
