<svg width="719" height="165" viewBox="0 0 719 165" fill="none" xmlns="http://www.w3.org/2000/svg">
<path d="M716 73.788C714.667 72.4547 711.067 70.0547 708.267 68.588C705.467 67.1214 692.534 59.9214 679.6 52.588C666.534 45.1214 654.934 39.1214 653.467 39.1214C652.134 39.1214 644.4 42.3214 636.267 46.3214C613.334 57.6547 600.4 57.9213 598 47.1213C597.467 44.4547 595.867 42.588 593.734 41.6547C591.867 40.988 544.667 40.4547 477.2 40.4547L364 40.4547L364 50.4547L364 60.4547L466.667 60.4547L569.334 60.4547L569.334 81.788L569.334 103.121L466.667 103.121L364 103.121L364 113.388L364 123.521L430.267 122.721C466.667 122.188 518.534 121.788 545.467 121.788L594.534 121.788L598.667 115.788L602.8 109.788L611.734 109.788C619.867 109.788 621.867 110.455 635.067 117.121C643.067 121.121 650.8 124.455 652.267 124.455C656 124.455 714.267 91.388 716.8 87.9214C719.467 84.0547 719.2 76.988 716 73.788Z" fill="white"/>
<path d="M347.333 5.52128C346.133 3.38794 343.6 1.38794 340.933 0.721275C338.667 0.0546084 321.867 -0.212059 303.733 0.18794C271.867 0.721272 270.8 0.854605 270.133 3.52127C269.733 5.12127 269.867 41.6546 270.267 84.7213L271.067 163.121L306.933 163.121L342.8 163.121L346 159.788L349.333 156.588L349.333 82.8546C349.2 20.5879 348.933 8.58794 347.333 5.52128Z" fill="white"/>
<path d="M251.067 65.5213L250.667 0.454633L237.6 0.321299C230.533 0.321299 201.6 0.321298 173.333 0.45463L122 0.587961L96 12.0546C81.7333 18.3213 68.6667 24.3213 67.0667 25.388C65.3333 26.588 63.6 29.788 62.6667 33.788C61.4667 38.4546 60.4 40.4546 58.2667 40.988C56.6667 41.388 44.4 41.788 31.2 41.788C8.8 41.788 6.8 42.0546 3.46666 44.588L-2.05152e-06 47.2546L-3.53771e-06 81.2546L-5.0239e-06 115.255L3.33333 118.455C6.53333 121.788 6.66666 121.788 33.7333 121.788L60.9333 121.788L62.8 128.855L64.6667 135.788L82.6667 144.721C92.5333 149.655 106.267 156.188 113.067 159.121L125.467 164.721L187.333 164.188C221.333 164.055 249.467 163.388 250 162.855C251.2 161.655 251.467 139.521 251.067 65.5213Z" fill="white"/>
</svg>
