<?xml version="1.0" standalone="no"?>
<!DOCTYPE svg PUBLIC "-//W3C//DTD SVG 20010904//EN"
 "http://www.w3.org/TR/2001/REC-SVG-20010904/DTD/svg10.dtd">
<svg version="1.0" xmlns="http://www.w3.org/2000/svg"
 width="405.270486pt" height="776.986329pt" viewBox="0 0 405.270486 776.986329"
 preserveAspectRatio="xMidYMid meet">
<metadata>Created by Svg.la</metadata>
<g transform="translate(-46.575345,792.284320) scale(0.100000,-0.100000)"
fill="#000000" stroke="none">
<path d="M2260 7733 c-7 -109 -15 -218 -19 -243 l-6 -44 -154 202 c-85 112
-156 201 -158 198 -3 -2 16 -96 42 -208 41 -180 76 -351 72 -354 -1 -1 -24
-14 -52 -30 -81 -47 -167 -141 -213 -236 -69 -141 -95 -280 -67 -361 12 -35
14 -61 9 -90 -4 -23 -8 -78 -10 -122 -1 -44 -5 -98 -9 -120 -5 -33 -3 -45 15
-68 13 -16 33 -32 45 -37 16 -6 30 -31 54 -97 17 -48 32 -99 33 -113 2 -35
-152 -373 -227 -497 -19 -32 -35 -65 -35 -74 0 -8 25 -76 56 -150 87 -209 113
-324 84 -369 -8 -12 -10 -11 -10 5 0 43 -32 140 -115 353 l-85 219 46 48 c58
59 92 133 100 213 5 47 11 63 25 67 9 3 33 23 53 45 80 89 72 218 -17 297 -35
31 -90 53 -133 53 -30 0 -105 -28 -126 -47 -12 -11 -21 -13 -30 -6 -7 6 -30
16 -50 22 -44 14 -106 1 -132 -28 -9 -10 -31 -22 -49 -25 -17 -4 -44 -18 -59
-33 -15 -15 -38 -28 -50 -30 -30 -5 -64 -28 -84 -58 -9 -14 -22 -25 -29 -25
-25 0 -72 -49 -83 -88 -7 -22 -12 -64 -12 -94 l0 -54 -82 -49 c-107 -63 -116
-72 -124 -109 -4 -23 -17 -38 -49 -58 -32 -19 -46 -36 -54 -62 -5 -20 -21 -50
-34 -66 -50 -59 -70 -134 -71 -260 -1 -127 13 -193 65 -312 71 -162 158 -288
385 -553 224 -264 337 -432 398 -597 l25 -67 -98 -98 c-250 -250 -261 -334
-113 -827 35 -116 38 -132 26 -155 -21 -39 -17 -82 17 -188 28 -87 30 -98 15
-108 -21 -16 -20 -44 1 -52 10 -4 21 -11 25 -17 11 -16 9 -76 -2 -76 -18 0
-10 -39 10 -50 24 -13 28 -65 5 -74 -18 -7 -20 -43 -3 -48 25 -9 -7 -55 -42
-62 -28 -5 -31 -9 -26 -30 7 -29 -17 -52 -51 -48 -33 5 -57 -16 -42 -35 7 -7
10 -15 8 -17 -36 -35 -150 -106 -213 -132 -107 -45 -148 -80 -184 -157 -16
-34 -35 -73 -41 -87 -7 -14 -18 -36 -26 -50 -9 -15 -15 -52 -15 -91 0 -80 21
-118 94 -166 143 -97 352 -98 578 -4 103 43 172 93 234 170 65 81 95 98 142
81 41 -15 82 -8 165 28 162 70 183 96 181 223 -1 53 -7 98 -17 120 -8 18 -20
61 -26 94 -6 33 -25 88 -41 123 -28 59 -30 73 -30 176 0 61 5 183 11 271 8
124 8 172 -2 213 -7 28 -10 54 -7 57 2 3 33 -31 67 -75 84 -108 282 -312 412
-424 296 -254 707 -533 1197 -811 174 -99 192 -116 157 -145 -11 -9 -14 -23
-9 -44 4 -23 0 -39 -15 -58 -12 -14 -21 -33 -21 -41 0 -29 -84 -152 -158 -231
-79 -86 -105 -127 -123 -202 -6 -27 -18 -57 -27 -66 -19 -23 -28 -136 -13
-181 27 -81 146 -149 298 -169 112 -15 224 6 350 68 163 78 258 190 312 367
27 89 32 97 72 116 41 20 137 145 145 190 9 48 -12 186 -35 229 -11 21 -25 55
-31 77 -22 77 -44 121 -98 192 -47 63 -60 93 -107 235 -29 90 -61 192 -71 228
-26 97 -62 169 -95 189 -20 12 -44 47 -72 102 -57 114 -141 223 -266 346
l-104 102 16 177 c10 98 19 179 21 181 2 2 23 6 47 8 63 7 112 44 157 122 51
87 123 250 147 331 17 57 20 62 46 62 42 0 78 17 89 42 80 193 241 646 295
831 59 202 48 281 -82 581 -96 221 -252 555 -356 761 -85 168 -96 185 -171
261 -60 60 -112 98 -201 151 -219 129 -476 255 -491 241 -3 -4 4 -37 15 -75
39 -134 96 -425 107 -553 8 -82 1 -87 -94 -64 -97 22 -265 55 -268 52 -1 -2
41 -53 93 -113 104 -120 147 -179 141 -193 -1 -6 -46 -43 -98 -83 -143 -110
-327 -268 -404 -348 l-69 -72 7 -56 c8 -68 139 -463 277 -836 84 -229 100
-280 88 -288 -17 -11 -30 -7 -41 12 -15 27 -160 434 -259 724 -108 319 -130
413 -110 463 24 57 343 344 501 452 l61 41 -30 37 c-16 20 -70 82 -120 137
-102 112 -146 169 -137 183 3 5 67 -4 143 -20 304 -62 276 -62 268 0 -23 164
-69 422 -91 506 -31 123 -63 184 -129 245 -44 40 -53 54 -60 96 -10 64 -9 95
2 106 5 5 36 14 68 20 33 7 64 15 68 19 4 4 -24 28 -63 53 -38 26 -70 51 -70
55 0 4 30 24 68 44 37 20 76 43 87 51 20 16 24 14 -147 63 -10 3 -18 8 -18 12
0 4 39 52 87 106 l86 99 -50 -7 c-27 -3 -74 -13 -104 -20 -30 -8 -56 -13 -57
-11 -2 2 20 55 48 117 84 182 84 181 63 169 -10 -5 -61 -39 -113 -75 -53 -36
-96 -60 -98 -53 -1 7 11 95 27 197 25 163 29 205 18 189 -56 -80 -212 -278
-213 -272 -2 4 -8 82 -14 173 -20 278 -13 273 -98 70 -40 -96 -76 -180 -80
-187 -4 -7 -39 76 -81 195 -40 114 -77 210 -80 215 -4 4 -13 -82 -21 -190z
m385 -468 c57 -28 146 -121 178 -187 36 -74 57 -173 57 -275 l0 -83 -57 0
c-67 0 -107 -20 -147 -73 -52 -68 -18 -107 40 -46 32 34 74 59 99 59 9 0 27
-11 40 -25 53 -52 20 -182 -68 -262 -44 -41 -100 -62 -131 -50 -21 8 -42 -21
-55 -77 -31 -125 -184 -277 -380 -376 -71 -35 -144 -60 -179 -60 -37 0 -86 28
-105 59 -21 36 -22 62 -2 55 26 -10 61 5 73 31 38 82 -25 191 -121 212 -36 7
-42 19 -27 49 18 32 -1 55 -39 48 -18 -4 -35 1 -51 14 l-25 20 50 145 49 145
-36 40 c-21 24 -40 56 -44 78 -9 50 26 189 71 281 36 74 123 171 183 205 l30
18 19 -103 18 -102 42 56 c73 98 172 174 278 212 65 23 184 19 240 -8z m99
-1242 l-76 -229 -113 -47 c-63 -26 -124 -47 -136 -47 -29 0 -69 37 -69 64 0
18 2 18 28 -7 57 -54 73 -22 31 60 l-29 58 32 25 c68 52 181 167 206 210 15
25 34 67 43 94 16 46 20 50 62 61 25 6 56 19 69 27 22 15 23 15 26 -13 2 -16
-30 -126 -74 -256z m614 144 c4 -34 -13 -57 -42 -57 -28 0 -46 18 -46 45 0 30
20 46 55 43 25 -2 31 -8 33 -31z m-1951 -69 c25 -24 67 -90 77 -124 7 -22 -14
-54 -35 -54 -5 0 -24 21 -42 47 -17 26 -51 68 -75 94 -40 43 -42 48 -25 58 25
15 72 5 100 -21z m2101 -10 c7 -7 12 -21 12 -33 0 -46 -57 -62 -84 -24 -31 45
33 96 72 57z m-2221 -60 c22 -24 52 -61 67 -83 l26 -39 -27 -28 c-15 -15 -30
-28 -33 -28 -3 0 -16 20 -27 44 -12 24 -43 69 -68 101 -37 44 -44 59 -34 66
28 18 56 8 96 -33z m-149 -32 c51 -26 142 -177 142 -234 0 -15 -5 -33 -12 -40
-17 -17 -48 -15 -48 4 0 33 -61 141 -110 197 -43 47 -50 60 -40 72 16 19 33
19 68 1z m2530 2 c19 -19 15 -66 -7 -78 -41 -21 -81 0 -81 44 0 29 18 46 50
46 14 0 31 -5 38 -12z m-2605 -111 c46 -46 107 -156 107 -193 0 -20 -17 -34
-41 -34 -5 0 -29 31 -53 68 -49 74 -88 104 -108 84 -22 -22 -30 -12 -23 31 9
54 30 87 55 87 12 0 40 -19 63 -43z m515 -3 c18 -13 22 -24 22 -74 0 -128 -81
-247 -208 -306 -34 -16 -60 -33 -59 -39 2 -5 22 -11 45 -13 23 -2 42 -7 42
-12 0 -5 -15 -28 -33 -52 -38 -51 -118 -95 -196 -107 -57 -9 -54 -11 -75 57
-7 20 -4 22 33 22 23 0 41 4 41 10 0 5 -22 21 -49 34 -44 23 -141 116 -141
137 0 16 98 59 134 59 21 0 50 10 73 26 l38 25 19 -46 c24 -57 41 -53 41 11 0
37 5 54 21 70 19 19 26 21 62 11 71 -19 175 26 158 69 -5 12 -12 14 -34 8 -15
-4 -49 -8 -77 -9 -47 0 -50 2 -53 26 -4 30 25 55 100 88 54 24 68 25 96 5z
m2232 -1 c0 -5 -16 -19 -35 -32 -70 -47 -162 -157 -204 -243 -38 -76 -50 -120
-78 -283 l-7 -40 -6 55 c-23 193 98 457 242 529 43 21 88 28 88 14z m-662 -31
c42 -53 -37 -113 -83 -62 -22 25 -13 68 18 79 26 10 47 4 65 -17z m-1145 -111
c15 -5 8 -14 -42 -50 -33 -24 -62 -49 -65 -56 -10 -26 116 -192 293 -385 112
-122 156 -178 147 -187 -3 -4 -29 15 -56 42 -27 27 -52 46 -56 42 -3 -3 -1
-28 5 -54 26 -113 91 -486 102 -583 13 -116 7 -253 -17 -370 -18 -86 -23 -95
-47 -78 -16 12 -16 20 4 118 25 122 29 279 10 390 -13 79 -108 589 -116 627
-3 13 -56 78 -117 145 -110 122 -208 257 -208 290 0 20 108 118 129 117 9 0
24 -4 34 -8z m47 -111 c11 -11 20 -24 20 -30 0 -12 -37 -50 -48 -50 -18 0 -52
33 -52 50 0 17 34 50 52 50 5 0 17 -9 28 -20z m-1086 -145 c14 -22 15 -28 2
-47 -35 -56 -39 -100 -16 -184 24 -90 118 -320 191 -470 86 -176 170 -244 303
-244 141 0 251 85 481 373 l79 99 -13 46 c-8 26 -20 79 -27 117 -32 170 -14
127 89 -210 103 -338 117 -387 117 -412 0 -11 -22 -64 -49 -119 -62 -125 -67
-143 -46 -184 9 -17 15 -33 13 -35 -2 -1 -93 -71 -203 -155 -218 -167 -443
-348 -464 -374 -17 -20 -31 -21 -31 -2 0 31 -123 257 -197 363 -43 62 -147
192 -231 290 -237 276 -332 422 -398 608 -25 70 -28 95 -29 195 0 99 3 122 23
165 26 57 68 105 91 105 9 0 31 9 49 20 25 15 42 19 71 14 33 -5 49 -1 103 30
34 20 66 36 69 36 4 0 14 -11 23 -25z m2014 -7 c34 -34 -14 -102 -56 -79 -28
15 -35 40 -17 67 17 26 53 32 73 12z m627 -459 c26 -39 89 -146 142 -238 52
-91 106 -178 121 -194 33 -35 78 -47 174 -47 83 0 107 -12 56 -29 -65 -20
-105 -22 -166 -8 -56 13 -62 13 -66 -2 -75 -262 -151 -502 -192 -608 -51 -133
-62 -155 -74 -148 -11 7 -3 35 75 280 35 110 84 272 110 359 l45 159 -89 156
c-98 171 -151 275 -181 352 -26 65 -13 56 45 -32z m-312 -271 c28 -40 94 -129
145 -197 91 -123 92 -126 73 -144 -10 -11 -23 -17 -28 -14 -6 4 -74 94 -152
202 -134 184 -142 197 -125 210 11 8 22 15 27 15 4 0 31 -32 60 -72z m343
-553 c-103 -83 -518 -255 -618 -255 -50 0 -29 15 54 38 114 32 313 112 448
181 123 63 164 76 116 36z m-1029 -197 c146 -71 138 -67 132 -73 -9 -8 -110
23 -165 51 -46 23 -119 84 -101 84 3 0 64 -28 134 -62z m-18 -355 c98 -105
156 -174 162 -195 12 -43 80 -379 119 -588 58 -316 101 -504 129 -564 28 -61
92 -141 233 -292 40 -44 100 -110 132 -147 56 -65 59 -71 57 -116 -2 -43 4
-56 58 -137 34 -49 77 -109 96 -134 51 -66 75 -103 75 -119 0 -8 8 -23 17 -33
35 -39 -407 226 -697 417 -338 223 -602 435 -803 645 -110 115 -284 328 -304
373 -6 12 -20 72 -32 132 -12 61 -24 120 -27 131 -5 18 7 29 79 73 100 60 442
231 642 321 77 35 144 67 149 71 6 5 -30 50 -85 106 -96 98 -169 195 -169 222
0 9 3 11 8 6 5 -6 77 -83 161 -172z m1108 -23 c45 -40 113 -73 203 -100 41
-13 76 -24 78 -25 1 -1 -11 -42 -27 -92 -36 -109 -125 -292 -164 -336 l-28
-32 25 39 c41 65 11 78 -45 20 -50 -52 -116 -93 -139 -87 -11 3 -20 8 -20 10
0 3 29 32 65 65 62 57 80 88 53 88 -7 0 -52 -27 -100 -60 -85 -59 -123 -71
-146 -48 -20 20 -14 32 31 60 62 39 91 72 75 85 -10 8 -36 -3 -98 -38 -46 -27
-89 -49 -95 -49 -5 0 -25 9 -42 20 -29 17 -33 25 -33 61 0 22 5 49 10 60 14
25 40 25 40 0 0 -57 60 -9 105 83 55 113 25 156 -44 62 -58 -78 -110 -86 -97
-15 10 51 76 157 114 181 33 20 199 76 231 77 7 1 29 -13 48 -29z m-1978 -657
c-24 -29 -91 -53 -149 -53 -71 0 -99 16 -44 25 21 3 71 14 109 25 93 24 101
25 84 3z m1921 -490 c0 -61 -47 -150 -91 -174 -31 -16 -34 -3 -7 29 14 17 38
60 54 96 28 65 44 83 44 49z m-1889 -177 c-43 -46 -116 -69 -228 -74 -79 -3
-103 -7 -103 -18 0 -25 -37 -16 -44 11 -10 40 1 48 55 42 77 -9 221 10 281 37
67 31 66 31 39 2z m-463 -19 c2 -19 -1 -27 -12 -27 -11 0 -16 10 -16 31 0 38
24 35 28 -4z m42 -137 c22 -11 47 -20 57 -20 37 0 62 -41 43 -70 -8 -12 -11
-12 -27 1 -10 9 -39 23 -64 33 -39 14 -48 22 -51 46 -3 17 -3 30 -1 30 2 0 21
-9 43 -20z m118 -203 c4 -35 -22 -41 -64 -12 -19 13 -44 27 -55 30 -13 4 -19
16 -19 35 l0 29 68 -29 c54 -23 68 -33 70 -53z m-94 -82 c57 -36 63 -55 25
-75 -25 -14 -39 -12 -39 5 0 8 -15 22 -32 31 -18 9 -34 18 -36 19 -3 3 20 55
24 55 2 0 28 -16 58 -35z m429 6 c-7 -26 -31 -47 -75 -66 -51 -21 -58 -2 -11
28 21 13 44 32 52 41 19 22 40 21 34 -3z m2307 -91 c-20 -69 -81 -140 -160
-184 -35 -20 -44 -31 -45 -52 0 -15 -5 -29 -12 -31 -11 -4 -43 45 -43 66 0 6
25 22 55 37 63 31 154 109 185 159 27 43 31 44 20 5z m-2813 -27 c57 -39 66
-65 30 -87 -14 -9 -23 -5 -48 22 -17 18 -42 40 -55 49 -23 15 -24 17 -8 34 10
11 19 19 22 19 3 0 30 -17 59 -37z m-131 -55 c9 -14 -40 -58 -67 -58 -29 0
-23 22 14 48 36 25 43 27 53 10z m89 -77 c3 -5 0 -21 -7 -35 -10 -23 -8 -29
11 -50 19 -21 20 -24 6 -30 -31 -11 -54 -6 -65 15 -23 43 30 139 55 100z m655
-50 c0 -28 -110 -85 -252 -131 -69 -22 -120 -55 -234 -152 -122 -104 -280
-163 -434 -163 -111 1 -190 22 -244 67 -46 37 -47 56 -2 29 66 -41 144 -61
239 -61 162 0 320 61 446 171 114 100 144 118 274 166 67 25 137 53 157 63 40
22 50 24 50 11z m1780 -41 c19 -27 20 -31 5 -36 -18 -7 -65 31 -65 53 0 24 38
13 60 -17z m279 -89 c17 -31 -8 -41 -118 -48 -74 -4 -104 -3 -116 7 -8 7 -15
16 -15 20 0 4 42 11 93 15 51 3 100 11 108 16 22 14 37 11 48 -10z m49 -113
c29 -29 -1 -84 -32 -59 -7 6 -55 12 -106 13 -81 3 -95 6 -98 21 -3 15 6 17 70
18 40 1 84 5 98 9 37 12 55 11 68 -2z m-83 -128 c39 -7 80 -14 91 -16 32 -6
39 -35 14 -56 -21 -17 -23 -17 -48 2 -16 12 -59 24 -104 31 -73 11 -78 13 -78
36 0 21 4 24 28 19 15 -2 59 -10 97 -16z m1 -131 c105 -34 120 -45 98 -77 -15
-22 -15 -22 -42 -3 -26 19 -79 38 -170 61 -33 8 -42 15 -38 26 3 9 6 20 6 25
0 11 26 5 146 -32z m510 -98 c-9 -17 -44 -63 -78 -103 -59 -71 -75 -99 -133
-242 -48 -117 -119 -191 -243 -251 -99 -49 -149 -60 -272 -59 -107 0 -120 2
-181 31 -62 28 -87 48 -77 59 3 2 31 -8 63 -22 71 -33 222 -44 313 -24 100 21
200 76 273 149 56 57 71 80 109 171 24 58 54 122 67 142 25 41 164 190 170
184 3 -2 -3 -18 -11 -35z m-658 -3 c4 -22 -55 -88 -79 -88 -18 0 -18 1 0 33
10 17 23 42 30 55 14 26 44 26 49 0z m166 -44 c10 -4 16 -18 16 -40 0 -23 6
-38 19 -46 25 -15 10 -38 -25 -38 -30 0 -54 35 -54 81 0 47 9 56 44 43z"/>
</g>
</svg>
