<?xml version="1.0" standalone="no"?>
<!DOCTYPE svg PUBLIC "-//W3C//DTD SVG 20010904//EN"
 "http://www.w3.org/TR/2001/REC-SVG-20010904/DTD/svg10.dtd">
<svg version="1.0" xmlns="http://www.w3.org/2000/svg"
 width="320.924239pt" height="734.882790pt" viewBox="0 0 320.924239 734.882790"
 preserveAspectRatio="xMidYMid meet">
<metadata>Created by Svg.la</metadata>
<g transform="translate(-75.009720,762.993819) scale(0.100000,-0.100000)"
fill="#000000" stroke="none">
<path d="M1854 7606 c-87 -28 -169 -81 -230 -149 -54 -60 -78 -108 -94 -193
-12 -61 -10 -246 3 -274 5 -10 0 -18 -15 -25 -65 -29 -78 -183 -23 -284 30
-54 69 -94 122 -122 35 -19 41 -41 33 -124 l-5 -59 -160 -89 c-429 -238 -557
-363 -638 -622 -41 -131 -78 -391 -93 -661 -7 -108 -6 -112 15 -123 20 -11 21
-16 15 -119 -3 -59 -1 -167 4 -240 12 -152 31 -206 102 -285 45 -51 191 -152
317 -219 43 -23 79 -42 81 -43 1 -1 -2 -42 -8 -91 -19 -176 -32 -478 -39 -984
l-8 -515 -36 -210 c-39 -230 -60 -386 -77 -570 -6 -66 -20 -203 -31 -304 -16
-150 -18 -190 -8 -220 9 -24 12 -97 10 -221 -1 -102 3 -210 9 -240 17 -90 63
-171 134 -238 87 -81 150 -105 266 -100 99 4 137 24 171 91 19 36 21 53 16
132 -3 49 -20 151 -37 225 -38 165 -40 210 -11 241 11 12 23 39 26 58 27 168
90 438 226 981 134 531 197 809 199 873 1 7 10 -13 20 -43 11 -30 40 -80 65
-112 24 -31 58 -84 74 -116 36 -71 77 -108 138 -125 48 -13 57 -23 67 -79 8
-42 -13 -351 -50 -748 -28 -308 -29 -334 -10 -349 11 -10 11 -18 -1 -54 -8
-23 -17 -76 -20 -119 -10 -135 34 -190 204 -253 83 -32 88 -32 119 -17 l33 15
88 -59 c111 -75 198 -110 310 -125 189 -25 326 34 325 139 -1 73 -50 143 -152
218 -253 185 -281 208 -274 223 4 9 11 57 16 106 4 50 26 236 48 415 61 503
63 535 57 759 -5 202 -4 207 20 266 13 33 74 206 135 385 61 179 121 348 133
375 30 67 74 124 128 169 44 36 47 37 88 26 23 -6 70 -12 105 -12 89 0 143 32
180 107 23 49 26 64 22 123 -7 86 -64 229 -132 331 -51 76 -160 194 -231 249
l-40 30 30 11 c89 33 155 96 181 174 45 134 -8 340 -120 467 -70 78 -126 167
-126 199 0 40 -15 69 -140 271 l-102 165 12 70 c6 38 17 76 25 85 11 12 13 51
11 180 -3 178 -8 207 -58 289 -100 165 -319 180 -466 33 -58 -58 -125 -74
-194 -47 -73 27 -80 38 -61 110 21 82 30 520 13 608 -37 190 -184 341 -385
392 -91 23 -235 19 -321 -9z m621 -500 c8 -49 15 -118 15 -155 0 -99 -31 -344
-47 -373 -2 -4 -16 -2 -32 3 -37 13 -107 -5 -121 -31 -20 -38 -12 -80 23 -113
18 -18 41 -37 52 -43 19 -11 19 -13 -10 -43 -72 -77 -208 -109 -321 -76 -86
25 -168 71 -215 122 -39 43 -89 137 -103 196 -5 20 -17 33 -44 44 -67 27 -112
86 -127 166 -17 88 26 120 95 72 49 -34 72 -27 99 28 21 44 41 179 41 284 0
34 4 64 8 67 4 2 45 -9 91 -25 195 -69 429 -52 513 38 l23 25 22 -49 c12 -26
29 -88 38 -137z m655 -565 c33 -20 52 -42 75 -85 26 -51 30 -71 33 -160 2 -56
0 -117 -5 -136 -9 -32 -12 -35 -42 -32 -18 2 -50 9 -73 15 l-40 12 -1 100 c-2
115 -16 147 -72 171 -54 22 -92 17 -155 -22 -105 -65 -174 -78 -250 -48 -43
17 -45 21 -30 44 7 11 29 15 82 15 78 1 178 35 178 61 0 20 65 65 123 86 64
22 116 16 177 -21z m-1350 -222 c80 -77 153 -119 239 -139 75 -18 178 -16 224
3 35 15 37 15 37 -4 0 -33 -73 -96 -131 -113 -66 -20 -100 -20 -173 -1 -133
35 -233 141 -265 284 -5 23 -8 41 -7 41 0 0 35 -32 76 -71z m1180 41 c10 -5
24 -26 30 -45 12 -36 5 -95 -11 -95 -5 0 -9 -9 -9 -20 0 -11 -2 -20 -5 -20 -2
0 -23 20 -45 44 -23 25 -54 48 -71 51 -16 4 -29 10 -29 13 1 6 110 82 118 82
2 0 12 -4 22 -10z m165 -294 c106 -28 101 0 45 -256 -35 -162 -59 -291 -76
-415 -9 -68 -17 -80 -67 -104 -57 -27 -75 -27 -83 4 -8 33 19 75 49 75 28 0
47 -18 40 -36 -6 -17 9 -18 25 -2 14 14 16 67 3 87 -5 8 -32 16 -64 19 -49 4
-58 1 -81 -21 -34 -34 -51 -101 -38 -151 9 -34 8 -42 -9 -55 -10 -9 -32 -59
-49 -111 -33 -104 -260 -1003 -260 -1032 0 -13 -8 -18 -25 -18 -16 0 -25 6
-25 16 0 9 45 194 101 413 55 218 145 574 200 791 55 217 120 460 144 540 24
80 49 175 55 213 7 37 15 67 19 67 3 -1 47 -11 96 -24z m-1723 -607 c17 -61
21 -114 25 -297 4 -156 2 -227 -6 -235 -6 -6 -13 -9 -15 -6 -3 3 -10 122 -16
264 -6 143 -14 284 -19 313 -11 74 6 52 31 -39z m2047 -137 c10 11 21 4 57
-37 24 -27 44 -53 44 -57 0 -5 -12 -8 -26 -8 -32 0 -141 109 -121 122 7 4 16
-1 22 -13 9 -15 13 -17 24 -7z m-111 -62 c44 -27 70 -89 82 -192 20 -175 11
-247 -37 -290 -24 -22 -279 -110 -307 -106 -26 4 -32 31 -12 50 8 8 60 29 115
47 66 21 113 42 134 61 56 50 24 51 -138 4 -170 -50 -217 -56 -242 -31 -16 15
-16 18 1 36 17 18 58 32 211 67 89 20 195 77 195 104 0 28 -13 26 -195 -25
-157 -44 -228 -55 -240 -35 -11 18 7 57 30 68 13 6 68 23 122 37 129 34 255
75 271 88 17 14 15 35 -6 46 -22 12 -122 -11 -284 -64 -65 -22 -120 -36 -123
-33 -3 3 1 22 9 41 17 43 53 62 186 105 156 49 179 51 228 22z m270 -140 c42
-26 82 -110 89 -188 13 -138 -60 -232 -179 -232 -66 0 -74 10 -45 54 33 48 40
110 32 261 l-7 125 38 0 c22 0 54 -9 72 -20z m-2302 -342 c-7 -114 -9 -124
-32 -141 -13 -10 -24 -25 -24 -33 0 -38 499 -428 650 -508 72 -38 118 -44 270
-31 78 7 93 5 182 -23 153 -48 328 -150 328 -191 0 -30 -29 -54 -59 -47 -14 2
-78 34 -141 71 -119 68 -186 93 -202 77 -19 -19 9 -42 164 -128 88 -49 167
-99 175 -111 22 -33 13 -57 -24 -61 -29 -3 -81 21 -327 152 -34 18 -53 23 -60
16 -23 -23 115 -126 281 -209 53 -26 83 -53 83 -75 0 -14 -34 -36 -56 -36 -27
0 -117 43 -272 131 -139 79 -149 79 -78 -4 24 -29 71 -67 103 -86 113 -66 133
-81 133 -100 0 -10 -6 -24 -14 -31 -20 -16 -64 5 -245 114 -166 101 -280 186
-333 249 -30 36 -74 63 -270 164 -465 241 -590 326 -640 441 -28 62 -42 230
-31 372 l8 114 40 9 c54 12 201 24 309 26 l89 1 -7 -122z m1584 -47 c23 -13
27 -20 18 -29 -18 -18 -56 -14 -78 8 -23 23 -26 66 -8 105 12 27 12 27 25 -20
10 -32 23 -51 43 -64z m-15 -136 c28 -27 33 -76 13 -120 -22 -49 -101 -44
-127 9 -19 40 0 100 37 120 38 21 49 20 77 -9z m582 -30 c190 -94 398 -381
410 -565 7 -110 -39 -157 -145 -147 -183 19 -429 244 -529 488 -80 192 -45
275 115 266 59 -3 86 -11 149 -42z m-385 -40 c-2 -36 1 -87 7 -115 10 -47 9
-51 -26 -110 -20 -34 -58 -112 -84 -173 -27 -62 -49 -108 -49 -104 0 5 23 104
51 220 27 117 55 239 61 272 14 82 15 85 30 80 9 -4 12 -24 10 -70z m-119 -62
c-5 -33 -51 -202 -114 -417 l-20 -68 -24 22 c-48 45 -63 -19 -20 -82 31 -46
31 -48 1 -48 -16 0 -27 7 -31 19 -3 11 -31 43 -62 71 l-56 51 12 70 c7 38 16
69 20 69 5 0 16 -9 26 -20 13 -14 31 -20 61 -20 115 0 177 168 94 252 l-28 28
28 0 c31 0 94 55 105 91 10 31 14 22 8 -18z m-216 -61 c-24 -4 -29 1 -21 21 5
14 7 14 22 -1 16 -16 16 -17 -1 -20z m57 -87 c22 -22 30 -78 15 -106 -16 -32
-28 -39 -66 -39 -39 0 -63 30 -63 80 0 51 24 80 65 80 18 0 40 -7 49 -15z
m369 -106 c70 -124 191 -258 311 -345 l29 -21 -42 -53 c-61 -78 -130 -227
-210 -460 -113 -324 -122 -348 -136 -360 -25 -20 -117 -23 -185 -6 -79 20
-141 56 -171 97 l-22 31 24 -8 c13 -5 42 -8 64 -8 123 4 172 95 241 454 25
126 -12 225 -96 260 -21 9 -30 19 -30 35 0 60 162 435 188 435 4 0 20 -23 35
-51z m-383 -420 c0 -5 -21 -83 -46 -174 l-46 -164 -17 32 c-9 18 -23 42 -31
54 -13 21 -12 24 23 55 39 34 49 73 33 124 -4 15 2 30 26 56 28 32 58 41 58
17z m182 -78 c30 -27 33 -34 36 -102 3 -57 -3 -103 -27 -204 -48 -199 -89
-265 -163 -265 -82 0 -114 125 -52 200 31 36 46 37 103 5 29 -17 48 -22 54
-16 15 15 -14 53 -57 76 -42 23 -43 29 -16 70 11 17 20 42 20 57 0 28 -25 49
-47 41 -7 -3 -16 2 -19 10 -6 17 41 137 59 149 27 17 77 8 109 -21z m-352
-311 c0 -50 -15 -88 -47 -122 -47 -49 -104 -47 -132 5 -13 24 -11 27 23 57 20
18 36 41 36 51 0 15 7 19 40 19 29 0 43 5 52 19 17 28 28 16 28 -29z m-357
-137 c-12 -43 -24 -90 -27 -105 -6 -28 -20 -34 -43 -20 -12 7 -7 32 38 206
l11 39 20 -21 21 -21 -20 -78z m106 -6 c13 -34 68 -77 99 -78 75 -3 122 18
167 74 l26 32 -27 -60 c-48 -110 -65 -169 -65 -233 -1 -75 17 -102 66 -102 25
0 41 9 68 40 20 21 39 35 42 29 24 -38 204 -93 288 -88 32 2 57 0 57 -4 0 -5
-14 -42 -31 -83 -62 -149 -148 -234 -277 -274 -71 -22 -172 -26 -221 -9 -37
13 -38 19 -10 45 65 59 78 169 29 247 -51 81 -130 113 -207 85 l-42 -15 -18
51 c-26 75 -23 192 6 289 13 42 28 77 33 77 5 0 12 -11 17 -23z m-151 -271 c7
-42 21 -100 32 -127 17 -47 18 -79 0 -79 -22 0 -90 214 -90 286 0 25 1 26 22
12 18 -12 26 -32 36 -92z m266 -187 c81 -64 73 -179 -14 -224 -42 -22 -66 -19
-101 13 -28 25 -33 37 -37 88 l-4 59 21 -22 c51 -54 81 -11 40 56 -16 27 -18
36 -7 42 24 15 75 9 102 -12z m481 -1579 c-9 -15 -104 -40 -149 -39 -23 0 -59
6 -81 14 -40 13 -39 13 50 15 50 1 104 6 120 10 44 11 67 11 60 0z m-1480
-303 c13 -2 6 -8 -22 -16 -44 -14 -98 -9 -127 12 -15 11 -5 12 56 9 40 -1 82
-4 93 -5z"/>
<path d="M2982 5704 c-33 -23 -52 -67 -52 -122 0 -54 23 -84 73 -96 41 -10 97
25 97 60 0 2 -20 4 -45 4 -55 0 -74 24 -55 70 16 39 38 45 66 19 l22 -21 11
20 c17 31 13 60 -8 72 -29 15 -83 12 -109 -6z"/>
<path d="M3281 4471 c-43 -11 -47 -53 -16 -133 73 -186 252 -368 387 -393 88
-17 103 84 33 213 -64 116 -152 210 -252 268 -56 33 -121 52 -152 45z"/>
</g>
</svg>
