<?xml version="1.0" standalone="no"?>
<!DOCTYPE svg PUBLIC "-//W3C//DTD SVG 20010904//EN"
 "http://www.w3.org/TR/2001/REC-SVG-20010904/DTD/svg10.dtd">
<svg version="1.0" xmlns="http://www.w3.org/2000/svg"
 width="391.437359pt" height="702.569653pt" viewBox="0 0 391.437359 702.569653"
 preserveAspectRatio="xMidYMid meet">
<metadata>Created by Svg.la</metadata>
<g transform="translate(-78.144399,738.402375) scale(0.100000,-0.100000)"
fill="#000000" stroke="none">
<path d="M1798 7379 c-279 -44 -436 -271 -399 -576 10 -82 10 -83 -16 -109
-24 -24 -25 -30 -21 -107 4 -63 11 -94 32 -135 26 -51 98 -132 118 -132 19 0
4 -127 -17 -151 -11 -11 -92 -56 -180 -99 -88 -43 -195 -101 -238 -129 -106
-69 -207 -172 -241 -246 -86 -181 -69 -511 45 -878 25 -82 35 -101 58 -115 20
-11 42 -44 71 -102 l42 -85 -13 -255 c-15 -311 -15 -355 3 -383 11 -17 12 -39
5 -107 -5 -47 -10 -355 -12 -685 l-3 -600 -40 -200 c-53 -261 -68 -355 -106
-660 -29 -225 -39 -378 -28 -409 9 -25 10 -46 3 -77 -25 -107 -6 -265 37 -313
11 -11 23 -43 27 -71 23 -164 141 -325 273 -375 122 -46 253 -16 301 70 31 56
29 174 -8 310 -16 58 -41 151 -56 208 l-27 102 31 29 c17 16 31 35 31 43 0 90
74 446 195 938 81 332 255 1105 255 1135 0 3 4 5 9 5 10 0 27 -43 170 -416
l81 -212 -14 -133 c-25 -228 -37 -444 -38 -684 -1 -126 0 -241 1 -255 1 -14
-1 -68 -4 -120 -6 -84 -4 -99 14 -127 25 -39 95 -88 172 -119 69 -28 96 -30
120 -8 17 15 23 13 94 -35 160 -107 295 -155 430 -154 215 1 301 140 172 280
-23 25 -103 92 -177 149 -205 155 -202 152 -191 193 6 19 10 104 10 190 0 149
20 432 41 591 21 152 23 300 6 430 -43 329 -107 626 -219 1017 -33 113 -41
156 -34 169 12 21 12 70 -1 314 -9 170 -2 703 10 715 3 3 35 -36 71 -87 116
-163 167 -212 271 -264 138 -68 226 -63 289 17 l24 31 29 -34 c16 -19 155
-176 309 -349 154 -173 405 -456 557 -630 153 -174 293 -327 313 -339 141 -87
288 30 256 205 -15 85 -79 209 -148 285 -64 72 -798 862 -907 977 l-69 73 71
0 c219 0 445 171 572 433 79 165 103 369 60 510 -28 89 -93 183 -160 230 -164
114 -403 87 -594 -68 -57 -47 -59 -48 -114 -42 -88 9 -182 64 -592 345 l-375
257 1 50 c9 387 5 410 -85 531 -101 136 -183 197 -309 229 -71 18 -182 24
-244 14z m548 -494 c30 -105 7 -416 -44 -590 -8 -27 -9 -28 -15 -9 -11 31 -60
74 -102 88 -102 35 -212 -68 -191 -179 9 -45 71 -110 116 -120 32 -7 32 -7 13
-27 -106 -105 -414 51 -517 263 -27 56 -45 80 -74 98 -94 57 -145 217 -80 252
17 9 26 5 62 -30 23 -23 51 -41 63 -41 61 0 113 98 121 230 3 47 9 88 14 91 6
4 44 -3 87 -14 101 -26 264 -29 341 -5 30 10 80 32 110 51 65 39 68 37 96 -58z
m435 -653 c383 -266 476 -324 554 -344 28 -7 52 -13 54 -14 1 -2 -9 -19 -25
-39 -15 -20 -46 -72 -69 -116 l-41 -79 -43 60 c-73 100 -347 349 -684 620
-107 86 -117 97 -117 127 0 18 3 33 8 33 4 0 167 -112 363 -248z m-219 -38
l36 -32 -26 -39 c-14 -21 -26 -39 -27 -40 0 -1 -23 4 -50 12 -26 8 -59 15 -72
15 -22 0 -82 53 -83 73 0 5 12 42 26 83 l27 74 66 -57 c36 -31 82 -72 103 -89z
m-379 98 c9 -10 20 -33 23 -50 4 -20 31 -58 70 -101 l63 -68 -24 -23 -24 -23
-71 67 c-54 51 -77 66 -100 66 -20 0 -35 8 -46 25 -44 68 56 166 109 107z
m-410 -273 c86 -56 182 -83 263 -76 l64 6 -15 -30 c-32 -62 -125 -96 -215 -81
-79 14 -142 46 -205 104 -81 73 -110 147 -85 213 l10 25 60 -60 c34 -34 89
-79 123 -101z m1225 -214 c143 -138 227 -253 216 -294 -4 -14 -10 -69 -13
-122 l-6 -96 -155 164 c-138 146 -160 174 -196 251 -53 113 -152 262 -198 298
-20 16 -36 32 -36 36 0 3 12 20 26 37 l26 31 106 -93 c59 -50 162 -146 230
-212z m968 240 c197 -58 293 -269 235 -518 -77 -331 -349 -585 -605 -565 -86
7 -132 34 -220 130 -88 96 -100 125 -99 248 0 108 23 201 78 315 139 287 399
453 611 390z m-1523 -36 c12 -6 34 -23 50 -37 l27 -26 -32 -10 c-18 -6 -42
-26 -54 -44 l-22 -32 -37 50 c-30 41 -34 53 -25 69 20 38 55 49 93 30z m-126
-124 c54 -64 100 -120 101 -125 8 -22 -37 -8 -53 16 -9 14 -52 68 -96 119 -43
52 -79 96 -79 99 0 4 6 6 14 6 8 0 58 -52 113 -115z m295 58 c36 -39 50 -60
69 -110 10 -27 8 -26 -30 12 -23 21 -41 44 -41 51 0 6 -11 28 -25 48 -32 47
-19 46 27 -1z m-62 -74 c0 -12 30 -45 386 -420 132 -140 373 -396 534 -569
162 -173 380 -407 486 -520 488 -522 573 -620 614 -705 48 -99 58 -157 33
-205 -32 -62 -101 -65 -157 -7 -17 18 -141 158 -276 312 -289 330 -656 741
-1045 1169 -154 170 -300 332 -324 359 -36 39 -43 52 -34 65 22 36 48 17 173
-123 69 -77 280 -311 470 -520 190 -209 478 -529 641 -710 370 -413 443 -489
460 -483 22 7 22 63 0 107 -11 22 -43 66 -70 99 -191 229 -1643 1803 -1870
2027 -82 81 -95 106 -63 124 23 14 42 14 42 0z m-20 -194 c18 -19 32 -36 29
-38 -2 -2 -30 -14 -61 -26 -63 -25 -93 -52 -85 -76 9 -23 37 -18 122 21 l78
36 30 -31 31 -31 -33 -11 c-79 -28 -156 -74 -156 -94 0 -31 29 -29 112 9 113
50 124 52 153 21 15 -15 20 -29 14 -35 -5 -5 -47 -25 -94 -45 -108 -46 -130
-61 -130 -86 0 -31 25 -33 84 -6 l56 26 20 -26 c11 -14 17 -29 14 -34 -3 -5
-29 -21 -57 -35 -31 -16 -82 -58 -127 -105 -66 -68 -82 -80 -133 -94 -33 -10
-74 -31 -95 -48 -20 -18 -98 -86 -172 -152 -304 -272 -490 -417 -618 -482
-101 -52 -139 -55 -204 -14 -71 45 -180 203 -270 391 l-40 84 49 46 c62 60
141 90 251 97 70 5 85 3 102 -12 30 -27 25 -39 -31 -65 -52 -25 -103 -74 -96
-94 9 -29 59 -11 269 96 244 125 483 268 560 337 58 52 70 73 118 216 50 145
64 176 92 202 20 19 162 93 178 93 3 0 21 -16 40 -35z m-1150 -340 c44 -91 76
-197 84 -282 l6 -58 -16 35 c-9 19 -47 122 -84 228 -51 145 -62 188 -48 175
11 -10 37 -54 58 -98z m1773 -585 c-3 -36 -47 -70 -89 -70 -42 0 -151 52 -204
97 -56 49 -96 118 -140 244 -35 101 -38 115 -23 124 8 6 29 19 47 30 l31 21
190 -210 c151 -168 190 -215 188 -236z m-453 -3280 c0 -27 -150 -65 -164 -41
-5 7 4 11 26 11 25 1 109 24 136 39 1 0 2 -3 2 -9z m-1505 -443 c22 -1 57 2
78 6 46 10 50 -7 6 -22 -44 -15 -93 -14 -134 3 -39 17 -47 29 -12 21 12 -3 40
-6 62 -8z"/>
<path d="M3621 5865 c-73 -34 -171 -135 -210 -218 -39 -82 -58 -195 -42 -254
35 -127 157 -169 297 -104 144 67 244 226 246 390 1 86 -27 150 -80 186 -51
35 -136 34 -211 0z"/>
</g>
</svg>
