<?xml version="1.0" standalone="no"?>
<!DOCTYPE svg PUBLIC "-//W3C//DTD SVG 20010904//EN"
 "http://www.w3.org/TR/2001/REC-SVG-20010904/DTD/svg10.dtd">
<svg version="1.0" xmlns="http://www.w3.org/2000/svg"
 width="660.605744pt" height="1391.755361pt" viewBox="0 0 660.605744 1391.755361"
 preserveAspectRatio="xMidYMid meet">
<metadata>Created by Svg.la</metadata>
<g transform="translate(-152.892695,1485.952121) scale(0.100000,-0.100000)"
fill="#000000" stroke="none">
<path d="M4666 14844 c-261 -47 -511 -245 -643 -509 -64 -127 -81 -221 -93
-488 -11 -248 -33 -433 -60 -494 -26 -58 -90 -125 -179 -184 -42 -28 -229
-126 -416 -218 -447 -220 -664 -351 -917 -552 -278 -222 -435 -525 -622 -1199
-58 -212 -126 -502 -126 -542 0 -14 12 -42 26 -63 l25 -38 -35 -166 c-34 -158
-63 -340 -87 -536 -14 -117 -14 -282 1 -370 49 -306 176 -759 360 -1285 106
-304 102 -279 110 -600 8 -295 19 -388 62 -520 39 -123 93 -213 174 -293 51
-50 152 -107 189 -107 11 0 39 -13 61 -29 21 -16 58 -34 81 -41 l42 -13 5 -71
c3 -39 10 -156 16 -261 5 -104 24 -316 40 -469 17 -154 30 -292 30 -308 0 -17
-14 -47 -36 -75 -47 -62 -51 -75 -63 -187 -9 -87 -16 -108 -89 -268 -126 -276
-138 -318 -262 -872 -51 -225 -139 -598 -196 -829 -57 -231 -104 -435 -104
-454 0 -19 7 -47 15 -63 14 -27 13 -36 -5 -103 -27 -100 -48 -221 -56 -326
-10 -140 29 -265 120 -388 36 -49 44 -69 54 -135 37 -244 233 -503 472 -623
298 -150 653 -112 767 82 61 104 29 242 -138 588 -142 297 -167 355 -189 442
-28 108 -26 129 14 174 52 56 62 106 42 201 -9 42 -14 89 -11 105 6 27 140
439 383 1183 120 367 218 631 332 900 102 242 138 359 170 562 30 182 122 777
245 1588 l65 425 147 147 c81 81 149 145 151 143 7 -6 -64 -131 -143 -250
l-72 -110 -42 -260 c-23 -143 -41 -270 -41 -282 0 -12 24 -57 53 -100 30 -43
80 -123 112 -178 32 -55 86 -143 119 -195 126 -198 306 -513 306 -535 0 -12
-7 -42 -15 -65 -21 -59 -19 -103 7 -153 24 -49 24 -55 -36 -317 -51 -224 -90
-479 -141 -945 -52 -469 -65 -570 -106 -783 -31 -166 -35 -222 -18 -239 9 -9
8 -41 -1 -125 -7 -62 -11 -170 -8 -240 5 -151 12 -165 104 -215 59 -33 219
-89 328 -117 56 -14 96 -9 96 12 0 4 4 13 9 21 7 11 31 2 118 -43 60 -31 133
-76 163 -98 74 -56 151 -89 305 -132 172 -47 295 -66 435 -66 171 0 273 29
355 102 50 43 68 82 67 146 -1 76 -36 163 -90 223 -52 58 -127 110 -334 233
-147 86 -318 208 -370 263 -27 28 -27 29 -12 78 20 65 13 134 -21 208 -32 69
-33 60 36 412 26 138 82 430 123 650 41 220 98 508 125 640 77 376 84 433 78
630 -4 148 -10 195 -45 362 -134 635 -385 1442 -668 2147 -70 174 -101 263
-95 270 6 7 15 33 21 60 10 44 6 62 -56 283 -61 217 -65 238 -55 278 15 61 13
203 -4 309 -13 81 -13 100 5 236 32 239 100 599 141 744 l11 39 41 -94 c218
-499 432 -758 709 -857 110 -39 203 -37 290 6 142 70 286 237 480 556 l48 79
0 -1322 0 -1323 -25 -30 -25 -30 0 -259 c0 -246 1 -260 20 -279 20 -20 20 -33
20 -2429 0 -2187 -1 -2409 -16 -2415 -9 -3 -39 -6 -67 -6 -29 0 -106 -9 -172
-20 -321 -53 -558 -165 -706 -336 -142 -164 -135 -380 19 -545 349 -377 1258
-475 1841 -198 184 87 300 188 363 317 30 59 33 75 33 152 0 79 -3 92 -38 162
-118 240 -456 411 -912 461 l-105 12 0 2408 0 2408 23 30 c22 30 22 35 19 287
l-2 256 -28 29 -27 28 3 1607 4 1607 82 85 c108 111 145 161 201 276 31 62 50
92 58 87 7 -4 45 -29 86 -55 58 -38 82 -48 115 -48 88 1 175 84 184 179 7 79
-7 101 -134 196 l-114 85 0 78 c0 42 -5 94 -11 116 -12 44 -77 118 -117 135
-16 7 -45 34 -64 60 -35 46 -118 111 -144 111 -6 0 -28 20 -49 45 -46 57 -103
87 -156 84 -37 -3 -42 0 -77 46 -42 56 -102 95 -147 95 -16 0 -58 -9 -91 -21
l-62 -22 -46 33 c-38 28 -46 39 -46 65 0 94 -65 187 -168 237 -64 32 -72 33
-182 33 -106 0 -119 -2 -166 -27 -66 -35 -137 -114 -166 -186 -18 -45 -22 -77
-22 -152 0 -83 3 -102 27 -151 36 -75 94 -139 154 -172 61 -33 176 -61 221
-53 33 5 34 4 25 -22 -15 -48 -9 -193 9 -249 18 -52 144 -293 180 -346 15 -21
18 -37 14 -63 -12 -62 -89 -193 -214 -363 l-55 -75 -23 45 c-12 24 -39 90 -60
147 l-37 103 22 22 c28 30 27 70 -3 154 -14 37 -75 214 -136 393 -163 474
-214 596 -304 718 -45 60 -46 63 -32 91 12 22 25 30 56 35 56 9 116 40 136 71
23 36 28 131 15 324 -5 91 -7 170 -3 177 4 6 27 27 51 45 78 60 107 153 118
376 l6 133 41 21 c169 87 166 219 -9 451 -81 108 -246 275 -345 349 -310 233
-701 341 -1024 283z m318 -893 c199 -137 521 -230 800 -231 l89 0 -7 -97 c-9
-131 -24 -220 -41 -253 -8 -16 -34 -39 -57 -52 -70 -38 -70 -41 -63 -319 6
-222 5 -247 -10 -259 -27 -23 -94 -14 -163 21 -70 36 -94 33 -100 -14 -2 -19
6 -33 37 -58 23 -18 41 -40 41 -48 0 -29 -29 -59 -63 -66 -71 -16 -84 -29
-111 -117 -42 -138 -85 -185 -190 -212 -89 -23 -184 1 -321 81 -231 136 -369
271 -430 421 -39 95 -59 214 -51 307 l6 81 -56 19 c-104 35 -165 139 -172 293
-5 109 8 165 49 216 58 70 150 66 225 -10 48 -48 68 -103 79 -219 10 -102 15
-109 75 -123 97 -22 103 -17 134 120 l17 76 77 40 c131 68 158 93 171 152 15
69 13 197 -3 243 -8 20 -12 37 -9 37 2 0 23 -13 47 -29z m-945 -728 c17 -47
84 -119 136 -145 22 -11 43 -26 47 -32 4 -6 8 -50 8 -97 0 -198 93 -403 283
-623 l51 -58 -46 -44 c-109 -103 -309 -98 -506 12 -135 76 -275 239 -334 390
-51 132 -73 282 -45 316 6 9 59 47 117 84 65 42 135 99 185 150 44 45 82 82
85 83 4 0 12 -15 19 -36z m2441 -857 l24 -14 -36 -15 c-47 -20 -122 -89 -138
-127 -8 -19 -20 -30 -32 -30 -18 0 -20 5 -14 33 15 74 98 168 150 167 12 -1
32 -7 46 -14z m337 -88 c18 -13 33 -25 33 -28 -1 -13 -158 -110 -178 -110 -32
0 -112 21 -112 29 0 14 76 80 120 105 56 32 94 33 137 4z m225 -129 l40 -21
-79 -53 c-88 -59 -120 -92 -166 -173 -26 -48 -33 -53 -56 -49 -60 12 -81 26
-81 52 0 73 92 188 190 238 65 32 97 34 152 6z m-462 -108 c44 -9 80 -39 80
-67 0 -8 -10 -24 -21 -35 -18 -18 -29 -21 -71 -16 -65 8 -78 2 -78 -39 0 -35
20 -54 58 -54 13 0 28 -18 48 -57 25 -49 37 -61 89 -87 58 -30 60 -33 83 -101
21 -60 26 -96 31 -250 6 -177 6 -180 30 -190 l23 -10 -4 -257 -5 -258 -86
-172 c-114 -230 -244 -427 -361 -544 -101 -101 -141 -124 -213 -124 -115 0
-223 51 -332 155 -127 122 -224 271 -328 505 -51 116 -133 340 -133 364 0 7
28 23 63 36 148 53 381 184 459 257 l27 26 42 -92 c24 -51 56 -125 73 -164
l31 -72 -102 -100 c-122 -120 -160 -189 -170 -305 -6 -71 -6 -72 17 -68 17 2
35 23 64 73 40 67 97 128 328 350 72 69 117 125 197 245 110 165 180 300 188
361 5 32 -1 48 -34 101 -65 103 -160 288 -182 355 -26 76 -27 137 -3 183 28
57 83 72 192 51z m662 -30 l32 -29 -34 -14 c-56 -24 -158 -114 -212 -189 -44
-60 -54 -69 -82 -69 -68 0 -74 51 -15 138 68 103 184 192 251 192 17 0 41 -12
60 -29z m-4362 -122 c118 -158 161 -290 161 -485 -1 -205 -57 -398 -255 -869
-54 -128 -13 92 78 420 81 293 90 350 83 523 -6 164 -37 297 -96 414 -21 43
-37 78 -35 78 2 0 31 -36 64 -81z m4514 -22 c10 -7 20 -32 23 -55 6 -42 5 -43
-19 -37 -68 17 -138 -29 -237 -154 -38 -49 -70 -52 -85 -9 -23 67 52 177 161
236 62 34 126 42 157 19z m-1924 -212 c7 -62 9 -144 5 -190 -14 -164 -74 -396
-135 -520 l-29 -60 5 50 c3 28 25 160 50 295 52 288 74 436 74 505 0 84 18 38
30 -80z m1692 -245 c9 0 21 7 28 15 11 13 17 12 51 -7 22 -12 39 -26 39 -30 0
-5 -14 -41 -30 -80 -35 -81 -104 -189 -149 -232 l-31 -30 0 47 c0 40 3 47 20
47 19 0 20 7 20 152 0 146 1 151 18 135 10 -10 26 -17 34 -17z m-5207 -1048
c134 -66 306 -110 473 -119 98 -6 102 -7 96 -27 -17 -56 -78 -205 -138 -337
l-66 -146 34 -144 c49 -205 60 -271 111 -674 51 -403 73 -546 110 -724 29
-136 76 -304 95 -341 7 -14 72 -86 145 -160 73 -74 148 -160 167 -190 23 -36
53 -113 87 -225 29 -93 63 -190 77 -214 28 -52 29 -59 7 -83 -22 -24 -53 -23
-94 5 -44 29 -68 75 -129 237 -50 136 -70 170 -100 170 -31 0 -42 -28 -47
-112 -7 -105 15 -225 56 -311 29 -60 54 -88 160 -178 36 -31 39 -61 11 -89
-28 -28 -53 -25 -125 15 -91 51 -171 141 -233 262 -52 102 -78 126 -103 97
-28 -34 34 -187 115 -287 66 -82 46 -113 -43 -67 -54 27 -90 74 -156 204 -87
168 -114 198 -145 161 -18 -22 1 -101 46 -195 19 -40 32 -75 30 -78 -12 -11
-115 110 -149 176 -77 146 -107 329 -107 652 0 256 -2 266 -120 615 -162 482
-243 765 -311 1096 -28 136 -32 174 -33 319 0 155 3 184 53 481 l54 317 56
-38 c31 -21 83 -51 116 -68z m2911 -1501 c-303 -376 -989 -611 -1570 -540
-107 13 -162 32 -71 25 90 -8 333 12 481 39 406 75 813 251 1119 483 50 38 92
67 94 66 2 -2 -22 -35 -53 -73z m648 -5440 c-54 -83 -163 -143 -259 -144 -54
-1 -165 28 -165 42 0 4 26 5 58 3 33 -2 86 4 122 13 67 17 198 79 240 113 35
28 36 21 4 -27z m-2927 -821 c81 -14 177 -12 253 4 36 8 66 13 68 11 2 -2 -12
-14 -30 -28 -75 -56 -208 -64 -303 -18 -71 35 -102 56 -68 46 11 -3 47 -10 80
-15z"/>
</g>
</svg>
