<svg width="719" height="166" viewBox="0 0 719 166" fill="none" xmlns="http://www.w3.org/2000/svg">
<path d="M716 74.7297C714.667 73.3963 711.067 70.9963 708.267 69.5297C705.467 68.063 692.534 60.863 679.6 53.5297C666.534 46.063 654.934 40.063 653.467 40.063C652.134 40.063 644.4 43.263 636.267 47.263C613.334 58.5963 600.4 58.863 598 48.063C597.467 45.3963 595.867 43.5297 593.734 42.5963C591.867 41.9297 544.667 41.3963 477.2 41.3963L364 41.3963L364 51.3963L364 61.3963L466.667 61.3963L569.334 61.3963L569.334 82.7297L569.334 104.063L466.667 104.063L364 104.063L364 114.33L364 124.463L430.267 123.663C466.667 123.13 518.534 122.73 545.467 122.73L594.534 122.73L598.667 116.73L602.8 110.73L611.734 110.73C619.867 110.73 621.867 111.396 635.067 118.063C643.067 122.063 650.8 125.396 652.267 125.396C656 125.396 714.267 92.3297 716.8 88.863C719.467 84.9963 719.2 77.9297 716 74.7297Z" fill="white"/>
<path d="M347.333 6.46293C346.133 4.32959 343.6 2.32959 340.933 1.66293C338.667 0.996259 321.867 0.729591 303.733 1.12959C271.867 1.66292 270.8 1.79626 270.133 4.46292C269.733 6.06292 269.867 42.5963 270.267 85.6629L271.067 164.063L306.933 164.063L342.8 164.063L346 160.73L349.333 157.53L349.333 83.7963C349.2 21.5296 348.933 9.52959 347.333 6.46293Z" fill="white"/>
<path d="M251.067 66.463L250.667 1.39628L237.6 1.26295C230.533 1.26295 201.6 1.26295 173.333 1.39628L122 1.52961L96 12.9963C81.7333 19.2629 68.6667 25.2629 67.0667 26.3296C65.3333 27.5296 63.6 30.7296 62.6667 34.7296C61.4667 39.3963 60.4 41.3963 58.2667 41.9296C56.6667 42.3296 44.4 42.7296 31.2 42.7296C8.8 42.7296 6.8 42.9963 3.46666 45.5296L-2.05152e-06 48.1963L-3.53771e-06 82.1963L-5.0239e-06 116.196L3.33333 119.396C6.53333 122.73 6.66666 122.73 33.7333 122.73L60.9333 122.73L62.8 129.796L64.6667 136.73L82.6667 145.663C92.5333 150.596 106.267 157.13 113.067 160.063L125.467 165.663L187.333 165.13C221.333 164.996 249.467 164.33 250 163.796C251.2 162.596 251.467 140.463 251.067 66.463Z" fill="white"/>
</svg> 